<svg width="25" height="24" viewBox="0 0 25 24" fill="none" xmlns="http://www.w3.org/2000/svg">
<path opacity="0.4" d="M8.09429 7.20447C8.53365 7.64379 8.53368 8.3561 8.09436 8.79546L4.88978 12.0003L8.09432 15.2049C8.53366 15.6442 8.53366 16.3565 8.09432 16.7959C7.65498 17.2352 6.94267 17.2352 6.50333 16.7959L2.50333 12.7959C2.06401 12.3565 2.06399 11.6443 2.5033 11.2049L6.5033 7.20454C6.94262 6.76518 7.65493 6.76515 8.09429 7.20447ZM17.0034 7.20447C17.4427 6.76515 18.155 6.76518 18.5944 7.20454L22.5944 11.2049C23.0337 11.6443 23.0336 12.3565 22.5943 12.7959L18.5943 16.7959C18.155 17.2352 17.4427 17.2352 17.0033 16.7959C16.564 16.3565 16.564 15.6442 17.0033 15.2049L20.2079 12.0003L17.0033 8.79546C16.564 8.3561 16.564 7.64379 17.0034 7.20447Z" fill="#323544"/>
<path d="M14.3213 6.875C14.9426 6.875 15.4463 7.37868 15.4463 8C15.4463 8.62132 14.9426 9.125 14.3213 9.125H12.2764C12.0693 9.125 11.9014 9.29289 11.9014 9.5V10.5C11.9014 10.7071 12.0693 10.875 12.2764 10.875H12.8213C14.271 10.875 15.4462 12.0503 15.4463 13.5V14.5C15.4463 15.9497 14.271 17.125 12.8213 17.125H10.7764C10.155 17.125 9.65137 16.6213 9.65137 16C9.65158 15.3789 10.1552 14.875 10.7764 14.875H12.8213C13.0284 14.875 13.1963 14.7071 13.1963 14.5V13.5C13.1962 13.293 13.0283 13.125 12.8213 13.125H12.2764C10.8266 13.125 9.65137 11.9497 9.65137 10.5V9.5C9.65137 8.05025 10.8266 6.875 12.2764 6.875H14.3213Z" fill="#323544"/>
</svg>
