<svg width="25" height="24" viewBox="0 0 25 24" fill="none" xmlns="http://www.w3.org/2000/svg">
<path d="M8.09429 7.20447C8.53365 7.64379 8.53368 8.3561 8.09436 8.79546L4.88978 12.0003L8.09432 15.2049C8.53366 15.6442 8.53366 16.3565 8.09432 16.7959C7.65498 17.2352 6.94267 17.2352 6.50333 16.7959L2.50333 12.7959C2.06401 12.3565 2.06399 11.6443 2.5033 11.2049L6.5033 7.20454C6.94262 6.76518 7.65493 6.76515 8.09429 7.20447ZM17.0034 7.20447C17.4427 6.76515 18.155 6.76518 18.5944 7.20454L22.5944 11.2049C23.0337 11.6443 23.0336 12.3565 22.5943 12.7959L18.5943 16.7959C18.155 17.2352 17.4427 17.2352 17.0033 16.7959C16.564 16.3565 16.564 15.6442 17.0033 15.2049L20.2079 12.0003L17.0033 8.79546C16.564 8.3561 16.564 7.64379 17.0034 7.20447Z" fill="#323544"/>
<path opacity="0.4" d="M14.2328 2.87882C14.3063 2.87273 14.381 2.87384 14.4565 2.88273C14.4941 2.88716 14.5319 2.8929 14.5697 2.90128C15.1763 3.03607 15.559 3.63753 15.4242 4.24406L11.8686 20.2441C11.7589 20.7369 11.3417 21.0815 10.8637 21.121C10.7903 21.1271 10.7154 21.126 10.64 21.1171C10.6024 21.1127 10.5646 21.106 10.5268 21.0976C9.92025 20.9628 9.5375 20.3623 9.67227 19.7558L13.2279 3.75577C13.3375 3.26294 13.7548 2.91846 14.2328 2.87882Z" fill="#323544"/>
</svg>
