<svg width="24" height="24" viewBox="0 0 24 24" fill="none" xmlns="http://www.w3.org/2000/svg">
<path d="M17.6153 12.7724L14.7613 10.014L10.8738 13.0663C9.87738 13.8485 8.45364 13.7632 7.55789 12.8674C6.58224 11.8918 6.58004 10.3106 7.55296 9.33223L10.9792 5.88687C9.86571 5.16585 8.40768 5.26131 7.39716 6.12703L5.44921 7.79585C5.3133 7.91229 5.14023 7.97629 4.96126 7.97629H2.75C2.33579 7.97629 2 8.31207 2 8.72629V14.7558C2 15.17 2.33579 15.5058 2.75 15.5058H4.83766C5.05324 15.5058 5.2584 15.5986 5.40079 15.7604L7.74003 18.4197C8.49372 19.2765 9.76945 19.4335 10.7083 18.7849L11.3925 18.3122L12.1263 18.5611C13.0569 18.8769 14.0847 18.5522 14.665 17.7591L15.135 17.1168L15.4611 17.1608C16.3853 17.2854 17.2905 16.827 17.7371 16.0084L18.0297 15.4702C18.5153 14.58 18.3459 13.4755 17.6153 12.7724Z" fill="#323544"/>
<path d="M18.9239 15.9188C19.6048 14.6387 19.3548 13.0591 18.308 12.0511L15.5553 9.39068L15.7076 9.27115C15.9461 9.08387 15.9643 8.72909 15.7463 8.51834C15.5667 8.34476 15.2865 8.33035 15.09 8.4846L14.0355 9.31253L10.2562 12.2797C9.65789 12.7495 8.80291 12.6982 8.26499 12.1603C7.6791 11.5744 7.67778 10.6249 8.26204 10.0374L11.8248 6.45474C13.2178 5.12914 15.3979 5.07081 16.8614 6.3357L18.5483 7.79371C18.6846 7.91148 18.8587 7.97629 19.0388 7.97629H21.25C21.6642 7.97629 22 8.31207 22 8.72629V15.1688C22 15.583 21.6642 15.9188 21.25 15.9188H18.9239Z" fill="#323544"/>
</svg>
