<svg width="24" height="24" viewBox="0 0 24 24" fill="none" xmlns="http://www.w3.org/2000/svg">
<path d="M21.6042 11.2659C21.0446 10.6311 20.0838 10.5508 19.4265 11.0839L17.6375 12.5349C17.7931 12.8408 17.8809 13.187 17.8809 13.5537C17.8809 14.7964 16.8735 15.8037 15.6309 15.8037H13.8345C13.5583 15.8037 13.3345 15.5799 13.3345 15.3037C13.3345 15.0276 13.5583 14.8037 13.8345 14.8037H15.6309C16.3212 14.8037 16.8809 14.2441 16.8809 13.5537C16.8809 13.4278 16.8623 13.3063 16.8276 13.1917C16.6724 12.6779 16.1953 12.3037 15.6309 12.3037H12.6743C11.511 11.8794 10.2258 11.8075 9.41265 11.8112C8.64045 11.8146 7.94102 12.1196 7.38752 12.5621L5.93363 13.7244C6.03193 13.8258 6.11945 13.9408 6.19328 14.0687L9.19195 19.2625C9.20925 19.2925 9.22557 19.3227 9.24091 19.3533L9.56514 19.0601C9.70304 18.9354 9.88238 18.8663 10.0683 18.8663H16.2415C16.8422 18.8663 17.4103 18.5934 17.7857 18.1245L21.6523 13.2959C22.1316 12.6974 22.1113 11.841 21.6042 11.2659Z" fill="#323544"/>
<path d="M8.0817 20.7686C8.41691 20.5537 8.52709 20.1109 8.32592 19.7625L5.32725 14.5687C5.32174 14.5591 5.31605 14.5497 5.31019 14.5405C5.0958 14.2036 4.65191 14.0925 4.30273 14.2941L2.375 15.4062C2.20274 15.5056 2.07704 15.6694 2.02556 15.8616C1.97408 16.0537 2.00103 16.2584 2.10048 16.4307L5.09915 21.6245C5.30626 21.9832 5.76495 22.1062 6.12367 21.899L8.0817 20.7686Z" fill="#323544"/>
<path d="M15.024 2.05611C15.2064 1.9813 15.4109 1.9813 15.5933 2.05611L15.5946 2.05663L15.5961 2.05727L15.5999 2.05886L15.6106 2.06337L15.6437 2.07777C15.6708 2.08977 15.7078 2.10663 15.7533 2.12847C15.8441 2.1721 15.9696 2.23595 16.1181 2.32112C16.4136 2.4906 16.8088 2.74918 17.2066 3.10723C18.0015 3.82257 18.8512 4.98015 18.8512 6.63101C18.8512 8.64476 17.3251 10.372 15.3278 10.3829L15.3086 10.383L15.2894 10.3829C13.2922 10.3719 11.7661 8.64469 11.7661 6.63101C11.7661 4.98015 12.6158 3.82257 13.4107 3.10723C13.8085 2.74918 14.2037 2.4906 14.4992 2.32112C14.6477 2.23595 14.7732 2.1721 14.864 2.12847C14.9095 2.10663 14.9465 2.08977 14.9736 2.07777L15.0067 2.06337L15.0174 2.05886L15.0212 2.05727L15.0227 2.05663L15.024 2.05611ZM15.3086 8.88299C15.5693 8.88299 15.8233 8.82709 16.0586 8.72401V6.10596C16.0586 5.69174 15.7228 5.35596 15.3086 5.35596C14.8944 5.35596 14.5586 5.69174 14.5586 6.10596V8.72396C14.794 8.82707 15.048 8.88299 15.3086 8.88299Z" fill="#323544"/>
</svg>
