<svg width="24" height="24" viewBox="0 0 24 24" fill="none" xmlns="http://www.w3.org/2000/svg">
<path d="M15.3086 2C15.7228 2 16.0586 2.33579 16.0586 2.75V2.91898C16.807 3.10815 17.3609 3.78601 17.3609 4.59323C17.3609 5.00745 17.0251 5.34323 16.6109 5.34323C16.1967 5.34323 15.8609 5.00745 15.8609 4.59323C15.8609 4.46796 15.7594 4.36641 15.6341 4.36641H15.2391C14.9724 4.36641 14.7563 4.58257 14.7563 4.84921C14.7563 5.05046 14.8811 5.2306 15.0695 5.30127L16.0744 5.67811C16.8482 5.96833 17.3609 6.70814 17.3609 7.53464C17.3609 8.39065 16.8185 9.11996 16.0586 9.39759V9.63372C16.0586 10.0479 15.7228 10.3837 15.3086 10.3837C14.8944 10.3837 14.5586 10.0479 14.5586 9.63372V9.46488C13.8101 9.2757 13.2563 8.59785 13.2563 7.79062C13.2563 7.37641 13.5921 7.04062 14.0063 7.04062C14.4205 7.04062 14.7563 7.37641 14.7563 7.79062C14.7563 7.91589 14.8578 8.01744 14.9831 8.01744H15.3781C15.6448 8.01744 15.8609 7.80129 15.8609 7.53464C15.8609 7.3334 15.7361 7.15326 15.5477 7.08259L14.5428 6.70575C13.7689 6.41552 13.2563 5.67571 13.2563 4.84921C13.2563 3.99321 13.7987 3.2639 14.5586 2.98626V2.75C14.5586 2.33579 14.8944 2 15.3086 2Z" fill="#323544"/>
<path d="M21.6042 11.2659C21.0446 10.6311 20.0838 10.5508 19.4265 11.0839L17.6375 12.5349C17.7931 12.8408 17.8809 13.187 17.8809 13.5537C17.8809 14.7963 16.8735 15.8037 15.6309 15.8037H13.8345C13.5583 15.8037 13.3345 15.5798 13.3345 15.3037C13.3345 15.0276 13.5583 14.8037 13.8345 14.8037H15.6309C16.3212 14.8037 16.8809 14.2441 16.8809 13.5537C16.8809 13.4278 16.8623 13.3063 16.8276 13.1917C16.6724 12.6779 16.1953 12.3037 15.6309 12.3037H12.6743C11.511 11.8794 10.2258 11.8075 9.41265 11.8111C8.64045 11.8146 7.94102 12.1196 7.38752 12.5621L5.93363 13.7243C6.03193 13.8258 6.11945 13.9408 6.19328 14.0686L9.19195 19.2625C9.20925 19.2925 9.22557 19.3227 9.24091 19.3533L9.56514 19.0601C9.70304 18.9354 9.88238 18.8663 10.0683 18.8663H16.2415C16.8422 18.8663 17.4103 18.5934 17.7857 18.1245L21.6523 13.2959C22.1316 12.6974 22.1113 11.841 21.6042 11.2659Z" fill="#323544"/>
<path d="M8.0817 20.7686C8.41691 20.5537 8.52709 20.1109 8.32592 19.7625L5.32725 14.5686C5.32174 14.5591 5.31605 14.5497 5.31019 14.5405C5.0958 14.2036 4.65191 14.0925 4.30273 14.2941L2.375 15.4062C2.20274 15.5056 2.07704 15.6694 2.02556 15.8616C1.97408 16.0537 2.00103 16.2584 2.10048 16.4307L5.09915 21.6245C5.30626 21.9832 5.76495 22.1062 6.12367 21.899L8.0817 20.7686Z" fill="#323544"/>
</svg>
