<svg width="24" height="24" viewBox="0 0 24 24" fill="none" xmlns="http://www.w3.org/2000/svg">
<path d="M8.6434 14.1788C9.42904 15.1655 10.6407 15.7981 12 15.7981C12.2685 15.7981 12.5312 15.7734 12.786 15.7262M12.786 15.7262L13.5086 16.9778C13.9228 17.6952 14.8402 17.941 15.5577 17.5268C16.2751 17.1126 16.5209 16.1952 16.1067 15.4778L15.3567 14.1788C14.7262 14.9707 13.8214 15.5344 12.786 15.7262ZM10.1553 10.2161C10.1553 10.2161 9.71776 8.91167 8.41606 8.91167C7.11437 8.91167 6.67687 10.2161 6.67687 10.2161M17.3231 10.2161C17.3231 10.2161 16.8856 8.91167 15.5839 8.91167C14.2822 8.91167 13.8448 10.2161 13.8448 10.2161M2.75 12C2.75 17.1086 6.89137 21.25 12 21.25C17.1086 21.25 21.25 17.1086 21.25 12C21.25 6.89137 17.1086 2.75 12 2.75C6.89137 2.75 2.75 6.89137 2.75 12Z" stroke="#323544" stroke-width="1.5" stroke-linecap="round" stroke-linejoin="round"/>
</svg>
