<svg width="24" height="24" viewBox="0 0 24 24" fill="none" xmlns="http://www.w3.org/2000/svg">
<path d="M10.04 8.90698H6.95349V10.8605C6.95349 11.2201 7.24502 11.5116 7.60465 11.5116H9.38884C9.74847 11.5116 10.04 11.2201 10.04 10.8605V8.90698Z" fill="#323544"/>
<path d="M17.0465 8.90698H13.96V10.8605C13.96 11.2201 14.2515 11.5116 14.6112 11.5116H16.3954C16.755 11.5116 17.0465 11.2201 17.0465 10.8605V8.90698Z" fill="#323544"/>
<path d="M8.6434 15.1555C9.42904 16.1423 10.6407 16.7748 12 16.7748C13.3594 16.7748 14.571 16.1423 15.3567 15.1555M10.04 8.90698H6.95349V10.8605C6.95349 11.2201 7.24502 11.5116 7.60465 11.5116H9.38884C9.74847 11.5116 10.04 11.2201 10.04 10.8605V8.90698ZM10.04 8.90698H13.96M13.96 8.90698H17.0465V10.8605C17.0465 11.2201 16.755 11.5116 16.3954 11.5116H14.6112C14.2515 11.5116 13.96 11.2201 13.96 10.8605V8.90698ZM2.75 12C2.75 17.1086 6.89137 21.25 12 21.25C17.1086 21.25 21.25 17.1086 21.25 12C21.25 6.89137 17.1086 2.75 12 2.75C6.89137 2.75 2.75 6.89137 2.75 12Z" stroke="#323544" stroke-width="1.5" stroke-linecap="round" stroke-linejoin="round"/>
</svg>
