<svg width="25" height="25" viewBox="0 0 25 25" fill="none" xmlns="http://www.w3.org/2000/svg">
<path d="M8.09429 7.70447C8.53365 8.14379 8.53368 8.8561 8.09436 9.29546L4.88978 12.5003L8.09432 15.7049C8.53366 16.1442 8.53366 16.8565 8.09432 17.2959C7.65498 17.7352 6.94267 17.7352 6.50333 17.2959L2.50333 13.2959C2.06401 12.8565 2.06399 12.1443 2.5033 11.7049L6.5033 7.70454C6.94262 7.26518 7.65493 7.26515 8.09429 7.70447ZM17.0034 7.70447C17.4427 7.26515 18.155 7.26518 18.5944 7.70454L22.5944 11.7049C23.0337 12.1443 23.0336 12.8565 22.5943 13.2959L18.5943 17.2959C18.155 17.7352 17.4427 17.7352 17.0033 17.2959C16.564 16.8565 16.564 16.1442 17.0033 15.7049L20.2079 12.5003L17.0033 9.29546C16.564 8.8561 16.564 8.14379 17.0034 7.70447ZM9.65137 10.0001C9.65137 8.55034 10.8266 7.37508 12.2764 7.37508H14.3214C14.9428 7.37508 15.4464 7.87876 15.4464 8.50008C15.4464 9.1214 14.9428 9.62508 14.3214 9.62508H12.2764C12.0693 9.62508 11.9014 9.79298 11.9014 10.0001V11.0003C11.9014 11.2074 12.0693 11.3753 12.2764 11.3753H12.8214C14.2712 11.3753 15.4464 12.5505 15.4464 14.0003V15.0005C15.4464 16.4502 14.2712 17.6255 12.8214 17.6255H10.7764C10.155 17.6255 9.65137 17.1218 9.65137 16.5005C9.65137 15.8792 10.155 15.3755 10.7764 15.3755H12.8214C13.0286 15.3755 13.1964 15.2076 13.1964 15.0005V14.0003C13.1964 13.7932 13.0286 13.6253 12.8214 13.6253H12.2764C10.8266 13.6253 9.65137 12.45 9.65137 11.0003V10.0001Z" fill="#323544"/>
</svg>
