<svg width="25" height="24" viewBox="0 0 25 24" fill="none" xmlns="http://www.w3.org/2000/svg">
<path d="M4.25 2C3.83579 2 3.5 2.33579 3.5 2.75C3.5 3.16421 3.83579 3.5 4.25 3.5H5H6.5H13.125C15.2651 3.5 17 5.2349 17 7.375C17 9.5151 15.2651 11.25 13.125 11.25H6.5V12.75H14.625C16.7651 12.75 18.5 14.4849 18.5 16.625C18.5 18.7651 16.7651 20.5 14.625 20.5H6.5H5H4.25C3.83579 20.5 3.5 20.8358 3.5 21.25C3.5 21.6642 3.83579 22 4.25 22H14.625C17.5935 22 20 19.5935 20 16.625C20 14.3071 18.5328 12.3319 16.4765 11.5774C17.7098 10.5925 18.5 9.07603 18.5 7.375C18.5 4.40647 16.0935 2 13.125 2H4.25Z" fill="#323544"/>
<path opacity="0.4" d="M6.5 11.25V3.5H5V20.5H6.5V12.75V11.25Z" fill="#323544"/>
</svg>
