<svg width="25" height="24" viewBox="0 0 25 24" fill="none" xmlns="http://www.w3.org/2000/svg">
<g opacity="0.4">
<path d="M3.75 4C3.75 3.58579 4.08579 3.25 4.5 3.25H20.5C20.9142 3.25 21.25 3.58579 21.25 4C21.25 4.41421 20.9142 4.75 20.5 4.75L4.5 4.75C4.08579 4.75 3.75 4.41421 3.75 4Z" fill="#323544"/>
<path d="M12.4644 9.33398C12.4644 8.91977 12.8001 8.58398 13.2144 8.58398H20.5002C20.9145 8.58398 21.2502 8.91977 21.2502 9.33398C21.2502 9.7482 20.9145 10.084 20.5002 10.084H13.2144C12.8001 10.084 12.4644 9.7482 12.4644 9.33398Z" fill="#323544"/>
<path d="M13.2144 13.916C12.8001 13.916 12.4644 14.2518 12.4644 14.666C12.4644 15.0802 12.8001 15.416 13.2144 15.416L20.5002 15.416C20.9145 15.416 21.2502 15.0802 21.2502 14.666C21.2502 14.2518 20.9145 13.916 20.5002 13.916L13.2144 13.916Z" fill="#323544"/>
<path d="M3.75 20C3.75 19.5858 4.08579 19.25 4.5 19.25H20.5C20.9142 19.25 21.25 19.5858 21.25 20C21.25 20.4142 20.9142 20.75 20.5 20.75H4.5C4.08579 20.75 3.75 20.4142 3.75 20Z" fill="#323544"/>
</g>
<path d="M5.25035 9.31638L5.26526 9.30822L9.46288 11.9922L5.25035 9.31638Z" fill="#323544"/>
<path d="M3.75 9.32249C3.75 8.12684 5.07125 7.40338 6.0786 8.04744L10.266 10.7247C11.1969 11.3198 11.1969 12.6796 10.266 13.2748L6.0786 15.952C5.07124 16.5961 3.75 15.8726 3.75 14.677V9.32249ZM5.25035 9.31638C5.25035 9.31638 5.25 9.31939 5.25 9.32249L5.25 14.677C5.25 14.6801 5.25035 14.6831 5.25035 14.6831C5.25035 14.6831 5.25326 14.6867 5.25696 14.6887C5.26065 14.6907 5.2646 14.6915 5.2646 14.6915C5.2646 14.6915 5.26798 14.6899 5.27059 14.6882L9.45798 12.011L9.4598 12.0098L9.46189 12.0082L9.46282 12.0074C9.46282 12.0074 9.46415 12.0045 9.46415 11.9997C9.46415 11.9953 9.46288 11.9922 9.46288 11.9922L9.46189 11.9913L9.46013 11.9899L9.45798 11.9884L5.27059 9.31121C5.26798 9.30954 5.26526 9.30822 5.26526 9.30822C5.26526 9.30822 5.26065 9.30873 5.25696 9.31075C5.25326 9.31277 5.25035 9.31638 5.25035 9.31638Z" fill="#323544"/>
</svg>
