<svg width="25" height="24" viewBox="0 0 25 24" fill="none" xmlns="http://www.w3.org/2000/svg">
<path d="M2.5 12C2.5 11.5858 2.83579 11.25 3.25 11.25H7.41667C7.83088 11.25 8.16667 11.5858 8.16667 12C8.16667 12.4142 7.83088 12.75 7.41667 12.75L3.25 12.75C2.83579 12.75 2.5 12.4142 2.5 12Z" fill="#323544"/>
<path d="M17.5835 11.25C17.1693 11.25 16.8335 11.5858 16.8335 12C16.8335 12.4142 17.1693 12.75 17.5835 12.75L21.7502 12.75C22.1644 12.75 22.5002 12.4142 22.5002 12C22.5002 11.5858 22.1644 11.25 21.7502 11.25H17.5835Z" fill="#323544"/>
<path opacity="0.4" d="M9.66797 12C9.66797 11.5858 10.0038 11.25 10.418 11.25H14.5846C14.9988 11.25 15.3346 11.5858 15.3346 12C15.3346 12.4142 14.9988 12.75 14.5846 12.75L10.418 12.75C10.0038 12.75 9.66797 12.4142 9.66797 12Z" fill="#323544"/>
</svg>
