<svg width="25" height="24" viewBox="0 0 25 24" fill="none" xmlns="http://www.w3.org/2000/svg">
<path d="M3.25156 11.0996C2.75451 11.0996 2.35156 11.5026 2.35156 11.9996C2.35156 12.4967 2.75451 12.8996 3.25156 12.8996C3.74862 12.8996 4.15166 12.4967 4.15166 11.9996C4.15166 11.5026 3.74862 11.0996 3.25156 11.0996Z" fill="#323544"/>
<path d="M10.651 11.0996C10.1539 11.0996 9.75098 11.5026 9.75098 11.9996C9.75098 12.4967 10.1539 12.8996 10.651 12.8996C11.148 12.8996 11.5511 12.4967 11.5511 11.9996C11.5511 11.5026 11.148 11.0996 10.651 11.0996Z" fill="#323544"/>
<path d="M17.1504 11.9996C17.1504 11.5026 17.5533 11.0996 18.0504 11.0996C18.5474 11.0996 18.9505 11.5026 18.9505 11.9996C18.9505 12.4967 18.5475 12.8996 18.0505 12.8996C17.5534 12.8996 17.1504 12.4967 17.1504 11.9996Z" fill="#323544"/>
<g opacity="0.4">
<path d="M13.4502 11.9996C13.4502 11.5026 13.8531 11.0996 14.3502 11.0996C14.8473 11.0996 15.2503 11.5026 15.2503 11.9996C15.2503 12.4967 14.8474 12.8996 14.3503 12.8996C13.8532 12.8996 13.4502 12.4967 13.4502 11.9996Z" fill="#323544"/>
<path d="M6.95078 11.0996C6.45372 11.0996 6.05078 11.5026 6.05078 11.9996C6.05078 12.4967 6.45373 12.8996 6.95078 12.8996C7.44784 12.8996 7.85088 12.4967 7.85088 11.9996C7.85088 11.5026 7.44784 11.0996 6.95078 11.0996Z" fill="#323544"/>
<path d="M21.7501 11.0996C21.253 11.0996 20.8501 11.5026 20.8501 11.9996C20.8501 12.4967 21.253 12.8996 21.7501 12.8996C22.2472 12.8996 22.6502 12.4967 22.6502 11.9996C22.6502 11.5026 22.2472 11.0996 21.7501 11.0996Z" fill="#323544"/>
</g>
</svg>
