<svg width="25" height="24" viewBox="0 0 25 24" fill="none" xmlns="http://www.w3.org/2000/svg">
<path d="M2.71968 11.4695C2.42678 11.7624 2.42677 12.2373 2.71966 12.5302L6.71966 16.5303C7.01255 16.8232 7.48742 16.8232 7.78032 16.5303C8.07322 16.2374 8.07323 15.7626 7.78034 15.4697L4.31066 11.9999L7.78032 8.53034C8.07322 8.23745 8.07323 7.76258 7.78034 7.46968C7.48745 7.17678 7.01258 7.17677 6.71968 7.46966L2.71968 11.4695Z" fill="#323544"/>
<path d="M22.2803 12.5302C22.5732 12.2373 22.5732 11.7624 22.2803 11.4695L18.2803 7.46966C17.9874 7.17677 17.5126 7.17678 17.2197 7.46968C16.9268 7.76258 16.9268 8.23745 17.2197 8.53034L20.6893 11.9999L17.2197 15.4697C16.9268 15.7626 16.9268 16.2374 17.2197 16.5303C17.5126 16.8232 17.9874 16.8232 18.2803 16.5303L22.2803 12.5302Z" fill="#323544"/>
<g opacity="0.4">
<path d="M8.49961 11.0996C8.00255 11.0996 7.59961 11.5026 7.59961 11.9996C7.59961 12.4967 8.00255 12.8996 8.49961 12.8996C8.99667 12.8996 9.39971 12.4967 9.39971 11.9996C9.39971 11.5026 8.99667 11.0996 8.49961 11.0996Z" fill="#323544"/>
<path d="M11.5996 11.9996C11.5996 11.5026 12.0026 11.0996 12.4996 11.0996C12.9967 11.0996 13.3997 11.5026 13.3997 11.9996C13.3997 12.4967 12.9968 12.8996 12.4997 12.8996C12.0027 12.8996 11.5996 12.4967 11.5996 11.9996Z" fill="#323544"/>
<path d="M15.5996 11.9996C15.5996 11.5026 16.0026 11.0996 16.4996 11.0996C16.9967 11.0996 17.3997 11.5026 17.3997 11.9996C17.3997 12.4967 16.9968 12.8996 16.4997 12.8996C16.0027 12.8996 15.5996 12.4967 15.5996 11.9996Z" fill="#323544"/>
</g>
</svg>
