<svg width="25" height="24" viewBox="0 0 25 24" fill="none" xmlns="http://www.w3.org/2000/svg">
<path d="M10.5835 20L10.5833 4.75L14.4165 4.75H15.9165L20.5002 4.75C20.9144 4.75 21.2502 4.41421 21.2502 4C21.2502 3.58579 20.9144 3.25 20.5002 3.25L7.61111 3.25C5.47868 3.25 3.75 4.97868 3.75 7.11111C3.75 9.24355 5.47868 10.9722 7.61111 10.9722H9.0834L9.0835 20C9.0835 20.4142 9.41929 20.75 9.8335 20.75C10.2477 20.75 10.5835 20.4142 10.5835 20ZM7.61111 4.75H9.08334L9.08339 9.47222H7.61111C6.30711 9.47222 5.25 8.41512 5.25 7.11111C5.25 5.80711 6.30711 4.75 7.61111 4.75Z" fill="#323544"/>
<path opacity="0.4" d="M15.916 20V4.75H14.416V20C14.416 20.4142 14.7518 20.75 15.166 20.75C15.5802 20.75 15.916 20.4142 15.916 20Z" fill="#323544"/>
</svg>
