<svg width="25" height="24" viewBox="0 0 25 24" fill="none" xmlns="http://www.w3.org/2000/svg">
<path d="M8.25206 18.19L9.97387 16.4694C10.2669 16.1766 10.7417 16.1767 11.0345 16.4697C11.3273 16.7627 11.3271 17.2376 11.0342 17.5304L8.03205 20.5304C7.73919 20.823 7.26459 20.823 6.97174 20.5304L3.96984 17.5304C3.67685 17.2376 3.6767 16.7627 3.9695 16.4697C4.2623 16.1767 4.73718 16.1766 5.03016 16.4694L6.75206 18.1902L6.75206 4.49902C6.75206 4.08481 7.08784 3.74902 7.50206 3.74902C7.91627 3.74902 8.25206 4.08481 8.25206 4.49902L8.25206 18.19Z" fill="#323544"/>
<g opacity="0.4">
<path d="M13.5039 3.25C13.0897 3.25 12.7539 3.58579 12.7539 4C12.7539 4.41421 13.0897 4.75 13.5039 4.75L20.4999 4.75C20.9141 4.75 21.2499 4.41421 21.2499 4C21.2499 3.58579 20.9141 3.25 20.4999 3.25H13.5039Z" fill="#323544"/>
<path d="M13.5039 15.4167C13.0897 15.4167 12.7539 15.0809 12.7539 14.6667C12.7539 14.2525 13.0897 13.9167 13.5039 13.9167H17.4999C17.9141 13.9167 18.2499 14.2525 18.2499 14.6667C18.2499 15.0809 17.9141 15.4167 17.4999 15.4167H13.5039Z" fill="#323544"/>
<path d="M15.9999 20.75H13.5039C13.0897 20.75 12.7539 20.4142 12.7539 20C12.7539 19.5858 13.0897 19.25 13.5039 19.25H15.9999C16.4141 19.25 16.7499 19.5858 16.7499 20C16.7499 20.4142 16.4141 20.75 15.9999 20.75Z" fill="#323544"/>
<path d="M13.5039 10.0833L18.9999 10.0833C19.4141 10.0833 19.7499 9.7475 19.7499 9.33329C19.7499 8.91908 19.4141 8.58329 18.9999 8.58329L13.5039 8.58329C13.0897 8.58329 12.7539 8.91908 12.7539 9.33329C12.7539 9.74751 13.0897 10.0833 13.5039 10.0833Z" fill="#323544"/>
</g>
</svg>
