<svg width="25" height="24" viewBox="0 0 25 24" fill="none" xmlns="http://www.w3.org/2000/svg">
<g opacity="0.4">
<path d="M18.1328 3.51516C18.0567 3.42525 17.9583 3.35199 17.8415 3.30481C17.4575 3.14964 17.0204 3.33519 16.8652 3.71924L14.084 10.603C13.9288 10.987 14.1144 11.4241 14.4984 11.5793C14.8825 11.7345 15.3196 11.5489 15.4748 11.1649L15.942 10.0083L19.1792 10.0084L19.6464 11.165C19.8016 11.5491 20.2387 11.7346 20.6228 11.5795C21.0068 11.4243 21.1924 10.9872 21.0372 10.6031L18.2568 3.72141C18.2534 3.71285 18.2498 3.70437 18.2461 3.69595C18.2164 3.62903 18.178 3.5685 18.1328 3.51516ZM18.5731 8.50843L16.5481 8.50837L17.5606 6.0023L18.5731 8.50843Z" fill="#323544"/>
<path d="M14.6211 14.8718C14.2069 14.8718 13.8711 14.536 13.8711 14.1218C13.8711 13.7076 14.2069 13.3718 14.6211 13.3718H20.5002C20.8035 13.3718 21.077 13.5546 21.1931 13.8348C21.3092 14.1151 21.245 14.4377 21.0305 14.6522L16.4318 19.2509H20.5002C20.9144 19.2509 21.2502 19.5867 21.2502 20.0009C21.2502 20.4151 20.9144 20.7509 20.5002 20.7509H14.6211C14.3178 20.7509 14.0443 20.5682 13.9282 20.2879C13.8121 20.0077 13.8763 19.6851 14.0908 19.4706L18.6895 14.8718H14.6211Z" fill="#323544"/>
</g>
<path d="M6.97206 3.46948C7.26492 3.17683 7.73952 3.17684 8.03237 3.4695L11.0343 6.4695C11.3273 6.7623 11.3274 7.23717 11.0346 7.53016C10.7418 7.82315 10.2669 7.8233 9.97395 7.5305L8.25206 5.8097L8.25206 18.1901L9.97387 16.4695C10.2669 16.1767 10.7417 16.1769 11.0345 16.4699C11.3273 16.7629 11.3271 17.2377 11.0342 17.5305L8.03205 20.5305C7.73919 20.8232 7.26459 20.8232 6.97174 20.5305L3.96984 17.5305C3.67685 17.2377 3.6767 16.7628 3.9695 16.4698C4.2623 16.1769 4.73718 16.1767 5.03016 16.4695L6.75206 18.1903L6.75206 5.80991L5.03025 7.53052C4.73725 7.82331 4.26238 7.82314 3.96959 7.53014C3.6768 7.23715 3.67696 6.76227 3.96996 6.46948L6.97206 3.46948Z" fill="#323544"/>
</svg>
