<svg width="25" height="24" viewBox="0 0 25 24" fill="none" xmlns="http://www.w3.org/2000/svg">
<path opacity="0.4" d="M9.2503 4.5C9.54669 4.5 9.81528 4.67455 9.93566 4.9454L15.9355 18.4454C16.1038 18.8239 15.9333 19.2671 15.5548 19.4354C15.1763 19.6036 14.7331 19.4331 14.5648 19.0546L12.8371 15.1672L5.6633 15.167L3.93554 19.0543C3.76731 19.4328 3.32408 19.6033 2.94557 19.4351C2.56706 19.2668 2.3966 18.8236 2.56483 18.4451L8.56494 4.94539C8.68532 4.67454 8.95391 4.5 9.2503 4.5ZM9.25028 7.09664L6.32998 13.6671L12.1705 13.6672L9.25028 7.09664Z" fill="#323544"/>
<path d="M22.2807 5.78033C22.5736 5.48744 22.5736 5.01256 22.2807 4.71967C21.9878 4.42678 21.5129 4.42678 21.22 4.71967L17.7385 8.2012L16.3272 6.78991C16.0343 6.49701 15.5594 6.49702 15.2665 6.78991C14.9737 7.08281 14.9737 7.55768 15.2665 7.85057L17.2082 9.79219C17.5011 10.0851 17.9759 10.0851 18.2688 9.79218L22.2807 5.78033Z" fill="#323544"/>
</svg>
