<svg width="25" height="24" viewBox="0 0 25 24" fill="none" xmlns="http://www.w3.org/2000/svg">
<path d="M9.42023 4.9454C9.29986 4.67455 9.03127 4.5 8.73488 4.5C8.43849 4.5 8.16989 4.67454 8.04951 4.94539L3.16054 15.9452C2.9923 16.3237 3.16277 16.7669 3.54128 16.9351C3.91979 17.1034 4.36301 16.9329 4.53124 16.5544L5.90238 13.4695L11.5672 13.4696L12.9383 16.5546C13.1065 16.9331 13.5498 17.1036 13.9283 16.9354C14.3068 16.7671 14.4773 16.3239 14.309 15.9454L9.42023 4.9454ZM10.9006 11.9696L6.56906 11.9695L8.73485 7.09664L10.9006 11.9696Z" fill="#323544"/>
<g opacity="0.4">
<path d="M14.2184 19.5005L3.24997 19.5001C2.83576 19.5001 2.49999 19.1643 2.5 18.7501C2.50001 18.3359 2.83581 18.0001 3.25003 18.0001L14.2185 18.0005C14.6327 18.0005 14.9685 18.3363 14.9685 18.7505C14.9685 19.1647 14.6327 19.5005 14.2184 19.5005Z" fill="#323544"/>
<path d="M17.1915 14.1923C16.8986 14.4852 16.8986 14.9601 17.1915 15.253L18.6753 16.7368L17.1915 18.2206C16.8986 18.5135 16.8986 18.9884 17.1915 19.2813C17.4844 19.5742 17.9592 19.5742 18.2521 19.2813L19.736 17.7975L21.2197 19.2813C21.5126 19.5742 21.9875 19.5742 22.2804 19.2813C22.5733 18.9884 22.5733 18.5135 22.2804 18.2206L20.7966 16.7368L22.2804 15.253C22.5733 14.9601 22.5733 14.4853 22.2804 14.1924C21.9875 13.8995 21.5126 13.8995 21.2197 14.1924L19.736 15.6762L18.2521 14.1923C17.9592 13.8994 17.4844 13.8994 17.1915 14.1923Z" fill="#323544"/>
</g>
</svg>
