<svg width="25" height="24" viewBox="0 0 25 24" fill="none" xmlns="http://www.w3.org/2000/svg">
<path d="M11.0007 3.25C11.2971 3.25 11.5657 3.42455 11.6861 3.6954L17.4638 16.6954C17.632 17.0739 17.4615 17.5171 17.083 17.6854C16.7045 17.8536 16.2613 17.6831 16.093 17.3046L14.4367 13.5777L7.56463 13.5775L5.9082 17.3043C5.73996 17.6829 5.29674 17.8533 4.91823 17.6851C4.53972 17.5168 4.36926 17.0736 4.53749 16.6951L10.3154 3.69539C10.4358 3.42454 10.7043 3.25 11.0007 3.25ZM8.23131 12.0775L13.77 12.0777L11.0007 5.84664L8.23131 12.0775Z" fill="#323544"/>
<g opacity="0.4">
<path d="M19.7495 4.00003L19.75 16.9995C19.75 17.4138 20.0858 17.7495 20.5 17.7495C20.9142 17.7495 21.25 17.4137 21.25 16.9995L21.2495 3.99997C21.2495 3.58576 20.9137 3.24999 20.4995 3.25C20.0853 3.25001 19.7495 3.58581 19.7495 4.00003Z" fill="#323544"/>
<path d="M17.4996 20.7495L4.49997 20.7491C4.08576 20.7491 3.74999 20.4133 3.75 19.999C3.75001 19.5848 4.08581 19.2491 4.50003 19.2491L17.4997 19.2495C17.9139 19.2495 18.2496 19.5853 18.2496 19.9995C18.2496 20.4138 17.9138 20.7495 17.4996 20.7495Z" fill="#323544"/>
</g>
</svg>
