<svg width="24" height="25" viewBox="0 0 24 25" fill="none" xmlns="http://www.w3.org/2000/svg">
<path d="M14.6871 4.625C14.6871 4.00368 15.1908 3.5 15.8121 3.5H18.1245C19.5742 3.5 20.7495 4.67525 20.7495 6.125L20.7495 8.43772C20.7495 9.05904 20.2458 9.56272 19.6245 9.56272C19.0032 9.56272 18.4995 9.05904 18.4995 8.43772L18.4995 6.125C18.4995 5.91789 18.3316 5.75 18.1245 5.75H15.8121C15.1908 5.75 14.6871 5.24632 14.6871 4.625ZM4.375 14.9382C4.99632 14.9382 5.5 15.4418 5.5 16.0632V18.3759C5.5 18.583 5.66789 18.7509 5.875 18.7509H8.18737C8.80869 18.7509 9.31237 19.2545 9.31237 19.8759C9.31237 20.4972 8.80869 21.0009 8.18737 21.0009H5.875C4.42525 21.0009 3.25 19.8256 3.25 18.3759V16.0632C3.25 15.4418 3.75368 14.9382 4.375 14.9382Z" fill="#323544"/>
<g opacity="0.4">
<path d="M19.624 14.9385C20.2453 14.9385 20.749 15.4422 20.749 16.0635V18.376C20.749 19.8257 19.5737 21.001 18.124 21.001H15.8125C15.1912 21.001 14.6876 20.4972 14.6875 19.876C14.6875 19.2547 15.1912 18.751 15.8125 18.751H18.124C18.3311 18.751 18.499 18.583 18.499 18.376V16.0635C18.499 15.4423 19.0029 14.9387 19.624 14.9385Z" fill="#323544"/>
<path d="M8.1875 3.5C8.80876 3.50007 9.3125 4.00372 9.3125 4.625C9.3125 5.24628 8.80876 5.74993 8.1875 5.75H5.875C5.66789 5.75 5.5 5.91789 5.5 6.125V8.4375C5.5 9.05882 4.99632 9.5625 4.375 9.5625C3.75368 9.5625 3.25 9.05882 3.25 8.4375V6.125C3.25 4.67525 4.42525 3.5 5.875 3.5H8.1875Z" fill="#323544"/>
</g>
</svg>
