<svg width="25" height="24" viewBox="0 0 25 24" fill="none" xmlns="http://www.w3.org/2000/svg">
<path opacity="0.4" d="M6.6875 2C5.44486 2 4.4375 3.00736 4.4375 4.25V5.61053C4.4375 6.43304 4.70792 7.23275 5.20712 7.88645L9.53358 13.5521C9.63342 13.6828 9.6875 13.8427 9.6875 14.0072V18.9124C9.6875 19.7028 10.1022 20.4352 10.7799 20.8418L12.2871 21.7461C13.4536 22.446 14.9375 21.6058 14.9375 20.2455V14.0072C14.9375 13.8427 14.9916 13.6828 15.0914 13.5521L19.4179 7.88645C19.9171 7.23275 20.1875 6.43304 20.1875 5.61053V4.25C20.1875 3.00736 19.1801 2 17.9375 2H6.6875Z" fill="#323544"/>
<path d="M4.4375 4.25098C4.4375 3.00834 5.44486 2.00098 6.6875 2.00098H17.9375C19.1801 2.00098 20.1875 3.00834 20.1875 4.25098V5.61151C20.1875 6.43402 19.9171 7.23372 19.4179 7.88743L15.0914 13.553C14.9916 13.6838 14.9375 13.8437 14.9375 14.0082V20.2465C14.9375 21.6068 13.4536 22.447 12.2871 21.7471L10.7799 20.8428C10.1022 20.4361 9.6875 19.7038 9.6875 18.9134V14.0082C9.6875 13.8437 9.63342 13.6838 9.53358 13.553L5.20712 7.88743C4.70792 7.23372 4.4375 6.43402 4.4375 5.61151V4.25098ZM6.6875 3.50098C6.27329 3.50098 5.9375 3.83676 5.9375 4.25098V5.61151C5.9375 6.10501 6.09975 6.58484 6.39927 6.97706L10.7257 12.6427C11.0252 13.0349 11.1875 13.5147 11.1875 14.0082V18.9134C11.1875 19.1769 11.3257 19.421 11.5516 19.5565L13.0589 20.4609C13.2255 20.5609 13.4375 20.4408 13.4375 20.2465V14.0082C13.4375 13.5147 13.5998 13.0349 13.8993 12.6427L18.2257 6.97706C18.5252 6.58484 18.6875 6.10501 18.6875 5.61151V4.25098C18.6875 3.83676 18.3517 3.50098 17.9375 3.50098H6.6875Z" fill="#323544"/>
</svg>
