<svg width="24" height="24" viewBox="0 0 24 24" fill="none" xmlns="http://www.w3.org/2000/svg">
<path d="M3.75781 12.0002C3.75781 13.2419 4.76439 14.2485 6.00607 14.2485C7.24774 14.2485 8.25432 13.2419 8.25432 12.0002C8.25432 10.7585 7.24774 9.75195 6.00607 9.75195C4.76439 9.75195 3.75781 10.7585 3.75781 12.0002Z" fill="#323544"/>
<path d="M15.751 12.0002C15.751 13.2419 16.7576 14.2485 17.9992 14.2485C19.2409 14.2485 20.2475 13.2419 20.2475 12.0002C20.2475 10.7585 19.2409 9.75195 17.9992 9.75195C16.7576 9.75195 15.751 10.7585 15.751 12.0002Z" fill="#323544"/>
<path opacity="0.4" d="M9.75391 12.0002C9.75391 13.2419 10.7605 14.2485 12.0022 14.2485C13.2438 14.2485 14.2504 13.2419 14.2504 12.0002C14.2504 10.7585 13.2438 9.75195 12.0022 9.75195C10.7605 9.75195 9.75391 10.7585 9.75391 12.0002Z" fill="#323544"/>
</svg>
