<svg width="24" height="24" viewBox="0 0 24 24" fill="none" xmlns="http://www.w3.org/2000/svg">
<path d="M20 7.125L8 7.125C7.37868 7.125 6.875 6.62132 6.875 6C6.875 5.37868 7.37868 4.875 8 4.875L20 4.875C20.6213 4.875 21.125 5.37868 21.125 6C21.125 6.62132 20.6213 7.125 20 7.125ZM20 13.125L8 13.125C7.37868 13.125 6.875 12.6213 6.875 12C6.875 11.3787 7.37868 10.875 8 10.875L20 10.875C20.6213 10.875 21.125 11.3787 21.125 12C21.125 12.6213 20.6213 13.125 20 13.125ZM20 19.125L8 19.125C7.37868 19.125 6.875 18.6213 6.875 18C6.875 17.3787 7.37868 16.875 8 16.875L20 16.875C20.6213 16.875 21.125 17.3787 21.125 18C21.125 18.6213 20.6213 19.125 20 19.125Z" fill="#323544"/>
<path opacity="0.4" d="M2.75977 6C2.75977 5.30964 3.31941 4.75 4.00977 4.75H4.01977C4.71012 4.75 5.26977 5.30964 5.26977 6C5.26977 6.69036 4.71012 7.25 4.01977 7.25H4.00977C3.31941 7.25 2.75977 6.69036 2.75977 6ZM2.75977 12C2.75977 11.3096 3.31941 10.75 4.00977 10.75H4.01977C4.71012 10.75 5.26977 11.3096 5.26977 12C5.26977 12.6904 4.71012 13.25 4.01977 13.25H4.00977C3.31941 13.25 2.75977 12.6904 2.75977 12ZM2.75977 18C2.75977 17.3096 3.31941 16.75 4.00977 16.75H4.01977C4.71012 16.75 5.26977 17.3096 5.26977 18C5.26977 18.6904 4.71012 19.25 4.01977 19.25H4.00977C3.31941 19.25 2.75977 18.6904 2.75977 18Z" fill="#323544"/>
</svg>
