<svg width="25" height="24" viewBox="0 0 25 24" fill="none" xmlns="http://www.w3.org/2000/svg">
<path d="M7.17445 4.46302C8.83347 3.19001 10.8662 2.5 12.9573 2.5C15.0485 2.5 17.0812 3.19001 18.7402 4.46302C19.7894 5.26807 20.652 6.27783 21.2813 7.42228L23.0525 6.92706C23.3447 6.84538 23.6573 6.94772 23.8445 7.18637C24.0318 7.42502 24.0568 7.75297 23.908 8.0173L22.1734 11.0983C22.0758 11.2717 21.9134 11.3991 21.7218 11.4527C21.5302 11.5063 21.3252 11.4815 21.1519 11.3839L18.0712 9.64919C17.8068 9.50036 17.6582 9.20697 17.6945 8.90582C17.7309 8.60466 17.9451 8.35506 18.2372 8.27338L19.7899 7.83927C19.2795 7.00108 18.6159 6.25835 17.827 5.65305C16.43 4.58106 14.7183 4 12.9573 4C11.1964 4 9.48464 4.58106 8.08759 5.65305C6.69054 6.72504 5.68626 8.22807 5.23049 9.92901C5.12328 10.3291 4.71203 10.5665 4.31193 10.4593C3.91183 10.3521 3.67439 9.94088 3.7816 9.54078C4.32283 7.52089 5.51543 5.73603 7.17445 4.46302Z" fill="#323544"/>
<path opacity="0.4" d="M4.18505 12.5462C4.37663 12.4927 4.58163 12.5174 4.75496 12.615L7.83567 14.3498C8.09998 14.4986 8.24862 14.792 8.21228 15.0931C8.17593 15.3943 7.96176 15.6439 7.66963 15.7256L6.12552 16.1573C6.63604 16.9963 7.30008 17.7397 8.08954 18.3455C9.48659 19.4175 11.1983 19.9985 12.9593 19.9985C14.7202 19.9985 16.432 19.4175 17.829 18.3455C19.226 17.2735 20.2303 15.7705 20.6861 14.0695C20.7933 13.6694 21.2046 13.432 21.6047 13.5392C22.0048 13.6464 22.2422 14.0576 22.135 14.4577C21.5938 16.4776 20.4012 18.2625 18.7421 19.5355C17.0831 20.8085 15.0504 21.4985 12.9593 21.4985C10.8681 21.4985 8.83542 20.8085 7.1764 19.5355C6.12663 18.73 5.2636 17.7195 4.63419 16.5743L2.8543 17.0719C2.56215 17.1536 2.24957 17.0512 2.06231 16.8126C1.87505 16.5739 1.84999 16.246 1.99881 15.9816L3.73343 12.9006C3.83102 12.7273 3.99347 12.5998 4.18505 12.5462Z" fill="#323544"/>
</svg>
