<svg width="24" height="25" viewBox="0 0 24 25" fill="none" xmlns="http://www.w3.org/2000/svg">
<path d="M7.25132 3.27213C7.07313 3.01765 6.72238 2.95581 6.46791 3.13401C5.70449 3.66859 5.51897 4.72082 6.05355 5.48425L10.6057 11.9851L8.16317 15.4733L8.16081 15.4767C7.97673 15.4434 7.7871 15.4259 7.5934 15.4259C5.84721 15.4259 4.43164 16.8415 4.43164 18.5877C4.43164 20.3339 5.84721 21.7494 7.5934 21.7494C9.33959 21.7494 10.7552 20.3339 10.7552 18.5877C10.7552 17.8557 10.5064 17.1818 10.0888 16.6459L11.9791 13.9464L13.8889 16.6739C13.4844 17.2052 13.2441 17.8684 13.2441 18.5877C13.2441 20.3339 14.6597 21.7494 16.4059 21.7494C18.1521 21.7494 19.5677 20.3339 19.5677 18.5877C19.5677 16.8415 18.1521 15.4259 16.4059 15.4259C16.1994 15.4259 15.9976 15.4457 15.8022 15.4835L7.25132 3.27213ZM5.93164 18.5877C5.93164 17.6699 6.67563 16.9259 7.5934 16.9259C8.51116 16.9259 9.25515 17.6699 9.25515 18.5877C9.25515 19.5055 8.51116 20.2494 7.5934 20.2494C6.67563 20.2494 5.93164 19.5055 5.93164 18.5877ZM14.7441 18.5877C14.7441 17.6699 15.4881 16.9259 16.4059 16.9259C17.3237 16.9259 18.0677 17.6699 18.0677 18.5877C18.0677 19.5055 17.3237 20.2494 16.4059 20.2494C15.4881 20.2494 14.7441 19.5055 14.7441 18.5877Z" fill="#323544"/>
<path opacity="0.4" d="M12.5898 9.15131L13.9632 11.1126L17.9062 5.4813C18.4408 4.71786 18.2552 3.66563 17.4918 3.13107C17.2373 2.95288 16.8866 3.01473 16.7084 3.26922L12.5898 9.15131Z" fill="#323544"/>
</svg>
