<svg width="24" height="25" viewBox="0 0 24 25" fill="none" xmlns="http://www.w3.org/2000/svg">
<path opacity="0.4" d="M4 15.4092C4.41421 15.4092 4.75 15.745 4.75 16.1592V18.6592C4.75 19.0734 5.08579 19.4092 5.5 19.4092H18.5009C18.9151 19.4092 19.2509 19.0734 19.2509 18.6592V16.1592C19.2509 15.745 19.5867 15.4092 20.0009 15.4092C20.4151 15.4092 20.7509 15.745 20.7509 16.1592V18.6592C20.7509 19.9018 19.7435 20.9092 18.5009 20.9092H5.5C4.25736 20.9092 3.25 19.9018 3.25 18.6592V16.1592C3.25 15.745 3.58579 15.4092 4 15.4092Z" fill="#323544"/>
<path d="M17.6299 3.10893C17.703 3.102 17.7763 3.10543 17.8477 3.11967C17.9901 3.14811 18.1243 3.21847 18.2314 3.32573L21.3408 6.43803C21.494 6.57534 21.5908 6.7747 21.5908 6.99662C21.5908 7.21854 21.494 7.4179 21.3408 7.55522L18.2314 10.6646C18.1241 10.7719 17.9893 10.8414 17.8467 10.8697C17.7757 10.8838 17.7026 10.8883 17.6299 10.8814C17.5569 10.8745 17.4841 10.8566 17.4141 10.8277C17.1338 10.7116 16.9512 10.4377 16.9512 10.1343V7.74662H11.1084C11.0692 7.74662 11.0304 7.7486 10.9922 7.75248C10.4206 7.81064 9.97461 8.29349 9.97461 8.88041V12.0933C9.97461 12.5075 9.63882 12.8433 9.22461 12.8433C8.8104 12.8433 8.47461 12.5075 8.47461 12.0933V8.88041C8.47461 7.42585 9.65383 6.24662 11.1084 6.24662H16.9512V3.85502C16.9513 3.55172 17.1338 3.27864 17.4141 3.16264C17.4842 3.13362 17.5568 3.11586 17.6299 3.10893Z" fill="#323544"/>
</svg>
