<svg width="25" height="25" viewBox="0 0 25 25" fill="none" xmlns="http://www.w3.org/2000/svg">
<path d="M14.2755 2.21532C14.5557 2.09923 14.8783 2.1634 15.0928 2.37789L22.0928 9.3779C22.2335 9.51855 22.3125 9.70932 22.3125 9.90823C22.3125 10.1071 22.2335 10.2979 22.0928 10.4386L15.0928 17.4386C14.8783 17.6531 14.5557 17.7172 14.2755 17.6011C13.9952 17.4851 13.8125 17.2116 13.8125 16.9082V13.1102V6.75455V2.90823C13.8125 2.60488 13.9952 2.3314 14.2755 2.21532Z" fill="#323544"/>
<path opacity="0.4" d="M13.8125 6.75488C7.39629 7.1424 2.3125 12.4687 2.3125 18.9823C2.3125 19.8679 2.4066 20.7324 2.58563 21.566C2.65986 21.9117 2.96538 22.1586 3.31891 22.1586C3.67244 22.1586 3.97796 21.9117 4.05219 21.566C5.04239 16.9553 8.99081 13.4429 13.8125 13.1106V6.75488Z" fill="#323544"/>
</svg>
