<svg width="25" height="25" viewBox="0 0 25 25" fill="none" xmlns="http://www.w3.org/2000/svg">
<g opacity="0.4">
<path d="M14.3645 2.36894C13.7022 2.23081 13.0158 2.1582 12.3125 2.1582C6.78965 2.1582 2.3125 6.63535 2.3125 12.1582C2.3125 17.681 6.78965 22.1582 12.3125 22.1582C17.8353 22.1582 22.3125 17.6811 22.3125 12.1582C22.3125 11.5905 22.2652 11.0339 22.1743 10.492L18.14 14.5263C17.4965 15.1698 16.5287 15.3623 15.688 15.014C14.8472 14.6658 14.299 13.8453 14.299 12.9353V12.3469C12.4868 13.0824 11.115 14.6797 10.696 16.6307C10.4733 17.6676 9.55672 18.4083 8.49615 18.4083C7.43557 18.4083 6.519 17.6676 6.2963 16.6307C6.14286 15.9162 6.0625 15.1765 6.0625 14.4206C6.0625 9.40137 9.58874 5.20578 14.299 4.17601V2.90827C14.299 2.72375 14.3215 2.54291 14.3645 2.36894Z" fill="#323544"/>
</g>
<path d="M17.0793 2.37789C16.8648 2.1634 16.5422 2.09923 16.262 2.21532C15.9817 2.3314 15.799 2.60488 15.799 2.90823V5.46486C11.1868 5.84594 7.5625 9.70998 7.5625 14.4205C7.5625 15.0699 7.63151 15.7041 7.76287 16.3157C7.8371 16.6614 8.14262 16.9082 8.49615 16.9082C8.84967 16.9082 9.1552 16.6614 9.22943 16.3157C9.90335 13.1777 12.5452 10.7703 15.799 10.4466V12.9353C15.799 13.2386 15.9817 13.5121 16.262 13.6282C16.5422 13.7443 16.8648 13.6801 17.0793 13.4656L22.0929 8.45207C22.2335 8.31142 22.3125 8.12066 22.3125 7.92174C22.3125 7.72283 22.2335 7.53207 22.0929 7.39141L17.0793 2.37789Z" fill="#323544"/>
</svg>
