<svg width="24" height="24" viewBox="0 0 24 24" fill="none" xmlns="http://www.w3.org/2000/svg">
<path d="M5.10829 7.79851C5.10829 5.75674 6.76347 4.10156 8.80523 4.10156C10.847 4.10156 12.5022 5.75674 12.5022 7.79851C12.5022 9.84027 10.847 11.4955 8.80523 11.4955C6.76347 11.4955 5.10829 9.84027 5.10829 7.79851ZM8.80523 5.60156C7.59189 5.60156 6.60829 6.58517 6.60829 7.79851C6.60829 9.01185 7.59189 9.99545 8.80523 9.99545C10.0186 9.99545 11.0022 9.01185 11.0022 7.79851C11.0022 6.58517 10.0186 5.60156 8.80523 5.60156Z" fill="#323544"/>
<path d="M3.35158 19.1373C3.35782 19.5507 3.02826 19.8914 2.61468 19.8985C2.20053 19.9057 1.85897 19.5758 1.85178 19.1617L1.85175 19.1599L1.85172 19.1575L1.85165 19.1511L1.85156 19.1319C1.85156 19.1163 1.85169 19.0951 1.85215 19.0686C1.85309 19.0158 1.85538 18.9419 1.86069 18.85C1.8713 18.6665 1.89402 18.4094 1.94242 18.1029C2.03866 17.4936 2.23948 16.6697 2.66304 15.8368C3.08862 15 3.74414 14.1451 4.74743 13.5022C5.75344 12.8574 7.06383 12.4549 8.75032 12.4549C10.4368 12.4549 11.7472 12.8574 12.7532 13.5022C13.7565 14.1451 14.412 15 14.8376 15.8368C15.2612 16.6697 15.462 17.4936 15.5582 18.1029C15.6066 18.4094 15.6293 18.6665 15.6399 18.85C15.6453 18.9419 15.6476 19.0158 15.6485 19.0686C15.649 19.0951 15.6491 19.1163 15.6491 19.1319L15.649 19.1511L15.6489 19.1575L15.6489 19.1599C15.6488 19.1624 15.6489 19.1617 15.6489 19.1617C15.6417 19.5758 15.3001 19.9057 14.886 19.8985C14.4725 19.8914 14.1429 19.5509 14.1491 19.1376L14.1491 19.1363L14.1491 19.1313L14.149 19.1161L14.1487 19.0952C14.1481 19.061 14.1465 19.0071 14.1424 18.9365C14.1343 18.795 14.1162 18.5878 14.0766 18.337C13.9968 17.8318 13.8327 17.1698 13.5006 16.5168C13.1705 15.8677 12.6795 15.2366 11.9439 14.7651C11.2109 14.2953 10.1897 13.9549 8.75032 13.9549C7.3109 13.9549 6.28975 14.2953 5.55678 14.7651C4.82109 15.2366 4.33019 15.8677 4.00008 16.5168C3.66796 17.1698 3.50383 17.8318 3.42405 18.337C3.38444 18.5878 3.36637 18.795 3.3582 18.9365C3.35412 19.0071 3.35252 19.061 3.35192 19.0952C3.35162 19.1123 3.35156 19.1244 3.35156 19.1313L3.35158 19.1373Z" fill="#323544"/>
<g opacity="0.4">
<path d="M15.3058 11.4955C14.471 11.4955 13.7009 11.2188 13.0821 10.7522C13.3741 10.3301 13.6053 9.86262 13.7629 9.36254C14.1596 9.7539 14.7045 9.99545 15.3058 9.99545C16.5191 9.99545 17.5027 9.01185 17.5027 7.79851C17.5027 6.58517 16.5191 5.60156 15.3058 5.60156C14.7045 5.60156 14.1596 5.84312 13.7629 6.23449C13.6053 5.73441 13.3741 5.26698 13.082 4.84488C13.7009 4.37824 14.471 4.10156 15.3058 4.10156C17.3476 4.10156 19.0027 5.75674 19.0027 7.79851C19.0027 9.84027 17.3476 11.4955 15.3058 11.4955Z" fill="#323544"/>
<path d="M14.7493 13.1891C14.9997 13.437 15.2233 13.6945 15.4232 13.9566C16.7723 13.9826 17.741 14.3143 18.4444 14.7651C19.1801 15.2366 19.671 15.8677 20.0011 16.5168C20.3332 17.1698 20.4974 17.8318 20.5771 18.337C20.6168 18.5878 20.6348 18.795 20.643 18.9365C20.6471 19.0071 20.6487 19.061 20.6493 19.0952L20.6496 19.1161L20.6496 19.1313L20.6496 19.1363L21.3967 19.1486C20.6562 19.1358 20.6496 19.1363 20.6496 19.1363L20.6496 19.1376C20.6435 19.5509 20.973 19.8914 21.3865 19.8985C21.8007 19.9057 22.1422 19.5758 22.1494 19.1617L21.4053 19.1488C22.1494 19.1617 22.1494 19.1617 22.1494 19.1617L22.1494 19.1599L22.1495 19.1575L22.1495 19.1511L22.1496 19.1319C22.1496 19.1163 22.1495 19.0951 22.149 19.0686C22.1481 19.0158 22.1458 18.9419 22.1405 18.85C22.1299 18.6665 22.1072 18.4094 22.0588 18.1029C21.9625 17.4936 21.7617 16.6697 21.3381 15.8368C20.9126 15 20.2571 14.1451 19.2538 13.5022C18.2478 12.8574 16.9374 12.4549 15.2509 12.4549C14.8054 12.4549 14.3861 12.483 13.9918 12.5362C14.2621 12.7384 14.5145 12.9566 14.7493 13.1891Z" fill="#323544"/>
</g>
</svg>
