<svg width="24" height="24" viewBox="0 0 24 24" fill="none" xmlns="http://www.w3.org/2000/svg">
<path d="M16.4107 6.35C16.4107 8.74 14.4707 10.69 12.0707 10.69L12.0607 10.68C9.6707 10.68 7.7207 8.73 7.7207 6.34C7.7207 3.95 9.6807 2 12.0707 2C14.4607 2 16.4107 3.96 16.4107 6.35ZM14.9107 6.34C14.9107 4.78 13.6407 3.5 12.0707 3.5C10.5107 3.5 9.2307 4.78 9.2307 6.34C9.2307 7.9 10.5107 9.18 12.0707 9.18C13.6307 9.18 14.9107 7.9 14.9107 6.34Z" fill="#323544"/>
<path opacity="0.4" d="M12 12.1895C14.67 12.1895 16.76 12.9395 18.21 14.4195V14.4095C20.2567 16.4956 20.2504 19.2563 20.25 19.4344L20.25 19.4395C20.24 19.8495 19.91 20.1795 19.5 20.1795H19.49C19.07 20.1695 18.75 19.8295 18.75 19.4195C18.75 19.3695 18.75 17.0895 17.13 15.4495C15.97 14.2795 14.24 13.6795 12 13.6795C9.76002 13.6795 8.03002 14.2795 6.87002 15.4495C5.25002 17.0995 5.25002 19.3995 5.25002 19.4195C5.25002 19.8295 4.92002 20.1795 4.51002 20.1795C4.15002 20.1995 3.75002 19.8595 3.75002 19.4495L3.75002 19.4448C3.74962 19.2771 3.74302 16.506 5.79002 14.4195C7.24002 12.9395 9.33002 12.1895 12 12.1895Z" fill="#323544"/>
</svg>
