<svg width="24" height="24" viewBox="0 0 24 24" fill="none" xmlns="http://www.w3.org/2000/svg">
<path d="M17.9954 14.1191V8.40527C17.9954 7.8202 17.6012 7.52344 17.3196 7.52344C17.0557 7.52364 16.693 7.78431 16.6487 8.29883L16.6438 8.40527V11.2295C16.6438 11.6437 16.3081 11.9795 15.8938 11.9795C15.4797 11.9794 15.1438 11.6436 15.1438 11.2295V5.69922C15.1436 5.11445 14.7495 4.81836 14.4681 4.81836C14.2041 4.81841 13.8414 5.0789 13.7972 5.59375L13.7923 5.69922V11.2295C13.7923 11.6437 13.4565 11.9795 13.0423 11.9795C12.6281 11.9795 12.2923 11.6437 12.2923 11.2295V4.38184C12.2923 3.79688 11.898 3.50012 11.6165 3.5C11.335 3.5 10.9407 3.79676 10.9407 4.38184V11.042C10.9406 11.456 10.6047 11.7918 10.1907 11.792C9.77661 11.792 9.44089 11.4561 9.44072 11.042V5.69434L9.43584 5.58887C9.38962 5.07711 9.02815 4.81862 8.76494 4.81836C8.48348 4.81836 8.08839 5.11446 8.08818 5.69922V14.0146C8.08818 14.3193 7.90437 14.5937 7.62236 14.709C7.34034 14.8242 7.01636 14.7575 6.80302 14.54L5.23467 12.9404L5.20537 12.9092C4.94737 12.6141 4.57662 12.614 4.31865 12.9092C4.00883 13.2637 4.00886 13.8749 4.31865 14.2295L6.65263 16.7705L6.87822 17.0371L6.92314 17.0986C7.12996 17.4178 7.06516 17.8479 6.76201 18.0908C6.45902 18.3335 6.02553 18.3032 5.75908 18.0322L5.7083 17.9746L5.54814 17.7852L3.20146 15.2305C3.1973 15.2259 3.19282 15.2214 3.18877 15.2168C2.38502 14.2969 2.38497 12.8417 3.18877 11.9219C4.03487 10.9537 5.44619 10.9441 6.30498 11.8906H6.30595L6.58818 12.1777V5.69922C6.58841 4.48217 7.47163 3.31836 8.76494 3.31836C9.06739 3.31842 9.34646 3.38386 9.59795 3.49707C9.90652 2.65552 10.646 2 11.6165 2C12.5865 2.00008 13.3253 2.65511 13.6341 3.49609C13.8857 3.38281 14.1654 3.31837 14.4681 3.31836C15.7614 3.31836 16.6436 4.48218 16.6438 5.69922V6.13672C16.8528 6.06335 17.0792 6.02347 17.3196 6.02344C18.6131 6.02344 19.4954 7.18806 19.4954 8.40527V14.1191C19.4954 14.5334 19.1596 14.8691 18.7454 14.8691C18.3314 14.8689 17.9954 14.5332 17.9954 14.1191Z" fill="#323544"/>
<path opacity="0.4" d="M19.5 14.418C19.5019 15.2816 19.4145 16.9539 18.668 18.5107C18.235 19.4137 17.5733 20.2939 16.5703 20.9463C15.5655 21.5999 14.2656 21.9935 12.6104 22H12.6074C10.7938 22 9.1838 21.1137 8.00781 20.2158C7.11753 19.5359 6.42516 18.8102 6.01758 18.3438L5.70801 17.9746L5.75879 18.0322C6.02519 18.3032 6.45874 18.3334 6.76172 18.0908C7.06487 17.8479 7.12967 17.4178 6.92285 17.0986L6.87793 17.0371L7.14941 17.3594C7.50982 17.7716 8.12825 18.4204 8.91797 19.0234C9.98186 19.8358 11.2701 20.4984 12.6055 20.499C14.0184 20.4933 15.0252 20.1611 15.752 19.6885C16.4806 19.2145 16.9767 18.5686 17.3154 17.8623C17.9191 16.6034 18.0005 15.2032 18 14.4297L17.9961 14.1387C18.006 14.5441 18.3374 14.8688 18.7451 14.8691C19.1593 14.8691 19.4951 14.5334 19.4951 14.1191L19.5 14.418Z" fill="#323544"/>
</svg>
