<svg width="24" height="25" viewBox="0 0 24 25" fill="none" xmlns="http://www.w3.org/2000/svg">
<path opacity="0.4" d="M6.76804 17.2706L6.84421 17.2667C7.22263 17.2286 7.51812 16.9092 7.51821 16.5208L7.52048 6.56373C7.52058 6.14954 7.18485 5.81368 6.77065 5.81356L4.25112 5.81299C3.00848 5.8127 2.00089 6.81983 2.00061 8.06248L1.99902 15.0195C1.99874 16.2621 3.00587 17.2697 4.24851 17.27L6.76804 17.2706ZM3.50061 8.06282C3.50071 7.6486 3.83657 7.31289 4.25078 7.31299L6.02031 7.31339L6.01838 15.7704L4.24885 15.77C3.83464 15.7699 3.49893 15.4341 3.49902 15.0198L3.50061 8.06282Z" fill="#323544"/>
<path d="M11.9217 22.4992C13.3193 22.4994 14.3676 21.2433 14.143 19.8854L14.1166 19.7536L13.6357 17.6285C14.0598 17.7415 14.5654 17.8567 15.1102 17.9423C15.871 18.0618 16.7341 18.1275 17.5731 18.0327C18.4103 17.938 19.272 17.6777 19.9756 17.1045L20.1407 16.9659C21.7995 15.5046 22.2548 13.3385 21.8715 11.3061C21.5015 9.34478 20.3423 7.41948 18.6021 6.17256L18.2467 5.93225C17.3144 5.34026 16.0877 5.07895 14.8573 4.98225C13.6109 4.88433 12.2746 4.95009 11.0604 5.07611C9.84286 5.20249 8.72797 5.3917 7.91869 5.54903C7.5136 5.62778 7.18354 5.6984 6.9538 5.74998C6.83899 5.77576 6.74896 5.79679 6.68718 5.81144C6.68452 5.81208 6.68193 5.81278 6.67937 5.8134L6.77019 5.81342C7.18438 5.81354 7.52012 6.14939 7.52002 6.56359L7.51988 7.16515C7.70897 7.12414 7.93925 7.07234 8.20449 7.02078C8.98435 6.86917 10.0541 6.68788 11.2153 6.56736C12.3798 6.44651 13.6175 6.38916 14.7398 6.47734C15.878 6.56679 16.8158 6.80061 17.4427 7.19866L17.7308 7.39307C19.1407 8.40445 20.0948 9.98346 20.3968 11.5841C20.6977 13.1797 20.3422 14.709 19.2552 15.742L19.0286 15.9422C18.6207 16.2745 18.0663 16.4676 17.4045 16.5424C16.7444 16.617 16.0252 16.5681 15.343 16.4609C14.6642 16.3542 14.0456 16.1932 13.596 16.0581C13.3723 15.9909 13.1923 15.9309 13.0697 15.8881C13.0084 15.8667 12.9616 15.8496 12.931 15.8383C12.9159 15.8327 12.9048 15.8282 12.8978 15.8256C12.8943 15.8242 12.89 15.8226 12.89 15.8226L12.7914 15.7923C12.5593 15.737 12.3121 15.795 12.1282 15.9533C11.9182 16.1342 11.8249 16.4163 11.8859 16.6867L12.6537 20.0843L12.6683 20.1712C12.7148 20.6069 12.373 20.9992 11.922 20.9992L11.6661 20.9991C11.4666 20.999 11.2766 20.9195 11.1369 20.7802L11.0803 20.7177L7.51781 16.2579L7.51775 16.5206C7.51766 16.9091 7.22217 17.2284 6.84375 17.2666L6.76758 17.2704L6.40723 17.2704L9.90916 21.654L10.079 21.8435C10.498 22.2607 11.0677 22.4989 11.6658 22.4991L11.9217 22.4992Z" fill="#323544"/>
</svg>
