<svg width="24" height="25" viewBox="0 0 24 25" fill="none" xmlns="http://www.w3.org/2000/svg">
<path opacity="0.4" d="M6.76953 7.72754L6.8457 7.73145C7.22411 7.76964 7.51953 8.08906 7.51953 8.47754V18.4346C7.51953 18.8488 7.18372 19.1845 6.76953 19.1846H4.25C3.00736 19.1846 2 18.1772 2 16.9346V9.97754C2 8.7349 3.00736 7.72754 4.25 7.72754H6.76953ZM3.5 16.9346C3.5 17.3488 3.83579 17.6846 4.25 17.6846H6.01953V9.22754H4.25C3.83579 9.22754 3.5 9.56333 3.5 9.97754V16.9346Z" fill="#323544"/>
<path d="M11.9248 2.5C13.3224 2.50004 14.3705 3.75642 14.1455 5.11426L14.1191 5.24609L13.6377 7.37109C14.0618 7.25813 14.5675 7.14311 15.1123 7.05762C15.8731 6.93824 16.7362 6.87272 17.5752 6.96777C18.4124 7.06265 19.2741 7.32315 19.9775 7.89648L20.1426 8.03516C21.801 9.49684 22.2558 11.663 21.8721 13.6953C21.5017 15.6566 20.342 17.5816 18.6016 18.8281L18.2461 19.0684C17.3137 19.6601 16.0869 19.9212 14.8564 20.0176C13.6101 20.1152 12.2738 20.0492 11.0596 19.9229C9.84206 19.7962 8.72721 19.6067 7.91797 19.4492C7.5129 19.3704 7.18286 19.2997 6.95312 19.248C6.83832 19.2222 6.7483 19.2012 6.68652 19.1865C6.68386 19.1859 6.68127 19.1852 6.67871 19.1846H6.76953C7.18372 19.1845 7.51953 18.8488 7.51953 18.4346V17.833C7.7086 17.8741 7.93888 17.9259 8.2041 17.9775C8.98394 18.1293 10.0537 18.3109 11.2148 18.4316C12.3792 18.5528 13.6169 18.6104 14.7393 18.5225C15.8775 18.4333 16.8154 18.1997 17.4424 17.8018L17.7305 17.6074C19.1406 16.5964 20.0951 15.0176 20.3975 13.417C20.6987 11.8214 20.3435 10.2921 19.2568 9.25879L19.0303 9.05859C18.6224 8.7262 18.0681 8.53301 17.4062 8.45801C16.7462 8.38322 16.027 8.43202 15.3447 8.53906C14.6659 8.64559 14.0473 8.80649 13.5977 8.94141C13.3739 9.00854 13.1939 9.06853 13.0713 9.11133C13.01 9.13271 12.9632 9.14981 12.9326 9.16113C12.9175 9.16671 12.9064 9.17118 12.8994 9.17383C12.8959 9.17515 12.8916 9.17676 12.8916 9.17676L12.793 9.20703C12.5609 9.26227 12.3137 9.20427 12.1299 9.0459C11.9199 8.86497 11.8267 8.58284 11.8877 8.3125L12.6562 4.91504L12.6709 4.82812C12.7175 4.39247 12.3758 4.00004 11.9248 4H11.6689C11.4694 4.00007 11.2793 4.07949 11.1396 4.21875L11.083 4.28125L7.51953 8.74023V8.47754C7.51953 8.08906 7.22411 7.76964 6.8457 7.73145L6.76953 7.72754H6.40918L9.91211 3.34473L10.082 3.15527C10.5011 2.73812 11.0708 2.50007 11.6689 2.5H11.9248Z" fill="#323544"/>
</svg>
