<svg width="24" height="24" viewBox="0 0 24 24" fill="none" xmlns="http://www.w3.org/2000/svg">
<path d="M21.25 17.5V12.4047C21.25 12.1051 21.1603 11.8124 20.9925 11.5643L18.4461 7.79964C18.1672 7.38716 17.7016 7.14003 17.2037 7.14003H15V16.6375M21.25 17.5H22M21.25 17.5H19.3727M21.1778 11.945H15M6.29442 9.49991H11.4555M8.87477 6.91956V12.0807M9.62272 17.5C9.62754 17.561 9.63 17.6227 9.63 17.685C9.63 18.9635 8.59354 20 7.315 20C6.03646 20 5 18.9635 5 17.685C5 17.6227 5.00246 17.561 5.00728 17.5M9.62272 17.5C9.52846 16.308 8.53127 15.37 7.315 15.37C6.09873 15.37 5.10154 16.308 5.00728 17.5M9.62272 17.5H14.7573M5.00728 17.5H4.25C3.42157 17.5 2.75 16.8284 2.75 16V5.5C2.75 4.67157 3.42157 4 4.25 4H13.5C14.3284 4 15 4.67157 15 5.5V16.6375M19.3727 17.5C19.3775 17.561 19.38 17.6227 19.38 17.685C19.38 18.9635 18.3435 20 17.065 20C15.7865 20 14.75 18.9635 14.75 17.685C14.75 17.6227 14.7525 17.561 14.7573 17.5M19.3727 17.5C19.2785 16.308 18.2813 15.37 17.065 15.37C16.1635 15.37 15.3823 15.8853 15 16.6375M14.7573 17.5C14.7817 17.1915 14.8665 16.9001 15 16.6375" stroke="#323544" stroke-width="1.5" stroke-linecap="round" stroke-linejoin="round"/>
</svg>
