<svg width="24" height="24" viewBox="0 0 24 24" fill="none" xmlns="http://www.w3.org/2000/svg">
<path d="M12 6.75C13.1046 6.75 14 5.85457 14 4.75C14 3.64543 13.1046 2.75 12 2.75C10.8954 2.75 10 3.64543 10 4.75C10 5.85457 10.8954 6.75 12 6.75ZM12 6.75L12 21.25M18.9958 12.6254V15.25C18.9958 18.5637 16.3096 21.25 12.9958 21.25H11.0029C7.68922 21.25 5.00293 18.5637 5.00293 15.25V12.6254M21.25 14.8739L19.0001 12.6254L16.75 14.8739M7.25 14.8739L5.00007 12.6254L2.75 14.8739M9.375 9.75H14.625" stroke="#323544" stroke-width="1.5" stroke-linecap="round" stroke-linejoin="round"/>
</svg>
