<svg width="24" height="24" viewBox="0 0 24 24" fill="none" xmlns="http://www.w3.org/2000/svg">
<path d="M15.4062 4.5C15.4062 4.77506 15.1833 4.99805 14.9082 4.99805C14.6331 4.99805 14.4102 4.77506 14.4102 4.5C14.4102 4.22494 14.6331 4.00195 14.9082 4.00195C15.1833 4.00195 15.4062 4.22494 15.4062 4.5Z" fill="#323544"/>
<path d="M12.9121 6.66969L13.7588 8.48414C13.9918 8.98354 14.4799 9.31494 15.0301 9.34727L17.1122 9.46962M12.9121 6.66969C12.5255 6.28305 11.8986 6.28305 11.512 6.66969L9.05005 9.13159C8.66341 9.51823 8.66341 10.1451 9.05005 10.5317M12.9121 6.66969L9.05005 10.5317M9.05005 10.5317L11.2208 11.6809C11.7151 11.9426 12.0228 12.4575 12.019 13.0168L12.0009 15.6758M8.75 15.7501C8.75 17.4069 7.40685 18.7501 5.75 18.7501C4.09315 18.7501 2.75 17.4069 2.75 15.7501C2.75 14.0932 4.09315 12.7501 5.75 12.7501C7.40685 12.7501 8.75 14.0932 8.75 15.7501ZM21.25 15.7499C21.25 17.4068 19.9069 18.7499 18.25 18.7499C16.5931 18.7499 15.25 17.4068 15.25 15.7499C15.25 14.0931 16.5931 12.7499 18.25 12.7499C19.9069 12.7499 21.25 14.0931 21.25 15.7499ZM15.4062 4.5C15.4062 4.77506 15.1833 4.99805 14.9082 4.99805C14.6331 4.99805 14.4102 4.77506 14.4102 4.5C14.4102 4.22494 14.6331 4.00195 14.9082 4.00195C15.1833 4.00195 15.4062 4.22494 15.4062 4.5Z" stroke="#323544" stroke-width="1.5" stroke-linecap="round" stroke-linejoin="round"/>
</svg>
