<svg width="24" height="25" viewBox="0 0 24 25" fill="none" xmlns="http://www.w3.org/2000/svg">
<path d="M8.25 15.4375C8.52614 15.4375 8.75 15.2136 8.75 14.9375C8.75 14.6614 8.52614 14.4375 8.25 14.4375C7.97386 14.4375 7.75 14.6614 7.75 14.9375C7.75 15.2136 7.97386 15.4375 8.25 15.4375Z" fill="#323544"/>
<path fill-rule="evenodd" clip-rule="evenodd" d="M8.75 14.9375C8.75 15.2136 8.52614 15.4375 8.25 15.4375C7.97386 15.4375 7.75 15.2136 7.75 14.9375C7.75 14.6614 7.97386 14.4375 8.25 14.4375C8.52614 14.4375 8.75 14.6614 8.75 14.9375Z" fill="#323544"/>
<path d="M15.7501 15.4375C16.0262 15.4375 16.2501 15.2136 16.2501 14.9375C16.2501 14.6614 16.0262 14.4375 15.7501 14.4375C15.474 14.4375 15.2501 14.6614 15.2501 14.9375C15.2501 15.2136 15.474 15.4375 15.7501 15.4375Z" fill="#323544"/>
<path fill-rule="evenodd" clip-rule="evenodd" d="M16.2501 14.9375C16.2501 15.2136 16.0262 15.4375 15.7501 15.4375C15.474 15.4375 15.2501 15.2136 15.2501 14.9375C15.2501 14.6614 15.474 14.4375 15.7501 14.4375C16.0262 14.4375 16.2501 14.6614 16.2501 14.9375Z" fill="#323544"/>
<path d="M4.625 11.25H19.375M5.5 18.489V20.375C5.5 20.7892 5.83579 21.125 6.25 21.125C6.66421 21.125 7 20.7892 7 20.375V18.625M17 18.625V20.375C17 20.7892 17.3358 21.125 17.75 21.125C18.1642 21.125 18.5 20.7892 18.5 20.375V18.489M4.625 6.8125H3.875C3.46079 6.8125 3.125 7.14829 3.125 7.5625V8.3125H4.625M19.375 6.8125H20.125C20.5392 6.8125 20.875 7.14829 20.875 7.5625V8.3125H19.375M6.125 18.625H17.875C18.7034 18.625 19.375 17.9534 19.375 17.125V6.875C19.375 5.21815 18.0319 3.875 16.375 3.875H7.625C5.96815 3.875 4.625 5.21815 4.625 6.875V17.125C4.625 17.9534 5.29657 18.625 6.125 18.625ZM8.75 14.9375C8.75 15.2136 8.52614 15.4375 8.25 15.4375C7.97386 15.4375 7.75 15.2136 7.75 14.9375C7.75 14.6614 7.97386 14.4375 8.25 14.4375C8.52614 14.4375 8.75 14.6614 8.75 14.9375ZM16.2501 14.9375C16.2501 15.2136 16.0262 15.4375 15.7501 15.4375C15.474 15.4375 15.2501 15.2136 15.2501 14.9375C15.2501 14.6614 15.474 14.4375 15.7501 14.4375C16.0262 14.4375 16.2501 14.6614 16.2501 14.9375Z" stroke="#323544" stroke-width="1.5" stroke-linecap="round" stroke-linejoin="round"/>
</svg>
