<svg width="24" height="24" viewBox="0 0 24 24" fill="none" xmlns="http://www.w3.org/2000/svg">
<path d="M20.75 16.25V11C20.75 10.1716 20.0784 9.5 19.25 9.5H4.75C3.92157 9.5 3.25 10.1716 3.25 11V16.25M20.75 16.25H3.25M20.75 16.25V18C20.75 18.4142 20.4142 18.75 20 18.75C19.5858 18.75 19.25 18.4142 19.25 18V16.25M3.25 16.25V18C3.25 18.4142 3.58579 18.75 4 18.75C4.41421 18.75 4.75 18.4142 4.75 18V16.25M19.4016 9.5L17.7063 4.97386C17.4869 4.38812 16.927 4 16.3016 4H7.69961C7.07413 4 6.5143 4.38812 6.29491 4.97386L4.59961 9.5M2.75 8H5.16145M18.8397 8H21.25M16 16.25V14C16 13.1716 15.3284 12.5 14.5 12.5H9.5C8.67157 12.5 8 13.1716 8 14V16.25H16Z" stroke="#323544" stroke-width="1.5" stroke-linecap="round" stroke-linejoin="round"/>
</svg>
