<svg width="24" height="24" viewBox="0 0 24 24" fill="none" xmlns="http://www.w3.org/2000/svg">
<path d="M6.25 16.25H17.75M6.25 16.25C4.59315 16.25 3.25 14.9069 3.25 13.25V12.5C3.25 11.5678 3.67516 10.7349 4.34215 10.1847M6.25 16.25H7M17.75 16.25C19.4069 16.25 20.75 14.9069 20.75 13.25V12.5C20.75 11.5672 20.3243 10.7339 19.6566 10.1837M17.75 16.25H17M5.5 16.1555V18C5.5 18.4142 5.83579 18.75 6.25 18.75C6.66421 18.75 7 18.4142 7 18V16.25M7 16.25H17M8.5 12.875H7M17 12.875H15.5M17 16.25V18C17 18.4142 17.3358 18.75 17.75 18.75C18.1642 18.75 18.5 18.4142 18.5 18V16.1555M4.34215 10.1847C4.86067 9.75694 5.52533 9.5 6.25 9.5H17.75C18.4741 9.5 19.1383 9.75653 19.6566 10.1837M4.34215 10.1847L6.2939 4.97387C6.51329 4.38812 7.07312 4 7.6986 4H16.3005C16.926 4 17.4859 4.38812 17.7052 4.97387L19.6566 10.1837" stroke="#323544" stroke-width="1.5" stroke-linecap="round" stroke-linejoin="round"/>
</svg>
