<svg width="24" height="24" viewBox="0 0 24 24" fill="none" xmlns="http://www.w3.org/2000/svg">
<path d="M19.5 18V9.75C19.5 7.26472 17.4853 5.25 15 5.25H4.25C3.42157 5.25 2.75 5.92157 2.75 6.75V16.5C2.75 17.3284 3.42157 18 4.25 18H5.76373M19.5 18H21.25M19.5 18H10.2363M10.2363 18C10.2453 17.9179 10.25 17.8345 10.25 17.75C10.25 16.5074 9.24264 15.5 8 15.5C6.75736 15.5 5.75 16.5074 5.75 17.75C5.75 17.8345 5.75466 17.9179 5.76373 18M10.2363 18C10.1119 19.125 9.15814 20 8 20C6.84186 20 5.88809 19.125 5.76373 18" stroke="#323544" stroke-width="1.5" stroke-linecap="round" stroke-linejoin="round"/>
</svg>
