<svg width="24" height="24" viewBox="0 0 24 24" fill="none" xmlns="http://www.w3.org/2000/svg">
<path d="M12 5.06055V7.06055M12 5.06055C10.7853 5.06055 9.58244 5.2998 8.46018 5.76466C7.33792 6.22952 6.31821 6.91087 5.45926 7.76981C4.60032 8.62875 3.91897 9.64846 3.45412 10.7707C2.98926 11.893 2.75 13.0958 2.75 14.3105C2.75 15.5253 2.98926 16.7281 3.45411 17.8504C3.60889 18.224 3.78767 18.5863 3.98902 18.9351M12 5.06055C13.2147 5.06055 14.4176 5.29981 15.5398 5.76466C16.6621 6.22952 17.6818 6.91087 18.5407 7.76981C19.3997 8.62875 20.081 9.64846 20.5459 10.7707C21.0107 11.893 21.25 13.0958 21.25 14.3105C21.25 15.5253 21.0107 16.7281 20.5459 17.8504C20.3907 18.2251 20.2113 18.5884 20.0093 18.938M20.0098 9.68604L18.2777 10.686M3.98828 18.936L5.72033 17.936M3.99023 9.68555L5.72229 10.6855M20.0098 18.9355L18.2777 17.9355M12.0003 15.546C11.1415 15.546 10.4453 14.8498 10.4453 13.991C10.4453 13.1322 12.0003 10.186 12.0003 10.186C12.0003 10.186 13.5553 13.1322 13.5553 13.991C13.5553 14.8498 12.8591 15.546 12.0003 15.546Z" stroke="#323544" stroke-width="1.5" stroke-linecap="round" stroke-linejoin="round"/>
</svg>
