<svg width="24" height="24" viewBox="0 0 24 24" fill="none" xmlns="http://www.w3.org/2000/svg">
<path d="M13.125 8.9834V5.9834M7.125 5.9834H19.125M9.78976 19.917H18.7655C19.6 19.917 20.4181 19.685 21.1283 19.2468L22 18.709M2.74609 6.73352L3.32763 10.4001C3.42834 11.035 3.92245 11.5352 4.55611 11.6436L7.28656 12.1109C7.66677 12.1759 8.00731 12.385 8.23742 12.6946L10.9258 16.3113C11.2088 16.6921 11.6552 16.9165 12.1296 16.9165H18.5007C19.3292 16.9165 20.0007 16.2449 20.0007 15.4165V14.9834C20.0007 11.6697 17.3144 8.9834 14.0007 8.9834L5.79281 8.98345C5.41862 8.98346 5.05795 8.84361 4.78158 8.59136L2.74609 6.73352Z" stroke="#323544" stroke-width="1.5" stroke-linecap="round" stroke-linejoin="round"/>
</svg>
