<svg width="24" height="24" viewBox="0 0 24 24" fill="none" xmlns="http://www.w3.org/2000/svg">
<path d="M14.0801 15.7666C12.9336 16.4434 11.6981 16.9119 10.4285 17.1721L10.3815 17.1251M14.0801 15.7666C14.1201 17.3524 13.5349 18.951 12.3247 20.1613C11.8746 20.6114 11.3707 20.9751 10.8337 21.2522C11.1081 19.8743 10.9574 18.4285 10.3815 17.1251M14.0801 15.7666C14.9288 15.2657 15.7288 14.6507 16.4579 13.9217C19.1333 11.2462 20.2724 7.61629 19.8753 4.12803C16.3864 3.73016 12.7554 4.86921 10.0795 7.5452C9.35104 8.27361 8.7365 9.07278 8.23585 9.92058M8.23585 9.92058C7.55867 11.0673 7.08983 12.303 6.82933 13.5729L6.87471 13.6183M8.23585 9.92058C6.64946 9.88016 5.0501 10.4653 3.83941 11.676C3.3896 12.1258 3.02614 12.6293 2.74902 13.1658C4.12653 12.8918 5.57178 13.0426 6.87471 13.6183M6.87471 13.6183L10.3815 17.1251M15.4942 10.7084C14.8869 11.3156 13.9023 11.3156 13.2951 10.7084C12.6878 10.1011 12.6878 9.11652 13.2951 8.50926C13.9023 7.90199 14.8869 7.90199 15.4942 8.50926C16.1014 9.11652 16.1014 10.1011 15.4942 10.7084ZM6.50786 19.6927C5.90059 20.3 3.77842 20.2231 3.77842 20.2231C3.77842 20.2231 3.70149 18.1009 4.30875 17.4936C4.91602 16.8864 5.90059 16.8864 6.50786 17.4936C7.11512 18.1009 7.11512 19.0855 6.50786 19.6927Z" stroke="#323544" stroke-width="1.5" stroke-linecap="round" stroke-linejoin="round"/>
</svg>
