<svg width="24" height="24" viewBox="0 0 24 24" fill="none" xmlns="http://www.w3.org/2000/svg">
<path d="M2.75 21.0053L5.47866 19.75C5.47866 19.75 6.9385 21.25 8.7393 21.25C10.5401 21.25 11.9999 19.75 11.9999 19.75C11.9999 19.75 13.4598 21.25 15.2606 21.25C17.0614 21.25 18.5212 19.75 18.5212 19.75L21.25 21.0053M5.96356 17.0408L4.87064 13.2763C4.65914 12.5478 5.02479 11.7761 5.7225 11.4784L11.4114 9.05116C11.7875 8.89072 12.2127 8.89072 12.5887 9.05116L18.2777 11.4784C18.9754 11.7761 19.341 12.5478 19.1295 13.2763L18.0366 17.0408M17.2501 7.90234V6.75C17.2501 5.92157 16.5785 5.25 15.7501 5.25H8.25009C7.42166 5.25 6.75009 5.92157 6.75009 6.75V7.90234M14.2501 5.25V4.25C14.2501 3.42157 13.5785 2.75 12.7501 2.75H11.2501C10.4217 2.75 9.75009 3.42157 9.75009 4.25V5.25H14.2501Z" stroke="#323544" stroke-width="1.5" stroke-linecap="round" stroke-linejoin="round"/>
</svg>
