<svg width="24" height="24" viewBox="0 0 24 24" fill="none" xmlns="http://www.w3.org/2000/svg">
<path d="M12.0001 16.0625C12.5524 16.0625 13.0001 15.6148 13.0001 15.0625C13.0001 14.5102 12.5524 14.0625 12.0001 14.0625C11.4478 14.0625 11.0001 14.5102 11.0001 15.0625C11.0001 15.6148 11.4478 16.0625 12.0001 16.0625Z" fill="#323544"/>
<path fill-rule="evenodd" clip-rule="evenodd" d="M13.0001 15.0625C13.0001 15.6148 12.5524 16.0625 12.0001 16.0625C11.4478 16.0625 11.0001 15.6148 11.0001 15.0625C11.0001 14.5102 11.4478 14.0625 12.0001 14.0625C12.5524 14.0625 13.0001 14.5102 13.0001 15.0625Z" fill="#323544"/>
<path d="M4.625 11.3749H12M4.625 11.3749V17.25C4.625 18.0784 5.29657 18.75 6.125 18.75H17.875C18.7034 18.75 19.375 18.0784 19.375 17.25V11.3749M4.625 11.3749V5.5C4.625 4.67157 5.29657 4 6.125 4H12M12 11.3749H19.375M12 11.3749V4M19.375 11.3749V5.5C19.375 4.67157 18.7034 4 17.875 4H12M6.125 21.25L8.625 18.75M17.875 21.25L15.375 18.75M13.0001 15.0625C13.0001 15.6148 12.5524 16.0625 12.0001 16.0625C11.4478 16.0625 11.0001 15.6148 11.0001 15.0625C11.0001 14.5102 11.4478 14.0625 12.0001 14.0625C12.5524 14.0625 13.0001 14.5102 13.0001 15.0625Z" stroke="#323544" stroke-width="1.5" stroke-linecap="round" stroke-linejoin="round"/>
</svg>
