<svg width="24" height="24" viewBox="0 0 24 24" fill="none" xmlns="http://www.w3.org/2000/svg">
<path d="M4.625 11.3749H12M12 11.3749H19.375M12 11.3749V4.18066M6.125 21.25L8.625 18.75M17.875 21.25L15.375 18.75M6.125 18.75H17.875C18.7034 18.75 19.375 18.0784 19.375 17.25V5.5C19.375 4.67157 18.7034 4 17.875 4H6.125C5.29657 4 4.625 4.67157 4.625 5.5V17.25C4.625 18.0784 5.29657 18.75 6.125 18.75Z" stroke="#323544" stroke-width="1.5" stroke-linecap="round" stroke-linejoin="round"/>
<path d="M9.49805 15.0625C9.49805 15.3376 9.27506 15.5605 9 15.5605C8.72494 15.5605 8.50195 15.3376 8.50195 15.0625C8.50195 14.7874 8.72494 14.5645 9 14.5645C9.27506 14.5645 9.49805 14.7874 9.49805 15.0625ZM15.498 15.0625C15.498 15.3376 15.2751 15.5605 15 15.5605C14.7249 15.5605 14.502 15.3376 14.502 15.0625C14.502 14.7874 14.7249 14.5645 15 14.5645C15.2751 14.5645 15.498 14.7874 15.498 15.0625Z" fill="#323544" stroke="#323544" stroke-width="1.5" stroke-linecap="round" stroke-linejoin="round"/>
</svg>
