<svg width="24" height="24" viewBox="0 0 24 24" fill="none" xmlns="http://www.w3.org/2000/svg">
<path d="M15 5.5C15 4.67157 14.3284 4 13.5 4H4.25C3.42157 4 2.75 4.67157 2.75 5.5V16C2.75 16.8284 3.42157 17.5 4.25 17.5H5.00728M15 5.5V11.945M15 5.5V7.14003M15 7.14003H17.2037C17.7016 7.14003 18.1672 7.38716 18.4461 7.79964L20.9925 11.5643C21.0724 11.6824 21.1346 11.8107 21.1778 11.945M15 7.14003V11.945M22 17.5H19.3727M15 11.945L21.1778 11.945M15 11.945V16.6375M21.1778 11.945C21.2254 12.0927 21.25 12.2478 21.25 12.4047V17.5H19.3727M5.00728 17.5C5.10154 16.308 6.09873 15.37 7.315 15.37C8.53127 15.37 9.52846 16.308 9.62272 17.5M5.00728 17.5C5.00246 17.561 5 17.6227 5 17.685C5 18.9635 6.03646 20 7.315 20C8.59354 20 9.63 18.9635 9.63 17.685C9.63 17.6227 9.62754 17.561 9.62272 17.5M9.62272 17.5H10.75H14.7573M9.62272 17.5H14.7573M14.7573 17.5C14.7817 17.1915 14.8665 16.9001 15 16.6375M14.7573 17.5C14.7525 17.561 14.75 17.6227 14.75 17.685C14.75 18.9635 15.7865 20 17.065 20C18.3435 20 19.38 18.9635 19.38 17.685C19.38 17.6227 19.3775 17.561 19.3727 17.5M15 16.6375C15.3823 15.8853 16.1635 15.37 17.065 15.37C18.2813 15.37 19.2785 16.308 19.3727 17.5" stroke="#323544" stroke-width="1.5" stroke-linecap="round" stroke-linejoin="round"/>
</svg>
