<svg width="24" height="25" viewBox="0 0 24 25" fill="none" xmlns="http://www.w3.org/2000/svg">
<path d="M6.38688 9.23329C6.45702 6.19302 8.94354 3.75 12.0007 3.75C15.0578 3.75 17.5444 6.19307 17.6144 9.23338C20.0688 9.42706 22.0001 11.4801 22.0001 13.9842C22.0001 16.6163 19.8664 18.75 17.2343 18.75H17.1637L17.5441 18.3696C18.1876 17.7261 18.3801 16.7584 18.0318 15.9176C17.6835 15.0768 16.8631 14.5286 15.9531 14.5286H15.4798L15.2531 12.2748C15.1661 11.4101 14.5889 10.6727 13.7702 10.3807C12.9516 10.0888 12.038 10.2944 11.4234 10.909L6.45204 15.8804C5.80855 16.5239 5.61605 17.4917 5.96431 18.3324C6.02006 18.467 6.08791 18.5941 6.16629 18.7127C3.8172 18.4178 2 16.4132 2 13.9842C2 11.4797 3.93195 9.42638 6.38688 9.23329Z" fill="#323544"/>
<path d="M13.7645 12.425C13.7355 12.1367 13.5431 11.8909 13.2702 11.7936C12.9973 11.6963 12.6928 11.7648 12.4879 11.9697L7.51657 16.9411C7.30207 17.1556 7.2379 17.4782 7.35399 17.7584C7.47007 18.0387 7.74355 18.2214 8.0469 18.2214H9.87687L10.2393 21.8251C10.2683 22.1133 10.4607 22.3591 10.7336 22.4564C11.0065 22.5538 11.311 22.4852 11.5159 22.2803L16.4873 17.309C16.7018 17.0945 16.7659 16.7719 16.6498 16.4916C16.5338 16.2114 16.2603 16.0286 15.9569 16.0286H14.127L13.7645 12.425Z" fill="#323544"/>
</svg>
