<svg width="24" height="25" viewBox="0 0 24 25" fill="none" xmlns="http://www.w3.org/2000/svg">
<path d="M14.5548 2.45451C14.232 2.36944 13.8918 2.50796 13.7203 2.79431C13.5487 3.08067 13.5871 3.44595 13.8144 3.69042C15.0185 4.98559 15.7539 6.71956 15.7539 8.62696C15.7539 12.6321 12.5071 15.8789 8.50196 15.8789C6.59455 15.8789 4.86059 15.1435 3.56542 13.9394C3.32095 13.7121 2.95567 13.6737 2.66931 13.8453C2.38296 14.0168 2.24444 14.357 2.32951 14.6798C3.45868 18.9646 7.3593 22.125 12 22.125C17.5229 22.125 22 17.6479 22 12.125C22 7.48431 18.8396 3.58368 14.5548 2.45451Z" fill="#323544"/>
</svg>
