<svg width="24" height="25" viewBox="0 0 24 25" fill="none" xmlns="http://www.w3.org/2000/svg">
<path d="M12.7589 2.49023C12.6511 2.41326 12.5657 2.35398 12.5063 2.31337C12.4855 2.29399 12.4625 2.28031 12.4399 2.26683C12.4298 2.26083 12.4198 2.25486 12.4101 2.24845C12.1599 2.08385 11.8358 2.08385 11.5856 2.24845C11.5533 2.26976 11.5213 2.29152 11.4894 2.31337C11.43 2.35398 11.3446 2.41326 11.2368 2.49023C11.0213 2.64412 10.716 2.86906 10.3508 3.15723C9.62151 3.73263 8.64722 4.56494 7.67038 5.59178C5.74612 7.61454 3.67969 10.53 3.67969 13.8068C3.67969 18.4008 7.40386 22.125 11.9979 22.125C16.5919 22.125 20.3161 18.4008 20.3161 13.8068C20.3161 10.53 18.2496 7.61454 16.3254 5.59178C15.3485 4.56494 14.3742 3.73263 13.645 3.15723C13.2797 2.86906 12.9744 2.64412 12.7589 2.49023Z" fill="#323544"/>
</svg>
