<svg width="24" height="24" viewBox="0 0 24 24" fill="none" xmlns="http://www.w3.org/2000/svg">
<path d="M8.22929 2.5749C8.13262 2.17212 7.72775 1.92397 7.32497 2.02064C6.92219 2.1173 6.67404 2.52218 6.77071 2.92496L7.08601 4.23869C7.31796 5.20519 7.15673 6.22424 6.63775 7.07192L6.03377 8.05842C5.11437 9.5601 4.66806 11.2759 4.71242 12.991C4.74 14.0578 4.9574 15.1244 5.36877 16.1391L7.55495 21.5317C7.71057 21.9156 8.14791 22.1006 8.53178 21.945C8.91565 21.7894 9.10068 21.352 8.94505 20.9681L6.75888 15.5756C6.51973 14.9857 6.35927 14.3749 6.27628 13.7576C7.84459 13.8974 9.1042 14.3625 9.99657 14.8139C10.4983 15.0677 10.8821 15.3163 11.1367 15.4981C11.1779 15.5275 11.2157 15.5552 11.25 15.5808V21.2499C11.25 21.6641 11.5858 21.9999 12 21.9999C12.4142 21.9999 12.75 21.6641 12.75 21.2499V15.5807C12.7843 15.5551 12.8221 15.5275 12.8633 15.498C13.1178 15.3162 13.5014 15.0676 14.003 14.8139C14.8953 14.3624 16.155 13.8972 17.7237 13.7576C17.6407 14.3748 17.4803 14.9857 17.2411 15.5756L15.0549 20.9681C14.8993 21.352 15.0844 21.7894 15.4682 21.945C15.8521 22.1006 16.2894 21.9156 16.4451 21.5317L18.6312 16.1391C19.0426 15.1244 19.26 14.0578 19.2876 12.991C19.3319 11.2759 18.8856 9.5601 17.9662 8.05842L17.3623 7.07192C16.8433 6.22424 16.682 5.20519 16.914 4.23869L17.2293 2.92496C17.326 2.52218 17.0778 2.1173 16.675 2.02064C16.2723 1.92397 15.8674 2.17212 15.7707 2.5749L15.4554 3.88863C15.1307 5.24172 15.3564 6.66839 16.083 7.85515L16.1122 7.90293C15.8963 8.01531 15.6215 8.1474 15.2991 8.27974C14.4419 8.63159 13.2767 8.97356 12 8.97356C10.7233 8.97356 9.55806 8.63159 8.70094 8.27974C8.37854 8.1474 8.10374 8.01531 7.88777 7.90293L7.91702 7.85515C8.64361 6.66839 8.86933 5.24172 8.54459 3.88863L8.22929 2.5749Z" fill="#323544"/>
<path d="M3.28033 3.19323C2.98744 2.90034 2.51256 2.90034 2.21967 3.19323C1.92678 3.48612 1.92678 3.961 2.21967 4.25389L3.18934 5.22356L2.21967 6.19323C1.92678 6.48612 1.92678 6.961 2.21967 7.25389C2.51256 7.54678 2.98744 7.54678 3.28033 7.25389L4.78033 5.75389C5.07322 5.461 5.07322 4.98612 4.78033 4.69323L3.28033 3.19323Z" fill="#323544"/>
<path d="M21.7803 4.25389C22.0732 3.961 22.0732 3.48612 21.7803 3.19323C21.4874 2.90034 21.0126 2.90034 20.7197 3.19323L19.2197 4.69323C18.9268 4.98612 18.9268 5.461 19.2197 5.75389L20.7197 7.25389C21.0126 7.54678 21.4874 7.54678 21.7803 7.25389C22.0732 6.961 22.0732 6.48612 21.7803 6.19323L20.8107 5.22356L21.7803 4.25389Z" fill="#323544"/>
<path d="M12.75 7.22266C12.75 6.80844 12.4142 6.47266 12 6.47266C11.5858 6.47266 11.25 6.80844 11.25 7.22266C11.25 7.63687 11.5858 7.97276 12 7.97276C12.4142 7.97276 12.75 7.63687 12.75 7.22266Z" fill="#323544"/>
</svg>
