<svg width="24" height="24" viewBox="0 0 24 24" fill="none" xmlns="http://www.w3.org/2000/svg">
<g opacity="0.4">
<path d="M5.5 3.25C4.25736 3.25 3.25 4.25736 3.25 5.5V18.5C3.25 19.7426 4.25736 20.75 5.5 20.75H5.83333C7.07597 20.75 8.08333 19.7426 8.08333 18.5V5.5C8.08333 4.25736 7.07598 3.25 5.83333 3.25H5.5ZM4.75 5.5C4.75 5.08579 5.08579 4.75 5.5 4.75H5.83333C6.24755 4.75 6.58333 5.08579 6.58333 5.5V18.5C6.58333 18.9142 6.24755 19.25 5.83333 19.25H5.5C5.08579 19.25 4.75 18.9142 4.75 18.5V5.5Z" fill="#323544"/>
<path d="M11.833 9.63379C10.5904 9.63379 9.58301 10.6411 9.58301 11.8838V18.5001C9.58301 19.7427 10.5904 20.7501 11.833 20.7501H12.1663C13.409 20.7501 14.4163 19.7427 14.4163 18.5001V11.8838C14.4163 10.6411 13.409 9.63379 12.1663 9.63379H11.833ZM11.083 11.8838C11.083 11.4696 11.4188 11.1338 11.833 11.1338H12.1663C12.5806 11.1338 12.9163 11.4696 12.9163 11.8838V18.5001C12.9163 18.9143 12.5806 19.2501 12.1663 19.2501H11.833C11.4188 19.2501 11.083 18.9143 11.083 18.5001V11.8838Z" fill="#323544"/>
<path d="M15.916 14.9219C15.916 13.6792 16.9234 12.6719 18.166 12.6719H18.4993C19.742 12.6719 20.7493 13.6792 20.7493 14.9219V18.5001C20.7493 19.7427 19.742 20.7501 18.4993 20.7501H18.166C16.9234 20.7501 15.916 19.7427 15.916 18.5001V14.9219ZM18.166 14.1719C17.7518 14.1719 17.416 14.5077 17.416 14.9219V18.5001C17.416 18.9143 17.7518 19.2501 18.166 19.2501H18.4993C18.9136 19.2501 19.2493 18.9143 19.2493 18.5001V14.9219C19.2493 14.5077 18.9136 14.1719 18.4993 14.1719H18.166Z" fill="#323544"/>
</g>
<path d="M17.8072 2C18.2214 2 18.5572 2.33579 18.5572 2.75V2.91898C19.3057 3.10815 19.8595 3.78601 19.8595 4.59323C19.8595 5.00744 19.5237 5.34323 19.1095 5.34323C18.6953 5.34323 18.3595 5.00744 18.3595 4.59323C18.3595 4.46796 18.258 4.36641 18.1327 4.36641H17.7377C17.471 4.36641 17.2549 4.58257 17.2549 4.84921C17.2549 5.05046 17.3797 5.2306 17.5681 5.30127L18.573 5.67811C19.3469 5.96833 19.8595 6.70814 19.8595 7.53464C19.8595 8.39065 19.3171 9.11996 18.5572 9.39759V9.63372C18.5572 10.0479 18.2214 10.3837 17.8072 10.3837C17.393 10.3837 17.0572 10.0479 17.0572 9.63372V9.46488C16.3088 9.2757 15.7549 8.59785 15.7549 7.79062C15.7549 7.37641 16.0907 7.04062 16.5049 7.04062C16.9191 7.04062 17.2549 7.37641 17.2549 7.79062C17.2549 7.91589 17.3564 8.01744 17.4817 8.01744H17.8767C18.1434 8.01744 18.3595 7.80129 18.3595 7.53464C18.3595 7.3334 18.2347 7.15326 18.0463 7.08259L17.0414 6.70575C16.2676 6.41552 15.7549 5.67571 15.7549 4.84921C15.7549 3.99321 16.2973 3.2639 17.0572 2.98626V2.75C17.0572 2.33579 17.393 2 17.8072 2Z" fill="#323544"/>
</svg>
