<svg width="24" height="24" viewBox="0 0 24 24" fill="none" xmlns="http://www.w3.org/2000/svg">
<path d="M20.5 12C20.5 7.30558 16.6944 3.5 12 3.5C7.30558 3.5 3.5 7.30558 3.5 12C3.5 16.6944 7.30558 20.5 12 20.5C16.6944 20.5 20.5 16.6944 20.5 12ZM22 12C22 17.5228 17.5228 22 12 22C6.47715 22 2 17.5228 2 12C2 6.47715 6.47715 2 12 2C17.5228 2 22 6.47715 22 12Z" fill="#323544"/>
<path opacity="0.4" d="M12 3.5C12.2528 3.5 12.5028 3.51257 12.75 3.53418V11.4648L20.249 14.0488C20.1274 14.54 19.9626 15.0135 19.7598 15.4668L12.1982 12.8613L6.54395 18.5156C6.16005 18.1938 5.80514 17.839 5.4834 17.4551L11.25 11.6895V3.53418C11.4972 3.51257 11.7472 3.5 12 3.5Z" fill="#323544"/>
</svg>
