<svg width="24" height="24" viewBox="0 0 24 24" fill="none" xmlns="http://www.w3.org/2000/svg">
<path opacity="0.4" d="M20.5 6.42188C20.5 6.00766 20.1642 5.67188 19.75 5.67188H4.25C3.83579 5.67188 3.5 6.00766 3.5 6.42188V13.8281C3.5 14.2423 3.83579 14.5781 4.25 14.5781H19.75C20.1642 14.5781 20.5 14.2423 20.5 13.8281V6.42188ZM22 13.8281C22 15.0708 20.9926 16.0781 19.75 16.0781H12.75V18.3281H15L15.0771 18.332C15.4551 18.3706 15.75 18.6899 15.75 19.0781C15.75 19.4663 15.4551 19.7856 15.0771 19.8242L15 19.8281H9C8.5858 19.8281 8.25 19.4923 8.25 19.0781C8.25 18.6639 8.5858 18.3281 9 18.3281H11.25V16.0781H4.25C3.00736 16.0781 2 15.0708 2 13.8281V6.42188C2 5.17923 3.00736 4.17188 4.25 4.17188H19.75C20.9926 4.17188 22 5.17923 22 6.42188V13.8281Z" fill="#323544"/>
<path d="M13.125 7.22461C13.484 7.22461 13.7754 7.51601 13.7754 7.875C13.7754 8.23399 13.484 8.52539 13.125 8.52539H11.5254V9.47461H13.125L13.2559 9.48828C13.5521 9.54885 13.7754 9.81085 13.7754 10.125C13.7754 10.4392 13.5521 10.7012 13.2559 10.7617L13.125 10.7754H11.5254V11.7246H13.125L13.2559 11.7383C13.5521 11.7988 13.7754 12.0608 13.7754 12.375C13.7754 12.6892 13.5521 12.9512 13.2559 13.0117L13.125 13.0254H10.875C10.516 13.0254 10.2246 12.734 10.2246 12.375V7.875L10.2383 7.74414C10.2988 7.44789 10.5608 7.22461 10.875 7.22461H13.125ZM15.6504 11.7246H16.5996V8.52539H15.6504V11.7246ZM9.65039 11.8125C9.65039 12.4821 9.10715 13.0254 8.4375 13.0254H6.75C6.39101 13.0254 6.09961 12.734 6.09961 12.375C6.09961 12.016 6.39101 11.7246 6.75 11.7246H8.34961V10.7754H7.3125C6.64285 10.7754 6.09961 10.2321 6.09961 9.5625V8.4375C6.09961 7.76785 6.64285 7.22461 7.3125 7.22461H9L9.13086 7.23828C9.42711 7.29885 9.65039 7.56085 9.65039 7.875C9.65039 8.18915 9.42711 8.45115 9.13086 8.51172L9 8.52539H7.40039V9.47461H8.4375C9.10715 9.47461 9.65039 10.0179 9.65039 10.6875V11.8125ZM17.9004 11.8125C17.9004 12.4821 17.3571 13.0254 16.6875 13.0254H15.5625C14.8929 13.0254 14.3496 12.4821 14.3496 11.8125V8.4375C14.3496 7.76785 14.8929 7.22461 15.5625 7.22461H16.6875C17.3571 7.22461 17.9004 7.76785 17.9004 8.4375V11.8125Z" fill="#323544"/>
</svg>
