<svg width="24" height="24" viewBox="0 0 24 24" fill="none" xmlns="http://www.w3.org/2000/svg">
<path opacity="0.4" d="M4 3.25C4.41421 3.25 4.75 3.58579 4.75 4V8.26994V10.3913V18.5C4.75 18.9142 5.08579 19.25 5.5 19.25H20.0005C20.4147 19.25 20.7505 19.5858 20.7505 20C20.7505 20.4142 20.4147 20.75 20.0005 20.75H5.5C4.25736 20.75 3.25 19.7426 3.25 18.5V4C3.25 3.58579 3.58579 3.25 4 3.25Z" fill="#323544"/>
<path d="M4.75 10.3909L8.66929 14.3104C8.80994 14.451 9.00071 14.53 9.19963 14.53C9.39854 14.53 9.58931 14.451 9.72996 14.3104L13.1523 10.888L16.9328 14.6685H15.2115C14.7973 14.6685 14.4615 15.0043 14.4615 15.4185C14.4615 15.8328 14.7973 16.1685 15.2115 16.1685H18.7473C18.9462 16.1685 19.137 16.0895 19.2777 15.9488C19.4183 15.8082 19.4973 15.6174 19.4973 15.4185L19.4971 11.883C19.497 11.4687 19.1612 11.133 18.747 11.133C18.3328 11.133 17.997 11.4688 17.9971 11.8831L17.9972 13.6116L13.6826 9.29703C13.542 9.15637 13.3512 9.07736 13.1523 9.07736C12.9534 9.07736 12.7626 9.15637 12.622 9.29703L9.19964 12.7194L4.75 8.26953V10.3909Z" fill="#323544"/>
</svg>
