<svg width="24" height="24" viewBox="0 0 24 24" fill="none" xmlns="http://www.w3.org/2000/svg">
<path opacity="0.4" d="M4 3.25C4.41421 3.25 4.75 3.58579 4.75 4V13.6087V15.7301V18.5C4.75 18.9142 5.08579 19.25 5.5 19.25H20.0005C20.4147 19.25 20.7505 19.5858 20.7505 20C20.7505 20.4142 20.4147 20.75 20.0005 20.75H5.5C4.25736 20.75 3.25 19.7426 3.25 18.5V4C3.25 3.58579 3.58579 3.25 4 3.25Z" fill="#323544"/>
<path d="M4.75 15.731L9.19964 11.2812L12.622 14.7035C12.7626 14.8442 12.9534 14.9232 13.1523 14.9232C13.3512 14.9232 13.542 14.8442 13.6826 14.7035L17.9972 10.389L17.9971 12.1175C17.997 12.5317 18.3328 12.8675 18.747 12.8676C19.1612 12.8676 19.497 12.5318 19.4971 12.1176L19.4973 8.58208C19.4973 8.38316 19.4183 8.19238 19.2777 8.05172C19.137 7.91106 18.9462 7.83203 18.7473 7.83203H15.2115C14.7973 7.83203 14.4615 8.16782 14.4615 8.58203C14.4615 8.99624 14.7973 9.33203 15.2115 9.33203H16.9328L13.1523 13.1126L9.72996 9.69021C9.58931 9.54955 9.39854 9.47053 9.19963 9.47054C9.00071 9.47054 8.80994 9.54956 8.66929 9.69022L4.75 13.6097V15.731Z" fill="#323544"/>
</svg>
