<svg width="24" height="24" viewBox="0 0 24 24" fill="none" xmlns="http://www.w3.org/2000/svg">
<path opacity="0.4" d="M7.41016 2C7.05632 2 6.75061 2.24731 6.6767 2.59336L4.4267 13.1285C4.37942 13.3499 4.43468 13.5809 4.57707 13.7569C4.71947 13.9329 4.93376 14.0352 5.16016 14.0352H10.6842L10.0637 21.1852C10.0338 21.5302 10.244 21.8509 10.5724 21.9611C10.9008 22.0712 11.2619 21.9422 11.4461 21.6489L19.4749 8.86368C19.6201 8.63255 19.6282 8.34081 19.4962 8.10195C19.3641 7.86309 19.1127 7.71482 18.8398 7.71482L13.1876 7.71482L15.368 3.06863C15.477 2.83632 15.4597 2.5644 15.3221 2.3478C15.1845 2.1312 14.9457 2 14.6891 2H7.41016Z" fill="#323544"/>
<path d="M6.6767 2.59336C6.75061 2.24731 7.05632 2 7.41016 2H14.6891C14.9457 2 15.1845 2.1312 15.3221 2.3478C15.4597 2.5644 15.477 2.83632 15.368 3.06863L13.1876 7.71482L18.8398 7.71482C19.1127 7.71482 19.3641 7.86309 19.4962 8.10195C19.6282 8.34081 19.6201 8.63255 19.4749 8.86368L11.4461 21.6489C11.2619 21.9422 10.9008 22.0712 10.5724 21.9611C10.244 21.8509 10.0338 21.5302 10.0637 21.1852L10.6842 14.0352H5.16016C4.93376 14.0352 4.71947 13.9329 4.57707 13.7569C4.43468 13.5809 4.37942 13.3499 4.4267 13.1285L6.6767 2.59336ZM8.0169 3.5L6.08725 12.5352H11.5021C11.7123 12.5352 11.9128 12.6234 12.0549 12.7783C12.1969 12.9332 12.2675 13.1406 12.2493 13.35L11.8264 18.2226L17.4832 9.21482L12.0071 9.21482C11.7505 9.21482 11.5117 9.08362 11.3741 8.86702C11.2365 8.65042 11.2192 8.3785 11.3282 8.14619L13.5086 3.5H8.0169Z" fill="#323544"/>
</svg>
