<svg width="24" height="24" viewBox="0 0 24 24" fill="none" xmlns="http://www.w3.org/2000/svg">
<path opacity="0.4" d="M15.6372 2.86366C15.6858 2.54681 15.5276 2.23412 15.2436 2.0855C14.9596 1.93688 14.6125 1.98519 14.3799 2.20572L4.62076 11.4571C4.39797 11.6683 4.32638 11.994 4.44007 12.2792C4.55375 12.5643 4.82975 12.7514 5.13675 12.7514H9.58866L8.30331 21.1364C8.25474 21.4532 8.4129 21.7659 8.69691 21.9145C8.98093 22.0632 9.328 22.0148 9.56063 21.7943L19.3197 12.5429C19.5425 12.3317 19.6141 12.006 19.5004 11.7209C19.3867 11.4357 19.1107 11.2486 18.8037 11.2486L14.3518 11.2486L15.6372 2.86366Z" fill="#323544"/>
<path d="M15.2734 2.0855C15.5574 2.23412 15.7155 2.54681 15.667 2.86366L14.3816 11.2486L18.8335 11.2486C19.1405 11.2486 19.4165 11.4357 19.5302 11.7209C19.6439 12.006 19.5723 12.3317 19.3495 12.5429L9.59042 21.7943C9.35778 22.0148 9.01071 22.0632 8.7267 21.9145C8.44269 21.7659 8.28452 21.4532 8.33309 21.1364L9.61845 12.7514H5.16653C4.85954 12.7514 4.58354 12.5643 4.46985 12.2792C4.35617 11.994 4.42775 11.6683 4.65055 11.4571L14.4096 2.20572C14.6423 1.98519 14.9894 1.93688 15.2734 2.0855ZM7.04784 11.2514H10.4922C10.7109 11.2514 10.9188 11.3469 11.0613 11.5129C11.2038 11.6789 11.2667 11.8988 11.2335 12.1151L10.1476 19.1993L16.9522 12.7486L13.5079 12.7486C13.2891 12.7486 13.0813 12.6531 12.9388 12.4871C12.7963 12.3211 12.7334 12.1012 12.7665 11.885L13.8525 4.80075L7.04784 11.2514Z" fill="#323544"/>
</svg>
