<svg width="24" height="24" viewBox="0 0 24 24" fill="none" xmlns="http://www.w3.org/2000/svg">
<path d="M7.5 9.87549H16.5M7.5 9.87549V7.25C7.5 4.76472 9.51472 2.75 12 2.75C14.4853 2.75 16.5 4.76472 16.5 7.25V9.87549M7.5 9.87549H5.5C4.67157 9.87549 4 10.5471 4 11.3755V17.25C4 19.4591 5.79086 21.25 8 21.25H16C18.2091 21.25 20 19.4591 20 17.25V11.3755C20 10.5471 19.3284 9.87549 18.5 9.87549H16.5M12 18.25C11.5858 18.25 11.25 17.9142 11.25 17.5V16C11.25 15.5858 11.5858 15.25 12 15.25C12.4142 15.25 12.75 15.5858 12.75 16V17.5C12.75 17.9142 12.4142 18.25 12 18.25Z" stroke="#323544" stroke-width="1.5" stroke-linecap="round" stroke-linejoin="round"/>
</svg>
