<svg width="24" height="24" viewBox="0 0 24 24" fill="none" xmlns="http://www.w3.org/2000/svg">
<path d="M12 15.5V17.5M16 9.06233C14.8805 8.23747 13.4972 7.75002 12 7.75002C10.5028 7.75002 9.11945 8.23747 8 9.06233M16 9.06233V5.99994C16 3.7908 14.2091 1.99994 12 1.99994C9.79086 1.99994 8 3.7908 8 5.99994V9.06233M16 9.06233C17.6679 10.2913 18.75 12.2693 18.75 14.5C18.75 18.2279 15.7279 21.25 12 21.25C8.27208 21.25 5.25 18.2279 5.25 14.5C5.25 12.2693 6.33209 10.2913 8 9.06233" stroke="#323544" stroke-width="1.5" stroke-linecap="round" stroke-linejoin="round"/>
</svg>
