<svg width="25" height="25" viewBox="0 0 25 25" fill="none" xmlns="http://www.w3.org/2000/svg">
<path d="M18.7968 3.43187C20.4752 2.95708 22.0418 4.52303 21.5674 6.2014L21.5127 6.36937L18.9648 13.3684L18.9345 13.4387C18.7692 13.7809 18.3687 13.9492 18.0039 13.8166C17.6147 13.6749 17.4139 13.2439 17.5556 12.8547L20.1035 5.85667L20.1347 5.74437C20.2404 5.22541 19.7728 4.75771 19.2539 4.86351L19.1416 4.89573L12.1435 7.44358C11.7544 7.58526 11.3234 7.38442 11.1816 6.99534C11.0399 6.60617 11.2407 6.17519 11.6299 6.03343L18.6289 3.48558L18.7968 3.43187Z" fill="#323544"/>
<path opacity="0.4" d="M17.5539 12.8604C17.4161 13.2481 17.6167 13.6754 18.0041 13.8164C18.3689 13.9489 18.7694 13.7806 18.9347 13.4385L18.965 13.3682L16.4171 20.3662C15.7327 22.2455 13.1512 22.3453 12.2921 20.6074L12.214 20.4336L10.1447 15.2705C10.078 15.1042 9.95417 14.9682 9.79703 14.8857L9.7277 14.8535L4.56461 12.7842C2.64791 12.0161 2.69169 9.28743 4.63199 8.58105L11.63 6.0332C11.241 6.17495 11.0402 6.60599 11.1818 6.99512C11.3148 7.36001 11.7018 7.5593 12.0705 7.46582L12.1437 7.44336L5.14469 9.99121C4.49838 10.2268 4.48379 11.1354 5.12223 11.3916L10.2863 13.4609L10.4943 13.5566C10.9661 13.8042 11.3372 14.2137 11.5373 14.7129L13.6066 19.876L13.6623 19.9883C13.9742 20.5099 14.7871 20.4593 15.008 19.8535L17.5539 12.8604Z" fill="#323544"/>
</svg>
