<svg width="25" height="24" viewBox="0 0 25 24" fill="none" xmlns="http://www.w3.org/2000/svg">
<path fill-rule="evenodd" clip-rule="evenodd" d="M12.6149 16.4381C11.8307 17.366 10.7215 18.0104 9.46289 18.1957V20.75C9.46289 21.1642 9.1271 21.5 8.71289 21.5C8.29868 21.5 7.96289 21.1642 7.96289 20.75V18.1958C5.49772 17.8331 3.60547 15.7092 3.60547 13.1433C3.60547 11.9109 4.04261 10.7799 4.769 9.898C4.26025 9.14149 3.96289 8.22992 3.96289 7.25C3.96289 4.62665 6.08954 2.5 8.71289 2.5C11.2958 2.5 13.3972 4.5616 13.4614 7.12907C14.1997 6.36544 15.2348 5.89062 16.3809 5.89062C18.6235 5.89062 20.4414 7.70857 20.4414 9.95112C20.4414 10.8862 20.1247 11.7479 19.5939 12.4341C20.1247 13.1201 20.4413 13.9818 20.4413 14.9168C20.4413 16.9031 19.0151 18.5563 17.1309 18.9082V20.75C17.1309 21.1642 16.7951 21.5 16.3809 21.5C15.9666 21.5 15.6309 21.1642 15.6309 20.75V18.9082C14.2569 18.6517 13.1264 17.7032 12.6149 16.4381ZM5.46289 7.25C5.46289 5.45507 6.91797 4 8.71289 4C10.5078 4 11.9629 5.45507 11.9629 7.25C11.9629 8.0934 11.6426 8.86027 11.1158 9.43836C10.8382 9.74293 10.8583 10.2144 11.1609 10.4942C11.8746 11.1542 12.3198 12.0962 12.3198 13.1433C12.3198 14.8782 11.095 16.327 9.46289 16.6723V14.5C9.46289 14.0858 9.1271 13.75 8.71289 13.75C8.29868 13.75 7.96289 14.0858 7.96289 14.5V16.6724C6.33053 16.3273 5.10547 14.8784 5.10547 13.1433C5.10547 12.096 5.55077 11.1539 6.26459 10.494C6.56718 10.2142 6.58737 9.74273 6.30981 9.43813C5.78309 8.86007 5.46289 8.09329 5.46289 7.25ZM17.1309 17.3657V15.25C17.1309 14.8358 16.7951 14.5 16.3809 14.5C15.9666 14.5 15.6309 14.8358 15.6309 15.25V17.3658C14.5827 17.0452 13.8203 16.07 13.8203 14.9168C13.8203 14.1522 14.1546 13.4665 14.6874 12.9963C14.8487 12.8539 14.9411 12.6491 14.9411 12.434C14.9411 12.2188 14.8487 12.014 14.6874 11.8716C14.1546 11.4014 13.8204 10.7157 13.8204 9.95112C13.8204 8.537 14.9668 7.39062 16.3809 7.39062C17.795 7.39062 18.9414 8.537 18.9414 9.95112C18.9414 10.7158 18.6072 11.4014 18.0743 11.8717C17.913 12.0141 17.8206 12.2189 17.8206 12.434C17.8206 12.6492 17.913 12.854 18.0743 12.9963C18.6071 13.4666 18.9413 14.1522 18.9413 14.9168C18.9413 16.07 18.179 17.0451 17.1309 17.3657Z" fill="#323544"/>
</svg>
