<svg width="24" height="24" viewBox="0 0 24 24" fill="none" xmlns="http://www.w3.org/2000/svg">
<path d="M16.875 8.75C16.875 8.33579 16.5392 8 16.125 8H7.875C7.46079 8 7.125 8.33579 7.125 8.75V15.625C7.125 18.3174 9.30761 20.5 12 20.5C14.6924 20.5 16.875 18.3174 16.875 15.625V8.75ZM18.375 15.625C18.375 19.1458 15.5208 22 12 22C8.47918 22 5.625 19.1458 5.625 15.625V8.75C5.625 7.50736 6.63236 6.5 7.875 6.5H16.125C17.3676 6.5 18.375 7.50736 18.375 8.75V15.625Z" fill="#323544"/>
<g opacity="0.4">
<path d="M20.229 17.2852L20.3003 17.3125C20.6491 17.4641 20.8335 17.8586 20.7154 18.2285C20.5971 18.5984 20.2182 18.813 19.8462 18.7344L19.772 18.7149L17.8726 18.1084C18.0658 17.6521 18.206 17.1685 18.2886 16.6651L20.229 17.2852Z" fill="#323544"/>
<path d="M5.71049 16.6651C5.79309 17.1684 5.93334 17.6521 6.12651 18.1084L4.22905 18.7149C3.83457 18.8408 3.41176 18.6229 3.28569 18.2285C3.15978 17.8341 3.37768 17.4113 3.77201 17.2852L5.71049 16.6651Z" fill="#323544"/>
<path d="M5.62553 14.625H4.00053C3.58639 14.6249 3.25053 14.2892 3.25053 13.875C3.25066 13.461 3.58647 13.1251 4.00053 13.125H5.62553V14.625Z" fill="#323544"/>
<path d="M20.0005 13.125C20.4147 13.125 20.7505 13.4608 20.7505 13.875C20.7505 14.2892 20.4147 14.625 20.0005 14.625H18.3755V13.125H20.0005Z" fill="#323544"/>
<path d="M4.15483 9.01565L4.22905 9.03518L5.62553 9.4805V11.0567L3.77201 10.4649L3.70072 10.4375C3.35211 10.2859 3.16755 9.89145 3.28569 9.52151C3.40391 9.15168 3.7829 8.93713 4.15483 9.01565Z" fill="#323544"/>
<path d="M19.772 9.03518C20.1665 8.90921 20.5892 9.12713 20.7154 9.52151C20.8414 9.91602 20.6235 10.3388 20.229 10.4649L18.3755 11.0567V9.4805L19.772 9.03518Z" fill="#323544"/>
<path d="M10.6773 5.00003C10.3934 5.0002 10.1334 5.16111 10.0064 5.41507L9.4644 6.50003H7.87553C7.84522 6.50003 7.81473 6.50275 7.78471 6.50393L8.66557 4.74417C8.80779 4.45973 9.0046 4.21343 9.24076 4.01761L8.77494 3.08499L8.74467 3.01468C8.61012 2.65935 8.76373 2.25277 9.11088 2.07913C9.45803 1.9058 9.87518 2.02692 10.0787 2.34768L10.1167 2.41507L10.6587 3.50003H13.3238C13.3758 3.50003 13.4277 3.50137 13.479 3.50491L14.0249 2.41507L14.063 2.34768C14.2664 2.02689 14.6836 1.90589 15.0308 2.07913C15.3781 2.25276 15.5316 2.65929 15.397 3.01468L15.3667 3.08499L14.857 4.10354C15.0504 4.28364 15.2132 4.49968 15.3355 4.74417L16.2154 6.50393C16.1855 6.50276 16.1556 6.50003 16.1255 6.50003H14.5367L13.9947 5.41507C13.8677 5.16113 13.6077 5.00014 13.3238 5.00003H10.6773Z" fill="#323544"/>
</g>
</svg>
