<svg width="24" height="24" viewBox="0 0 24 24" fill="none" xmlns="http://www.w3.org/2000/svg">
<path d="M12 8.25C13.3746 8.25 14.5755 8.99005 15.2275 10.0898L15.3496 10.3125C15.8792 11.3663 15.8792 12.6337 15.3496 13.6875L15.2275 13.9102C14.5755 15.0099 13.3746 15.75 12 15.75C10.711 15.75 9.57454 15.0993 8.90039 14.1113L8.77246 13.9092C8.4407 13.3493 8.25 12.6959 8.25 12C8.25 11.3043 8.43988 10.6506 8.77148 10.0908L8.90039 9.88867C9.57454 8.90071 10.711 8.25 12 8.25ZM9.75 12C9.75 12.4194 9.86419 12.8098 10.0625 13.1445L10.1396 13.2666C10.5457 13.8617 11.228 14.25 12 14.25C12.8234 14.25 13.5445 13.8077 13.9375 13.1445L14.0098 13.0127C14.3256 12.3831 14.3256 11.6169 14.0098 10.9873L13.9375 10.8555C13.5445 10.1923 12.8234 9.75 12 9.75C11.228 9.75 10.5457 10.1383 10.1396 10.7334L10.0625 10.8555C9.86419 11.1902 9.75 11.5806 9.75 12Z" fill="#323544"/>
<path opacity="0.4" d="M11.6934 2.06542C11.8883 1.97818 12.1117 1.97816 12.3067 2.06542L12.3076 2.0664L12.3135 2.06933C12.3168 2.07082 12.3214 2.07199 12.3262 2.07421C12.3358 2.07867 12.348 2.08534 12.3633 2.09276C12.3941 2.10773 12.4366 2.12886 12.4883 2.15624C12.5915 2.21097 12.7341 2.2908 12.9024 2.39843C13.2383 2.61334 13.6841 2.94195 14.1309 3.3994C15.0302 4.32019 15.9395 5.77509 15.9395 7.85351C15.9395 7.92414 15.9363 7.9941 15.9346 8.06347C16.0046 8.06168 16.0752 8.06054 16.1465 8.06054L16.5293 8.07128C18.4049 8.17452 19.7374 9.02608 20.6006 9.86913C21.058 10.3159 21.3867 10.7617 21.6016 11.0976C21.7092 11.2659 21.789 11.4085 21.8438 11.5117C21.8712 11.5634 21.8923 11.6059 21.9073 11.6367C21.9147 11.652 21.9213 11.6642 21.9258 11.6738C21.928 11.6786 21.9292 11.6832 21.9307 11.6865L21.9336 11.6924L21.9346 11.6933L21.9629 11.7676C22.0204 11.9437 22.011 12.1359 21.9346 12.3066L21.9326 12.3096L21.9307 12.3144C21.9292 12.3176 21.9279 12.3217 21.9258 12.3262C21.9213 12.3358 21.9147 12.3488 21.9073 12.3642C21.8923 12.395 21.8711 12.4368 21.8438 12.4883C21.7891 12.5915 21.7092 12.734 21.6016 12.9023C21.3866 13.2383 21.0581 13.685 20.6006 14.1318C19.7374 14.9748 18.4048 15.8265 16.5293 15.9297L16.1465 15.9394C16.0756 15.9394 16.0052 15.9373 15.9356 15.9355C15.9373 16.0052 15.9395 16.0755 15.9395 16.1465L15.9287 16.5293C15.8255 18.4049 14.974 19.7374 14.1309 20.6006C13.6841 21.058 13.2383 21.3866 12.9024 21.6016C12.7341 21.7092 12.5915 21.789 12.4883 21.8437C12.4366 21.8711 12.3941 21.8922 12.3633 21.9072C12.348 21.9147 12.3358 21.9213 12.3262 21.9258C12.3214 21.928 12.3168 21.9292 12.3135 21.9307L12.3076 21.9336L12.3067 21.9346C12.1117 22.0218 11.8883 22.0218 11.6934 21.9346L11.6905 21.9326L11.6856 21.9307C11.6824 21.9292 11.6783 21.9279 11.6739 21.9258C11.6643 21.9213 11.6511 21.9147 11.6358 21.9072C11.605 21.8923 11.5632 21.871 11.5117 21.8437C11.4085 21.789 11.266 21.7092 11.0977 21.6016C10.7617 21.3866 10.315 21.0581 9.86819 20.6006C9.02517 19.7374 8.17356 18.4048 8.07034 16.5293L8.06057 16.1465C8.06057 16.0755 8.06173 16.0052 8.0635 15.9355L7.85354 15.9394C5.77515 15.9394 4.32021 15.0302 3.39944 14.1308C2.94201 13.684 2.61337 13.2383 2.39846 12.9023C2.29083 12.7341 2.211 12.5915 2.15627 12.4883C2.12888 12.4366 2.10777 12.3941 2.0928 12.3633C2.08536 12.348 2.07871 12.3357 2.07424 12.3262C2.07202 12.3214 2.07086 12.3167 2.06936 12.3135L2.06643 12.3076L2.06545 12.3066C1.97818 12.1117 1.97818 11.8883 2.06545 11.6933L2.06741 11.6904L2.06936 11.6855C2.0708 11.6824 2.07214 11.6783 2.07424 11.6738C2.07872 11.6642 2.08531 11.6511 2.0928 11.6357C2.10776 11.605 2.129 11.5632 2.15627 11.5117C2.21098 11.4085 2.2908 11.266 2.39846 11.0976C2.6134 10.7617 2.94192 10.315 3.39944 9.86815C4.32022 8.96888 5.77525 8.06056 7.85354 8.06054C7.92414 8.06054 7.99416 8.06172 8.0635 8.06347C8.06175 7.99411 8.0596 7.92413 8.05959 7.85351C8.0596 5.77518 8.9689 4.32019 9.86819 3.3994C10.315 2.94197 10.7608 2.61337 11.0967 2.39843C11.2652 2.29063 11.4084 2.211 11.5117 2.15624C11.5632 2.12897 11.605 2.10772 11.6358 2.09276C11.6511 2.08529 11.6643 2.07869 11.6739 2.07421C11.6783 2.07211 11.6824 2.07076 11.6856 2.06933L11.6905 2.06737L11.6934 2.06542ZM11.9053 3.6621C11.6432 3.82976 11.2919 4.08845 10.9414 4.44726C10.2459 5.15935 9.5596 6.25656 9.55959 7.85351C9.5596 8.18593 9.58371 8.49203 9.62698 8.77147L9.66213 8.96874C9.66773 8.99718 9.67566 9.02489 9.68166 9.05272C9.38057 9.28986 9.11663 9.57181 8.90041 9.88866L8.77151 10.0908C8.69892 10.2134 8.63372 10.3407 8.57522 10.4717C8.4478 10.1928 8.34268 9.893 8.26174 9.57323C8.13046 9.56505 7.99438 9.56054 7.85354 9.56054C6.25661 9.56056 5.15937 10.2459 4.44729 10.9414C4.08849 11.2919 3.8298 11.6432 3.66213 11.9053C3.64148 11.9376 3.62426 11.9698 3.60647 11.999C3.6244 12.0285 3.64129 12.0611 3.66213 12.0937C3.82975 12.3557 4.08859 12.7072 4.44729 13.0576C5.15937 13.7531 6.25661 14.4394 7.85354 14.4394L8.09768 14.4355C8.15318 14.4335 8.20785 14.4291 8.26174 14.4258C8.34275 14.1059 8.44867 13.8062 8.5762 13.5273C8.63486 13.6586 8.69973 13.7864 8.77249 13.9092L8.90041 14.1113C9.11651 14.428 9.38078 14.7092 9.68166 14.9463C9.67564 14.9741 9.66774 15.0018 9.66213 15.0303L9.62698 15.2285C9.58368 15.508 9.56058 15.8139 9.56057 16.1465L9.56838 16.4404C9.64635 17.8792 10.2895 18.8852 10.9414 19.5527C11.2919 19.9115 11.6432 20.1702 11.9053 20.3379C11.9374 20.3584 11.97 20.3749 11.999 20.3926C12.0284 20.3747 12.0613 20.3586 12.0938 20.3379C12.3558 20.1703 12.7072 19.9114 13.0576 19.5527C13.7096 18.8852 14.3537 17.8793 14.4317 16.4404L14.4395 16.1465C14.4395 15.8971 14.4263 15.6628 14.4014 15.4433L14.3721 15.2285C14.3569 15.1307 14.3381 15.0365 14.3184 14.9453C14.6814 14.6592 14.9911 14.309 15.2276 13.9101L15.3496 13.6875C15.3759 13.6352 15.3992 13.5816 15.4229 13.5283C15.5502 13.807 15.6564 14.1062 15.7373 14.4258C15.8689 14.434 16.0053 14.4394 16.1465 14.4394L16.4405 14.4316C17.8793 14.3537 18.8852 13.7106 19.5528 13.0586C19.9116 12.7081 20.1702 12.3568 20.3379 12.0947C20.3586 12.0623 20.3748 12.0293 20.3926 12C20.3749 11.9709 20.3585 11.9384 20.3379 11.9062C20.1703 11.6442 19.9115 11.2928 19.5528 10.9424C18.8852 10.2904 17.8793 9.64631 16.4405 9.56835L16.1465 9.56054C16.0053 9.56054 15.8689 9.56501 15.7373 9.57323C15.6564 9.89278 15.5501 10.1919 15.4229 10.4707C15.3993 10.4177 15.3758 10.3645 15.3496 10.3125L15.2276 10.0898C14.9908 9.6904 14.6811 9.33903 14.3174 9.05272C14.337 8.96202 14.357 8.86866 14.3721 8.77147L14.4014 8.55663C14.4263 8.33717 14.4395 8.10283 14.4395 7.85351C14.4395 6.25655 13.7531 5.15935 13.0576 4.44726C12.7072 4.08853 12.3558 3.82972 12.0938 3.6621C12.0612 3.64126 12.0285 3.62436 11.999 3.60644C11.9698 3.62423 11.9376 3.64143 11.9053 3.6621Z" fill="#323544"/>
</svg>
