<svg width="24" height="24" viewBox="0 0 24 24" fill="none" xmlns="http://www.w3.org/2000/svg">
<path d="M8.94397 4.42937C8.86764 4.19389 8.77086 3.96627 8.65785 3.75148C8.29092 3.05411 7.71567 2.42124 6.99035 2.06805C6.61794 1.88671 6.16903 2.0416 5.98769 2.41401C5.80635 2.78642 5.96125 3.23532 6.33365 3.41666C6.7151 3.60241 7.07976 3.97362 7.33038 4.44993C7.398 4.57846 7.45462 4.70949 7.5 4.84056C6.94663 4.69438 6.35484 4.65634 5.75298 4.74742C4.46088 4.94295 3.38922 5.69315 2.74441 6.71683C2.52364 7.06731 2.62879 7.53039 2.97927 7.75116C3.32975 7.97192 3.79284 7.86677 4.0136 7.51629C4.43596 6.84578 5.1344 6.3581 5.97741 6.23054C6.59166 6.13759 7.18917 6.24997 7.70104 6.51725C6.61514 7.07811 5.76732 7.97294 5.25437 9.03347C5.07402 9.40636 5.2301 9.85485 5.60298 10.0352C5.97587 10.2156 6.42436 10.0595 6.60472 9.68659C7.01529 8.83773 7.71683 8.13687 8.61838 7.74081C9.00771 8.6979 9.32853 9.6257 9.53164 10.6921C9.78966 12.0467 9.86262 13.6564 9.59956 15.8412C7.15736 16.3692 5.00858 17.6855 3.43385 19.5091C3.2421 19.7312 3.19743 20.0447 3.31954 20.3115C3.44165 20.5782 3.7081 20.7493 4.0015 20.7493H20.0017C20.2951 20.7493 20.5616 20.5782 20.6837 20.3115C20.8058 20.0447 20.7611 19.7312 20.5694 19.5091C18.4955 17.1075 15.4258 15.5856 12.0016 15.5856C11.7098 15.5856 11.4206 15.5966 11.1343 15.6184C11.3578 13.5045 11.2799 11.854 11.0051 10.4114C10.7941 9.30344 10.4695 8.33463 10.0978 7.39891C10.9774 7.36413 11.8276 7.61946 12.5324 8.09827C12.8751 8.33102 13.3415 8.24194 13.5743 7.89931C13.807 7.55667 13.7179 7.09023 13.3753 6.85748C12.3186 6.13963 11.0182 5.78743 9.68846 5.92497C9.97929 5.43544 10.4204 5.03 10.9816 4.78475C11.7628 4.44334 12.6137 4.48368 13.3285 4.82587C13.7021 5.00474 14.15 4.84688 14.3288 4.47327C14.5077 4.09967 14.3498 3.6518 13.9762 3.47294C12.885 2.9505 11.5784 2.88697 10.3809 3.41025C9.81912 3.65577 9.33577 4.00666 8.94397 4.42937ZM18.1501 19.2493H5.8531C7.53604 17.8952 9.67403 17.0856 12.0016 17.0856C14.3292 17.0856 16.4672 17.8952 18.1501 19.2493Z" fill="#323544"/>
<path opacity="0.4" d="M18.002 7.49966C16.4832 7.49966 15.252 8.73088 15.252 10.2497C15.252 11.7684 16.4832 12.9997 18.002 12.9997C19.5207 12.9997 20.752 11.7684 20.752 10.2497C20.752 8.73088 19.5207 7.49966 18.002 7.49966ZM16.752 10.2497C16.752 9.55931 17.3116 8.99966 18.002 8.99966C18.6923 8.99966 19.252 9.55931 19.252 10.2497C19.252 10.94 18.6923 11.4997 18.002 11.4997C17.3116 11.4997 16.752 10.94 16.752 10.2497Z" fill="#323544"/>
</svg>
