<svg width="24" height="24" viewBox="0 0 24 24" fill="none" xmlns="http://www.w3.org/2000/svg">
<path d="M12 5.27888C10.9429 3.32622 8.87635 2 6.5 2H4C3.58579 2 3.25 2.33579 3.25 2.75V5.25C3.25 8.70178 6.04822 11.5 9.5 11.5H11.25H12.75H14.5C17.9518 11.5 20.75 8.70178 20.75 5.25V2.75C20.75 2.33579 20.4142 2 20 2H17.5C15.1237 2 13.0571 3.32622 12 5.27888ZM11.25 8.25V10H9.5C6.87665 10 4.75 7.87335 4.75 5.25V3.5H6.5C9.12335 3.5 11.25 5.62665 11.25 8.25ZM14.5 10H12.75V8.25C12.75 5.62665 14.8766 3.5 17.5 3.5H19.25V5.25C19.25 7.87335 17.1234 10 14.5 10Z" fill="#323544"/>
<path opacity="0.4" d="M12.75 21.2508L12.75 11.5H11.25L11.25 21.2508C11.25 21.665 11.5858 22.0008 12 22.0008C12.4142 22.0008 12.75 21.665 12.75 21.2508Z" fill="#323544"/>
</svg>
