<svg width="24" height="24" viewBox="0 0 24 24" fill="none" xmlns="http://www.w3.org/2000/svg">
<path d="M18 12C18 11.724 17.9823 11.4532 17.9492 11.1885L17.9111 10.9258C17.7225 9.78957 17.2465 8.74939 16.6221 7.82031L16.3457 7.42871C15.4062 6.1597 14.2327 5.14963 13.2812 4.45215C12.8079 4.10516 12.3949 3.83972 12.1025 3.66211C12.0667 3.64032 12.0321 3.62066 12 3.60156C11.9679 3.62065 11.9333 3.64034 11.8975 3.66211C11.6051 3.83973 11.1921 4.10518 10.7188 4.45215C9.8268 5.106 8.73946 6.03432 7.83301 7.19336L7.6543 7.42871C6.94265 8.39 6.37907 9.4816 6.13379 10.6846L6.08887 10.9268C6.0312 11.2744 6 11.6324 6 12C6.00026 15.3135 8.68645 18 12 18C15.3136 18 17.9997 15.3135 18 12ZM19.5 12C19.4998 15.8888 16.5399 19.0856 12.75 19.4619V21.25C12.75 21.6642 12.4142 22 12 22C11.5858 22 11.25 21.6642 11.25 21.25V19.4619C7.46019 19.0856 4.50025 15.8888 4.5 12C4.5 11.5476 4.53862 11.1071 4.60938 10.6807L4.66406 10.3848C4.96371 8.9149 5.6429 7.62403 6.44824 6.53613L6.65039 6.27148C7.67039 4.96681 8.87314 3.9451 9.83203 3.24219C10.3456 2.8657 10.7951 2.57618 11.1182 2.37988C11.2797 2.28172 11.4105 2.20663 11.502 2.15527C11.5477 2.12959 11.5841 2.10942 11.6094 2.0957C11.6217 2.08902 11.6315 2.08387 11.6387 2.08008C11.6422 2.07821 11.6453 2.07634 11.6475 2.07519L11.6504 2.07422L11.6514 2.07324C11.8692 1.95917 12.1298 1.95919 12.3477 2.07324L12.3496 2.07422L12.3525 2.07519C12.3547 2.07635 12.3578 2.07819 12.3613 2.08008C12.3684 2.08387 12.3783 2.08902 12.3906 2.0957C12.4159 2.10942 12.4523 2.12959 12.498 2.15527C12.5895 2.20663 12.7202 2.28169 12.8818 2.37988C13.2049 2.57617 13.6543 2.86568 14.168 3.24219C15.1908 3.99196 16.4918 5.10432 17.5518 6.53613L17.8662 6.98242C18.5823 8.0477 19.1602 9.28681 19.3916 10.6807L19.4385 11.0029C19.4791 11.3278 19.5 11.6606 19.5 12Z" fill="#323544"/>
<path opacity="0.4" d="M11.9999 6.23438C12.4141 6.23442 12.7499 6.57019 12.7499 6.98438V9.1875L14.1346 8.15137C14.4662 7.90341 14.9363 7.97122 15.1844 8.30273C15.4324 8.63433 15.3646 9.1044 15.0331 9.35254L12.7499 11.0615V13.96L14.7948 12.5508C15.1358 12.3157 15.6026 12.4012 15.8378 12.7422C16.0728 13.0831 15.9871 13.55 15.6464 13.7852L12.7499 15.7822V17.9512C12.5041 17.9818 12.254 18 11.9999 18C11.7458 18 11.4956 17.9818 11.2499 17.9512V15.7822L8.35339 13.7852C8.01246 13.55 7.92687 13.0832 8.16199 12.7422C8.39716 12.4013 8.86401 12.3157 9.20496 12.5508L11.2499 13.9609V11.0615L8.96668 9.35254C8.63513 9.10437 8.56725 8.63433 8.81531 8.30273C9.06348 7.97118 9.53352 7.90329 9.86511 8.15137L11.2499 9.1875V6.98438C11.2499 6.57016 11.5857 6.23438 11.9999 6.23438Z" fill="#323544"/>
</svg>
