<svg width="24" height="24" viewBox="0 0 24 24" fill="none" xmlns="http://www.w3.org/2000/svg">
<path opacity="0.4" d="M7.97158 5.54298C8.87666 4.10438 11.0339 4.15282 11.8554 5.68751L15.7597 12.9805L15.7919 13.0498C15.9368 13.4015 15.7946 13.8128 15.452 13.9961C15.1098 14.1793 14.6888 14.07 14.4765 13.7549L14.4364 13.6885L10.5331 6.39552C10.268 5.90024 9.58542 5.86902 9.26846 6.30274L9.21084 6.39552L3.58974 16.8965C3.32251 17.396 3.68433 17.9999 4.25088 18H12.5185L12.5956 18.0039C12.9736 18.0424 13.2683 18.3619 13.2685 18.75C13.2685 19.1383 12.9737 19.4576 12.5956 19.4961L12.5185 19.5H4.25088C2.5509 19.4999 1.46524 17.6873 2.26748 16.1885L7.8876 5.68751L7.97158 5.54298Z" fill="#323544"/>
<path d="M15.3701 11.0322C16.2542 9.47952 18.5625 9.53119 19.3516 11.1874L21.7783 16.2831L21.8398 16.4238C22.4019 17.8352 21.4164 19.3957 19.9004 19.495L19.7471 19.4999H12.5176C12.1034 19.4999 11.7676 19.1641 11.7676 18.7499C11.7678 18.3359 12.1035 17.9999 12.5176 17.9999H19.7471L19.8477 17.9941C20.308 17.9337 20.6048 17.4641 20.4619 17.0224L20.4238 16.9277L17.9971 11.8329C17.7426 11.2986 17.0141 11.265 16.7002 11.7324L16.6426 11.8329L15.7744 13.6572L15.7373 13.7245C15.54 14.0495 15.125 14.1786 14.7744 14.0116C14.4006 13.8335 14.242 13.3865 14.4199 13.0126L15.2891 11.1874L15.3701 11.0322Z" fill="#323544"/>
</svg>
