<svg width="24" height="24" viewBox="0 0 24 24" fill="none" xmlns="http://www.w3.org/2000/svg">
<path d="M12 2.5C6.44533 2.5 2.39291 7.78887 3.40562 12.9823C3.60871 14.0238 4.55572 14.6223 5.48941 14.6223H9.41349H10.9224H13.0773H14.5862H18.5106C19.4443 14.6223 20.3913 14.0238 20.5944 12.9823C21.6071 7.78887 17.5547 2.5 12 2.5ZM13.7939 13.1223C13.7654 13.1206 13.7366 13.1206 13.7076 13.1223H10.2921C10.2631 13.1206 10.2343 13.1206 10.2058 13.1223H5.48941C5.14226 13.1223 4.91995 12.9109 4.87789 12.6952C4.03806 8.38835 7.42889 4 12 4C16.5711 4 19.9619 8.38835 19.1221 12.6952C19.08 12.9109 18.8577 13.1223 18.5106 13.1223H13.7939Z" fill="#323544"/>
<g opacity="0.4">
<path d="M15.0639 19.0049L14.586 14.6223H13.0771L13.5728 19.1675C13.6212 19.6112 13.2736 19.9988 12.8272 19.9988H11.1721C10.7257 19.9988 10.3782 19.6112 10.4266 19.1675L10.9222 14.6223H9.41331L8.93539 19.0049C8.79022 20.3362 9.83294 21.4988 11.1721 21.4988H12.8272C14.1664 21.4988 15.2091 20.3362 15.0639 19.0049Z" fill="#323544"/>
<path d="M8.49609 9.05078C7.80574 9.05078 7.24609 9.61043 7.24609 10.3008C7.24609 10.9911 7.80574 11.5508 8.49609 11.5508C9.18645 11.5508 9.74619 10.9911 9.74619 10.3008C9.74619 9.61043 9.18645 9.05078 8.49609 9.05078Z" fill="#323544"/>
<path d="M14.9145 11.2656C14.9145 10.7686 15.3174 10.3656 15.8145 10.3656C16.3115 10.3656 16.7146 10.7686 16.7146 11.2656C16.7146 11.7627 16.3116 12.1656 15.8146 12.1656C15.3175 12.1656 14.9145 11.7627 14.9145 11.2656Z" fill="#323544"/>
<path d="M13.4365 5.79688C12.47 5.79688 11.6865 6.58038 11.6865 7.54688C11.6865 8.51337 12.47 9.29688 13.4365 9.29688C14.403 9.29688 15.1866 8.51337 15.1866 7.54688C15.1866 6.58038 14.403 5.79688 13.4365 5.79688Z" fill="#323544"/>
</g>
</svg>
