<svg width="24" height="24" viewBox="0 0 24 24" fill="none" xmlns="http://www.w3.org/2000/svg">
<path d="M3.40562 12.9823C2.39291 7.78887 6.44533 2.5 12 2.5C17.5547 2.5 21.6071 7.78887 20.5944 12.9823C20.3913 14.0238 19.4443 14.6223 18.5106 14.6223H14.5862H13.0773H10.9224H9.41349H5.48941C4.55572 14.6223 3.60871 14.0238 3.40562 12.9823ZM13.7076 13.1223C13.7366 13.1206 13.7654 13.1206 13.7939 13.1223H18.5106C18.8577 13.1223 19.08 12.9109 19.1221 12.6952C19.9619 8.38835 16.5711 4 12 4C7.42889 4 4.03806 8.38835 4.87789 12.6952C4.91995 12.9109 5.14226 13.1223 5.48941 13.1223H10.2058C10.2343 13.1206 10.2631 13.1206 10.2921 13.1223H13.7076Z" fill="#323544"/>
<path opacity="0.4" d="M9.41331 14.6223L8.93539 19.0049C8.79022 20.3362 9.83294 21.4988 11.1721 21.4988H12.8272C14.1664 21.4988 15.2091 20.3362 15.0639 19.0049L14.586 14.6223H13.0771L13.5728 19.1675C13.6212 19.6112 13.2736 19.9988 12.8272 19.9988H11.1721C10.7257 19.9988 10.3782 19.6112 10.4266 19.1675L10.9222 14.6223H9.41331Z" fill="#323544"/>
</svg>
