<svg width="24" height="24" viewBox="0 0 24 24" fill="none" xmlns="http://www.w3.org/2000/svg">
<path opacity="0.4" d="M12 2C7.85786 2 4.5 5.35786 4.5 9.5V11C4.5 14.889 7.46001 18.0867 11.25 18.463L11.25 16.9536C8.29027 16.5845 6 14.0597 6 11V9.5C6 6.18629 8.68629 3.5 12 3.5C15.3137 3.5 18 6.18629 18 9.5V11C18 14.0597 15.7097 16.5845 12.75 16.9536V18.463C16.54 18.0867 19.5 14.889 19.5 11V9.5C19.5 5.35786 16.1421 2 12 2Z" fill="#323544"/>
<path d="M12.75 21.25V18.463V16.9536V14.7518C13.0569 14.6435 13.345 14.4666 13.5905 14.2211L14.6094 13.2022C14.9023 12.9093 14.9023 12.4344 14.6094 12.1415C14.3165 11.8487 13.8417 11.8487 13.5488 12.1415L12.5299 13.1605C12.237 13.4533 11.7621 13.4533 11.4692 13.1605L10.4502 12.1415C10.1573 11.8486 9.68247 11.8487 9.38958 12.1416C9.09669 12.4345 9.0967 12.9093 9.3896 13.2022L10.4086 14.2211C10.6543 14.4669 10.9428 14.6439 11.25 14.7522V16.9536L11.25 18.463V21.25C11.25 21.6642 11.5858 22 12 22C12.4142 22 12.75 21.6642 12.75 21.25Z" fill="#323544"/>
</svg>
