<svg width="24" height="24" viewBox="0 0 24 24" fill="none" xmlns="http://www.w3.org/2000/svg">
<path d="M11.9395 7.25C11.9395 5.45507 10.4844 4 8.68945 4C6.89453 4 5.43945 5.45507 5.43945 7.25C5.43945 8.09329 5.7594 8.86042 6.28613 9.43848C6.54624 9.724 6.54532 10.156 6.29492 10.4395L6.24121 10.4941C5.52742 11.1541 5.08203 12.0963 5.08203 13.1436C5.08216 14.8784 6.30734 16.3257 7.93945 16.6709V14.5C7.93945 14.0858 8.27524 13.75 8.68945 13.75C9.10367 13.75 9.43945 14.0858 9.43945 14.5V16.6709C11.0713 16.3255 12.2958 14.8782 12.2959 13.1436C12.2959 12.0965 11.8513 11.1541 11.1377 10.4941C10.8351 10.2144 10.8152 9.74305 11.0928 9.43848C11.6195 8.86041 11.9395 8.09333 11.9395 7.25ZM13.4395 7.25C13.4395 8.23055 13.1402 9.14163 12.6309 9.89844C13.3576 10.7805 13.7959 11.9109 13.7959 13.1436C13.7958 15.7091 11.9042 17.8314 9.43945 18.1943V20.75C9.43945 21.1642 9.10367 21.5 8.68945 21.5C8.27524 21.5 7.93945 21.1642 7.93945 20.75V18.1943C5.47447 17.8316 3.58217 15.7093 3.58203 13.1436C3.58203 11.9107 4.02015 10.7795 4.74707 9.89746C4.23818 9.14088 3.93945 8.23006 3.93945 7.25C3.93945 4.62665 6.0661 2.5 8.68945 2.5C11.3128 2.5 13.4395 4.62665 13.4395 7.25Z" fill="#323544"/>
<path opacity="0.4" d="M16.3564 5.89062C18.599 5.89062 20.417 7.70862 20.417 9.95117C20.417 10.8866 20.0985 11.7474 19.5674 12.4336C20.0987 13.1199 20.417 13.9813 20.417 14.917C20.4169 16.9031 18.9905 18.5542 17.1064 18.9062V20.75C17.1064 21.1642 16.7707 21.5 16.3564 21.5C15.9422 21.5 15.6064 21.1642 15.6064 20.75V18.9062C14.2315 18.6494 13.1008 17.7005 12.5898 16.4346C13.3406 15.5458 13.7949 14.3984 13.7949 13.1436C13.7949 11.9109 13.3566 10.7805 12.6299 9.89844C13.1392 9.14163 13.4385 8.23054 13.4385 7.25C13.4385 7.21049 13.4365 7.17112 13.4355 7.13184C14.174 6.36697 15.2093 5.89064 16.3564 5.89062ZM16.3564 7.39062C14.9423 7.39065 13.7959 8.53707 13.7959 9.95117C13.7959 10.7158 14.1303 11.4018 14.6631 11.8721C14.8241 12.0144 14.9169 12.2187 14.917 12.4336C14.917 12.6487 14.8243 12.8537 14.6631 12.9961C14.1302 13.4664 13.7959 14.1523 13.7959 14.917C13.796 16.0701 14.5584 17.0446 15.6064 17.3652V15.25C15.6064 14.8358 15.9422 14.5 16.3564 14.5C16.7707 14.5 17.1064 14.8358 17.1064 15.25V17.3652C18.1545 17.0446 18.9169 16.07 18.917 14.917C18.917 14.1524 18.5826 13.4664 18.0498 12.9961C17.8886 12.8537 17.7959 12.6487 17.7959 12.4336C17.796 12.2187 17.8887 12.0143 18.0498 11.8721C18.5826 11.4018 18.917 10.7158 18.917 9.95117C18.917 8.53705 17.7706 7.39062 16.3564 7.39062Z" fill="#323544"/>
</svg>
