<svg width="24" height="24" viewBox="0 0 24 24" fill="none" xmlns="http://www.w3.org/2000/svg">
<path d="M17.25 2.75H6.75C5.92157 2.75 5.25 3.42157 5.25 4.25V19.75C5.25 20.5784 5.92157 21.25 6.75 21.25H17.25C18.0784 21.25 18.75 20.5784 18.75 19.75V4.25C18.75 3.42157 18.0784 2.75 17.25 2.75Z" stroke="#323544" stroke-width="1.5" stroke-linecap="round" stroke-linejoin="round"/>
<path d="M15.75 5.75H8.25V7.25H15.75V5.75Z" stroke="#323544" stroke-width="1.5" stroke-linecap="round" stroke-linejoin="round"/>
<path d="M8.5 10.75H8.51M12 10.75H12.01M15.5 10.75H15.51M8.5 14.25H8.51M12 14.25H12.01M15.5 14.25H15.51M8.5 17.75H8.51M12 17.75H12.01M15.5 17.75H15.51" stroke="#323544" stroke-width="1.8" stroke-linecap="round" stroke-linejoin="round"/>
</svg>
