<svg width="24" height="24" viewBox="0 0 24 24" fill="none" xmlns="http://www.w3.org/2000/svg">
<path d="M20.0001 17.0518V12C20.0001 7.58174 16.4183 4 12 4C7.58174 4 4 7.58174 4 12V17.0518M6.50003 18.75H5.50003C4.6716 18.75 4.00003 18.0784 4.00003 17.25V13.75C4.00003 12.9216 4.6716 12.25 5.50003 12.25H6.50003C7.32846 12.25 8.00003 12.9216 8.00003 13.75V17.25C8.00003 18.0784 7.32846 18.75 6.50003 18.75ZM17.5002 18.75H18.5002C19.3286 18.75 20.0002 18.0784 20.0002 17.25V13.75C20.0002 12.9216 19.3286 12.25 18.5002 12.25H17.5002C16.6718 12.25 16.0002 12.9216 16.0002 13.75V17.25C16.0002 18.0784 16.6718 18.75 17.5002 18.75Z" stroke="#323544" stroke-width="1.5" stroke-linecap="round" stroke-linejoin="round"/>
</svg>
