<svg width="24" height="25" viewBox="0 0 24 25" fill="none" xmlns="http://www.w3.org/2000/svg">
<path d="M16.6152 18.5H16.6252" stroke="#323544" stroke-width="1.6" stroke-linecap="round" stroke-linejoin="round"/>
<path d="M4.75013 14.1968V5.75C4.75013 4.92157 5.4217 4.25 6.25013 4.25H17.7501C18.5785 4.25 19.2501 4.92157 19.2501 5.75V9.25M4.75013 14.1968C5.02602 13.9171 5.40763 13.75 5.81822 13.75H9M4.75013 14.1968C4.59644 14.3525 4.47556 14.5432 4.40074 14.7593L3.1892 18.2593C2.85192 19.2337 3.57558 20.25 4.60668 20.25H9M14.8447 21.5H18.4048C19.2332 21.5 19.9048 20.8284 19.9048 20V13.75C19.9048 12.9216 19.2332 12.25 18.4048 12.25H14.8447C14.0163 12.25 13.3447 12.9216 13.3447 13.75V20C13.3447 20.8284 14.0163 21.5 14.8447 21.5Z" stroke="#323544" stroke-width="1.5" stroke-linecap="round" stroke-linejoin="round"/>
</svg>
