<svg width="24" height="25" viewBox="0 0 24 25" fill="none" xmlns="http://www.w3.org/2000/svg">
<path d="M6.59473 14.6953V13.9453C6.18051 13.9453 5.84473 14.2811 5.84473 14.6953H6.59473ZM17.4049 14.6953H18.1549C18.1549 14.2811 17.8191 13.9453 17.4049 13.9453V14.6953ZM15.7919 5.17294L15.2699 5.71147L15.2699 5.71147L15.7919 5.17294ZM16.9491 6.29455L16.4271 6.83309V6.83309L16.9491 6.29455ZM6.59473 15.4453H17.4049V13.9453H6.59473V15.4453ZM15.9049 19.999H8.09473V21.499H15.9049V19.999ZM8.09473 19.999C7.68051 19.999 7.34473 19.6632 7.34473 19.249H5.84473C5.84473 20.4916 6.85209 21.499 8.09473 21.499V19.999ZM16.6549 19.249C16.6549 19.6632 16.3191 19.999 15.9049 19.999V21.499C17.1475 21.499 18.1549 20.4916 18.1549 19.249H16.6549ZM19.2496 10.7891V14.7076H20.7496V10.7891H19.2496ZM4.75049 14.7076V10.7891H3.25049V14.7076H4.75049ZM5.50049 15.4576C5.08627 15.4576 4.75049 15.1218 4.75049 14.7076H3.25049C3.25049 15.9502 4.25785 16.9576 5.50049 16.9576V15.4576ZM19.2496 14.7076C19.2496 15.1218 18.9138 15.4576 18.4996 15.4576V16.9576C19.7422 16.9576 20.7496 15.9502 20.7496 14.7076H19.2496ZM18.4996 10.0391C18.9138 10.0391 19.2496 10.3748 19.2496 10.7891H20.7496C20.7496 9.54642 19.7422 8.53906 18.4996 8.53906V10.0391ZM5.50049 8.53906C4.25785 8.53906 3.25049 9.54642 3.25049 10.7891H4.75049C4.75049 10.3748 5.08628 10.0391 5.50049 10.0391V8.53906ZM8.09493 5.5H14.7479V4H8.09493V5.5ZM15.2699 5.71147L16.4271 6.83309L17.4711 5.75602L16.3139 4.6344L15.2699 5.71147ZM18.1551 7.37162C18.1551 6.76272 17.9083 6.17982 17.4711 5.75602L16.4271 6.83309C16.5728 6.97435 16.6551 7.16865 16.6551 7.37162H18.1551ZM14.7479 5.5C14.9428 5.5 15.13 5.57584 15.2699 5.71147L16.3139 4.6344C15.8942 4.22753 15.3325 4 14.7479 4V5.5ZM7.34493 6.25C7.34493 5.83579 7.68072 5.5 8.09493 5.5V4C6.85229 4 5.84493 5.00736 5.84493 6.25H7.34493ZM6.59493 10.0391H17.4051V8.53906H6.59493V10.0391ZM18.1551 9.28906V7.37162H16.6551V9.28906H18.1551ZM5.84493 6.25V9.28906H7.34493V6.25H5.84493ZM5.50049 10.0391H6.59493V8.53906H5.50049V10.0391ZM17.4051 10.0391H18.4996V8.53906H17.4051V10.0391ZM5.84473 14.6953V16.2076H7.34473V14.6953H5.84473ZM18.1549 16.2076V14.6953H16.6549V16.2076H18.1549ZM16.6549 16.2076V19.249H18.1549V16.2076H16.6549ZM18.4996 15.4576H17.4049V16.9576H18.4996V15.4576ZM6.59473 15.4576H5.50049V16.9576H6.59473V15.4576ZM7.34473 19.249V16.2076H5.84473V19.249H7.34473Z" fill="#323544"/>
</svg>
