<svg width="25" height="24" viewBox="0 0 25 24" fill="none" xmlns="http://www.w3.org/2000/svg">
<path d="M3.38501 9.75C3.38501 9.12868 3.88869 8.625 4.51001 8.625L20.51 8.625C21.1313 8.625 21.635 9.12868 21.635 9.75C21.635 10.3713 21.1313 10.875 20.51 10.875L4.51001 10.875C3.88869 10.875 3.38501 10.3713 3.38501 9.75ZM3.38501 18.75C3.38501 18.1287 3.88869 17.625 4.51001 17.625L20.51 17.625C21.1313 17.625 21.635 18.1287 21.635 18.75C21.635 19.3713 21.1313 19.875 20.51 19.875L4.51001 19.875C3.88869 19.875 3.38501 19.3713 3.38501 18.75Z" fill="#323544"/>
<g opacity="0.4">
<path d="M18.01 13.125C18.6313 13.125 19.135 13.6287 19.135 14.25C19.135 14.8713 18.6313 15.375 18.01 15.375H7.01001C6.38869 15.375 5.88501 14.8713 5.88501 14.25C5.88501 13.6287 6.38869 13.125 7.01001 13.125H18.01Z" fill="#323544"/>
<path d="M18.01 4.125C18.6313 4.125 19.135 4.62868 19.135 5.25C19.135 5.87132 18.6313 6.375 18.01 6.375H7.01001C6.38869 6.375 5.88501 5.87132 5.88501 5.25C5.88501 4.62868 6.38869 4.125 7.01001 4.125H18.01Z" fill="#323544"/>
</g>
</svg>
