<svg width="25" height="24" viewBox="0 0 25 24" fill="none" xmlns="http://www.w3.org/2000/svg">
<path d="M3.38501 9.75C3.38501 9.12868 3.88869 8.625 4.51001 8.625L20.51 8.625C21.1313 8.625 21.635 9.12868 21.635 9.75C21.635 10.3713 21.1313 10.875 20.51 10.875L4.51001 10.875C3.88869 10.875 3.38501 10.3713 3.38501 9.75ZM3.38501 18.75C3.38501 18.1287 3.88869 17.625 4.51001 17.625L20.51 17.625C21.1313 17.625 21.635 18.1287 21.635 18.75C21.635 19.3713 21.1313 19.875 20.51 19.875L4.51001 19.875C3.88869 19.875 3.38501 19.3713 3.38501 18.75Z" fill="#323544"/>
<g opacity="0.4">
<path d="M20.51 13.125C21.1313 13.125 21.635 13.6287 21.635 14.25C21.635 14.8713 21.1313 15.375 20.51 15.375H9.51001C8.88869 15.375 8.38501 14.8713 8.38501 14.25C8.38501 13.6287 8.88869 13.125 9.51001 13.125H20.51Z" fill="#323544"/>
<path d="M20.51 4.125C21.1313 4.125 21.635 4.62868 21.635 5.25C21.635 5.87132 21.1313 6.375 20.51 6.375H9.51001C8.88869 6.375 8.38501 5.87132 8.38501 5.25C8.38501 4.62868 8.88869 4.125 9.51001 4.125H20.51Z" fill="#323544"/>
</g>
</svg>
