<svg width="25" height="24" viewBox="0 0 25 24" fill="none" xmlns="http://www.w3.org/2000/svg">
<path d="M15.087 3.06043L14.5567 2.5301C13.678 1.65142 12.2534 1.65142 11.3747 2.5301L6.07153 7.83327L16.678 18.4397L21.9812 13.1366C22.8599 12.2579 22.8599 10.8333 21.9812 9.9546L18.269 6.24241L15.9709 8.54051C15.678 8.8334 15.2031 8.8334 14.9102 8.54051C14.6173 8.24762 14.6173 7.77274 14.9102 7.47985L17.2083 5.18175L16.1477 4.12109L12.0818 8.18696C11.7889 8.47985 11.314 8.47985 11.0212 8.18696C10.7283 7.89406 10.7283 7.41919 11.0212 7.1263L15.087 3.06043Z" fill="#323544"/>
<path opacity="0.4" d="M15.6174 19.501L5.01093 8.89453L3.95027 9.95519C3.07159 10.8339 3.07159 12.2585 3.95027 13.1372L6.07159 15.2585L4.12692 17.2032C3.24824 18.0818 3.24824 19.5065 4.12692 20.3851C5.0056 21.2638 6.43022 21.2638 7.3089 20.3851L9.25357 18.4405L11.3748 20.5617C12.2534 21.4403 13.6781 21.4403 14.5567 20.5617L15.6174 19.501Z" fill="#323544"/>
</svg>
