<svg width="25" height="24" viewBox="0 0 25 24" fill="none" xmlns="http://www.w3.org/2000/svg">
<path opacity="0.4" d="M19.018 3.67826C19.8417 2.92634 21.1111 2.95524 21.8997 3.74386C22.6883 4.53248 22.7172 5.80189 21.9653 6.62558L13.8258 15.5419C13.6698 14.6599 13.265 13.8091 12.5772 13.1212C11.9286 12.4726 11.0854 11.9878 10.167 11.7582L19.018 3.67826Z" fill="#323544"/>
<path d="M9.22451 12.618L9.22361 12.6189C8.03708 12.5435 6.8019 13.0279 5.96947 14.3132C5.95673 14.3329 5.94491 14.3531 5.93407 14.3739C5.22837 15.7262 4.46877 16.4713 3.9188 16.8731C3.64223 17.0751 3.41403 17.1938 3.26533 17.2595C3.19088 17.2924 3.13612 17.3122 3.10498 17.3225C3.0894 17.3277 3.07972 17.3305 3.07645 17.3314C2.80056 17.401 2.58746 17.621 2.52702 17.8996C2.46586 18.1816 2.57254 18.4742 2.80032 18.6513L2.80125 18.652L2.8039 18.654L2.81225 18.6605L2.84097 18.6822C2.86536 18.7006 2.90015 18.7265 2.9446 18.7588C3.03343 18.8233 3.16113 18.9137 3.32169 19.0209C3.64209 19.2348 4.0972 19.5185 4.6387 19.7986C5.69928 20.3474 7.18747 20.9338 8.67446 20.8612C9.67007 20.8126 10.671 20.4669 11.508 19.6299C12.1111 19.0268 12.5277 18.3031 12.7392 17.55C12.831 17.2229 12.8841 16.89 12.8971 16.5588C12.9013 16.4512 12.9015 16.3435 12.8972 16.2365C12.8618 15.3513 12.5306 14.4883 11.8701 13.8278C11.2711 13.2288 10.462 12.8017 9.59977 12.6607C9.47559 12.6403 9.35033 12.626 9.22451 12.618Z" fill="#323544"/>
</svg>
