<svg width="25" height="24" viewBox="0 0 25 24" fill="none" xmlns="http://www.w3.org/2000/svg">
<path opacity="0.4" d="M2.51001 12C2.51001 6.47715 6.98716 2 12.51 2C18.0329 2 22.51 6.47715 22.51 12C22.51 12.7351 21.9022 13.2734 21.2217 13.2734H17.5238C15.8647 13.2734 14.5198 14.6184 14.5198 16.2775C14.5198 17.0726 14.835 17.8353 15.3964 18.3984C15.9357 18.9393 16.1351 19.6836 15.9866 20.3542C15.8342 21.042 15.3135 21.6373 14.503 21.8012C13.8583 21.9317 13.1918 22 12.51 22C6.98716 22 2.51001 17.5228 2.51001 12ZM11.0823 7.9375C11.7726 7.9375 12.3323 7.37786 12.3323 6.6875C12.3323 5.99714 11.7726 5.4375 11.0823 5.4375C10.3919 5.4375 9.83228 5.99714 9.83228 6.6875C9.83228 7.37786 10.3919 7.9375 11.0823 7.9375ZM16.4065 9.34863C17.0969 9.34863 17.6565 8.78899 17.6565 8.09863C17.6565 7.40828 17.0969 6.84863 16.4065 6.84863C15.7161 6.84863 15.1565 7.40828 15.1565 8.09863C15.1565 8.78899 15.7161 9.34863 16.4065 9.34863ZM8.44556 10.5986C8.44556 9.90828 7.88591 9.34863 7.19556 9.34863C6.5052 9.34863 5.94556 9.90828 5.94556 10.5986C5.94556 11.289 6.5052 11.8486 7.19556 11.8486C7.88591 11.8486 8.44556 11.289 8.44556 10.5986ZM8.62524 17.1461C9.3156 17.1461 9.87524 16.5864 9.87524 15.8961C9.87524 15.2057 9.3156 14.6461 8.62524 14.6461C7.93489 14.6461 7.37524 15.2057 7.37524 15.8961C7.37524 16.5864 7.93489 17.1461 8.62524 17.1461Z" fill="#323544"/>
<path d="M9.87524 15.8961C9.87524 16.5864 9.3156 17.1461 8.62524 17.1461C7.93489 17.1461 7.37524 16.5864 7.37524 15.8961C7.37524 15.2057 7.93489 14.6461 8.62524 14.6461C9.3156 14.6461 9.87524 15.2057 9.87524 15.8961Z" fill="#323544"/>
<path d="M7.19556 11.8486C7.88591 11.8486 8.44556 11.289 8.44556 10.5986C8.44556 9.90828 7.88591 9.34863 7.19556 9.34863C6.5052 9.34863 5.94556 9.90828 5.94556 10.5986C5.94556 11.289 6.5052 11.8486 7.19556 11.8486Z" fill="#323544"/>
<path d="M12.3323 6.6875C12.3323 7.37786 11.7726 7.9375 11.0823 7.9375C10.3919 7.9375 9.83228 7.37786 9.83228 6.6875C9.83228 5.99714 10.3919 5.4375 11.0823 5.4375C11.7726 5.4375 12.3323 5.99714 12.3323 6.6875Z" fill="#323544"/>
<path d="M17.6565 8.09863C17.6565 8.78899 17.0969 9.34863 16.4065 9.34863C15.7161 9.34863 15.1565 8.78899 15.1565 8.09863C15.1565 7.40828 15.7161 6.84863 16.4065 6.84863C17.0969 6.84863 17.6565 7.40828 17.6565 8.09863Z" fill="#323544"/>
</svg>
