<svg width="25" height="24" viewBox="0 0 25 24" fill="none" xmlns="http://www.w3.org/2000/svg">
<path opacity="0.4" d="M6.88501 2.75C6.88501 2.12868 6.38133 1.625 5.76001 1.625C5.13869 1.625 4.63501 2.12868 4.63501 2.75V4.125H3.26001C2.63869 4.125 2.13501 4.62868 2.13501 5.25C2.13501 5.87132 2.63869 6.375 3.26001 6.375L4.63501 6.375L4.63501 17.25C4.63501 18.6997 5.81026 19.875 7.26001 19.875L18.135 19.875V21.25C18.135 21.8713 18.6387 22.375 19.26 22.375C19.8813 22.375 20.385 21.8713 20.385 21.25V19.875H21.76C22.3813 19.875 22.885 19.3713 22.885 18.75C22.885 18.1287 22.3813 17.625 21.76 17.625H20.385V5.71599L18.135 7.96599V17.625L8.476 17.625H7.26001C7.0529 17.625 6.88501 17.4571 6.88501 17.25L6.88501 16.034L6.88501 6.375L16.544 6.375L18.794 4.125L6.88501 4.125V2.75Z" fill="#323544"/>
<path d="M20.4645 2.4545L18.794 4.125L16.544 6.375L6.88501 16.034L6.88501 17.25C6.88501 17.4571 7.0529 17.625 7.26001 17.625H8.476L18.135 7.96599L20.385 5.71599L22.0555 4.0455C22.4948 3.60616 22.4948 2.89384 22.0555 2.4545C21.6162 2.01517 20.9039 2.01517 20.4645 2.4545Z" fill="#323544"/>
</svg>
