<svg width="25" height="24" viewBox="0 0 25 24" fill="none" xmlns="http://www.w3.org/2000/svg">
<path d="M14.3473 19.6217C14.7131 19.6217 15.0269 19.3612 15.0943 19.0017L15.4697 16.9997C15.4956 16.8614 15.5599 16.7332 15.6552 16.6297L16.053 16.1979C16.4943 15.719 16.7064 15.0723 16.6345 14.425L16.5923 14.0449H8.42734L8.38511 14.425C8.31319 15.0723 8.52527 15.719 8.96655 16.1979L9.37263 16.6387C9.46795 16.7422 9.53225 16.8704 9.55818 17.0087L9.93187 19.0017C9.99927 19.3612 10.3131 19.6217 10.6789 19.6217H10.839V21.2496C10.839 21.4956 10.9596 21.7259 11.1618 21.866C11.3639 22.0062 11.622 22.0382 11.8523 21.9518L13.6948 21.2609C13.9876 21.1511 14.1815 20.8713 14.1815 20.5586V19.6217H14.3473Z" fill="#323544"/>
<path opacity="0.4" d="M8.59399 12.5449L9.54326 4.00153C9.66987 2.86205 10.633 2 11.7795 2H13.2401C14.3866 2 15.3497 2.86206 15.4763 4.00153L16.4256 12.5449H8.59399Z" fill="#323544"/>
</svg>
