<svg width="25" height="24" viewBox="0 0 25 24" fill="none" xmlns="http://www.w3.org/2000/svg">
<path d="M6.41092 14.21L5.52723 15.0936C5.03359 15.5873 4.89651 16.3025 5.11599 16.9191L3.70209 18.3332C3.50707 18.5282 3.43484 18.8145 3.514 19.0787C3.59315 19.3429 3.81094 19.5424 4.08107 19.598L6.42622 20.0813C6.67336 20.1322 6.92955 20.0555 7.10797 19.877L7.59094 19.394C8.20757 19.6134 8.92268 19.4764 9.41632 18.9827L10.3 18.099L6.41092 14.21Z" fill="#323544"/>
<path opacity="0.4" d="M6.93055 13.3153C6.64826 13.0216 6.65178 12.5547 6.94111 12.2654L15.4264 3.7801C16.3051 2.90142 17.7297 2.90142 18.6084 3.7801L20.7297 5.90142C21.6084 6.7801 21.6084 8.20472 20.7297 9.0834L12.2444 17.5687C12.1038 17.7093 11.913 17.7884 11.7141 17.7884C11.5201 17.7884 11.334 17.7132 11.1944 17.5791L6.93055 13.3153Z" fill="#323544"/>
</svg>
