<svg width="25" height="24" viewBox="0 0 25 24" fill="none" xmlns="http://www.w3.org/2000/svg">
<path d="M13.3475 4.96984C12.8058 4.77568 12.2135 4.77568 11.6719 4.96984L3.39742 7.93598C2.22461 8.3564 2.22463 10.015 3.39743 10.4354L11.6719 13.4016C12.2135 13.5957 12.8058 13.5957 13.3475 13.4016L21.6219 10.4354C22.7947 10.015 22.7947 8.3564 21.6219 7.93598L13.3475 4.96984Z" fill="#323544"/>
<path opacity="0.4" d="M5.53987 12.7969L11.1657 14.8136C12.0346 15.125 12.9847 15.125 13.8536 14.8136L19.4795 12.7969L21.6219 13.5649C22.7947 13.9853 22.7947 15.6439 21.6219 16.0643L13.3475 19.0305C12.8058 19.2246 12.2135 19.2246 11.6719 19.0305L3.39743 16.0643C2.22463 15.6439 2.22461 13.9853 3.39742 13.5649L5.53987 12.7969Z" fill="#323544"/>
</svg>
