<svg width="25" height="24" viewBox="0 0 25 24" fill="none" xmlns="http://www.w3.org/2000/svg">
<path d="M6.88501 2.75C6.88501 2.12868 6.38133 1.625 5.76001 1.625C5.13869 1.625 4.63501 2.12868 4.63501 2.75V4.125L6.88501 4.125V2.75ZM11.385 4.125L13.635 4.125V2.75C13.635 2.12868 13.1313 1.625 12.51 1.625C11.8887 1.625 11.385 2.12868 11.385 2.75V4.125ZM18.135 4.125H20.385V2.75C20.385 2.12868 19.8813 1.625 19.26 1.625C18.6387 1.625 18.135 2.12868 18.135 2.75V4.125ZM20.385 6.375H18.135V10.875H20.385V6.375ZM13.635 6.375H11.385V10.875H13.635V6.375ZM6.88501 6.375H4.63501L4.63501 10.875H6.88501V6.375ZM4.63501 17.625L4.63501 13.125H6.88501V17.625H4.63501ZM11.385 17.625V13.125H13.635V17.625H11.385ZM18.135 17.625V13.125H20.385V17.625H18.135ZM4.63501 19.875V21.25C4.63501 21.8713 5.13869 22.375 5.76001 22.375C6.38133 22.375 6.88501 21.8713 6.88501 21.25V19.875H4.63501ZM11.385 19.875V21.25C11.385 21.8713 11.8887 22.375 12.51 22.375C13.1313 22.375 13.635 21.8713 13.635 21.25V19.875L11.385 19.875ZM18.135 19.875V21.25C18.135 21.8713 18.6387 22.375 19.26 22.375C19.8813 22.375 20.385 21.8713 20.385 21.25V19.875H18.135Z" fill="#323544"/>
<g opacity="0.4">
<path d="M21.76 17.625H20.385H18.135L13.635 17.625H11.385L6.88501 17.625H4.63501H3.26001C2.63869 17.625 2.13501 18.1287 2.13501 18.75C2.13501 19.3713 2.63869 19.875 3.26001 19.875H4.63501H6.88501H11.385L13.635 19.875H18.135H20.385H21.76C22.3813 19.875 22.885 19.3713 22.885 18.75C22.885 18.1287 22.3813 17.625 21.76 17.625Z" fill="#323544"/>
<path d="M21.76 10.875H20.385H18.135L13.635 10.875H11.385L6.88501 10.875H4.63501H3.26001C2.63869 10.875 2.13501 11.3787 2.13501 12C2.13501 12.6213 2.63869 13.125 3.26001 13.125H4.63501H6.88501L11.385 13.125H13.635L18.135 13.125H20.385H21.76C22.3813 13.125 22.885 12.6213 22.885 12C22.885 11.3787 22.3813 10.875 21.76 10.875Z" fill="#323544"/>
<path d="M11.385 4.125L6.88501 4.125L4.63501 4.125H3.26001C2.63869 4.125 2.13501 4.62868 2.13501 5.25C2.13501 5.87132 2.63869 6.375 3.26001 6.375H4.63501H6.88501L11.385 6.375H13.635L18.135 6.375H20.385L21.76 6.375C22.3813 6.375 22.885 5.87132 22.885 5.25C22.885 4.62868 22.3813 4.125 21.76 4.125L20.385 4.125H18.135L13.635 4.125L11.385 4.125Z" fill="#323544"/>
</g>
</svg>
