<svg width="25" height="24" viewBox="0 0 25 24" fill="none" xmlns="http://www.w3.org/2000/svg">
<path d="M7.76001 15C8.17422 15 8.51001 15.3358 8.51001 15.75V18.75C8.51001 19.1642 8.17422 19.5 7.76001 19.5H4.76001C4.3458 19.5 4.01001 19.1642 4.01001 18.75V15.75L4.01392 15.6729C4.05254 15.2949 4.37184 15 4.76001 15H7.76001ZM20.26 15C20.6742 15 21.01 15.3358 21.01 15.75V18.75C21.01 19.1642 20.6742 19.5 20.26 19.5H17.26C16.8458 19.5 16.51 19.1642 16.51 18.75V15.75C16.51 15.3358 16.8458 15 17.26 15H20.26ZM21.76 5L21.8372 5.00391C22.2151 5.04253 22.51 5.36183 22.51 5.75V8.75C22.51 9.16421 22.1742 9.5 21.76 9.5H18.76C18.3458 9.5 18.01 9.16421 18.01 8.75V5.75L18.0139 5.67285C18.0525 5.29488 18.3718 5 18.76 5H21.76ZM7.01001 8.75C7.01001 9.16421 6.67422 9.5 6.26001 9.5H3.26001C2.8458 9.5 2.51001 9.16421 2.51001 8.75V5.75L2.51392 5.67285C2.55254 5.29488 2.87184 5 3.26001 5H6.26001L6.33716 5.00391C6.71513 5.04253 7.01001 5.36183 7.01001 5.75V8.75ZM15.26 7.25C15.26 8.76878 14.0288 10 12.51 10C10.9912 10 9.76001 8.76878 9.76001 7.25C9.76001 5.73122 10.9912 4.5 12.51 4.5C14.0288 4.5 15.26 5.73122 15.26 7.25Z" fill="#323544"/>
<g opacity="0.4">
<path d="M14.7747 8.80664C15.4505 9.00604 16.0397 9.29491 16.551 9.64941C17.561 10.3498 18.2223 11.2759 18.6545 12.1748C19.0856 13.0714 19.2974 13.9588 19.4026 14.6152C19.4247 14.7534 19.4413 14.8824 19.4553 15H17.9417C17.935 14.9529 17.9302 14.9038 17.9221 14.8535C17.832 14.2913 17.653 13.5533 17.303 12.8252C16.954 12.0993 16.4431 11.4001 15.6956 10.8818C14.9542 10.3679 13.9349 10 12.51 10C11.0851 10 10.0658 10.3679 9.32446 10.8818C8.57692 11.4001 8.06603 12.0993 7.71704 12.8252C7.36704 13.5533 7.18799 14.2913 7.0979 14.8535C7.08984 14.9038 7.085 14.9529 7.07837 15H5.5647C5.57875 14.8824 5.59529 14.7534 5.61743 14.6152C5.72267 13.9588 5.93442 13.0714 6.36548 12.1748C6.79769 11.2759 7.45901 10.3498 8.46899 9.64941C8.98007 9.29507 9.56894 9.00603 10.2444 8.80664C10.7402 9.52696 11.5694 10 12.51 10C13.4504 10 14.2788 9.52671 14.7747 8.80664Z" fill="#323544"/>
<path d="M18.01 8H15.1536C15.2211 7.76136 15.26 7.51029 15.26 7.25C15.26 6.98971 15.2211 6.73864 15.1536 6.5H18.01V8Z" fill="#323544"/>
<path d="M9.86646 6.5C9.79888 6.73864 9.76001 6.98971 9.76001 7.25C9.76001 7.51029 9.79888 7.76136 9.86646 8H7.01001V6.5H9.86646Z" fill="#323544"/>
</g>
</svg>
