<svg width="25" height="24" viewBox="0 0 25 24" fill="none" xmlns="http://www.w3.org/2000/svg">
<path d="M19.26 17.5C19.6742 17.5 20.01 17.8358 20.01 18.25V21.25C20.01 21.6642 19.6742 22 19.26 22H16.26C15.8458 22 15.51 21.6642 15.51 21.25V18.25C15.51 17.8358 15.8458 17.5 16.26 17.5H19.26ZM8.76001 9.75C9.17422 9.75 9.51001 10.0858 9.51001 10.5V13.5C9.51001 13.9142 9.17422 14.25 8.76001 14.25H5.76001C5.3458 14.25 5.01001 13.9142 5.01001 13.5V10.5L5.01392 10.4229C5.05254 10.0449 5.37184 9.75 5.76001 9.75H8.76001ZM19.26 9.75C19.6742 9.75 20.01 10.0858 20.01 10.5V13.5C20.01 13.9142 19.6742 14.25 19.26 14.25H16.26C15.8458 14.25 15.51 13.9142 15.51 13.5V10.5C15.51 10.0858 15.8458 9.75 16.26 9.75H19.26ZM8.76001 2L8.83716 2.00391C9.21513 2.04253 9.51001 2.36183 9.51001 2.75V5.75C9.51001 6.16421 9.17422 6.5 8.76001 6.5H5.76001C5.3458 6.5 5.01001 6.16421 5.01001 5.75V2.75L5.01392 2.67285C5.05254 2.29488 5.37184 2 5.76001 2H8.76001Z" fill="#323544"/>
<g opacity="0.4">
<path d="M18.51 17.5H17.01V14.25H18.51V17.5Z" fill="#323544"/>
<path d="M15.51 12.75H9.51001V11.25H15.51V12.75Z" fill="#323544"/>
<path d="M7.97095 9.75H6.47095V6.5H7.97095V9.75Z" fill="#323544"/>
</g>
</svg>
