<svg width="24" height="25" viewBox="0 0 24 25" fill="none" xmlns="http://www.w3.org/2000/svg">
<path d="M5.82812 15.2692L7.85582 13.6483C8.30319 13.2907 8.8433 13.0641 9.41604 13.0615C10.2167 13.0579 11.4338 13.1332 12.489 13.5354C12.5216 13.5478 12.5561 13.5544 12.591 13.5544H15.273C15.8461 13.5544 16.3107 14.019 16.3107 14.5921C16.3107 14.8729 16.1991 15.1277 16.0178 15.3145M12.5382 15.6297H15.273C15.5653 15.6297 15.8293 15.5089 16.0178 15.3145M8.14084 19.8378L9.06194 19.0043C9.33773 18.7548 9.69641 18.6166 10.0683 18.6166H16.2415C16.6145 18.6166 16.9672 18.4472 17.2003 18.1561L21.0669 13.3275C21.3184 13.0134 21.3077 12.564 21.0417 12.2622C20.748 11.9292 20.2438 11.887 19.899 12.1668L16.0178 15.3145M15.8992 15.4107L16.0178 15.3145M16.6108 5.09323C16.6108 4.55375 16.1735 4.11641 15.634 4.11641H15.2389C14.5581 4.11641 14.0061 4.66836 14.0061 5.34921C14.0061 5.86309 14.3249 6.32306 14.806 6.50351L15.8109 6.88035C16.292 7.06079 16.6108 7.52077 16.6108 8.03464C16.6108 8.7155 16.0589 9.26744 15.378 9.26744H14.983C14.4435 9.26744 14.0061 8.83011 14.0061 8.29062M15.3085 9.41406V10.1337M15.3085 3.25V3.96966M2.75 16.556L5.3266 15.0684L8.32527 20.2623L5.74867 21.7499L2.75 16.556Z" stroke="#323544" stroke-width="1.5" stroke-linecap="round" stroke-linejoin="round"/>
</svg>
