<svg width="24" height="25" viewBox="0 0 24 25" fill="none" xmlns="http://www.w3.org/2000/svg">
<path d="M5.82812 15.2692L7.85582 13.6483C8.30319 13.2906 8.8433 13.0641 9.41604 13.0615C10.2167 13.0579 11.4338 13.1332 12.489 13.5354C12.5216 13.5478 12.5561 13.5544 12.591 13.5544H15.273C15.8461 13.5544 16.3107 14.019 16.3107 14.5921C16.3107 14.8729 16.1991 15.1277 16.0178 15.3145M12.5382 15.6297H15.273C15.5653 15.6297 15.8293 15.5089 16.0178 15.3145M8.14084 19.8378L9.06194 19.0043C9.33773 18.7548 9.69641 18.6166 10.0683 18.6166H16.2415C16.6145 18.6166 16.9672 18.4472 17.2003 18.1561L21.0669 13.3274C21.3184 13.0134 21.3077 12.564 21.0417 12.2622C20.748 11.9291 20.2438 11.887 19.899 12.1667L16.0178 15.3145M15.8992 15.4107L16.0178 15.3145M2.75 16.556L5.3266 15.0684L8.32527 20.2623L5.74867 21.7499L2.75 16.556ZM16.4247 4.55231C16.4247 5.16882 15.925 5.66859 15.3085 5.66859C14.692 5.66859 14.1922 5.16882 14.1922 4.55231C14.1922 3.93581 14.692 3.43604 15.3085 3.43604C15.925 3.43604 16.4247 3.93581 16.4247 4.55231ZM18.0109 9.94766H12.6059V9.01743C12.6059 8.19543 13.2723 7.52906 14.0943 7.52906H16.5226C17.3446 7.52906 18.0109 8.19543 18.0109 9.01743V9.94766Z" stroke="#323544" stroke-width="1.5" stroke-linecap="round" stroke-linejoin="round"/>
</svg>
