<svg width="24" height="25" viewBox="0 0 24 25" fill="none" xmlns="http://www.w3.org/2000/svg">
<path d="M11.3976 7.57126L10.6042 7.03796C9.76513 6.47394 8.65289 6.53882 7.88511 7.19659L5.93716 8.86541C5.66534 9.09829 5.3192 9.22628 4.96126 9.22628H2.75V15.2558H4.83766C5.26883 15.2558 5.67915 15.4413 5.96392 15.7651L8.30317 18.4244C8.80562 18.9956 9.65611 19.1002 10.282 18.6678L11.2765 17.9808L12.3673 18.3509C12.9877 18.5614 13.6729 18.3449 14.0598 17.8162L14.7932 16.814L15.5614 16.9175C16.1775 17.0006 16.7809 16.695 17.0786 16.1492L17.3407 15.6688M13.9677 10.805L11.3758 12.8407C10.7897 13.301 9.9545 13.2612 9.41482 12.7472L9.34673 12.6824C8.73762 12.1023 8.72446 11.1349 9.31757 10.5385L12.282 7.55744C13.393 6.44023 15.1789 6.37283 16.371 7.40312L18.0579 8.86114C18.3304 9.09667 18.6786 9.22628 19.0388 9.22628H21.25V15.6688H17.3407M13.9677 10.805L14.5043 10.3836M13.9677 10.805L17.0948 13.8121C17.5822 14.2809 17.6957 15.0178 17.3719 15.6115L17.3407 15.6688" stroke="#323544" stroke-width="1.5" stroke-linecap="round" stroke-linejoin="round"/>
</svg>
