<svg width="24" height="24" viewBox="0 0 24 24" fill="none" xmlns="http://www.w3.org/2000/svg">
<path d="M15.76 21.9306C15.85 21.9706 15.94 21.9906 16.04 21.9906H16.08C16.23 21.9906 16.37 21.9406 16.5 21.8606C16.71 21.7206 16.83 21.4906 16.83 21.2406V19.0606C16.83 18.8306 16.72 18.6106 16.54 18.4706L14.61 16.9706L14.73 14.5106L19.89 15.3306C20.1 15.3706 20.32 15.3006 20.49 15.1606C20.65 15.0206 20.75 14.8106 20.75 14.5906V12.0606C20.75 11.7706 20.58 11.5006 20.32 11.3806L15 8.86062C15.11 6.60062 14.43 4.36063 13.1 2.54062C12.59 1.84062 11.41 1.84062 10.9 2.54062C9.57 4.36063 8.9 6.61062 9 8.86062L3.68 11.3806C3.42 11.5106 3.25 11.7706 3.25 12.0606V14.5906C3.25 14.8106 3.35 15.0206 3.51 15.1606C3.67 15.3006 3.9 15.3706 4.11 15.3306L9.27 14.5106L9.39 16.9706L7.46 18.4706C7.28 18.6106 7.17 18.8306 7.17 19.0606V21.2406C7.17 21.4906 7.29 21.7206 7.5 21.8606C7.71 22.0006 7.97 22.0206 8.2 21.9306L11.98 20.3806L15.76 21.9306Z" fill="#323544"/>
</svg>
