<svg width="24" height="25" viewBox="0 0 24 25" fill="none" xmlns="http://www.w3.org/2000/svg">
<path d="M12 4.47656C11.3097 4.47656 10.75 5.03621 10.75 5.72656C10.75 6.41692 11.3097 6.97656 12 6.97656C12.6904 6.97656 13.25 6.41692 13.25 5.72656C13.25 5.03621 12.6904 4.47656 12 4.47656ZM9.25002 5.72656C9.25002 4.20778 10.4812 2.97656 12 2.97656C13.5188 2.97656 14.75 4.20778 14.75 5.72656C14.75 6.98534 13.9043 8.04658 12.75 8.37305V9.97656H14.625C15.0392 9.97656 15.375 10.3123 15.375 10.7266C15.375 11.1408 15.0392 11.4766 14.625 11.4766H12.75L12.75 21.4766H12.9959C15.7697 21.4766 18.041 19.3254 18.2328 16.6004H16.75C16.4466 16.6004 16.1731 16.4176 16.0571 16.1373C15.941 15.857 16.0053 15.5344 16.2199 15.3199L18.4204 13.1209C18.558 12.9565 18.7647 12.8519 18.9959 12.8519C18.9966 12.8519 18.9973 12.8519 18.998 12.8519C19.1906 12.8514 19.3833 12.9246 19.5303 13.0714L21.7802 15.3199C21.9948 15.5344 22.059 15.857 21.943 16.1373C21.8269 16.4176 21.5534 16.6004 21.25 16.6004H19.7357C19.5417 20.1545 16.5983 22.9766 12.9959 22.9766H11.003C7.40048 22.9766 4.45715 20.1545 4.26313 16.6004H2.75002C2.44663 16.6004 2.17312 16.4176 2.05706 16.1373C1.94101 15.857 2.00527 15.5344 2.21988 15.3199L4.46995 13.0714C4.61672 12.9247 4.80914 12.8516 5.00145 12.8519C5.00195 12.8519 5.00245 12.8519 5.00295 12.8519C5.22983 12.8519 5.43318 12.9527 5.57071 13.1119L7.78018 15.3199C7.99478 15.5344 8.05903 15.857 7.94298 16.1373C7.82692 16.4176 7.55341 16.6004 7.25002 16.6004H5.76606C5.95779 19.3254 8.22916 21.4766 11.003 21.4766H11.25L11.25 11.4766H9.37502C8.96081 11.4766 8.62502 11.1408 8.62502 10.7266C8.62502 10.3123 8.96081 9.97656 9.37502 9.97656H11.25V8.37305C10.0958 8.04658 9.25002 6.98534 9.25002 5.72656Z" fill="#323544"/>
</svg>
