<svg width="24" height="24" viewBox="0 0 24 24" fill="none" xmlns="http://www.w3.org/2000/svg">
<path d="M3.96326 5.5625C4.33446 3.88206 5.83293 2.625 7.625 2.625H16.375C18.1671 2.625 19.6655 3.88206 20.0367 5.5625H20.125C20.9534 5.5625 21.625 6.23407 21.625 7.0625V7.8125C21.625 8.22671 21.2892 8.5625 20.875 8.5625H20.125V16.625C20.125 17.3498 19.7823 17.9946 19.25 18.4061V19.875C19.25 20.7034 18.5784 21.375 17.75 21.375C16.9216 21.375 16.25 20.7034 16.25 19.875V18.875H7.75V19.875C7.75 20.7034 7.07843 21.375 6.25 21.375C5.42157 21.375 4.75 20.7034 4.75 19.875V18.4061C4.21774 17.9946 3.875 17.3498 3.875 16.625V8.5625H3.125C2.71079 8.5625 2.375 8.22671 2.375 7.8125V7.0625C2.375 6.23407 3.04657 5.5625 3.875 5.5625H3.96326ZM7.625 4.125C6.38236 4.125 5.375 5.13236 5.375 6.375V10H18.625V6.375C18.625 5.13236 17.6176 4.125 16.375 4.125H7.625ZM8.25 13.1875C7.55964 13.1875 7 13.7471 7 14.4375C7 15.1279 7.55974 15.6875 8.2501 15.6875C8.94046 15.6875 9.5001 15.1279 9.5001 14.4375C9.5001 13.7471 8.94036 13.1875 8.25 13.1875ZM14.5 14.4375C14.5 15.1279 15.0596 15.6875 15.75 15.6875C16.4404 15.6875 17.0001 15.1279 17.0001 14.4375C17.0001 13.7471 16.4404 13.1875 15.75 13.1875C15.0596 13.1875 14.5 13.7471 14.5 14.4375Z" fill="#323544"/>
</svg>
