<svg width="24" height="24" viewBox="0 0 24 24" fill="none" xmlns="http://www.w3.org/2000/svg">
<path d="M12 2C10.7574 2 9.75 3.00736 9.75 4.25C9.75 5.49264 10.7574 6.5 12 6.5C13.2426 6.5 14.25 5.49264 14.25 4.25C14.25 3.00736 13.2426 2 12 2Z" fill="#323544"/>
<path d="M12 16C11.1716 16 10.5 16.6716 10.5 17.5V20.5C10.5 21.3284 11.1716 22 12 22C12.8284 22 13.5 21.3284 13.5 20.5V17.5C13.5 16.6716 12.8284 16 12 16Z" fill="#323544"/>
<path d="M8.32501 3.5C8.27582 3.74233 8.25 3.99315 8.25 4.25C8.25 4.50685 8.27582 4.75767 8.32501 5L5.5 5C5.08579 5 4.75 4.66421 4.75 4.25C4.75 3.83579 5.08579 3.5 5.5 3.5H8.32501Z" fill="#323544"/>
<path d="M15.675 3.5C15.7242 3.74233 15.75 3.99315 15.75 4.25C15.75 4.50685 15.7242 4.75767 15.675 5L18.5 5C18.9142 5 19.25 4.66421 19.25 4.25C19.25 3.83579 18.9142 3.5 18.5 3.5H15.675Z" fill="#323544"/>
<path d="M15.2614 6.10219C14.6163 7.23564 13.3974 8 12 8C10.6026 8 9.38368 7.23564 8.7386 6.10219C7.45379 7.08436 6.625 8.63289 6.625 10.375V14.875C6.625 16.7326 7.56731 18.3701 9 19.3356V17.5C9 15.8431 10.3431 14.5 12 14.5C13.6569 14.5 15 15.8431 15 17.5V19.3356C16.4327 18.3701 17.375 16.7326 17.375 14.875V10.375C17.375 8.63289 16.5462 7.08436 15.2614 6.10219Z" fill="#323544"/>
</svg>
