<svg width="24" height="24" viewBox="0 0 24 24" fill="none" xmlns="http://www.w3.org/2000/svg">
<path d="M20.7965 14.6235H19.0637M20.7965 14.6261C20.3744 13.7451 19.6843 13.0204 18.825 12.5558C17.9657 12.0913 16.9814 11.9106 16.0131 12.0398C15.0449 12.169 14.1424 12.6015 13.435 13.2751C12.9164 13.769 12.5222 14.374 12.2792 15.0403M12.4528 18.6223H14.1851M12.4528 18.6239C12.8749 19.5048 13.565 20.2295 14.4243 20.6941C15.2836 21.1587 16.2679 21.3393 17.2362 21.2101C18.2044 21.0809 19.1069 20.6485 19.8143 19.9748C20.3335 19.4804 20.728 18.8747 20.9709 18.2075M20.6771 10.1656C19.9745 8.99888 18.6955 8.21844 17.2343 8.21844H16.866V7.6153C16.866 4.92827 14.6877 2.75 12.0007 2.75C9.31363 2.75 7.13536 4.92827 7.13536 7.6153V8.21844H6.76578C4.54792 8.21844 2.75 10.0164 2.75 12.2342C2.75 14.4521 4.54792 16.25 6.76577 16.25H9.00781" stroke="#323544" stroke-width="1.5" stroke-linecap="round" stroke-linejoin="round"/>
</svg>
