<svg width="24" height="24" viewBox="0 0 24 24" fill="none" xmlns="http://www.w3.org/2000/svg">
<path d="M4.75115 19.75C4.75115 20.0261 4.97501 20.25 5.25115 20.25C5.52729 20.25 5.75115 20.0261 5.75115 19.75C5.75115 19.4739 5.52729 19.25 5.25115 19.25C4.97501 19.25 4.75115 19.4739 4.75115 19.75Z" fill="#323544"/>
<path d="M11.5012 20.75C11.5012 21.0261 11.725 21.25 12.0012 21.25C12.2773 21.25 12.5012 21.0261 12.5012 20.75C12.5012 20.4739 12.2773 20.25 12.0012 20.25C11.725 20.25 11.5012 20.4739 11.5012 20.75Z" fill="#323544"/>
<path d="M18.2514 19.75C18.2514 20.0261 18.4752 20.25 18.7514 20.25C19.0275 20.25 19.2514 20.0261 19.2514 19.75C19.2514 19.4739 19.0275 19.25 18.7514 19.25C18.4752 19.25 18.2514 19.4739 18.2514 19.75Z" fill="#323544"/>
<path d="M8.25115 15.083V18.2498C8.25115 19.0782 7.57958 19.7498 6.75115 19.7498L5.75115 19.75M5.75115 19.75C5.75115 20.0261 5.52729 20.25 5.25115 20.25C4.97501 20.25 4.75115 20.0261 4.75115 19.75C4.75115 19.4739 4.97501 19.25 5.25115 19.25C5.52729 19.25 5.75115 19.4739 5.75115 19.75ZM15.7512 15.083V18.2498C15.7512 19.0782 16.4227 19.7498 17.2512 19.7498L18.2514 19.75M12.0012 15.083V20.25M12.0012 20.25C12.2773 20.25 12.5012 20.4739 12.5012 20.75C12.5012 21.0261 12.2773 21.25 12.0012 21.25C11.725 21.25 11.5012 21.0261 11.5012 20.75C11.5012 20.4739 11.725 20.25 12.0012 20.25ZM18.2514 19.75C18.2514 20.0261 18.4752 20.25 18.7514 20.25C19.0275 20.25 19.2514 20.0261 19.2514 19.75C19.2514 19.4739 19.0275 19.25 18.7514 19.25C18.4752 19.25 18.2514 19.4739 18.2514 19.75ZM5.66103 8.09065C4.41304 8.67629 3.54883 9.94421 3.54883 11.414C3.54883 13.4403 5.19152 15.083 7.21788 15.083H16.7826C18.8089 15.083 20.4516 13.4403 20.4516 11.414C20.4516 9.96605 19.6129 8.71402 18.3948 8.1172C18.8956 6.4977 18.0453 4.75161 16.4357 4.15945C15.3797 3.77093 14.2506 3.97254 13.4103 4.59717C12.4092 3.16572 10.5928 2.42854 8.79962 2.88429C6.50155 3.46836 5.10549 5.79211 5.66103 8.09065Z" stroke="#323544" stroke-width="1.5" stroke-linecap="round" stroke-linejoin="round"/>
</svg>
