<svg width="24" height="24" viewBox="0 0 24 24" fill="none" xmlns="http://www.w3.org/2000/svg">
<path d="M18.75 5.25V18.75C18.75 20.1307 15.7279 21.25 12 21.25C8.27208 21.25 5.25 20.1307 5.25 18.75V5.25M18.75 5.25C18.75 6.63071 15.7279 7.75 12 7.75C8.27208 7.75 5.25 6.63071 5.25 5.25M18.75 5.25C18.75 3.86929 15.7279 2.75 12 2.75C8.27208 2.75 5.25 3.86929 5.25 5.25M18.75 14.25C18.75 15.6307 15.7279 16.75 12 16.75C8.27208 16.75 5.25 15.6307 5.25 14.25M18.75 9.75C18.75 11.1307 15.7279 12.25 12 12.25C8.27208 12.25 5.25 11.1307 5.25 9.75" stroke="#323544" stroke-width="1.5" stroke-linecap="round" stroke-linejoin="round"/>
</svg>
