<svg width="24" height="24" viewBox="0 0 24 24" fill="none" xmlns="http://www.w3.org/2000/svg">
<path d="M16 20V15.5C16 14.6716 15.3284 14 14.5 14L9.5 14C8.67157 14 8 14.6716 8 15.5L8.00001 20M7 4V5.5C7 6.32843 7.67157 7 8.5 7H11.5C12.3284 7 13 6.32843 13 5.5L13 4M18.4999 20H5.5C4.67157 20 4 19.3284 4 18.5V5.5C4 4.67157 4.67157 4 5.5 4H15.3809C15.7783 4 16.1595 4.15772 16.4407 4.43852L19.5597 7.55271C19.8415 7.83408 19.9999 8.21596 19.9999 8.61418L19.9999 18.5C19.9999 19.3284 19.3283 20 18.4999 20Z" stroke="#323544" stroke-width="1.5" stroke-linecap="round" stroke-linejoin="round"/>
</svg>
