<svg width="24" height="24" viewBox="0 0 24 24" fill="none" xmlns="http://www.w3.org/2000/svg">
<path d="M10.369 14.7042L9.1025 17.5642C8.94029 17.9305 8.49625 18.0753 8.14931 17.875C7.80237 17.6747 7.70572 17.2178 7.94185 16.8941L9.74958 14.4165M10.369 14.7042L11.6493 11.8128L9.74958 14.4165M10.369 14.7042C10.8762 14.8954 11.4259 15 12 15C14.5543 15 16.625 12.9293 16.625 10.375C16.625 7.82068 14.5543 5.75 12 5.75C9.44568 5.75 7.375 7.82068 7.375 10.375C7.375 12.1124 8.333 13.6261 9.74958 14.4165M4.5 4.25L4.5 19.75C4.5 20.5784 5.17157 21.25 6 21.25H18C18.8284 21.25 19.5 20.5784 19.5 19.75V4.25C19.5 3.42157 18.8284 2.75 18 2.75L6 2.75C5.17157 2.75 4.5 3.42157 4.5 4.25Z" stroke="#323544" stroke-width="1.5" stroke-linecap="round" stroke-linejoin="round"/>
</svg>
