<svg width="24" height="24" viewBox="0 0 24 24" fill="none" xmlns="http://www.w3.org/2000/svg">
<path d="M12 15.2212V21.25M12 15.2212C12 15.2212 9.66023 13.1004 5.7002 12.9717H5.46217M12 15.2212C12 15.2212 14.3388 13.1004 18.2988 12.9717H18.5378M15.75 21.25L17.9362 15.8574C18.3133 14.9272 18.5125 13.9495 18.5378 12.9717M8.25 21.25L6.06383 15.8574C5.68671 14.9272 5.48745 13.9495 5.46217 12.9717M7.5 2.75L7.8153 4.06373C8.09365 5.22353 7.90017 6.44639 7.27738 7.46361L6.84655 8.16729M16.5 2.75L16.1847 4.06373C15.9064 5.22353 16.0998 6.44639 16.7226 7.46361L17.1534 8.16729M21.25 3.72363L19.75 5.22363L21.25 6.72363M2.75 3.72363L4.25 5.22363L2.75 6.72363M18.5378 12.9717C18.5785 11.3994 18.1694 9.82661 17.3266 8.45011L17.1534 8.16729M5.46217 12.9717C5.42151 11.3994 5.83065 9.82661 6.6734 8.45011L6.84655 8.16729M17.1534 8.16729L17.0596 8.22363C17.0596 8.22363 14.8109 9.72363 12 9.72363C9.18911 9.72363 6.94043 8.22363 6.94043 8.22363L6.84655 8.16729" stroke="#323544" stroke-width="1.5" stroke-linecap="round" stroke-linejoin="round"/>
<path d="M12 6.72363L12 6.72373" stroke="#323544" stroke-width="1.5" stroke-linecap="round" stroke-linejoin="round"/>
</svg>
