<svg width="24" height="24" viewBox="0 0 24 24" fill="none" xmlns="http://www.w3.org/2000/svg">
<path d="M16.4558 4.03974C17.3395 3.31902 18.6428 3.37031 19.4665 4.19404L19.8044 4.53193L19.9587 4.70283C20.6312 5.52763 20.6313 6.71792 19.9587 7.54267L19.8044 7.71357L16.0065 11.5104C16.051 11.8749 16.0458 12.2438 15.9909 12.6071L19.8005 16.4177C20.6792 17.2964 20.6792 18.7206 19.8005 19.5993L19.4626 19.9372C18.5839 20.8156 17.1595 20.8158 16.281 19.9372L12.3679 16.0231C12.0809 16.0494 11.7918 16.0464 11.5056 16.0114L7.58076 19.9372C6.7569 20.7611 5.45279 20.8126 4.56904 20.0915L4.39815 19.9372L4.06025 19.5993C3.18203 18.7207 3.18194 17.2962 4.06025 16.4177L7.98799 12.4899C7.95346 12.205 7.94915 11.9171 7.97529 11.6315L4.0583 7.71455C3.17962 6.83587 3.17962 5.41061 4.0583 4.53193L4.39619 4.19404L4.56709 4.03974C5.45076 3.31926 6.75415 3.37055 7.57783 4.19404L11.3913 8.00849C11.7536 7.95366 12.1216 7.94798 12.4851 7.99189L16.1218 4.35615L16.2849 4.19404L16.4558 4.03974ZM5.4167 17.1823L5.12178 17.4782C4.82888 17.7711 4.82889 18.2459 5.12178 18.5388L5.45869 18.8767L5.51631 18.9284C5.81089 19.1685 6.24571 19.1512 6.52022 18.8767L6.81416 18.5817L9.92744 15.4685C9.72798 15.3492 9.53575 15.2129 9.35518 15.0563L9.14229 14.8581C8.9007 14.6165 8.69777 14.3502 8.52998 14.069L5.4167 17.1823ZM15.4157 14.153C15.2581 14.403 15.0725 14.6407 14.8552 14.8581C14.5901 15.1232 14.2949 15.3411 13.9831 15.5173L17.3415 18.8767C17.6343 19.1695 18.1091 19.1693 18.4021 18.8767L18.7399 18.5388C19.0328 18.2459 19.0328 17.7711 18.7399 17.4782L15.4157 14.153ZM12.573 9.52705C12.218 9.44507 11.8485 9.4403 11.4919 9.5124L11.3396 9.54853C10.9237 9.65966 10.5307 9.87801 10.2028 10.2058C9.87813 10.5305 9.65967 10.9196 9.54756 11.3317L9.50654 11.5104C9.43755 11.8626 9.44323 12.2269 9.52412 12.5769L9.56904 12.7429C9.68617 13.1283 9.89688 13.4916 10.2028 13.7976L10.3366 13.9226C10.6575 14.2009 11.0304 14.3847 11.4206 14.4753L11.6862 14.5222C11.9535 14.555 12.2251 14.5458 12.4899 14.4938L12.6677 14.4519C13.0798 14.3398 13.4689 14.1222 13.7937 13.7976C14.1216 13.4696 14.3407 13.0759 14.4519 12.6599L14.487 12.5075C14.5489 12.2013 14.5544 11.8857 14.5026 11.5778L14.4724 11.4245C14.3818 11.0344 14.1977 10.6614 13.9196 10.3405L13.7937 10.2058C13.4878 9.90001 13.1252 9.68908 12.7399 9.57197L12.573 9.52705ZM6.51729 5.25459C6.24263 4.98013 5.80789 4.96344 5.51338 5.20381L5.45674 5.25459L5.11885 5.59248C4.82602 5.88531 4.82615 6.36012 5.11885 6.65303L5.36494 6.9001L8.48115 10.0163C8.65736 9.70446 8.87711 9.41039 9.14229 9.14521C9.35942 8.92811 9.5957 8.74123 9.84541 8.58369L6.73506 5.47334L6.51729 5.25459ZM18.406 5.25459C18.1314 4.98002 17.6966 4.96264 17.4021 5.20283L17.3454 5.25459L14.0651 8.53291C14.3465 8.70076 14.6134 8.90345 14.8552 9.14521L15.0534 9.3581C15.2098 9.53852 15.3453 9.73109 15.4646 9.93037L18.5817 6.81416L18.7438 6.65303L18.7946 6.59638C19.0193 6.32134 19.0192 5.92422 18.7946 5.64912L18.7438 5.59248L18.406 5.25459Z" fill="#323544"/>
<g opacity="0.4">
<path d="M8.56916 18.9474C10.6944 19.9975 13.2012 20.0125 15.3377 18.9933L16.2811 19.9366C16.3397 19.9952 16.4015 20.049 16.4647 20.0997C13.6652 21.644 10.2386 21.6289 7.45197 20.0529C7.49555 20.0155 7.5396 19.9779 7.58088 19.9366L8.56916 18.9474Z" fill="#323544"/>
<path d="M20.0418 7.42981C21.6643 10.2809 21.6497 13.8067 19.9979 16.6456C19.9375 16.5666 19.8729 16.4894 19.8006 16.4171L18.9041 15.5206C20.0144 13.3451 20.0296 10.7543 18.949 8.56751L19.8045 7.71301L19.9588 7.54212C19.9884 7.50583 20.0148 7.46745 20.0418 7.42981Z" fill="#323544"/>
<path d="M3.89924 7.53626C3.94875 7.59741 4.00155 7.65712 4.05842 7.71399L5.00666 8.66223C3.98816 10.7971 4.00226 13.3027 5.04963 15.4269L4.06037 16.4171C4.0196 16.4579 3.98212 16.501 3.94514 16.5441C2.37199 13.7587 2.35646 10.3339 3.89924 7.53626Z" fill="#323544"/>
<path d="M7.35432 4.0011C10.1918 2.35027 13.7169 2.33612 16.5672 3.95618C16.5298 3.98304 16.492 4.00975 16.4559 4.03919L16.285 4.19348L16.1219 4.35559L15.4276 5.04895C13.242 3.97132 10.653 3.9866 8.47932 5.09583L7.57795 4.19348C7.50739 4.12294 7.43135 4.06031 7.35432 4.0011Z" fill="#323544"/>
</g>
</svg>
