<svg width="25" height="24" viewBox="0 0 25 24" fill="none" xmlns="http://www.w3.org/2000/svg">
<path opacity="0.4" d="M6.82528 7.41807C7.11985 7.17778 7.55458 7.19525 7.82918 7.46983C8.10379 7.74443 8.12125 8.17915 7.88094 8.47374L7.82918 8.53038L4.35946 12.0001L7.82918 15.4698L7.88094 15.5274C8.12089 15.822 8.1035 16.2559 7.82918 16.5304C7.55452 16.805 7.11986 16.8226 6.82528 16.5821L6.76864 16.5304L2.76864 12.5304C2.47594 12.2375 2.47583 11.7627 2.76864 11.4698L6.76864 7.46983L6.82528 7.41807ZM17.2686 7.46983C17.5432 7.19525 17.978 7.17778 18.2725 7.41807L18.3292 7.46983L22.3292 11.4698C22.622 11.7627 22.6219 12.2375 22.3292 12.5304L18.3292 16.5304C18.0363 16.8233 17.5615 16.8233 17.2686 16.5304C16.9759 16.2375 16.9758 15.7627 17.2686 15.4698L20.7384 12.0001L17.2686 8.53038L17.2169 8.47374C16.9766 8.17915 16.994 7.74443 17.2686 7.46983Z" fill="#323544"/>
<path d="M14.3984 7.25391C14.7765 7.29245 15.0712 7.61182 15.0713 8C15.0713 8.38822 14.7765 8.70754 14.3984 8.74609L14.3213 8.75H12.2764C11.8622 8.75 11.5264 9.08582 11.5264 9.5V10.5C11.5264 10.9142 11.8622 11.25 12.2764 11.25H12.8213C14.0638 11.25 15.0711 12.2575 15.0713 13.5V14.5C15.0713 15.7426 14.0639 16.75 12.8213 16.75H10.7764C10.3622 16.75 10.0264 16.4142 10.0264 16C10.0266 15.586 10.3623 15.25 10.7764 15.25H12.8213C13.2355 15.25 13.5713 14.9142 13.5713 14.5V13.5C13.5711 13.0859 13.2354 12.75 12.8213 12.75H12.2764C11.0337 12.75 10.0264 11.7426 10.0264 10.5V9.5C10.0264 8.2574 11.0338 7.25 12.2764 7.25H14.3213L14.3984 7.25391Z" fill="#323544"/>
</svg>
