<svg width="25" height="24" viewBox="0 0 25 24" fill="none" xmlns="http://www.w3.org/2000/svg">
<path opacity="0.4" d="M15.0581 4.16286C15.148 3.75851 14.893 3.35788 14.4887 3.26802C14.0843 3.17816 13.6837 3.43311 13.5938 3.83746L10.0383 19.8374C9.94843 20.2418 10.2034 20.6424 10.6077 20.7323C11.0121 20.8221 11.4127 20.5672 11.5026 20.1628L15.0581 4.16286Z" fill="#323544"/>
<path d="M7.82913 7.46965C8.12204 7.76253 8.12206 8.2374 7.82918 8.53031L4.35946 12.0003L7.82916 15.47C8.12205 15.7629 8.12205 16.2378 7.82916 16.5307C7.53627 16.8236 7.06139 16.8236 6.7685 16.5307L2.7685 12.5307C2.47561 12.2378 2.4756 11.763 2.76847 11.4701L6.76847 7.46969C7.06135 7.17679 7.53623 7.17677 7.82913 7.46965Z" fill="#323544"/>
<path d="M17.2685 7.46965C16.9756 7.76253 16.9756 8.2374 17.2685 8.53031L20.7382 12.0003L17.2685 15.47C16.9756 15.7629 16.9756 16.2378 17.2685 16.5307C17.5614 16.8236 18.0363 16.8236 18.3292 16.5307L22.3292 12.5307C22.622 12.2378 22.6221 11.763 22.3292 11.4701L18.3292 7.46969C18.0363 7.17679 17.5614 7.17677 17.2685 7.46965Z" fill="#323544"/>
</svg>
