<svg width="24" height="24" viewBox="0 0 24 24" fill="none" xmlns="http://www.w3.org/2000/svg">
<path opacity="0.4" d="M9.75 20.5V22H6.75C5.50736 22 4.5 20.9926 4.5 19.75V9.62105C4.5 9.02455 4.73686 8.45247 5.15851 8.03055L10.5262 2.65951C10.9482 2.23725 11.5207 2 12.1177 2H17.25C18.4926 2 19.5 3.00736 19.5 4.25V9.75H18V4.25C18 3.83579 17.6642 3.5 17.25 3.5H12.248L12.2509 7.4984C12.2518 8.74166 11.2442 9.75 10.0009 9.75H6V19.75C6 20.1642 6.33579 20.5 6.75 20.5H9.75ZM10.7488 4.55876L7.05986 8.25H10.0009C10.4153 8.25 10.7512 7.91389 10.7509 7.49947L10.7488 4.55876Z" fill="#323544"/>
<path d="M20.2986 12.3389C19.6152 11.6555 18.5072 11.6555 17.8237 12.3389L12.6655 17.4971C12.3027 17.86 12.0748 18.3359 12.0196 18.8461L11.8305 20.593C11.8061 20.8188 11.8853 21.0434 12.0458 21.204C12.2064 21.3646 12.4311 21.4437 12.6569 21.4193L14.4038 21.2303C14.9139 21.1751 15.3899 20.9472 15.7527 20.5843L20.911 15.4261C21.5944 14.7427 21.5944 13.6347 20.911 12.9512L20.2986 12.3389ZM18.0218 14.2622L18.9877 15.2281L14.6921 19.5237C14.5711 19.6446 14.4125 19.7206 14.2424 19.739L13.4221 19.8278L13.5108 19.0074C13.5292 18.8374 13.6052 18.6787 13.7262 18.5578L18.0218 14.2622Z" fill="#323544"/>
</svg>
