<svg width="24" height="24" viewBox="0 0 24 24" fill="none" xmlns="http://www.w3.org/2000/svg">
<path d="M2 9V6C2 4.75736 3.00736 3.75 4.25 3.75H8.5C9.2082 3.75 9.87488 4.08383 10.2998 4.65039L11.6504 6.4502L11.707 6.51758C11.8477 6.66514 12.0436 6.75 12.25 6.75H19.75C20.9926 6.75 22 7.75736 22 9C22 9.41421 21.6642 9.75 21.25 9.75C20.8618 9.75 20.5425 9.45512 20.5039 9.07715L20.4961 8.92285C20.4575 8.54488 20.1382 8.25 19.75 8.25H12.25C11.5859 8.25 10.9582 7.95679 10.5322 7.45312L10.4502 7.34961L9.09961 5.5498C8.95796 5.36114 8.73594 5.25 8.5 5.25H4.25C3.83579 5.25 3.5 5.58579 3.5 6V9C3.5 9.41421 3.16421 9.75 2.75 9.75C2.33579 9.75 2 9.41421 2 9Z" fill="#323544"/>
<path opacity="0.4" d="M22 9V18C22 19.2426 20.9926 20.25 19.75 20.25H4.25C3.00736 20.25 2 19.2426 2 18V9C2 9.41421 2.33579 9.75 2.75 9.75C3.16421 9.75 3.5 9.41421 3.5 9V18C3.5 18.4142 3.83579 18.75 4.25 18.75H19.75C20.1642 18.75 20.5 18.4142 20.5 18V9L20.5039 9.07715C20.5425 9.45512 20.8618 9.75 21.25 9.75C21.6642 9.75 22 9.41421 22 9Z" fill="#323544"/>
</svg>
