<svg width="25" height="25" viewBox="0 0 25 25" fill="none" xmlns="http://www.w3.org/2000/svg">
<path d="M5.88705 18.036C5.88705 17.2766 6.50266 16.661 7.26205 16.661C8.02144 16.661 8.63715 17.2766 8.63715 18.036C8.63715 18.7954 8.02154 19.411 7.26215 19.411C6.50276 19.411 5.88705 18.7954 5.88705 18.036Z" fill="#323544"/>
<path d="M5.57645 6.25037C5.57645 5.62905 6.08013 5.12537 6.70145 5.12537C14.141 5.12537 20.1719 11.1563 20.1719 18.5958C20.1719 19.2171 19.6682 19.7208 19.0469 19.7208C18.4256 19.7208 17.9219 19.2171 17.9219 18.5958C17.9219 12.3989 12.8983 7.37537 6.70145 7.37537C6.08013 7.37537 5.57645 6.87169 5.57645 6.25037ZM5.42188 9.96514C5.42188 9.34382 5.92555 8.84014 6.54688 8.84014C12.0196 8.84014 16.4561 13.2767 16.4561 18.7494C16.4561 19.3707 15.9524 19.8744 15.3311 19.8744C14.7098 19.8744 14.2061 19.3707 14.2061 18.7494C14.2061 14.5193 10.777 11.0901 6.54688 11.0901C5.92555 11.0901 5.42188 10.5865 5.42188 9.96514ZM5.55778 13.6208C5.59069 13.0004 6.12034 12.5241 6.74079 12.557C9.97606 12.7286 12.5675 15.32 12.7391 18.5553C12.772 19.1758 12.2957 19.7054 11.6753 19.7383C11.0548 19.7712 10.5252 19.2949 10.4923 18.6745C10.3816 16.5881 8.708 14.9145 6.62162 14.8038C6.00118 14.7709 5.52488 14.2413 5.55778 13.6208Z" fill="#323544"/>
</svg>
