<svg width="25" height="25" viewBox="0 0 25 25" fill="none" xmlns="http://www.w3.org/2000/svg">
<path d="M5.24682 5.84563C5.63501 5.3605 5.55643 4.65254 5.07131 4.26435C4.58618 3.87615 3.87822 3.95473 3.49003 4.43986C1.56582 6.84453 1.56582 10.661 3.49003 13.0657C3.87822 13.5508 4.58619 13.6294 5.07131 13.2412C5.55643 12.853 5.63501 12.145 5.24682 11.6599C3.98023 10.077 3.98023 7.42848 5.24682 5.84563Z" fill="#323544"/>
<path d="M20.6037 4.43986C20.2155 3.95473 19.5076 3.87615 19.0224 4.26435C18.5373 4.65254 18.4587 5.3605 18.8469 5.84563C20.1135 7.42848 20.1135 10.077 18.8469 11.6599C18.4587 12.145 18.5373 12.853 19.0224 13.2412C19.5076 13.6294 20.2155 13.5508 20.6037 13.0657C22.5279 10.661 22.5279 6.84452 20.6037 4.43986Z" fill="#323544"/>
<path d="M8.52576 7.83068C8.9651 7.39134 8.9651 6.67903 8.52576 6.23969C8.08642 5.80035 7.37411 5.80035 6.93477 6.23969C5.54682 7.62764 5.54682 9.87796 6.93477 11.2659C7.37411 11.7053 8.08642 11.7053 8.52576 11.2659C8.9651 10.8266 8.9651 10.1143 8.52576 9.67492C8.01649 9.16565 8.01649 8.33995 8.52576 7.83068Z" fill="#323544"/>
<path d="M17.1583 6.23969C16.7189 5.80035 16.0066 5.80035 15.5673 6.23969C15.1279 6.67903 15.1279 7.39134 15.5673 7.83068C16.0765 8.33995 16.0765 9.16565 15.5673 9.67492C15.1279 10.1143 15.1279 10.8266 15.5673 11.2659C16.0066 11.7053 16.7189 11.7053 17.1583 11.2659C18.5462 9.87796 18.5462 7.62764 17.1583 6.23969Z" fill="#323544"/>
<path d="M12.0461 6.66508C10.8922 6.66508 9.96019 7.60168 9.96019 8.75276C9.96019 9.49054 10.3431 10.1398 10.9215 10.5112V20.5455C10.9215 21.1668 11.4252 21.6705 12.0465 21.6705C12.6678 21.6705 13.1715 21.1668 13.1715 20.5455V10.5112C13.7499 10.1398 14.1328 9.49054 14.1328 8.75276C14.1328 7.60051 13.1989 6.66508 12.0461 6.66508Z" fill="#323544"/>
</svg>
