<svg width="24" height="24" viewBox="0 0 24 24" fill="none" xmlns="http://www.w3.org/2000/svg">
<path d="M6.28033 10.5947C5.98744 10.3018 5.51256 10.3018 5.21967 10.5947C4.92678 10.8876 4.92678 11.3624 5.21967 11.6553L11.4697 17.9053C11.7626 18.1982 12.2374 18.1982 12.5303 17.9053L18.7803 11.6553C19.0732 11.3624 19.0732 10.8876 18.7803 10.5947C18.4874 10.3018 18.0126 10.3018 17.7197 10.5947L12 16.3143L6.28033 10.5947Z" fill="#323544"/>
<path opacity="0.4" d="M6.28033 6.09467C5.98744 5.80178 5.51256 5.80178 5.21967 6.09467C4.92678 6.38756 4.92678 6.86244 5.21967 7.15533L11.4697 13.4053C11.7626 13.6982 12.2374 13.6982 12.5303 13.4053L18.7803 7.15533C19.0732 6.86244 19.0732 6.38756 18.7803 6.09467C18.4874 5.80178 18.0126 5.80178 17.7197 6.09467L12 11.8143L6.28033 6.09467Z" fill="#323544"/>
</svg>
