<svg width="24" height="24" viewBox="0 0 24 24" fill="none" xmlns="http://www.w3.org/2000/svg">
<path d="M10.5947 17.7197C10.3018 18.0126 10.3018 18.4874 10.5947 18.7803C10.8876 19.0732 11.3624 19.0732 11.6553 18.7803L17.9053 12.5303C18.1982 12.2374 18.1982 11.7626 17.9053 11.4697L11.6553 5.21967C11.3624 4.92678 10.8876 4.92678 10.5947 5.21967C10.3018 5.51256 10.3018 5.98744 10.5947 6.28033L16.3143 12L10.5947 17.7197Z" fill="#323544"/>
<path opacity="0.4" d="M6.09467 17.7197C5.80178 18.0126 5.80178 18.4874 6.09467 18.7803C6.38756 19.0732 6.86244 19.0732 7.15533 18.7803L13.4053 12.5303C13.6982 12.2374 13.6982 11.7626 13.4053 11.4697L7.15533 5.21967C6.86244 4.92678 6.38756 4.92678 6.09467 5.21967C5.80178 5.51256 5.80178 5.98744 6.09467 6.28033L11.8143 12L6.09467 17.7197Z" fill="#323544"/>
</svg>
