<svg width="24" height="24" viewBox="0 0 24 24" fill="none" xmlns="http://www.w3.org/2000/svg">
<path d="M17.7197 13.4053C18.0126 13.6982 18.4874 13.6982 18.7803 13.4053C19.0732 13.1124 19.0732 12.6376 18.7803 12.3447L12.5303 6.09467C12.2374 5.80178 11.7626 5.80178 11.4697 6.09467L5.21967 12.3447C4.92678 12.6376 4.92678 13.1124 5.21967 13.4053C5.51256 13.6982 5.98744 13.6982 6.28033 13.4053L12 7.68566L17.7197 13.4053Z" fill="#323544"/>
<path opacity="0.4" d="M17.7197 17.9053C18.0126 18.1982 18.4874 18.1982 18.7803 17.9053C19.0732 17.6124 19.0732 17.1376 18.7803 16.8447L12.5303 10.5947C12.2374 10.3018 11.7626 10.3018 11.4697 10.5947L5.21967 16.8447C4.92678 17.1376 4.92678 17.6124 5.21967 17.9053C5.51256 18.1982 5.98744 18.1982 6.28033 17.9053L12 12.1857L17.7197 17.9053Z" fill="#323544"/>
</svg>
