<svg width="24" height="24" viewBox="0 0 24 24" fill="none" xmlns="http://www.w3.org/2000/svg">
<path d="M13.4053 6.28033C13.6982 5.98744 13.6982 5.51256 13.4053 5.21967C13.1124 4.92678 12.6376 4.92678 12.3447 5.21967L6.09467 11.4697C5.80178 11.7626 5.80178 12.2374 6.09467 12.5303L12.3447 18.7803C12.6376 19.0732 13.1124 19.0732 13.4053 18.7803C13.6982 18.4874 13.6982 18.0126 13.4053 17.7197L7.68566 12L13.4053 6.28033Z" fill="#323544"/>
<path opacity="0.4" d="M17.9053 6.28033C18.1982 5.98744 18.1982 5.51256 17.9053 5.21967C17.6124 4.92678 17.1376 4.92678 16.8447 5.21967L10.5947 11.4697C10.3018 11.7626 10.3018 12.2374 10.5947 12.5303L16.8447 18.7803C17.1376 19.0732 17.6124 19.0732 17.9053 18.7803C18.1982 18.4874 18.1982 18.0126 17.9053 17.7197L12.1857 12L17.9053 6.28033Z" fill="#323544"/>
</svg>
