<svg width="24" height="24" viewBox="0 0 24 24" fill="none" xmlns="http://www.w3.org/2000/svg">
<path opacity="0.4" d="M2 11.9991C2 6.47668 6.47729 2 11.9996 2C17.5218 2 21.9991 6.47668 21.9991 11.9991C21.9991 17.5214 17.5218 21.9981 11.9996 21.9981C6.47729 21.9981 2 17.5214 2 11.9991ZM11.9996 3.5C7.30561 3.5 3.5 7.30521 3.5 11.9991C3.5 16.6929 7.30561 20.4981 11.9996 20.4981C16.6935 20.4981 20.4991 16.6929 20.4991 11.9991C20.4991 7.30521 16.6935 3.5 11.9996 3.5Z" fill="#323544"/>
<path d="M10.3698 11.2512L11.7417 9.87834C12.0345 9.58535 12.0344 9.11048 11.7414 8.81768C11.4484 8.52488 10.9736 8.52503 10.6808 8.81801L8.0426 11.4578C7.89905 11.5945 7.80957 11.7874 7.80957 12.0012C7.80957 12.2277 7.90996 12.4307 8.06867 12.5682L10.6807 15.1821C10.9735 15.4751 11.4484 15.4753 11.7414 15.1825C12.0344 14.8897 12.0346 14.4148 11.7418 14.1219L10.3721 12.7512L15.4402 12.7512C15.8544 12.7512 16.1902 12.4154 16.1902 12.0012C16.1902 11.587 15.8544 11.2512 15.4402 11.2512L10.3698 11.2512Z" fill="#323544"/>
</svg>
