<svg width="25" height="24" viewBox="0 0 25 24" fill="none" xmlns="http://www.w3.org/2000/svg">
<path opacity="0.4" d="M11.5791 21.2488V15.1238C11.5791 14.7096 11.9149 14.3738 12.3291 14.3738C12.7432 14.374 13.0791 14.7097 13.0791 15.1238V21.2488C13.0789 21.6628 12.7431 21.9986 12.3291 21.9988C11.915 21.9988 11.5793 21.6629 11.5791 21.2488ZM9.20312 11.2508L9.2793 11.2547C9.65756 11.293 9.95312 11.6124 9.95312 12.0008C9.95297 12.389 9.65749 12.7086 9.2793 12.7469L9.20312 12.7508H3.07812C2.66401 12.7508 2.32829 12.4148 2.32812 12.0008C2.32812 11.5865 2.66391 11.2508 3.07812 11.2508H9.20312ZM21.5771 11.2508L21.6533 11.2547C22.0316 11.293 22.3271 11.6124 22.3271 12.0008C22.327 12.389 22.0315 12.7085 21.6533 12.7469L21.5771 12.7508H15.4521C15.038 12.7508 14.7023 12.4148 14.7021 12.0008C14.7021 11.5865 15.0379 11.2508 15.4521 11.2508H21.5771ZM11.5791 8.87479V2.74979C11.5791 2.33557 11.9149 1.99979 12.3291 1.99979C12.7432 1.99995 13.0791 2.33567 13.0791 2.74979V8.87479C13.0789 9.28874 12.7431 9.62462 12.3291 9.62479C11.915 9.62479 11.5793 9.28885 11.5791 8.87479Z" fill="#323544"/>
<path d="M9.48643 18.4065C9.76104 18.1322 10.1949 18.1155 10.4894 18.3557L10.547 18.4065L12.3282 20.1877L14.1105 18.4065C14.4032 18.1138 14.8781 18.114 15.171 18.4065C15.4639 18.6994 15.4639 19.1751 15.171 19.468L12.8595 21.7795C12.7189 21.9201 12.528 21.9991 12.3292 21.9992C12.1303 21.9992 11.9386 21.9202 11.798 21.7795L9.48643 19.467L9.43468 19.4104C9.19438 19.1158 9.21184 18.6811 9.48643 18.4065ZM4.86143 9.15744C5.15434 8.86471 5.62914 8.8646 5.92198 9.15744C6.21466 9.45029 6.21466 9.92513 5.92198 10.218L4.13975 11.9992L5.92198 13.7815L5.97374 13.8391C6.21377 14.1337 6.19649 14.5685 5.92198 14.843C5.64731 15.1175 5.2126 15.1342 4.91807 14.8938L4.86143 14.843L2.54893 12.5305C2.2561 12.2376 2.2562 11.7628 2.54893 11.4699L4.86143 9.15744ZM19.796 14.843C19.5031 15.1359 19.0274 15.1359 18.7345 14.843C18.442 14.5501 18.4419 14.0752 18.7345 13.7824L19.796 14.843ZM18.7345 9.15841C19.0091 8.88381 19.4438 8.86636 19.7384 9.10666L19.795 9.15841L22.1075 11.4699C22.2482 11.6106 22.3273 11.8023 22.3273 12.0012C22.3271 12.1999 22.2481 12.3909 22.1075 12.5315L19.796 14.843L18.7345 13.7824L20.5157 12.0002L18.7345 10.219L18.6837 10.1613C18.4435 9.86688 18.4602 9.43302 18.7345 9.15841ZM11.8546 2.16916C12.1492 1.92902 12.584 1.94637 12.8585 2.22091L15.171 4.53341L15.2218 4.59006C15.4622 4.88458 15.4455 5.31929 15.171 5.59396C14.8965 5.86847 14.4617 5.88575 14.1671 5.64572L14.1095 5.59396L12.3273 3.81174L10.546 5.59396C10.2532 5.88664 9.77831 5.88664 9.48546 5.59396C9.19262 5.30112 9.19273 4.82632 9.48546 4.53341L11.798 2.22091L11.8546 2.16916Z" fill="#323544"/>
</svg>
