<svg width="24" height="24" viewBox="0 0 24 24" fill="none" xmlns="http://www.w3.org/2000/svg">
<path opacity="0.4" d="M12 2.00195C12.3882 2.00195 12.7075 2.29684 12.7461 2.6748L12.75 2.75195V21.252L12.7461 21.3291C12.7075 21.7071 12.3882 22.002 12 22.002C11.6118 22.002 11.2925 21.7071 11.2539 21.3291L11.25 21.252V2.75195C11.25 2.33774 11.5858 2.00196 12 2.00195Z" fill="#323544"/>
<path d="M12.4728 21.8315C12.1782 22.0714 11.7443 22.0541 11.4698 21.7798L7.46984 17.7827L7.41808 17.7261C7.1777 17.4316 7.19533 16.9969 7.46984 16.7222C7.74445 16.4474 8.17909 16.4299 8.47374 16.6704L8.53038 16.7222L12.0001 20.1899L15.4698 16.7212C15.7628 16.4286 16.2376 16.4293 16.5304 16.7222C16.8232 17.0151 16.8233 17.4899 16.5304 17.7827L12.5304 21.7798L12.4728 21.8315Z" fill="#323544"/>
<path d="M11.5275 2.17237C11.822 1.93254 12.2559 1.94984 12.5304 2.22413L16.5304 6.2212L16.5821 6.27784C16.8225 6.57234 16.8049 7.00706 16.5304 7.28174C16.2558 7.55649 15.8211 7.57397 15.5265 7.3335L15.4698 7.28174L12.0001 3.81397L8.53038 7.28272C8.23739 7.57532 7.76257 7.57462 7.46984 7.28174C7.17706 6.98876 7.1769 6.51399 7.46984 6.22119L11.4698 2.22412L11.5275 2.17237Z" fill="#323544"/>
</svg>
