<svg width="24" height="24" viewBox="0 0 24 24" fill="none" xmlns="http://www.w3.org/2000/svg">
<path opacity="0.4" d="M22 12.0018C22 12.39 21.7051 12.7093 21.3271 12.7479L21.25 12.7518L2.75 12.7518L2.67285 12.7479C2.29488 12.7093 2 12.39 2 12.0018C2 11.6137 2.29488 11.2944 2.67285 11.2557L2.75 11.2518L21.25 11.2518C21.6642 11.2518 22 11.5876 22 12.0018Z" fill="#323544"/>
<path d="M2.17071 12.4746C1.93089 12.1801 1.94819 11.7461 2.22247 11.4717L6.21954 7.47168L6.27618 7.41993C6.57069 7.17955 7.00541 7.19718 7.28009 7.47168C7.55484 7.7463 7.57232 8.18094 7.33185 8.47559L7.28009 8.53223L3.81231 12.002L7.28106 15.4717C7.57366 15.7647 7.57297 16.2395 7.28009 16.5322C6.98711 16.825 6.51233 16.8252 6.21954 16.5322L2.22247 12.5322L2.17071 12.4746Z" fill="#323544"/>
<path d="M21.8299 11.5293C22.0697 11.8238 22.0524 12.2578 21.7781 12.5322L17.7811 16.5322L17.7244 16.584C17.4299 16.8244 16.9952 16.8067 16.7205 16.5322C16.4458 16.2576 16.4283 15.823 16.6688 15.5283L16.7205 15.4717L20.1883 12.002L16.7195 8.53223C16.4269 8.23924 16.4276 7.76442 16.7205 7.47168C17.0135 7.17891 17.4883 7.17874 17.7811 7.47168L21.7781 11.4717L21.8299 11.5293Z" fill="#323544"/>
</svg>
