<svg width="24" height="24" viewBox="0 0 24 24" fill="none" xmlns="http://www.w3.org/2000/svg">
<path opacity="0.4" d="M5.4718 5.47445C5.7464 5.19985 6.18112 5.18238 6.4757 5.42269L6.53234 5.47445L18.5284 17.4705L18.5802 17.5272C18.8205 17.8218 18.803 18.2565 18.5284 18.5311C18.2538 18.8057 17.8191 18.8232 17.5245 18.5829L17.4679 18.5311L5.4718 6.535L5.42004 6.47836C5.17973 6.18378 5.19719 5.74906 5.4718 5.47445Z" fill="#323544"/>
<path d="M6.75146 14.9946C6.75108 15.4085 6.41541 15.7436 6.00146 15.7436C5.58725 15.7435 5.25133 15.4078 5.25146 14.9936L6.75146 14.9946ZM15.0757 5.25336C15.4541 5.29143 15.7494 5.61098 15.7495 5.99945C15.7495 6.38765 15.4547 6.70701 15.0767 6.74554L14.9995 6.74945L6.75342 6.7514L6.75146 14.9946L6.00146 14.9936H5.25146L5.25439 6.00238L5.2583 5.92523C5.29702 5.54746 5.61642 5.25252 6.00439 5.25238L14.9995 5.24945L15.0757 5.25336Z" fill="#323544"/>
</svg>
