<svg width="24" height="24" viewBox="0 0 24 24" fill="none" xmlns="http://www.w3.org/2000/svg">
<path opacity="0.4" d="M3.99976 12.7465L20.0007 12.7465C20.4149 12.7465 20.7507 12.4107 20.7507 11.9965C20.7507 11.5823 20.4149 11.2465 20.0007 11.2465L3.99976 11.2465C3.58554 11.2465 3.24976 11.5823 3.24976 11.9965C3.24976 12.4107 3.58554 12.7465 3.99976 12.7465Z" fill="#323544"/>
<path d="M20.5827 12.4726C20.8225 12.1781 20.8052 11.7442 20.5309 11.4697L14.5348 5.46969L14.4782 5.41793C14.1837 5.17774 13.7489 5.19525 13.4743 5.46969C13.1998 5.74426 13.1823 6.17901 13.4225 6.47359L13.4743 6.53023L18.9411 12L13.4743 17.4697C13.1816 17.7626 13.1815 18.2374 13.4743 18.5302C13.7672 18.8229 14.242 18.823 14.5348 18.5302L20.5309 12.5302L20.5827 12.4726Z" fill="#323544"/>
</svg>
