<svg width="24" height="24" viewBox="0 0 24 24" fill="none" xmlns="http://www.w3.org/2000/svg">
<path opacity="0.4" d="M12.7466 20.0002L12.7466 3.99927C12.7466 3.58505 12.4108 3.24927 11.9966 3.24927C11.5824 3.24927 11.2466 3.58505 11.2466 3.99927L11.2466 20.0002C11.2466 20.4145 11.5824 20.7502 11.9966 20.7502C12.4108 20.7502 12.7466 20.4145 12.7466 20.0002Z" fill="#323544"/>
<path d="M12.4726 3.41725C12.1781 3.17739 11.7441 3.19471 11.4697 3.46901L5.46966 9.4651L5.4179 9.52174C5.17771 9.81624 5.19522 10.251 5.46966 10.5256C5.74423 10.8002 6.17898 10.8177 6.47356 10.5774L6.5302 10.5256L11.9999 5.05885L17.4697 10.5256C17.7626 10.8184 18.2374 10.8184 18.5302 10.5256C18.8229 10.2327 18.823 9.75791 18.5302 9.4651L12.5302 3.46901L12.4726 3.41725Z" fill="#323544"/>
</svg>
