<svg width="24" height="24" viewBox="0 0 24 24" fill="none" xmlns="http://www.w3.org/2000/svg">
<path opacity="0.4" d="M11.2534 20.0002V3.99927C11.2534 3.58505 11.5892 3.24927 12.0034 3.24927C12.4176 3.24927 12.7534 3.58505 12.7534 3.99927V20.0002C12.7534 20.4145 12.4176 20.7502 12.0034 20.7502C11.5892 20.7502 11.2534 20.4145 11.2534 20.0002Z" fill="#323544"/>
<path d="M17.4698 13.4744C17.7627 13.1816 18.2375 13.1815 18.5303 13.4744C18.8231 13.7673 18.8231 14.2421 18.5303 14.5349L12.5303 20.531C12.2375 20.8237 11.7626 20.8237 11.4698 20.531L5.46976 14.5349L5.418 14.4783C5.17776 14.1838 5.19532 13.749 5.46976 13.4744C5.74434 13.1998 6.17906 13.1823 6.47367 13.4226L6.53031 13.4744L12 18.9402L17.4698 13.4744Z" fill="#323544"/>
</svg>
