<svg width="24" height="24" viewBox="0 0 24 24" fill="none" xmlns="http://www.w3.org/2000/svg">
<path opacity="0.4" d="M20.0002 11.2534L20.0774 11.2573C20.4555 11.2957 20.7502 11.6151 20.7502 12.0034C20.7502 12.3917 20.4555 12.711 20.0774 12.7495L20.0002 12.7534H3.99927C3.58505 12.7534 3.24927 12.4176 3.24927 12.0034C3.24927 11.5891 3.58505 11.2534 3.99927 11.2534H20.0002Z" fill="#323544"/>
<path d="M9.4651 5.46967C9.75791 5.17691 10.2327 5.17696 10.5256 5.46967C10.8184 5.76248 10.8184 6.2373 10.5256 6.53022L5.05885 11.9999L10.5256 17.4697L10.5774 17.5263C10.8177 17.8209 10.8002 18.2556 10.5256 18.5302C10.251 18.8047 9.81624 18.8222 9.52174 18.582L9.4651 18.5302L3.469 12.5302C3.17634 12.2374 3.17635 11.7625 3.469 11.4697L9.4651 5.46967Z" fill="#323544"/>
</svg>
