<svg width="24" height="25" viewBox="0 0 24 25" fill="none" xmlns="http://www.w3.org/2000/svg">
<path opacity="0.4" d="M12 2.5C6.47715 2.5 2 6.97715 2 12.5C2 18.0228 6.47715 22.5 12 22.5C17.5228 22.5 22 18.0228 22 12.5C22 6.97715 17.5228 2.5 12 2.5ZM3.5 12.5C3.5 7.80558 7.30558 4 12 4C16.6944 4 20.5 7.80558 20.5 12.5C20.5 17.1944 16.6944 21 12 21C7.30558 21 3.5 17.1944 3.5 12.5Z" fill="#323544"/>
<path d="M14.7197 14.2803C15.0126 14.5732 15.4874 14.5732 15.7803 14.2803C16.0732 13.9874 16.0732 13.5126 15.7803 13.2197L12.5303 9.96967C12.2374 9.67678 11.7626 9.67678 11.4697 9.96967L8.21967 13.2197C7.92678 13.5126 7.92678 13.9874 8.21967 14.2803C8.51256 14.5732 8.98744 14.5732 9.28033 14.2803L12 11.5607L14.7197 14.2803Z" fill="#323544"/>
</svg>
