<svg width="24" height="25" viewBox="0 0 24 25" fill="none" xmlns="http://www.w3.org/2000/svg">
<path opacity="0.4" d="M12 2.5C6.47715 2.5 2 6.97715 2 12.5C2 18.0228 6.47715 22.5 12 22.5C17.5228 22.5 22 18.0228 22 12.5C22 6.97715 17.5228 2.5 12 2.5ZM3.5 12.5C3.5 7.80558 7.30558 4 12 4C16.6944 4 20.5 7.80558 20.5 12.5C20.5 17.1944 16.6944 21 12 21C7.30558 21 3.5 17.1944 3.5 12.5Z" fill="#323544"/>
<path d="M13.7803 9.78033C14.0732 9.48744 14.0732 9.01256 13.7803 8.71967C13.4874 8.42678 13.0126 8.42678 12.7197 8.71967L9.46967 11.9697C9.17678 12.2626 9.17678 12.7374 9.46967 13.0303L12.7197 16.2803C13.0126 16.5732 13.4874 16.5732 13.7803 16.2803C14.0732 15.9874 14.0732 15.5126 13.7803 15.2197L11.0607 12.5L13.7803 9.78033Z" fill="#323544"/>
</svg>
