<svg width="24" height="24" viewBox="0 0 24 24" fill="none" xmlns="http://www.w3.org/2000/svg">
<path d="M4.75671 19.563C4.59938 19.4255 4.5 19.2233 4.5 18.998C4.5 18.7726 4.59944 18.5704 4.75685 18.4329L7.72194 15.4659C8.01474 15.1729 8.48962 15.1728 8.7826 15.4656C9.07559 15.7584 9.07574 16.2333 8.78294 16.5263L7.0623 18.248L18.75 18.248C19.1642 18.248 19.5 18.5838 19.5 18.998C19.5 19.4122 19.1642 19.748 18.75 19.748L7.0622 19.748L8.78296 21.47C9.07575 21.763 9.07558 22.2378 8.78259 22.5306C8.48959 22.8234 8.01472 22.8232 7.72193 22.5302L4.75671 19.563Z" fill="#323544"/>
<path opacity="0.4" d="M13.5 12.9961V3.5H10.5V12.9961C10.5 13.4103 10.1642 13.7461 9.75 13.7461C9.33579 13.7461 9 13.4103 9 12.9961V8.75H7.875C6.01104 8.75 4.5 7.23896 4.5 5.375C4.5 3.51104 6.01104 2 7.875 2H18.75C19.1642 2 19.5 2.33579 19.5 2.75C19.5 3.16421 19.1642 3.5 18.75 3.5H15V12.9961C15 13.4103 14.6642 13.7461 14.25 13.7461C13.8358 13.7461 13.5 13.4103 13.5 12.9961ZM9 7.25V3.5H7.875C6.83947 3.5 6 4.33947 6 5.375C6 6.41053 6.83947 7.25 7.875 7.25H9Z" fill="#323544"/>
</svg>
