<svg width="24" height="24" viewBox="0 0 24 24" fill="none" xmlns="http://www.w3.org/2000/svg">
<path d="M19.2433 19.563C19.4006 19.4255 19.5 19.2233 19.5 18.998C19.5 18.7726 19.4006 18.5704 19.2431 18.4329L16.2781 15.4659C15.9853 15.1729 15.5104 15.1728 15.2174 15.4656C14.9244 15.7584 14.9243 16.2333 15.2171 16.5263L16.9377 18.248L5.25 18.248C4.83579 18.248 4.5 18.5838 4.5 18.998C4.5 19.4122 4.83579 19.748 5.25 19.748L16.9378 19.748L15.217 21.47C14.9243 21.763 14.9244 22.2378 15.2174 22.5306C15.5104 22.8234 15.9853 22.8232 16.2781 22.5302L19.2433 19.563Z" fill="#323544"/>
<path opacity="0.4" d="M13.5 12.9961V3.5H10.5V12.9961C10.5 13.4103 10.1642 13.7461 9.75 13.7461C9.33579 13.7461 9 13.4103 9 12.9961V8.75H7.875C6.01104 8.75 4.5 7.23896 4.5 5.375C4.5 3.51104 6.01104 2 7.875 2H18.75C19.1642 2 19.5 2.33579 19.5 2.75C19.5 3.16421 19.1642 3.5 18.75 3.5H15V12.9961C15 13.4103 14.6642 13.7461 14.25 13.7461C13.8358 13.7461 13.5 13.4103 13.5 12.9961ZM9 7.25V3.5H7.875C6.83947 3.5 6 4.33947 6 5.375C6 6.41053 6.83947 7.25 7.875 7.25H9Z" fill="#323544"/>
</svg>
