<svg width="25" height="24" viewBox="0 0 25 24" fill="none" xmlns="http://www.w3.org/2000/svg">
<path opacity="0.4" d="M5.17188 16C5.17188 15.5858 4.83609 15.25 4.42188 15.25C4.00766 15.25 3.67188 15.5858 3.67188 16V18.5C3.67188 19.7426 4.67923 20.75 5.92188 20.75H18.9227C20.1654 20.75 21.1727 19.7426 21.1727 18.5V16C21.1727 15.5858 20.837 15.25 20.4227 15.25C20.0085 15.25 19.6727 15.5858 19.6727 16V18.5C19.6727 18.9142 19.337 19.25 18.9227 19.25H5.92188C5.50766 19.25 5.17188 18.9142 5.17188 18.5V16Z" fill="#323544"/>
<path d="M12.4238 16.75C12.2078 16.75 12.0132 16.6587 11.8763 16.5126L7.26671 11.9059C6.97373 11.6131 6.97358 11.1382 7.26638 10.8452C7.55918 10.5523 8.03405 10.5521 8.32704 10.8449L11.6738 14.1896L11.6738 4C11.6738 3.58579 12.0096 3.25 12.4238 3.25C12.838 3.25 13.1738 3.58579 13.1738 4L13.1738 14.1854L16.5167 10.8449C16.8097 10.5521 17.2846 10.5523 17.5774 10.8453C17.8702 11.1383 17.87 11.6131 17.577 11.9059L13.0021 16.4776C12.8645 16.644 12.6566 16.75 12.4238 16.75Z" fill="#323544"/>
</svg>
