<svg width="24" height="24" viewBox="0 0 24 24" fill="none" xmlns="http://www.w3.org/2000/svg">
<path opacity="0.4" d="M11.25 2C10.0074 2 9 3.00736 9 4.25V6.1285C9.12064 6.20925 9.2352 6.30292 9.34172 6.40952L10.5 7.56853V4.25C10.5 3.83579 10.8358 3.5 11.25 3.5H17.25C17.6642 3.5 18 3.83579 18 4.25V19.75C18 20.1642 17.6642 20.5 17.25 20.5H11.25C10.8358 20.5 10.5 20.1642 10.5 19.75V16.4314L9.34178 17.5904C9.23524 17.697 9.12066 17.7907 9 17.8715V19.75C9 20.9926 10.0074 22 11.25 22H17.25C18.4926 22 19.5 20.9926 19.5 19.75V4.25C19.5 3.00736 18.4926 2 17.25 2H11.25Z" fill="#323544"/>
<path d="M7.21971 15.4699L9.93766 12.75L4 12.75C3.58579 12.75 3.25 12.4142 3.25 12C3.25 11.5858 3.58579 11.25 4 11.25L9.93784 11.25L7.21973 8.53016C6.92693 8.23718 6.92708 7.7623 7.22007 7.4695C7.51305 7.1767 7.98793 7.17685 8.28073 7.46984L12.2442 11.4359C12.401 11.5733 12.5 11.7751 12.5 12C12.5 12.2259 12.4002 12.4284 12.2422 12.5659L8.28075 16.5301C7.98796 16.8231 7.51308 16.8233 7.22009 16.5305C6.92709 16.2377 6.92692 15.7629 7.21971 15.4699Z" fill="#323544"/>
</svg>
