<svg width="24" height="24" viewBox="0 0 24 24" fill="none" xmlns="http://www.w3.org/2000/svg">
<path d="M11.75 12.75C11.9729 12.75 12.1731 12.6528 12.3104 12.4984L16.2802 8.53122C16.5731 8.23842 16.5733 7.76354 16.2805 7.47056C15.9877 7.17757 15.5128 7.17742 15.2198 7.47022L12.5 10.1883L12.5 4.25C12.5 3.83579 12.1642 3.5 11.75 3.5C11.3358 3.5 11 3.83579 11 4.25L11 10.1882L8.28014 7.4702C7.98715 7.17741 7.51227 7.17758 7.21948 7.47057C6.92669 7.76357 6.92686 8.23844 7.21986 8.53123L11.1876 12.4962C11.325 12.6518 11.526 12.75 11.75 12.75Z" fill="#323544"/>
<path opacity="0.4" d="M21.75 11.5C21.75 10.2574 20.7426 9.25 19.5 9.25H17.6218C17.541 9.37082 17.4472 9.48555 17.3405 9.59221L16.182 10.75L19.5 10.75C19.9142 10.75 20.25 11.0858 20.25 11.5V17.5C20.25 17.9142 19.9142 18.25 19.5 18.25L4 18.25C3.58579 18.25 3.25 17.9142 3.25 17.5L3.25 11.5C3.25 11.0858 3.58579 10.75 4 10.75L7.31811 10.75L6.15957 9.59227C6.05281 9.48558 5.95901 9.37084 5.87817 9.25L4 9.25C2.75736 9.25 1.75 10.2574 1.75 11.5V17.5C1.75 18.7426 2.75736 19.75 4 19.75H19.5C20.7426 19.75 21.75 18.7426 21.75 17.5V11.5Z" fill="#323544"/>
</svg>
