<svg width="24" height="24" viewBox="0 0 24 24" fill="none" xmlns="http://www.w3.org/2000/svg">
<path d="M3.25 12C3.25 12.2259 3.34984 12.4284 3.50779 12.5659L7.46925 16.5301C7.76204 16.8231 8.23692 16.8233 8.52991 16.5305C8.82291 16.2377 8.82308 15.7629 8.53029 15.4699L5.81234 12.75L11.75 12.75C12.1642 12.75 12.5 12.4142 12.5 12C12.5 11.5858 12.1642 11.25 11.75 11.25L5.81216 11.25L8.53027 8.53016C8.82307 8.23718 8.82292 7.7623 8.52993 7.4695C8.23695 7.1767 7.76207 7.17685 7.46927 7.46984L3.50576 11.4359C3.34898 11.5733 3.25 11.7751 3.25 12Z" fill="#323544"/>
<path opacity="0.4" d="M11.25 2C10.0074 2 9 3.00736 9 4.25V6.1285C9.12064 6.20925 9.2352 6.30292 9.34172 6.40952L10.5 7.56853V4.25C10.5 3.83579 10.8358 3.5 11.25 3.5H17.25C17.6642 3.5 18 3.83579 18 4.25V19.75C18 20.1642 17.6642 20.5 17.25 20.5H11.25C10.8358 20.5 10.5 20.1642 10.5 19.75V16.4314L9.34178 17.5904C9.23524 17.697 9.12066 17.7907 9 17.8715V19.75C9 20.9926 10.0074 22 11.25 22H17.25C18.4926 22 19.5 20.9926 19.5 19.75V4.25C19.5 3.00736 18.4926 2 17.25 2H11.25Z" fill="#323544"/>
</svg>
