<svg width="24" height="24" viewBox="0 0 24 24" fill="none" xmlns="http://www.w3.org/2000/svg">
<path d="M12 3.5C12.2229 3.5 12.4231 3.59723 12.5605 3.7516L16.5302 7.71878C16.8231 8.01158 16.8233 8.48646 16.5305 8.77944C16.2377 9.07243 15.7628 9.07258 15.4698 8.77978L12.75 6.06167L12.75 12C12.75 12.4142 12.4142 12.75 12 12.75C11.5858 12.75 11.25 12.4142 11.25 12L11.25 6.06185L8.53014 8.7798C8.23715 9.07259 7.76227 9.07242 7.46948 8.77943C7.17669 8.48643 7.17686 8.01156 7.46986 7.71877L11.4376 3.75385C11.575 3.59818 11.776 3.5 12 3.5Z" fill="#323544"/>
<path opacity="0.4" d="M22 11.5C22 10.2574 20.9926 9.25 19.75 9.25H17.8718C17.791 9.37082 17.6972 9.48555 17.5905 9.59221L16.432 10.75L19.75 10.75C20.1642 10.75 20.5 11.0858 20.5 11.5V17.5C20.5 17.9142 20.1642 18.25 19.75 18.25L4.25 18.25C3.83579 18.25 3.5 17.9142 3.5 17.5L3.5 11.5C3.5 11.0858 3.83579 10.75 4.25 10.75L7.56811 10.75L6.40957 9.59227C6.30281 9.48558 6.20901 9.37084 6.12817 9.25L4.25 9.25C3.00736 9.25 2 10.2574 2 11.5V17.5C2 18.7426 3.00736 19.75 4.25 19.75H19.75C20.9926 19.75 22 18.7426 22 17.5V11.5Z" fill="#323544"/>
</svg>
