<svg width="24" height="24" viewBox="0 0 24 24" fill="none" xmlns="http://www.w3.org/2000/svg">
<path d="M16.75 11.9989C16.75 12.2149 16.6587 12.4096 16.5126 12.5464L11.9059 17.156C11.6131 17.449 11.1382 17.4492 10.8452 17.1564C10.5523 16.8636 10.5521 16.3887 10.8449 16.0957L14.1896 12.7489H4C3.58579 12.7489 3.25 12.4131 3.25 11.9989C3.25 11.5847 3.58579 11.2489 4 11.2489H14.1854L10.8449 7.90601C10.5521 7.61302 10.5523 7.13814 10.8453 6.84535C11.1383 6.55256 11.6131 6.55273 11.9059 6.84573L16.4776 11.4207C16.644 11.5582 16.75 11.7662 16.75 11.9989Z" fill="#323544"/>
<path opacity="0.4" d="M19.25 20.0009C19.25 20.4151 19.5858 20.7509 20 20.7509C20.4142 20.7509 20.75 20.4151 20.75 20.0009V4C20.75 3.58579 20.4142 3.25 20 3.25C19.5858 3.25 19.25 3.58579 19.25 4V20.0009Z" fill="#323544"/>
</svg>
