<svg width="24" height="24" viewBox="0 0 24 24" fill="none" xmlns="http://www.w3.org/2000/svg">
<path d="M7.25 12.002C7.25 11.786 7.34131 11.5913 7.48744 11.4544L12.0941 6.84484C12.3869 6.55185 12.8618 6.5517 13.1548 6.8445C13.4477 7.1373 13.4479 7.61218 13.1551 7.90516L9.81043 11.252L20 11.252C20.4142 11.252 20.75 11.5877 20.75 12.002C20.75 12.4162 20.4142 12.752 20 12.752L9.81455 12.752L13.1551 16.0949C13.4479 16.3879 13.4477 16.8627 13.1547 17.1555C12.8617 17.4483 12.3869 17.4481 12.0941 17.1551L7.52235 12.5802C7.356 12.4426 7.25 12.2347 7.25 12.002Z" fill="#323544"/>
<path opacity="0.4" d="M4.75 4C4.75 3.58579 4.41421 3.25 4 3.25C3.58579 3.25 3.25 3.58579 3.25 4V20.0009C3.25 20.4151 3.58579 20.7509 4 20.7509C4.41421 20.7509 4.75 20.4151 4.75 20.0009L4.75 4Z" fill="#323544"/>
</svg>
