<svg width="25" height="24" viewBox="0 0 25 24" fill="none" xmlns="http://www.w3.org/2000/svg">
<path opacity="0.4" d="M2.42188 12C2.42188 6.4776 6.89916 2.00092 12.4214 2.00092C17.9437 2.00092 22.421 6.4776 22.421 12C22.421 17.5224 17.9437 21.999 12.4214 21.999C6.89916 21.999 2.42188 17.5224 2.42188 12ZM12.4214 3.50092C7.72748 3.50092 3.92188 7.30613 3.92188 12C3.92188 16.6938 7.72748 20.499 12.4214 20.499C17.1154 20.499 20.921 16.6938 20.921 12C20.921 7.30613 17.1154 3.50092 12.4214 3.50092Z" fill="#323544"/>
<path d="M11.673 10.3699L10.3002 11.7419C10.0072 12.0347 9.53232 12.0345 9.23952 11.7415C8.94672 11.4485 8.94687 10.9737 9.23986 10.6809L11.8797 8.04273C12.0163 7.89917 12.2092 7.80969 12.423 7.80969C12.6495 7.80969 12.8526 7.91008 12.9901 8.0688L15.604 10.6809C15.897 10.9736 15.8971 11.4485 15.6044 11.7415C15.3116 12.0345 14.8367 12.0347 14.5437 11.7419L13.173 10.3722V15.4403C13.173 15.8545 12.8373 16.1903 12.4231 16.1903C12.0088 16.1903 11.673 15.8545 11.673 15.4403V10.3699Z" fill="#323544"/>
</svg>
