<svg width="24" height="25" viewBox="0 0 24 25" fill="none" xmlns="http://www.w3.org/2000/svg">
<path opacity="0.4" d="M18.0878 13.395C18.3343 12.8246 18.997 12.5625 19.5673 12.809C20.1372 13.0557 20.3996 13.7174 20.1532 14.2875L17.2743 20.9467C17.0774 21.4019 16.6058 21.6743 16.1132 21.6176C15.6204 21.5607 15.2226 21.1878 15.1347 20.6996L13.9364 14.0405L13.9218 13.9262C13.878 13.3577 14.2713 12.837 14.8446 12.7338C15.4178 12.6307 15.9677 12.9817 16.1249 13.5297L16.1513 13.642L16.6884 16.6303L18.0878 13.395ZM10.0761 13.5707C10.2238 12.9736 10.8252 12.6054 11.4257 12.7465C12.0304 12.8887 12.4057 13.4943 12.2636 14.0991L11.58 17.0082C11.4727 17.4649 11.0931 17.8069 10.6278 17.8666C10.1627 17.9263 9.70935 17.6913 9.49012 17.2768L7.95204 14.3666L7.90419 14.2621C7.69018 13.7337 7.9068 13.1182 8.42176 12.8461C8.93656 12.5743 9.56671 12.742 9.8827 13.2162L9.94227 13.3159L10.0761 13.5707Z" fill="#323544"/>
<path d="M6.7793 8.63174C7.20004 8.62782 7.58757 8.85935 7.78418 9.23135L9.94238 13.3153C10.0021 13.4284 10.0398 13.5473 10.0586 13.6669C10.063 13.6393 10.0677 13.6115 10.0742 13.5839L12.2646 14.0985C12.1225 14.7032 11.5168 15.0783 10.9121 14.9364C10.4534 14.8286 10.1266 14.454 10.0576 14.0155C10.0042 14.3536 9.79952 14.6636 9.47363 14.8358C8.9243 15.126 8.24339 14.9154 7.95312 14.3661L6.8125 12.2069L5.73242 14.3476C5.54114 14.7265 5.15297 14.9656 4.72852 14.9657H1.84961C1.22829 14.9657 0.724609 14.462 0.724609 13.8407C0.724748 13.2195 1.22837 12.7157 1.84961 12.7157H4.03613L5.78613 9.2499L5.86523 9.11514C6.07139 8.81794 6.41125 8.63522 6.7793 8.63174ZM13.3936 3.3749C13.9267 3.38897 14.3772 3.7758 14.4717 4.30068L16.1523 13.6415L16.167 13.7558C16.2109 14.3243 15.8174 14.8449 15.2441 14.9481C14.6708 15.0513 14.121 14.7004 13.9639 14.1522L13.9375 14.0399L13.2178 10.0399L12.2646 14.0985L10.0742 13.5839L12.2686 4.24209L12.2959 4.14736C12.4499 3.67981 12.8938 3.36182 13.3936 3.3749ZM22 12.7157C22.6212 12.7157 23.1249 13.2195 23.125 13.8407C23.125 14.462 22.6213 14.9657 22 14.9657H19.1211C18.4999 14.9656 17.9961 14.4619 17.9961 13.8407C17.9962 13.2196 18.5 12.7159 19.1211 12.7157H22Z" fill="#323544"/>
</svg>
