<svg width="24" height="25" viewBox="0 0 24 25" fill="none" xmlns="http://www.w3.org/2000/svg">
<path opacity="0.4" d="M7.75 5.5C7.75 4.25736 8.75736 3.25 10 3.25H14C15.2426 3.25 16.25 4.25736 16.25 5.5V6.25H19.2502C20.4928 6.25 21.5002 7.25736 21.5002 8.5V17.5C21.5002 18.7426 20.4928 19.75 19.2502 19.75H4.75C3.50736 19.75 2.5 18.7426 2.5 17.5V8.5C2.5 7.25736 3.50736 6.25 4.75 6.25H7.75V5.5ZM10 4.75C9.58579 4.75 9.25 5.08579 9.25 5.5V6.25H14.75V5.5C14.75 5.08579 14.4142 4.75 14 4.75H10ZM12.7497 9.55941C12.7497 9.1452 12.4139 8.80941 11.9997 8.80941C11.5855 8.80941 11.2497 9.1452 11.2497 9.55941V12.2499H8.55922C8.14501 12.2499 7.80922 12.5857 7.80922 12.9999C7.80922 13.4141 8.14501 13.7499 8.55922 13.7499H11.2497V16.4409C11.2497 16.8551 11.5855 17.1909 11.9997 17.1909C12.4139 17.1909 12.7497 16.8551 12.7497 16.4409V13.7499H15.4407C15.8549 13.7499 16.1907 13.4141 16.1907 12.9999C16.1907 12.5857 15.8549 12.2499 15.4407 12.2499H12.7497V9.55941Z" fill="#323544"/>
<path d="M11.9991 8.80957C12.4133 8.80957 12.7491 9.14536 12.7491 9.55957V12.25H15.4401C15.8543 12.25 16.1901 12.5858 16.1901 13C16.1901 13.4143 15.8543 13.75 15.4401 13.75H12.7491V16.441C12.7491 16.8552 12.4133 17.191 11.9991 17.191C11.5849 17.191 11.2491 16.8552 11.2491 16.441V13.75H8.55859C8.14438 13.75 7.80859 13.4143 7.80859 13C7.80859 12.5858 8.14438 12.25 8.55859 12.25H11.2491V9.55957C11.2491 9.14536 11.5849 8.80957 11.9991 8.80957Z" fill="#323544"/>
</svg>
