<svg width="24" height="25" viewBox="0 0 24 25" fill="none" xmlns="http://www.w3.org/2000/svg">
<path opacity="0.4" d="M7.19447 4.625C7.16931 4.78798 7.15625 4.95497 7.15625 5.125C7.15625 6.91992 8.61132 8.375 10.4062 8.375H13.5937C15.3887 8.375 16.8438 6.91992 16.8437 5.12499C16.8437 4.95496 16.8307 4.78798 16.8055 4.625H17.25C18.4926 4.625 19.5 5.63236 19.5 6.875L19.5 20.625C19.5 21.8676 18.4926 22.875 17.25 22.875H6.75C5.50736 22.875 4.5 21.8676 4.5 20.625V6.875C4.5 5.63236 5.50736 4.625 6.75 4.625H7.19447Z" fill="#323544"/>
<path d="M10.4063 2.875C9.16361 2.875 8.15625 3.88236 8.15625 5.125C8.15625 6.36764 9.16361 7.375 10.4062 7.375H13.5937C14.8364 7.375 15.8438 6.36764 15.8437 5.125C15.8437 3.88236 14.8364 2.875 13.5937 2.875H10.4063Z" fill="#323544"/>
</svg>
