<svg width="24" height="25" viewBox="0 0 24 25" fill="none" xmlns="http://www.w3.org/2000/svg">
<g opacity="0.4">
<path d="M9.125 12.875C9.125 11.2872 10.4122 10 12 10C13.5878 10 14.875 11.2872 14.875 12.875C14.875 14.4628 13.5878 15.75 12 15.75C10.4122 15.75 9.125 14.4628 9.125 12.875Z" fill="#323544"/>
<path d="M2.27757 11.6101C3.97429 7.93132 7.68801 5.375 11.9999 5.375C16.3119 5.375 20.0256 7.93133 21.7223 11.6101C22.0924 12.4125 22.0924 13.3377 21.7223 14.1402C20.0256 17.8189 16.3119 20.3752 11.9999 20.3752C7.68801 20.3752 3.97428 17.8189 2.27757 14.1402C1.90748 13.3377 1.90748 12.4125 2.27757 11.6101ZM7.625 12.875C7.625 15.2912 9.58375 17.25 12 17.25C14.4162 17.25 16.375 15.2912 16.375 12.875C16.375 10.4588 14.4162 8.5 12 8.5C9.58375 8.5 7.625 10.4588 7.625 12.875Z" fill="#323544"/>
</g>
<path d="M12 8.5C9.58375 8.5 7.625 10.4588 7.625 12.875C7.625 15.2912 9.58375 17.25 12 17.25C14.4162 17.25 16.375 15.2912 16.375 12.875C16.375 10.4588 14.4162 8.5 12 8.5ZM9.125 12.875C9.125 11.2872 10.4122 10 12 10C13.5878 10 14.875 11.2872 14.875 12.875C14.875 14.4628 13.5878 15.75 12 15.75C10.4122 15.75 9.125 14.4628 9.125 12.875Z" fill="#323544"/>
</svg>
