<svg width="24" height="25" viewBox="0 0 24 25" fill="none" xmlns="http://www.w3.org/2000/svg">
<path d="M19.0614 9.68301L14.8188 5.44037C14.5259 5.14748 14.051 5.14748 13.7581 5.44037L5.48128 13.7172C4.71681 14.4817 4.61744 15.6594 5.18318 16.5313L7.97073 19.3187C8.8426 19.8843 10.0202 19.7849 10.7846 19.0205L19.0614 10.7437C19.3543 10.4508 19.3543 9.97591 19.0614 9.68301Z" fill="#323544"/>
<g opacity="0.4">
<path d="M4.10893 17.6029C3.96828 17.7435 3.88926 17.9343 3.88926 18.1332C3.88926 18.3321 3.96828 18.5229 4.10893 18.6635L4.44289 18.9975L2.21772 21.2227C1.92482 21.5156 1.92482 21.9904 2.21772 22.2833C2.51061 22.5762 2.98548 22.5762 3.27838 22.2833L5.50355 20.0582L5.83809 20.3927C6.13099 20.6856 6.60586 20.6856 6.89875 20.3927L7.97039 19.3187L5.18284 16.5313C5.18284 16.5313 4.46422 17.2476 4.10893 17.6029Z" fill="#323544"/>
<path d="M17.631 2.71967C17.3381 2.42678 16.8632 2.42678 16.5703 2.71967C16.2774 3.01256 16.2774 3.48744 16.5703 3.78033L17.2314 4.44141L15.5254 6.14738L16.5861 7.20804L18.2921 5.50207L18.9992 6.20917L17.2932 7.91515L18.3538 8.97581L20.0598 7.26983L20.7203 7.93032C21.0132 8.22322 21.4881 8.22322 21.781 7.93032C22.0739 7.63743 22.0739 7.16256 21.781 6.86966L18.8224 3.91108L18.8214 3.91009L17.631 2.71967Z" fill="#323544"/>
</g>
</svg>
