<svg width="24" height="25" viewBox="0 0 24 25" fill="none" xmlns="http://www.w3.org/2000/svg">
<path opacity="0.4" d="M16.8325 6.88379L16.0589 8.22374C17.0395 9.23927 17.6415 10.6203 17.6415 12.1421C17.6415 15.2582 15.116 17.7841 12 17.7841C10.4971 17.7841 9.26278 17.0042 8.40189 15.7637H10.6387C11.0529 15.7637 11.3887 15.4279 11.3887 15.0137C11.3887 14.5995 11.0529 14.2637 10.6387 14.2637H3.63867C3.22446 14.2637 2.88867 14.5995 2.88867 15.0137C2.88867 15.4279 3.22446 15.7637 3.63867 15.7637H6.65424C7.58496 17.542 9.14895 18.9609 11.25 19.2359V21H8C7.58579 21 7.25 21.3357 7.25 21.75C7.25 22.1642 7.58579 22.5 8 22.5H16C16.4142 22.5 16.75 22.1642 16.75 21.75C16.75 21.3357 16.4142 21 16 21H12.75V19.2452C16.3419 18.8704 19.1415 15.8332 19.1415 12.1421C19.1415 10.0613 18.251 8.18827 16.8325 6.88379Z" fill="#323544"/>
<path d="M15.4383 2.79987C14.3621 2.17855 12.986 2.54726 12.3647 3.62342L9.55377 8.49212C8.93245 9.56828 9.30117 10.9444 10.3773 11.5657L11.2434 12.0657C12.3195 12.687 13.6956 12.3183 14.3169 11.2421L16.0595 8.2239L16.8331 6.88395L17.1279 6.37342C17.7492 5.29726 17.3805 3.92119 16.3043 3.29987L15.4383 2.79987Z" fill="#323544"/>
</svg>
