<svg width="24" height="24" viewBox="0 0 24 24" fill="none" xmlns="http://www.w3.org/2000/svg">
<path d="M4.5 6.75V4.25C4.5 3.00736 5.50736 2 6.75 2H7L7.07715 2.00391C7.45512 2.04253 7.75 2.36183 7.75 2.75C7.75 3.13817 7.45512 3.45747 7.07715 3.49609L7 3.5H6.75C6.33579 3.5 6 3.83579 6 4.25V6.75L6.00586 6.96875C6.11972 9.21429 7.97616 11 10.25 11L10.4688 10.9941C12.6418 10.884 14.384 9.14183 14.4941 6.96875L14.5 6.75V4.25C14.5 3.83579 14.1642 3.5 13.75 3.5H13.5C13.0858 3.5 12.75 3.16421 12.75 2.75C12.75 2.33579 13.0858 2 13.5 2H13.75C14.9926 2 16 3.00736 16 4.25V6.75L15.9922 7.0459C15.8431 9.986 13.486 12.3431 10.5459 12.4922L10.25 12.5C7.17361 12.5 4.66183 10.084 4.50781 7.0459L4.5 6.75ZM21.25 12.5996C21.25 13.9803 20.1307 15.0996 18.75 15.0996C17.3693 15.0996 16.25 13.9803 16.25 12.5996C16.25 11.2189 17.3693 10.0996 18.75 10.0996C20.1307 10.0996 21.25 11.2189 21.25 12.5996Z" fill="#323544"/>
<path opacity="0.4" d="M11 16.5L11.0049 16.6797C11.0984 18.5292 12.6273 20 14.5 20L14.6797 19.9951C16.4697 19.9046 17.9046 18.4697 17.9951 16.6797L18 16.5V14.9844C18.2368 15.0588 18.4886 15.0996 18.75 15.0996C19.0114 15.0996 19.2632 15.0588 19.5 14.9844V16.5L19.4932 16.7568C19.3638 19.3138 17.3138 21.3638 14.7568 21.4932L14.5 21.5C11.8247 21.5 9.64053 19.3989 9.50684 16.7568L9.5 16.5V12.4492C9.74557 12.4812 9.99571 12.5 10.25 12.5L10.5459 12.4922C10.699 12.4844 10.8503 12.4687 11 12.4492V16.5Z" fill="#323544"/>
</svg>
