<svg width="24" height="25" viewBox="0 0 24 25" fill="none" xmlns="http://www.w3.org/2000/svg">
<path opacity="0.4" d="M6.66862 5.16466C6.3981 5.83295 6.25 6.56198 6.25 7.32129C6.25 10.4969 8.82436 13.0713 12 13.0713C15.1756 13.0713 17.75 10.4969 17.75 7.32129C17.75 6.56198 17.6019 5.83295 17.3314 5.16466C17.3187 5.1334 17.3058 5.10228 17.2926 5.07129H18.5C19.7426 5.07129 20.75 6.07865 20.75 7.32129V19.0713C20.75 20.3139 19.7426 21.3213 18.5 21.3213H5.5C4.25736 21.3213 3.25 20.3139 3.25 19.0713V7.32129C3.25 6.07865 4.25736 5.07129 5.5 5.07129H6.70738C6.69419 5.10228 6.68127 5.1334 6.66862 5.16466Z" fill="#323544"/>
<path d="M7.59556 5.53988C7.70661 5.26556 7.84266 5.00375 8.00077 4.75759C8.02336 4.72242 8.04639 4.68757 8.06987 4.65306C8.92409 3.39722 10.365 2.57129 12 2.57129C13.8103 2.57129 15.3826 3.5838 16.1841 5.07129C16.2658 5.22275 16.3394 5.37913 16.4044 5.53988C16.6275 6.09098 16.75 6.69276 16.75 7.32129C16.75 9.94464 14.6234 12.0713 12 12.0713C9.37665 12.0713 7.25 9.94464 7.25 7.32129C7.25 7.04397 7.27384 6.77186 7.31965 6.50702C7.37766 6.1716 7.4709 5.84783 7.59556 5.53988ZM13.5303 6.85162C13.8232 6.55873 13.8232 6.08385 13.5303 5.79096C13.2374 5.49807 12.7626 5.49807 12.4697 5.79096L11.4697 6.79096C11.1768 7.08385 11.1768 7.55873 11.4697 7.85162C11.7626 8.14451 12.2374 8.14451 12.5303 7.85162L13.5303 6.85162Z" fill="#323544"/>
</svg>
