<svg width="24" height="24" viewBox="0 0 24 24" fill="none" xmlns="http://www.w3.org/2000/svg">
<path d="M3.375 2C2.96079 2 2.625 2.33579 2.625 2.75C2.625 3.16421 2.96079 3.5 3.375 3.5H4.875C5.28921 3.5 5.625 3.83579 5.625 4.25V9.10151C5.68053 9.08033 5.73639 9.05982 5.79257 9.04C6.54295 8.77516 7.34865 8.63184 8.18405 8.63184C10.4296 8.63184 12.4353 9.66416 13.7498 11.2733C14.2036 11.8287 14.5761 12.4541 14.8488 13.1304H16.875V17.378C16.0011 17.6869 15.375 18.5203 15.375 19.5C15.375 20.7426 16.3824 21.75 17.625 21.75C18.7399 21.75 19.6654 20.9391 19.8439 19.875H21.25C21.6642 19.875 22 19.5392 22 19.125C22 18.7108 21.6642 18.375 21.25 18.375H19.574C19.3078 17.9148 18.8833 17.5577 18.375 17.378V8.625C18.375 7.38236 17.3676 6.375 16.125 6.375H7.125V4.25C7.125 3.00736 6.11764 2 4.875 2H3.375Z" fill="#323544"/>
<path opacity="0.4" d="M13.7559 13.1304C13.5437 12.6907 13.2809 12.28 12.9754 11.9059C11.8425 10.5192 10.1166 9.63184 8.18405 9.63184C7.46358 9.63184 6.77035 9.75535 6.12539 9.98299C5.95505 10.0431 5.78813 10.1105 5.625 10.1847C3.48745 11.1577 2 13.3122 2 15.8159C2 19.2312 4.76869 21.9999 8.18405 21.9999C11.5994 21.9999 14.3681 19.2312 14.3681 15.8159C14.3681 14.8541 14.1481 13.9428 13.7559 13.1304Z" fill="#323544"/>
</svg>
