<svg width="24" height="24" viewBox="0 0 24 24" fill="none" xmlns="http://www.w3.org/2000/svg">
<path d="M16.681 4.40773C17.8066 4.22563 18.9098 4.92225 19.2113 6.04738L21.9291 16.19L21.9769 16.4146C22.1473 17.4653 21.5521 18.4965 20.557 18.8745L20.3373 18.9458L18.0844 19.5493C16.959 19.8509 15.8037 19.2435 15.3988 18.1773L15.3285 17.9585L12.6107 7.81593C12.2892 6.61566 13.0013 5.38169 14.2015 5.06007L16.4555 4.45656L16.681 4.40773ZM16.9183 5.88918L16.8441 5.90578L14.5902 6.50929C14.1901 6.6165 13.9527 7.02814 14.0599 7.42824L16.7767 17.5698L16.8012 17.6431C16.9362 17.9984 17.3206 18.2006 17.6957 18.1001L19.9496 17.4966L20.0228 17.4732C20.3545 17.3471 20.5523 17.0031 20.4955 16.6528L20.4799 16.5777L17.7621 6.43605C17.6616 6.06084 17.2937 5.82818 16.9183 5.88918Z" fill="#323544"/>
<path opacity="0.4" d="M11.166 3.25C12.3917 3.25 13.3861 4.23005 13.4131 5.44922C12.7139 5.98697 12.3679 6.91129 12.6104 7.81641L13.416 10.8223V17.25C13.416 18.4926 12.4087 19.5 11.166 19.5H9.58301C9.00586 19.5 8.48117 19.281 8.08301 18.9238C7.68477 19.2809 7.15997 19.5 6.58301 19.5H4.25C3.00736 19.5 2 18.4926 2 17.25V7.75C2 6.50736 3.00736 5.5 4.25 5.5H6.58301C6.84621 5.5 7.09825 5.54781 7.33301 5.63086V5.5C7.33301 4.25736 8.34037 3.25 9.58301 3.25H11.166ZM4.25 7C3.83579 7 3.5 7.33579 3.5 7.75V17.25C3.5 17.6642 3.83579 18 4.25 18H6.58301C6.97116 18 7.29047 17.7051 7.3291 17.3271L7.33301 17.25V7.75L7.3291 7.67285C7.29046 7.2949 6.97116 7 6.58301 7H4.25ZM9.58301 4.75C9.16879 4.75 8.83301 5.08579 8.83301 5.5V17.25L8.83691 17.3271C8.87549 17.7053 9.19502 18 9.58301 18H11.166C11.5802 18 11.916 17.6642 11.916 17.25V5.5C11.916 5.08579 11.5802 4.75 11.166 4.75H9.58301Z" fill="#323544"/>
</svg>
