<svg width="24" height="24" viewBox="0 0 24 24" fill="none" xmlns="http://www.w3.org/2000/svg">
<path opacity="0.4" d="M13.125 6.25C13.125 5.83579 12.7892 5.5 12.375 5.5H11.625C11.2108 5.5 10.875 5.83579 10.875 6.25V8.5C10.875 8.72016 10.9688 8.91741 11.1211 9.05566L11.2285 9.13672C11.3436 9.20867 11.479 9.25 11.625 9.25H12.375C12.5695 9.25 12.7452 9.17702 12.8789 9.05566L12.9326 9.00098C13.0527 8.86758 13.125 8.69274 13.125 8.5V6.25ZM14.625 8.5C14.625 8.9619 14.4828 9.38995 14.2442 9.74707L18.6973 20.9736L18.7217 21.0459C18.8256 21.4117 18.6374 21.804 18.2764 21.9473C17.9156 22.0903 17.5102 21.9338 17.335 21.5967L17.3028 21.5264L12.9932 10.6631C12.7966 10.7192 12.5893 10.75 12.375 10.75H11.625C11.4104 10.75 11.2027 10.7194 11.0059 10.6631L6.69729 21.5264C6.54458 21.9113 6.10863 22.0999 5.72365 21.9473C5.3387 21.7946 5.15017 21.3586 5.30276 20.9736L9.7549 9.74707C9.5165 9.39004 9.37502 8.96171 9.37502 8.5V6.25C9.37502 5.13525 10.186 4.21187 11.25 4.0332V2.75C11.25 2.33579 11.5858 2 12 2C12.4142 2 12.75 2.33579 12.75 2.75V4.0332C13.814 4.21187 14.625 5.13525 14.625 6.25V8.5Z" fill="#323544"/>
<path d="M18.1807 9.76657C18.3302 9.38036 18.7642 9.18841 19.1504 9.33786C19.5366 9.4874 19.7285 9.92138 19.5791 10.3076C18.4033 13.3442 15.4544 15.5 12 15.5C8.65358 15.5 5.78138 13.477 4.53615 10.5898L4.42092 10.3076L4.3965 10.2353C4.29559 9.8687 4.48742 9.47812 4.84963 9.33786C5.21171 9.19778 5.61577 9.35749 5.78811 9.69626L5.81936 9.76657L5.91408 9.99606C6.93031 12.3522 9.27343 14 12 14C14.8144 14 17.221 12.2447 18.1807 9.76657Z" fill="#323544"/>
</svg>
