<svg width="24" height="24" viewBox="0 0 24 24" fill="none" xmlns="http://www.w3.org/2000/svg">
<path opacity="0.4" d="M8.26737 2.10061C4.13994 4.48358 2.72578 9.7613 5.10875 13.8887C6.46845 16.2438 8.7706 17.7155 11.2638 18.1025C11.2542 18.1503 11.2492 18.1998 11.2492 18.2504V20.5004H7.24918C6.83496 20.5004 6.49918 20.8362 6.49918 21.2504C6.49918 21.6646 6.83496 22.0004 7.24918 22.0004H16.7492C17.1634 22.0004 17.4992 21.6646 17.4992 21.2504C17.4992 20.8362 17.1634 20.5004 16.7492 20.5004H12.7492V18.2504C12.7492 18.2347 12.7487 18.219 12.7477 18.2035C14.1604 18.1776 15.5866 17.8038 16.8969 17.0473C17.2556 16.8402 17.3785 16.3815 17.1714 16.0228C16.9643 15.6641 16.5056 15.5412 16.1469 15.7483C12.7369 17.7171 8.37654 16.5487 6.40779 13.1387C4.43903 9.72874 5.60738 5.3684 9.01737 3.39964C9.37609 3.19254 9.49899 2.73384 9.29188 2.37513C9.08478 2.01641 8.62609 1.8935 8.26737 2.10061Z" fill="#323544"/>
<path d="M9.79288 4.74257C7.1243 6.28327 6.20998 9.69556 7.75068 12.3641C9.29139 15.0327 12.7037 15.947 15.3723 14.4063C18.0408 12.8656 18.9551 9.45333 17.4144 6.78476C15.8737 4.11619 12.4615 3.20186 9.79288 4.74257ZM9.04972 11.6141C7.92323 9.663 8.59174 7.16809 10.5429 6.0416C12.494 4.91512 14.9889 5.58362 16.1154 7.53476C17.2419 9.48589 16.5734 11.9808 14.6223 13.1073C12.6711 14.2338 10.1762 13.5653 9.04972 11.6141Z" fill="#323544"/>
</svg>
