<svg width="24" height="24" viewBox="0 0 24 24" fill="none" xmlns="http://www.w3.org/2000/svg">
<path d="M11.7023 3.31161C11.8923 3.22946 12.1077 3.22946 12.2977 3.31161L21.5477 7.31161C21.8222 7.43034 22 7.70087 22 8V8.00195V14.7207C22 15.1349 21.6642 15.4707 21.25 15.4707C20.8358 15.4707 20.5 15.1349 20.5 14.7207V9.14145L18.875 9.84415L17.375 10.4928L12.2977 12.6884C12.1077 12.7705 11.8923 12.7705 11.7023 12.6884L6.625 10.4928L5.125 9.84415L2.45232 8.68839C2.17775 8.56966 2 8.29913 2 8C2 7.70087 2.17775 7.43034 2.45232 7.31161L11.7023 3.31161ZM4.63959 8L12 11.1829L19.3604 8L12 4.81712L4.63959 8Z" fill="#323544"/>
<path opacity="0.4" d="M5.125 9.84375V15.9274C5.125 16.0732 5.16749 16.2158 5.24727 16.3379L5.24814 16.3392L5.2492 16.3408L5.25188 16.3448L5.25947 16.3562C5.26553 16.3651 5.27359 16.3769 5.28365 16.3913C5.30378 16.42 5.33196 16.4592 5.36827 16.5075C5.44085 16.6039 5.54621 16.7365 5.68494 16.8933C5.96196 17.2062 6.375 17.6185 6.9293 18.0297C8.04166 18.8551 9.72592 19.6774 12 19.6774C14.2741 19.6774 15.9583 18.8551 17.0707 18.0297C17.625 17.6185 18.038 17.2062 18.3151 16.8933C18.4538 16.7365 18.5591 16.6039 18.6317 16.5075C18.668 16.4592 18.6962 16.42 18.7163 16.3913C18.7264 16.3769 18.7345 16.3651 18.7405 16.3562L18.7481 16.3448L18.7508 16.3408L18.7519 16.3392C18.7531 16.3372 18.7527 16.3379 18.7527 16.3379C18.8325 16.2158 18.875 16.0732 18.875 15.9274V9.84375L17.375 10.4924V15.6808C17.3276 15.7408 17.2666 15.8147 17.1919 15.8991C16.971 16.1486 16.6334 16.4864 16.1769 16.8251C15.2676 17.4998 13.8894 18.1774 12 18.1774C10.1106 18.1774 8.73237 17.4998 7.8231 16.8251C7.36658 16.4864 7.02902 16.1486 6.80814 15.8991C6.73344 15.8147 6.67243 15.7408 6.625 15.6808V10.4924L5.125 9.84375Z" fill="#323544"/>
</svg>
