<svg width="24" height="24" viewBox="0 0 24 24" fill="none" xmlns="http://www.w3.org/2000/svg">
<path d="M4.5 4.25C4.5 3.00736 5.50736 2 6.75 2H17.25C18.4926 2 19.5 3.00736 19.5 4.25V19.75C19.5 20.9926 18.4926 22 17.25 22H6.75C5.50736 22 4.5 20.9926 4.5 19.75V17.75H6V19.75C6 20.1642 6.33579 20.5 6.75 20.5H17.25C17.6642 20.5 18 20.1642 18 19.75V4.25C18 3.83579 17.6642 3.5 17.25 3.5H6.75C6.33579 3.5 6 3.83579 6 4.25V6.25L4.5 6.25V4.25ZM4.5 7.75V11.25H6V7.75L4.5 7.75ZM4.5 16.25V12.75H6V16.25H4.5Z" fill="#323544"/>
<g opacity="0.4">
<path d="M4.5 16.25H3.25C2.83579 16.25 2.5 16.5858 2.5 17C2.5 17.4142 2.83579 17.75 3.25 17.75H4.5H6H7.25C7.66421 17.75 8 17.4142 8 17C8 16.5858 7.66421 16.25 7.25 16.25H6H4.5Z" fill="#323544"/>
<path d="M4.5 11.25H3.25C2.83579 11.25 2.5 11.5858 2.5 12C2.5 12.4142 2.83579 12.75 3.25 12.75H4.5H6H7.25C7.66421 12.75 8 12.4142 8 12C8 11.5858 7.66421 11.25 7.25 11.25H6H4.5Z" fill="#323544"/>
<path d="M4.5 6.25H3.25C2.83579 6.25 2.5 6.58579 2.5 7C2.5 7.41421 2.83579 7.75 3.25 7.75H4.5L6 7.75H7.25C7.66421 7.75 8 7.41421 8 7C8 6.58579 7.66421 6.25 7.25 6.25H6L4.5 6.25Z" fill="#323544"/>
</g>
</svg>
