<svg width="24" height="24" viewBox="0 0 24 24" fill="none" xmlns="http://www.w3.org/2000/svg">
<path opacity="0.4" d="M5.5 3.25H15.5411L14.0411 4.75H5.5C5.08579 4.75 4.75 5.08579 4.75 5.5V18.5C4.75 18.9142 5.08579 19.25 5.5 19.25H18.5C18.9142 19.25 19.25 18.9142 19.25 18.5V9.95823L20.75 8.45823V18.5C20.75 19.7426 19.7426 20.75 18.5 20.75H5.5C4.25736 20.75 3.25 19.7426 3.25 18.5V5.5C3.25 4.25736 4.25736 3.25 5.5 3.25Z" fill="#323544"/>
<path d="M20.8749 2.51256C20.1915 1.82914 19.0834 1.82915 18.4 2.51256L13.2418 7.6708C12.879 8.03363 12.651 8.50959 12.5958 9.01974L12.4068 10.7667C12.3824 10.9924 12.4616 11.2171 12.6221 11.3777C12.7827 11.5382 13.0074 11.6174 13.2332 11.593L14.9801 11.404C15.4902 11.3488 15.9662 11.1209 16.329 10.758L21.4873 5.59978C22.1707 4.91637 22.1707 3.80833 21.4873 3.12491L20.8749 2.51256ZM18.5981 4.43586L19.564 5.40176L15.2684 9.69736C15.1474 9.8183 14.9888 9.89428 14.8187 9.91268L13.9984 10.0014L14.0871 9.18111C14.1055 9.01106 14.1815 8.8524 14.3025 8.73146L18.5981 4.43586Z" fill="#323544"/>
</svg>
