<svg width="24" height="24" viewBox="0 0 24 24" fill="none" xmlns="http://www.w3.org/2000/svg">
<path d="M16.1208 3.7801C16.9995 2.90142 18.4241 2.90142 19.3028 3.7801L20.22 4.6973C21.0986 5.57598 21.0986 7.0006 20.22 7.87928L9.93291 18.1663C9.67176 18.4275 9.35035 18.6203 8.99703 18.7279L4.98792 19.948C4.72294 20.0287 4.43508 19.9567 4.23922 19.7608C4.04336 19.565 3.9714 19.2771 4.05205 19.0121L5.27221 15.003C5.37974 14.6497 5.57259 14.3283 5.83373 14.0672L14.3173 5.58359C14.3225 5.57803 14.3279 5.57253 14.3333 5.5671C14.3387 5.56166 14.3442 5.55633 14.3498 5.5511L16.1208 3.7801ZM14.8639 7.15833L6.89439 15.1278C6.80735 15.2149 6.74306 15.322 6.70722 15.4398L5.8965 18.1036L8.56029 17.2928C8.67806 17.257 8.7852 17.1927 8.87225 17.1057L16.8417 9.13619L17.9024 8.07553L19.1593 6.81862C19.4522 6.52572 19.4522 6.05085 19.1593 5.75796L18.2421 4.84076C17.9492 4.54787 17.4743 4.54787 17.1814 4.84076L15.9245 6.09767L14.8639 7.15833Z" fill="#323544"/>
<path opacity="0.4" d="M14.8639 7.15832L16.8417 9.13617L17.9024 8.07551L15.9246 6.09766L14.8639 7.15832Z" fill="#323544"/>
</svg>
