<svg width="25" height="25" viewBox="0 0 25 25" fill="none" xmlns="http://www.w3.org/2000/svg">
<path opacity="0.4" d="M12.5 2.23242C6.97715 2.23242 2.5 6.70957 2.5 12.2324C2.5 17.7553 6.97715 22.2324 12.5 22.2324C18.0228 22.2324 22.5 17.7553 22.5 12.2324C22.5 6.70957 18.0228 2.23242 12.5 2.23242ZM4 12.2324C4 7.538 7.80558 3.73242 12.5 3.73242C17.1944 3.73242 21 7.538 21 12.2324C21 16.9268 17.1944 20.7324 12.5 20.7324C7.80558 20.7324 4 16.9268 4 12.2324Z" fill="#323544"/>
<path d="M10.7188 6.85742C9.47611 6.85742 8.46875 7.86478 8.46875 9.10742V16.8574C8.46875 17.1358 8.62294 17.3913 8.86924 17.521C9.11555 17.6507 9.41344 17.6334 9.643 17.4759L12.0745 15.8079C12.3302 15.6326 12.6674 15.6326 12.923 15.8079L15.3546 17.4759C15.5841 17.6334 15.882 17.6507 16.1283 17.521C16.3746 17.3913 16.5288 17.1358 16.5288 16.8574V9.10742C16.5288 7.86478 15.5214 6.85742 14.2788 6.85742H10.7188ZM9.96875 9.10742C9.96875 8.69321 10.3045 8.35742 10.7188 8.35742H14.2788C14.693 8.35742 15.0288 8.69321 15.0288 9.10742V15.4334L13.7715 14.571C13.0046 14.0449 11.993 14.0449 11.226 14.571L9.96875 15.4334V9.10742Z" fill="#323544"/>
</svg>
