<svg width="25" height="25" viewBox="0 0 25 25" fill="none" xmlns="http://www.w3.org/2000/svg">
<path opacity="0.4" d="M14.9203 14.0998C15.7989 14.9785 17.2236 14.9785 18.1022 14.0998L21.8459 10.3561C22.7246 9.47745 22.7246 8.05283 21.8459 7.17415L18.0632 3.39143C17.1845 2.51275 15.7599 2.51275 14.8812 3.39143L11.1376 7.1351C10.2589 8.01378 10.2589 9.4384 11.1376 10.3171L12.4975 11.677L13.5581 10.6163L12.1982 9.25642C11.9053 8.96352 11.9053 8.48865 12.1982 8.19576L15.9419 4.45209C16.2348 4.1592 16.7096 4.1592 17.0025 4.45209L20.7853 8.23481C21.0781 8.5277 21.0781 9.00257 20.7853 9.29547L17.0416 13.0391C16.7487 13.332 16.2738 13.332 15.9809 13.0391L14.6188 11.677L13.5581 12.7377L14.9203 14.0998ZM12.4971 13.7987L11.4365 14.8593L12.7986 16.2215C13.0915 16.5143 13.0915 16.9892 12.7986 17.2821L9.05917 21.0216C8.76627 21.3144 8.2914 21.3144 7.99851 21.0216L4.21576 17.2388C3.92287 16.9459 3.92287 16.471 4.21576 16.1782L7.95521 12.4387C8.2481 12.1458 8.72297 12.1458 9.01587 12.4387L10.3758 13.7987L11.4365 12.738L10.0765 11.378C9.19785 10.4994 7.77323 10.4994 6.89455 11.378L3.1551 15.1175C2.27642 15.9962 2.27642 17.4208 3.1551 18.2995L6.93785 22.0822C7.81652 22.9609 9.24115 22.9609 10.1198 22.0822L13.8593 18.3428C14.7379 17.4641 14.738 16.0395 13.8593 15.1608L12.4971 13.7987Z" fill="#323544"/>
<path d="M12.4982 13.7987L13.5592 12.7377L14.6199 11.677L15.863 10.4339C16.1559 10.141 16.1559 9.66613 15.863 9.37323C15.5701 9.08034 15.0952 9.08034 14.8023 9.37323L13.5592 10.6163L12.4985 11.677L11.4375 12.738L10.3769 13.7987L9.14545 15.0301C8.85256 15.323 8.85256 15.7979 9.14545 16.0907C9.43834 16.3836 9.91322 16.3836 10.2061 16.0907L11.4375 14.8593L12.4982 13.7987Z" fill="#323544"/>
</svg>
