<svg width="25" height="25" viewBox="0 0 25 25" fill="none" xmlns="http://www.w3.org/2000/svg">
<g opacity="0.4">
<path d="M13.9897 10.1811C14.7399 9.29704 14.6978 7.97043 13.8635 7.13607L10.1198 3.39241C9.24112 2.51373 7.8165 2.51373 6.93782 3.39241L3.1551 7.17512C2.27642 8.0538 2.27642 9.47842 3.1551 10.3571L6.89877 14.1008C7.73313 14.9351 9.05973 14.9772 9.94375 14.227L13.9897 10.1811ZM11.441 10.6192L10.1976 9.37584C9.90467 9.08295 9.42979 9.08295 9.1369 9.37584C8.84401 9.66874 8.84401 10.1436 9.1369 10.4365L10.3803 11.6799L9.02009 13.0401C8.7272 13.333 8.25232 13.333 7.95943 13.0401L4.21576 9.29644C3.92287 9.00355 3.92287 8.52868 4.21576 8.23578L7.99848 4.45307C8.29137 4.16018 8.76624 4.16017 9.05914 4.45307L12.8028 8.19673C13.0957 8.48963 13.0957 8.9645 12.8028 9.25739L11.441 10.6192Z" fill="#323544"/>
<path d="M13.5569 12.7352L12.4963 13.7959L12.5018 13.8014L11.1417 15.1615C10.263 16.0401 10.263 17.4648 11.1417 18.3434L14.8812 22.0829C15.7598 22.9616 17.1845 22.9616 18.0631 22.0829L21.8459 18.3001C22.7246 17.4215 22.7246 15.9968 21.8459 15.1182L18.1064 11.3787C17.2278 10.5 15.8031 10.5 14.9245 11.3787L13.5625 12.7407L13.5569 12.7352ZM12.2024 16.2221L13.5625 14.8621L14.7938 16.0934C15.0866 16.3862 15.5615 16.3862 15.8544 16.0934C16.1473 15.8005 16.1473 15.3256 15.8544 15.0327L14.6231 13.8014L15.9851 12.4394C16.278 12.1465 16.7529 12.1465 17.0458 12.4394L20.7852 16.1788C21.0781 16.4717 21.0781 16.9466 20.7852 17.2395L17.0025 21.0222C16.7096 21.3151 16.2347 21.3151 15.9418 21.0222L12.2024 17.2828C11.9095 16.9899 11.9095 16.515 12.2024 16.2221Z" fill="#323544"/>
</g>
<path d="M6.95549 22.1668C6.55539 22.0596 6.31795 21.6484 6.42516 21.2483L6.87859 19.556C6.9858 19.1559 7.39705 18.9185 7.79715 19.0257C8.19725 19.1329 8.43469 19.5441 8.32748 19.9442L7.87404 21.6365C7.76684 22.0366 7.35559 22.274 6.95549 22.1668Z" fill="#323544"/>
<path d="M3.59513 17.3576C3.19503 17.4648 2.9576 17.876 3.0648 18.2761C3.17201 18.6762 3.58326 18.9137 3.98336 18.8065L5.67562 18.353C6.07572 18.2458 6.31316 17.8346 6.20595 17.4345C6.09874 17.0344 5.68749 16.7969 5.28739 16.9042L3.59513 17.3576Z" fill="#323544"/>
<path d="M21.9331 7.1887C21.8259 6.7886 21.4147 6.55116 21.0146 6.65837L19.3223 7.11181C18.9222 7.21902 18.6848 7.63027 18.792 8.03037C18.8992 8.43047 19.3104 8.6679 19.7105 8.5607L21.4028 8.10726C21.8029 8.00005 22.0403 7.5888 21.9331 7.1887Z" fill="#323544"/>
<path d="M17.1239 3.82835C17.2311 3.42825 17.6423 3.19081 18.0424 3.29802C18.4425 3.40523 18.68 3.81648 18.5728 4.21658L18.1193 5.90883C18.0121 6.30893 17.6009 6.54637 17.2008 6.43916C16.8007 6.33196 16.5632 5.92071 16.6704 5.52061L17.1239 3.82835Z" fill="#323544"/>
</svg>
