<svg width="24" height="24" viewBox="0 0 24 24" fill="none" xmlns="http://www.w3.org/2000/svg">
<g opacity="0.4">
<path d="M5.5 3.25C4.25736 3.25 3.25 4.25736 3.25 5.5V18.5C3.25 19.7426 4.25736 20.75 5.5 20.75H5.83333C7.07597 20.75 8.08333 19.7426 8.08333 18.5V5.5C8.08333 4.25736 7.07598 3.25 5.83333 3.25H5.5Z" fill="#323544"/>
<path d="M9.58301 11.8838C9.58301 10.6411 10.5904 9.63379 11.833 9.63379H12.1663C13.409 9.63379 14.4163 10.6411 14.4163 11.8838V18.5001C14.4163 19.7427 13.409 20.7501 12.1663 20.7501H11.833C10.5904 20.7501 9.58301 19.7427 9.58301 18.5001V11.8838Z" fill="#323544"/>
<path d="M15.916 14.9219C15.916 13.6792 16.9234 12.6719 18.166 12.6719H18.4993C19.742 12.6719 20.7493 13.6792 20.7493 14.9219V18.5001C20.7493 19.7427 19.742 20.7501 18.4993 20.7501H18.166C16.9234 20.7501 15.916 19.7427 15.916 18.5001V14.9219Z" fill="#323544"/>
</g>
<path d="M17.8082 2C18.2224 2 18.5582 2.33579 18.5582 2.75V2.91898C19.3066 3.10815 19.8605 3.78601 19.8605 4.59323C19.8605 5.00744 19.5247 5.34323 19.1105 5.34323C18.6963 5.34323 18.3605 5.00744 18.3605 4.59323C18.3605 4.46796 18.259 4.36641 18.1337 4.36641H17.7387C17.472 4.36641 17.2559 4.58257 17.2559 4.84921C17.2559 5.05046 17.3807 5.2306 17.5691 5.30127L18.574 5.67811C19.3478 5.96833 19.8605 6.70814 19.8605 7.53464C19.8605 8.39065 19.3181 9.11996 18.5582 9.39759V9.63372C18.5582 10.0479 18.2224 10.3837 17.8082 10.3837C17.394 10.3837 17.0582 10.0479 17.0582 9.63372V9.46488C16.3097 9.2757 15.7559 8.59785 15.7559 7.79062C15.7559 7.37641 16.0916 7.04062 16.5059 7.04062C16.9201 7.04062 17.2559 7.37641 17.2559 7.79062C17.2559 7.91589 17.3574 8.01744 17.4827 8.01744H17.8777C18.1444 8.01744 18.3605 7.80129 18.3605 7.53464C18.3605 7.3334 18.2357 7.15326 18.0472 7.08259L17.0424 6.70575C16.2685 6.41552 15.7559 5.67571 15.7559 4.84921C15.7559 3.99321 16.2983 3.2639 17.0582 2.98626V2.75C17.0582 2.33579 17.394 2 17.8082 2Z" fill="#323544"/>
</svg>
