<svg width="25" height="24" viewBox="0 0 25 24" fill="none" xmlns="http://www.w3.org/2000/svg">
<g opacity="0.4">
<path d="M17.1371 8.525H16.1871V11.725H17.1371V8.525Z" fill="#323544"/>
<path d="M2.53711 6.42187C2.53711 5.17923 3.54447 4.17188 4.78711 4.17188H20.2871C21.5298 4.17188 22.5371 5.17923 22.5371 6.42188V13.8281C22.5371 15.0708 21.5298 16.0781 20.2871 16.0781H13.2871V18.3281H15.5371C15.9514 18.3281 16.2871 18.6639 16.2871 19.0781C16.2871 19.4923 15.9514 19.8281 15.5371 19.8281H9.53714C9.12293 19.8281 8.78714 19.4923 8.78714 19.0781C8.78714 18.6639 9.12293 18.3281 9.53714 18.3281H11.7871V16.0781H4.78711C3.54447 16.0781 2.53711 15.0708 2.53711 13.8281V6.42187ZM6.63711 8.4375V9.5625C6.63711 10.2321 7.17996 10.775 7.84961 10.775H8.88711V11.725H7.28711C6.92812 11.725 6.63711 12.016 6.63711 12.375C6.63711 12.734 6.92812 13.025 7.28711 13.025H8.97461C9.64425 13.025 10.1871 12.4821 10.1871 11.8125V10.6875C10.1871 10.0179 9.64425 9.475 8.97461 9.475H7.93711V8.525H9.53711C9.89609 8.525 10.1871 8.23398 10.1871 7.875C10.1871 7.51602 9.89609 7.225 9.53711 7.225H7.84961C7.17996 7.225 6.63711 7.76785 6.63711 8.4375ZM10.7621 7.875V12.375C10.7621 12.734 11.0531 13.025 11.4121 13.025H13.6621C14.0211 13.025 14.3121 12.734 14.3121 12.375C14.3121 12.016 14.0211 11.725 13.6621 11.725H12.0621V10.775H13.6621C14.0211 10.775 14.3121 10.484 14.3121 10.125C14.3121 9.76602 14.0211 9.475 13.6621 9.475H12.0621V8.525H13.6621C14.0211 8.525 14.3121 8.23398 14.3121 7.875C14.3121 7.51602 14.0211 7.225 13.6621 7.225H11.4121C11.0531 7.225 10.7621 7.51602 10.7621 7.875ZM14.8871 8.4375V11.8125C14.8871 12.4821 15.43 13.025 16.0996 13.025H17.2246C17.8943 13.025 18.4371 12.4821 18.4371 11.8125V8.4375C18.4371 7.76785 17.8943 7.225 17.2246 7.225H16.0996C15.43 7.225 14.8871 7.76785 14.8871 8.4375Z" fill="#323544"/>
</g>
<path d="M16.0992 7.22461C15.4296 7.22461 14.8867 7.76746 14.8867 8.43711V11.8121C14.8867 12.4818 15.4296 13.0246 16.0992 13.0246H17.2242C17.8939 13.0246 18.4367 12.4818 18.4367 11.8121V8.43711C18.4367 7.76746 17.8939 7.22461 17.2242 7.22461H16.0992ZM17.1367 8.52461V11.7246H16.1867V8.52461H17.1367Z" fill="#323544"/>
<path d="M11.4117 7.22461C11.0527 7.22461 10.7617 7.51562 10.7617 7.87461V12.3746C10.7617 12.7336 11.0527 13.0246 11.4117 13.0246H13.6617C14.0207 13.0246 14.3117 12.7336 14.3117 12.3746C14.3117 12.0156 14.0207 11.7246 13.6617 11.7246H12.0617V10.7746H13.6617C14.0207 10.7746 14.3117 10.4836 14.3117 10.1246C14.3117 9.76562 14.0207 9.47461 13.6617 9.47461H12.0617V8.52461H13.6617C14.0207 8.52461 14.3117 8.23359 14.3117 7.87461C14.3117 7.51562 14.0207 7.22461 13.6617 7.22461H11.4117Z" fill="#323544"/>
<path d="M7.84922 7.22461C7.17957 7.22461 6.63672 7.76746 6.63672 8.43711V9.56211C6.63672 10.2318 7.17957 10.7746 7.84922 10.7746H8.88672V11.7246H7.28672C6.92773 11.7246 6.63672 12.0156 6.63672 12.3746C6.63672 12.7336 6.92773 13.0246 7.28672 13.0246H8.97422C9.64386 13.0246 10.1867 12.4818 10.1867 11.8121V10.6871C10.1867 10.0175 9.64386 9.47461 8.97422 9.47461H7.93672V8.52461H9.53672C9.8957 8.52461 10.1867 8.23359 10.1867 7.87461C10.1867 7.51562 9.8957 7.22461 9.53672 7.22461H7.84922Z" fill="#323544"/>
</svg>
