<svg width="24" height="24" viewBox="0 0 24 24" fill="none" xmlns="http://www.w3.org/2000/svg">
<path opacity="0.4" d="M12 1.25C12.4142 1.25 12.75 1.58579 12.75 2V3.28169C16.9842 3.64113 20.3589 7.01581 20.7183 11.25H22C22.4142 11.25 22.75 11.5858 22.75 12C22.75 12.4142 22.4142 12.75 22 12.75H20.7183C20.3589 16.9842 16.9842 20.3589 12.75 20.7183V22C12.75 22.4142 12.4142 22.75 12 22.75C11.5858 22.75 11.25 22.4142 11.25 22V20.7183C7.01581 20.3589 3.64113 16.9842 3.28169 12.75H2C1.58579 12.75 1.25 12.4142 1.25 12C1.25 11.5858 1.58579 11.25 2 11.25H3.28169C3.64113 7.01581 7.01581 3.64113 11.25 3.28169V2C11.25 1.58579 11.5858 1.25 12 1.25ZM12.0001 8.24414C11.1074 8.24414 10.3838 8.96777 10.3838 9.86042C10.3838 10.7531 11.1074 11.4767 12.0001 11.4767C12.8927 11.4767 13.6163 10.7531 13.6163 9.86042C13.6163 8.96777 12.8927 8.24414 12.0001 8.24414ZM8.54785 14.3253V15.2555C8.54785 15.6697 8.88364 16.0055 9.29785 16.0055H14.7029C15.1171 16.0055 15.4529 15.6697 15.4529 15.2555V14.3253C15.4529 13.0891 14.4508 12.0869 13.2145 12.0869H10.7862C9.55 12.0869 8.54785 13.0891 8.54785 14.3253Z" fill="#323544"/>
<path d="M10.7852 12.0869C9.54903 12.0869 8.54688 13.0891 8.54688 14.3253V15.2555C8.54688 15.6697 8.88266 16.0055 9.29688 16.0055H14.7019C15.1161 16.0055 15.4519 15.6697 15.4519 15.2555V14.3253C15.4519 13.0891 14.4498 12.0869 13.2136 12.0869H10.7852Z" fill="#323544"/>
<path d="M10.3828 9.86042C10.3828 8.96777 11.1064 8.24414 11.9991 8.24414C12.8917 8.24414 13.6154 8.96777 13.6154 9.86042C13.6154 10.7531 12.8917 11.4767 11.9991 11.4767C11.1064 11.4767 10.3828 10.7531 10.3828 9.86042Z" fill="#323544"/>
</svg>
