<svg width="24" height="24" viewBox="0 0 24 24" fill="none" xmlns="http://www.w3.org/2000/svg">
<path opacity="0.4" d="M4.75 4C4.75 3.58579 4.41421 3.25 4 3.25C3.58579 3.25 3.25 3.58579 3.25 4V18.5C3.25 19.7426 4.25736 20.75 5.5 20.75H20.0005C20.4147 20.75 20.7505 20.4142 20.7505 20C20.7505 19.5858 20.4147 19.25 20.0005 19.25H5.5C5.08579 19.25 4.75 18.9142 4.75 18.5V15.7298V13.6085V4Z" fill="#323544"/>
<path d="M8.6693 9.68856L4.75 13.6079V15.7292L9.19963 11.2796L12.622 14.7019C12.7626 14.8426 12.9534 14.9216 13.1523 14.9216C13.3512 14.9216 13.542 14.8426 13.6826 14.7019L16.9777 11.4069L18.2167 12.6459C18.4313 12.8605 18.7541 12.9247 19.0345 12.8084C19.3148 12.6921 19.4974 12.4183 19.4971 12.1148L19.4931 8.57992C19.4927 8.1661 19.1571 7.83084 18.7433 7.83076L15.2117 7.83008C14.9083 7.83002 14.6348 8.01273 14.5187 8.293C14.4025 8.57327 14.4667 8.89589 14.6812 9.11041L15.917 10.3462L13.1523 13.1109L9.72996 9.68856C9.58931 9.54791 9.39855 9.46889 9.19963 9.46889C9.00072 9.46889 8.80996 9.54791 8.6693 9.68856Z" fill="#323544"/>
</svg>
