<svg width="24" height="24" viewBox="0 0 24 24" fill="none" xmlns="http://www.w3.org/2000/svg">
<path opacity="0.4" d="M4.75 4C4.75 3.58579 4.41421 3.25 4 3.25C3.58579 3.25 3.25 3.58579 3.25 4V18.5C3.25 19.7426 4.25736 20.75 5.5 20.75H20.0005C20.4147 20.75 20.7505 20.4142 20.7505 20C20.7505 19.5858 20.4147 19.25 20.0005 19.25H5.5C5.08579 19.25 4.75 18.9142 4.75 18.5V10.3922V8.27091V4Z" fill="#323544"/>
<path d="M9.19963 12.7211L4.75 8.27148V10.3928L8.6693 14.3121C8.80996 14.4528 9.00072 14.5318 9.19963 14.5318C9.39855 14.5318 9.58931 14.4528 9.72996 14.3121L13.1525 10.8896L15.918 13.6534L14.6812 14.8903C14.4667 15.1048 14.4025 15.4273 14.5186 15.7076C14.6347 15.9879 14.9082 16.1706 15.2115 16.1706H18.7473C18.9462 16.1706 19.137 16.0916 19.2777 15.9509C19.4183 15.8102 19.4973 15.6195 19.4973 15.4205L19.4971 11.885C19.497 11.5817 19.3143 11.3082 19.0341 11.1921C18.7538 11.0761 18.4312 11.1402 18.2167 11.3547L16.9787 12.5928L13.6825 9.2986C13.3896 9.00587 12.9148 9.00594 12.622 9.29877L9.19963 12.7211Z" fill="#323544"/>
</svg>
