<svg width="24" height="24" viewBox="0 0 24 24" fill="none" xmlns="http://www.w3.org/2000/svg">
<path opacity="0.4" d="M6.40196 5.01699C10.0998 4.33288 13.8918 4.33288 17.5897 5.01699L19.1553 5.30663C20.1235 5.48574 20.8627 6.27352 20.98 7.25109L22.1472 16.9807C22.3078 18.32 21.2621 19.4987 19.9132 19.4987H17.8162C17.0356 19.4987 16.3108 19.0941 15.901 18.4297L14.4675 16.105C14.3309 15.8835 14.0893 15.7487 13.8291 15.7487H10.1625C9.90231 15.7487 9.66071 15.8835 9.52413 16.105L8.09059 18.4297C7.68086 19.0941 6.95605 19.4987 6.17545 19.4987H4.07843C2.72954 19.4987 1.68378 18.32 1.84445 16.9807L3.01164 7.25109C3.12892 6.27352 3.86817 5.48574 4.83632 5.30663L6.40196 5.01699ZM17.3168 6.49196C13.7993 5.84122 10.1923 5.84122 6.67483 6.49196L5.10919 6.7816C4.78647 6.84131 4.54006 7.1039 4.50096 7.42976L3.33377 17.1594C3.28022 17.6058 3.6288 17.9987 4.07843 17.9987H6.17545C6.43565 17.9987 6.67726 17.8638 6.81383 17.6423L8.24738 15.3177C8.6571 14.6533 9.38192 14.2487 10.1625 14.2487H13.8291C14.6097 14.2487 15.3345 14.6533 15.7442 15.3177L17.1778 17.6423C17.3144 17.8638 17.556 17.9987 17.8162 17.9987H19.9132C20.3628 17.9987 20.7114 17.6058 20.6578 17.1593L19.4907 7.42976C19.4516 7.1039 19.2051 6.84131 18.8824 6.7816L17.3168 6.49196Z" fill="#323544"/>
<path d="M9.30273 7.73779C9.71695 7.73779 10.0527 8.07358 10.0527 8.48779V9.4917H11.0577C11.4719 9.4917 11.8077 9.82749 11.8077 10.2417C11.8077 10.6559 11.4719 10.9917 11.0577 10.9917H10.0527V11.9986C10.0527 12.4128 9.71695 12.7486 9.30273 12.7486C8.88852 12.7486 8.55273 12.4128 8.55273 11.9986V10.9917H7.54688C7.13266 10.9917 6.79688 10.6559 6.79688 10.2417C6.79688 9.82749 7.13266 9.4917 7.54688 9.4917H8.55273V8.48779C8.55273 8.07358 8.88852 7.73779 9.30273 7.73779Z" fill="#323544"/>
<path d="M14.4785 11.7446C14.4785 11.3304 14.8143 10.9946 15.2285 10.9946H16.1062C16.5204 10.9946 16.8562 11.3304 16.8562 11.7446C16.8562 12.1588 16.5204 12.4946 16.1062 12.4946H15.2285C14.8143 12.4946 14.4785 12.1588 14.4785 11.7446Z" fill="#323544"/>
<path d="M15.2285 7.98779C14.8143 7.98779 14.4785 8.32358 14.4785 8.73779C14.4785 9.15201 14.8143 9.48779 15.2285 9.48779H16.1062C16.5204 9.48779 16.8562 9.15201 16.8562 8.73779C16.8562 8.32358 16.5204 7.98779 16.1062 7.98779H15.2285Z" fill="#323544"/>
</svg>
