<svg width="24" height="25" viewBox="0 0 24 25" fill="none" xmlns="http://www.w3.org/2000/svg">
<path opacity="0.4" d="M6.38688 9.23329C6.45702 6.19302 8.94354 3.75 12.0007 3.75C15.0578 3.75 17.5444 6.19307 17.6144 9.23338C20.0688 9.42706 22.0001 11.4801 22.0001 13.9842C22.0001 16.6163 19.8664 18.75 17.2343 18.75H16.4156L17.546 17.6196C18.1895 16.9761 18.382 16.0084 18.0337 15.1676C17.6854 14.3268 16.865 13.7786 15.955 13.7786H15.2663V12.5C15.2663 11.2574 14.259 10.25 13.0163 10.25H9.54494C8.55264 10.25 7.6775 10.9001 7.39086 11.8501L5.89086 16.8214C5.69704 17.4638 5.80052 18.1569 6.16849 18.7129C3.81834 18.4191 2 16.414 2 13.9842C2 11.4797 3.93195 9.42638 6.38688 9.23329Z" fill="#323544"/>
<path d="M9.54298 11.75C9.21221 11.75 8.92049 11.9667 8.82495 12.2834L7.32495 17.2547C7.2564 17.4819 7.29941 17.7281 7.4409 17.9186C7.58239 18.1091 7.80569 18.2214 8.04298 18.2214H9.48163V21.75C9.48163 22.0533 9.66436 22.3268 9.94462 22.4429C10.2249 22.559 10.5475 22.4948 10.762 22.2803L16.4833 16.559C16.6978 16.3445 16.762 16.0219 16.6459 15.7416C16.5298 15.4614 16.2564 15.2786 15.953 15.2786L13.7644 15.2786V12.5C13.7644 12.0858 13.4286 11.75 13.0144 11.75H9.54298Z" fill="#323544"/>
</svg>
