<svg width="24" height="25" viewBox="0 0 24 25" fill="none" xmlns="http://www.w3.org/2000/svg">
<path opacity="0.4" d="M12.7589 2.4902C12.6511 2.41323 12.5657 2.35395 12.5063 2.31334C12.4855 2.29396 12.4625 2.28028 12.4399 2.2668C12.4298 2.2608 12.4198 2.25483 12.4101 2.24842C12.1599 2.08382 11.8358 2.08382 11.5856 2.24842C11.5533 2.26973 11.5213 2.29149 11.4894 2.31334C11.43 2.35395 11.3446 2.41323 11.2368 2.4902C11.0213 2.64409 10.716 2.86903 10.3508 3.1572C9.62151 3.7326 8.64722 4.56491 7.67038 5.59175C5.74612 7.61451 3.67969 10.53 3.67969 13.8068C3.67969 18.4008 7.40386 22.125 11.9979 22.125C16.5919 22.125 20.3161 18.4008 20.3161 13.8068C20.3161 10.53 18.2496 7.61451 16.3254 5.59175C15.3485 4.56491 14.3742 3.7326 13.645 3.1572C13.2797 2.86903 12.9744 2.64409 12.7589 2.4902Z" fill="#323544"/>
<path d="M12.5103 2.31338C12.4806 2.29307 12.4574 2.27743 12.4412 2.26657L12.4143 2.24842C12.1641 2.08382 11.84 2.08382 11.5898 2.24842L11.5623 2.26657C11.5461 2.27743 11.523 2.29307 11.4933 2.31338C11.4339 2.35399 11.3485 2.41326 11.2407 2.49023C11.0252 2.64412 10.7199 2.86906 10.3547 3.15724C9.62542 3.73264 8.65113 4.56495 7.67429 5.59179C5.75002 7.61455 3.68359 10.53 3.68359 13.8068C3.68359 18.4008 7.40777 22.125 12.0018 22.125C16.5958 22.125 20.32 18.4008 20.32 13.8068C20.32 10.53 18.2535 7.61455 16.3293 5.59179C15.3524 4.56495 14.3781 3.73264 13.6489 3.15724C13.2836 2.86906 12.9783 2.64412 12.7628 2.49023C12.655 2.41326 12.5696 2.35399 12.5103 2.31338ZM12.0018 3.7906C12.1902 3.92729 12.435 4.11017 12.7197 4.33482C13.4095 4.87906 14.3273 5.6636 15.2425 6.62566C17.1023 8.58067 18.82 11.1311 18.82 13.8068C18.82 17.5724 15.7674 20.625 12.0018 20.625C8.2362 20.625 5.18359 17.5724 5.18359 13.8068C5.18359 11.1311 6.90126 8.58067 8.76108 6.62566C9.67629 5.6636 10.594 4.87906 11.2838 4.33482C11.5685 4.11017 11.8134 3.92729 12.0018 3.7906Z" fill="#323544"/>
</svg>
