<svg width="24" height="24" viewBox="0 0 24 24" fill="none" xmlns="http://www.w3.org/2000/svg">
<path opacity="0.4" d="M18.2773 6.71004C18.5718 6.4698 19.0066 6.48722 19.2812 6.7618C19.5557 7.03638 19.5731 7.47115 19.3329 7.7657L19.2812 7.82235L9.86417 17.2393C9.57129 17.5321 9.0965 17.5321 8.80362 17.2393C8.51075 16.9465 8.5108 16.4717 8.80362 16.1788L18.2206 6.7618L18.2773 6.71004Z" fill="#323544"/>
<path d="M4.71984 12.0958C4.99445 11.8212 5.42917 11.8038 5.72375 12.0441L5.78039 12.0958L9.8634 16.1788L9.91516 16.2355C10.1556 16.5301 10.138 16.9647 9.8634 17.2394C9.58875 17.514 9.15408 17.5316 8.85949 17.2911L8.80285 17.2394L4.71984 13.1564L4.66809 13.0997C4.42778 12.8051 4.44524 12.3704 4.71984 12.0958Z" fill="#323544"/>
</svg>
