<svg width="24" height="24" viewBox="0 0 24 24" fill="none" xmlns="http://www.w3.org/2000/svg">
<path d="M11.25 6C11.25 5.58579 11.5858 5.25 12 5.25C12.4142 5.25 12.75 5.58579 12.75 6V11.2502V12.7502V18.0007C12.75 18.4149 12.4142 18.7507 12 18.7507C11.5858 18.7507 11.25 18.4149 11.25 18.0007V12.7502V11.2502V6Z" fill="#323544"/>
<g opacity="0.4">
<path d="M6 12.75H11.2502V11.25H6C5.58579 11.25 5.25 11.5858 5.25 12C5.25 12.4142 5.58579 12.75 6 12.75Z" fill="#323544"/>
<path d="M18.0007 11.25H12.7502V12.75H18.0007C18.4149 12.75 18.7507 12.4142 18.7507 12C18.7507 11.5858 18.4149 11.25 18.0007 11.25Z" fill="#323544"/>
</g>
</svg>
