<svg width="24" height="24" viewBox="0 0 24 24" fill="none" xmlns="http://www.w3.org/2000/svg">
<path d="M7.5 4.61914C7.5 3.16939 8.67525 1.99414 10.125 1.99414C10.8595 1.99414 11.5236 2.29582 12 2.78202C12.4764 2.29582 13.1405 1.99414 13.875 1.99414C15.3247 1.99414 16.5 3.16939 16.5 4.61914C16.5 5.03641 16.4026 5.43093 16.2294 5.78124H18.5081C19.7507 5.78124 20.7581 6.7886 20.7581 8.03124V8.49414C20.7581 8.54508 20.7564 8.59562 20.7531 8.64571C20.7031 9.39713 20.2842 10.0476 19.6759 10.4177C19.3355 10.6248 18.9357 10.7441 18.5081 10.7441H5.49219C5.06455 10.7441 4.66478 10.6248 4.32434 10.4177C3.67551 10.0229 3.24219 9.30915 3.24219 8.49414V8.03124C3.24219 6.7886 4.24955 5.78124 5.49219 5.78124H7.7706C7.59736 5.43093 7.5 5.03641 7.5 4.61914ZM12.75 5.74414H13.875C14.4963 5.74414 15 5.24046 15 4.61914C15 3.99782 14.4963 3.49414 13.875 3.49414C13.2537 3.49414 12.75 3.99782 12.75 4.61914V5.74414ZM11.25 4.61914C11.25 3.99782 10.7463 3.49414 10.125 3.49414C9.50368 3.49414 9 3.99782 9 4.61914C9 5.24046 9.50368 5.74414 10.125 5.74414H11.25V4.61914Z" fill="#323544"/>
<path d="M4.32434 11.528V18.9941C4.32434 20.2368 5.3317 21.2441 6.57434 21.2441H17.4259C18.6686 21.2441 19.6759 20.2368 19.6759 18.9941V11.528C19.3135 11.6676 18.9197 11.7441 18.5081 11.7441H5.49219C5.08055 11.7441 4.68678 11.6676 4.32434 11.528Z" fill="#323544"/>
</svg>
