<svg width="24" height="25" viewBox="0 0 24 25" fill="none" xmlns="http://www.w3.org/2000/svg">
<path d="M1.56641 4.98242C1.56641 4.56821 1.90219 4.23242 2.31641 4.23242H3.49696C4.61854 4.23242 5.56885 5.05844 5.72504 6.1691L5.7862 6.60403H19.7507C21.3714 6.60403 22.4605 8.26586 21.8137 9.75196L19.1464 15.8803C18.789 16.7014 17.9788 17.2324 17.0833 17.2324L7.72179 17.2324C6.60021 17.2324 5.6499 16.4064 5.49371 15.2957L4.23965 6.37798C4.18759 6.00776 3.87082 5.73242 3.49696 5.73242H2.31641C1.90219 5.73242 1.56641 5.39664 1.56641 4.98242Z" fill="#323544"/>
<path d="M7.7832 18.7324C6.8167 18.7324 6.0332 19.5159 6.0332 20.4824C6.0332 21.4489 6.8167 22.2324 7.7832 22.2324H7.7932C8.7597 22.2324 9.5432 21.4489 9.5432 20.4824C9.5432 19.5159 8.7597 18.7324 7.7932 18.7324H7.7832Z" fill="#323544"/>
<path d="M16.3203 18.7324C15.3538 18.7324 14.5703 19.5159 14.5703 20.4824C14.5703 21.4489 15.3538 22.2324 16.3203 22.2324H16.3303C17.2968 22.2324 18.0803 21.4489 18.0803 20.4824C18.0803 19.5159 17.2968 18.7324 16.3303 18.7324H16.3203Z" fill="#323544"/>
</svg>
