<svg width="24" height="25" viewBox="0 0 24 25" fill="none" xmlns="http://www.w3.org/2000/svg">
<path d="M1.56641 4.98242C1.56641 4.56821 1.90219 4.23242 2.31641 4.23242H3.49696C4.37456 4.23242 5.14722 4.73809 5.51674 5.49023H21.0662C21.3045 5.49023 21.5287 5.60354 21.6701 5.79548C21.8114 5.98741 21.8531 6.2351 21.7824 6.46274L19.8601 12.6504C19.5678 13.5915 18.6969 14.2329 17.7114 14.2329H6.85901L6.9791 15.0869C7.03116 15.4571 7.34793 15.7324 7.72179 15.7324L18.0664 15.7324C18.4806 15.7324 18.8164 16.0682 18.8164 16.4824C18.8164 16.8966 18.4806 17.2324 18.0664 17.2324L7.72179 17.2324C6.60021 17.2324 5.6499 16.4064 5.49371 15.2957L4.23965 6.37799L4.23709 6.36111C4.17805 5.99955 3.86513 5.73242 3.49696 5.73242H2.31641C1.90219 5.73242 1.56641 5.39664 1.56641 4.98242Z" fill="#323544"/>
<path d="M7.7832 18.7324C6.8167 18.7324 6.0332 19.5159 6.0332 20.4824C6.0332 21.4489 6.8167 22.2324 7.7832 22.2324H7.7932C8.7597 22.2324 9.5432 21.4489 9.5432 20.4824C9.5432 19.5159 8.7597 18.7324 7.7932 18.7324H7.7832Z" fill="#323544"/>
<path d="M16.3203 18.7324C15.3538 18.7324 14.5703 19.5159 14.5703 20.4824C14.5703 21.4489 15.3538 22.2324 16.3203 22.2324H16.3303C17.2968 22.2324 18.0803 21.4489 18.0803 20.4824C18.0803 19.5159 17.2968 18.7324 16.3303 18.7324H16.3203Z" fill="#323544"/>
</svg>
