<svg width="24" height="24" viewBox="0 0 24 24" fill="none" xmlns="http://www.w3.org/2000/svg">
<path d="M12.75 2C12.75 1.58579 12.4142 1.25 12 1.25C11.5858 1.25 11.25 1.58579 11.25 2V2.86106C11.1327 2.90253 11.0181 2.95404 10.9073 3.01557L5.6573 5.93223C4.94301 6.32907 4.5 7.08196 4.5 7.89909V19.7509C4.5 20.9935 5.50736 22.0009 6.75 22.0009H17.25C18.4926 22.0009 19.5 20.9935 19.5 19.7509V7.89909C19.5 7.08196 19.057 6.32907 18.3427 5.93223L13.0927 3.01557C12.9819 2.95404 12.8673 2.90253 12.75 2.86106V2ZM12.0001 4.85352C12.4972 4.85352 12.9002 5.25646 12.9002 5.75352C12.9002 6.25057 12.4973 6.65352 12.0002 6.65352C11.5031 6.65352 11.1001 6.25057 11.1001 5.75352C11.1001 5.25646 11.503 4.85352 12.0001 4.85352ZM12.75 9V9.43778C13.7408 9.58842 14.5 10.444 14.5 11.4768C14.5 11.8911 14.1642 12.2268 13.75 12.2268C13.3358 12.2268 13 11.8911 13 11.4768C13 11.1661 12.7481 10.9142 12.4374 10.9142H11.75C11.3358 10.9142 11 11.25 11 11.6642V11.9293C11 12.2419 11.1939 12.5218 11.4866 12.6316L13.0401 13.2141C13.9182 13.5435 14.5 14.383 14.5 15.3209V15.5859C14.5 16.6567 13.752 17.5528 12.75 17.7802V18.25C12.75 18.6642 12.4142 19 12 19C11.5858 19 11.25 18.6642 11.25 18.25V17.8124C10.2592 17.6618 9.5 16.8062 9.5 15.7733C9.5 15.3591 9.83579 15.0233 10.25 15.0233C10.6642 15.0233 11 15.3591 11 15.7733C11 16.0841 11.2519 16.3359 11.5626 16.3359H12.25C12.6642 16.3359 13 16.0002 13 15.5859V15.3209C13 15.0082 12.8061 14.7284 12.5134 14.6186L10.9599 14.036C10.0818 13.7067 9.5 12.8672 9.5 11.9293V11.6642C9.5 10.5934 10.248 9.69736 11.25 9.47V9C11.25 8.58579 11.5858 8.25 12 8.25C12.4142 8.25 12.75 8.58579 12.75 9Z" fill="#323544"/>
</svg>
