<svg width="24" height="24" viewBox="0 0 24 24" fill="none" xmlns="http://www.w3.org/2000/svg">
<path d="M9.32285 2.46471C9.24493 2.52445 9.1706 2.58954 9.10044 2.65975L4.75129 7.01162C4.68186 7.08109 4.61745 7.15463 4.55827 7.23169H8.57461C8.98903 7.23169 9.3249 6.89557 9.32461 6.48115L9.32285 2.46471Z" fill="#323544"/>
<path d="M4.09277 8.73169V16.7335C4.09277 17.9761 5.10013 18.9835 6.34277 18.9835H14.6414C15.884 18.9835 16.8914 17.9761 16.8914 16.7335V4.25024C16.8914 3.0076 15.884 2.00024 14.6414 2.00024H10.8226L10.8246 6.48008C10.8254 7.72325 9.81781 8.73169 8.57461 8.73169H4.09277Z" fill="#323544"/>
<path d="M19.1559 4.93306C19.5701 4.93306 19.9059 5.26884 19.9059 5.68306V17.25C19.9059 19.8733 17.7793 22 15.1559 22H7.79707C7.38285 22 7.04707 21.6642 7.04707 21.25C7.04707 20.8358 7.38285 20.5 7.79707 20.5H15.1559C16.9508 20.5 18.4059 19.0449 18.4059 17.25V5.68306C18.4059 5.26884 18.7417 4.93306 19.1559 4.93306Z" fill="#323544"/>
</svg>
