<svg width="24" height="24" viewBox="0 0 24 24" fill="none" xmlns="http://www.w3.org/2000/svg">
<path d="M4.5 19.75V9.75084H10.0004C11.2436 9.75084 12.2512 8.74244 12.2504 7.49924L12.2474 2H17.25C18.4926 2 19.5 3.00736 19.5 4.25V10.3782C18.6253 9.97492 17.6514 9.75 16.625 9.75C12.828 9.75 9.75 12.828 9.75 16.625C9.75 18.8006 10.7606 20.7403 12.338 22H6.75C5.50736 22 4.5 20.9926 4.5 19.75Z" fill="#323544"/>
<path d="M10.5262 2.65951C10.5961 2.58957 10.6701 2.52471 10.7477 2.46516L10.7504 7.5003C10.7507 7.91473 10.4148 8.25084 10.0004 8.25084H4.96533C5.02455 8.1737 5.08902 8.10008 5.15851 8.03055L10.5262 2.65951Z" fill="#323544"/>
<path d="M16.625 11.25C13.6565 11.25 11.25 13.6565 11.25 16.625C11.25 19.5935 13.6565 22 16.625 22C19.5935 22 22 19.5935 22 16.625C22 13.6565 19.5935 11.25 16.625 11.25ZM16.6251 14.2498C17.0393 14.2498 17.3751 14.5855 17.3751 14.9998V15.8748H18.2502C18.6644 15.8748 19.0002 16.2106 19.0002 16.6248C19.0002 17.039 18.6644 17.3748 18.2502 17.3748H17.3751V18.2499C17.3751 18.6642 17.0393 18.9999 16.6251 18.9999C16.2109 18.9999 15.8751 18.6642 15.8751 18.2499V17.3748H15C14.5858 17.3748 14.25 17.039 14.25 16.6248C14.25 16.2106 14.5858 15.8748 15 15.8748H15.8751V14.9998C15.8751 14.5855 16.2109 14.2498 16.6251 14.2498Z" fill="#323544"/>
</svg>
