<svg width="24" height="24" viewBox="0 0 24 24" fill="none" xmlns="http://www.w3.org/2000/svg">
<path d="M4.5 19.75V9.75084H10.0004C11.2436 9.75084 12.2512 8.74244 12.2504 7.49924L12.2474 2H17.25C18.4926 2 19.5 3.00736 19.5 4.25V11.218C19.1865 11.3257 18.8921 11.5046 18.642 11.7548L16.6243 13.7724L14.6066 11.7547C13.7279 10.876 12.3033 10.876 11.4246 11.7547C10.546 12.6334 10.546 14.058 11.4246 14.9367L13.4423 16.9544L11.4246 18.9721C10.5956 19.8011 10.5488 21.1161 11.284 22H6.75C5.50736 22 4.5 20.9926 4.5 19.75Z" fill="#323544"/>
<path d="M10.5262 2.65951C10.5961 2.58957 10.6701 2.52471 10.7477 2.46516L10.7504 7.5003C10.7507 7.91473 10.4148 8.25084 10.0004 8.25084H4.96533C5.02455 8.1737 5.08902 8.10008 5.15851 8.03055L10.5262 2.65951Z" fill="#323544"/>
<path d="M12.4853 12.8154C12.7782 12.5225 13.2531 12.5225 13.546 12.8154L16.6243 15.8937L19.7026 12.8155C19.9955 12.5226 20.4704 12.5226 20.7633 12.8155C21.0562 13.1084 21.0562 13.5832 20.7633 13.8761L17.685 16.9544L20.7633 20.0327C21.0562 20.3256 21.0562 20.8005 20.7633 21.0933C20.4704 21.3862 19.9955 21.3862 19.7026 21.0933L16.6243 18.0151L13.546 21.0934C13.2531 21.3863 12.7782 21.3863 12.4853 21.0934C12.1924 20.8005 12.1924 20.3257 12.4853 20.0328L15.5637 16.9544L12.4853 13.876C12.1924 13.5831 12.1924 13.1083 12.4853 12.8154Z" fill="#323544"/>
</svg>
