<svg width="24" height="24" viewBox="0 0 24 24" fill="none" xmlns="http://www.w3.org/2000/svg">
<path d="M4.5 19.75V9.75084H10.0004C11.2436 9.75084 12.2512 8.74244 12.2504 7.49924L12.2474 2H17.25C18.4926 2 19.5 3.00736 19.5 4.25V11.75H10.5C9.67157 11.75 9 12.4216 9 13.25V17.5058C9 18.3342 9.67157 19.0058 10.5 19.0058H19.5V19.75C19.5 20.9926 18.4926 22 17.25 22H6.75C5.50736 22 4.5 20.9926 4.5 19.75Z" fill="#323544"/>
<path d="M10.5262 2.65951C10.5961 2.58957 10.6701 2.52471 10.7477 2.46516L10.7504 7.5003C10.7507 7.91473 10.4148 8.25084 10.0004 8.25084H4.96533C5.02455 8.1737 5.08902 8.10008 5.15851 8.03055L10.5262 2.65951Z" fill="#323544"/>
<path d="M11.3543 17.4701C11.3704 17.4862 11.3926 17.4943 11.4208 17.4943H14.3291C14.3574 17.4943 14.3795 17.4862 14.3957 17.4701C14.4118 17.454 14.4198 17.4318 14.4198 17.4036V16.6115C14.4198 16.5833 14.4118 16.5611 14.3957 16.545C14.3795 16.5289 14.3574 16.5208 14.3291 16.5208H12.624C12.6119 16.5208 12.6039 16.5168 12.5998 16.5087C12.5958 16.5006 12.5978 16.4926 12.6059 16.4845L14.3775 14.338C14.4057 14.3098 14.4198 14.2715 14.4198 14.2231V13.3524C14.4198 13.3242 14.4118 13.302 14.3957 13.2859C14.3795 13.2698 14.3574 13.2617 14.3291 13.2617H11.4208C11.3926 13.2617 11.3704 13.2698 11.3543 13.2859C11.3381 13.302 11.3301 13.3242 11.3301 13.3524V14.1445C11.3301 14.1727 11.3381 14.1949 11.3543 14.211C11.3704 14.2271 11.3926 14.2352 11.4208 14.2352H13.1138C13.1259 14.2352 13.134 14.2392 13.138 14.2473C13.142 14.2554 13.14 14.2634 13.1319 14.2715L11.3724 16.418C11.3442 16.4502 11.3301 16.4865 11.3301 16.5268V17.4036C11.3301 17.4318 11.3381 17.454 11.3543 17.4701Z" fill="#323544"/>
<path d="M14.907 17.4943C14.8787 17.4943 14.8566 17.4862 14.8405 17.4701C14.8243 17.454 14.8163 17.4318 14.8163 17.4036V13.3524C14.8163 13.3242 14.8243 13.302 14.8405 13.2859C14.8566 13.2698 14.8787 13.2617 14.907 13.2617H15.8623C15.8905 13.2617 15.9127 13.2698 15.9288 13.2859C15.945 13.302 15.953 13.3242 15.953 13.3524V17.4036C15.953 17.4318 15.945 17.454 15.9288 17.4701C15.9127 17.4862 15.8905 17.4943 15.8623 17.4943H14.907Z" fill="#323544"/>
<path d="M19.0224 13.4371C18.8048 13.3202 18.5528 13.2617 18.2666 13.2617H16.495C16.4668 13.2617 16.4446 13.2698 16.4285 13.2859C16.4124 13.302 16.4043 13.3242 16.4043 13.3524V17.4036C16.4043 17.4318 16.4124 17.454 16.4285 17.4701C16.4446 17.4862 16.4668 17.4943 16.495 17.4943H17.4503C17.4786 17.4943 17.5007 17.4862 17.5169 17.4701C17.533 17.454 17.541 17.4318 17.541 17.4036V16.0431C17.541 16.023 17.5511 16.0129 17.5713 16.0129H18.2122C18.5065 16.0129 18.7665 15.9564 18.9922 15.8436C19.2179 15.7307 19.3933 15.5715 19.5183 15.3659C19.6432 15.1603 19.7057 14.9225 19.7057 14.6524C19.7057 14.3783 19.6452 14.1364 19.5243 13.9268C19.4074 13.7132 19.2401 13.5499 19.0224 13.4371ZM18.0792 15.1059H17.5713C17.5511 15.1059 17.541 15.0958 17.541 15.0757V14.2654C17.541 14.2453 17.5511 14.2352 17.5713 14.2352H18.0792C18.2283 14.2352 18.3472 14.2755 18.4359 14.3561C18.5286 14.4368 18.575 14.5436 18.575 14.6766C18.575 14.8056 18.5286 14.9104 18.4359 14.991C18.3472 15.0676 18.2283 15.1059 18.0792 15.1059Z" fill="#323544"/>
</svg>
