<svg width="24" height="24" viewBox="0 0 24 24" fill="none" xmlns="http://www.w3.org/2000/svg">
<path d="M4.5 19.75V9.75084H10.0004C11.2436 9.75084 12.2512 8.74244 12.2504 7.49924L12.2474 2H17.25C18.4926 2 19.5 3.00736 19.5 4.25V10.7956C18.7047 10.1816 17.7075 9.81641 16.625 9.81641C14.0243 9.81641 11.916 11.9247 11.916 14.5254C11.916 15.7681 12.9234 16.7754 14.166 16.7754C14.4038 16.7754 14.6329 16.7385 14.8481 16.6702C14.5786 17.1641 14.375 17.7721 14.375 18.4844C14.375 18.9905 14.5421 19.4576 14.8242 19.8335C14.5421 20.2094 14.375 20.6765 14.375 21.1826C14.375 21.471 14.4293 21.7466 14.5281 22H6.75C5.50736 22 4.5 20.9926 4.5 19.75Z" fill="#323544"/>
<path d="M10.5262 2.65951C10.5961 2.58957 10.6701 2.52471 10.7477 2.46516L10.7504 7.5003C10.7507 7.91473 10.4148 8.25084 10.0004 8.25084H4.96533C5.02455 8.1737 5.08902 8.10008 5.15851 8.03055L10.5262 2.65951Z" fill="#323544"/>
<path d="M16.625 12.8164C15.6812 12.8164 14.916 13.5816 14.916 14.5254C14.916 14.9396 14.5802 15.2754 14.166 15.2754C13.7518 15.2754 13.416 14.9396 13.416 14.5254C13.416 12.7531 14.8527 11.3164 16.625 11.3164C18.3973 11.3164 19.834 12.7531 19.834 14.5254C19.834 15.6145 19.2908 16.5766 18.4639 17.1555C18.1428 17.3804 17.8556 17.6134 17.6526 17.8586C17.4524 18.1004 17.375 18.3034 17.375 18.4844C17.375 18.8986 17.0392 19.2344 16.625 19.2344C16.2108 19.2344 15.875 18.8986 15.875 18.4844C15.875 17.837 16.1627 17.306 16.4972 16.902C16.8289 16.5014 17.2461 16.1771 17.6036 15.9268C18.0468 15.6165 18.334 15.1044 18.334 14.5254C18.334 13.5816 17.5689 12.8164 16.625 12.8164ZM15.875 21.1826C15.875 20.7684 16.2108 20.4326 16.625 20.4326H16.635C17.0492 20.4326 17.385 20.7684 17.385 21.1826C17.385 21.5968 17.0492 21.9326 16.635 21.9326H16.625C16.2108 21.9326 15.875 21.5968 15.875 21.1826Z" fill="#323544"/>
</svg>
