<svg width="24" height="24" viewBox="0 0 24 24" fill="none" xmlns="http://www.w3.org/2000/svg">
<path d="M4.5 19.75V9.75084H10.0004C11.2436 9.75084 12.2512 8.74244 12.2504 7.49924L12.2474 2H17.25C18.4926 2 19.5 3.00736 19.5 4.25V10.3558C18.5288 10.2242 17.5096 10.5316 16.7631 11.2781L11.6049 16.4363C11.0001 17.041 10.6203 17.8343 10.5283 18.6846L10.3392 20.4315C10.2786 20.9923 10.431 21.551 10.7588 22H6.75C5.50736 22 4.5 20.9926 4.5 19.75Z" fill="#323544"/>
<path d="M10.5262 2.65951C10.5961 2.58957 10.6701 2.52471 10.7477 2.46516L10.7504 7.5003C10.7507 7.91473 10.4148 8.25084 10.0004 8.25084H4.96533C5.02455 8.1737 5.08902 8.10008 5.15851 8.03055L10.5262 2.65951Z" fill="#323544"/>
<path d="M20.2986 12.3387C19.6152 11.6553 18.5072 11.6553 17.8237 12.3387L17.1382 13.0243L20.2254 16.1115L20.911 15.426C21.5944 14.7425 21.5944 13.6345 20.911 12.9511L20.2986 12.3387Z" fill="#323544"/>
<path d="M19.1647 17.1722L16.0775 14.085L12.6655 17.497C12.3027 17.8598 12.0748 18.3358 12.0196 18.8459L11.8305 20.5928C11.8061 20.8186 11.8853 21.0433 12.0458 21.2038C12.2064 21.3644 12.4311 21.4436 12.6569 21.4192L14.4038 21.2301C14.9139 21.1749 15.3899 20.947 15.7527 20.5842L19.1647 17.1722Z" fill="#323544"/>
</svg>
