<svg width="24" height="24" viewBox="0 0 24 24" fill="none" xmlns="http://www.w3.org/2000/svg">
<path fill-rule="evenodd" clip-rule="evenodd" d="M7.28031 7.46965C7.57321 7.76253 7.57323 8.2374 7.28035 8.53031L3.81064 12.0003L7.28033 15.47C7.57322 15.7629 7.57322 16.2378 7.28033 16.5307C6.98744 16.8236 6.51256 16.8236 6.21967 16.5307L2.21967 12.5307C1.92679 12.2378 1.92678 11.763 2.21965 11.4701L6.21965 7.46969C6.51253 7.17679 6.9874 7.17677 7.28031 7.46965ZM16.7197 7.46965C17.0126 7.17677 17.4875 7.17679 17.7804 7.46969L21.7804 11.4701C22.0732 11.763 22.0732 12.2378 21.7803 12.5307L17.7803 16.5307C17.4874 16.8236 17.0126 16.8236 16.7197 16.5307C16.4268 16.2378 16.4268 15.7629 16.7197 15.47L20.1894 12.0003L16.7196 8.53031C16.4268 8.2374 16.4268 7.76253 16.7197 7.46965ZM9.47754 9.50008C9.47754 8.25744 10.4849 7.25008 11.7275 7.25008H13.7726C14.1868 7.25008 14.5226 7.58587 14.5226 8.00008C14.5226 8.4143 14.1868 8.75008 13.7726 8.75008H11.7275C11.3133 8.75008 10.9775 9.08587 10.9775 9.50008V10.5003C10.9775 10.9145 11.3133 11.2503 11.7275 11.2503H12.2726C13.5153 11.2503 14.5226 12.2576 14.5226 13.5003V14.5005C14.5226 15.7431 13.5153 16.7505 12.2726 16.7505H10.2275C9.81333 16.7505 9.47754 16.4147 9.47754 16.0005C9.47754 15.5863 9.81333 15.2505 10.2275 15.2505H12.2726C12.6868 15.2505 13.0226 14.9147 13.0226 14.5005V13.5003C13.0226 13.0861 12.6868 12.7503 12.2726 12.7503H11.7275C10.4849 12.7503 9.47754 11.7429 9.47754 10.5003V9.50008Z" fill="#323544"/>
</svg>
