<svg width="24" height="24" viewBox="0 0 24 24" fill="none" xmlns="http://www.w3.org/2000/svg">
<path d="M17.0901 6.63241L14.9861 4.52838C14.6932 4.23548 14.6932 3.76061 14.9861 3.46772C15.279 3.17482 15.7539 3.17482 16.0468 3.46772L18.1508 5.57175L18.6806 5.04194C18.9735 4.74904 19.4484 4.74904 19.7413 5.04194C20.0342 5.33483 20.0342 5.8097 19.7413 6.1026L13.6972 12.1466C15.2864 14.2519 15.1218 17.2598 13.2036 19.1781C11.1053 21.2763 7.70326 21.2763 5.60497 19.1781C3.50668 17.0798 3.50668 13.6778 5.60497 11.5795C7.52332 9.66111 10.5314 9.4966 12.6366 11.0859L14.9706 8.75195L13.9272 7.70853C13.6343 7.41563 13.6343 6.94076 13.9272 6.64787C14.2201 6.35497 14.6949 6.35497 14.9878 6.64787L16.0312 7.69129L17.0901 6.63241Z" fill="#323544"/>
</svg>
