<svg width="24" height="24" viewBox="0 0 24 24" fill="none" xmlns="http://www.w3.org/2000/svg">
<path fill-rule="evenodd" clip-rule="evenodd" d="M10.5 2.75C10.5 2.33579 10.8358 2 11.25 2H12.75C12.9489 2 13.1397 2.07902 13.2803 2.21967C13.3602 2.29952 13.4202 2.39552 13.4571 2.5H14C14.4142 2.5 14.75 2.83579 14.75 3.25C14.75 3.66421 14.4142 4 14 4H13.5V4.91726C16.506 5.59936 18.75 8.28762 18.75 11.5V19.75C18.75 20.9926 17.7426 22 16.5 22H7.5C6.25736 22 5.25 20.9926 5.25 19.75V11.5C5.25 8.28762 7.49402 5.59936 10.5 4.91726V2.75ZM6.75 11.5C6.75 8.60051 9.10051 6.25 12 6.25C14.8995 6.25 17.25 8.60051 17.25 11.5V12.25H6.75V11.5ZM17.25 13.75V19.75C17.25 20.1642 16.9142 20.5 16.5 20.5H7.5C7.08579 20.5 6.75 20.1642 6.75 19.75V13.75H17.25Z" fill="#323544"/>
</svg>
