<svg width="24" height="24" viewBox="0 0 24 24" fill="none" xmlns="http://www.w3.org/2000/svg">
<path d="M5.58626 10.8123C5.37318 10.53 4.96684 10.4155 4.62097 10.6152C4.26615 10.82 3.81244 10.6985 3.60758 10.3436L2.84953 9.03065C2.64466 8.67582 2.76624 8.2221 3.12107 8.01723C3.61565 7.73169 3.61564 7.01782 3.12106 6.73227C2.76623 6.52741 2.64465 6.07368 2.84952 5.71885L3.60757 4.40587C3.81243 4.05104 4.26614 3.92947 4.62096 4.13433C5.11553 4.41987 5.73374 4.06294 5.73374 3.49186C5.73374 3.08214 6.06589 2.75 6.4756 2.75H7.9917C8.40143 2.75 8.73358 3.08215 8.73358 3.49188C8.73358 4.06298 9.35181 4.41991 9.8464 4.13436C10.2012 3.9295 10.655 4.05107 10.8598 4.40591L11.2758 5.12647M12.517 20.1674C12.517 19.334 11.6145 18.8132 10.8928 19.23C10.3748 19.529 9.71239 19.3516 9.41336 18.8337L8.30748 16.9182C8.00838 16.4002 8.18609 15.7376 8.70416 15.4385C9.426 15.0217 9.42637 13.9796 8.70453 13.5629C8.18665 13.2639 8.00921 12.6017 8.30821 12.0838L9.41447 10.1677C9.71339 9.64993 10.3755 9.47257 10.8933 9.7715C11.6149 10.1881 12.517 9.66741 12.517 8.83417C12.517 8.23638 13.0016 7.75177 13.5994 7.75177H15.8121C16.4101 7.75177 16.8948 8.23667 16.8948 8.8346C16.8948 9.66781 17.7968 10.1889 18.5184 9.77227C19.0361 9.47338 19.698 9.65075 19.9969 10.1684L21.1036 12.0852C21.4024 12.6028 21.2251 13.2646 20.7075 13.5634C19.9861 13.9799 19.9864 15.0214 20.7078 15.4379C21.2256 15.7369 21.4032 16.399 21.1043 16.9168L19.998 18.8329C19.699 19.3508 19.0368 19.5282 18.5189 19.2292C17.7971 18.8125 16.8948 19.3335 16.8948 20.1671C16.8948 20.7651 16.41 21.25 15.8119 21.25H13.5996C13.0017 21.25 12.517 20.7653 12.517 20.1674ZM17.0206 14.5013C17.0206 15.7799 15.9842 16.8163 14.7056 16.8163C13.4271 16.8163 12.3906 15.7799 12.3906 14.5013C12.3906 13.2228 13.4271 12.1863 14.7056 12.1863C15.9842 12.1863 17.0206 13.2228 17.0206 14.5013Z" stroke="#323544" stroke-width="1.5" stroke-linecap="round" stroke-linejoin="round"/>
<path d="M7.22852 7.375H7.23852" stroke="#323544" stroke-width="3" stroke-linecap="round" stroke-linejoin="round"/>
</svg>
