<svg width="24" height="24" viewBox="0 0 24 24" fill="none" xmlns="http://www.w3.org/2000/svg">
<path d="M6.77577 5.51906C6.0659 5.10922 5.15808 5.35238 4.74824 6.06225L3.23225 8.68803C2.8225 9.39774 3.06567 10.3052 3.77537 10.715C4.76459 11.2861 4.7646 12.7139 3.77538 13.285C3.06568 13.6948 2.82252 14.6023 3.23227 15.312L4.74827 17.9378C5.15811 18.6476 6.06592 18.8908 6.77579 18.481C7.76511 17.9098 9.00194 18.6237 9.00194 19.766C9.00194 20.5856 9.66634 21.25 10.4859 21.25H13.5183C14.3377 21.25 15.0019 20.5856 15.0019 19.7663C15.0019 18.6243 16.2381 17.9104 17.2271 18.4813C17.9366 18.891 18.8439 18.6479 19.2535 17.9384L20.7699 15.3119C21.1796 14.6022 20.9365 13.6948 20.2268 13.285C19.2376 12.7139 19.2376 11.2861 20.2268 10.715C20.9365 10.3053 21.1797 9.39779 20.7699 8.6881L19.2536 6.06167C18.8439 5.35214 17.9366 5.10904 17.2271 5.51869C16.2381 6.08967 15.0019 5.37573 15.0019 4.23377C15.0019 3.41437 14.3377 2.75 13.5183 2.75L10.4859 2.75C9.66634 2.75 9.00194 3.41441 9.00194 4.23399C9.00194 5.37637 7.7651 6.09025 6.77577 5.51906Z" stroke="#323544" stroke-width="1.5" stroke-linecap="round" stroke-linejoin="round"/>
<path d="M15.086 11.9999C15.086 13.7037 13.7048 15.0849 12.001 15.0849C10.2972 15.0849 8.91602 13.7037 8.91602 11.9999C8.91602 10.2961 10.2972 8.91493 12.001 8.91493C13.7048 8.91493 15.086 10.2961 15.086 11.9999Z" stroke="#323544" stroke-width="1.5" stroke-linecap="round" stroke-linejoin="round"/>
</svg>
