<svg width="24" height="24" viewBox="0 0 24 24" fill="none" xmlns="http://www.w3.org/2000/svg">
<path d="M5.62402 8.75L6.28941 19.8398C6.33694 20.6319 6.99319 21.25 7.78672 21.25H16.2113C17.0049 21.25 17.6611 20.632 17.7086 19.8398L18.374 8.75M13.749 17.2783L13.9732 12.7217M10.249 17.2783L10.0249 12.7217M15.249 5.75V4.25C15.249 3.42157 14.5775 2.75 13.749 2.75H10.249C9.4206 2.75 8.74902 3.42157 8.74902 4.25V5.75M5.5 8.75H18.498C19.3265 8.75 19.998 8.07843 19.998 7.25C19.998 6.42157 19.3265 5.75 18.498 5.75H5.5C4.67157 5.75 4 6.42157 4 7.25C4 8.07843 4.67157 8.75 5.5 8.75Z" stroke="#323544" stroke-width="1.5" stroke-linecap="round" stroke-linejoin="round"/>
</svg>
