<svg width="24" height="24" viewBox="0 0 24 24" fill="none" xmlns="http://www.w3.org/2000/svg">
<path d="M8.91667 14.25H4.25C3.42157 14.25 2.75 14.9216 2.75 15.75V18.75H8.91667M8.91667 14.25V18.75M8.91667 14.25H15.0837M8.91667 18.75H15.0837M15.0837 14.25V18.75M15.0837 14.25H19.7497C20.5781 14.25 21.2497 14.9216 21.2497 15.75V18.75H15.0837M12.0007 9.75H7.33398C6.50556 9.75 5.83398 10.4216 5.83398 11.25V14.25H12.0007M12.0007 9.75V14.25M12.0007 9.75H16.6667C17.4951 9.75 18.1667 10.4216 18.1667 11.25V14.25H12.0007M10.417 5.25H13.5837C14.4121 5.25 15.0837 5.92157 15.0837 6.75V9.75H8.91699V6.75C8.91699 5.92157 9.58857 5.25 10.417 5.25Z" stroke="#323544" stroke-width="1.5" stroke-linecap="round" stroke-linejoin="round"/>
</svg>
