<svg width="25" height="24" viewBox="0 0 25 24" fill="none" xmlns="http://www.w3.org/2000/svg">
<path d="M2.5 9.5H3.5M3.83975 4.5L4.70577 5M3.83975 14.5L4.70577 14M21.5 9.5H22.5M20.2949 14L21.1609 14.5M20.2949 5L21.1609 4.5M9.69763 17.25H15.3025M9.69763 17.25C9.41007 16.1359 8.63063 15.1559 7.78415 14.3292C6.52912 13.1036 5.75 11.3927 5.75 9.49987C5.75 5.77202 8.77202 2.75 12.4999 2.75C16.2277 2.75 19.2498 5.77202 19.2498 9.49987C19.2498 11.3926 18.4707 13.1033 17.2158 14.329C16.3694 15.1558 15.59 16.1358 15.3025 17.25M9.69763 17.25C9.77313 17.5425 9.81472 17.8442 9.81472 18.1549L9.8125 19.75C9.8125 20.5784 10.4841 21.25 11.3125 21.25H13.6855C14.514 21.25 15.1855 20.5784 15.1855 19.75V18.1544C15.1855 17.8439 15.2271 17.5424 15.3025 17.25" stroke="#323544" stroke-width="1.5" stroke-linecap="round" stroke-linejoin="round"/>
</svg>
