<svg width="25" height="24" viewBox="0 0 25 24" fill="none" xmlns="http://www.w3.org/2000/svg">
<path d="M15.3025 17.25H9.69763M12.5 11.2194V17.25M10.5939 9.93465L11.4395 10.7801C12.0253 11.3658 12.975 11.3658 13.5607 10.7801L14.4061 9.93465M13.6855 21.25H11.3125C10.4841 21.25 9.8125 20.5784 9.8125 19.75L9.81472 18.1549C9.81472 16.661 8.85285 15.373 7.78415 14.3292C6.52912 13.1036 5.75 11.3927 5.75 9.49987C5.75 5.77202 8.77202 2.75 12.4999 2.75C16.2277 2.75 19.2497 5.77202 19.2497 9.49987C19.2497 11.3926 18.4707 13.1033 17.2158 14.329C16.1473 15.3727 15.1855 16.6607 15.1855 18.1544V19.75C15.1855 20.5784 14.514 21.25 13.6855 21.25Z" stroke="#323544" stroke-width="1.5" stroke-linecap="round" stroke-linejoin="round"/>
</svg>
