<svg width="25" height="24" viewBox="0 0 25 24" fill="none" xmlns="http://www.w3.org/2000/svg">
<path d="M16.8121 15.5621C16.8121 16.4943 17.5678 17.25 18.5 17.25C19.4322 17.25 20.1879 16.4943 20.1879 15.5621C20.1879 14.979 19.8922 14.4649 19.4425 14.1617C18.9846 13.8529 18.5 13.4265 18.5 12.8743L18.4998 9.24924M6 6.25L10 6.25M6 6.25H4.75C3.92157 6.25 3.25 6.92157 3.25 7.75C3.25 8.57843 3.92157 9.25 4.75 9.25H6M6 6.25V5.5C6 4.67157 6.67157 4 7.5 4H8.5C9.32843 4 10 4.67157 10 5.5V6.25M6 9.25H10M6 9.25V18.75H10V9.25M10 9.25L19 9.25C19.8284 9.25 20.5 8.57843 20.5 7.75C20.5 6.92157 19.8284 6.25 19 6.25L10 6.25" stroke="#323544" stroke-width="1.5" stroke-linecap="round" stroke-linejoin="round"/>
</svg>
