<svg width="25" height="24" viewBox="0 0 25 24" fill="none" xmlns="http://www.w3.org/2000/svg">
<path d="M10.5 7.25V5.18945M14.5 7.25V5.18945M12.5 15.3594V12.8594M12.5 15.3594L15.5 15.3594M12.5 15.3594L9.5 15.3594M15.5 15.3594V12.8594M15.5 15.3594L20.6326 15.3594M9.5 15.3594V12.8594M9.5 15.3594H4.36743M20.6326 15.3594C20.708 15.1956 20.75 15.0134 20.75 14.8213V13.1954C20.75 9.32873 18.09 6.08337 14.5 5.18945M20.6326 15.3594H21.75V16.8594L3.25 16.8594L3.25 15.3594H4.36743M20.6326 15.3594L4.36743 15.3594M4.36743 15.3594C4.29204 15.1956 4.25 15.0134 4.25 14.8213V13.1954C4.25 9.32873 6.91005 6.08337 10.5 5.18945M10.5 5.18945V4.75C10.5 3.92157 11.1716 3.25 12 3.25L13 3.25C13.8284 3.25 14.5 3.92157 14.5 4.75V5.18945" stroke="#323544" stroke-width="1.5" stroke-linecap="round" stroke-linejoin="round"/>
</svg>
