<svg width="25" height="24" viewBox="0 0 25 24" fill="none" xmlns="http://www.w3.org/2000/svg">
<path d="M17.7187 4.75H19.0002C19.8286 4.75 20.5002 5.42157 20.5002 6.25L20.5002 8.25C20.5002 9.07842 19.8286 9.75 19.0002 9.75H14.7275M11.6089 13.25V11.25C11.6089 10.4216 12.2804 9.75 13.1089 9.75L16.6904 9.75M11.6089 13.25C12.4373 13.25 13.1084 13.9216 13.1084 14.75V19.75C13.1084 20.5784 12.4368 21.25 11.6084 21.25C10.78 21.25 10.1084 20.5784 10.1084 19.75V14.75C10.1084 13.9216 10.7804 13.25 11.6089 13.25ZM17.6084 5.25V4.25C17.6084 3.42157 16.9368 2.75 16.1084 2.75L7.1084 2.75C6.27997 2.75 5.6084 3.42157 5.6084 4.25L5.6084 5.25C5.6084 6.07843 6.27997 6.75 7.1084 6.75L16.1084 6.75C16.9368 6.75 17.6084 6.07843 17.6084 5.25Z" stroke="#323544" stroke-width="1.5" stroke-linecap="round" stroke-linejoin="round"/>
</svg>
