<svg width="25" height="24" viewBox="0 0 25 24" fill="none" xmlns="http://www.w3.org/2000/svg">
<path d="M15.0859 7.94922L20.3726 7.94922M4.50146 7.19922L8.2396 7.19922M4.50146 10.3984H8.2396M4.50146 13.5977H8.2396M4.50146 16.7969H8.2396M6.00098 4L10.5861 4C11.4145 4 12.0861 4.67157 12.0861 5.5L12.0861 18.4978C12.0861 19.3262 11.4145 19.9978 10.5861 19.9978H6.00098C5.17255 19.9978 4.50098 19.3262 4.50098 18.4978L4.50098 5.5C4.50098 4.67157 5.17255 4 6.00098 4ZM16.5859 4L19.0002 4C19.8286 4 20.5002 4.67157 20.5002 5.5V16.5814C20.5002 16.8538 20.4259 17.1211 20.2855 17.3546L19.0784 19.3612C18.4954 20.3302 17.0906 20.3302 16.5077 19.3612L15.3006 17.3546C15.1601 17.1211 15.0859 16.8538 15.0859 16.5814V5.5C15.0859 4.67157 15.7575 4 16.5859 4Z" stroke="#323544" stroke-width="1.5" stroke-linecap="round" stroke-linejoin="round"/>
</svg>
