<svg width="25" height="24" viewBox="0 0 25 24" fill="none" xmlns="http://www.w3.org/2000/svg">
<path d="M10.6512 13.8476L14.9051 9.59371M20.6712 5.71698L18.231 13.27C17.8863 14.3368 16.5358 14.6622 15.743 13.8695L10.6302 8.75669C9.83745 7.96392 10.1629 6.61335 11.2297 6.26867L18.7827 3.82848C19.9468 3.4524 21.0473 4.55292 20.6712 5.71698ZM4.69129 19.591L4.91023 19.8099C5.49602 20.3957 6.44577 20.3957 7.03155 19.8099L10.7609 16.0806C11.3467 15.4948 11.3467 14.545 10.7609 13.9592L10.5419 13.7403C9.95615 13.1545 9.00641 13.1545 8.42062 13.7403L4.69129 17.4696C4.10551 18.0554 4.10551 19.0052 4.69129 19.591Z" stroke="#323544" stroke-width="1.5" stroke-linecap="round" stroke-linejoin="round"/>
</svg>
