<svg width="25" height="24" viewBox="0 0 25 24" fill="none" xmlns="http://www.w3.org/2000/svg">
<path d="M3.25098 5.20703H3.9353C4.76373 5.20703 5.4353 5.8786 5.4353 6.70703V17.5273C5.4353 18.2256 6.00145 18.7918 6.69983 18.7918C7.24817 18.7918 7.73402 18.4384 7.90289 17.9167L8.96714 14.6288M14.4783 15.9027C14.5614 14.4696 15.75 13.333 17.204 13.333C17.4687 13.333 17.7246 13.3707 17.9666 13.4409M14.4783 15.9027L5.43534 13.4526V7.85621H21.7502L17.9666 13.4409M14.4783 15.9027C14.4752 15.9559 14.4736 16.0095 14.4736 16.0634C14.4736 17.5714 15.6961 18.7938 17.204 18.7938C18.712 18.7938 19.9344 17.5714 19.9344 16.0634C19.9344 14.8201 19.1034 13.7709 17.9666 13.4409" stroke="#323544" stroke-width="1.5" stroke-linecap="round" stroke-linejoin="round"/>
</svg>
