<svg width="24" height="24" viewBox="0 0 24 24" fill="none" xmlns="http://www.w3.org/2000/svg">
<path d="M5.35281 2.61368C5.69063 2.37399 5.77017 1.90583 5.53048 1.56801C5.29079 1.23019 4.82262 1.15065 4.48481 1.39034C3.25694 2.26156 2.18702 3.34053 1.3261 4.5762C1.08931 4.91606 1.17287 5.38353 1.51273 5.62031C1.85259 5.8571 2.32006 5.77354 2.55684 5.43368C3.31882 4.34002 4.26601 3.38481 5.35281 2.61368Z" fill="#323544"/>
<path d="M19.5143 1.39034C19.1765 1.15065 18.7083 1.23019 18.4686 1.56801C18.2289 1.90583 18.3085 2.37399 18.6463 2.61368C19.7331 3.38481 20.6803 4.34002 21.4423 5.43368C21.6791 5.77354 22.1465 5.8571 22.4864 5.62031C22.8263 5.38353 22.9098 4.91606 22.673 4.5762C21.8121 3.34053 20.7422 2.26156 19.5143 1.39034Z" fill="#323544"/>
<path d="M11.9997 1.99988C6.47706 1.99988 2.00007 6.47688 2.00007 11.9995C2.00007 17.5222 6.47706 21.9992 11.9997 21.9992C17.5224 21.9992 21.9994 17.5222 21.9994 11.9995C21.9994 6.47688 17.5224 1.99988 11.9997 1.99988ZM11.2495 6.5C11.2495 6.08579 11.5853 5.75 11.9995 5.75C12.4137 5.75 12.7495 6.08579 12.7495 6.5V11.6891L15.3582 14.2978C15.6511 14.5907 15.6511 15.0656 15.3582 15.3584C15.0653 15.6513 14.5904 15.6513 14.2975 15.3584L11.4692 12.5301L11.2495 11.9997V6.5Z" fill="#323544"/>
</svg>
