<svg width="24" height="24" viewBox="0 0 24 24" fill="none" xmlns="http://www.w3.org/2000/svg">
<path d="M4 3.25C3.58579 3.25 3.25 3.58579 3.25 4C3.25 4.41421 3.58579 4.75 4 4.75H5.25V6.00002C5.25 8.61221 6.73382 10.8778 8.90458 12C6.73382 13.1222 5.25 15.3878 5.25 18L5.25 19.25H4C3.58579 19.25 3.25 19.5858 3.25 20C3.25 20.4142 3.58579 20.75 4 20.75L20 20.75C20.4142 20.75 20.75 20.4142 20.75 20C20.75 19.5858 20.4142 19.25 20 19.25H18.75V18C18.75 15.3878 17.2662 13.1222 15.0954 12C17.2662 10.8778 18.75 8.61221 18.75 6.00002V4.75H20C20.4142 4.75 20.75 4.41421 20.75 4C20.75 3.58579 20.4142 3.25 20 3.25H4Z" fill="#323544"/>
</svg>
