<svg width="24" height="25" viewBox="0 0 24 25" fill="none" xmlns="http://www.w3.org/2000/svg">
<path opacity="0.4" d="M2 11.748C2 6.64029 6.14154 2.5 11.25 2.5C16.3585 2.5 20.5 6.64029 20.5 11.748C20.5 14.0327 19.6713 16.1239 18.2981 17.7375L21.7791 21.2185C22.072 21.5114 22.072 21.9862 21.7791 22.2791C21.4862 22.572 21.0113 22.572 20.7184 22.2791L17.2371 18.7977C15.6235 20.1688 13.5334 20.9959 11.25 20.9959C6.14154 20.9959 2 16.8556 2 11.748ZM6.62213 10.9986C6.20792 10.9986 5.87213 11.3344 5.87213 11.7486C5.87213 12.1628 6.20792 12.4986 6.62213 12.4986H15.8721C16.2863 12.4986 16.6221 12.1628 16.6221 11.7486C16.6221 11.3344 16.2863 10.9986 15.8721 10.9986H6.62213Z" fill="#323544"/>
<path d="M5.87305 11.749C5.87305 11.3348 6.20883 10.999 6.62305 10.999H15.873C16.2873 10.999 16.623 11.3348 16.623 11.749C16.623 12.1632 16.2873 12.499 15.873 12.499H6.62305C6.20883 12.499 5.87305 12.1632 5.87305 11.749Z" fill="#323544"/>
</svg>
