<svg width="24" height="25" viewBox="0 0 24 25" fill="none" xmlns="http://www.w3.org/2000/svg">
<path opacity="0.4" d="M2 11.748C2 6.64029 6.14154 2.5 11.25 2.5C16.3585 2.5 20.5 6.64029 20.5 11.748C20.5 14.0327 19.6713 16.1239 18.2981 17.7375L21.7791 21.2185C22.072 21.5114 22.072 21.9862 21.7791 22.2791C21.4862 22.572 21.0113 22.572 20.7184 22.2791L17.2371 18.7977C15.6235 20.1688 13.5334 20.9959 11.25 20.9959C6.14154 20.9959 2 16.8556 2 11.748ZM11.9967 7.12529C11.9967 6.71108 11.6609 6.37529 11.2467 6.37529C10.8325 6.37529 10.4967 6.71108 10.4967 7.12529V10.9984H6.62359C6.20937 10.9984 5.87359 11.3342 5.87359 11.7484C5.87359 12.1626 6.20937 12.4984 6.62359 12.4984H10.4967V16.3722C10.4967 16.7865 10.8325 17.1222 11.2467 17.1222C11.6609 17.1222 11.9967 16.7865 11.9967 16.3722V12.4984H15.8705C16.2848 12.4984 16.6205 12.1626 16.6205 11.7484C16.6205 11.3342 16.2848 10.9984 15.8705 10.9984H11.9967V7.12529Z" fill="#323544"/>
<path d="M11.2462 6.375C11.6604 6.375 11.9962 6.71079 11.9962 7.125V10.9981H15.87C16.2842 10.9981 16.62 11.3339 16.62 11.7481C16.62 12.1623 16.2842 12.4981 15.87 12.4981H11.9962V16.372C11.9962 16.7862 11.6604 17.122 11.2462 17.122C10.832 17.122 10.4962 16.7862 10.4962 16.372V12.4981H6.62305C6.20883 12.4981 5.87305 12.1623 5.87305 11.7481C5.87305 11.3339 6.20883 10.9981 6.62305 10.9981H10.4962V7.125C10.4962 6.71079 10.832 6.375 11.2462 6.375Z" fill="#323544"/>
</svg>
