<svg width="24" height="25" viewBox="0 0 24 25" fill="none" xmlns="http://www.w3.org/2000/svg">
<path d="M20.5 11.749C20.5 16.8567 16.3584 20.9971 11.25 20.9971C6.14156 20.9971 2.00004 16.8567 2 11.749C2 6.64134 6.14154 2.50098 11.25 2.50098C16.3585 2.50098 20.5 6.64134 20.5 11.749Z" fill="#323544"/>
<path opacity="0.4" d="M16.7277 17.2296C17.0023 16.955 17.437 16.9375 17.7316 17.1779L17.7882 17.2296L21.7784 21.2198L21.8302 21.2765C22.0704 21.5711 22.053 22.0058 21.7784 22.2804C21.5039 22.555 21.0691 22.5723 20.7745 22.3321L20.7179 22.2804L16.7277 18.2902L16.6759 18.2335C16.4356 17.9389 16.4531 17.5042 16.7277 17.2296Z" fill="#323544"/>
</svg>
