<svg width="24" height="24" viewBox="0 0 24 24" fill="none" xmlns="http://www.w3.org/2000/svg">
<path opacity="0.4" d="M8.36533 6.75H15.6347H17.4657H19.75C20.9926 6.75 22 7.75736 22 9V9.78511C22 10.4634 21.694 11.1056 21.1671 11.5328L20.0045 12.4754L19.2012 18.7842C19.0581 19.9079 18.102 20.75 16.9692 20.75H7.03079C5.89803 20.75 4.94189 19.9079 4.79881 18.7842L3.99548 12.4754L2.83295 11.5328C2.30604 11.1056 2 10.4634 2 9.78511V9C2 7.75736 3.00736 6.75 4.25 6.75H6.53432H8.36533ZM19.75 8.25H4.25C3.83579 8.25 3.5 8.58579 3.5 9V9.78511C3.5 10.0112 3.60201 10.2253 3.77765 10.3677L5.17383 11.4997C5.32379 11.6213 5.42109 11.796 5.44547 11.9875L6.28679 18.5947C6.33449 18.9693 6.6532 19.25 7.03079 19.25H16.9692C17.3468 19.25 17.6655 18.9693 17.7132 18.5947L18.5545 11.9875C18.5789 11.796 18.6762 11.6213 18.8262 11.4997L20.2224 10.3677C20.398 10.2253 20.5 10.0112 20.5 9.78511V9C20.5 8.58579 20.1642 8.25 19.75 8.25Z" fill="#323544"/>
<path d="M10.8642 3.18017C11.1018 2.84084 11.0192 2.37319 10.6799 2.13565C10.3406 1.89811 9.87292 1.98062 9.63538 2.31996L6.53418 6.75006H8.36519L10.8642 3.18017Z" fill="#323544"/>
<path d="M13.1355 3.18017L15.6345 6.75006H17.4655L14.3643 2.31996C14.1268 1.98062 13.6591 1.89811 13.3198 2.13565C12.9805 2.37319 12.898 2.84084 13.1355 3.18017Z" fill="#323544"/>
<path d="M10.4999 12.2501C10.4999 11.8359 10.1641 11.5001 9.74986 11.5001C9.33564 11.5001 8.99986 11.8359 8.99986 12.2501V16.2501C8.99986 16.6643 9.33564 17.0001 9.74986 17.0001C10.1641 17.0001 10.4999 16.6643 10.4999 16.2501V12.2501Z" fill="#323544"/>
<path d="M14.2499 11.5001C14.6641 11.5001 14.9999 11.8359 14.9999 12.2501V16.2501C14.9999 16.6643 14.6641 17.0001 14.2499 17.0001C13.8356 17.0001 13.4999 16.6643 13.4999 16.2501V12.2501C13.4999 11.8359 13.8356 11.5001 14.2499 11.5001Z" fill="#323544"/>
</svg>
