<svg width="24" height="24" viewBox="0 0 24 24" fill="none" xmlns="http://www.w3.org/2000/svg">
<path d="M20.5 5.5C20.5 5.08579 20.1642 4.75 19.75 4.75H4.25C3.83579 4.75 3.5 5.08579 3.5 5.5V6.5C3.5 6.91421 3.83579 7.25 4.25 7.25H19.75C20.1642 7.25 20.5 6.91421 20.5 6.5V5.5ZM22 6.5C22 7.54282 21.2897 8.41675 20.3271 8.67188C20.228 8.72026 20.1178 8.75 20 8.75H4C3.8819 8.75 3.77126 8.7205 3.67188 8.67188C2.70977 8.41644 2 7.54249 2 6.5V5.5C2 4.25736 3.00736 3.25 4.25 3.25H19.75C20.9926 3.25 22 4.25736 22 5.5V6.5Z" fill="#323544"/>
<g opacity="0.4">
<path d="M20.75 18.5C20.75 19.7426 19.7426 20.75 18.5 20.75H5.5C4.25736 20.75 3.25 19.7426 3.25 18.5V8.51074C3.3839 8.57729 3.52448 8.63274 3.67188 8.67188C3.77126 8.7205 3.8819 8.75 4 8.75H4.75V18.5C4.75 18.9142 5.08579 19.25 5.5 19.25H18.5C18.9142 19.25 19.25 18.9142 19.25 18.5V8.75H20C20.1178 8.75 20.228 8.72026 20.3271 8.67188C20.475 8.63269 20.6157 8.57652 20.75 8.50977V18.5Z" fill="#323544"/>
<path d="M14 11C14.4142 11 14.75 11.3358 14.75 11.75C14.75 12.1642 14.4142 12.5 14 12.5H10C9.58579 12.5 9.25 12.1642 9.25 11.75C9.25 11.3358 9.58579 11 10 11H14Z" fill="#323544"/>
</g>
</svg>
