<svg width="25" height="25" viewBox="0 0 25 25" fill="none" xmlns="http://www.w3.org/2000/svg">
<path d="M19.8936 8.4668C19.8936 8.05258 19.5578 7.7168 19.1436 7.7168H6.12793C5.71372 7.7168 5.37793 8.05258 5.37793 8.4668V8.92969C5.37793 9.3439 5.71372 9.67969 6.12793 9.67969H19.1436C19.5578 9.67969 19.8936 9.3439 19.8936 8.92969V8.4668ZM11.8857 5.05469C11.8857 4.43337 11.3821 3.92969 10.7607 3.92969C10.1394 3.92969 9.63574 4.43337 9.63574 5.05469C9.63574 5.67601 10.1394 6.17969 10.7607 6.17969H11.8857V5.05469ZM13.3857 6.17969H14.5107C15.1321 6.17969 15.6357 5.67601 15.6357 5.05469C15.6357 4.43337 15.1321 3.92969 14.5107 3.92969C13.8894 3.92969 13.3857 4.43337 13.3857 5.05469V6.17969ZM17.1357 5.05469C17.1357 5.4724 17.0359 5.8662 16.8623 6.2168H19.1436C20.3862 6.2168 21.3936 7.22416 21.3936 8.4668V8.92969C21.3936 10.1723 20.3862 11.1797 19.1436 11.1797H6.12793C4.88529 11.1797 3.87793 10.1723 3.87793 8.92969V8.4668C3.87793 7.22416 4.88529 6.2168 6.12793 6.2168H8.40918C8.23559 5.8662 8.13574 5.4724 8.13574 5.05469C8.13574 3.60494 9.31099 2.42969 10.7607 2.42969C11.4953 2.42969 12.1593 2.73151 12.6357 3.21777C13.1122 2.73151 13.7762 2.42969 14.5107 2.42969C15.9605 2.42969 17.1357 3.60494 17.1357 5.05469Z" fill="#323544"/>
<path opacity="0.4" d="M20.3115 19.4297C20.3115 20.6723 19.3042 21.6797 18.0615 21.6797H7.20996C5.96732 21.6797 4.95996 20.6723 4.95996 19.4297V10.8496C5.30077 11.0574 5.69958 11.1797 6.12793 11.1797H6.45996V19.4297C6.45996 19.8439 6.79575 20.1797 7.20996 20.1797H18.0615C18.4757 20.1797 18.8115 19.8439 18.8115 19.4297V11.1797H19.1436C19.5719 11.1797 19.9707 11.0574 20.3115 10.8496V19.4297Z" fill="#323544"/>
</svg>
