<svg width="24" height="24" viewBox="0 0 24 24" fill="none" xmlns="http://www.w3.org/2000/svg">
<path d="M19.25 9.72559C19.25 9.62921 19.2312 9.53413 19.1953 9.44531L19.1533 9.3584L16.7764 5.13184C16.6435 4.89599 16.3937 4.75011 16.123 4.75H7.87695C7.63997 4.75009 7.41879 4.86173 7.27832 5.04785L7.22363 5.13184L4.84668 9.3584C4.78359 9.47055 4.75007 9.59691 4.75 9.72559V18.499C4.75 18.9132 5.08579 19.249 5.5 19.249H18.5C18.9142 19.249 19.25 18.9132 19.25 18.499V9.72559ZM20.75 18.499C20.75 19.7417 19.7426 20.749 18.5 20.749H5.5C4.25736 20.749 3.25 19.7417 3.25 18.499V9.72559C3.25007 9.33934 3.34971 8.9597 3.53906 8.62305L5.91602 4.39648L5.99512 4.26758C6.40876 3.63564 7.11495 3.2501 7.87695 3.25H16.123C16.9357 3.25011 17.6855 3.68824 18.084 4.39648L20.4609 8.62305L20.5273 8.75098C20.6733 9.05456 20.7499 9.38749 20.75 9.72559V18.499Z" fill="#323544"/>
<path opacity="0.4" d="M12.75 4.75V8.58301H18.7168L19.1533 9.3584L19.1953 9.44531C19.2312 9.53413 19.25 9.62921 19.25 9.72559V10.083H4.75V9.72559C4.75007 9.59691 4.78359 9.47055 4.84668 9.3584L5.2832 8.58301H11.25V4.75H12.75Z" fill="#323544"/>
</svg>
