<svg width="24" height="24" viewBox="0 0 24 24" fill="none" xmlns="http://www.w3.org/2000/svg">
<path opacity="0.4" d="M13.0927 3.01627C13.0296 2.98125 12.9653 2.94947 12.9 2.92094V2.00156C12.9 1.50451 12.4971 1.10156 12 1.10156C11.5029 1.10156 11.1 1.50451 11.1 2.00156V2.92094C11.0347 2.94947 10.9704 2.98125 10.9073 3.01627L5.6573 5.93294C4.94301 6.32977 4.5 7.08267 4.5 7.89979V19.7516C4.5 20.9942 5.50736 22.0016 6.75 22.0016H17.25C18.4926 22.0016 19.5 20.9942 19.5 19.7516V7.89979C19.5 7.08267 19.057 6.32977 18.3427 5.93294L13.0927 3.01627ZM12 6.65156C12.4971 6.65156 12.9 6.24862 12.9 5.75156V4.62516L17.6142 7.24417C17.8523 7.37645 18 7.62742 18 7.89979V19.7516C18 20.1658 17.6642 20.5016 17.25 20.5016H6.75C6.33579 20.5016 6 20.1658 6 19.7516V7.89979C6 7.62742 6.14767 7.37645 6.38577 7.24417L11.1 4.62516V5.75156C11.1 6.24862 11.5029 6.65156 12 6.65156Z" fill="#323544"/>
<path d="M12 8.25195C12.4142 8.25195 12.75 8.58774 12.75 9.00195V9.43973C13.7408 9.59037 14.5 10.4459 14.5 11.4788C14.5 11.893 14.1642 12.2288 13.75 12.2288C13.3358 12.2288 13 11.893 13 11.4788C13 11.1681 12.7481 10.9162 12.4374 10.9162H11.75C11.3358 10.9162 11 11.252 11 11.6662V11.9313C11 12.2439 11.1939 12.5237 11.4866 12.6335L13.0401 13.2161C13.9182 13.5454 14.5 14.3849 14.5 15.3228V15.5879C14.5 16.6587 13.752 17.5548 12.75 17.7821V18.252C12.75 18.6662 12.4142 19.002 12 19.002C11.5858 19.002 11.25 18.6662 11.25 18.252V17.8144C10.2592 17.6637 9.5 16.8082 9.5 15.7753C9.5 15.3611 9.83579 15.0253 10.25 15.0253C10.6642 15.0253 11 15.3611 11 15.7753C11 16.086 11.2519 16.3379 11.5626 16.3379H12.25C12.6642 16.3379 13 16.0021 13 15.5879V15.3228C13 15.0102 12.8061 14.7304 12.5134 14.6206L10.9599 14.038C10.0818 13.7087 9.5 12.8692 9.5 11.9313V11.6662C9.5 10.5954 10.248 9.69931 11.25 9.47195V9.00195C11.25 8.58774 11.5858 8.25195 12 8.25195Z" fill="#323544"/>
</svg>
