<svg width="24" height="24" viewBox="0 0 24 24" fill="none" xmlns="http://www.w3.org/2000/svg">
<path fill-rule="evenodd" clip-rule="evenodd" d="M14.4539 3.5C14.1614 3.5 13.8955 3.67009 13.7729 3.93571L13.1663 5.25H17.5436C18.3194 5.25 19.0405 5.64964 19.4516 6.3075L20.886 8.6025C21.0305 8.8337 21.0382 9.12511 20.906 9.36358C20.7738 9.60204 20.5226 9.75 20.25 9.75H18.884L17.7665 19.994C17.6419 21.1354 16.6779 22 15.5297 22H8.47026C7.32206 22 6.35805 21.1354 6.23353 19.994L5.11601 9.75H3.75C3.47736 9.75 3.22619 9.60204 3.09402 9.36358C2.96185 9.12511 2.9695 8.8337 3.114 8.6025L4.54838 6.3075C4.95954 5.64964 5.68059 5.25 6.45637 5.25H11.5143L12.411 3.30712C12.7788 2.51028 13.5763 2 14.4539 2H17.4941C17.9084 2 18.2441 2.33579 18.2441 2.75C18.2441 3.16421 17.9084 3.5 17.4941 3.5H14.4539ZM6.6249 9.75L7.72469 19.8313C7.76619 20.2118 8.08753 20.5 8.47026 20.5H15.5297C15.9125 20.5 16.2338 20.2118 16.2753 19.8313L17.3751 9.75H6.6249ZM6.45637 6.75C6.19778 6.75 5.95743 6.88321 5.82037 7.1025L5.10319 8.25H18.8968L18.1796 7.1025C18.0426 6.88321 17.8022 6.75 17.5436 6.75H6.45637Z" fill="#323544"/>
</svg>
