<svg width="24" height="24" viewBox="0 0 24 24" fill="none" xmlns="http://www.w3.org/2000/svg">
<path d="M2.625 2.75C2.625 2.12868 3.12868 1.625 3.75 1.625H12.625C15.8006 1.625 18.375 4.19936 18.375 7.375C18.375 8.9754 17.7212 10.4231 16.6661 11.4655C18.5672 12.4036 19.875 14.3616 19.875 16.625C19.875 19.8006 17.3006 22.375 14.125 22.375H3.75C3.12868 22.375 2.625 21.8713 2.625 21.25C2.625 20.6287 3.12868 20.125 3.75 20.125H4.125V3.875H3.75C3.12868 3.875 2.625 3.37132 2.625 2.75ZM6.375 3.875V10.875H12.625C14.558 10.875 16.125 9.308 16.125 7.375C16.125 5.442 14.558 3.875 12.625 3.875H6.375ZM6.375 13.125V20.125H14.125C16.058 20.125 17.625 18.558 17.625 16.625C17.625 14.692 16.058 13.125 14.125 13.125H6.375Z" fill="#323544"/>
</svg>
