<svg width="24" height="24" viewBox="0 0 24 24" fill="none" xmlns="http://www.w3.org/2000/svg">
<path d="M6.94664 18.1774C6.94624 18.1776 6.94586 18.1778 6.62567 17.5021L6.94664 18.1774C6.71429 18.2875 6.44096 18.2713 6.22368 18.1338C6.0064 17.9963 5.87469 17.7571 5.87469 17.5V14.9428C3.67613 14.5844 1.99805 12.6765 1.99805 10.3766C1.99805 7.82142 4.06947 5.75 6.62469 5.75C9.17992 5.75 11.2513 7.82142 11.2513 10.3766C11.2513 13.222 10.202 15.1727 9.13017 16.4114C8.59826 17.0262 8.06521 17.461 7.66099 17.7445C7.45857 17.8864 7.28741 17.9911 7.16329 18.062C7.1012 18.0974 7.05074 18.1245 7.01389 18.1437C6.99546 18.1532 6.98041 18.1608 6.969 18.1665L6.95462 18.1735L6.94953 18.176L6.94664 18.1774Z" fill="#323544"/>
<path d="M17.6966 18.1774C17.6962 18.1776 17.6959 18.1778 17.3747 17.5L17.6966 18.1774C17.4643 18.2875 17.191 18.2713 16.9737 18.1338C16.7564 17.9963 16.6247 17.7571 16.6247 17.5V14.9428C14.4261 14.5844 12.748 12.6765 12.748 10.3766C12.748 7.82142 14.8195 5.75 17.3747 5.75C19.9299 5.75 22.0013 7.82142 22.0013 10.3766C22.0013 13.222 20.952 15.1727 19.8802 16.4114C19.3483 17.0262 18.8152 17.461 18.411 17.7445C18.2086 17.8864 18.0374 17.9911 17.9133 18.062C17.8512 18.0974 17.8007 18.1245 17.7639 18.1437C17.7455 18.1532 17.7304 18.1608 17.719 18.1665L17.7046 18.1735L17.6995 18.176L17.6966 18.1774Z" fill="#323544"/>
</svg>
