<svg width="24" height="24" viewBox="0 0 24 24" fill="none" xmlns="http://www.w3.org/2000/svg">
<path d="M6.20692 3.20423C6.6462 2.76525 7.35811 2.76526 7.79738 3.20425L10.7993 6.20425C11.1212 6.52594 11.2176 7.00988 11.0435 7.43035C10.8694 7.85082 10.4591 8.125 10.004 8.125H8.12699L8.12699 15.875H10.0041C10.4592 15.875 10.8694 16.1492 11.0435 16.5697C11.2176 16.9901 11.1212 17.4741 10.7993 17.7958L7.79718 20.7958C7.35789 21.2348 6.64599 21.2347 6.20672 20.7957L3.20481 17.7957C2.88291 17.4741 2.78653 16.9901 2.96062 16.5696C3.13471 16.1492 3.54497 15.875 4.00005 15.875H5.87699L5.87699 8.125H4.00003C3.54494 8.125 3.13468 7.85082 2.96059 7.43034C2.78651 7.00986 2.88291 6.52591 3.20482 6.20423L6.20692 3.20423ZM20 5.125L13.0041 5.125C12.3827 5.125 11.8791 4.62132 11.8791 4C11.8791 3.37868 12.3827 2.875 13.0041 2.875L20 2.875C20.6214 2.875 21.125 3.37868 21.125 4C21.125 4.62132 20.6214 5.125 20 5.125ZM20 10.4583L13.0041 10.4583C12.3827 10.4583 11.8791 9.95461 11.8791 9.33329C11.8791 8.71197 12.3827 8.20829 13.0041 8.20829L20 8.20829C20.6214 8.20829 21.125 8.71197 21.125 9.33329C21.125 9.95461 20.6214 10.4583 20 10.4583ZM20 15.7917L13.0041 15.7917C12.3827 15.7917 11.8791 15.288 11.8791 14.6667C11.8791 14.0454 12.3827 13.5417 13.0041 13.5417L20 13.5417C20.6214 13.5417 21.125 14.0454 21.125 14.6667C21.125 15.288 20.6214 15.7917 20 15.7917ZM11.8791 20C11.8791 19.3787 12.3827 18.875 13.0041 18.875H20C20.6214 18.875 21.125 19.3787 21.125 20C21.125 20.6213 20.6214 21.125 20 21.125H13.0041C12.3827 21.125 11.8791 20.6213 11.8791 20Z" fill="#323544"/>
</svg>
