<svg width="24" height="25" viewBox="0 0 24 25" fill="none" xmlns="http://www.w3.org/2000/svg">
<path d="M7.12275 13.375L3.125 13.375C2.50368 13.375 2 12.8713 2 12.25C2 11.6287 2.50368 11.125 3.125 11.125L7.12275 11.125C7.74407 11.125 8.24775 11.6287 8.24775 12.25C8.24775 12.8713 7.74407 13.375 7.12275 13.375ZM13.9992 13.375L10.0014 13.375C9.38012 13.375 8.87644 12.8713 8.87644 12.25C8.87644 11.6287 9.38012 11.125 10.0014 11.125L13.9992 11.125C14.6205 11.125 15.1242 11.6287 15.1242 12.25C15.1242 12.8713 14.6205 13.375 13.9992 13.375ZM20.875 13.375L16.8773 13.375C16.2559 13.375 15.7523 12.8713 15.7523 12.25C15.7523 11.6287 16.2559 11.125 16.8773 11.125L20.875 11.125C21.4963 11.125 22 11.6287 22 12.25C22 12.8713 21.4963 13.375 20.875 13.375Z" fill="#323544"/>
</svg>
