<svg width="24" height="25" viewBox="0 0 24 25" fill="none" xmlns="http://www.w3.org/2000/svg">
<path d="M3.12461 10.9707C3.82877 10.9707 4.39961 11.5415 4.39961 12.2457V12.2553C4.39961 12.9595 3.82877 13.5303 3.12461 13.5303C2.42045 13.5303 1.84961 12.9595 1.84961 12.2553V12.2457C1.84961 11.5415 2.42045 10.9707 3.12461 10.9707ZM6.67386 10.9707C7.37802 10.9707 7.94886 11.5415 7.94886 12.2457V12.2553C7.94886 12.9595 7.37802 13.5303 6.67386 13.5303C5.9697 13.5303 5.39886 12.9595 5.39886 12.2553V12.2457C5.39886 11.5415 5.9697 10.9707 6.67386 10.9707ZM10.225 10.9707C10.9291 10.9707 11.5 11.5415 11.5 12.2457V12.2553C11.5 12.9595 10.9291 13.5303 10.225 13.5303C9.52082 13.5303 8.94998 12.9595 8.94998 12.2553V12.2457C8.94998 11.5415 9.52082 10.9707 10.225 10.9707ZM13.7742 10.9707C14.4784 10.9707 15.0492 11.5415 15.0492 12.2457V12.2553C15.0492 12.9595 14.4784 13.5303 13.7742 13.5303C13.0701 13.5303 12.4992 12.9595 12.4992 12.2553V12.2457C12.4992 11.5415 13.0701 10.9707 13.7742 10.9707ZM17.3235 10.9707C18.0276 10.9707 18.5985 11.5415 18.5985 12.2457V12.2553C18.5985 12.9595 18.0276 13.5303 17.3235 13.5303C16.6193 13.5303 16.0485 12.9595 16.0485 12.2553V12.2457C16.0485 11.5415 16.6193 10.9707 17.3235 10.9707ZM20.8746 10.9707C21.5788 10.9707 22.1496 11.5415 22.1496 12.2457V12.2553C22.1496 12.9595 21.5788 13.5303 20.8746 13.5303C20.1704 13.5303 19.5996 12.9595 19.5996 12.2553V12.2457C19.5996 11.5415 20.1704 10.9707 20.8746 10.9707Z" fill="#323544"/>
</svg>
