<svg width="24" height="24" viewBox="0 0 24 24" fill="none" xmlns="http://www.w3.org/2000/svg">
<path d="M4 2.875C3.37868 2.875 2.875 3.37868 2.875 4C2.875 4.62132 3.37868 5.125 4 5.125L20 5.125C20.6213 5.125 21.125 4.62132 21.125 4C21.125 3.37868 20.6213 2.875 20 2.875H4Z" fill="#323544"/>
<path d="M10.8392 9.32273C10.8392 7.83082 9.19052 6.92809 7.93355 7.73174L3.74617 10.409C2.58461 11.1516 2.58461 12.8483 3.74617 13.591L7.93356 16.2682C9.19052 17.0718 10.8392 16.1691 10.8392 14.6772V9.32273Z" fill="#323544"/>
<path d="M14.2141 8.20825C13.5928 8.20825 13.0891 8.71193 13.0891 9.33325C13.0891 9.95457 13.5928 10.4583 14.2141 10.4583H20C20.6213 10.4583 21.125 9.95457 21.125 9.33325C21.125 8.71193 20.6213 8.20825 20 8.20825H14.2141Z" fill="#323544"/>
<path d="M14.2141 15.7916L20 15.7916C20.6213 15.7916 21.125 15.2879 21.125 14.6666C21.125 14.0453 20.6213 13.5416 20 13.5416L14.2141 13.5416C13.5928 13.5416 13.0891 14.0453 13.0891 14.6666C13.0891 15.2879 13.5928 15.7916 14.2141 15.7916Z" fill="#323544"/>
<path d="M4 18.875C3.37868 18.875 2.875 19.3787 2.875 20C2.875 20.6213 3.37868 21.125 4 21.125H20C20.6213 21.125 21.125 20.6213 21.125 20C21.125 19.3787 20.6213 18.875 20 18.875H4Z" fill="#323544"/>
</svg>
