<svg width="24" height="25" viewBox="0 0 24 25" fill="none" xmlns="http://www.w3.org/2000/svg">
<path d="M7.28032 8.78034C7.57322 8.48745 7.57323 8.01258 7.28034 7.71968C6.98745 7.42678 6.51258 7.42677 6.21968 7.71966L2.21968 11.7195C1.92678 12.0124 1.92677 12.4873 2.21966 12.7802L6.21966 16.7803C6.51255 17.0732 6.98742 17.0732 7.28032 16.7803C7.57322 16.4874 7.57323 16.0126 7.28034 15.7197L3.81066 12.2499L7.28032 8.78034Z" fill="#323544"/>
<path d="M17.7803 7.71966C17.4874 7.42677 17.0126 7.42678 16.7197 7.71968C16.4268 8.01258 16.4268 8.48745 16.7197 8.78034L20.1893 12.2499L16.7197 15.7197C16.4268 16.0126 16.4268 16.4874 16.7197 16.7803C17.0126 17.0732 17.4874 17.0732 17.7803 16.7803L21.7803 12.7802C22.0732 12.4873 22.0732 12.0124 21.7803 11.7195L17.7803 7.71966Z" fill="#323544"/>
<path d="M7.99961 10.9746C7.29545 10.9746 6.72461 11.5454 6.72461 12.2496C6.72461 12.9538 7.29545 13.5246 7.99961 13.5246H8.00961C8.71377 13.5246 9.28461 12.9538 9.28461 12.2496C9.28461 11.5454 8.71377 10.9746 8.00961 10.9746H7.99961Z" fill="#323544"/>
<path d="M11.9996 10.9746C11.2954 10.9746 10.7246 11.5454 10.7246 12.2496C10.7246 12.9538 11.2954 13.5246 11.9996 13.5246H12.0096C12.7138 13.5246 13.2846 12.9538 13.2846 12.2496C13.2846 11.5454 12.7138 10.9746 12.0096 10.9746H11.9996Z" fill="#323544"/>
<path d="M15.9996 10.9746C15.2954 10.9746 14.7246 11.5454 14.7246 12.2496C14.7246 12.9538 15.2954 13.5246 15.9996 13.5246H16.0096C16.7138 13.5246 17.2846 12.9538 17.2846 12.2496C17.2846 11.5454 16.7138 10.9746 16.0096 10.9746H15.9996Z" fill="#323544"/>
</svg>
