<svg width="24" height="25" viewBox="0 0 24 25" fill="none" xmlns="http://www.w3.org/2000/svg">
<path d="M10.4583 5.375L10.4585 20.25C10.4585 20.8713 9.95483 21.375 9.33351 21.375C8.71219 21.375 8.2085 20.8713 8.2085 20.25L8.20841 11.5972H7.11111C4.77157 11.5972 2.875 9.70065 2.875 7.36111C2.875 5.02157 4.77157 3.125 7.11111 3.125L20.0002 3.125C20.6215 3.125 21.1252 3.62868 21.1252 4.25C21.1252 4.87132 20.6215 5.375 20.0002 5.375L15.7915 5.375V20.25C15.7915 20.8713 15.2878 21.375 14.6665 21.375C14.0452 21.375 13.5415 20.8713 13.5415 20.25V5.375L10.4583 5.375ZM8.20839 9.34722L8.20834 5.375H7.11111C6.01421 5.375 5.125 6.26421 5.125 7.36111C5.125 8.45801 6.01421 9.34722 7.11111 9.34722H8.20839Z" fill="#323544"/>
</svg>
