<svg width="24" height="24" viewBox="0 0 24 24" fill="none" xmlns="http://www.w3.org/2000/svg">
<path d="M10.4999 2.875C10.9445 2.875 11.3474 3.13683 11.528 3.5431L17.3056 16.5431C17.558 17.1109 17.3023 17.7757 16.7345 18.028C16.1667 18.2804 15.5019 18.0247 15.2496 17.4569L13.6922 13.9527L7.30752 13.9525L5.75007 17.4566C5.49772 18.0244 4.83288 18.2801 4.26512 18.0278C3.69735 17.7754 3.44166 17.1106 3.69401 16.5428L9.47189 3.54308C9.65246 3.13681 10.0553 2.875 10.4999 2.875ZM8.30755 11.7026L12.6922 11.7027L10.4999 6.76997L8.30755 11.7026ZM19.9996 2.87524C20.6209 2.87522 21.1246 3.37888 21.1246 4.0002L21.1251 16.9997C21.1251 17.621 20.6214 18.1247 20.0001 18.1248C19.3788 18.1248 18.8751 17.6211 18.8751 16.9998L18.8746 4.00028C18.8746 3.37896 19.3783 2.87526 19.9996 2.87524ZM2.875 19.9998C2.87502 19.3785 3.37872 18.8748 4.00004 18.8748L16.9997 18.8753C17.621 18.8753 18.1247 19.379 18.1246 20.0003C18.1246 20.6216 17.6209 21.1253 16.9996 21.1253L3.99996 21.1248C3.37864 21.1248 2.87498 20.6211 2.875 19.9998Z" fill="#323544"/>
</svg>
