<svg width="24" height="24" viewBox="0 0 24 24" fill="none" xmlns="http://www.w3.org/2000/svg">
<path d="M8.23433 4.125C8.67891 4.125 9.0818 4.38683 9.26236 4.7931L13.8142 15.0349C14.0665 15.6027 13.8108 16.2675 13.243 16.5198C12.6753 16.7722 12.0104 16.5165 11.7581 15.9487L10.823 13.8446L5.64552 13.8445L4.71025 15.9487C4.4579 16.5165 3.79307 16.7722 3.2253 16.5198C2.65754 16.2675 2.40184 15.6027 2.65419 15.0349L7.20628 4.79308C7.38685 4.38681 7.78974 4.125 8.23433 4.125ZM6.64555 11.5945L9.82297 11.5946L8.23429 8.01997L6.64555 11.5945ZM16.4264 13.9262C16.8657 13.4868 17.5781 13.4868 18.0174 13.9262L19.2361 15.1448L20.4547 13.9262C20.894 13.4869 21.6063 13.4869 22.0457 13.9262C22.485 14.3656 22.485 15.0779 22.0457 15.5172L20.8271 16.7358L22.0457 17.9545C22.485 18.3938 22.485 19.1061 22.0457 19.5454C21.6063 19.9848 20.894 19.9848 20.4547 19.5454L19.2361 18.3268L18.0174 19.5455C17.5781 19.9848 16.8657 19.9848 16.4264 19.5455C15.9871 19.1062 15.9871 18.3938 16.4264 17.9545L17.6451 16.7358L16.4264 15.5172C15.9871 15.0778 15.9871 14.3655 16.4264 13.9262ZM1.625 18.7498C1.62502 18.1285 2.12872 17.6248 2.75004 17.6249L13.7185 17.6252C14.3398 17.6253 14.8435 18.129 14.8435 18.7503C14.8435 19.3716 14.3398 19.8753 13.7184 19.8752L2.74996 19.8749C2.12864 19.8748 1.62498 19.3712 1.625 18.7498Z" fill="#323544"/>
</svg>
