<svg width="24" height="24" viewBox="0 0 24 24" fill="none" xmlns="http://www.w3.org/2000/svg">
<path d="M20 5.125L4 5.125C3.37868 5.125 2.875 4.62132 2.875 4C2.875 3.37868 3.37868 2.875 4 2.875L20 2.875C20.6213 2.875 21.125 3.37868 21.125 4C21.125 4.62132 20.6213 5.125 20 5.125ZM20 10.4584L4 10.4584C3.37868 10.4584 2.875 9.95467 2.875 9.33335C2.875 8.71203 3.37868 8.20835 4 8.20835L20 8.20835C20.6213 8.20835 21.125 8.71203 21.125 9.33335C21.125 9.95467 20.6213 10.4584 20 10.4584ZM20 15.7916L4 15.7916C3.37868 15.7916 2.875 15.288 2.875 14.6666C2.875 14.0453 3.37868 13.5416 4 13.5416L20 13.5416C20.6213 13.5416 21.125 14.0453 21.125 14.6666C21.125 15.288 20.6213 15.7916 20 15.7916ZM12 21.125L4 21.125C3.37868 21.125 2.875 20.6213 2.875 20C2.875 19.3787 3.37868 18.875 4 18.875L12 18.875C12.6213 18.875 13.125 19.3787 13.125 20C13.125 20.6213 12.6213 21.125 12 21.125Z" fill="#323544"/>
</svg>
