<svg width="24" height="24" viewBox="0 0 24 24" fill="none" xmlns="http://www.w3.org/2000/svg">
<path d="M5.25 1.625C5.87132 1.625 6.375 2.12868 6.375 2.75V10.75C6.375 13.8566 8.8934 16.375 12 16.375C15.1066 16.375 17.625 13.8566 17.625 10.75V2.75C17.625 2.12868 18.1287 1.625 18.75 1.625C19.3713 1.625 19.875 2.12868 19.875 2.75V10.75C19.875 15.0992 16.3492 18.625 12 18.625C7.65076 18.625 4.125 15.0992 4.125 10.75V2.75C4.125 2.12868 4.62868 1.625 5.25 1.625ZM4.125 21.25C4.125 20.6287 4.62868 20.125 5.25 20.125H18.75C19.3713 20.125 19.875 20.6287 19.875 21.25C19.875 21.8713 19.3713 22.375 18.75 22.375H5.25C4.62868 22.375 4.125 21.8713 4.125 21.25Z" fill="#323544"/>
</svg>
