<svg width="25" height="25" viewBox="0 0 25 25" fill="none" xmlns="http://www.w3.org/2000/svg">
<path d="M12.833 3.25098V4.75098M12.833 4.75098C16.5609 4.75098 19.583 7.77305 19.583 11.501V14.6168C19.583 14.7055 19.5989 14.7935 19.6301 14.8766L20.3229 16.7243C20.6907 17.7049 19.9658 18.751 18.9184 18.751H15.1448M12.833 4.75098C9.10503 4.75098 6.08295 7.77305 6.08295 11.501V14.6168C6.08295 14.7055 6.06699 14.7935 6.03584 14.8766L5.34296 16.7243C4.97522 17.7049 5.70014 18.751 6.74745 18.751H10.5175M10.5175 18.751V19.437C10.5175 20.7142 11.5534 21.7495 12.8312 21.7495C14.1089 21.7495 15.1448 20.7142 15.1448 19.437V18.751M10.5175 18.751H15.1448" stroke="#323544" stroke-width="1.5" stroke-linecap="round" stroke-linejoin="round"/>
</svg>
