<svg width="25" height="25" viewBox="0 0 25 25" fill="none" xmlns="http://www.w3.org/2000/svg">
<path d="M11.4143 22.049C11.2852 21.8658 11.2497 21.6446 11.298 21.4424L11.298 13.8263V10.9336L11.298 3.12695C11.298 2.71274 11.6338 2.37695 12.048 2.37695C12.2107 2.37695 12.3613 2.42876 12.4842 2.51678L19.0408 7.13666C19.2401 7.27711 19.3587 7.50568 19.3588 7.7495C19.3588 7.99333 19.2404 8.22198 19.0412 8.36256L13.3478 12.3799L19.0196 16.3821C19.2188 16.5226 19.3373 16.7513 19.3372 16.9951C19.3371 17.2389 19.2185 17.4675 19.0192 17.608L12.6072 22.126C12.4699 22.2795 12.2702 22.3762 12.048 22.3762C11.9348 22.3762 11.8274 22.3511 11.7311 22.3062C11.6079 22.2533 11.4972 22.1667 11.4143 22.049ZM12.798 13.8278V20.1566L17.2857 16.9944L12.798 13.8278ZM12.798 10.932L17.3073 7.75019L12.798 4.57285V10.932Z" fill="#323544"/>
<path opacity="0.4" d="M11.2979 10.9336L5.92075 7.13937C5.58231 6.90056 5.11435 6.98132 4.87554 7.31976C4.63673 7.65821 4.7175 8.12616 5.05594 8.36497L10.7459 12.3799L5.0775 16.3797C4.73906 16.6185 4.65829 17.0864 4.8971 17.4249C5.13591 17.7633 5.60386 17.8441 5.9423 17.6053L11.2979 13.8263V10.9336Z" fill="#323544"/>
</svg>
