<svg width="25" height="25" viewBox="0 0 25 25" fill="none" xmlns="http://www.w3.org/2000/svg">
<path opacity="0.4" d="M18.5 21.4824V4.48242C18.5 4.06821 18.1642 3.73242 17.75 3.73242H7.25C6.83579 3.73242 6.5 4.06821 6.5 4.48242V21.4824C6.5 21.8966 6.16421 22.2324 5.75 22.2324C5.33579 22.2324 5 21.8966 5 21.4824V4.48242C5 3.23978 6.00736 2.23242 7.25 2.23242H17.75C18.9926 2.23242 20 3.23978 20 4.48242V21.4824C20 21.8966 19.6642 22.2324 19.25 22.2324C18.8358 22.2324 18.5 21.8966 18.5 21.4824Z" fill="#323544"/>
<path d="M11.3965 16.8242C12.1302 16.4111 13.0397 16.4408 13.7481 16.9131L19.6661 20.8584L19.7276 20.9043C20.021 21.1461 20.0895 21.5754 19.8741 21.8985C19.6587 22.2215 19.2364 22.3232 18.9005 22.1455L18.834 22.1065L12.9161 18.1612C12.6956 18.0141 12.4168 17.9961 12.1817 18.1065L12.084 18.1612L6.16608 22.1065C5.82144 22.3362 5.3558 22.2431 5.12604 21.8985C4.89628 21.5538 4.98941 21.0882 5.33405 20.8584L11.252 16.9131L11.3965 16.8242Z" fill="#323544"/>
</svg>
