<svg width="25" height="24" viewBox="0 0 25 24" fill="none" xmlns="http://www.w3.org/2000/svg">
<path d="M18.6654 18.4604C18.6654 11.6499 13.1445 6.12891 6.33397 6.12891C5.91976 6.12891 5.58397 5.79312 5.58397 5.37891C5.58397 4.96469 5.91976 4.62891 6.33397 4.62891C13.9729 4.62891 20.1655 10.8215 20.1655 18.4604C20.1654 18.8746 19.8297 19.2104 19.4154 19.2104C19.0012 19.2104 18.6655 18.8746 18.6654 18.4604Z" fill="#323544"/>
<path d="M6.2728 14.0009C8.7093 14.1301 10.6631 16.0839 10.7923 18.5204C10.8142 18.934 11.1673 19.2515 11.5809 19.2296C11.9946 19.2076 12.3121 18.8545 12.2902 18.4409C12.1203 15.2385 9.55467 12.6728 6.35224 12.503C5.93861 12.481 5.58551 12.7986 5.56357 13.2122C5.54163 13.6258 5.85917 13.9789 6.2728 14.0009Z" fill="#323544"/>
<g opacity="0.4">
<path d="M6.17187 10.0652C10.8983 10.0652 14.7298 13.8967 14.7298 18.6231C14.7298 19.0373 15.0656 19.3731 15.4798 19.3731C15.8941 19.3731 16.2298 19.0373 16.2298 18.6231C16.2298 13.0683 11.7267 8.56516 6.17188 8.56516C5.75766 8.56516 5.42188 8.90095 5.42188 9.31516C5.42188 9.72938 5.75766 10.0652 6.17187 10.0652Z" fill="#323544"/>
<path d="M6.22161 18.5742C6.61214 18.9647 7.2453 18.9647 7.63583 18.5742C8.02635 18.1836 8.02635 17.5505 7.63583 17.16C7.2453 16.7694 6.61214 16.7694 6.22161 17.16C5.83109 17.5505 5.83109 18.1836 6.22161 18.5742Z" fill="#323544"/>
</g>
</svg>
