<svg width="25" height="25" viewBox="0 0 25 25" fill="none" xmlns="http://www.w3.org/2000/svg">
<g opacity="0.4">
<path d="M19.5548 3.79138C19.8783 3.53259 20.3502 3.58497 20.609 3.90839C22.4855 6.2534 22.4855 10.0006 20.609 12.3456C20.3502 12.669 19.8783 12.7214 19.5548 12.4626C19.2314 12.2038 19.179 11.7318 19.4378 11.4084C20.8759 9.61126 20.8759 6.6427 19.4378 4.84557C19.179 4.52216 19.2314 4.05018 19.5548 3.79138Z" fill="#323544"/>
<path d="M4.65666 4.84557C4.91546 4.52216 4.86307 4.05018 4.53966 3.79138C4.21624 3.53259 3.74427 3.58497 3.48547 3.90839C1.60901 6.2534 1.60901 10.0006 3.48547 12.3456C3.74427 12.669 4.21624 12.7214 4.53966 12.4626C4.86308 12.2038 4.91546 11.7318 4.65666 11.4084C3.21861 9.61126 3.21861 6.6427 4.65666 4.84557Z" fill="#323544"/>
<path d="M8.0936 6.87313C7.40109 7.56563 7.40109 8.6884 8.0936 9.38091C8.38649 9.6738 8.38649 10.1487 8.0936 10.4416C7.8007 10.7345 7.32583 10.7345 7.03294 10.4416C5.75465 9.16328 5.75465 7.09076 7.03294 5.81247C7.32583 5.51958 7.8007 5.51958 8.0936 5.81247C8.38649 6.10536 8.38649 6.58024 8.0936 6.87313Z" fill="#323544"/>
<path d="M16.0002 6.87313C16.6927 7.56563 16.6927 8.6884 16.0002 9.38091C15.7073 9.6738 15.7073 10.1487 16.0002 10.4416C16.293 10.7345 16.7679 10.7345 17.0608 10.4416C18.3391 9.16328 18.3391 7.09076 17.0608 5.81247C16.7679 5.51958 16.293 5.51958 16.0002 5.81247C15.7073 6.10536 15.7073 6.58024 16.0002 6.87313Z" fill="#323544"/>
</g>
<path d="M10.2969 8.12698C10.2969 7.16049 11.0804 6.37698 12.0469 6.37698H12.0479C13.0144 6.37698 13.7979 7.16049 13.7979 8.12698C13.7979 8.82624 13.3878 9.42972 12.7949 9.70998L12.7949 20.377C12.7949 20.7912 12.4591 21.127 12.0449 21.127C11.6307 21.127 11.2949 20.7912 11.2949 20.377L11.2949 9.70765C10.7047 9.42638 10.2969 8.82431 10.2969 8.12698Z" fill="#323544"/>
</svg>
