<svg width="24" height="24" viewBox="0 0 24 24" fill="none" xmlns="http://www.w3.org/2000/svg">
<path opacity="0.4" d="M20.4971 6.67285C20.4584 6.29491 20.1391 6 19.751 6H4.25C3.83579 6 3.5 6.33579 3.5 6.75V17.25C3.5 17.6642 3.83579 18 4.25 18H19.751C20.1392 18 20.4594 17.7051 20.498 17.3271L20.501 17.25V6.75L20.4971 6.67285ZM22.001 17.25L21.9902 17.4805C21.8748 18.6149 20.9158 19.5 19.751 19.5H4.25C3.00736 19.5 2 18.4926 2 17.25V6.75C2 5.50736 3.00736 4.5 4.25 4.5H19.751C20.9936 4.5 22.001 5.50736 22.001 6.75V17.25Z" fill="#323544"/>
<path d="M19.2105 9.81787C19.4917 9.88832 19.6767 10.1465 19.6646 10.4253L19.647 10.5454L18.8463 13.7456C18.7825 14.0003 18.5605 14.1838 18.2984 14.1987C18.0364 14.2135 17.795 14.0567 17.7027 13.811L17.064 12.1089L16.4263 13.811C16.334 14.0567 16.0927 14.2136 15.8306 14.1987C15.5685 14.1838 15.3466 14.0003 15.2828 13.7456L14.5308 10.7388L13.7799 13.7456C13.7161 14.0003 13.4942 14.1838 13.232 14.1987C12.97 14.2136 12.7286 14.0567 12.6363 13.811L11.9976 12.1089L11.3599 13.811C11.2677 14.0566 11.0262 14.2135 10.7642 14.1987C10.5021 14.1838 10.2802 14.0003 10.2164 13.7456L9.46443 10.7417L8.71443 13.7456C8.6507 14.0003 8.42864 14.1837 8.16658 14.1987C7.93728 14.2118 7.72354 14.0934 7.61189 13.8989L7.57087 13.811L6.9322 12.1079L6.29353 13.811C6.20115 14.0566 5.95986 14.2137 5.69783 14.1987C5.46847 14.1856 5.26994 14.0434 5.18122 13.8374L5.14997 13.7456L4.35017 10.5454L4.33259 10.4253C4.32049 10.1464 4.50536 9.8882 4.78669 9.81787C5.06803 9.74753 5.35266 9.88838 5.47322 10.1401L5.51423 10.2544L5.84626 11.5854L6.37068 10.189L6.40974 10.105C6.51489 9.91858 6.71348 9.80029 6.9322 9.80029C7.18219 9.80029 7.40582 9.95496 7.49372 10.189L8.01716 11.5854L8.35017 10.2544C8.43054 9.93291 8.75623 9.7375 9.07771 9.81787C9.2536 9.86184 9.3895 9.98037 9.4654 10.1304C9.54129 9.98058 9.67649 9.86188 9.85212 9.81787C10.1334 9.74754 10.4181 9.88846 10.5386 10.1401L10.5797 10.2544L10.9117 11.5845L11.4361 10.189L11.4752 10.105C11.5802 9.91859 11.779 9.80042 11.9976 9.80029C12.2477 9.80029 12.4723 9.95484 12.5601 10.189L13.0826 11.5845L13.4156 10.2544L13.4566 10.1401C13.5771 9.88839 13.8619 9.74771 14.1431 9.81787C14.3193 9.8619 14.455 9.98104 14.5308 10.1313C14.6066 9.98085 14.7432 9.86194 14.9195 9.81787C15.2008 9.74772 15.4856 9.88839 15.606 10.1401L15.647 10.2544L15.9791 11.5845L16.5025 10.189L16.5416 10.105C16.6467 9.91843 16.8462 9.80029 17.065 9.80029C17.3149 9.80044 17.5387 9.955 17.6265 10.189L18.15 11.5845L18.483 10.2544L18.524 10.1401C18.6446 9.88847 18.9292 9.74755 19.2105 9.81787Z" fill="#323544"/>
</svg>
