<svg width="24" height="24" viewBox="0 0 24 24" fill="none" xmlns="http://www.w3.org/2000/svg">
<path d="M11.3414 2C10.5958 2 9.99141 2.60442 9.99141 3.35V9.9397C9.99141 10.1341 9.83382 10.2917 9.63942 10.2917C9.44503 10.2917 9.28744 10.1341 9.28744 9.9397V4.66834C9.28744 3.92277 8.68303 3.31836 7.93746 3.31836C7.19185 3.31836 6.58743 3.92281 6.58747 4.66841L6.5879 12.9287L5.82515 12.151C5.04313 11.3536 3.76081 11.3474 2.97107 12.1371C2.21024 12.898 2.18415 14.1232 2.91192 14.9158L5.5472 17.7855C5.59877 17.8417 5.64937 17.9023 5.70737 17.9747C5.98515 18.3213 6.81948 19.3087 8.00703 20.2156C9.18308 21.1137 10.7931 22 12.607 22L12.61 22C14.2654 21.9935 15.5646 21.5996 16.5695 20.9459C17.5727 20.2935 18.2345 19.4137 18.6675 18.5107C19.5168 16.7394 19.5132 14.8191 19.4952 14.1098L19.4997 7.37413C19.5002 6.62831 18.8957 6.02344 18.1499 6.02344C17.4044 6.02344 16.8001 6.62776 16.8001 7.37324V10.1279C16.8001 10.3224 16.6424 10.4801 16.4479 10.4801C16.2534 10.4801 16.0957 10.3224 16.0957 10.1279V4.66836C16.0957 3.92278 15.4913 3.31836 14.7457 3.31836C14.0001 3.31836 13.3957 3.92278 13.3957 4.66836V10.1279C13.3957 10.3224 13.238 10.4801 13.0435 10.4801C12.849 10.48 12.6914 10.3224 12.6914 10.1279V3.35C12.6914 2.60441 12.087 2 11.3414 2Z" fill="#323544"/>
</svg>
