<svg width="24" height="24" viewBox="0 0 24 24" fill="none" xmlns="http://www.w3.org/2000/svg">
<path d="M13.6387 6.87094C14.0626 6.75806 14.5675 6.64265 15.1118 6.55723C15.8728 6.43782 16.7358 6.37293 17.5749 6.46799C18.4122 6.56286 19.2743 6.82281 19.9779 7.39626C21.7704 8.85732 22.2678 11.0971 21.8717 13.1949C21.4767 15.2871 20.1839 17.3381 18.2456 18.5682C17.3131 19.16 16.0867 19.4214 14.8561 19.5178C13.6097 19.6154 12.2736 19.5496 11.0594 19.4233C9.84188 19.2966 8.72718 19.107 7.91793 18.9495C7.55037 18.878 7.24465 18.8128 7.01953 18.7628L7.01953 6.78322L10.1671 2.84521C10.5941 2.31102 11.2408 2 11.9247 2C13.3676 2 14.4376 3.33902 14.1192 4.74639L13.6387 6.87094Z" fill="#323544"/>
<path d="M5.51953 7.22761H4.25C3.00736 7.22761 2 8.23497 2 9.47761V16.435C2 17.6776 3.00736 18.685 4.25 18.685H5.51953L5.51953 7.22761Z" fill="#323544"/>
</svg>
