<svg width="24" height="24" viewBox="0 0 24 24" fill="none" xmlns="http://www.w3.org/2000/svg">
<path d="M13.6387 17.1293C14.0626 17.2422 14.5675 17.3576 15.1118 17.4431C15.8728 17.5625 16.7358 17.6274 17.5749 17.5323C18.4122 17.4374 19.2743 17.1775 19.9779 16.604C21.7704 15.143 22.2678 12.9032 21.8717 10.8053C21.4767 8.71322 20.1839 6.66221 18.2456 5.43209C17.3131 4.84027 16.0867 4.57891 14.8561 4.48251C13.6097 4.38486 12.2736 4.45073 11.0594 4.57703C9.84188 4.70368 8.72718 4.89326 7.91793 5.05077C7.55037 5.12231 7.24465 5.18747 7.01953 5.2375L7.01953 17.2171L10.1671 21.1551C10.5941 21.6893 11.2408 22.0003 11.9247 22.0003C13.3676 22.0003 14.4376 20.6613 14.1192 19.2539L13.6387 17.1293Z" fill="#323544"/>
<path d="M5.51953 16.7727H4.25C3.00736 16.7727 2 15.7653 2 14.5227V7.56532C2 6.32268 3.00736 5.31532 4.25 5.31532H5.51953L5.51953 16.7727Z" fill="#323544"/>
</svg>
