<svg width="24" height="25" viewBox="0 0 24 25" fill="none" xmlns="http://www.w3.org/2000/svg">
<path d="M8.53125 5V4.75C8.53125 3.92157 9.20282 3.25 10.0312 3.25H13.9687C14.7972 3.25 15.4687 3.92157 15.4687 4.75L15.4687 5M8.53125 5H6.75C5.92157 5 5.25 5.67157 5.25 6.5V20.25C5.25 21.0784 5.92157 21.75 6.75 21.75H17.25C18.0784 21.75 18.75 21.0784 18.75 20.25L18.75 6.5C18.75 5.67157 18.0784 5 17.25 5H15.4687M8.53125 5V5.21875C8.53125 6.04718 9.20282 6.71875 10.0312 6.71875H13.9687C14.7972 6.71875 15.4687 6.04718 15.4687 5.21875V5" stroke="#323544" stroke-width="1.5" stroke-linecap="round" stroke-linejoin="round"/>
</svg>
