<svg width="24" height="25" viewBox="0 0 24 25" fill="none" xmlns="http://www.w3.org/2000/svg">
<path d="M2.95862 13.451C2.68046 12.8479 2.68046 12.1523 2.95862 11.5492C4.53779 8.1253 7.99237 5.75 11.9999 5.75C16.0075 5.75 19.4621 8.12531 21.0413 11.5492C21.3194 12.1523 21.3194 12.8479 21.0413 13.451C19.4621 16.8749 16.0075 19.2502 11.9999 19.2502C7.99237 19.2502 4.53779 16.8749 2.95862 13.451Z" stroke="#323544" stroke-width="1.5" stroke-linecap="round" stroke-linejoin="round"/>
<path d="M15.625 12.5C15.625 14.502 14.002 16.125 12 16.125C9.99797 16.125 8.375 14.502 8.375 12.5C8.375 10.498 9.99797 8.875 12 8.875C14.002 8.875 15.625 10.498 15.625 12.5Z" stroke="#323544" stroke-width="1.5" stroke-linecap="round" stroke-linejoin="round"/>
</svg>
