<svg width="24" height="25" viewBox="0 0 24 25" fill="none" xmlns="http://www.w3.org/2000/svg">
<path d="M17.1006 3.24805L21.2506 7.39804M2.74805 21.751L5.50355 18.9955M7.9366 18.2922L6.20744 16.5631M7.9366 18.2922L6.36842 19.8604L5.50355 18.9955M7.9366 18.2922L8.13258 18.4882C8.71837 19.074 9.66811 19.074 10.2539 18.4882L18.5307 10.2114L14.2881 5.96875L6.01126 14.2456C5.42547 14.8314 5.42547 15.7811 6.01126 16.3669L6.20744 16.5631M6.20744 16.5631L4.63926 18.1312L5.50355 18.9955M18.2921 4.43945L20.0598 6.20722L17.2932 8.97388L15.5254 7.20612L18.2921 4.43945Z" stroke="#323544" stroke-width="1.5" stroke-linecap="round" stroke-linejoin="round"/>
</svg>
