<svg width="24" height="25" viewBox="0 0 24 25" fill="none" xmlns="http://www.w3.org/2000/svg">
<path d="M8 21.75H16M3.63867 15.0137H7.12284M10.6387 15.0137H7.12284M12 18.5342V21.75M12 18.5342C15.5303 18.5342 18.3915 15.6724 18.3915 12.1422C18.3915 10.0823 17.4172 8.25009 15.9043 7.08109L15.8671 7.05593M12 18.5342C9.73459 18.5342 8.05265 17.0469 7.13867 15.0482L7.12284 15.0137M15.8671 7.05593L16.4778 5.9983C16.892 5.28086 16.6462 4.36347 15.9287 3.94926L15.0627 3.44926C14.3453 3.03505 13.4279 3.28086 13.0137 3.9983L10.2027 8.867C9.78851 9.58443 10.0343 10.5018 10.7518 10.916L11.6178 11.416C12.3352 11.8302 13.2526 11.5844 13.6668 10.867L15.8671 7.05593Z" stroke="#323544" stroke-width="1.5" stroke-linecap="round" stroke-linejoin="round"/>
</svg>
