<svg width="24" height="25" viewBox="0 0 24 25" fill="none" xmlns="http://www.w3.org/2000/svg">
<path d="M13.5 3.25H13.75C14.5784 3.25 15.25 3.92157 15.25 4.75L15.25 7.25C15.25 10.0114 13.0114 12.25 10.25 12.25M7 3.25H6.75C5.92157 3.25 5.25 3.92157 5.25 4.75V7.25C5.25 10.0114 7.48858 12.25 10.25 12.25M10.25 12.25L10.25 17C10.25 19.3472 12.1528 21.25 14.5 21.25C16.8472 21.25 18.75 19.3472 18.75 17V14.8496M18.75 14.8496C17.7835 14.8496 17 14.0661 17 13.0996C17 12.1331 17.7835 11.3496 18.75 11.3496C19.7165 11.3496 20.5 12.1331 20.5 13.0996C20.5 14.0661 19.7165 14.8496 18.75 14.8496Z" stroke="#323544" stroke-width="1.5" stroke-linecap="round" stroke-linejoin="round"/>
</svg>
