<svg width="24" height="25" viewBox="0 0 24 25" fill="none" xmlns="http://www.w3.org/2000/svg">
<path d="M15.7092 5.75C15.8967 6.21322 16 6.71955 16 7.25C16 9.45914 14.2091 11.25 12 11.25C9.79086 11.25 8 9.45914 8 7.25C8 6.71955 8.10325 6.21322 8.29076 5.75M15.7092 5.75H18.5C19.3284 5.75 20 6.42157 20 7.25V19C20 19.8284 19.3284 20.5 18.5 20.5H5.5C4.67157 20.5 4 19.8284 4 19V7.25C4 6.42157 4.67157 5.75 5.5 5.75H8.29076M15.7092 5.75C15.1159 4.28408 13.6787 3.25 12 3.25C10.3213 3.25 8.88415 4.28408 8.29076 5.75M12 7.25L13 6.25" stroke="#323544" stroke-width="1.5" stroke-linecap="round" stroke-linejoin="round"/>
</svg>
