<svg width="25" height="25" viewBox="0 0 25 25" fill="none" xmlns="http://www.w3.org/2000/svg">
<path d="M7.125 10.1724V4.75C7.125 3.92157 6.45343 3.25 5.625 3.25H4.125M18.375 12.8804V9.125C18.375 8.29657 17.7034 7.625 16.875 7.625H7.125V11.1902M18.375 12.8804V18.5M18.375 12.8804H13.1445M18.375 18.5C17.5466 18.5 16.875 19.1716 16.875 20C16.875 20.8284 17.5466 21.5 18.375 21.5C19.2034 21.5 19.875 20.8284 19.875 20C19.875 19.1716 19.2034 18.5 18.375 18.5ZM19.8277 19.625H22M7.125 11.1902C7.6909 10.9905 8.29978 10.8818 8.93405 10.8818C10.632 10.8818 12.148 11.6606 13.1445 12.8804M7.125 11.1902C5.01323 11.9356 3.5 13.949 3.5 16.3159C3.5 19.317 5.93291 21.7499 8.93405 21.7499C11.9352 21.7499 14.3681 19.317 14.3681 16.3159C14.3681 15.0127 13.9093 13.8166 13.1445 12.8804" stroke="#323544" stroke-width="1.5" stroke-linecap="round" stroke-linejoin="round"/>
</svg>
