<svg width="24" height="24" viewBox="0 0 24 24" fill="none" xmlns="http://www.w3.org/2000/svg">
<path opacity="0.4" d="M13.5 15.833V20.5H15V15.833H18V14.333H15V9.66699H18V8.16699H15V3.5H13.5V8.16699H6V9.66699H13.5V14.333H6V15.833H13.5Z" fill="#323544"/>
<path d="M6.75 2C5.50736 2 4.5 3.00736 4.5 4.25V19.75C4.5 20.9926 5.50736 22 6.75 22H7.5V22.75C7.5 23.1642 7.83579 23.5 8.25 23.5C8.66421 23.5 9 23.1642 9 22.75V22H17.25C18.4926 22 19.5 20.9926 19.5 19.75V4.25C19.5 3.00736 18.4926 2 17.25 2H6.75ZM6 19.75V4.25C6 3.83579 6.33579 3.5 6.75 3.5H17.25C17.6642 3.5 18 3.83579 18 4.25V19.75C18 20.1642 17.6642 20.5 17.25 20.5H6.75C6.33579 20.5 6 20.1642 6 19.75Z" fill="#323544"/>
</svg>
