<svg width="24" height="24" viewBox="0 0 24 24" fill="none" xmlns="http://www.w3.org/2000/svg">
<path d="M10 3C8.75736 3 7.75 4.00736 7.75 5.25V6H4.75C3.50736 6 2.5 7.00736 2.5 8.25V17.25C2.5 18.4926 3.50736 19.5 4.75 19.5H19.2502C20.4928 19.5 21.5002 18.4926 21.5002 17.25V8.25C21.5002 7.00736 20.4928 6 19.2502 6H16.25V5.25C16.25 4.00736 15.2426 3 14 3H10ZM14 4.5C14.4142 4.5 14.75 4.83579 14.75 5.25V6H9.25V5.25C9.25 4.83579 9.58579 4.5 10 4.5H14ZM4 8.25C4 7.83579 4.33579 7.5 4.75 7.5H19.2502C19.6644 7.5 20.0002 7.83579 20.0002 8.25V10.5V12V17.25C20.0002 17.6642 19.6644 18 19.2502 18H4.75C4.33579 18 4 17.6642 4 17.25V12V10.5V8.25Z" fill="#323544"/>
<path opacity="0.4" d="M20.0002 10.5H14.5816C14.3007 9.90876 13.6981 9.5 13 9.5H11C10.3019 9.5 9.69927 9.90876 9.41841 10.5H4V12H9.41841C9.69927 12.5912 10.3019 13 11 13H13C13.6981 13 14.3007 12.5912 14.5816 12H20.0002V10.5Z" fill="#323544"/>
</svg>
