<svg width="24" height="24" viewBox="0 0 24 24" fill="none" xmlns="http://www.w3.org/2000/svg">
<path d="M10.25 3.75C10.25 2.7835 11.0335 2 12 2C12.9665 2 13.7501 2.7835 13.7501 3.75C13.7501 4.7165 12.9666 5.5 12.0001 5.5C11.0336 5.5 10.25 4.7165 10.25 3.75Z" fill="#323544"/>
<path d="M10.4977 7.92722C10.1522 8.1822 9.88931 8.55497 9.6945 9.03302C9.53819 9.41661 9.10052 9.60086 8.71693 9.44455C8.33334 9.28824 8.1491 8.85057 8.3054 8.46698C8.57378 7.80838 8.98249 7.18115 9.60698 6.72029C10.2382 6.25443 11.0341 6 12 6C12.9658 6 13.7617 6.25443 14.3929 6.72029C15.0174 7.18115 15.4261 7.80838 15.6945 8.46698C15.8508 8.85057 15.6666 9.28824 15.283 9.44455C14.8994 9.60086 14.4617 9.41661 14.3054 9.03302C14.1106 8.55497 13.8477 8.1822 13.5022 7.92722C13.1635 7.67724 12.691 7.5 12 7.5C11.3089 7.5 10.8364 7.67724 10.4977 7.92722Z" fill="#323544"/>
<path d="M5.1945 21.533C5.38931 21.055 5.65216 20.6822 5.99767 20.4272C6.3364 20.1772 6.80891 20 7.49995 20C8.191 20 8.66351 20.1772 9.00224 20.4272C9.34774 20.6822 9.6106 21.055 9.8054 21.533C9.96171 21.9166 10.3994 22.1009 10.783 21.9445C11.1666 21.7882 11.3508 21.3506 11.1945 20.967C10.9261 20.3084 10.5174 19.6812 9.89293 19.2203C9.26167 18.7544 8.46576 18.5 7.49995 18.5C6.53414 18.5 5.73824 18.7544 5.10698 19.2203C4.48249 19.6812 4.07378 20.3084 3.8054 20.967C3.6491 21.3506 3.83334 21.7882 4.21693 21.9445C4.60052 22.1009 5.03819 21.9166 5.1945 21.533Z" fill="#323544"/>
<path d="M5.74995 16.25C5.74995 15.2835 6.53346 14.5 7.49995 14.5C8.46645 14.5 9.25005 15.2835 9.25005 16.25C9.25005 17.2165 8.46655 18 7.50005 18C6.53356 18 5.74995 17.2165 5.74995 16.25Z" fill="#323544"/>
<path d="M14.1945 21.533C14.3893 21.055 14.6522 20.6822 14.9977 20.4272C15.3364 20.1772 15.8089 20 16.5 20C17.191 20 17.6635 20.1772 18.0022 20.4272C18.3477 20.6822 18.6106 21.055 18.8054 21.533C18.9617 21.9166 19.3994 22.1009 19.783 21.9445C20.1666 21.7882 20.3508 21.3506 20.1945 20.967C19.9261 20.3084 19.5174 19.6812 18.8929 19.2203C18.2617 18.7544 17.4658 18.5 16.5 18.5C15.5341 18.5 14.7382 18.7544 14.107 19.2203C13.4825 19.6812 13.0738 20.3084 12.8054 20.967C12.6491 21.3506 12.8333 21.7882 13.2169 21.9445C13.6005 22.1009 14.0382 21.9166 14.1945 21.533Z" fill="#323544"/>
<path d="M14.75 16.25C14.75 15.2835 15.5335 14.5 16.5 14.5C17.4665 14.5 18.2501 15.2835 18.2501 16.25C18.2501 17.2165 17.4666 18 16.5001 18C15.5336 18 14.75 17.2165 14.75 16.25Z" fill="#323544"/>
<path opacity="0.4" d="M9.89258 12.8505C9.53386 13.0576 9.41096 13.5163 9.61806 13.875C9.82517 14.2337 10.2839 14.3566 10.6426 14.1495L11.9996 13.366L13.3566 14.1495C13.7154 14.3566 14.1741 14.2337 14.3812 13.875C14.5883 13.5163 14.4654 13.0576 14.1066 12.8505L12.75 12.0672L12.75 10.5C12.75 10.0858 12.4142 9.75 12 9.75C11.5858 9.75 11.25 10.0858 11.25 10.5V12.0668L9.89258 12.8505Z" fill="#323544"/>
</svg>
