<svg width="24" height="24" viewBox="0 0 24 24" fill="none" xmlns="http://www.w3.org/2000/svg">
<path d="M20.5 18.1992V17.9385L10.2109 14.5H4.25C3.00746 14.5 2.00017 13.4925 2 12.25V9.14844C2 7.9058 3.00736 6.89844 4.25 6.89844H10.208L20.5 3.45898V3.19922C20.5 2.78501 20.8358 2.44922 21.25 2.44922C21.6642 2.44922 22 2.78501 22 3.19922V18.1992C22 18.6134 21.6642 18.9492 21.25 18.9492C20.8358 18.9492 20.5 18.6134 20.5 18.1992ZM11.0811 8.1875V13.209L20.5 16.3574V5.04004L11.0811 8.1875ZM3.5 12.25C3.50017 12.6641 3.83589 13 4.25 13H9.58105V8.39844H4.25C3.83579 8.39844 3.5 8.73422 3.5 9.14844V12.25Z" fill="#323544"/>
<path opacity="0.4" d="M8.23535 14.5L8.64453 17.3838L8.6748 17.5117C8.77095 17.7984 9.04163 17.999 9.35352 17.999C9.76766 17.999 10.0892 17.6508 10.0684 17.248L10.0596 17.167L9.61816 14.5H10.2109L11.1934 14.8281L11.5391 16.9229L11.5664 17.1738C11.6307 18.4206 10.6358 19.499 9.35352 19.499C8.31901 19.499 7.43263 18.7854 7.19824 17.7959L7.16016 17.5947L6.72168 14.5H8.23535Z" fill="#323544"/>
</svg>
