<svg width="24" height="24" viewBox="0 0 24 24" fill="none" xmlns="http://www.w3.org/2000/svg">
<path opacity="0.4" d="M10.6733 3.5V2C8.37916 2 6.51941 3.85976 6.51941 6.15388V14.4422L6.51969 14.4629V16.5192C6.51969 19.5462 8.97353 22 12.0005 22C15.0275 22 17.4813 19.5461 17.4813 16.5192V9.55775C17.4813 9.14354 17.1455 8.80775 16.7313 8.80775C16.3171 8.80775 15.9813 9.14354 15.9813 9.55775V16.5192C15.9813 18.7177 14.199 20.5 12.0005 20.5C9.80196 20.5 8.01969 18.7177 8.01969 16.5192V9.55775L8.01941 9.53711L8.01941 6.15388C8.01941 4.68818 9.20759 3.5 10.6733 3.5Z" fill="#323544"/>
<path d="M13.3271 14.4422C13.3271 14.452 13.3273 14.4618 13.3277 14.4714V15.7696C13.3277 16.5024 12.7336 17.0965 12.0008 17.0965C11.2679 17.0965 10.6738 16.5024 10.6738 15.7696V7.65429C10.6738 7.24008 10.338 6.90429 9.92383 6.90429C9.50961 6.90429 9.17383 7.24008 9.17383 7.65429V15.7696C9.17383 17.3309 10.4395 18.5965 12.0008 18.5965C13.562 18.5965 14.8277 17.3309 14.8277 15.7696V6.15429C14.8277 6.14353 14.8275 6.13283 14.827 6.12217C14.81 3.84265 12.9568 2 10.6733 2V3.5C12.139 3.5 13.3271 4.68818 13.3271 6.15388L13.3271 14.4422Z" fill="#323544"/>
</svg>
