<svg width="24" height="24" viewBox="0 0 24 24" fill="none" xmlns="http://www.w3.org/2000/svg">
<g opacity="0.4">
<path d="M3.35427 10.4603C2.95417 10.3531 2.71673 9.94185 2.82394 9.54175C3.36516 7.52186 4.55777 5.737 6.21678 4.464C7.8758 3.19099 9.90851 2.50098 11.9997 2.50098C14.0908 2.50098 16.1235 3.19099 17.7825 4.464C19.1882 5.54258 20.259 6.98861 20.8825 8.63372L21.6433 7.28239C21.8465 6.92145 22.3038 6.79358 22.6648 6.99679C23.0257 7.2 23.1536 7.65734 22.9504 8.01828L21.2157 11.0993C21.1181 11.2727 20.9557 11.4001 20.7641 11.4537C20.5725 11.5072 20.3675 11.4825 20.1942 11.3849L17.1135 9.65017C16.7526 9.44694 16.6247 8.98959 16.828 8.62867C17.0312 8.26774 17.4885 8.1399 17.8495 8.34314L19.5246 9.28639C19.0069 7.85095 18.0874 6.58866 16.8694 5.65403C15.4723 4.58203 13.7606 4.00098 11.9997 4.00098C10.2387 4.00098 8.52698 4.58203 7.12993 5.65403C5.73288 6.72602 4.72859 8.22904 4.27283 9.92998C4.16562 10.3301 3.75437 10.5675 3.35427 10.4603Z" fill="#323544"/>
<path d="M20.6478 13.5397C21.0479 13.6469 21.2853 14.0581 21.1781 14.4582C20.6369 16.4781 19.4443 18.263 17.7852 19.536C16.1262 20.809 14.0935 21.499 12.0024 21.499C9.91123 21.499 7.87852 20.809 6.2195 19.536C4.81098 18.4552 3.73865 17.0054 3.11572 15.3562L2.34899 16.718C2.14578 17.079 1.68844 17.2068 1.3275 17.0036C0.96656 16.8004 0.838693 16.3431 1.0419 15.9821L2.77653 12.9011C2.87412 12.7278 3.03657 12.6003 3.22815 12.5467C3.41972 12.4932 3.62473 12.5179 3.79806 12.6155L6.87877 14.3502C7.23969 14.5535 7.36753 15.0108 7.16429 15.3718C6.96106 15.7327 6.50372 15.8605 6.14279 15.6573L4.48011 14.721C4.99829 16.1534 5.9167 17.4129 7.13264 18.346C8.52969 19.418 10.2414 19.999 12.0024 19.999C13.7633 19.999 15.475 19.418 16.8721 18.346C18.2691 17.274 19.2734 15.7709 19.7292 14.07C19.8364 13.6699 20.2477 13.4325 20.6478 13.5397Z" fill="#323544"/>
</g>
<path d="M10.3848 9.86042C10.3848 8.96777 11.1084 8.24414 12.001 8.24414C12.8937 8.24414 13.6173 8.96777 13.6173 9.86042C13.6173 10.7531 12.8937 11.4767 12.001 11.4767C11.1084 11.4767 10.3848 10.7531 10.3848 9.86042Z" fill="#323544"/>
<path d="M10.7872 12.0869C9.55098 12.0869 8.54883 13.0891 8.54883 14.3253V15.2555C8.54883 15.6697 8.88461 16.0055 9.29883 16.0055H14.7039C15.1181 16.0055 15.4539 15.6697 15.4539 15.2555V14.3253C15.4539 13.0891 14.4517 12.0869 13.2155 12.0869H10.7872ZM10.0488 14.3253C10.0488 13.9175 10.3794 13.5869 10.7872 13.5869H13.2155C13.6233 13.5869 13.9539 13.9175 13.9539 14.3253V14.5055H10.0488V14.3253Z" fill="#323544"/>
</svg>
