<svg width="24" height="24" viewBox="0 0 24 24" fill="none" xmlns="http://www.w3.org/2000/svg">
<g opacity="0.4">
<path d="M3.35427 10.4603C2.95417 10.3531 2.71673 9.94185 2.82394 9.54175C3.36516 7.52186 4.55777 5.737 6.21679 4.464C7.8758 3.19099 9.90851 2.50098 11.9997 2.50098C14.0908 2.50098 16.1235 3.19099 17.7825 4.464C19.1882 5.54261 20.259 6.98868 20.8825 8.63384L21.6433 7.28259C21.8465 6.92165 22.3038 6.79378 22.6648 6.99699C23.0257 7.2002 23.1536 7.65754 22.9504 8.01848L21.2157 11.0995C21.1181 11.2729 20.9557 11.4003 20.7641 11.4539C20.5725 11.5074 20.3675 11.4827 20.1942 11.3851L17.1135 9.65037C16.7526 9.44713 16.6247 8.98979 16.828 8.62886C17.0312 8.26794 17.4885 8.1401 17.8495 8.34334L19.5247 9.28664C19.007 7.8511 18.0875 6.58872 16.8694 5.65403C15.4723 4.58203 13.7606 4.00098 11.9997 4.00098C10.2387 4.00098 8.52698 4.58203 7.12993 5.65403C5.73288 6.72602 4.72859 8.22904 4.27283 9.92998C4.16562 10.3301 3.75437 10.5675 3.35427 10.4603Z" fill="#323544"/>
<path d="M20.6478 13.5393C21.0479 13.6465 21.2853 14.0577 21.1781 14.4578C20.6369 16.4777 19.4443 18.2626 17.7852 19.5356C16.1262 20.8086 14.0935 21.4986 12.0024 21.4986C9.91123 21.4986 7.87852 20.8086 6.2195 19.5356C4.81104 18.4548 3.73874 17.0051 3.1158 15.3559L2.34899 16.718C2.14578 17.0789 1.68844 17.2068 1.3275 17.0035C0.96656 16.8003 0.838693 16.343 1.0419 15.9821L2.77653 12.901C2.87412 12.7277 3.03657 12.6002 3.22815 12.5467C3.41972 12.4931 3.62473 12.5179 3.79806 12.6155L6.87877 14.3502C7.23969 14.5534 7.36753 15.0108 7.16429 15.3717C6.96106 15.7326 6.50372 15.8604 6.14279 15.6572L4.48027 14.7211C4.99848 16.1532 5.91683 17.4126 7.13264 18.3455C8.52969 19.4175 10.2414 19.9986 12.0024 19.9986C13.7633 19.9986 15.475 19.4175 16.8721 18.3455C18.2691 17.2735 19.2734 15.7705 19.7292 14.0696C19.8364 13.6695 20.2477 13.432 20.6478 13.5393Z" fill="#323544"/>
</g>
<path d="M12.0009 7.80811C12.4151 7.80811 12.7509 8.14389 12.7509 8.55811V8.72708C13.4994 8.91626 14.0533 9.59411 14.0533 10.4013C14.0533 10.8155 13.7175 11.1513 13.3033 11.1513C12.889 11.1513 12.5533 10.8155 12.5533 10.4013C12.5533 10.2761 12.4517 10.1745 12.3264 10.1745H11.9314C11.6648 10.1745 11.4486 10.3907 11.4486 10.6573C11.4486 10.8586 11.5734 11.0387 11.7619 11.1094L12.7667 11.4862C13.5406 11.7764 14.0533 12.5162 14.0533 13.3427C14.0533 14.1988 13.5108 14.9281 12.7509 15.2057V15.4418C12.7509 15.856 12.4151 16.1918 12.0009 16.1918C11.5867 16.1918 11.2509 15.856 11.2509 15.4418V15.273C10.5025 15.0838 9.94861 14.406 9.94861 13.5987C9.94861 13.1845 10.2844 12.8487 10.6986 12.8487C11.1128 12.8487 11.4486 13.1845 11.4486 13.5987C11.4486 13.724 11.5502 13.8255 11.6754 13.8255H12.0705C12.3371 13.8255 12.5533 13.6094 12.5533 13.3427C12.5533 13.1415 12.4284 12.9614 12.24 12.8907L11.2352 12.5139C10.4613 12.2236 9.94861 11.4838 9.94861 10.6573C9.94861 9.80131 10.491 9.072 11.2509 8.79437V8.55811C11.2509 8.14389 11.5867 7.80811 12.0009 7.80811Z" fill="#323544"/>
</svg>
