<svg width="24" height="24" viewBox="0 0 24 24" fill="none" xmlns="http://www.w3.org/2000/svg">
<path opacity="0.4" d="M11.3447 2C10.048 2 9.01965 3.0932 9.0989 4.3875L9.70272 14.25H11.2055L10.5961 4.29583C10.5697 3.8644 10.9125 3.5 11.3447 3.5H12.6554C13.0876 3.5 13.4304 3.8644 13.404 4.29583L12.7946 14.25H14.2974L14.9012 4.3875C14.9804 3.0932 13.9521 2 12.6554 2H11.3447Z" fill="#323544"/>
<path d="M18.5 14.25H14.2973H12.7945H11.2055H9.70268H5.5C4.25736 14.25 3.25 15.2574 3.25 16.5V19.75C3.25 19.9489 3.32902 20.1397 3.46967 20.2803C3.61032 20.421 3.80109 20.5 4 20.5H4.5V21.25C4.5 21.6642 4.83579 22 5.25 22H18.75C19.1642 22 19.5 21.6642 19.5 21.25V20.5H20C20.4142 20.5 20.75 20.1642 20.75 19.75V16.5C20.75 15.2574 19.7426 14.25 18.5 14.25ZM19.25 16.5V19H4.75V16.5C4.75 16.0858 5.08579 15.75 5.5 15.75H18.5C18.9142 15.75 19.25 16.0858 19.25 16.5Z" fill="#323544"/>
</svg>
