<svg width="24" height="25" viewBox="0 0 24 25" fill="none" xmlns="http://www.w3.org/2000/svg">
<path d="M4.5 4.53125C4.5 3.28861 5.50736 2.28125 6.75 2.28125H17.25C18.4926 2.28125 19.5 3.28861 19.5 4.53125V20.0312C19.5 21.2739 18.4926 22.2812 17.25 22.2812H6.75C5.50736 22.2812 4.5 21.2739 4.5 20.0312V4.53125ZM18 7.53125V4.53125C18 4.11704 17.6642 3.78125 17.25 3.78125H6.75C6.33579 3.78125 6 4.11704 6 4.53125V7.53125H18ZM9.49957 10.8672C9.49957 10.591 9.27571 10.3672 8.99957 10.3672C8.72342 10.3672 8.49957 10.591 8.49957 10.8672V11.6574H7.70939C7.43325 11.6574 7.20939 11.8812 7.20939 12.1574C7.20939 12.4335 7.43325 12.6574 7.70939 12.6574H8.49957V13.4477C8.49957 13.7239 8.72342 13.9477 8.99957 13.9477C9.27571 13.9477 9.49957 13.7239 9.49957 13.4477V12.6574H10.2899C10.5661 12.6574 10.7899 12.4335 10.7899 12.1574C10.7899 11.8812 10.5661 11.6574 10.2899 11.6574H9.49957V10.8672ZM14.346 10.7968C14.1507 10.6015 13.8341 10.6015 13.6389 10.7968C13.4436 10.992 13.4436 11.3086 13.6389 11.5039L14.2924 12.1574L13.6389 12.8109C13.4436 13.0062 13.4436 13.3228 13.6389 13.518C13.8341 13.7133 14.1507 13.7133 14.346 13.518L14.9995 12.8645L15.653 13.518C15.8483 13.7133 16.1648 13.7133 16.3601 13.518C16.5554 13.3228 16.5554 13.0062 16.3601 12.8109L15.7066 12.1574L16.3601 11.5039C16.5554 11.3086 16.5554 10.9921 16.3601 10.7968C16.1648 10.6015 15.8483 10.6015 15.653 10.7968L14.9995 11.4503L14.346 10.7968ZM13.709 16.4249C13.4328 16.4249 13.209 16.6488 13.209 16.9249C13.209 17.201 13.4328 17.4249 13.709 17.4249H16.2904C16.5665 17.4249 16.7904 17.201 16.7904 16.9249C16.7904 16.6488 16.5665 16.4249 16.2904 16.4249H13.709ZM7.70898 17.1574C7.43284 17.1574 7.20898 17.3813 7.20898 17.6574C7.20898 17.9335 7.43284 18.1574 7.70898 18.1574H10.2904C10.5665 18.1574 10.7904 17.9335 10.7904 17.6574C10.7904 17.3813 10.5665 17.1574 10.2904 17.1574H7.70898ZM13.709 17.89C13.4328 17.89 13.209 18.1139 13.209 18.39C13.209 18.6662 13.4328 18.89 13.709 18.89H16.2904C16.5665 18.89 16.7904 18.6662 16.7904 18.39C16.7904 18.1139 16.5665 17.89 16.2904 17.89H13.709Z" fill="#323544"/>
</svg>
