<svg width="24" height="25" viewBox="0 0 24 25" fill="none" xmlns="http://www.w3.org/2000/svg">
<path d="M4.5 4.53125C4.5 3.28861 5.50736 2.28125 6.75 2.28125H17.25C18.4926 2.28125 19.5 3.28861 19.5 4.53125V20.0312C19.5 21.2739 18.4926 22.2812 17.25 22.2812H6.75C5.50736 22.2812 4.5 21.2739 4.5 20.0312V4.53125ZM8.25 5.28125C7.83579 5.28125 7.5 5.61704 7.5 6.03125V7.53125C7.5 7.94546 7.83579 8.28125 8.25 8.28125H15.75C16.1642 8.28125 16.5 7.94546 16.5 7.53125V6.03125C16.5 5.61704 16.1642 5.28125 15.75 5.28125H8.25ZM8.5 10.1313C8.00294 10.1313 7.6 10.5342 7.6 11.0312C7.6 11.5283 8.00294 11.9313 8.5 11.9313H8.51C9.00706 11.9313 9.41 11.5283 9.41 11.0312C9.41 10.5342 9.00706 10.1313 8.51 10.1313H8.5ZM12 10.1313C11.5029 10.1313 11.1 10.5342 11.1 11.0312C11.1 11.5283 11.5029 11.9313 12 11.9313H12.01C12.5071 11.9313 12.91 11.5283 12.91 11.0312C12.91 10.5342 12.5071 10.1313 12.01 10.1313H12ZM15.5 10.1313C15.0029 10.1313 14.6 10.5342 14.6 11.0312C14.6 11.5283 15.0029 11.9313 15.5 11.9313H15.51C16.0071 11.9313 16.41 11.5283 16.41 11.0312C16.41 10.5342 16.0071 10.1313 15.51 10.1313H15.5ZM8.5 13.6313C8.00294 13.6313 7.6 14.0342 7.6 14.5312C7.6 15.0283 8.00294 15.4313 8.5 15.4313H8.51C9.00706 15.4313 9.41 15.0283 9.41 14.5312C9.41 14.0342 9.00706 13.6313 8.51 13.6313H8.5ZM12 13.6313C11.5029 13.6313 11.1 14.0342 11.1 14.5312C11.1 15.0283 11.5029 15.4313 12 15.4313H12.01C12.5071 15.4313 12.91 15.0283 12.91 14.5312C12.91 14.0342 12.5071 13.6313 12.01 13.6313H12ZM15.5 13.6313C15.0029 13.6313 14.6 14.0342 14.6 14.5312C14.6 15.0283 15.0029 15.4313 15.5 15.4313H15.51C16.0071 15.4313 16.41 15.0283 16.41 14.5312C16.41 14.0342 16.0071 13.6313 15.51 13.6313H15.5ZM8.5 17.1313C8.00294 17.1313 7.6 17.5342 7.6 18.0312C7.6 18.5283 8.00294 18.9313 8.5 18.9313H8.51C9.00706 18.9313 9.41 18.5283 9.41 18.0312C9.41 17.5342 9.00706 17.1313 8.51 17.1313H8.5ZM12 17.1313C11.5029 17.1313 11.1 17.5342 11.1 18.0312C11.1 18.5283 11.5029 18.9313 12 18.9313H12.01C12.5071 18.9313 12.91 18.5283 12.91 18.0312C12.91 17.5342 12.5071 17.1313 12.01 17.1313H12ZM15.5 17.1313C15.0029 17.1313 14.6 17.5342 14.6 18.0312C14.6 18.5283 15.0029 18.9313 15.5 18.9313H15.51C16.0071 18.9313 16.41 18.5283 16.41 18.0312C16.41 17.5342 16.0071 17.1313 15.51 17.1313H15.5Z" fill="#323544"/>
</svg>
