<svg width="24" height="25" viewBox="0 0 24 25" fill="none" xmlns="http://www.w3.org/2000/svg">
<path d="M8.19114 3.90369C8.61587 3.33496 9.28408 3 9.9939 3H14.006C14.7159 3 15.3841 3.33496 15.8088 3.90369L16.4026 4.6988C16.5442 4.88838 16.7669 5.00003 17.0035 5.00003H19.75C20.9926 5.00003 22 6.00739 22 7.25003V17.5C22 18.7427 20.9926 19.75 19.75 19.75H4.25C3.00736 19.75 2 18.7427 2 17.5V7.25003C2 6.00739 3.00736 5.00003 4.25 5.00003H6.99643C7.23304 5.00003 7.45577 4.88838 7.59735 4.6988L8.19114 3.90369ZM12 16.002C14.2091 16.002 16 14.2111 16 12.002C16 9.79281 14.2091 8.00195 12 8.00195C9.79086 8.00195 8 9.79281 8 12.002C8 14.2111 9.79086 16.002 12 16.002Z" fill="#323544"/>
</svg>
