<svg width="24" height="25" viewBox="0 0 24 25" fill="none" xmlns="http://www.w3.org/2000/svg">
<path d="M14.0934 14.7431C14.149 14.7657 14.2074 14.7817 14.2674 14.7905C15.9739 15.0397 17.7759 14.5077 19.091 13.1925C21.3012 10.9824 21.3012 7.39902 19.091 5.18886C16.8809 2.97871 13.2975 2.97871 11.0874 5.18886C9.77219 6.50404 9.24018 8.30602 9.48942 10.0125C9.49819 10.0725 9.51414 10.1308 9.53668 10.1863C9.5733 10.2766 9.62803 10.3614 9.70124 10.4346L13.8455 14.5789C13.9186 14.6519 14.0033 14.7065 14.0934 14.7431Z" fill="#323544"/>
<path d="M13.2991 15.4283C13.2434 15.3847 13.1897 15.3373 13.1384 15.286L8.99413 11.1417C8.94273 11.0903 8.8952 11.0365 8.85153 10.9807L3.79722 16.8403C3.02755 17.7326 3.07674 19.0676 3.90999 19.9009L4.37889 20.3698C5.21214 21.203 6.54714 21.2522 7.43946 20.4826L13.2991 15.4283Z" fill="#323544"/>
</svg>
