<svg width="24" height="25" viewBox="0 0 24 25" fill="none" xmlns="http://www.w3.org/2000/svg">
<path d="M12 3.53125C7.16753 3.53125 3.25 7.44878 3.25 12.2813L3.25003 17.5312C3.25003 18.7739 4.25739 19.7812 5.50003 19.7812H6.50003C7.74267 19.7812 8.75003 18.7739 8.75003 17.5312V14.0312C8.75003 12.7886 7.74267 11.7812 6.50003 11.7812H5.50003C5.24061 11.7812 4.99144 11.8252 4.75955 11.9059C4.95486 8.0763 8.12185 5.03125 12 5.03125C15.8782 5.03125 19.0452 8.07627 19.2405 11.9059C19.0087 11.8251 18.7596 11.7812 18.5002 11.7812H17.5002C16.2576 11.7812 15.2502 12.7886 15.2502 14.0312V17.5312C15.2502 18.7739 16.2576 19.7812 17.5002 19.7812H18.5002C19.7429 19.7812 20.7502 18.7739 20.7502 17.5312L20.7501 12.2813C20.7501 7.44878 16.8326 3.53125 12 3.53125Z" fill="#323544"/>
</svg>
