<svg width="24" height="24" viewBox="0 0 24 24" fill="none" xmlns="http://www.w3.org/2000/svg">
<path d="M6.25 3.25C5.00736 3.25 4 4.25736 4 5.5V13.6743C3.87079 13.8515 3.76613 14.0495 3.69188 14.264L2.48034 17.764C1.97441 19.2256 3.05991 20.75 4.60656 20.75H11.22C11.1321 20.4316 11.0852 20.0963 11.0852 19.75V13.5C11.0852 13.2432 11.111 12.9923 11.1602 12.75H5.8181C5.71053 12.75 5.60429 12.7577 5.5 12.7725V5.5C5.5 5.08579 5.83579 4.75 6.25 4.75H17.7499C18.1641 4.75 18.4999 5.08579 18.4999 5.5V9.75143C19.0356 9.76611 19.5431 9.8931 19.9999 10.1097V5.5C19.9999 4.25736 18.9926 3.25 17.7499 3.25H6.25Z" fill="#323544"/>
<path d="M14.8352 11.25C13.5926 11.25 12.5852 12.2574 12.5852 13.5V19.75C12.5852 20.9926 13.5926 22 14.8352 22H18.3953C19.6379 22 20.6453 20.9926 20.6453 19.75V13.5C20.6453 12.2574 19.6379 11.25 18.3953 11.25H14.8352ZM15.8057 18.25C15.8057 17.8082 16.1639 17.45 16.6057 17.45H16.6157C17.0575 17.45 17.4157 17.8082 17.4157 18.25C17.4157 18.6918 17.0575 19.05 16.6157 19.05H16.6057C16.1639 19.05 15.8057 18.6918 15.8057 18.25Z" fill="#323544"/>
</svg>
