<svg width="24" height="24" viewBox="0 0 24 24" fill="none" xmlns="http://www.w3.org/2000/svg">
<path d="M11.6918 4.5L10.4085 5.78415C9.53052 6.6627 9.5305 8.0865 10.4085 8.96507L12.9085 11.4668C13.7868 12.3458 15.2114 12.3463 16.0904 11.4679C16.3387 11.2198 16.5169 10.9281 16.625 10.6175C16.7331 10.9281 16.9113 11.2198 17.1596 11.4679C18.0386 12.3463 19.4632 12.3458 20.3415 11.4668L22 9.80721V15.3438C22 16.5864 20.9926 17.5938 19.75 17.5938H12.75V19.25H15C15.4142 19.25 15.75 19.5858 15.75 20C15.75 20.4142 15.4142 20.75 15 20.75H9.00003C8.58582 20.75 8.25003 20.4142 8.25003 20C8.25003 19.5858 8.58582 19.25 9.00003 19.25H11.25V17.5938H4.25C3.00736 17.5938 2 16.5864 2 15.3438V6.75C2 5.50736 3.00736 4.5 4.25 4.5H11.6918Z" fill="#323544"/>
<path d="M15.0302 4.34255C15.3231 4.63535 15.3233 5.11022 15.0305 5.40321L13.0603 7.37465L15.0305 9.34624C15.3233 9.63924 15.3231 10.1141 15.0301 10.4069C14.7371 10.6997 14.2623 10.6995 13.9695 10.4065L11.4695 7.90478C11.1768 7.61192 11.1768 7.13732 11.4695 6.84448L13.9695 4.34289C14.2623 4.0499 14.7372 4.04975 15.0302 4.34255ZM18.2198 4.34255C18.5128 4.04975 18.9877 4.0499 19.2805 4.34289L21.7805 6.84448C22.0732 7.13732 22.0732 7.61192 21.7805 7.90478L19.2805 10.4065C18.9877 10.6995 18.5129 10.6997 18.2199 10.4069C17.9269 10.1141 17.9267 9.63924 18.2195 9.34624L20.1897 7.37465L18.2195 5.40321C17.9267 5.11022 17.9269 4.63535 18.2198 4.34255Z" fill="#323544"/>
</svg>
