<svg width="24" height="25" viewBox="0 0 24 25" fill="none" xmlns="http://www.w3.org/2000/svg">
<path d="M4.5 9.75C4.5 5.60786 7.85786 2.25 12 2.25C16.1421 2.25 19.5 5.60786 19.5 9.75V14.75C19.5 18.8921 16.1421 22.25 12 22.25C7.85786 22.25 4.5 18.8921 4.5 14.75V9.75ZM12 9.30323C12.4418 9.30323 12.8 8.94495 12.8 8.50312C12.8 8.0613 12.4418 7.70312 12 7.70312C11.5582 7.70312 11.2 8.0614 11.2 8.50322C11.2 8.94505 11.5582 9.30323 12 9.30323ZM11.4698 16.5259C11.7626 16.8186 12.2372 16.8186 12.5301 16.5259L14.7801 14.2774C15.0731 13.9846 15.0733 13.5098 14.7805 13.2168C14.4877 12.9238 14.0129 12.9236 13.7199 13.2164L11.9999 14.9351L10.2802 13.2164C9.98718 12.9236 9.5123 12.9238 9.2195 13.2168C8.9267 13.5097 8.92685 13.9846 9.21984 14.2774L11.4698 16.5259ZM12 12.1196C12.4418 12.1196 12.8 11.7615 12.8 11.3196C12.8 10.8778 12.4418 10.5195 12 10.5195C11.5582 10.5195 11.2 10.8778 11.2 11.3196C11.2 11.7615 11.5582 12.1196 12 12.1196Z" fill="#323544"/>
</svg>
