<svg width="25" height="24" viewBox="0 0 25 24" fill="none" xmlns="http://www.w3.org/2000/svg">
<path fill-rule="evenodd" clip-rule="evenodd" d="M6.77344 3.5C6.35922 3.5 6.02344 3.83579 6.02344 4.25L6.02344 6.75C6.02344 9.09721 7.92623 11 10.2734 11C12.6206 11 14.5234 9.09721 14.5234 6.75L14.5234 4.25C14.5234 3.83579 14.1876 3.5 13.7734 3.5H13.5234C13.1092 3.5 12.7734 3.16421 12.7734 2.75C12.7734 2.33579 13.1092 2 13.5234 2H13.7734C15.0161 2 16.0234 3.00736 16.0234 4.25L16.0234 6.75C16.0234 9.67145 13.8447 12.084 11.0234 12.4515L11.0234 16.5C11.0234 18.433 12.5904 20 14.5234 20C16.4564 20 18.0234 18.433 18.0234 16.5L18.0234 14.9852C17.0092 14.6666 16.2734 13.719 16.2734 12.5996C16.2734 11.2189 17.3927 10.0996 18.7734 10.0996C20.1541 10.0996 21.2734 11.2189 21.2734 12.5996C21.2734 13.719 20.5377 14.6666 19.5234 14.9852V16.5C19.5234 19.2614 17.2849 21.5 14.5234 21.5C11.762 21.5 9.52344 19.2614 9.52344 16.5L9.52344 12.4515C6.70217 12.084 4.52344 9.67145 4.52344 6.75V4.25C4.52344 3.00736 5.5308 2 6.77344 2H7.02344C7.43765 2 7.77344 2.33579 7.77344 2.75C7.77344 3.16421 7.43765 3.5 7.02344 3.5L6.77344 3.5ZM17.7734 12.5996C17.7734 12.0473 18.2212 11.5996 18.7734 11.5996C19.3257 11.5996 19.7734 12.0473 19.7734 12.5996C19.7734 13.1519 19.3257 13.5996 18.7734 13.5996C18.2212 13.5996 17.7734 13.1519 17.7734 12.5996Z" fill="#323544"/>
</svg>
