<svg width="25" height="24" viewBox="0 0 25 24" fill="none" xmlns="http://www.w3.org/2000/svg">
<path fill-rule="evenodd" clip-rule="evenodd" d="M2.64844 2.75C2.64844 2.33579 2.98422 2 3.39844 2H4.89844C6.14108 2 7.14844 3.00736 7.14844 4.25V6.375H16.1484C17.3911 6.375 18.3984 7.38236 18.3984 8.625V17.378C18.9068 17.5577 19.3312 17.9148 19.5974 18.375H21.2734C21.6877 18.375 22.0234 18.7108 22.0234 19.125C22.0234 19.5392 21.6877 19.875 21.2734 19.875H19.8673C19.6888 20.9391 18.7633 21.75 17.6484 21.75C16.4058 21.75 15.3984 20.7426 15.3984 19.5C15.3984 18.5203 16.0245 17.6869 16.8984 17.378V13.1304H13.7791C14.1715 13.9428 14.3915 14.8541 14.3915 15.8169C14.3915 19.2322 11.6228 22.0009 8.20748 22.0009C4.79213 22.0009 2.02344 19.2322 2.02344 15.8169C2.02344 13.3142 3.51008 11.1588 5.64844 10.1855V4.25C5.64844 3.83579 5.31265 3.5 4.89844 3.5H3.39844C2.98422 3.5 2.64844 3.16421 2.64844 2.75ZM7.14844 9.72314C7.49255 9.66376 7.8464 9.63281 8.20748 9.63281C10.008 9.63281 11.6288 10.4023 12.759 11.6304H16.8984V8.625C16.8984 8.21079 16.5627 7.875 16.1484 7.875H7.14844V9.72314ZM8.20748 11.1328C5.62056 11.1328 3.52344 13.2299 3.52344 15.8169C3.52344 18.4038 5.62056 20.5009 8.20748 20.5009C10.7944 20.5009 12.8915 18.4038 12.8915 15.8169C12.8915 13.2299 10.7944 11.1328 8.20748 11.1328ZM16.8984 19.5C16.8984 19.0858 17.2342 18.75 17.6484 18.75C18.0627 18.75 18.3984 19.0858 18.3984 19.5C18.3984 19.9142 18.0627 20.25 17.6484 20.25C17.2342 20.25 16.8984 19.9142 16.8984 19.5Z" fill="#323544"/>
</svg>
