<svg width="24" height="24" viewBox="0 0 24 24" fill="none" xmlns="http://www.w3.org/2000/svg">
<path d="M11.6842 2.06762C11.8745 1.97746 12.0949 1.97746 12.2953 2.06762L12.3153 2.08765H12.3253C12.3353 2.09767 12.3454 2.10769 12.3654 2.10769C12.3954 2.11771 12.4355 2.13774 12.4856 2.16779C12.5858 2.21788 12.726 2.29802 12.8963 2.40821C13.2369 2.61858 13.6777 2.94916 14.1285 3.40997C14.8965 4.19509 15.6719 5.36553 15.8847 6.98321C15.9205 7.2602 15.9399 7.55018 15.9399 7.85344C15.9399 8.25697 15.9112 8.63993 15.8552 9.0012C15.8457 9.06226 15.8355 9.12273 15.8245 9.18258C15.4469 8.67064 14.9692 8.23763 14.4196 7.9119C13.7096 7.49111 12.8803 7.25 12 7.25C11.1199 7.25 10.2907 7.49102 9.58079 7.91168C9.03119 8.23734 8.55343 8.67028 8.17586 9.18215C8.16483 9.12225 8.15459 9.06175 8.14513 9.00065C8.09875 8.70116 8.07112 8.38677 8.06304 8.0581H8.06787V7.84773C8.06787 5.77411 8.97946 4.31155 9.88104 3.38993C10.3318 2.92913 10.7726 2.59855 11.1132 2.38818C11.2735 2.288 11.4237 2.19785 11.5239 2.14776C11.574 2.12772 11.6141 2.10769 11.6441 2.08765C11.6541 2.07764 11.6742 2.06762 11.6742 2.06762H11.6842Z" fill="#323544"/>
<path d="M7.06389 8.10378C5.39903 8.29898 4.19946 9.0889 3.3997 9.87127C2.93889 10.3221 2.60831 10.7628 2.39794 11.1034C2.28775 11.2737 2.20761 11.414 2.15752 11.5142C2.12747 11.5642 2.10744 11.6043 2.09742 11.6344C2.09742 11.6544 2.0874 11.6644 2.07738 11.6744V11.6945C1.98723 11.8948 1.98723 12.1152 2.07738 12.3055V12.3256L2.09742 12.3656C2.10222 12.38 2.11162 12.3967 2.12231 12.4157C2.13393 12.4364 2.14709 12.4598 2.15752 12.4859C2.20761 12.586 2.29777 12.7363 2.39794 12.8966C2.60831 13.2372 2.93889 13.6779 3.3997 14.1287C4.19899 14.9106 5.40517 15.7001 7.06398 15.8959C7.07372 15.5343 7.10469 15.1839 7.15707 14.8458C7.22929 14.3796 7.34256 13.9348 7.49784 13.5168C7.33706 13.0395 7.25 12.529 7.25 12C7.25 11.4711 7.33704 10.9606 7.49781 10.4833C7.34244 10.0651 7.22913 9.62011 7.15691 9.15368C7.10456 8.81563 7.07361 8.46528 7.06389 8.10378Z" fill="#323544"/>
<path d="M8.17592 14.8179C8.16493 14.8777 8.15472 14.938 8.14528 14.9989C8.09886 15.2985 8.07121 15.6131 8.06313 15.9419H8.06787V16.1523C8.06787 18.2359 8.97946 19.6885 9.88104 20.6101C10.3318 21.0709 10.7726 21.4015 11.1132 21.6118C11.2835 21.722 11.4237 21.8022 11.5239 21.8522C11.574 21.8823 11.6141 21.9023 11.6441 21.9123C11.6642 21.9123 11.6742 21.9224 11.6842 21.9324H11.6942C11.8946 22.0225 12.115 22.0225 12.3053 21.9324H12.3153C12.3153 21.9324 12.3353 21.9324 12.3454 21.9224H12.3554C12.3679 21.9182 12.3823 21.9105 12.3984 21.9015L12.4055 21.8975C12.4261 21.8859 12.4495 21.8727 12.4756 21.8623C12.5758 21.8122 12.726 21.722 12.8863 21.6218C13.2269 21.4115 13.6677 21.0809 14.1185 20.6201C14.1238 20.6146 14.1292 20.609 14.1346 20.6035L14.1317 20.6006C14.4157 20.3098 14.7007 19.9657 14.9577 19.5655C15.5106 18.6986 15.9316 17.5716 15.9316 16.1623V15.9519H15.9377C15.9299 15.6196 15.9022 15.3018 15.8553 14.9992C15.8459 14.938 15.8356 14.8774 15.8245 14.8173C15.4469 15.3294 14.969 15.7625 14.4192 16.0883C13.7093 16.509 12.8802 16.75 12 16.75C11.1197 16.75 10.2904 16.5089 9.58043 16.0881C9.03101 15.7625 8.5534 15.3297 8.17592 14.8179Z" fill="#323544"/>
<path d="M16.9369 15.9061C18.6011 15.7106 19.8002 14.9209 20.5998 14.1387C21.0606 13.688 21.3912 13.2472 21.6016 12.9066C21.7117 12.7363 21.7919 12.596 21.842 12.4959C21.872 12.4458 21.8921 12.4057 21.9021 12.3757C21.9021 12.3556 21.9121 12.3456 21.9221 12.3356V12.3156C22.0123 12.1152 22.0123 11.8948 21.9221 11.7045C21.9221 11.7045 21.9221 11.6744 21.9121 11.6644V11.6544C21.8921 11.6243 21.872 11.5843 21.852 11.5342C21.8019 11.434 21.7117 11.2837 21.6116 11.1235C21.4012 10.7829 21.0706 10.3421 20.6098 9.89131C19.809 9.10789 18.5997 8.31691 16.936 8.12303C16.9257 8.47795 16.8949 8.82207 16.8434 9.1543C16.7712 9.62052 16.6579 10.0653 16.5026 10.4833C16.6634 10.9609 16.7504 11.4714 16.7504 12C16.7504 12.5285 16.6634 13.0391 16.5026 13.5166C16.658 13.9348 16.7713 14.3798 16.8436 14.8462C16.8964 15.1874 16.9274 15.5411 16.9369 15.9061Z" fill="#323544"/>
<path d="M8.57463 13.528C8.57457 13.5282 8.5747 13.5279 8.57463 13.528C8.36605 13.0609 8.25038 12.5431 8.25038 12C8.25038 11.457 8.36623 10.9396 8.57479 10.4724C8.57473 10.4723 8.57486 10.4726 8.57479 10.4724C8.63343 10.3412 8.6992 10.2134 8.77196 10.0906C9.09354 9.54787 9.54784 9.09357 10.0906 8.77199C10.6504 8.44023 11.3041 8.25 12 8.25C12.3386 8.25 12.6673 8.29505 12.98 8.37954C13.0715 8.40426 13.1616 8.43235 13.2502 8.46368C13.4812 8.54535 13.7019 8.64901 13.9097 8.77216C14.1195 8.89649 14.3161 9.04065 14.4969 9.20208C14.5673 9.265 14.6354 9.33054 14.7009 9.39856C14.7312 9.42997 14.7609 9.46192 14.7901 9.49437C14.9547 9.67756 15.1015 9.87707 15.2278 10.0902C15.3529 10.3013 15.4579 10.5258 15.5402 10.7608C15.6761 11.1492 15.75 11.5664 15.75 12C15.75 12.696 15.5597 13.3498 15.2278 13.9097C14.9063 14.4523 14.4521 14.9065 13.9095 15.228C13.3496 15.5598 12.6959 15.75 12 15.75C11.5664 15.75 11.1492 15.6761 10.7609 15.5402C10.5258 15.458 10.3014 15.353 10.0903 15.2278C9.87712 15.1015 9.67761 14.9547 9.49442 14.7901C9.21132 14.5357 8.96721 14.2389 8.772 13.9095C8.69923 13.7866 8.63327 13.6593 8.57463 13.528Z" fill="#323544"/>
</svg>
