<svg width="24" height="24" viewBox="0 0 24 24" fill="none" xmlns="http://www.w3.org/2000/svg">
<path d="M12 2.5C6.44533 2.5 2.39291 7.78887 3.40562 12.9823C3.60871 14.0238 4.55571 14.6223 5.48941 14.6223H18.5106C19.4443 14.6223 20.3913 14.0238 20.5944 12.9823C21.6071 7.78887 17.5547 2.5 12 2.5ZM11.6875 7.54688C11.6875 6.58038 12.471 5.79688 13.4375 5.79688C14.404 5.79688 15.1875 6.58038 15.1875 7.54688C15.1875 8.51337 14.404 9.29688 13.4375 9.29688C12.471 9.29688 11.6875 8.51337 11.6875 7.54688ZM7.24609 10.3008C7.24609 9.61042 7.80574 9.05078 8.49609 9.05078C9.18645 9.05078 9.74609 9.61042 9.74609 10.3008C9.74609 10.9911 9.18645 11.5508 8.49609 11.5508C7.80574 11.5508 7.24609 10.9911 7.24609 10.3008ZM15.8141 10.3657C16.3111 10.3657 16.7142 10.7687 16.7142 11.2657C16.7142 11.7628 16.3111 12.1657 15.8141 12.1657C15.317 12.1657 14.9141 11.7628 14.9141 11.2657C14.9141 10.7687 15.317 10.3657 15.8141 10.3657Z" fill="#323544"/>
<path d="M8.93558 19.0058L9.30454 15.6223H14.6952L15.0641 19.0058C15.2093 20.3371 14.1666 21.4998 12.8274 21.4998H11.1723C9.83312 21.4998 8.7904 20.3371 8.93558 19.0058Z" fill="#323544"/>
</svg>
