<svg width="25" height="24" viewBox="0 0 25 24" fill="none" xmlns="http://www.w3.org/2000/svg">
<path d="M20.0452 7.57264L18.4922 7.57305L7.00195 7.57264C5.75931 7.57264 4.75195 8.58 4.75195 9.82264V12.3172V18.1001V18.4983C4.75195 19.741 5.75931 20.7483 7.00195 20.7483H20.002C21.2446 20.7483 22.252 19.741 22.252 18.4983V9.82264C22.252 8.59444 21.2679 7.5496 20.0452 7.57264ZM6.25195 10.8158V9.82264C6.25195 9.40843 6.58774 9.07264 7.00195 9.07264H20.002C20.4162 9.07264 20.752 9.40843 20.752 9.82264V10.8158H6.25195ZM20.752 13.6131V18.4983C20.752 18.9125 20.4162 19.2483 20.002 19.2483H7.00195C6.58774 19.2483 6.25195 18.9125 6.25195 18.4983V13.6131H20.752Z" fill="#323544"/>
<path opacity="0.4" d="M3.9104 6.27781C2.71011 6.59943 1.99779 7.83319 2.31941 9.03348L4.75231 18.1006V12.3176L3.7683 8.64526C3.6611 8.24516 3.89853 7.83391 4.29863 7.7267L16.8557 4.36205C17.2558 4.25485 17.667 4.49228 17.7742 4.89238L18.4925 7.57351L20.0455 7.5731L19.2231 4.50415C18.9015 3.30385 17.6677 2.59154 16.4674 2.91316L3.9104 6.27781Z" fill="#323544"/>
</svg>
