<svg width="25" height="25" viewBox="0 0 25 25" fill="none" xmlns="http://www.w3.org/2000/svg">
<path d="M11.4995 4.57227H9.70312C8.46048 4.57227 7.45312 5.57963 7.45312 6.82227V9.839C7.45312 10.8143 8.08145 11.6785 9.00919 11.9793L15.0287 13.931C15.3379 14.0312 15.5474 14.3193 15.5474 14.6444V17.6612C15.5474 18.0754 15.2116 18.4112 14.7974 18.4112H9.70312C9.28891 18.4112 8.95312 18.0754 8.95312 17.6612V16.5368C8.95312 16.1226 8.61734 15.7868 8.20312 15.7868C7.78891 15.7868 7.45312 16.1226 7.45312 16.5368V17.6612C7.45312 18.9038 8.46048 19.9112 9.70312 19.9112H11.4995H12.9995H14.7974C16.04 19.9112 17.0474 18.9038 17.0474 17.6612V14.6444C17.0474 13.6691 16.4191 12.8049 15.4913 12.5041L9.47181 10.5524C9.16257 10.4522 8.95312 10.1641 8.95312 9.839V6.82227C8.95312 6.40805 9.28891 6.07227 9.70312 6.07227H14.7974C15.2116 6.07227 15.5474 6.40805 15.5474 6.82227V7.94661C15.5474 8.36082 15.8832 8.69661 16.2974 8.69661C16.7116 8.69661 17.0474 8.36082 17.0474 7.94661V6.82227C17.0474 5.57963 16.04 4.57227 14.7974 4.57227H12.9995H11.4995Z" fill="#323544"/>
<g opacity="0.4">
<path d="M11.499 19.9109V21.499C11.499 21.9132 11.8348 22.249 12.249 22.249C12.6632 22.249 12.999 21.9132 12.999 21.499V19.9109H11.499Z" fill="#323544"/>
<path d="M12.999 3C12.999 2.58579 12.6632 2.25 12.249 2.25C11.8348 2.25 11.499 2.58579 11.499 3V4.57202H12.999V3Z" fill="#323544"/>
</g>
</svg>
