<svg width="25" height="25" viewBox="0 0 25 25" fill="none" xmlns="http://www.w3.org/2000/svg">
<path d="M16.043 5C13.0123 5 10.4159 6.85959 9.3327 9.5H7.73385C8.88672 6.01474 12.1712 3.5 16.043 3.5C17.1525 3.5 18.2155 3.70688 19.1942 4.08485C19.5806 4.23407 19.7729 4.66828 19.6237 5.05468C19.4745 5.44108 19.0403 5.63335 18.6539 5.48414C17.8448 5.17168 16.9648 5 16.043 5ZM7.38158 11C7.32318 11.4083 7.29297 11.8256 7.29297 12.25C7.29297 12.6744 7.32318 13.0917 7.38158 13.5H8.90033C8.82975 13.0939 8.79297 12.6763 8.79297 12.25C8.79297 11.8237 8.82975 11.4061 8.90033 11H7.38158ZM16.043 21C12.1712 21 8.88672 18.4853 7.73385 15H9.3327C10.4159 17.6404 13.0123 19.5 16.043 19.5C16.9648 19.5 17.8448 19.3283 18.6539 19.0159C19.0403 18.8666 19.4745 19.0589 19.6237 19.4453C19.7729 19.8317 19.5806 20.2659 19.1942 20.4151C18.2155 20.7931 17.1525 21 16.043 21Z" fill="#323544"/>
<g opacity="0.4">
<path d="M14.0353 13.5H8.90051H7.38176H5.57812C5.16391 13.5 4.82812 13.8358 4.82812 14.25C4.82812 14.6642 5.16391 15 5.57812 15H7.73403H9.33288H14.0353C14.4495 15 14.7853 14.6642 14.7853 14.25C14.7853 13.8358 14.4495 13.5 14.0353 13.5Z" fill="#323544"/>
<path d="M14.0353 9.5H9.33288H7.73403H5.57912C5.1649 9.5 4.82912 9.83579 4.82912 10.25C4.82912 10.6642 5.1649 11 5.57912 11H7.38176H8.90051H14.0353C14.4495 11 14.7853 10.6642 14.7853 10.25C14.7853 9.83579 14.4495 9.5 14.0353 9.5Z" fill="#323544"/>
</g>
</svg>
