<svg width="25" height="25" viewBox="0 0 25 25" fill="none" xmlns="http://www.w3.org/2000/svg">
<path d="M5.51899 20.3201C5.52707 20.4072 5.55006 20.4901 5.58539 20.566C5.68107 20.7724 5.86553 20.9224 6.08184 20.9773C6.14537 20.9934 6.21165 21.0013 6.27923 21H18.2303C18.6445 21 18.9803 20.6642 18.9803 20.25C18.9803 19.8358 18.6445 19.5 18.2303 19.5H9.26679C10.1996 18.6389 10.9983 17.3145 10.9983 15.3492V13.875H9.49828V15.3492C9.49828 17.1341 8.6606 18.1483 7.82285 18.7431C7.39364 19.0478 6.96009 19.2434 6.63219 19.3624C6.46932 19.4215 6.33555 19.4606 6.24564 19.4843C6.20077 19.4961 6.16711 19.504 6.14652 19.5087L6.12948 19.5124C6.06646 19.5239 6.0062 19.5434 5.94975 19.5696C5.74351 19.6652 5.59356 19.8495 5.5386 20.0656C5.51792 20.1469 5.5107 20.2327 5.51899 20.3201ZM10.9983 12.375V8.22498C10.9983 6.44387 12.4422 5 14.2233 5C16.0044 5 17.4482 6.44387 17.4482 8.22498V8.37754C17.4482 8.79176 17.784 9.12754 18.1982 9.12754C18.6125 9.12754 18.9482 8.79176 18.9482 8.37754V8.22498C18.9482 5.61545 16.8328 3.5 14.2233 3.5C11.6137 3.5 9.49828 5.61544 9.49828 8.22498V12.375H10.9983Z" fill="#323544"/>
<path opacity="0.4" d="M6.32617 13.875H9.49828H10.9983H14.1716C14.5858 13.875 14.9216 13.5392 14.9216 13.125C14.9216 12.7108 14.5858 12.375 14.1716 12.375H10.9983H9.49828H6.32617C5.91196 12.375 5.57617 12.7108 5.57617 13.125C5.57617 13.5392 5.91196 13.875 6.32617 13.875Z" fill="#323544"/>
</svg>
