<svg width="25" height="24" viewBox="0 0 25 24" fill="none" xmlns="http://www.w3.org/2000/svg">
<g opacity="0.4">
<path d="M17.832 3.25L17.9092 3.25391C18.2872 3.29248 18.582 3.61179 18.582 4C18.582 4.38821 18.2872 4.70752 17.9092 4.74609L17.832 4.75H10.667C10.2528 4.75 9.91699 4.41421 9.91699 4C9.91699 3.58579 10.2528 3.25 10.667 3.25H17.832Z" fill="#323544"/>
<path d="M17.832 7.89648L17.9082 7.90039C18.2866 7.93858 18.582 8.258 18.582 8.64648C18.582 9.03497 18.2866 9.35439 17.9082 9.39258L17.832 9.39648H6.66699C6.25278 9.39648 5.91699 9.0607 5.91699 8.64648C5.91699 8.23227 6.25278 7.89648 6.66699 7.89648H17.832Z" fill="#323544"/>
</g>
<path d="M14.5657 8.64844C14.5657 6.49545 12.8202 4.75008 10.6672 4.75H6.66725C6.25303 4.75 5.91725 4.41421 5.91725 4C5.91725 3.58579 6.25303 3.25 6.66725 3.25H10.6672C13.6486 3.25008 16.0657 5.66702 16.0657 8.64844C16.0657 11.6298 13.6486 14.0468 10.6672 14.0469H8.85865L15.7747 19.4062L15.8333 19.4561C16.1088 19.7181 16.1464 20.152 15.9085 20.459C15.6706 20.7658 15.2416 20.837 14.9192 20.6357L14.8557 20.5918L6.20826 13.8896C5.95482 13.6932 5.85349 13.3571 5.95729 13.0537C6.06114 12.7504 6.34668 12.5469 6.66725 12.5469H10.6672C12.8202 12.5468 14.5657 10.8014 14.5657 8.64844Z" fill="#323544"/>
</svg>
