<svg width="25" height="24" viewBox="0 0 25 24" fill="none" xmlns="http://www.w3.org/2000/svg">
<path opacity="0.4" d="M13.1871 2.35225C12.5928 2.0805 11.9098 2.0805 11.3156 2.35225L5.5916 4.9699C4.79089 5.33607 4.27733 6.13565 4.27734 7.01612L4.27742 12.4813C4.27744 14.0376 4.75474 15.5837 5.75814 16.8252C6.55842 17.8154 7.64456 19.0726 8.75563 20.0889C9.31059 20.5966 9.88978 21.0608 10.4576 21.4022C11.011 21.7349 11.6317 21.999 12.2514 21.999C12.8712 21.999 13.4919 21.7349 14.0452 21.4022C14.6131 21.0609 15.1923 20.5966 15.7472 20.089C16.8583 19.0727 17.9444 17.8155 18.7447 16.8253C19.7481 15.5838 20.2254 14.0375 20.2254 12.4811L20.2253 7.01607C20.2253 6.13562 19.7118 5.33608 18.9111 4.96991L13.1871 2.35225ZM11.9394 3.71638C12.1375 3.62579 12.3652 3.62579 12.5632 3.71638L18.2872 6.33404C18.5541 6.45609 18.7253 6.72261 18.7253 7.01609L18.7254 12.4812C18.7254 13.7354 18.3413 14.9381 17.5781 15.8824C16.7961 16.85 15.7645 18.0403 14.7348 18.9822C14.2194 19.4536 13.7224 19.8461 13.2724 20.1167C12.8079 20.396 12.469 20.499 12.2514 20.499C12.0339 20.499 11.695 20.3959 11.2305 20.1167C10.7805 19.8461 10.2835 19.4536 9.76804 18.9821C8.73831 18.0402 7.70673 16.8499 6.92475 15.8823C6.16153 14.938 5.77744 13.7354 5.77742 12.4812L5.77734 7.0161C5.77734 6.72261 5.94852 6.45608 6.21543 6.33402L11.9394 3.71638Z" fill="#323544"/>
<path d="M12.252 5.5C12.6662 5.5 13.002 5.83579 13.002 6.25V6.68778C13.9928 6.83841 14.752 7.69397 14.752 8.72684C14.752 9.14106 14.4162 9.47684 14.002 9.47684C13.5877 9.47684 13.252 9.14106 13.252 8.72684C13.252 8.41613 13.0001 8.16424 12.6894 8.16424H12.002C11.5877 8.16424 11.252 8.50003 11.252 8.91424V9.17932C11.252 9.49194 11.4459 9.77178 11.7386 9.88156L13.292 10.4641C14.1702 10.7935 14.752 11.633 14.752 12.5709V12.8359C14.752 13.9067 14.0039 14.8028 13.002 15.0302V15.5C13.002 15.9142 12.6662 16.25 12.252 16.25C11.8377 16.25 11.502 15.9142 11.502 15.5V15.0624C10.5112 14.9118 9.75195 14.0562 9.75195 13.0233C9.75195 12.6091 10.0877 12.2733 10.502 12.2733C10.9162 12.2733 11.252 12.6091 11.252 13.0233C11.252 13.3341 11.5038 13.5859 11.8146 13.5859H12.502C12.9162 13.5859 13.252 13.2502 13.252 12.8359V12.5709C13.252 12.2582 13.058 11.9784 12.7653 11.8686L11.2119 11.286C10.3337 10.9567 9.75195 10.1172 9.75195 9.17932V8.91424C9.75195 7.84345 10.5 6.94736 11.502 6.72V6.25C11.502 5.83579 11.8377 5.5 12.252 5.5Z" fill="#323544"/>
</svg>
