<svg width="25" height="24" viewBox="0 0 25 24" fill="none" xmlns="http://www.w3.org/2000/svg">
<path d="M7.10846 3.46967C6.81556 3.17678 6.34069 3.17678 6.04779 3.46967C5.7549 3.76256 5.7549 4.23744 6.04779 4.53033L11.5 9.98254V11.4805H13V9.98296L18.4526 4.53033C18.7455 4.23744 18.7455 3.76256 18.4526 3.46967C18.1597 3.17678 17.6849 3.17678 17.392 3.46967L12.2502 8.61143L7.10846 3.46967ZM11.5 12.9805V14.4805H13V12.9805H11.5ZM11.5 19.9981L11.5 15.9805H13L13 19.9981C13 20.4123 12.6642 20.7481 12.25 20.7481C11.8358 20.7481 11.5 20.4123 11.5 19.9981Z" fill="#323544"/>
<g opacity="0.4">
<path d="M11.4999 14.4805H7.92773C7.51352 14.4805 7.17773 14.8163 7.17773 15.2305C7.17773 15.6447 7.51352 15.9805 7.92773 15.9805H11.4999H12.9999H16.5741C16.9883 15.9805 17.3241 15.6447 17.3241 15.2305C17.3241 14.8163 16.9883 14.4805 16.5741 14.4805H12.9999H11.4999Z" fill="#323544"/>
<path d="M11.4999 11.4805H7.92773C7.51352 11.4805 7.17773 11.8163 7.17773 12.2305C7.17773 12.6447 7.51352 12.9805 7.92773 12.9805H11.4999H12.9999H16.5741C16.9883 12.9805 17.3241 12.6447 17.3241 12.2305C17.3241 11.8163 16.9883 11.4805 16.5741 11.4805H12.9999H11.4999Z" fill="#323544"/>
</g>
</svg>
