<svg width="24" height="24" viewBox="0 0 24 24" fill="none" xmlns="http://www.w3.org/2000/svg">
<path opacity="0.4" d="M5.66879 4.31641C5.25457 4.31641 4.91879 4.65219 4.91879 5.06641C4.91879 6.40204 3.83563 7.48519 2.5 7.48519C2.08579 7.48519 1.75 7.82098 1.75 8.23519V15.7627C1.75 16.1769 2.0862 16.5127 2.50041 16.5127C3.83604 16.5127 4.91879 17.5956 4.91879 18.9313C4.91879 19.3455 5.25457 19.6813 5.66879 19.6813H18.332C18.7462 19.6813 19.082 19.3453 19.082 18.9311C19.082 17.5955 20.1646 16.5129 21.5001 16.5127C21.9143 16.5126 22.25 16.1769 22.25 15.7627V8.23507C22.25 7.8209 21.9143 7.48514 21.5001 7.48507C20.1647 7.48485 19.0821 6.4019 19.0821 5.06641C19.0821 4.65219 18.7464 4.31641 18.3321 4.31641H5.66879ZM10.4704 7.79746C10.4704 8.29452 10.0675 8.69756 9.57041 8.69756C9.07335 8.69756 8.67041 8.29462 8.67041 7.79756C8.67041 7.3005 9.07335 6.89746 9.57041 6.89746C10.0675 6.89746 10.4704 7.3004 10.4704 7.79746ZM9.57041 9.69824C10.0675 9.69824 10.4704 10.1012 10.4704 10.5982C10.4704 11.0953 10.0675 11.4983 9.57041 11.4983C9.07335 11.4983 8.67041 11.0953 8.67041 10.5982C8.67041 10.1012 9.07335 9.69824 9.57041 9.69824ZM10.4704 13.398C10.4704 13.8951 10.0675 14.2981 9.57041 14.2981C9.07335 14.2981 8.67041 13.8952 8.67041 13.3981C8.67041 12.9011 9.07335 12.498 9.57041 12.498C10.0675 12.498 10.4704 12.901 10.4704 13.398ZM9.57041 15.2979C10.0675 15.2979 10.4704 15.7008 10.4704 16.1979C10.4704 16.6949 10.0675 17.098 9.57041 17.098C9.07335 17.098 8.67041 16.6949 8.67041 16.1979C8.67041 15.7008 9.07335 15.2979 9.57041 15.2979Z" fill="#323544"/>
<path d="M10.4699 16.1988C10.4699 15.7018 10.067 15.2988 9.56992 15.2988C9.07287 15.2988 8.66992 15.7018 8.66992 16.1988C8.66992 16.6959 9.07287 17.0989 9.56992 17.0989C10.067 17.0989 10.4699 16.6959 10.4699 16.1988Z" fill="#323544"/>
<path d="M9.56992 12.499C10.067 12.499 10.4699 12.902 10.4699 13.399C10.4699 13.8961 10.067 14.2991 9.56992 14.2991C9.07287 14.2991 8.66992 13.8962 8.66992 13.3991C8.66992 12.9021 9.07287 12.499 9.56992 12.499Z" fill="#323544"/>
<path d="M10.4699 10.5992C10.4699 10.1022 10.067 9.69922 9.56992 9.69922C9.07287 9.69922 8.66992 10.1022 8.66992 10.5992C8.66992 11.0963 9.07287 11.4993 9.56992 11.4993C10.067 11.4993 10.4699 11.0963 10.4699 10.5992Z" fill="#323544"/>
<path d="M9.56992 6.89844C10.067 6.89844 10.4699 7.30138 10.4699 7.79844C10.4699 8.29549 10.067 8.69854 9.56992 8.69854C9.07287 8.69854 8.66992 8.29559 8.66992 7.79854C8.66992 7.30148 9.07287 6.89844 9.56992 6.89844Z" fill="#323544"/>
</svg>
