<svg width="24" height="24" viewBox="0 0 24 24" fill="none" xmlns="http://www.w3.org/2000/svg">
<g opacity="0.4">
<path d="M19.4265 11.0839C20.0838 10.5508 21.0446 10.6311 21.6042 11.2659C22.1113 11.841 22.1316 12.6974 21.6523 13.2959L17.7857 18.1245C17.4103 18.5934 16.8422 18.8663 16.2415 18.8663H10.0683C9.88238 18.8663 9.70304 18.9354 9.56514 19.0601L9.24091 19.3533C9.22557 19.3227 9.20925 19.2925 9.19195 19.2625L6.19328 14.0687C6.11945 13.9408 6.03193 13.8258 5.93363 13.7244L7.38752 12.5621C7.94102 12.1196 8.64045 11.8146 9.41265 11.8112C10.2258 11.8075 11.511 11.8794 12.6743 12.3037H15.6309C16.1953 12.3037 16.6724 12.6779 16.8276 13.1917C16.8623 13.3063 16.8809 13.4278 16.8809 13.5537C16.8809 14.2441 16.3212 14.8037 15.6309 14.8037H13.8345C13.5583 14.8037 13.3345 15.0276 13.3345 15.3037C13.3345 15.5799 13.5583 15.8037 13.8345 15.8037H15.6309C16.8735 15.8037 17.8809 14.7964 17.8809 13.5537C17.8809 13.187 17.7931 12.8408 17.6375 12.5349L19.4265 11.0839Z" fill="#323544"/>
<path d="M8.32592 19.7625C8.52709 20.1109 8.41691 20.5537 8.0817 20.7686L6.12367 21.899C5.76495 22.1062 5.30626 21.9832 5.09915 21.6245L2.10048 16.4307C2.00103 16.2584 1.97408 16.0537 2.02556 15.8616C2.07704 15.6694 2.20274 15.5056 2.375 15.4062L4.30273 14.2941C4.65191 14.0925 5.0958 14.2036 5.31019 14.5405C5.31605 14.5497 5.32174 14.5591 5.32725 14.5687L8.32592 19.7625Z" fill="#323544"/>
</g>
<path d="M13.4423 4.0528C13.4423 3.02209 14.2778 2.18652 15.3085 2.18652C16.3393 2.18652 17.1748 3.02208 17.1748 4.0528C17.1748 5.08352 16.3393 5.91908 15.3085 5.91908C14.2778 5.91908 13.4423 5.08352 13.4423 4.0528Z" fill="#323544"/>
<path d="M11.856 8.51792C11.856 7.2817 12.8581 6.27955 14.0943 6.27955H16.5226C17.7589 6.27955 18.761 7.2817 18.761 8.51792V9.44815C18.761 9.86237 18.4252 10.1982 18.011 10.1982H12.606C12.1917 10.1982 11.856 9.86237 11.856 9.44815V8.51792Z" fill="#323544"/>
</svg>
