<svg width="24" height="24" viewBox="0 0 24 24" fill="none" xmlns="http://www.w3.org/2000/svg">
<path d="M20.5 12.5C20.5 12.0858 20.1642 11.75 19.75 11.75H4.25C3.83579 11.75 3.5 12.0858 3.5 12.5C3.5 12.9142 3.83579 13.25 4.25 13.25H19.75C20.1642 13.25 20.5 12.9142 20.5 12.5ZM22 12.5C22 13.7426 20.9926 14.75 19.75 14.75H4.25C3.00736 14.75 2 13.7426 2 12.5C2 11.2574 3.00736 10.25 4.25 10.25H19.75C20.9926 10.25 22 11.2574 22 12.5Z" fill="#323544"/>
<g opacity="0.4">
<path d="M20.75 18C20.75 19.2426 19.7426 20.25 18.5 20.25H5.5C4.25736 20.25 3.25 19.2426 3.25 18V14.5127C3.55158 14.6628 3.89025 14.75 4.25 14.75H4.75V18C4.75 18.4142 5.08579 18.75 5.5 18.75H18.5C18.9142 18.75 19.25 18.4142 19.25 18V14.75H19.75C20.1098 14.75 20.4484 14.6628 20.75 14.5127V18Z" fill="#323544"/>
<path d="M15.5 3.75C18.3995 3.75 20.75 6.10051 20.75 9V10.4863C20.4485 10.3363 20.1096 10.25 19.75 10.25H19.25V9C19.25 6.92893 17.5711 5.25 15.5 5.25H8.5C6.42893 5.25 4.75 6.92893 4.75 9V10.25H4.25C3.8904 10.25 3.55148 10.3363 3.25 10.4863V9C3.25 6.10051 5.60051 3.75 8.5 3.75H15.5Z" fill="#323544"/>
</g>
</svg>
