<svg width="24" height="24" viewBox="0 0 24 24" fill="none" xmlns="http://www.w3.org/2000/svg">
<path d="M16.75 8.75H4.75V13.25C4.75 16.5637 7.43629 19.25 10.75 19.25C14.0637 19.25 16.75 16.5637 16.75 13.25V8.75ZM18.25 13.25C18.25 14.1819 18.0782 15.0733 17.7676 15.8965C19.052 15.557 20 14.3911 20 13V11.75C20 11.3358 19.6642 11 19.25 11H18.25V13.25ZM21.5 13C21.5 15.4853 19.4853 17.5 17 17.5H16.9287C16.4669 18.1701 15.8999 18.7618 15.25 19.25H17.5L17.5771 19.2539C17.9551 19.2925 18.25 19.6118 18.25 20C18.25 20.3882 17.9551 20.7075 17.5771 20.7461L17.5 20.75H4C3.58579 20.75 3.25 20.4142 3.25 20C3.25 19.5858 3.58579 19.25 4 19.25H6.25C4.42848 17.8817 3.25 15.7036 3.25 13.25V8L3.25391 7.92285C3.29253 7.54488 3.61183 7.25 4 7.25H17.5L17.5771 7.25391C17.9551 7.29253 18.25 7.61183 18.25 8V9.5H19.25C20.4926 9.5 21.5 10.5074 21.5 11.75V13Z" fill="#323544"/>
<path opacity="0.4" d="M5.53125 5.75V4C5.53125 3.58579 5.86704 3.25 6.28125 3.25C6.69546 3.25 7.03125 3.58579 7.03125 4V5.75C7.03125 6.16421 6.69546 6.5 6.28125 6.5C5.86704 6.5 5.53125 6.16421 5.53125 5.75ZM10 5.75V4C10 3.58579 10.3358 3.25 10.75 3.25C11.1642 3.25 11.5 3.58579 11.5 4V5.75C11.5 6.16421 11.1642 6.5 10.75 6.5C10.3358 6.5 10 6.16421 10 5.75ZM14.4688 5.75V4C14.4688 3.58579 14.8045 3.25 15.2188 3.25C15.633 3.25 15.9688 3.58579 15.9688 4V5.75C15.9688 6.16421 15.633 6.5 15.2188 6.5C14.8045 6.5 14.4688 6.16421 14.4688 5.75Z" fill="#323544"/>
</svg>
