<svg width="24" height="24" viewBox="0 0 24 24" fill="none" xmlns="http://www.w3.org/2000/svg">
<path d="M18.3747 5.25L18.4538 5.25391C18.636 5.27322 18.806 5.35899 18.9304 5.49609C19.0547 5.63322 19.1233 5.81089 19.1247 5.99414L19.1208 6.07324L17.7546 19.9707C17.6411 21.1222 16.6724 21.9998 15.5153 22H8.48407C7.39911 21.9998 6.47993 21.2281 6.27606 20.1826L6.24481 19.9707L4.8786 6.07324C4.85793 5.86262 4.9269 5.6529 5.06903 5.49609C5.2112 5.33933 5.41306 5.25 5.6247 5.25H18.3747ZM7.73798 19.8232L7.76532 19.9629C7.85773 20.2759 8.14673 20.4999 8.48407 20.5H15.5153C15.901 20.4998 16.2237 20.2071 16.2614 19.8232L17.5475 6.75H6.45184L7.73798 19.8232Z" fill="#323544"/>
<path opacity="0.4" d="M17.4941 2C17.9083 2.00005 18.2441 2.33581 18.2441 2.75C18.2441 3.16419 17.9083 3.49995 17.4941 3.5H14.4541C14.1981 3.5 13.9622 3.63026 13.8252 3.84082L13.7725 3.93555L13.166 5.25H11.5146L12.4111 3.30664L12.4854 3.16113C12.8793 2.44863 13.6314 2 14.4541 2H17.4941Z" fill="#323544"/>
</svg>
