<svg width="24" height="24" viewBox="0 0 24 24" fill="none" xmlns="http://www.w3.org/2000/svg">
<path d="M7.83845 4.4604C8.64653 2.99434 10.2069 2 12.001 2C13.7946 2 15.3546 2.99377 16.1628 4.45912C17.7246 4.08924 19.4071 4.76328 20.2507 6.22444C21.2805 8.00807 20.6693 10.2888 18.8857 11.3186L18.3923 11.6034V20C18.3923 20.4142 18.0565 20.75 17.6423 20.75H6.29006C5.87584 20.75 5.54006 20.4142 5.54006 20V11.5651L5.1152 11.3198C3.33157 10.29 2.72046 8.00927 3.75023 6.22564C4.5939 4.76437 6.27659 4.09033 7.83845 4.4604ZM12.001 3.5C10.5953 3.5 9.39622 4.39283 8.94355 5.64474C8.87191 5.84286 8.72026 6.00171 8.52567 6.08245C8.33109 6.16319 8.11152 6.15837 7.92067 6.06916C6.88486 5.58503 5.63182 5.96664 5.04927 6.97564C4.43371 8.04183 4.79901 9.40516 5.8652 10.0207L6.66506 10.4825C6.89711 10.6165 7.04006 10.8641 7.04006 11.132V15.5V17V19.25H16.8923V17V15.5V11.1704C16.8923 10.9025 17.0352 10.6549 17.2673 10.5209L18.1357 10.0195C19.2019 9.40396 19.5672 8.04063 18.9516 6.97444C18.3692 5.96558 17.1164 5.58393 16.0807 6.06777C15.8899 6.1569 15.6704 6.16171 15.4759 6.08102C15.2813 6.00033 15.1297 5.84158 15.058 5.64356C14.605 4.39226 13.4062 3.5 12.001 3.5Z" fill="#323544"/>
<path opacity="0.4" d="M16.8923 15.5H7.04004V17H16.8923V15.5Z" fill="#323544"/>
</svg>
