<svg width="24" height="24" viewBox="0 0 24 24" fill="none" xmlns="http://www.w3.org/2000/svg">
<g opacity="0.4">
<path d="M12.4434 14.9639C12.8974 15.0098 13.252 15.3933 13.252 15.8594C13.252 16.3255 12.8974 16.7089 12.4434 16.7549L12.3516 16.7598C11.8545 16.7598 11.4512 16.3564 11.4512 15.8594C11.4512 15.3623 11.8545 14.959 12.3516 14.959L12.4434 14.9639Z" fill="#323544"/>
<path d="M10.4873 10.2588C11.3699 10.3483 12.0586 11.0938 12.0586 12C12.0586 12.9062 11.3699 13.6517 10.4873 13.7412L10.3086 13.75C9.3421 13.75 8.55859 12.9665 8.55859 12C8.55859 11.0335 9.3421 10.25 10.3086 10.25L10.4873 10.2588Z" fill="#323544"/>
<path d="M14.7568 10.0264C15.3871 10.0904 15.8789 10.6223 15.8789 11.2695C15.8789 11.9167 15.3871 12.4487 14.7568 12.5127L14.6289 12.5195C13.9386 12.5195 13.3789 11.9599 13.3789 11.2695C13.3789 10.5792 13.9386 10.0195 14.6289 10.0195L14.7568 10.0264Z" fill="#323544"/>
</g>
<path d="M3.327 5.24314C8.62573 1.63566 16.0196 1.75626 21.1786 5.60447L21.3456 5.74314C22.0828 6.42019 22.1923 7.49451 21.7489 8.32908L21.6454 8.50388L13.8817 20.3554C13.0211 21.6688 11.129 21.7097 10.2039 20.4785L10.117 20.3554L2.35434 8.50388C1.75771 7.59312 1.87491 6.30981 2.82016 5.60447L3.327 5.24314ZM18.7186 10.2314C14.9257 7.09065 9.07092 7.09046 5.27817 10.2314L11.3719 19.5332L11.4315 19.6123C11.7493 19.9833 12.3491 19.9569 12.6268 19.5332L18.7186 10.2314ZM20.2811 6.80662C15.6373 3.34286 8.94439 3.2348 4.1727 6.4824L3.71762 6.80662C3.47911 6.98453 3.39549 7.35782 3.60825 7.68259L4.452 8.9697C8.75752 5.51098 15.2393 5.51189 19.5448 8.97068L20.3905 7.68259L20.4569 7.55857C20.5626 7.30876 20.5113 7.04889 20.3631 6.88181L20.2811 6.80662Z" fill="#323544"/>
</svg>
