<svg width="24" height="24" viewBox="0 0 24 24" fill="none" xmlns="http://www.w3.org/2000/svg">
<path d="M11.25 6V7.53169C6.7686 7.91212 3.25 11.6702 3.25 16.25V18H4.75V16.25C4.75 12.2459 7.99594 9 12 9C16.0041 9 19.25 12.2459 19.25 16.25V18H20.75V16.25C20.75 11.6702 17.2314 7.91212 12.75 7.53169V6L14 6C14.4142 6 14.75 5.66421 14.75 5.25C14.75 4.83579 14.4142 4.5 14 4.5H10C9.58579 4.5 9.25 4.83579 9.25 5.25C9.25 5.66421 9.58579 6 10 6L11.25 6Z" fill="#323544"/>
<path opacity="0.4" d="M21.25 18H20.75H19.25H4.75H3.25H2.75C2.33579 18 2 18.3358 2 18.75C2 19.1642 2.33579 19.5 2.75 19.5H21.25C21.6642 19.5 22 19.1642 22 18.75C22 18.3358 21.6642 18 21.25 18Z" fill="#323544"/>
</svg>
