<svg width="24" height="24" viewBox="0 0 24 24" fill="none" xmlns="http://www.w3.org/2000/svg">
<path d="M8.91016 15.457C6.19835 15.457 4 12.1675 4 8.91016C4 6.19835 6.19835 4 8.91016 4C11.0462 4 12.8637 5.36395 13.5391 7.26843M8.91016 15.457V20M8.91016 15.457C10.2545 15.457 11.4727 14.6486 12.3594 13.4364M15.8716 16.1803V20M15.8716 16.1803C18.1516 16.1803 20 13.4141 20 10.6753C20 8.39523 18.1516 6.54688 15.8716 6.54688C15.0061 6.54688 14.2028 6.81322 13.5391 7.26843M15.8716 16.1803C14.388 16.1803 13.0872 15.0091 12.3594 13.4364M12.3594 13.4364C13.2613 12.2034 13.8203 10.5527 13.8203 8.91016C13.8203 8.33439 13.7212 7.78177 13.5391 7.26843" stroke="#323544" stroke-width="1.5" stroke-linecap="round" stroke-linejoin="round"/>
</svg>
