<svg width="24" height="24" viewBox="0 0 24 24" fill="none" xmlns="http://www.w3.org/2000/svg">
<path d="M21.25 14.375V13C21.25 12.1716 20.5784 11.5 19.75 11.5H4.25C3.42157 11.5 2.75 12.1716 2.75 13V14.375M21.25 14.375V18.75H2.75V14.375M21.25 14.375L17.7819 15.4998C17.0299 15.7437 16.2201 15.7437 15.4681 15.4998L13.1569 14.7502C12.4049 14.5063 11.5951 14.5063 10.8431 14.7502L8.53189 15.4998C7.77991 15.7437 6.97009 15.7437 6.21811 15.4998L2.75 14.375M4.5 7.76689L7.09311 8.6079C7.84509 8.85179 8.65491 8.85179 9.40689 8.6079L10.8431 8.1421C11.5951 7.89821 12.4049 7.89821 13.1569 8.1421L14.5931 8.6079C15.3451 8.85179 16.1549 8.85179 16.9069 8.6079L19.5 7.76689M19.5 11.5H4.5V6.75C4.5 5.92157 5.17157 5.25 6 5.25H18C18.8284 5.25 19.5 5.92157 19.5 6.75V11.5Z" stroke="#323544" stroke-width="1.5" stroke-linecap="round" stroke-linejoin="round"/>
</svg>
