<svg width="24" height="24" viewBox="0 0 24 24" fill="none" xmlns="http://www.w3.org/2000/svg">
<path d="M16.7462 15.0292L18.6837 11.6733C20.237 8.98291 19.3152 5.54271 16.6249 3.98941C13.9345 2.43611 10.4943 3.35791 8.94096 6.0483L3.25346 15.8993C2.83925 16.6168 3.08506 17.5342 3.8025 17.9484C4.51994 18.3626 5.43732 18.1168 5.85153 17.3993L11.539 7.5483C12.2639 6.29278 13.8693 5.86261 15.1249 6.58749C16.3804 7.31236 16.8105 8.91778 16.0857 10.1733L14.1482 13.5292C13.734 14.2466 13.9798 15.164 14.6972 15.5782C15.4146 15.9924 16.332 15.7466 16.7462 15.0292Z" stroke="#323544" stroke-width="1.5" stroke-linecap="round" stroke-linejoin="round"/>
</svg>
