<svg width="24" height="24" viewBox="0 0 24 24" fill="none" xmlns="http://www.w3.org/2000/svg">
<path d="M10.5211 16.9049L17.5438 9.88229L13.1084 5.44695L10.153 8.40234M10.5211 16.9049L9.13502 15.5176M10.5211 16.9049L7.47124 13.855M13.4778 13.9458L7.93514 10.6202M7.93361 10.6193L7.93514 10.6202M15.6957 11.7279L10.153 8.40234M10.1515 8.40142L10.153 8.40234M9.13502 15.5176L7.61037 17.0422C6.81936 17.8333 6.81936 19.1157 7.61037 19.9067C8.40138 20.6977 9.68385 20.6977 10.4749 19.9067M9.13502 15.5176L7.47124 13.855M4.51514 16.8111L7.47124 13.855M7.47124 13.855L6.08579 12.4696L7.93514 10.6202M7.93514 10.6202L10.153 8.40234M19.0228 11.3566L11.6305 3.96437L17.8753 3.50607C18.7885 3.43906 19.5481 4.19868 19.4811 5.11184L19.0228 11.3566Z" stroke="#323544" stroke-width="1.5" stroke-linecap="round" stroke-linejoin="round"/>
</svg>
