<svg width="24" height="24" viewBox="0 0 24 24" fill="none" xmlns="http://www.w3.org/2000/svg">
<g opacity="0.4">
<path d="M18.5212 4.41865C16.7704 2.91125 14.4916 2 12 2C6.47715 2 2 6.47715 2 12C2 14.4916 2.91125 16.7704 4.41865 18.5212L18.5212 4.41865Z" fill="#323544"/>
<path d="M19.5819 5.47935L5.47935 19.5819C7.23013 21.089 9.50867 22 12 22C17.5228 22 22 17.5228 22 12C22 9.50867 21.089 7.23013 19.5819 5.47935Z" fill="#323544"/>
</g>
<path d="M12 2C17.5228 2 22 6.47715 22 12C22 17.5228 17.5228 22 12 22C6.47715 22 2 17.5228 2 12C2 6.47715 6.47715 2 12 2ZM17.4573 5.48301C15.9808 4.24526 14.0774 3.5 12 3.5C7.30558 3.5 3.5 7.30558 3.5 12C3.5 14.0774 4.24526 15.9808 5.48301 17.4573L17.4573 5.48301ZM18.5179 6.54375L6.54375 18.5179C8.02013 19.7551 9.92307 20.5 12 20.5C16.6944 20.5 20.5 16.6944 20.5 12C20.5 9.92307 19.7551 8.02013 18.5179 6.54375Z" fill="#323544"/>
</svg>
