<svg width="24" height="24" viewBox="0 0 24 24" fill="none" xmlns="http://www.w3.org/2000/svg">
<path d="M12.0001 4H7.15941C6.68305 4 6.24036 4.22573 5.95995 4.59922M12.0001 4H16.8409C17.3172 4 17.7599 4.22573 18.0403 4.59922M12.0001 4L9.03326 9.71311M12.0001 4L14.967 9.71311M3.71848 8.85233L5.82953 4.80615C5.86769 4.73301 5.91139 4.6639 5.95995 4.59922M3.71848 8.85233C3.43547 9.39477 3.51027 10.0547 3.90751 10.5201L12.0001 20M3.71848 8.85233C3.48442 9.30094 3.94029 9.71311 4.44629 9.71311H9.03132M12.0001 20L20.0928 10.5201C20.3162 10.2583 20.4376 9.93499 20.4507 9.60563M12.0001 20L9.03236 9.71484M12.0001 20L14.9679 9.71484M9.03236 9.71484L9.03326 9.71311M9.03236 9.71484L9.03132 9.71311M9.03326 9.71311H9.03132M9.03326 9.71311H14.967M14.967 9.71311L14.9679 9.71484M14.967 9.71311H14.9689M14.9679 9.71484L14.9689 9.71311M18.0403 4.59922C18.0889 4.6639 18.1326 4.73301 18.1707 4.80615L20.2818 8.85233C20.4056 9.08965 20.4609 9.34946 20.4507 9.60563M18.0403 4.59922L14.9689 9.71311M14.9689 9.71311H20.3348C20.3962 9.71311 20.4483 9.66697 20.4507 9.60563M9.03132 9.71311L5.95995 4.59922" stroke="#323544" stroke-width="1.5" stroke-linecap="round" stroke-linejoin="round"/>
</svg>
