<svg width="24" height="24" viewBox="0 0 24 24" fill="none" xmlns="http://www.w3.org/2000/svg">
<path d="M6 20.75H6.0001" stroke="#323544" stroke-width="2.5" stroke-linecap="round" stroke-linejoin="round"/>
<path d="M8.15298 6.114C7.11267 6.46356 6.36328 7.44662 6.36328 8.6047C6.36328 9.9662 7.39904 11.0858 8.72558 11.2185C9.02061 12.0418 9.5979 12.7696 10.4095 13.2385C11.8249 14.0563 13.5669 13.8634 14.7565 12.8723L14.9424 12.9815C16.2077 13.7247 17.8359 13.3014 18.5791 12.0361C18.7324 11.7752 18.836 11.4988 18.8929 11.2179C20.2169 11.0828 21.2499 9.96438 21.2499 8.6047C21.2499 7.5357 20.6114 6.61584 19.6949 6.20571C19.545 5.22005 18.8772 4.34392 17.8754 3.97535C17.0034 3.65456 16.075 3.79058 15.3524 4.26213C14.3788 3.06419 12.7649 2.4717 11.1704 2.87695C9.56779 3.28426 8.42921 4.58654 8.15298 6.114Z" stroke="#323544" stroke-width="1.5" stroke-linecap="round" stroke-linejoin="round"/>
<path d="M11.1171 17.6727C11.1171 18.5011 10.4455 19.1727 9.61709 19.1727C8.78866 19.1727 8.11709 18.5011 8.11709 17.6727C8.11709 16.8443 8.78866 16.1727 9.61709 16.1727C10.4455 16.1727 11.1171 16.8443 11.1171 17.6727Z" stroke="#323544" stroke-width="1.5" stroke-linecap="round" stroke-linejoin="round"/>
</svg>
