<svg width="24" height="24" viewBox="0 0 24 24" fill="none" xmlns="http://www.w3.org/2000/svg">
<path d="M12.8372 8.65385L15.4419 11.2585L12.8372 13.8631V12.1613C10.7837 12.1613 9.06798 13.6078 8.65355 15.5376C8.59104 15.2465 8.55814 14.9445 8.55814 14.6348C8.55814 12.2715 10.4739 10.3557 12.8372 10.3557V8.65385Z" fill="#323544"/>
<path d="M12 20.8457C16.8325 20.8457 20.75 16.9282 20.75 12.0957C20.75 7.26321 16.8325 3.3457 12 3.3457C7.16751 3.3457 3.25 7.26321 3.25 12.0957C3.25 14.5119 4.22938 16.6994 5.81282 18.2829L3.25 20.8457H12Z" stroke="#323544" stroke-width="1.5" stroke-linecap="round" stroke-linejoin="round"/>
<path d="M12.8372 8.65385L15.4419 11.2585L12.8372 13.8631V12.1613C10.7837 12.1613 9.06798 13.6078 8.65355 15.5376C8.59104 15.2465 8.55814 14.9445 8.55814 14.6348C8.55814 12.2715 10.4739 10.3557 12.8372 10.3557V8.65385Z" stroke="#323544" stroke-width="1.5" stroke-linecap="round" stroke-linejoin="round"/>
</svg>
