<svg width="24" height="24" viewBox="0 0 24 24" fill="none" xmlns="http://www.w3.org/2000/svg">
<path d="M12.1445 18.709C13.91 19.7033 15.8077 20.3757 17.7521 20.7262C18.2616 20.8181 18.7782 20.6388 19.1443 20.2727L20.2124 19.2045C21.118 18.2989 20.8403 16.7676 19.6744 16.2377L16.1076 14.6164C15.3921 14.2912 14.3287 14.4486 13.9441 15.1989L12.1445 18.709ZM12.1445 18.709C10.7498 17.9235 9.43759 16.9371 8.25026 15.7497C7.06293 14.5624 6.07651 13.2503 5.29099 11.8555M5.29099 11.8555C4.29669 10.0901 3.62428 8.19234 3.27376 6.24794C3.18191 5.73847 3.36125 5.22182 3.72733 4.85577L4.79552 3.78764C5.7011 2.88206 7.23243 3.15974 7.76238 4.32564L9.38366 7.89244C9.70889 8.60794 9.55145 9.67133 8.80112 10.056L5.29099 11.8555Z" stroke="#323544" stroke-width="1.5" stroke-linecap="round" stroke-linejoin="round"/>
</svg>
