<svg width="24" height="24" viewBox="0 0 24 24" fill="none" xmlns="http://www.w3.org/2000/svg">
<path d="M8.44273 4.48516C7.01067 4.88532 5.67698 5.52117 4.48612 6.34825C4.17409 6.56496 3.99906 6.9261 3.99906 7.306V8.41459C3.99906 9.35444 4.93779 10.005 5.81779 9.67497L8.50996 8.66541C8.9838 8.48772 9.31341 8.06175 9.37352 7.56824C9.38663 7.46064 9.36648 7.35249 9.33325 7.24932L8.44273 4.48516ZM8.44273 4.48516C9.57411 4.16903 10.7669 4 11.9991 4C13.2314 4 14.4241 4.16902 15.5555 4.48515M15.5555 4.48515C16.9876 4.8853 18.3213 5.52115 19.5122 6.34824C19.8242 6.56496 19.9992 6.92612 19.9992 7.30603L19.9992 8.41459C19.9992 9.35444 19.0605 10.005 18.1804 9.67497L15.4883 8.66541C15.0144 8.48772 14.6848 8.06175 14.6247 7.56824C14.6116 7.46064 14.6318 7.35249 14.665 7.24932L15.5555 4.48515ZM19.4231 14.2646L20.3242 18.1621C20.5415 19.1022 19.8276 20 18.8627 20H5.13542C4.17054 20 3.45663 19.1022 3.67396 18.1621L4.57503 14.2646C4.68423 13.7923 5.01499 13.4019 5.46296 13.2165L10.2785 11.2239C11.3802 10.768 12.6179 10.768 13.7196 11.2239L18.5352 13.2165C18.9831 13.4019 19.3139 13.7923 19.4231 14.2646ZM13.9991 15.5119C13.9991 16.6165 13.1036 17.5119 11.9991 17.5119C10.8945 17.5119 9.99906 16.6165 9.99906 15.5119C9.99906 14.4073 10.8945 13.5119 11.9991 13.5119C13.1036 13.5119 13.9991 14.4073 13.9991 15.5119Z" stroke="#323544" stroke-width="1.5" stroke-linecap="round" stroke-linejoin="round"/>
</svg>
