<svg width="24" height="25" viewBox="0 0 24 25" fill="none" xmlns="http://www.w3.org/2000/svg">
<path d="M15.8937 11.7299V8.90504M15.8937 8.90504C15.8937 8.0039 16.5321 7.27338 17.3196 7.27338C18.1072 7.27338 18.7456 8.0039 18.7456 8.90504L18.7456 14.6192C18.7809 15.9815 18.7456 21.7259 12.6074 21.75C9.45723 21.75 6.80952 18.6503 6.29298 18.0057C6.23025 17.9274 6.16781 17.8521 6.09996 17.7783L3.75358 15.2232C3.19673 14.586 3.19672 13.5528 3.75357 12.9156C4.31042 12.2784 5.21326 12.2784 5.77011 12.9156L7.33834 14.5146V6.19968C7.33834 5.29854 7.97674 4.56802 8.76424 4.56802C9.54929 4.56802 10.1862 5.29399 10.1901 6.19126M15.8937 8.90504V6.19968C15.8937 5.29854 15.2553 4.56802 14.4678 4.56802C13.6803 4.56802 13.0419 5.29854 13.0419 6.19968M13.0419 11.7299V6.19968M13.0419 6.19968V4.88166C13.0419 3.98052 12.4035 3.25 11.616 3.25C10.8285 3.25 10.1901 3.98052 10.1901 4.88166V6.19126M10.1901 11.5417V6.19126M10.1901 6.19126C10.1901 6.19407 10.1902 6.19687 10.1902 6.19968" stroke="#323544" stroke-width="1.5" stroke-linecap="round" stroke-linejoin="round"/>
</svg>
