<svg width="24" height="25" viewBox="0 0 24 25" fill="none" xmlns="http://www.w3.org/2000/svg">
<path opacity="0.4" d="M12 3.25C12.4142 3.25 12.75 3.58579 12.75 4V5.25H11.25V4C11.25 3.58579 11.5858 3.25 12 3.25ZM7.90742 18L6.79074 21.257C6.65641 21.6488 6.86514 22.0753 7.25696 22.2097C7.64878 22.344 8.07532 22.1353 8.20966 21.7434L9.49313 18H7.90742ZM11.25 18V22C11.25 22.4142 11.5858 22.75 12 22.75C12.4142 22.75 12.75 22.4142 12.75 22V18H11.25ZM14.5073 18L15.7907 21.7434C15.9251 22.1353 16.3516 22.344 16.7434 22.2097C17.1353 22.0753 17.344 21.6488 17.2097 21.257L16.093 18H14.5073Z" fill="#323544"/>
<path d="M11.25 5.25H4.75C3.50736 5.25 2.5 6.25736 2.5 7.5V15.75C2.5 16.9926 3.50736 18 4.75 18H7.90742H9.49313H11.25H12.75H14.5073H16.093H19.25C20.4926 18 21.5 16.9926 21.5 15.75V7.5C21.5 6.25736 20.4926 5.25 19.25 5.25H12.75H11.25Z" fill="#323544"/>
</svg>
