<svg width="24" height="24" viewBox="0 0 24 24" fill="none" xmlns="http://www.w3.org/2000/svg">
<path d="M12.6106 7.81578C12.289 6.61548 13.0013 5.38172 14.2016 5.0601L16.4554 4.45619C17.6557 4.13457 18.8895 4.84601 19.2111 6.04631L21.9287 16.1885C22.2503 17.3888 21.538 18.6226 20.3377 18.9442L18.0839 19.5481C16.8836 19.8697 15.6498 19.1574 15.3282 17.9571L12.6106 7.81578Z" fill="#323544"/>
<g opacity="0.4">
<path d="M6.33301 5.5L4.25 5.5C3.00736 5.5 2 6.50736 2 7.75V17.25C2 18.4926 3.00736 19.5 4.25 19.5H6.58333C6.78518 19.5 6.98082 19.4734 7.16694 19.4236C6.64867 18.8477 6.33335 18.0856 6.33333 17.25L6.33301 5.5Z" fill="#323544"/>
<path d="M8.08324 18.9272C8.48119 19.2834 9.00673 19.5 9.58301 19.5H11.1663C12.409 19.5 13.4163 18.4926 13.4163 17.25V14.6865L11.6447 8.07457C11.2569 6.62745 11.9096 5.14668 13.1442 4.42645C12.763 3.72565 12.0202 3.25 11.1663 3.25H9.58301C8.34037 3.25 7.33301 4.25736 7.33301 5.5L7.33333 17.25C7.33334 17.9164 7.62294 18.5151 8.08324 18.9272Z" fill="#323544"/>
</g>
</svg>
