<svg width="24" height="24" viewBox="0 0 24 24" fill="none" xmlns="http://www.w3.org/2000/svg">
<path opacity="0.4" d="M6.75 2C5.50736 2 4.5 3.00736 4.5 4.25V19C4.5 20.6569 5.84315 22 7.5 22H18.75C19.1642 22 19.5 21.6642 19.5 21.25C19.5 20.8358 19.1642 20.5 18.75 20.5H18V17.5H18.75C19.1642 17.5 19.5 17.1642 19.5 16.75V4.25C19.5 3.00736 18.4926 2 17.25 2H6.75ZM7.5 20.5C6.67157 20.5 6 19.8284 6 19C6 18.1716 6.67157 17.5 7.5 17.5H16.5V20.5H7.5ZM8.625 5.375H15.375C15.7892 5.375 16.125 5.71079 16.125 6.125V9.375C16.125 9.78921 15.7892 10.125 15.375 10.125H8.625C8.21079 10.125 7.875 9.78921 7.875 9.375V6.125C7.875 5.71079 8.21079 5.375 8.625 5.375Z" fill="#323544"/>
<path d="M7.875 6.125C7.875 5.71079 8.21079 5.375 8.625 5.375H15.375C15.7892 5.375 16.125 5.71079 16.125 6.125V9.375C16.125 9.78921 15.7892 10.125 15.375 10.125H8.625C8.21079 10.125 7.875 9.78921 7.875 9.375V6.125Z" fill="#323544"/>
</svg>
