<svg width="24" height="25" viewBox="0 0 24 25" fill="none" xmlns="http://www.w3.org/2000/svg">
<path opacity="0.4" d="M15.5268 13.4839L16.0877 14.8979C17.6689 13.9753 18.9101 12.5341 19.5785 10.8081C19.728 10.4219 19.5361 9.98749 19.1499 9.83792C18.7636 9.68834 18.3292 9.88022 18.1797 10.2665C17.662 11.6033 16.7234 12.7298 15.5268 13.4839ZM14.7253 15.5314L14.1716 14.1357C13.491 14.3718 12.76 14.5001 11.9992 14.5001C11.2385 14.5001 10.5077 14.3719 9.82716 14.1358L9.27347 15.5316C10.1254 15.8349 11.0429 16.0001 11.9992 16.0001C12.9556 16.0001 13.8733 15.8349 14.7253 15.5314ZM7.91103 14.8982L8.47197 13.4841C7.27522 12.7301 6.33645 11.6035 5.81874 10.2665C5.66917 9.88022 5.23478 9.68834 4.84852 9.83792C4.46225 9.98749 4.27037 10.4219 4.41995 10.8081C5.08832 12.5342 6.32964 13.9755 7.91103 14.8982Z" fill="#323544"/>
<path d="M12.7493 3.25C12.7493 2.83579 12.4135 2.5 11.9993 2.5C11.5851 2.5 11.2493 2.83579 11.2493 3.25V4.53111C10.1851 4.70964 9.37427 5.63513 9.37427 6.75V9C9.37427 9.46324 9.51426 9.89378 9.75425 10.2516L8.47201 13.4839L7.91108 14.8979L5.30232 21.4742C5.14958 21.8592 5.33789 22.2952 5.72291 22.4479C6.10794 22.6006 6.54388 22.4123 6.69662 22.0273L9.27351 15.5314L9.8272 14.1356L11.006 11.164C11.2025 11.22 11.4099 11.25 11.6243 11.25H12.3743C12.5888 11.25 12.7963 11.22 12.9929 11.1639L14.1717 14.1355L14.7254 15.5312L17.3023 22.0273C17.4551 22.4123 17.891 22.6006 18.276 22.4479C18.661 22.2952 18.8494 21.8592 18.6966 21.4742L16.0878 14.8977L15.5268 13.4837L14.2445 10.2513C14.4844 9.89348 14.6243 9.46308 14.6243 9V6.75C14.6243 5.63513 13.8134 4.70964 12.7493 4.53111L12.7493 3.25Z" fill="#323544"/>
</svg>
