<svg width="24" height="25" viewBox="0 0 24 25" fill="none" xmlns="http://www.w3.org/2000/svg">
<path d="M11.0443 3.62928C11.6657 2.55312 13.0417 2.1844 14.1179 2.80572L18.881 5.55572C19.9572 6.17705 20.3259 7.55312 19.7046 8.62928L14.8886 16.9709C14.6814 17.3296 14.2224 17.4523 13.8637 17.2452L6.50249 12.9952C6.27429 12.8635 6.14153 12.6299 6.12843 12.3851C6.12106 12.2416 6.155 12.0978 6.22793 11.9715L11.0443 3.62928Z" fill="#323544"/>
<path d="M6.21917 13.9864L5.59572 15.0662C5.49627 15.2385 5.46931 15.4432 5.5208 15.6353C5.57228 15.8275 5.69798 15.9913 5.87024 16.0907L11.4994 19.3407C11.8581 19.5478 12.3168 19.4249 12.5239 19.0662L13.1474 17.9864L6.21917 13.9864Z" fill="#323544"/>
<path opacity="0.4" d="M4.5 21.75C4.5 21.3358 4.83579 21 5.25 21H18.75C19.1642 21 19.5 21.3358 19.5 21.75C19.5 22.1642 19.1642 22.5 18.75 22.5H5.25C4.83579 22.5 4.5 22.1642 4.5 21.75Z" fill="#323544"/>
</svg>
