<svg width="24" height="25" viewBox="0 0 24 25" fill="none" xmlns="http://www.w3.org/2000/svg">
<path opacity="0.4" d="M9.01822 3.89964C9.37694 3.69254 9.49985 3.23384 9.29274 2.87513C9.08563 2.51641 8.62694 2.3935 8.26822 2.60061C4.14079 4.98358 2.72663 10.2613 5.1096 14.3887C6.46665 16.7392 8.76248 18.2098 11.25 18.6002V21.0004H7.25003C6.83582 21.0004 6.50003 21.3362 6.50003 21.7504C6.50003 22.1646 6.83582 22.5004 7.25003 22.5004H16.75C17.1642 22.5004 17.5 22.1646 17.5 21.7504C17.5 21.3362 17.1642 21.0004 16.75 21.0004H12.75V18.7035C14.1623 18.6774 15.5879 18.3036 16.8977 17.5473C17.2564 17.3402 17.3794 16.8815 17.1722 16.5228C16.9651 16.1641 16.5064 16.0412 16.1477 16.2483C12.7377 18.2171 8.3774 17.0487 6.40864 13.6387C4.43988 10.2287 5.60823 5.8684 9.01822 3.89964Z" fill="#323544"/>
<path d="M17.4154 7.28476C15.8747 4.61619 12.4624 3.70186 9.79379 5.24257C7.12522 6.78327 6.2109 10.1956 7.7516 12.8641C9.2923 15.5327 12.7046 16.447 15.3732 14.9063C18.0417 13.3656 18.9561 9.95333 17.4154 7.28476Z" fill="#323544"/>
</svg>
