<svg width="24" height="25" viewBox="0 0 24 25" fill="none" xmlns="http://www.w3.org/2000/svg">
<path d="M11.7023 3.55965C11.8923 3.47751 12.1077 3.47751 12.2977 3.55965L21.5477 7.55965C21.8222 7.67838 22 7.94891 22 8.24805V14.9688C22 15.383 21.6642 15.7188 21.25 15.7188C20.8358 15.7188 20.5 15.383 20.5 14.9688V9.38949L12.2977 12.9355C12.1077 13.0177 11.8923 13.0177 11.7023 12.9355L2.45233 8.93555C2.17795 8.81675 2 8.54707 2 8.24805C2 7.94891 2.17775 7.67838 2.45232 7.55965L11.7023 3.55965Z" fill="#323544"/>
<path opacity="0.4" d="M5.125 11.1816V16.1766C5.125 16.3224 5.16749 16.465 5.24727 16.5871C5.24727 16.5871 5.24694 16.5866 5.24814 16.5884L5.2492 16.59L5.25188 16.594L5.25947 16.6054C5.26553 16.6143 5.27359 16.6261 5.28365 16.6405C5.30378 16.6692 5.33196 16.7085 5.36827 16.7567C5.44085 16.8531 5.54621 16.9857 5.68494 17.1425C5.96197 17.4554 6.375 17.8677 6.9293 18.2789C8.04166 19.1043 9.72592 19.9266 12 19.9266C14.2741 19.9266 15.9583 19.1043 17.0707 18.2789C17.625 17.8677 18.038 17.4554 18.3151 17.1425C18.4538 16.9857 18.5591 16.8531 18.6317 16.7567C18.668 16.7085 18.6962 16.6692 18.7163 16.6405C18.7264 16.6261 18.7345 16.6143 18.7405 16.6054L18.7481 16.594L18.7508 16.59L18.7527 16.5871C18.8325 16.465 18.875 16.3224 18.875 16.1766V11.1817L12.6946 13.8543C12.2514 14.0459 11.7486 14.0459 11.3054 13.8543L5.125 11.1816Z" fill="#323544"/>
</svg>
