<svg width="24" height="24" viewBox="0 0 24 24" fill="none" xmlns="http://www.w3.org/2000/svg">
<path opacity="0.4" d="M4.5 4.25C4.5 3.00736 5.50736 2 6.75 2H17.25C18.4926 2 19.5 3.00736 19.5 4.25V19.75C19.5 20.9926 18.4926 22 17.25 22H6.75C5.50736 22 4.5 20.9926 4.5 19.75V17.75V16.25V12.75V11.25V7.75V6.25V4.25ZM6.75 17.75C7.16421 17.75 7.5 17.4142 7.5 17C7.5 16.5858 7.16421 16.25 6.75 16.25C6.33579 16.25 6 16.5858 6 17C6 17.4142 6.33579 17.75 6.75 17.75ZM6.75 7.75C7.16421 7.75 7.5 7.41421 7.5 7C7.5 6.58579 7.16421 6.25 6.75 6.25C6.33579 6.25 6 6.58579 6 7C6 7.41421 6.33579 7.75 6.75 7.75ZM6.75 12.75C7.16421 12.75 7.5 12.4142 7.5 12C7.5 11.5858 7.16421 11.25 6.75 11.25C6.33579 11.25 6 11.5858 6 12C6 12.4142 6.33579 12.75 6.75 12.75Z" fill="#323544"/>
<path d="M6.75 16.25C7.16421 16.25 7.5 16.5858 7.5 17C7.5 17.4142 7.16421 17.75 6.75 17.75C6.33579 17.75 6 17.4142 6 17C6 16.5858 6.33579 16.25 6.75 16.25Z" fill="#323544"/>
<path d="M6.75 11.25C7.16421 11.25 7.5 11.5858 7.5 12C7.5 12.4142 7.16421 12.75 6.75 12.75C6.33579 12.75 6 12.4142 6 12C6 11.5858 6.33579 11.25 6.75 11.25Z" fill="#323544"/>
<path d="M6.75 7.75C7.16421 7.75 7.5 7.41421 7.5 7C7.5 6.58579 7.16421 6.25 6.75 6.25C6.33579 6.25 6 6.58579 6 7C6 7.41421 6.33579 7.75 6.75 7.75Z" fill="#323544"/>
<path d="M4.5 6.25H3.25C2.83579 6.25 2.5 6.58579 2.5 7C2.5 7.41421 2.83579 7.75 3.25 7.75H4.5V6.25Z" fill="#323544"/>
<path d="M4.5 11.25H3.25C2.83579 11.25 2.5 11.5858 2.5 12C2.5 12.4142 2.83579 12.75 3.25 12.75H4.5V11.25Z" fill="#323544"/>
<path d="M4.5 16.25H3.25C2.83579 16.25 2.5 16.5858 2.5 17C2.5 17.4142 2.83579 17.75 3.25 17.75H4.5V16.25Z" fill="#323544"/>
</svg>
