<svg width="24" height="25" viewBox="0 0 24 25" fill="none" xmlns="http://www.w3.org/2000/svg">
<path opacity="0.4" d="M15.5412 3.75H5.5C4.25736 3.75 3.25 4.75736 3.25 6V19C3.25 20.2426 4.25736 21.25 5.5 21.25H18.5C19.7426 21.25 20.75 20.2426 20.75 19V8.95825L17.3896 12.3187C16.7848 12.9234 15.9916 13.3033 15.1413 13.3953L13.3944 13.5843C12.7171 13.6576 12.0431 13.42 11.5614 12.9383C11.0797 12.4566 10.8421 11.7826 10.9154 11.1053L11.1044 9.35838C11.1964 8.50813 11.5763 7.71486 12.181 7.11014L15.5412 3.75Z" fill="#323544"/>
<path d="M20.8748 3.01256C20.1914 2.32914 19.0833 2.32915 18.3999 3.01256L17.7143 3.69812L20.8016 6.78534L21.4871 6.09978C22.1705 5.41637 22.1705 4.30833 21.4871 3.62491L20.8748 3.01256Z" fill="#323544"/>
<path d="M19.7409 7.846L16.6537 4.75878L13.2417 8.1708C12.8788 8.53363 12.6509 9.00959 12.5957 9.51974L12.4067 11.2667C12.3823 11.4924 12.4614 11.7171 12.622 11.8777C12.7826 12.0382 13.0073 12.1174 13.233 12.093L14.9799 11.904C15.4901 11.8488 15.9661 11.6209 16.3289 11.258L19.7409 7.846Z" fill="#323544"/>
</svg>
