<svg width="24" height="25" viewBox="0 0 24 25" fill="none" xmlns="http://www.w3.org/2000/svg">
<path d="M13.803 6.59766L5.83373 14.5669C5.57259 14.8281 5.37974 15.1495 5.27221 15.5028L4.05204 19.5119C3.9714 19.7769 4.04336 20.0648 4.23922 20.2606C4.43508 20.4565 4.72294 20.5285 4.98792 20.4478L8.99703 19.2276C9.35035 19.1201 9.67176 18.9273 9.93291 18.6661L17.9022 10.6969L13.803 6.59766Z" fill="#323544"/>
<path opacity="0.4" d="M18.9629 9.63643L20.22 8.37928C21.0987 7.5006 21.0987 6.07598 20.22 5.1973L19.3029 4.2801C18.4242 3.40142 16.9996 3.40142 16.1209 4.2801L14.8638 5.53721L18.9629 9.63643Z" fill="#323544"/>
</svg>
