<svg width="24" height="25" viewBox="0 0 24 25" fill="none" xmlns="http://www.w3.org/2000/svg">
<path d="M22 5.5C22 5.08579 21.6642 4.75 21.25 4.75C20.8358 4.75 20.5 5.08579 20.5 5.5V11.5H16.5C15.2574 11.5 14.25 12.5074 14.25 13.75V19C14.25 19.4142 14.5858 19.75 15 19.75C15.4142 19.75 15.75 19.4142 15.75 19V13.75C15.75 13.3358 16.0858 13 16.5 13H20.5V19C20.5 19.4142 20.8358 19.75 21.25 19.75C21.6642 19.75 22 19.4142 22 19V5.5Z" fill="#323544"/>
<path opacity="0.4" d="M2.87005 6.25968C2.653 6.22448 2.43143 6.28631 2.26397 6.4288C2.0965 6.5713 2 6.78012 2 7.00001V19C2 19.4142 2.33579 19.75 2.75 19.75C3.16421 19.75 3.5 19.4142 3.5 19V11.6314L11.25 12.8882V19C11.25 19.4142 11.5858 19.75 12 19.75C12.4142 19.75 12.75 19.4142 12.75 19V8.50001C12.75 8.13213 12.4832 7.81856 12.1201 7.75968L2.87005 6.25968Z" fill="#323544"/>
</svg>
