<svg width="24" height="24" viewBox="0 0 24 24" fill="none" xmlns="http://www.w3.org/2000/svg">
<path d="M11.2495 11.9995V6.49988C11.2495 6.08566 11.5853 5.74988 11.9995 5.74988C12.4137 5.74988 12.7495 6.08566 12.7495 6.49988V11.689L15.3582 14.2977C15.6511 14.5906 15.6511 15.0654 15.3582 15.3583C15.0653 15.6512 14.5904 15.6512 14.2975 15.3583L11.4692 12.53L11.2495 11.9995Z" fill="#323544"/>
<path d="M11.4676 12.5284L11.2495 11.9995C11.2495 12.2058 11.3328 12.3928 11.4676 12.5284Z" fill="#323544"/>
<path d="M2 11.9997C2 6.477 6.477 2 11.9997 2C17.5223 2 21.9993 6.477 21.9993 11.9997C21.9993 17.5223 17.5223 21.9993 11.9997 21.9993C6.477 21.9993 2 17.5223 2 11.9997ZM11.9997 3.5C7.30543 3.5 3.5 7.30543 3.5 11.9997C3.5 16.6939 7.30543 20.4993 11.9997 20.4993C16.6939 20.4993 20.4993 16.6939 20.4993 11.9997C20.4993 7.30543 16.6939 3.5 11.9997 3.5Z" fill="#323544"/>
<g opacity="0.4">
<path d="M5.35281 2.61368C5.69063 2.37399 5.77017 1.90583 5.53048 1.56801C5.29079 1.23019 4.82262 1.15065 4.48481 1.39034C3.25694 2.26156 2.18702 3.34053 1.3261 4.5762C1.08931 4.91606 1.17287 5.38353 1.51273 5.62031C1.85259 5.8571 2.32006 5.77354 2.55684 5.43368C3.31882 4.34002 4.26601 3.38481 5.35281 2.61368Z" fill="#323544"/>
<path d="M19.5143 1.39034C19.1765 1.15065 18.7083 1.23019 18.4686 1.56801C18.2289 1.90583 18.3085 2.37399 18.6463 2.61368C19.7331 3.38481 20.6803 4.34002 21.4423 5.43368C21.6791 5.77354 22.1465 5.8571 22.4864 5.62031C22.8263 5.38353 22.9098 4.91606 22.673 4.5762C21.8121 3.34053 20.7422 2.26156 19.5143 1.39034Z" fill="#323544"/>
</g>
</svg>
