<svg width="24" height="24" viewBox="0 0 24 24" fill="none" xmlns="http://www.w3.org/2000/svg">
<path opacity="0.4" d="M8.75 2.75C8.75 2.33579 8.41421 2 8 2C7.58579 2 7.25 2.33579 7.25 2.75V3.75H5.5C4.25736 3.75 3.25 4.75736 3.25 6V19C3.25 20.2426 4.25736 21.25 5.5 21.25H18.5C19.7426 21.25 20.75 20.2426 20.75 19V6C20.75 4.75736 19.7426 3.75 18.5 3.75H16.75V2.75C16.75 2.33579 16.4142 2 16 2C15.5858 2 15.25 2.33579 15.25 2.75V3.75H8.75V2.75ZM19.25 8.25H4.75V6C4.75 5.58579 5.08579 5.25 5.5 5.25H18.5C18.9142 5.25 19.25 5.58579 19.25 6V8.25ZM4.75 9.75H19.25V19C19.25 19.4142 18.9142 19.75 18.5 19.75H5.5C5.08579 19.75 4.75 19.4142 4.75 19V9.75Z" fill="#323544"/>
<path d="M7.18555 12.7502C7.18555 12.3084 7.54372 11.9502 7.98555 11.9502H7.99555C8.43737 11.9502 8.79555 12.3084 8.79555 12.7502C8.79555 13.192 8.43737 13.5502 7.99555 13.5502H7.98555C7.54372 13.5502 7.18555 13.192 7.18555 12.7502Z" fill="#323544"/>
<path d="M7.98555 15.9502C7.54372 15.9502 7.18555 16.3084 7.18555 16.7502C7.18555 17.192 7.54372 17.5502 7.98555 17.5502H7.99555C8.43737 17.5502 8.79555 17.192 8.79555 16.7502C8.79555 16.3084 8.43737 15.9502 7.99555 15.9502H7.98555Z" fill="#323544"/>
<path d="M11.1953 12.7502C11.1953 12.3084 11.5535 11.9502 11.9953 11.9502H12.0053C12.4471 11.9502 12.8053 12.3084 12.8053 12.7502C12.8053 13.192 12.4471 13.5502 12.0053 13.5502H11.9953C11.5535 13.5502 11.1953 13.192 11.1953 12.7502Z" fill="#323544"/>
<path d="M11.9953 15.9502C11.5535 15.9502 11.1953 16.3084 11.1953 16.7502C11.1953 17.192 11.5535 17.5502 11.9953 17.5502H12.0053C12.4471 17.5502 12.8053 17.192 12.8053 16.7502C12.8053 16.3084 12.4471 15.9502 12.0053 15.9502H11.9953Z" fill="#323544"/>
<path d="M15.2051 12.7502C15.2051 12.3084 15.5633 11.9502 16.0051 11.9502H16.0151C16.4569 11.9502 16.8151 12.3084 16.8151 12.7502C16.8151 13.192 16.4569 13.5502 16.0151 13.5502H16.0051C15.5633 13.5502 15.2051 13.192 15.2051 12.7502Z" fill="#323544"/>
<path d="M16.0051 15.9502C15.5633 15.9502 15.2051 16.3084 15.2051 16.7502C15.2051 17.192 15.5633 17.5502 16.0051 17.5502H16.0151C16.4569 17.5502 16.8151 17.192 16.8151 16.7502C16.8151 16.3084 16.4569 15.9502 16.0151 15.9502H16.0051Z" fill="#323544"/>
</svg>
