<svg width="24" height="24" viewBox="0 0 24 24" fill="none" xmlns="http://www.w3.org/2000/svg">
<path d="M19.248 13.251C19.248 9.24746 16.0025 6.00196 11.999 6.00195C7.9955 6.00195 4.75 9.24746 4.75 13.251C4.75001 17.2545 7.99551 20.5 11.999 20.5C16.0025 20.5 19.248 17.2545 19.248 13.251ZM11.249 13.251V8.49414C11.2493 8.08013 11.585 7.74414 11.999 7.74414C12.4129 7.7444 12.7488 8.08029 12.749 8.49414V13.251C12.7489 13.6649 12.4129 14.0007 11.999 14.001C11.5849 14.001 11.2492 13.6651 11.249 13.251ZM20.748 13.251C20.748 18.0829 16.831 22 11.999 22C7.16708 22 3.25001 18.0829 3.25 13.251C3.25 8.41903 7.16708 4.50195 11.999 4.50195C16.831 4.50196 20.748 8.41903 20.748 13.251Z" fill="#323544"/>
<g opacity="0.4">
<path d="M18.9707 5.21777C19.2635 4.92494 19.7383 4.92505 20.0312 5.21777C20.3241 5.51067 20.3241 5.98543 20.0312 6.27832L18.6914 7.61816C18.3687 7.23512 18.014 6.88029 17.6309 6.55762L18.9707 5.21777Z" fill="#323544"/>
<path d="M13.499 2C13.9132 2 14.249 2.33579 14.249 2.75C14.249 3.16421 13.9132 3.5 13.499 3.5H10.499C10.0848 3.5 9.74902 3.16421 9.74902 2.75C9.74902 2.33579 10.0848 2 10.499 2H13.499Z" fill="#323544"/>
</g>
</svg>
