<svg width="24" height="24" viewBox="0 0 24 24" fill="none" xmlns="http://www.w3.org/2000/svg">
<path opacity="0.4" d="M9.42705 2C8.57481 2 7.79572 2.48151 7.41459 3.24377L6.53122 5.0105C5.39124 5.1205 4.5 6.08117 4.5 7.25V16.75C4.5 17.9188 5.39125 18.8795 6.53124 18.9895L7.41459 20.7561C7.79573 21.5183 8.57481 21.9998 9.42703 21.9998H14.573C15.4252 21.9998 16.2043 21.5183 16.5854 20.7561L17.4688 18.9895C18.6087 18.8795 19.5 17.9188 19.5 16.75V7.25C19.5 6.08117 18.6088 5.1205 17.4688 5.0105L16.5854 3.24377C16.2043 2.48151 15.4252 2 14.5729 2H9.42705ZM6.98346 17.5H6.75C6.33579 17.5 6 17.1642 6 16.75V7.25C6 6.83579 6.33579 6.5 6.75 6.5H6.98375C6.99421 6.50022 7.00466 6.50022 7.01509 6.5H16.9849C16.9953 6.50022 17.0058 6.50022 17.0162 6.5H17.25C17.6642 6.5 18 6.83579 18 7.25V16.75C18 17.1642 17.6642 17.5 17.25 17.5H17.0165C17.0059 17.4998 16.9953 17.4998 16.9847 17.5H7.01538C7.00476 17.4998 6.99412 17.4998 6.98346 17.5ZM8.75621 20.0852L8.21356 19H15.7864L15.2438 20.0852C15.1167 20.3393 14.857 20.4998 14.573 20.4998H9.42703C9.14295 20.4998 8.88326 20.3393 8.75621 20.0852ZM15.7865 5H8.21353L8.75623 3.91459C8.88327 3.6605 9.14297 3.5 9.42705 3.5H14.5729C14.857 3.5 15.1167 3.6605 15.2438 3.91459L15.7865 5Z" fill="#323544"/>
<path d="M10.4533 12.2092L11.0004 11.05L11.8088 14.3433C12.0564 15.3524 13.4245 15.5119 13.8976 14.5867L14.7844 12.8524H15.4418C15.856 12.8524 16.1918 12.5166 16.1918 12.1024C16.1918 11.6882 15.856 11.3524 15.4418 11.3524H14.5532C14.1318 11.3524 13.746 11.5885 13.5541 11.9636L13.0238 13.0008L12.2032 9.65759C11.9513 8.63124 10.5498 8.49042 10.0987 9.44613L9.19902 11.3524H8.55811C8.14389 11.3524 7.80811 11.6882 7.80811 12.1024C7.80811 12.5166 8.14389 12.8524 8.55811 12.8524H9.43855C9.87275 12.8524 10.268 12.6019 10.4533 12.2092Z" fill="#323544"/>
</svg>
