<svg width="25" height="24" viewBox="0 0 25 24" fill="none" xmlns="http://www.w3.org/2000/svg">
<path d="M13.8999 2.75C13.8999 2.33579 13.5641 2 13.1499 2C12.7357 2 12.3999 2.33579 12.3999 2.75V3.75H7.46681C6.91575 3.75 6.38386 3.95223 5.97199 4.31833L3.15948 6.81833C2.15257 7.71336 2.15257 9.28664 3.15948 10.1817L5.97197 12.6817C6.38383 13.0478 6.91573 13.25 7.46679 13.25H12.3999V21.25C12.3999 21.6642 12.7357 22 13.1499 22C13.5641 22 13.8999 21.6642 13.8999 21.25V13.25H20.1499C21.3926 13.25 22.3999 12.2426 22.3999 11V6C22.3999 4.75736 21.3926 3.75 20.1499 3.75H13.8999V2.75Z" fill="#323544"/>
</svg>
