<svg width="24" height="24" viewBox="0 0 24 24" fill="none" xmlns="http://www.w3.org/2000/svg">
<path d="M6.92501 7.5L10.2501 2.75M17.075 7.5L13.7499 2.75M9.75 16.25V12.25M14.25 16.25V12.25M2.75 9C2.75 8.17157 3.42157 7.5 4.25 7.5H19.75C20.5784 7.5 21.25 8.17157 21.25 9V9.78511C21.25 10.2373 21.046 10.6654 20.6947 10.9502L19.2985 12.0823L18.4572 18.6895C18.3618 19.4386 17.7244 20 16.9692 20H7.03079C6.27561 20 5.63819 19.4386 5.5428 18.6895L4.70148 12.0823L3.3053 10.9502C2.95403 10.6654 2.75 10.2373 2.75 9.78511V9Z" stroke="#323544" stroke-width="1.5" stroke-linecap="round" stroke-linejoin="round"/>
</svg>
