<svg width="24" height="24" viewBox="0 0 24 24" fill="none" xmlns="http://www.w3.org/2000/svg">
<path d="M12 4.625C12 3.58947 12.8395 2.75 13.875 2.75C14.9105 2.75 15.75 3.58947 15.75 4.625C15.75 5.66053 14.9105 6.5 13.875 6.5H12M12 4.625V6.5M12 4.625C12 3.58947 11.1605 2.75 10.125 2.75C9.08947 2.75 8.25 3.58947 8.25 4.625C8.25 5.66053 9.08947 6.5 10.125 6.5H12M5.49219 10H18.5081C19.3365 10 20.0081 9.32843 20.0081 8.5V8.0371C20.0081 7.20867 19.3365 6.5371 18.5081 6.5371H5.49219C4.66376 6.5371 3.99219 7.20867 3.99219 8.0371V8.5C3.99219 9.32843 4.66376 10 5.49219 10ZM5.07434 10H18.9259V19C18.9259 19.8284 18.2544 20.5 17.4259 20.5H6.57434C5.74592 20.5 5.07434 19.8284 5.07434 19V10Z" stroke="#323544" stroke-width="1.5" stroke-linecap="round" stroke-linejoin="round"/>
</svg>
