<svg width="24" height="24" viewBox="0 0 24 24" fill="none" xmlns="http://www.w3.org/2000/svg">
<path d="M12 2V5.75M11.9998 17.0859H11.5624C10.8375 17.0859 10.2498 16.4983 10.2498 15.7733M11.9998 17.0859H12.2498C13.0783 17.0859 13.7498 16.4144 13.7498 15.5859V15.3209C13.7498 14.6956 13.362 14.1359 12.7765 13.9164L11.2231 13.3338C10.6377 13.1142 10.2498 12.5546 10.2498 11.9293V11.6642C10.2498 10.8358 10.9214 10.1642 11.7498 10.1642H11.9998M11.9998 17.0859V18.25M11.9998 10.1642H12.4372C13.1622 10.1642 13.7498 10.7519 13.7498 11.4768M11.9998 10.1642V9M18.75 7.89823V19.75C18.75 20.5784 18.0784 21.25 17.25 21.25H6.75C5.92157 21.25 5.25 20.5784 5.25 19.75V7.89823C5.25 7.35348 5.54534 6.85155 6.02154 6.58699L11.2715 3.67033C11.7246 3.41864 12.2754 3.41864 12.7285 3.67033L17.9785 6.58699C18.4547 6.85155 18.75 7.35348 18.75 7.89823Z" stroke="#323544" stroke-width="1.5" stroke-linecap="round" stroke-linejoin="round"/>
</svg>
