<svg width="25" height="25" viewBox="0 0 25 25" fill="none" xmlns="http://www.w3.org/2000/svg">
<path d="M9.75 6C9.75 4.75736 10.7574 3.75 12 3.75H19C20.2426 3.75 21.25 4.75736 21.25 6V20.5C21.25 20.9142 20.9142 21.25 20.5 21.25H9.75V6ZM14 9.0835C13.5858 9.0835 13.25 9.41928 13.25 9.8335C13.25 10.2477 13.5858 10.5835 14 10.5835H17C17.4142 10.5835 17.75 10.2477 17.75 9.8335C17.75 9.41928 17.4142 9.0835 17 9.0835H14ZM14 14.4168C13.5858 14.4168 13.25 14.7526 13.25 15.1668C13.25 15.581 13.5858 15.9168 14 15.9168H17C17.4142 15.9168 17.75 15.581 17.75 15.1668C17.75 14.7526 17.4142 14.4168 17 14.4168H14Z" fill="#323544"/>
<path opacity="0.4" d="M8.75 8.25H6C4.75736 8.25 3.75 9.25736 3.75 10.5V20.5C3.75 20.9142 4.08579 21.25 4.5 21.25H8.75V17.5H7.50586C7.09165 17.5 6.75586 17.1642 6.75586 16.75C6.75586 16.3358 7.09165 16 7.50586 16H8.75V13.5H7.50586C7.09165 13.5 6.75586 13.1642 6.75586 12.75C6.75586 12.3358 7.09165 12 7.50586 12H8.75V8.25Z" fill="#323544"/>
</svg>
