<svg width="25" height="24" viewBox="0 0 25 24" fill="none" xmlns="http://www.w3.org/2000/svg">
<path opacity="0.4" d="M13.85 3.70391C13.05 3.10391 11.95 3.10391 11.15 3.70391L4.65 8.57891C4.08344 9.00383 3.75 9.6707 3.75 10.3789V18.5003C3.75 19.743 4.75736 20.7503 6 20.7503H11V17.0003C11 16.1719 11.6716 15.5003 12.5 15.5003C13.3284 15.5003 14 16.1719 14 17.0003V20.7503H19C20.2426 20.7503 21.25 19.743 21.25 18.5003V10.3789C21.25 9.6707 20.9166 9.00383 20.35 8.57891L13.85 3.70391Z" fill="#323544"/>
<path d="M11 17.0005V20.7505H14V17.0005C14 16.1721 13.3284 15.5005 12.5 15.5005C11.6716 15.5005 11 16.1721 11 17.0005Z" fill="#323544"/>
</svg>
