<svg width="25" height="25" viewBox="0 0 25 25" fill="none" xmlns="http://www.w3.org/2000/svg">
<path opacity="0.4" d="M5.64122 4.56816C5.73594 3.39987 6.71172 2.5 7.88386 2.5H17.1173C18.2894 2.5 19.2652 3.39986 19.3599 4.56816L20.6167 20.0682C20.7229 21.3782 19.6884 22.5 18.374 22.5H6.6271C5.31276 22.5 4.27824 21.3782 4.38446 20.0682L5.64122 4.56816ZM13.2505 6.25C13.2505 5.83579 12.9147 5.5 12.5005 5.5C12.0863 5.5 11.7505 5.83579 11.7505 6.25V7.8125C11.7505 8.22671 12.0863 8.5625 12.5005 8.5625C12.9147 8.5625 13.2505 8.22671 13.2505 7.8125V6.25ZM13.2505 10.9375C13.2505 10.5233 12.9147 10.1875 12.5005 10.1875C12.0863 10.1875 11.7505 10.5233 11.7505 10.9375V14.0625C11.7505 14.4767 12.0863 14.8125 12.5005 14.8125C12.9147 14.8125 13.2505 14.4767 13.2505 14.0625V10.9375ZM13.2505 17.1875C13.2505 16.7733 12.9147 16.4375 12.5005 16.4375C12.0863 16.4375 11.7505 16.7733 11.7505 17.1875V18.75C11.7505 19.1642 12.0863 19.5 12.5005 19.5C12.9147 19.5 13.2505 19.1642 13.2505 18.75V17.1875Z" fill="#323544"/>
<path d="M12.5005 5.5C12.9147 5.5 13.2505 5.83579 13.2505 6.25V7.8125C13.2505 8.22671 12.9147 8.5625 12.5005 8.5625C12.0863 8.5625 11.7505 8.22671 11.7505 7.8125V6.25C11.7505 5.83579 12.0863 5.5 12.5005 5.5Z" fill="#323544"/>
<path d="M12.5005 10.1875C12.9147 10.1875 13.2505 10.5233 13.2505 10.9375V14.0625C13.2505 14.4767 12.9147 14.8125 12.5005 14.8125C12.0863 14.8125 11.7505 14.4767 11.7505 14.0625V10.9375C11.7505 10.5233 12.0863 10.1875 12.5005 10.1875Z" fill="#323544"/>
<path d="M12.5005 16.4375C12.9147 16.4375 13.2505 16.7733 13.2505 17.1875V18.75C13.2505 19.1642 12.9147 19.5 12.5005 19.5C12.0863 19.5 11.7505 19.1642 11.7505 18.75V17.1875C11.7505 16.7733 12.0863 16.4375 12.5005 16.4375Z" fill="#323544"/>
</svg>
