<svg width="24" height="24" viewBox="0 0 24 24" fill="none" xmlns="http://www.w3.org/2000/svg">
<path opacity="0.4" d="M15.76 21.9306C15.85 21.9706 15.94 21.9906 16.04 21.9906H16.08C16.23 21.9906 16.37 21.9406 16.5 21.8606C16.71 21.7206 16.83 21.4906 16.83 21.2406V19.0606C16.83 18.8306 16.72 18.6106 16.54 18.4706L14.61 16.9706L14.73 14.5106L19.89 15.3306C20.1 15.3706 20.32 15.3006 20.49 15.1606C20.65 15.0206 20.75 14.8106 20.75 14.5906V12.0606C20.75 11.7706 20.58 11.5006 20.32 11.3806L15 8.86062C15.11 6.60062 14.43 4.36063 13.1 2.54062C12.59 1.84062 11.41 1.84062 10.9 2.54062C9.57 4.36063 8.9 6.61062 9 8.86062L3.68 11.3806C3.42 11.5106 3.25 11.7706 3.25 12.0606V14.5906C3.25 14.8106 3.35 15.0206 3.51 15.1606C3.67 15.3006 3.9 15.3706 4.11 15.3306L9.27 14.5106L9.39 16.9706L7.46 18.4706C7.28 18.6106 7.17 18.8306 7.17 19.0606V21.2406C7.17 21.4906 7.29 21.7206 7.5 21.8606C7.71 22.0006 7.97 22.0206 8.2 21.9306L11.98 20.3806L15.76 21.9306Z" fill="#323544"/>
<path d="M16.04 21.9906C15.94 21.9906 15.85 21.9706 15.76 21.9306L11.98 20.3806L8.2 21.9306C7.97 22.0206 7.71 22.0006 7.5 21.8606C7.29 21.7206 7.17 21.4906 7.17 21.2406V19.0606C7.17 18.8306 7.28 18.6106 7.46 18.4706L9.39 16.9706L9.27 14.5106L4.11 15.3306C3.9 15.3706 3.67 15.3006 3.51 15.1606C3.35 15.0206 3.25 14.8106 3.25 14.5906V12.0606C3.25 11.7706 3.42 11.5106 3.68 11.3806L9 8.86062C8.9 6.61062 9.57 4.36063 10.9 2.54062C11.41 1.84062 12.59 1.84062 13.1 2.54062C14.43 4.36063 15.11 6.60063 15 8.86062L20.32 11.3806C20.58 11.5006 20.75 11.7706 20.75 12.0606V14.5906C20.75 14.8106 20.65 15.0206 20.49 15.1606C20.32 15.3006 20.1 15.3706 19.89 15.3306L14.73 14.5106L14.61 16.9706L16.54 18.4706C16.72 18.6106 16.83 18.8306 16.83 19.0606V21.2406C16.83 21.4906 16.71 21.7206 16.5 21.8606C16.37 21.9406 16.23 21.9906 16.08 21.9906H16.04ZM8.67 19.4306V20.1206L11.7 18.8806C11.88 18.8006 12.09 18.8006 12.27 18.8806L15.3 20.1206V19.4206L13.35 17.9006C13.16 17.7506 13.05 17.5106 13.06 17.2706L13.24 13.5906C13.25 13.3806 13.35 13.1806 13.52 13.0506C13.69 12.9206 13.9 12.8606 14.11 12.8906L19.23 13.7006V12.5206L13.89 9.99062C13.62 9.86062 13.45 9.58062 13.46 9.27062L13.48 8.80062C13.57 6.94062 13.04 5.09062 11.98 3.57062C10.92 5.09062 10.39 6.95062 10.48 8.80062L10.5 9.27062C10.52 9.57062 10.35 9.86062 10.07 9.99062L4.73 12.5206V13.7006L9.85 12.8906C10.06 12.8606 10.27 12.9106 10.44 13.0506C10.61 13.1806 10.71 13.3806 10.72 13.5906L10.9 17.2706C10.91 17.5106 10.8 17.7506 10.61 17.9006L8.67 19.4206V19.4306Z" fill="#323544"/>
</svg>
