<svg width="24" height="25" viewBox="0 0 24 25" fill="none" xmlns="http://www.w3.org/2000/svg">
<path opacity="0.4" d="M10.75 5.72656C10.75 5.03621 11.3096 4.47656 12 4.47656C12.6904 4.47656 13.25 5.03621 13.25 5.72656C13.25 6.41692 12.6904 6.97656 12 6.97656C11.3096 6.97656 10.75 6.41692 10.75 5.72656ZM12 2.97656C10.4812 2.97656 9.25 4.20778 9.25 5.72656C9.25 6.98534 10.0957 8.04658 11.25 8.37305V9.97656H9.375C8.96079 9.97656 8.625 10.3123 8.625 10.7266C8.625 11.1408 8.96079 11.4766 9.375 11.4766H11.25L11.25 21.4766H12.75L12.75 11.4766H14.625C15.0392 11.4766 15.375 11.1408 15.375 10.7266C15.375 10.3123 15.0392 9.97656 14.625 9.97656H12.75V8.37305C13.9043 8.04658 14.75 6.98534 14.75 5.72656C14.75 4.20778 13.5188 2.97656 12 2.97656Z" fill="#323544"/>
<path d="M12.9959 21.4762H12.75H11.25H11.003C8.22916 21.4762 5.95779 19.3251 5.76606 16.6001H7.25002C7.55341 16.6001 7.82692 16.4173 7.94298 16.137C8.05903 15.8566 7.99478 15.534 7.78018 15.3196L5.57071 13.1115C5.43318 12.9523 5.22983 12.8516 5.00295 12.8516L5.00145 12.8516C4.80914 12.8512 4.61672 12.9244 4.46995 13.071L2.21988 15.3195C2.00527 15.534 1.94101 15.8566 2.05706 16.137C2.17312 16.4173 2.44663 16.6001 2.75002 16.6001H4.26313C4.45715 20.1541 7.40048 22.9762 11.003 22.9762H12.9959C16.5983 22.9762 19.5417 20.1541 19.7357 16.6001H21.25C21.5534 16.6001 21.8269 16.4173 21.943 16.137C22.059 15.8566 21.9948 15.534 21.7802 15.3196L19.5303 13.0711C19.3833 12.9242 19.1906 12.851 18.998 12.8516L18.9959 12.8516C18.7647 12.8516 18.558 12.9561 18.4204 13.1206L16.2199 15.3195C16.0053 15.534 15.941 15.8566 16.0571 16.137C16.1731 16.4173 16.4466 16.6001 16.75 16.6001H18.2328C18.041 19.3251 15.7697 21.4762 12.9959 21.4762Z" fill="#323544"/>
</svg>
