<svg width="24" height="24" viewBox="0 0 24 24" fill="none" xmlns="http://www.w3.org/2000/svg">
<path d="M5.59155 4.7108C5.92064 3.83218 6.76038 3.25 7.6986 3.25H16.3005C17.2388 3.25 18.0785 3.83218 18.4076 4.7108L20.2927 9.74367C21.034 10.4279 21.5 11.4098 21.5 12.5V13.25C21.5 14.7877 20.5744 16.1093 19.25 16.688V18C19.25 18.8284 18.5784 19.5 17.75 19.5C16.9216 19.5 16.25 18.8284 16.25 18V17H7.75V18C7.75 18.8284 7.07843 19.5 6.25 19.5C5.42157 19.5 4.75 18.8284 4.75 18V16.688C3.42557 16.1093 2.5 14.7877 2.5 13.25V12.5C2.5 11.4105 2.96542 10.4291 3.706 9.74489L5.59155 4.7108ZM7 12.125C6.58579 12.125 6.25 12.4608 6.25 12.875C6.25 13.2892 6.58579 13.625 7 13.625H8.5C8.91421 13.625 9.25 13.2892 9.25 12.875C9.25 12.4608 8.91421 12.125 8.5 12.125H7ZM14.75 12.875C14.75 13.2892 15.0858 13.625 15.5 13.625H17C17.4142 13.625 17.75 13.2892 17.75 12.875C17.75 12.4608 17.4142 12.125 17 12.125H15.5C15.0858 12.125 14.75 12.4608 14.75 12.875ZM5.66329 8.79572C5.85451 8.76563 6.05048 8.75 6.25 8.75H17.75C17.9492 8.75 18.1449 8.76558 18.3358 8.79557L17.0029 5.23693C16.8932 4.94406 16.6133 4.75 16.3005 4.75H7.6986C7.38586 4.75 7.10595 4.94406 6.99625 5.23693L5.66329 8.79572Z" fill="#323544"/>
<g opacity="0.4">
<path d="M6.25 12.875C6.25 12.4608 6.58579 12.125 7 12.125H8.5C8.91421 12.125 9.25 12.4608 9.25 12.875C9.25 13.2892 8.91421 13.625 8.5 13.625H7C6.58579 13.625 6.25 13.2892 6.25 12.875Z" fill="#323544"/>
<path d="M15.5 12.125C15.0858 12.125 14.75 12.4608 14.75 12.875C14.75 13.2892 15.0858 13.625 15.5 13.625H17C17.4142 13.625 17.75 13.2892 17.75 12.875C17.75 12.4608 17.4142 12.125 17 12.125H15.5Z" fill="#323544"/>
</g>
</svg>
