<svg width="24" height="24" viewBox="0 0 24 24" fill="none" xmlns="http://www.w3.org/2000/svg">
<path d="M14.713 3.25H16.3016C17.2398 3.25 18.0795 3.83218 18.4086 4.71079L19.3597 7.25L19.9215 8.75L19.965 8.86597C20.8571 9.16474 21.5 10.0073 21.5 11V18C21.5 18.8284 20.8284 19.5 20 19.5C19.1716 19.5 18.5 18.8284 18.5 18V17H5.5V18C5.5 18.8284 4.82843 19.5 4 19.5C3.17157 19.5 2.5 18.8284 2.5 18V11C2.5 10.0068 3.14353 9.1639 4.03637 8.86552L4.07964 8.75L4.64148 7.25L5.59256 4.71079C5.92165 3.83218 6.76139 3.25 7.69961 3.25H9.28684H14.713ZM7.69961 4.75C7.38687 4.75 7.10695 4.94406 6.99726 5.23693L5.68141 8.75H18.3198L17.0039 5.23693C16.8942 4.94406 16.6143 4.75 16.3016 4.75H7.69961ZM8.5 12.125H7C6.58579 12.125 6.25 12.4608 6.25 12.875C6.25 13.2892 6.58579 13.625 7 13.625H8.5C8.91421 13.625 9.25 13.2892 9.25 12.875C9.25 12.4608 8.91421 12.125 8.5 12.125ZM17 12.125H15.5C15.0858 12.125 14.75 12.4608 14.75 12.875C14.75 13.2892 15.0858 13.625 15.5 13.625H17C17.4142 13.625 17.75 13.2892 17.75 12.875C17.75 12.4608 17.4142 12.125 17 12.125Z" fill="#323544"/>
<g opacity="0.4">
<path d="M4.64148 7.25H2.75C2.33579 7.25 2 7.58579 2 8C2 8.41421 2.33579 8.75 2.75 8.75H4.07964L4.64148 7.25Z" fill="#323544"/>
<path d="M10.3762 2C10.0924 2 9.83284 2.16025 9.70569 2.41404L9.28684 3.25H14.713L14.2942 2.41404C14.167 2.16025 13.9075 2 13.6237 2H10.3762Z" fill="#323544"/>
<path d="M19.9215 8.75H21.25C21.6642 8.75 22 8.41421 22 8C22 7.58579 21.6642 7.25 21.25 7.25H19.3597L19.9215 8.75Z" fill="#323544"/>
<path d="M14.75 12.875C14.75 12.4608 15.0858 12.125 15.5 12.125H17C17.4142 12.125 17.75 12.4608 17.75 12.875C17.75 13.2892 17.4142 13.625 17 13.625H15.5C15.0858 13.625 14.75 13.2892 14.75 12.875Z" fill="#323544"/>
<path d="M6.25 12.875C6.25 12.4608 6.58579 12.125 7 12.125H8.5C8.91421 12.125 9.25 12.4608 9.25 12.875C9.25 13.2892 8.91421 13.625 8.5 13.625H7C6.58579 13.625 6.25 13.2892 6.25 12.875Z" fill="#323544"/>
</g>
</svg>
