<svg width="24" height="24" viewBox="0 0 24 24" fill="none" xmlns="http://www.w3.org/2000/svg">
<path d="M2 6.75C2 5.50736 3.00736 4.5 4.25 4.5H15C17.8995 4.5 20.25 6.85051 20.25 9.75V17.25H21.25C21.6642 17.25 22 17.5858 22 18C22 18.4142 21.6642 18.75 21.25 18.75H10.8293C10.4175 19.9152 9.30622 20.75 8 20.75C6.69378 20.75 5.58254 19.9152 5.17071 18.75H4.25C3.00736 18.75 2 17.7426 2 16.5V6.75ZM8 16.25C7.17157 16.25 6.5 16.9216 6.5 17.75C6.5 18.5784 7.17157 19.25 8 19.25C8.82843 19.25 9.5 18.5784 9.5 17.75C9.5 16.9216 8.82843 16.25 8 16.25Z" fill="#323544"/>
</svg>
