<svg width="24" height="24" viewBox="0 0 24 24" fill="none" xmlns="http://www.w3.org/2000/svg">
<path opacity="0.4" d="M19.853 11.0597C20.2801 12.091 20.5 13.1963 20.5 14.3125C20.5 15.4287 20.2801 16.534 19.853 17.5653C19.8067 17.6769 19.7582 17.7875 19.7073 17.8968L18.6527 17.288C18.294 17.0809 17.8353 17.2038 17.6282 17.5625C17.4211 17.9212 17.544 18.3799 17.9027 18.587L19.5831 19.5572C19.5995 19.5685 19.6165 19.5793 19.6341 19.5894C19.9927 19.7966 20.4515 19.6739 20.6587 19.3152C20.8771 18.9372 21.071 18.5444 21.2388 18.1393C21.7413 16.9261 22 15.6257 22 14.3125C22 12.9993 21.7413 11.6989 21.2388 10.4857C20.7362 9.27241 19.9997 8.17002 19.0711 7.24143C18.1425 6.31285 17.0401 5.57625 15.8268 5.07371C14.6136 4.57116 13.3132 4.3125 12 4.3125C10.6868 4.3125 9.38642 4.57116 8.17317 5.0737C6.95991 5.57625 5.85752 6.31285 4.92893 7.24143C4.00035 8.17002 3.26375 9.27241 2.76121 10.4857C2.25866 11.6989 2 12.9993 2 14.3125C2 15.6257 2.25866 16.9261 2.76121 18.1393C2.92314 18.5303 3.10938 18.9097 3.31852 19.2755C3.32488 19.2881 3.33162 19.3006 3.33876 19.313C3.54587 19.6717 4.00456 19.7946 4.36328 19.5875L6.09533 18.5875C6.45405 18.3804 6.57696 17.9217 6.36985 17.563C6.16274 17.2043 5.70405 17.0814 5.34533 17.2885L4.29247 17.8963C4.24169 17.7871 4.1932 17.6768 4.14702 17.5653C3.71986 16.534 3.5 15.4287 3.5 14.3125C3.5 13.1963 3.71986 12.091 4.14702 11.0597C4.19327 10.9481 4.24184 10.8375 4.2927 10.7282L5.34729 11.337C5.70601 11.5441 6.1647 11.4212 6.3718 11.0625C6.57891 10.7038 6.45601 10.2451 6.09729 10.038L5.04277 9.42916C5.32453 9.02775 5.64116 8.65053 5.98959 8.30209C6.77889 7.51279 7.71592 6.88669 8.74719 6.45952C9.54676 6.12833 10.3908 5.92176 11.25 5.84565V7.0625C11.25 7.47671 11.5858 7.8125 12 7.8125C12.4142 7.8125 12.75 7.47671 12.75 7.0625V5.84565C13.6092 5.92176 14.4532 6.12833 15.2528 6.45952C16.2841 6.88669 17.2211 7.5128 18.0104 8.30209C18.3589 8.65063 18.6757 9.02797 18.9575 9.42951L17.9027 10.0385C17.544 10.2456 17.4211 10.7043 17.6282 11.063C17.8353 11.4217 18.294 11.5446 18.6527 11.3375L19.7075 10.7285C19.7583 10.8378 19.8068 10.9482 19.853 11.0597Z" fill="#323544"/>
<path d="M12.0003 9.4375C12.2785 9.4375 12.5338 9.59143 12.6636 9.83742L12.6651 9.84019L12.6687 9.84718L12.6825 9.87336L12.7334 9.97131C12.7769 10.0556 12.8389 10.1765 12.9132 10.3241C13.0615 10.6187 13.2599 11.0219 13.459 11.4541C13.6571 11.8843 13.8608 12.3534 14.0164 12.7771C14.1585 13.1641 14.3053 13.6269 14.3053 13.9925C14.3053 15.2655 13.2733 16.2975 12.0003 16.2975C10.7273 16.2975 9.69531 15.2655 9.69531 13.9925C9.69531 13.6269 9.84213 13.1641 9.98425 12.7771C10.1399 12.3534 10.3435 11.8843 10.5416 11.4541C10.7407 11.0219 10.9391 10.6187 11.0874 10.3241C11.1617 10.1765 11.2237 10.0556 11.2673 9.97131L11.3182 9.87336L11.3319 9.84718L11.3356 9.84019L11.337 9.83742C11.4669 9.59143 11.7222 9.4375 12.0003 9.4375Z" fill="#323544"/>
</svg>
