<svg width="24" height="24" viewBox="0 0 24 24" fill="none" xmlns="http://www.w3.org/2000/svg">
<path d="M20.6216 4.04316C20.582 3.69619 20.3083 3.4224 19.9613 3.38283C16.2551 2.96017 12.3947 4.17038 9.55021 7.01484C8.88174 7.6833 8.30339 8.40811 7.81525 9.174L7.81221 9.17412C7.73554 9.29444 7.66109 9.41579 7.58886 9.53809C6.8687 10.7576 6.37029 12.0714 6.09344 13.4211C6.04278 13.668 6.11956 13.9239 6.29781 14.1021L9.897 17.7013C10.0752 17.8795 10.331 17.9563 10.5779 17.9057C11.9273 17.6291 13.2409 17.1311 14.4602 16.4114C15.3627 15.8787 16.2129 15.225 16.987 14.4509L16.9887 14.4525C19.8325 11.6087 21.0434 7.74873 20.6216 4.04316ZM16.0256 7.9789C16.9258 8.87906 16.9258 10.3385 16.0256 11.2387C15.1254 12.1388 13.666 12.1388 12.7658 11.2387C11.8657 10.3385 11.8657 8.87906 12.7658 7.9789C13.666 7.07874 15.1254 7.07874 16.0256 7.9789Z" fill="#323544"/>
<g opacity="0.4">
<path d="M14.6579 17.4514C13.4302 18.133 12.1206 18.6112 10.7788 18.8863C10.5634 18.9304 10.3452 18.933 10.1346 18.8973C10.256 19.6287 10.2443 20.3781 10.0992 21.1068C10.0429 21.3893 10.1534 21.6791 10.3836 21.8524C10.6137 22.0257 10.9228 22.0518 11.1788 21.9197C11.7836 21.6074 12.3505 21.1981 12.856 20.6926C13.7817 19.7669 14.3823 18.6392 14.6579 17.4514Z" fill="#323544"/>
<path d="M5.10306 13.8669C5.06703 13.6558 5.06956 13.437 5.11385 13.221C5.38883 11.8806 5.86653 10.5722 6.54731 9.3457C5.36096 9.62166 4.23474 10.222 3.31006 11.1467C2.80493 11.6518 2.39581 12.2182 2.08364 12.8226C1.95144 13.0786 1.97753 13.3876 2.15076 13.6178C2.324 13.848 2.61377 13.9586 2.89631 13.9024C3.62408 13.7576 4.37256 13.7459 5.10306 13.8669Z" fill="#323544"/>
<path d="M3.03001 20.2509C3.04425 20.6438 3.35947 20.9592 3.75235 20.9735L3.75361 20.9735L3.75565 20.9736L3.76203 20.9738L3.78367 20.9744C3.79965 20.9748 3.82143 20.9753 3.8484 20.9758L3.86028 20.976C3.92523 20.977 4.01715 20.9777 4.12879 20.9764C4.35089 20.974 4.65671 20.9641 4.9863 20.9333C5.31222 20.9028 5.68221 20.8501 6.02513 20.7558C6.34629 20.6675 6.74723 20.516 7.03929 20.2239C7.93945 19.3238 7.93945 17.8643 7.03929 16.9642C6.13913 16.064 4.67969 16.064 3.77953 16.9642C3.48747 17.2562 3.33595 17.6572 3.24764 17.9783C3.15335 18.3213 3.10068 18.6913 3.07022 19.0172C3.03942 19.3468 3.02946 19.6526 3.02704 19.8747C3.02582 19.9863 3.02649 20.0782 3.0275 20.1432C3.028 20.1757 3.02859 20.2015 3.02907 20.2198L3.0297 20.2414L3.0299 20.2478L3.03001 20.2509Z" fill="#323544"/>
</g>
</svg>
