<svg width="24" height="25" viewBox="0 0 24 25" fill="none" xmlns="http://www.w3.org/2000/svg">
<path d="M5.99756 9.85431V7.70312C5.99756 6.46313 7.00756 5.45312 8.24756 5.45312H8.99756V5.20312C8.99756 3.96312 10.0076 2.95312 11.2476 2.95312H12.7476C13.9876 2.95312 14.9976 3.96312 14.9976 5.20312V5.45312H15.7476C16.9876 5.45312 17.9976 6.46313 17.9976 7.70312V9.85854L13.4677 7.92398C12.5273 7.52121 11.4641 7.52539 10.5255 7.9206L5.99756 9.85431Z" fill="#323544"/>
<path d="M19.8476 14.433C20.1676 13.343 19.6176 12.183 18.5676 11.733L12.8776 9.30305C12.3176 9.06305 11.6776 9.06305 11.1076 9.30305L5.4176 11.733C4.3676 12.183 3.8176 13.333 4.1376 14.433L5.29716 18.444C6.07628 18.3846 6.59063 18.789 7.1025 19.1915C7.57616 19.5639 8.04769 19.9346 8.7249 19.9346C9.34086 19.9051 9.8291 19.5466 10.3183 19.1874C10.831 18.8109 11.3448 18.4336 12.0077 18.4336C12.6611 18.4336 13.1599 18.8162 13.6554 19.1962C14.1443 19.5711 14.63 19.9436 15.2577 19.9436C15.9349 19.9436 16.4064 19.5729 16.8801 19.2004C17.392 18.798 17.9063 18.3936 18.6854 18.453L19.8476 14.433Z" fill="#323544"/>
<path opacity="0.4" d="M21.5577 21.2636L18.8277 20.0136C18.5377 19.8836 18.1977 19.9436 17.9777 20.1736C17.9677 20.1836 16.7077 21.4436 15.2577 21.4436C14.2544 21.4436 13.2386 20.8545 12.5477 20.1636C12.4077 20.0236 12.2177 19.9336 12.0077 19.9336C11.8077 19.9336 11.6177 20.0136 11.4677 20.1536C11.4577 20.1636 10.4977 21.1236 9.28769 21.3736C9.22927 21.3801 9.17084 21.3887 9.11207 21.3973C8.98991 21.4153 8.86588 21.4336 8.73769 21.4336C7.28769 21.4336 6.02769 20.1736 6.01769 20.1636C5.79769 19.9336 5.45769 19.8736 5.16769 20.0036L2.43769 21.2636C2.05769 21.4336 1.89769 21.8836 2.06769 22.2536C2.23769 22.6336 2.68769 22.7936 3.06769 22.6236L5.34769 21.5736C5.96769 22.0836 7.23769 22.9336 8.73769 22.9336C10.1377 22.9336 11.3377 22.1836 11.9977 21.6736C12.6577 22.1836 13.8577 22.9336 15.2577 22.9336C16.7577 22.9336 18.0277 22.0736 18.6477 21.5736L20.9277 22.6236C21.2977 22.7936 21.7477 22.6236 21.9277 22.2536C22.0977 21.8736 21.9277 21.4336 21.5577 21.2636Z" fill="#323544"/>
</svg>
