<svg width="24" height="24" viewBox="0 0 24 24" fill="none" xmlns="http://www.w3.org/2000/svg">
<path d="M6.125 3.25C4.88236 3.25 3.875 4.25736 3.875 5.5V17.25C3.875 18.4926 4.88236 19.5 6.125 19.5H6.81434H8.93566H15.0643H17.1857H17.875C19.1176 19.5 20.125 18.4926 20.125 17.25V5.5C20.125 4.25736 19.1176 3.25 17.875 3.25H6.125ZM17.875 4.75C18.2892 4.75 18.625 5.08579 18.625 5.5V10.6249H12.75V4.75H17.875ZM5.375 5.5C5.375 5.08579 5.71079 4.75 6.125 4.75H11.25V10.6249H5.375V5.5ZM10.25 15.0625C10.25 14.096 11.0335 13.3125 12 13.3125C12.9665 13.3125 13.7501 14.096 13.7501 15.0625C13.7501 16.029 12.9665 16.8125 12 16.8125C11.0335 16.8125 10.25 16.029 10.25 15.0625Z" fill="#323544"/>
<g opacity="0.4">
<path d="M6.81434 19.5L5.59467 20.7197C5.30178 21.0126 5.30178 21.4874 5.59467 21.7803C5.88756 22.0732 6.36244 22.0732 6.65533 21.7803L8.93566 19.5H6.81434Z" fill="#323544"/>
<path d="M15.0643 19.5L17.3447 21.7803C17.6376 22.0732 18.1124 22.0732 18.4053 21.7803C18.6982 21.4874 18.6982 21.0126 18.4053 20.7197L17.1857 19.5H15.0643Z" fill="#323544"/>
</g>
</svg>
