<svg width="24" height="24" viewBox="0 0 24 24" fill="none" xmlns="http://www.w3.org/2000/svg">
<path d="M3.875 5.5C3.875 4.25736 4.88236 3.25 6.125 3.25H17.875C19.1176 3.25 20.125 4.25736 20.125 5.5V17.25C20.125 18.4926 19.1176 19.5 17.875 19.5H17.1857H15.0643H8.93566H6.81434H6.125C4.88236 19.5 3.875 18.4926 3.875 17.25V5.5ZM18.625 5.5C18.625 5.08579 18.2892 4.75 17.875 4.75H12.75V10.6249H18.625V5.5ZM6.125 4.75C5.71079 4.75 5.375 5.08579 5.375 5.5V10.6249H11.25V4.75H6.125ZM9 13.8125C8.30964 13.8125 7.75 14.3721 7.75 15.0625C7.75 15.7529 8.30974 16.3125 9.0001 16.3125C9.69046 16.3125 10.2501 15.7529 10.2501 15.0625C10.2501 14.3721 9.69036 13.8125 9 13.8125ZM13.75 15.0625C13.75 15.7529 14.3096 16.3125 15 16.3125C15.6904 16.3125 16.2501 15.7529 16.2501 15.0625C16.2501 14.3721 15.6904 13.8125 15 13.8125C14.3096 13.8125 13.75 14.3721 13.75 15.0625Z" fill="#323544"/>
<g opacity="0.4">
<path d="M18.4053 20.7197L17.1857 19.5H15.0643L17.3447 21.7803C17.6376 22.0732 18.1124 22.0732 18.4053 21.7803C18.6982 21.4874 18.6982 21.0126 18.4053 20.7197Z" fill="#323544"/>
<path d="M6.65533 21.7803L8.93566 19.5H6.81434L5.59467 20.7197C5.30178 21.0126 5.30178 21.4874 5.59467 21.7803C5.88756 22.0732 6.36244 22.0732 6.65533 21.7803Z" fill="#323544"/>
</g>
</svg>
