<svg width="24" height="24" viewBox="0 0 24 24" fill="none" xmlns="http://www.w3.org/2000/svg">
<path d="M8.875 17.5586C8.81136 16.7537 8.13711 16.1194 7.31543 16.1191C6.49356 16.1191 5.81854 16.7535 5.75488 17.5586C5.75163 17.5999 5.75 17.6422 5.75 17.6846C5.75023 18.5487 6.45125 19.249 7.31543 19.249C8.17942 19.2488 8.87965 18.5486 8.87988 17.6846C8.87988 17.6422 8.87826 17.5999 8.875 17.5586ZM18.625 17.5586C18.5614 16.7537 17.8871 16.1194 17.0654 16.1191C16.4571 16.1191 15.9283 16.4663 15.6689 16.9766C15.579 17.1535 15.5214 17.35 15.5049 17.5586C15.5016 17.5999 15.5 17.6422 15.5 17.6846C15.5002 18.5487 16.2012 19.249 17.0654 19.249C17.9294 19.2488 18.6297 18.5486 18.6299 17.6846C18.6299 17.6422 18.6283 17.5999 18.625 17.5586ZM10.3799 17.6846C10.3797 19.377 9.00784 20.7488 7.31543 20.749C5.62282 20.749 4.25023 19.3771 4.25 17.6846C4.25 17.6027 4.25341 17.521 4.25977 17.4404C4.38461 15.8614 5.70476 14.6191 7.31543 14.6191C8.9259 14.6194 10.2453 15.8616 10.3701 17.4404C10.3765 17.521 10.3799 17.6027 10.3799 17.6846ZM20.1299 17.6846C20.1297 19.377 18.7578 20.7488 17.0654 20.749C15.3728 20.749 14.0002 19.3771 14 17.6846C14 17.6027 14.0034 17.521 14.0098 17.4404C14.042 17.0322 14.1541 16.6451 14.3311 16.2969C14.8363 15.3029 15.8707 14.6191 17.0654 14.6191C18.6759 14.6194 19.9953 15.8616 20.1201 17.4404C20.1265 17.521 20.1299 17.6027 20.1299 17.6846Z" fill="#323544"/>
<path opacity="0.4" fill-rule="evenodd" clip-rule="evenodd" d="M13.5 3.25C14.7426 3.25 15.75 4.25736 15.75 5.5V6.38965H17.2041C17.9509 6.38979 18.649 6.76128 19.0674 7.37988L21.6133 11.1445C21.8649 11.5166 21.9999 11.9551 22 12.4043V16.75C22.4142 16.75 22.75 17.0858 22.75 17.5C22.75 17.9142 22.4142 18.25 22 18.25H20.0781C20.0765 18.2586 20.073 18.2668 20.0713 18.2754C20.1087 18.0841 20.1299 17.8868 20.1299 17.6846C20.1299 17.6027 20.1265 17.521 20.1201 17.4404C19.9953 15.8616 18.6759 14.6194 17.0654 14.6191C15.8707 14.6191 14.8363 15.3029 14.3311 16.2969C14.1541 16.6451 14.042 17.0322 14.0098 17.4404C14.0034 17.521 14 17.6027 14 17.6846C14 17.8867 14.0202 18.0842 14.0576 18.2754C14.056 18.2669 14.0533 18.2585 14.0518 18.25H10.3281C10.3265 18.2586 10.323 18.2668 10.3213 18.2754C10.3587 18.0841 10.3799 17.8868 10.3799 17.6846C10.3799 17.6027 10.3765 17.521 10.3701 17.4404C10.2453 15.8616 8.9259 14.6194 7.31543 14.6191C5.70476 14.6191 4.38461 15.8614 4.25977 17.4404C4.25341 17.521 4.25 17.6027 4.25 17.6846C4.25003 17.8867 4.27023 18.0842 4.30762 18.2754C4.30596 18.2669 4.30335 18.2585 4.30176 18.25H4.25C3.00736 18.25 2 17.2426 2 16V5.5C2 4.25736 3.00736 3.25 4.25 3.25H13.5ZM15.75 7.88965V11.1953H19.8369L17.8252 8.21973C17.6858 8.0136 17.4529 7.88979 17.2041 7.88965H15.75Z" fill="#323544"/>
</svg>
