<svg width="25" height="24" viewBox="0 0 25 24" fill="none" xmlns="http://www.w3.org/2000/svg">
<path d="M2.57111 11.448C2.42175 11.5851 2.32812 11.782 2.32812 12.0007C2.32812 12.2194 2.42175 12.4162 2.57111 12.5533L4.86116 14.8434C5.15405 15.1363 5.62892 15.1363 5.92182 14.8434C6.21471 14.5505 6.21471 14.0756 5.92182 13.7827L4.88976 12.7507H9.20279C9.617 12.7507 9.95279 12.4149 9.95279 12.0007C9.95279 11.5865 9.617 11.2507 9.20279 11.2507H4.88976L5.92161 10.2188C6.2145 9.92593 6.2145 9.45106 5.92161 9.15817C5.62871 8.86527 5.15384 8.86527 4.86095 9.15817L2.57111 11.448Z" fill="#323544"/>
<path d="M12.8974 2.26095C12.7599 2.10117 12.5562 2 12.3288 2C12.1101 2 11.9132 2.09362 11.7761 2.24297L9.48529 4.53382C9.1924 4.82671 9.1924 5.30159 9.48529 5.59448C9.77819 5.88737 10.2531 5.88737 10.546 5.59448L11.5788 4.56164V8.87466C11.5788 9.28888 11.9146 9.62466 12.3288 9.62466C12.743 9.62466 13.0788 9.28888 13.0788 8.87466V4.56363L14.1099 5.59469C14.4027 5.88758 14.8776 5.88758 15.1705 5.59469C15.4634 5.30179 15.4634 4.82692 15.1705 4.53403L12.8974 2.26095Z" fill="#323544"/>
<path d="M13.0788 15.124C13.0788 14.7098 12.743 14.374 12.3288 14.374C11.9146 14.374 11.5788 14.7098 11.5788 15.124V19.4397L10.5466 18.4075C10.2537 18.1146 9.77882 18.1146 9.48593 18.4075C9.19303 18.7004 9.19303 19.1753 9.48593 19.4682L11.7983 21.7805C12.0912 22.0734 12.5661 22.0734 12.859 21.7805L15.1711 19.4684C15.464 19.1755 15.464 18.7006 15.1711 18.4077C14.8783 18.1148 14.4034 18.1148 14.1105 18.4077L13.0788 19.4394L13.0788 15.124Z" fill="#323544"/>
<path d="M15.4521 11.2507C15.0379 11.2507 14.7021 11.5865 14.7021 12.0007C14.7021 12.4149 15.0379 12.7507 15.4521 12.7507H19.7675L18.7348 13.7834C18.4419 14.0762 18.4419 14.5511 18.7348 14.844C19.0277 15.1369 19.5026 15.1369 19.7955 14.844L22.1077 12.5318C22.2483 12.3912 22.3274 12.2004 22.3274 12.0015C22.3274 11.8994 22.3065 11.7995 22.2673 11.7074C22.2271 11.6129 22.1681 11.5284 22.095 11.4585L19.7953 9.15879C19.5024 8.8659 19.0275 8.8659 18.7346 9.15879C18.4417 9.45169 18.4417 9.92656 18.7346 10.2195L19.7659 11.2507H15.4521Z" fill="#323544"/>
</svg>
