<svg width="24" height="25" viewBox="0 0 24 25" fill="none" xmlns="http://www.w3.org/2000/svg">
<path opacity="0.4" d="M4.50024 4.53125C4.50024 3.28861 5.5076 2.28125 6.75024 2.28125H17.2502C18.4929 2.28125 19.5002 3.28861 19.5002 4.53125V20.0312C19.5002 21.2739 18.4929 22.2812 17.2502 22.2812H6.75024C5.5076 22.2812 4.50024 21.2739 4.50024 20.0312V4.53125ZM18.0002 7.53125V4.53125C18.0002 4.11704 17.6645 3.78125 17.2502 3.78125H6.75024C6.33603 3.78125 6.00024 4.11704 6.00024 4.53125V7.53125H18.0002ZM9.49981 10.8672C9.49981 10.591 9.27595 10.3672 8.99981 10.3672C8.72367 10.3672 8.49981 10.591 8.49981 10.8672V11.6574H7.70963C7.43349 11.6574 7.20963 11.8812 7.20963 12.1574C7.20963 12.4335 7.43349 12.6574 7.70963 12.6574H8.49981V13.4477C8.49981 13.7239 8.72367 13.9477 8.99981 13.9477C9.27595 13.9477 9.49981 13.7239 9.49981 13.4477V12.6574H10.2902C10.5663 12.6574 10.7902 12.4335 10.7902 12.1574C10.7902 11.8812 10.5663 11.6574 10.2902 11.6574H9.49981V10.8672ZM14.3462 10.7968C14.151 10.6015 13.8344 10.6015 13.6391 10.7968C13.4438 10.992 13.4438 11.3086 13.6391 11.5039L14.2926 12.1574L13.6391 12.8109C13.4438 13.0062 13.4438 13.3228 13.6391 13.518C13.8344 13.7133 14.151 13.7133 14.3462 13.518L14.9997 12.8645L15.6532 13.518C15.8485 13.7133 16.1651 13.7133 16.3603 13.518C16.5556 13.3228 16.5556 13.0062 16.3603 12.8109L15.7068 12.1574L16.3603 11.5039C16.5556 11.3086 16.5556 10.9921 16.3603 10.7968C16.1651 10.6015 15.8485 10.6015 15.6532 10.7968L14.9997 11.4503L14.3462 10.7968ZM13.7092 16.4249C13.4331 16.4249 13.2092 16.6488 13.2092 16.9249C13.2092 17.201 13.4331 17.4249 13.7092 17.4249H16.2906C16.5668 17.4249 16.7906 17.201 16.7906 16.9249C16.7906 16.6488 16.5668 16.4249 16.2906 16.4249H13.7092ZM7.70923 17.1574C7.43309 17.1574 7.20923 17.3813 7.20923 17.6574C7.20923 17.9335 7.43309 18.1574 7.70923 18.1574H10.2906C10.5668 18.1574 10.7906 17.9335 10.7906 17.6574C10.7906 17.3813 10.5668 17.1574 10.2906 17.1574H7.70923ZM13.7092 17.89C13.4331 17.89 13.2092 18.1139 13.2092 18.39C13.2092 18.6662 13.4331 18.89 13.7092 18.89H16.2906C16.5668 18.89 16.7906 18.6662 16.7906 18.39C16.7906 18.1139 16.5668 17.89 16.2906 17.89H13.7092Z" fill="#323544"/>
<path d="M6.00024 7.53125H18.0002V4.53125C18.0002 4.11704 17.6645 3.78125 17.2502 3.78125H6.75024C6.33603 3.78125 6.00024 4.11704 6.00024 4.53125V7.53125Z" fill="#323544"/>
<path d="M8.99981 10.3672C9.27595 10.3672 9.49981 10.591 9.49981 10.8672V11.6574H10.2902C10.5663 11.6574 10.7902 11.8812 10.7902 12.1574C10.7902 12.4335 10.5663 12.6574 10.2902 12.6574H9.49981V13.4477C9.49981 13.7239 9.27595 13.9477 8.99981 13.9477C8.72367 13.9477 8.49981 13.7239 8.49981 13.4477V12.6574H7.70963C7.43349 12.6574 7.20963 12.4335 7.20963 12.1574C7.20963 11.8812 7.43349 11.6574 7.70963 11.6574H8.49981V10.8672C8.49981 10.591 8.72367 10.3672 8.99981 10.3672Z" fill="#323544"/>
<path d="M13.6391 10.7968C13.8344 10.6015 14.151 10.6015 14.3462 10.7968L14.9997 11.4503L15.6532 10.7968C15.8485 10.6015 16.1651 10.6015 16.3603 10.7968C16.5556 10.9921 16.5556 11.3086 16.3603 11.5039L15.7068 12.1574L16.3603 12.8109C16.5556 13.0062 16.5556 13.3228 16.3603 13.518C16.1651 13.7133 15.8485 13.7133 15.6532 13.518L14.9997 12.8645L14.3462 13.518C14.151 13.7133 13.8344 13.7133 13.6391 13.518C13.4438 13.3228 13.4438 13.0062 13.6391 12.8109L14.2926 12.1574L13.6391 11.5039C13.4438 11.3086 13.4438 10.992 13.6391 10.7968Z" fill="#323544"/>
<path d="M7.20923 17.6574C7.20923 17.3813 7.43309 17.1574 7.70923 17.1574H10.2906C10.5668 17.1574 10.7906 17.3813 10.7906 17.6574C10.7906 17.9335 10.5668 18.1574 10.2906 18.1574H7.70923C7.43309 18.1574 7.20923 17.9335 7.20923 17.6574Z" fill="#323544"/>
<path d="M13.2092 16.9249C13.2092 16.6488 13.4331 16.4249 13.7092 16.4249H16.2906C16.5668 16.4249 16.7906 16.6488 16.7906 16.9249C16.7906 17.201 16.5668 17.4249 16.2906 17.4249H13.7092C13.4331 17.4249 13.2092 17.201 13.2092 16.9249Z" fill="#323544"/>
<path d="M13.2092 18.39C13.2092 18.1139 13.4331 17.89 13.7092 17.89H16.2906C16.5668 17.89 16.7906 18.1139 16.7906 18.39C16.7906 18.6662 16.5668 18.89 16.2906 18.89H13.7092C13.4331 18.89 13.2092 18.6662 13.2092 18.39Z" fill="#323544"/>
</svg>
