<svg width="24" height="25" viewBox="0 0 24 25" fill="none" xmlns="http://www.w3.org/2000/svg">
<path opacity="0.4" d="M4.50024 4.53125C4.50024 3.28861 5.5076 2.28125 6.75024 2.28125H17.2502C18.4929 2.28125 19.5002 3.28861 19.5002 4.53125V20.0312C19.5002 21.2739 18.4929 22.2812 17.2502 22.2812H6.75024C5.5076 22.2812 4.50024 21.2739 4.50024 20.0312V4.53125ZM8.25024 5.28125C7.83603 5.28125 7.50024 5.61704 7.50024 6.03125V7.53125C7.50024 7.94546 7.83603 8.28125 8.25024 8.28125H15.7502C16.1645 8.28125 16.5002 7.94546 16.5002 7.53125V6.03125C16.5002 5.61704 16.1645 5.28125 15.7502 5.28125H8.25024ZM8.50024 10.1313C8.00319 10.1313 7.60024 10.5342 7.60024 11.0312C7.60024 11.5283 8.00319 11.9313 8.50024 11.9313H8.51024C9.0073 11.9313 9.41024 11.5283 9.41024 11.0312C9.41024 10.5342 9.0073 10.1313 8.51024 10.1313H8.50024ZM12.0002 10.1313C11.5032 10.1313 11.1002 10.5342 11.1002 11.0312C11.1002 11.5283 11.5032 11.9313 12.0002 11.9313H12.0102C12.5073 11.9313 12.9102 11.5283 12.9102 11.0312C12.9102 10.5342 12.5073 10.1313 12.0102 10.1313H12.0002ZM15.5002 10.1313C15.0032 10.1313 14.6002 10.5342 14.6002 11.0312C14.6002 11.5283 15.0032 11.9313 15.5002 11.9313H15.5102C16.0073 11.9313 16.4102 11.5283 16.4102 11.0312C16.4102 10.5342 16.0073 10.1313 15.5102 10.1313H15.5002ZM8.50024 13.6313C8.00319 13.6313 7.60024 14.0342 7.60024 14.5312C7.60024 15.0283 8.00319 15.4313 8.50024 15.4313H8.51024C9.0073 15.4313 9.41024 15.0283 9.41024 14.5312C9.41024 14.0342 9.0073 13.6313 8.51024 13.6313H8.50024ZM12.0002 13.6313C11.5032 13.6313 11.1002 14.0342 11.1002 14.5312C11.1002 15.0283 11.5032 15.4313 12.0002 15.4313H12.0102C12.5073 15.4313 12.9102 15.0283 12.9102 14.5312C12.9102 14.0342 12.5073 13.6313 12.0102 13.6313H12.0002ZM15.5002 13.6313C15.0032 13.6313 14.6002 14.0342 14.6002 14.5312C14.6002 15.0283 15.0032 15.4313 15.5002 15.4313H15.5102C16.0073 15.4313 16.4102 15.0283 16.4102 14.5312C16.4102 14.0342 16.0073 13.6313 15.5102 13.6313H15.5002ZM8.50024 17.1313C8.00319 17.1313 7.60024 17.5342 7.60024 18.0312C7.60024 18.5283 8.00319 18.9313 8.50024 18.9313H8.51024C9.0073 18.9313 9.41024 18.5283 9.41024 18.0312C9.41024 17.5342 9.0073 17.1313 8.51024 17.1313H8.50024ZM12.0002 17.1313C11.5032 17.1313 11.1002 17.5342 11.1002 18.0312C11.1002 18.5283 11.5032 18.9313 12.0002 18.9313H12.0102C12.5073 18.9313 12.9102 18.5283 12.9102 18.0312C12.9102 17.5342 12.5073 17.1313 12.0102 17.1313H12.0002ZM15.5002 17.1313C15.0032 17.1313 14.6002 17.5342 14.6002 18.0312C14.6002 18.5283 15.0032 18.9313 15.5002 18.9313H15.5102C16.0073 18.9313 16.4102 18.5283 16.4102 18.0312C16.4102 17.5342 16.0073 17.1313 15.5102 17.1313H15.5002Z" fill="#323544"/>
<path d="M7.50024 6.03125C7.50024 5.61704 7.83603 5.28125 8.25024 5.28125H15.7502C16.1645 5.28125 16.5002 5.61704 16.5002 6.03125V7.53125C16.5002 7.94546 16.1645 8.28125 15.7502 8.28125H8.25024C7.83603 8.28125 7.50024 7.94546 7.50024 7.53125V6.03125Z" fill="#323544"/>
<path d="M7.60024 11.0312C7.60024 10.5342 8.00319 10.1313 8.50024 10.1313H8.51024C9.0073 10.1313 9.41024 10.5342 9.41024 11.0312C9.41024 11.5283 9.0073 11.9313 8.51024 11.9313H8.50024C8.00319 11.9313 7.60024 11.5283 7.60024 11.0312Z" fill="#323544"/>
<path d="M11.1002 11.0312C11.1002 10.5342 11.5032 10.1313 12.0002 10.1313H12.0102C12.5073 10.1313 12.9102 10.5342 12.9102 11.0312C12.9102 11.5283 12.5073 11.9313 12.0102 11.9313H12.0002C11.5032 11.9313 11.1002 11.5283 11.1002 11.0312Z" fill="#323544"/>
<path d="M14.6002 11.0312C14.6002 10.5342 15.0032 10.1313 15.5002 10.1313H15.5102C16.0073 10.1313 16.4102 10.5342 16.4102 11.0312C16.4102 11.5283 16.0073 11.9313 15.5102 11.9313H15.5002C15.0032 11.9313 14.6002 11.5283 14.6002 11.0312Z" fill="#323544"/>
<path d="M14.6002 14.5312C14.6002 14.0342 15.0032 13.6313 15.5002 13.6313H15.5102C16.0073 13.6313 16.4102 14.0342 16.4102 14.5312C16.4102 15.0283 16.0073 15.4313 15.5102 15.4313H15.5002C15.0032 15.4313 14.6002 15.0283 14.6002 14.5312Z" fill="#323544"/>
<path d="M11.1002 14.5312C11.1002 14.0342 11.5032 13.6313 12.0002 13.6313H12.0102C12.5073 13.6313 12.9102 14.0342 12.9102 14.5312C12.9102 15.0283 12.5073 15.4313 12.0102 15.4313H12.0002C11.5032 15.4313 11.1002 15.0283 11.1002 14.5312Z" fill="#323544"/>
<path d="M7.60024 14.5312C7.60024 14.0342 8.00319 13.6313 8.50024 13.6313H8.51024C9.0073 13.6313 9.41024 14.0342 9.41024 14.5312C9.41024 15.0283 9.0073 15.4313 8.51024 15.4313H8.50024C8.00319 15.4313 7.60024 15.0283 7.60024 14.5312Z" fill="#323544"/>
<path d="M7.60024 18.0312C7.60024 17.5342 8.00319 17.1313 8.50024 17.1313H8.51024C9.0073 17.1313 9.41024 17.5342 9.41024 18.0312C9.41024 18.5283 9.0073 18.9313 8.51024 18.9313H8.50024C8.00319 18.9313 7.60024 18.5283 7.60024 18.0312Z" fill="#323544"/>
<path d="M11.1002 18.0312C11.1002 17.5342 11.5032 17.1313 12.0002 17.1313H12.0102C12.5073 17.1313 12.9102 17.5342 12.9102 18.0312C12.9102 18.5283 12.5073 18.9313 12.0102 18.9313H12.0002C11.5032 18.9313 11.1002 18.5283 11.1002 18.0312Z" fill="#323544"/>
<path d="M14.6002 18.0312C14.6002 17.5342 15.0032 17.1313 15.5002 17.1313H15.5102C16.0073 17.1313 16.4102 17.5342 16.4102 18.0312C16.4102 18.5283 16.0073 18.9313 15.5102 18.9313H15.5002C15.0032 18.9313 14.6002 18.5283 14.6002 18.0312Z" fill="#323544"/>
</svg>
