<svg width="24" height="25" viewBox="0 0 24 25" fill="none" xmlns="http://www.w3.org/2000/svg">
<path opacity="0.4" d="M8.19139 3.90369C8.61612 3.33496 9.28432 3 9.99415 3H14.0063C14.7161 3 15.3843 3.33496 15.809 3.90369L16.4028 4.6988C16.5444 4.88838 16.7671 5.00003 17.0038 5.00003H19.7502C20.9929 5.00003 22.0002 6.00739 22.0002 7.25003V17.5C22.0002 18.7427 20.9929 19.75 19.7502 19.75H4.25024C3.0076 19.75 2.00024 18.7427 2.00024 17.5V7.25003C2.00024 6.00739 3.0076 5.00003 4.25024 5.00003H6.99667C7.23328 5.00003 7.45601 4.88838 7.59759 4.6988L8.19139 3.90369ZM12.0002 16.002C14.2094 16.002 16.0002 14.2111 16.0002 12.002C16.0002 9.79281 14.2094 8.00195 12.0002 8.00195C9.79111 8.00195 8.00024 9.79281 8.00024 12.002C8.00024 14.2111 9.79111 16.002 12.0002 16.002Z" fill="#323544"/>
<path d="M16.0002 12.002C16.0002 14.2111 14.2094 16.002 12.0002 16.002C9.79111 16.002 8.00024 14.2111 8.00024 12.002C8.00024 9.79281 9.79111 8.00195 12.0002 8.00195C14.2094 8.00195 16.0002 9.79281 16.0002 12.002Z" fill="#323544"/>
</svg>
