<svg width="24" height="25" viewBox="0 0 24 25" fill="none" xmlns="http://www.w3.org/2000/svg">
<path d="M14.0937 14.7431C14.1492 14.7657 14.2076 14.7817 14.2677 14.7905C15.9741 15.0397 17.7761 14.5077 19.0913 13.1925C21.3014 10.9824 21.3014 7.39902 19.0913 5.18886C16.8811 2.97871 13.2978 2.97871 11.0876 5.18886C9.77245 6.50404 9.24044 8.30602 9.48968 10.0125C9.49845 10.0725 9.5144 10.1308 9.53694 10.1863C9.57356 10.2766 9.62829 10.3614 9.70149 10.4346L13.8458 14.5789C13.9189 14.6519 14.0036 14.7065 14.0937 14.7431Z" fill="#323544"/>
<path opacity="0.4" d="M13.2993 15.4281C13.2436 15.3845 13.1899 15.3371 13.1386 15.2858L8.99437 11.1415C8.94297 11.0901 8.89544 11.0363 8.85178 10.9805L3.79746 16.8401C3.02779 17.7325 3.07698 19.0675 3.91024 19.9007L4.37913 20.3696C5.21238 21.2029 6.54739 21.2521 7.43971 20.4824L13.2993 15.4281Z" fill="#323544"/>
</svg>
