<svg width="24" height="25" viewBox="0 0 24 25" fill="none" xmlns="http://www.w3.org/2000/svg">
<path d="M20.7503 14.0094C20.7411 13.0356 20.1132 12.2097 19.2407 11.9059C19.0089 11.8251 18.7598 11.7812 18.5004 11.7812H17.5004C16.2578 11.7812 15.2504 12.7886 15.2504 14.0312V17.5312C15.2504 18.7739 16.2578 19.7812 17.5004 19.7812H18.5004C19.7431 19.7812 20.7504 18.7739 20.7504 17.5312L20.7503 14.0094ZM4.75977 11.9059C3.88091 12.2121 3.25024 13.048 3.25024 14.0312L3.25025 17.5312C3.25025 18.7739 4.25761 19.7812 5.50025 19.7812H6.50025C7.74289 19.7812 8.75025 18.7739 8.75025 17.5312V14.0312C8.75025 12.7886 7.74289 11.7812 6.50025 11.7812H5.50025C5.24083 11.7812 4.99166 11.8252 4.75977 11.9059Z" fill="#323544"/>
<path opacity="0.4" d="M12.0003 3.53125C7.16777 3.53125 3.25024 7.44878 3.25024 12.2813L3.25027 14.0312C3.25027 13.048 3.88093 12.2121 4.75979 11.9059C4.95511 8.0763 8.12209 5.03125 12.0003 5.03125C15.8785 5.03125 19.0454 8.07627 19.2408 11.9059C20.1132 12.2097 20.7411 13.0356 20.7504 14.0094L20.7503 12.2813C20.7503 7.44878 16.8328 3.53125 12.0003 3.53125Z" fill="#323544"/>
</svg>
