<svg width="24" height="25" viewBox="0 0 24 25" fill="none" xmlns="http://www.w3.org/2000/svg">
<path opacity="0.4" d="M2.00024 7.36719C2.00024 6.12455 3.0076 5.11719 4.25024 5.11719H19.7503C20.9929 5.11719 22.0003 6.12455 22.0003 7.36719V17.8672C22.0003 19.1098 20.9929 20.1172 19.7503 20.1172H4.25024C3.0076 20.1172 2.00024 19.1098 2.00024 17.8672V7.36719ZM6.4416 8.44141C5.99977 8.44141 5.6416 8.79958 5.6416 9.24141C5.6416 9.68323 5.99977 10.0414 6.4416 10.0414H6.4516C6.89343 10.0414 7.2516 9.68323 7.2516 9.24141C7.2516 8.79958 6.89343 8.44141 6.4516 8.44141H6.4416ZM5.63965 12.6164C5.63965 13.0582 5.99782 13.4164 6.43965 13.4164H6.44965C6.89148 13.4164 7.24965 13.0582 7.24965 12.6164C7.24965 12.1746 6.89148 11.8164 6.44965 11.8164H6.43965C5.99782 11.8164 5.63965 12.1746 5.63965 12.6164ZM9.34473 9.24141C9.34473 9.68323 9.7029 10.0414 10.1447 10.0414H10.1547C10.5966 10.0414 10.9547 9.68323 10.9547 9.24141C10.9547 8.79958 10.5966 8.44141 10.1547 8.44141H10.1447C9.7029 8.44141 9.34473 8.79958 9.34473 9.24141ZM9.3584 12.6164C9.3584 13.0582 9.71657 13.4164 10.1584 13.4164H10.1684C10.6102 13.4164 10.9684 13.0582 10.9684 12.6164C10.9684 12.1746 10.6102 11.8164 10.1684 11.8164H10.1584C9.71657 11.8164 9.3584 12.1746 9.3584 12.6164ZM7.2502 15.9914C7.2502 16.4056 7.58598 16.7414 8.0002 16.7414H16.0002C16.4144 16.7414 16.7502 16.4056 16.7502 15.9914C16.7502 15.5772 16.4144 15.2414 16.0002 15.2414H8.0002C7.58598 15.2414 7.2502 15.5772 7.2502 15.9914ZM13.0459 9.24141C13.0459 9.68323 13.4041 10.0414 13.8459 10.0414H13.8559C14.2977 10.0414 14.6559 9.68323 14.6559 9.24141C14.6559 8.79958 14.2977 8.44141 13.8559 8.44141H13.8459C13.4041 8.44141 13.0459 8.79958 13.0459 9.24141ZM16.748 9.24141C16.748 9.68323 17.1062 10.0414 17.548 10.0414H17.558C17.9999 10.0414 18.358 9.68323 18.358 9.24141C18.358 8.79958 17.9999 8.44141 17.558 8.44141H17.548C17.1062 8.44141 16.748 8.79958 16.748 9.24141ZM13.0371 12.6164C13.0371 13.0582 13.3953 13.4164 13.8371 13.4164H13.8471C14.2889 13.4164 14.6471 13.0582 14.6471 12.6164C14.6471 12.1746 14.2889 11.8164 13.8471 11.8164H13.8371C13.3953 11.8164 13.0371 12.1746 13.0371 12.6164ZM16.7559 12.6164C16.7559 13.0582 17.114 13.4164 17.5559 13.4164H17.5659C18.0077 13.4164 18.3659 13.0582 18.3659 12.6164C18.3659 12.1746 18.0077 11.8164 17.5659 11.8164H17.5559C17.114 11.8164 16.7559 12.1746 16.7559 12.6164Z" fill="#323544"/>
<path d="M8.0002 15.2414C7.58598 15.2414 7.2502 15.5772 7.2502 15.9914C7.2502 16.4056 7.58598 16.7414 8.0002 16.7414H16.0002C16.4144 16.7414 16.7502 16.4056 16.7502 15.9914C16.7502 15.5772 16.4144 15.2414 16.0002 15.2414H8.0002Z" fill="#323544"/>
<path d="M6.43965 11.8164C5.99782 11.8164 5.63965 12.1746 5.63965 12.6164C5.63965 13.0582 5.99782 13.4164 6.43965 13.4164H6.44965C6.89148 13.4164 7.24965 13.0582 7.24965 12.6164C7.24965 12.1746 6.89148 11.8164 6.44965 11.8164H6.43965Z" fill="#323544"/>
<path d="M10.1584 11.8164C9.71657 11.8164 9.3584 12.1746 9.3584 12.6164C9.3584 13.0582 9.71657 13.4164 10.1584 13.4164H10.1684C10.6102 13.4164 10.9684 13.0582 10.9684 12.6164C10.9684 12.1746 10.6102 11.8164 10.1684 11.8164H10.1584Z" fill="#323544"/>
<path d="M13.8371 11.8164C13.3953 11.8164 13.0371 12.1746 13.0371 12.6164C13.0371 13.0582 13.3953 13.4164 13.8371 13.4164H13.8471C14.2889 13.4164 14.6471 13.0582 14.6471 12.6164C14.6471 12.1746 14.2889 11.8164 13.8471 11.8164H13.8371Z" fill="#323544"/>
<path d="M17.5559 11.8164C17.114 11.8164 16.7559 12.1746 16.7559 12.6164C16.7559 13.0582 17.114 13.4164 17.5559 13.4164H17.5659C18.0077 13.4164 18.3659 13.0582 18.3659 12.6164C18.3659 12.1746 18.0077 11.8164 17.5659 11.8164H17.5559Z" fill="#323544"/>
<path d="M17.548 8.44141C17.1062 8.44141 16.748 8.79958 16.748 9.24141C16.748 9.68323 17.1062 10.0414 17.548 10.0414H17.558C17.9999 10.0414 18.358 9.68323 18.358 9.24141C18.358 8.79958 17.9999 8.44141 17.558 8.44141H17.548Z" fill="#323544"/>
<path d="M13.8459 8.44141C13.4041 8.44141 13.0459 8.79958 13.0459 9.24141C13.0459 9.68323 13.4041 10.0414 13.8459 10.0414H13.8559C14.2977 10.0414 14.6559 9.68323 14.6559 9.24141C14.6559 8.79958 14.2977 8.44141 13.8559 8.44141H13.8459Z" fill="#323544"/>
<path d="M10.1447 8.44141C9.7029 8.44141 9.34473 8.79958 9.34473 9.24141C9.34473 9.68323 9.7029 10.0414 10.1447 10.0414H10.1547C10.5966 10.0414 10.9547 9.68323 10.9547 9.24141C10.9547 8.79958 10.5966 8.44141 10.1547 8.44141H10.1447Z" fill="#323544"/>
<path d="M5.6416 9.24141C5.6416 8.79958 5.99977 8.44141 6.4416 8.44141H6.4516C6.89343 8.44141 7.2516 8.79958 7.2516 9.24141C7.2516 9.68323 6.89343 10.0414 6.4516 10.0414H6.4416C5.99977 10.0414 5.6416 9.68323 5.6416 9.24141Z" fill="#323544"/>
</svg>
