<svg width="24" height="24" viewBox="0 0 24 24" fill="none" xmlns="http://www.w3.org/2000/svg">
<path d="M2.75024 15C2.49031 15 2.24891 15.1346 2.11226 15.3557C1.9756 15.5768 1.96318 15.8529 2.07942 16.0854L3.16483 18.2562C3.54597 19.0185 4.32506 19.5 5.1773 19.5H18.8232C19.6754 19.5 20.4545 19.0185 20.8357 18.2562L21.9211 16.0854C22.0373 15.8529 22.0249 15.5768 21.8882 15.3557C21.7516 15.1346 21.5102 15 21.2502 15H2.75024Z" fill="#323544"/>
<path opacity="0.4" d="M3.75024 6.75C3.75024 5.50736 4.7576 4.5 6.00024 4.5H18.0002C19.2429 4.5 20.2502 5.50736 20.2502 6.75V14H18.7502V6.75C18.7502 6.33579 18.4145 6 18.0002 6H6.00024C5.58603 6 5.25024 6.33579 5.25024 6.75V14H3.75024V6.75Z" fill="#323544"/>
</svg>
