<svg width="24" height="24" viewBox="0 0 24 24" fill="none" xmlns="http://www.w3.org/2000/svg">
<path opacity="0.4" d="M6.25025 3.25C5.00761 3.25 4.00025 4.25736 4.00025 5.5V13.6743C3.87103 13.8515 3.76637 14.0495 3.69212 14.264L2.48058 17.764C1.97466 19.2256 3.06015 20.75 4.6068 20.75H11.2203C11.1324 20.4316 11.0854 20.0963 11.0854 19.75V13.5C11.0854 13.2432 11.1113 12.9923 11.1605 12.75H5.81834C5.71078 12.75 5.60454 12.7577 5.50025 12.7725V5.5C5.50025 5.08579 5.83603 4.75 6.25025 4.75H17.7502C18.1644 4.75 18.5002 5.08579 18.5002 5.5V9.75143C19.0358 9.76611 19.5434 9.8931 20.0002 10.1097V5.5C20.0002 4.25736 18.9928 3.25 17.7502 3.25H6.25025Z" fill="#323544"/>
<path d="M14.8354 11.25C13.5928 11.25 12.5854 12.2574 12.5854 13.5V19.75C12.5854 20.9926 13.5928 22 14.8354 22H18.3955C19.6381 22 20.6455 20.9926 20.6455 19.75V13.5C20.6455 12.2574 19.6381 11.25 18.3955 11.25H14.8354ZM15.806 18.25C15.806 17.8082 16.1641 17.45 16.606 17.45H16.616C17.0578 17.45 17.416 17.8082 17.416 18.25C17.416 18.6918 17.0578 19.05 16.616 19.05H16.606C16.1641 19.05 15.806 18.6918 15.806 18.25Z" fill="#323544"/>
</svg>
