<svg width="24" height="25" viewBox="0 0 24 25" fill="none" xmlns="http://www.w3.org/2000/svg">
<path d="M12.0002 2.28125C9.37688 2.28125 7.25024 4.40788 7.25024 7.03122V11.5313C7.25024 14.1546 9.37688 16.2812 12.0002 16.2812C14.6235 16.2812 16.7502 14.1546 16.7502 11.5313V7.03122C16.7502 4.40788 14.6235 2.28125 12.0002 2.28125Z" fill="#323544"/>
<path opacity="0.4" d="M5.75024 11.5312C5.75024 11.117 5.41446 10.7812 5.00024 10.7812C4.58603 10.7812 4.25024 11.117 4.25024 11.5312C4.25024 15.5584 7.32194 18.8682 11.2502 19.2454V20.7812H10.0002C9.58603 20.7812 9.25024 21.117 9.25024 21.5312C9.25024 21.9455 9.58603 22.2812 10.0002 22.2812H14.0002C14.4145 22.2812 14.7502 21.9455 14.7502 21.5312C14.7502 21.117 14.4145 20.7812 14.0002 20.7812H12.7502V19.2454C16.6785 18.8682 19.7502 15.5584 19.7502 11.5312C19.7502 11.117 19.4145 10.7812 19.0002 10.7812C18.586 10.7812 18.2502 11.117 18.2502 11.5312C18.2502 14.983 15.452 17.7812 12.0002 17.7812C8.54846 17.7812 5.75024 14.983 5.75024 11.5312Z" fill="#323544"/>
</svg>
