<svg width="24" height="24" viewBox="0 0 24 24" fill="none" xmlns="http://www.w3.org/2000/svg">
<path d="M2.00024 6.42187C2.00024 5.17923 3.0076 4.17188 4.25024 4.17188H19.7502C20.9929 4.17188 22.0002 5.17923 22.0002 6.42188V13.8281C22.0002 15.0708 20.9929 16.0781 19.7502 16.0781H12.7502H11.2502H4.25024C3.0076 16.0781 2.00024 15.0708 2.00024 13.8281V6.42187Z" fill="#323544"/>
<path opacity="0.4" d="M11.2502 16.0781V18.3281H9.00024C8.58603 18.3281 8.25024 18.6639 8.25024 19.0781C8.25024 19.4923 8.58603 19.8281 9.00024 19.8281H15.0002C15.4145 19.8281 15.7502 19.4923 15.7502 19.0781C15.7502 18.6639 15.4145 18.3281 15.0002 18.3281H12.7502V16.0781H11.2502Z" fill="#323544"/>
</svg>
