<svg width="24" height="24" viewBox="0 0 24 24" fill="none" xmlns="http://www.w3.org/2000/svg">
<path d="M2.00024 5.70117C2.00024 4.45853 3.0076 3.45117 4.25024 3.45117H19.7503C20.9929 3.45117 22.0003 4.45853 22.0003 5.70117V11.9512H2.00024V5.70117Z" fill="#323544"/>
<path opacity="0.4" d="M2.00024 13.4512V15.2868C2.00024 16.5294 3.0076 17.5368 4.25025 17.5368H9.75028V19.049H8.75021C8.336 19.049 8.00021 19.3847 8.00021 19.799C8.00021 20.2132 8.336 20.549 8.75021 20.549H15.2502C15.6644 20.549 16.0002 20.2132 16.0002 19.799C16.0002 19.3847 15.6644 19.049 15.2502 19.049H14.2503V17.5368H19.7503C20.9929 17.5368 22.0003 16.5294 22.0003 15.2868V13.4512H2.00024Z" fill="#323544"/>
</svg>
