<svg width="24" height="24" viewBox="0 0 24 24" fill="none" xmlns="http://www.w3.org/2000/svg">
<path opacity="0.4" d="M11.6921 4.5L10.4087 5.78415C9.53076 6.6627 9.53074 8.0865 10.4087 8.96507L12.9087 11.4668C13.7871 12.3458 15.2117 12.3463 16.0907 11.4679C16.339 11.2198 16.5172 10.9281 16.6252 10.6175C16.7333 10.9281 16.9115 11.2198 17.1598 11.4679C18.0388 12.3463 19.4634 12.3458 20.3418 11.4668L22.0002 9.80721V15.3438C22.0002 16.5864 20.9929 17.5938 19.7502 17.5938H12.7502V19.25H15.0003C15.4145 19.25 15.7503 19.5858 15.7503 20C15.7503 20.4142 15.4145 20.75 15.0003 20.75H9.00027C8.58606 20.75 8.25027 20.4142 8.25027 20C8.25027 19.5858 8.58606 19.25 9.00027 19.25H11.2502V17.5938H4.25024C3.0076 17.5938 2.00024 16.5864 2.00024 15.3438V6.75C2.00024 5.50736 3.0076 4.5 4.25024 4.5H11.6921Z" fill="#323544"/>
<path d="M15.0304 4.34255C15.3234 4.63535 15.3235 5.11022 15.0307 5.40321L13.0605 7.37465L15.0308 9.34624C15.3235 9.63924 15.3234 10.1141 15.0304 10.4069C14.7374 10.6997 14.2625 10.6995 13.9697 10.4065L11.4697 7.90478C11.1771 7.61192 11.1771 7.13732 11.4697 6.84448L13.9697 4.34289C14.2625 4.0499 14.7374 4.04975 15.0304 4.34255ZM18.2201 4.34255C18.5131 4.04975 18.9879 4.0499 19.2807 4.34289L21.7807 6.84448C22.0734 7.13732 22.0734 7.61192 21.7808 7.90478L19.2808 10.4065C18.988 10.6995 18.5131 10.6997 18.2201 10.4069C17.9271 10.1141 17.9269 9.63924 18.2197 9.34624L20.1899 7.37465L18.2197 5.40321C17.9269 5.11022 17.9271 4.63535 18.2201 4.34255Z" fill="#323544"/>
</svg>
