<svg width="24" height="24" viewBox="0 0 24 24" fill="none" xmlns="http://www.w3.org/2000/svg">
<path opacity="0.4" d="M5.75024 4.25C5.75024 3.00736 6.7576 2 8.00024 2H16.0002C17.2429 2 18.2502 3.00736 18.2502 4.25V19.75C18.2502 20.9926 17.2429 22 16.0002 22H8.00024C6.7576 22 5.75024 20.9926 5.75024 19.75V4.25ZM10.2502 18.25C10.2502 18.6642 10.586 19 11.0002 19H13.0002C13.4145 19 13.7502 18.6642 13.7502 18.25C13.7502 17.8358 13.4145 17.5 13.0002 17.5H11.0002C10.586 17.5 10.2502 17.8358 10.2502 18.25Z" fill="#323544"/>
<path d="M11.0002 17.5C10.586 17.5 10.2502 17.8358 10.2502 18.25C10.2502 18.6642 10.586 19 11.0002 19H13.0002C13.4145 19 13.7502 18.6642 13.7502 18.25C13.7502 17.8358 13.4145 17.5 13.0002 17.5H11.0002Z" fill="#323544"/>
</svg>
