<svg width="24" height="25" viewBox="0 0 24 25" fill="none" xmlns="http://www.w3.org/2000/svg">
<g opacity="0.4">
<path d="M18.1553 7.03906V6.87162C18.1553 6.26272 17.9085 5.67982 17.4713 5.25602L16.3142 4.1344C15.8944 3.72753 15.3328 3.5 14.7482 3.5H8.09518C6.85254 3.5 5.84518 4.50736 5.84518 5.75V7.03906H18.1553Z" fill="#323544"/>
<path d="M5.84497 18.749C5.84497 19.9916 6.85233 20.999 8.09497 20.999H15.9051C17.1478 20.999 18.1551 19.9916 18.1551 18.749V14.1953C18.1551 13.7811 17.8193 13.4453 17.4051 13.4453H6.59497C6.18076 13.4453 5.84497 13.7811 5.84497 14.1953V18.749Z" fill="#323544"/>
</g>
<path d="M5.50073 8.03906C4.25809 8.03906 3.25073 9.04642 3.25073 10.2891V14.2076C3.25073 15.2221 3.9222 16.0798 4.84497 16.3605V14.1953C4.84497 13.2288 5.62847 12.4453 6.59497 12.4453H17.4051C18.3716 12.4453 19.1551 13.2288 19.1551 14.1953V16.3606C20.0781 16.0801 20.7498 15.2223 20.7498 14.2076V10.2891C20.7498 9.04642 19.7424 8.03906 18.4998 8.03906H5.50073Z" fill="#323544"/>
</svg>
