<svg width="24" height="25" viewBox="0 0 24 25" fill="none" xmlns="http://www.w3.org/2000/svg">
<path opacity="0.4" d="M4.50024 9.75C4.50024 5.60786 7.85811 2.25 12.0002 2.25C16.1424 2.25 19.5002 5.60786 19.5002 9.75V14.75C19.5002 18.8921 16.1424 22.25 12.0002 22.25C7.85811 22.25 4.50024 18.8921 4.50024 14.75V9.75ZM12.0002 9.30323C12.4421 9.30323 12.8002 8.94495 12.8002 8.50312C12.8002 8.0613 12.4421 7.70312 12.0002 7.70312C11.5584 7.70312 11.2002 8.0614 11.2002 8.50322C11.2002 8.94505 11.5584 9.30323 12.0002 9.30323ZM11.47 16.5259C11.7629 16.8186 12.2375 16.8186 12.5303 16.5259L14.7804 14.2774C15.0734 13.9846 15.0736 13.5098 14.7808 13.2168C14.488 12.9238 14.0131 12.9236 13.7201 13.2164L12.0002 14.9351L10.2804 13.2164C9.98742 12.9236 9.51255 12.9238 9.21975 13.2168C8.92695 13.5097 8.9271 13.9846 9.22008 14.2774L11.47 16.5259ZM12.0002 12.1196C12.4421 12.1196 12.8002 11.7615 12.8002 11.3196C12.8002 10.8778 12.4421 10.5195 12.0002 10.5195C11.5584 10.5195 11.2002 10.8778 11.2002 11.3196C11.2002 11.7615 11.5584 12.1196 12.0002 12.1196Z" fill="#323544"/>
<path d="M12.5303 16.5259C12.2375 16.8186 11.7629 16.8186 11.47 16.5259L9.22008 14.2774C8.9271 13.9846 8.92695 13.5097 9.21975 13.2168C9.51255 12.9238 9.98742 12.9236 10.2804 13.2164L12.0002 14.9351L13.7201 13.2164C14.0131 12.9236 14.488 12.9238 14.7808 13.2168C15.0736 13.5098 15.0734 13.9846 14.7804 14.2774L12.5303 16.5259Z" fill="#323544"/>
<path d="M11.2002 11.3196C11.2002 11.7615 11.5584 12.1196 12.0002 12.1196C12.4421 12.1196 12.8002 11.7615 12.8002 11.3196C12.8002 10.8778 12.4421 10.5195 12.0002 10.5195C11.5584 10.5195 11.2002 10.8778 11.2002 11.3196Z" fill="#323544"/>
<path d="M11.2002 8.50322C11.2002 8.94505 11.5584 9.30323 12.0002 9.30323C12.4421 9.30323 12.8002 8.94495 12.8002 8.50312C12.8002 8.0613 12.4421 7.70312 12.0002 7.70312C11.5584 7.70312 11.2002 8.0614 11.2002 8.50322Z" fill="#323544"/>
</svg>
