<svg width="24" height="24" viewBox="0 0 24 24" fill="none" xmlns="http://www.w3.org/2000/svg">
<path opacity="0.4" d="M4.50024 4.25C4.50024 3.00736 5.5076 2 6.75024 2H17.2502C18.4929 2 19.5002 3.00736 19.5002 4.25V19.75C19.5002 20.9926 18.4929 22 17.2502 22H6.75024C5.5076 22 4.50024 20.9926 4.50024 19.75V4.25ZM10.9954 18.25C10.9954 18.8023 11.4431 19.25 11.9954 19.25H12.0054C12.5576 19.25 13.0054 18.8023 13.0054 18.25C13.0054 17.6977 12.5576 17.25 12.0054 17.25H11.9954C11.4431 17.25 10.9954 17.6977 10.9954 18.25Z" fill="#323544"/>
<path d="M11.9954 17.25C11.4431 17.25 10.9954 17.6977 10.9954 18.25C10.9954 18.8023 11.4431 19.25 11.9954 19.25H12.0054C12.5576 19.25 13.0054 18.8023 13.0054 18.25C13.0054 17.6977 12.5576 17.25 12.0054 17.25H11.9954Z" fill="#323544"/>
</svg>
