<svg width="24" height="24" viewBox="0 0 24 24" fill="none" xmlns="http://www.w3.org/2000/svg">
<g opacity="0.4">
<path d="M4.75 20.75C4.75 20.0596 5.30964 19.5 6 19.5C6.69036 19.5 7.2501 20.0596 7.2501 20.75C7.2501 21.4404 6.69046 22 6.0001 22C5.30974 22 4.75 21.4404 4.75 20.75Z" fill="#323544"/>
<path d="M9.61719 15.4229C8.37455 15.4229 7.36719 16.4302 7.36719 17.6729C7.36719 18.9155 8.37455 19.9229 9.61719 19.9229C10.8598 19.9229 11.8672 18.9155 11.8672 17.6729C11.8672 16.4302 10.8598 15.4229 9.61719 15.4229ZM8.86719 17.6729C8.86719 17.2586 9.20297 16.9229 9.61719 16.9229C10.0314 16.9229 10.3672 17.2586 10.3672 17.6729C10.3672 18.0871 10.0314 18.4229 9.61719 18.4229C9.20297 18.4229 8.86719 18.0871 8.86719 17.6729Z" fill="#323544"/>
</g>
<path d="M15.511 3.33216C14.347 2.22779 12.6579 1.72522 10.9857 2.15023C9.23355 2.59554 7.9514 3.94438 7.50793 5.57003C6.3866 6.11872 5.61328 7.2707 5.61328 8.60487C5.61328 10.1949 6.71175 11.5277 8.19159 11.8867C8.57553 12.6983 9.20177 13.4071 10.0343 13.8881C11.5672 14.7738 13.4181 14.6691 14.8124 13.7616C16.3935 14.5236 18.321 13.9564 19.2258 12.4162C19.3295 12.2396 19.4157 12.057 19.4846 11.8707C20.9325 11.4896 21.9999 10.1723 21.9999 8.60487C21.9999 7.37211 21.3394 6.29492 20.3553 5.70568C20.0649 4.62198 19.2696 3.6893 18.1343 3.27164C17.2484 2.94572 16.3163 2.99294 15.511 3.33216ZM14.7704 4.73533C15.0126 5.03332 15.4408 5.10024 15.7624 4.89037C16.295 4.54276 16.9763 4.44389 17.6164 4.6794C18.3515 4.94983 18.843 5.59232 18.9534 6.31864C18.9918 6.57084 19.1557 6.78625 19.3886 6.89045C20.045 7.18421 20.4999 7.84223 20.4999 8.60487C20.4999 9.57589 19.7619 10.3755 18.8167 10.472C18.49 10.5053 18.223 10.7473 18.1578 11.0692C18.1172 11.2698 18.0431 11.468 17.9324 11.6565C17.399 12.5646 16.2304 12.8683 15.3223 12.3349L15.1364 12.2257C14.8636 12.0655 14.5195 12.0937 14.2765 12.2962C13.3225 13.0909 11.9213 13.246 10.7847 12.5893C10.1332 12.2129 9.66928 11.6288 9.43162 10.9656C9.33397 10.6932 9.08825 10.5012 8.80024 10.4724C7.85322 10.3776 7.11328 9.5772 7.11328 8.60487C7.11328 7.77858 7.6477 7.07516 8.39186 6.82511C8.65108 6.73801 8.84234 6.51673 8.89101 6.24764C9.11689 4.99859 10.0476 3.93632 11.3551 3.60401C12.656 3.27338 13.9742 3.75571 14.7704 4.73533Z" fill="#323544"/>
</svg>
