<svg width="24" height="24" viewBox="0 0 24 24" fill="none" xmlns="http://www.w3.org/2000/svg">
<path d="M5.28222 17.7528C5.57506 17.46 6.04986 17.4601 6.34277 17.7528C6.63566 18.0457 6.63566 18.5204 6.34277 18.8133L5.06054 20.0956H7.62499L7.70214 20.0995C8.08002 20.1381 8.37483 20.4575 8.37499 20.8456C8.37499 21.2337 8.08009 21.553 7.70214 21.5917L7.62499 21.5956H3.24999C2.94664 21.5956 2.67272 21.4129 2.55663 21.1327C2.44074 20.8525 2.50531 20.5297 2.71972 20.3153L5.28222 17.7528Z" fill="#323544"/>
<path opacity="0.4" d="M12 2.5957C17.2467 2.5957 21.5 6.849 21.5 12.0957C21.5 17.3424 17.2467 21.5957 12 21.5957H7.625L7.70215 21.5918C8.08006 21.5532 8.37493 21.2338 8.375 20.8457C8.37484 20.4577 8.08002 20.1382 7.70215 20.0996L7.625 20.0957H12C16.4183 20.0957 20 16.514 20 12.0957C20 7.67742 16.4183 4.0957 12 4.0957C7.58172 4.0957 4 7.67742 4 12.0957C4 14.167 4.78628 16.0533 6.07812 17.4746L6.34277 17.7529C6.04987 17.4602 5.57507 17.4601 5.28223 17.7529L4.77344 18.2607C3.35702 16.6018 2.5 14.4485 2.5 12.0957C2.5 6.849 6.75329 2.5957 12 2.5957Z" fill="#323544"/>
</svg>
