<svg width="24" height="24" viewBox="0 0 24 24" fill="none" xmlns="http://www.w3.org/2000/svg">
<path d="M19.75 19.5C20.9926 19.5 22 18.4926 22 17.25L22.0001 6.23549C22 5.27697 21.2229 4.5 20.2644 4.5H3.73592C2.78812 4.5 2.01781 5.25972 2.00061 6.20334L2 17.25C2 18.4926 3.00736 19.5 4.25 19.5H19.75ZM3.5 17.25L3.50032 6.23568C3.50028 6.10553 3.60577 6 3.73592 6H20.2644C20.3922 6 20.4963 6.10171 20.5 6.2286L20.5 6.23398V17.25C20.5 17.6642 20.1642 18 19.75 18H4.25C3.83579 18 3.5 17.6642 3.5 17.25Z" fill="#323544"/>
<path opacity="0.4" d="M13.2873 13.2168L20.5 8.18715V6.24303C20.4976 6.3172 20.4604 6.3861 20.3992 6.42872L12.4293 11.9864C12.1716 12.1661 11.8291 12.1661 11.5713 11.9864L3.60116 6.42853C3.538 6.38448 3.50035 6.31235 3.50032 6.23535L3.5 8.18316L10.7134 13.2168C11.4866 13.756 12.5141 13.756 13.2873 13.2168Z" fill="#323544"/>
</svg>
