<svg width="24" height="24" viewBox="0 0 24 24" fill="none" xmlns="http://www.w3.org/2000/svg">
<path d="M6.90723 17.4416C7.2146 17.2178 7.64815 17.2597 7.90723 17.549C8.18325 17.8576 8.15703 18.3314 7.84863 18.6076L3.75 22.2775C3.52968 22.4747 3.21432 22.524 2.94434 22.4035C2.67426 22.2828 2.50003 22.0147 2.5 21.7189V18.049C2.5 17.6348 2.83579 17.299 3.25 17.299C3.66421 17.299 4 17.6348 4 18.049V20.0402L6.84766 17.4904L6.90723 17.4416Z" fill="#323544"/>
<path opacity="0.4" d="M19.25 3.75C20.4926 3.75 21.5 4.75736 21.5 6V16.5488C21.4998 17.7913 20.4925 18.7988 19.25 18.7988H7.63477L7.84863 18.6074C8.15695 18.3312 8.18322 17.8574 7.90723 17.5488C7.74873 17.3719 7.52492 17.2884 7.30469 17.3008C7.31924 17.2999 7.33387 17.2988 7.34863 17.2988H19.25C19.6641 17.2988 19.9998 16.9628 20 16.5488V6C20 5.58579 19.6642 5.25 19.25 5.25H4.75C4.33579 5.25 4 5.58579 4 6V18.0488C3.99991 17.6347 3.66416 17.2988 3.25 17.2988C2.83584 17.2988 2.50009 17.6347 2.5 18.0488V6C2.5 4.75736 3.50736 3.75 4.75 3.75H19.25Z" fill="#323544"/>
</svg>
