<svg width="24" height="24" viewBox="0 0 24 24" fill="none" xmlns="http://www.w3.org/2000/svg">
<path d="M14.7343 13.7734C15.29 13.646 15.9033 13.6996 16.4179 13.9335L19.9843 15.5546L20.1347 15.6288C21.6011 16.4092 21.956 18.3665 20.8573 19.6122L20.7431 19.7343L19.6747 20.8027C19.1812 21.2962 18.4822 21.5677 17.7626 21.4853L17.6191 21.4638C15.5937 21.0987 13.6161 20.3984 11.7763 19.3622C11.4255 19.1645 11.2938 18.7255 11.4774 18.3671L13.2763 14.8564L13.3388 14.7441C13.6664 14.1956 14.2086 13.8939 14.7343 13.7734ZM15.7968 15.2988C15.596 15.2076 15.32 15.1778 15.0692 15.2353C14.8847 15.2776 14.7572 15.3552 14.6767 15.4462L14.6112 15.5409L13.1464 18.3954C14.6544 19.1629 16.2522 19.6939 17.8847 19.9882L17.9794 19.9989C18.2017 20.0101 18.4341 19.9222 18.6142 19.7421L19.6816 18.6738L19.7743 18.5693C20.1665 18.0638 20.0318 17.3218 19.4872 16.9863L19.3642 16.9208L15.7968 15.2988ZM4.38761 3.1425C5.67482 2.00728 7.72195 2.42435 8.44522 4.01555L10.0663 7.58196L10.1454 7.77922C10.3107 8.24897 10.3379 8.77923 10.2265 9.26555C10.1059 9.79123 9.80422 10.3335 9.25577 10.6611L9.14346 10.7236L5.63272 12.5224C5.27436 12.7061 4.83528 12.5744 4.63761 12.2236C3.66611 10.4986 2.9899 8.65263 2.60831 6.75969L2.53604 6.38078C2.39735 5.61133 2.67084 4.85142 3.19718 4.32512L4.26554 3.25676L4.38761 3.1425ZM7.07999 4.63567C6.78634 3.9897 5.97224 3.8053 5.43057 4.22551L5.32608 4.31828L4.25772 5.38567C4.05193 5.59145 3.96665 5.86568 4.01163 6.11516L4.15225 6.81145C4.46239 8.20119 4.94571 9.55996 5.60343 10.8525L8.45889 9.3886L8.55362 9.32317C8.64464 9.24267 8.72224 9.11512 8.76456 8.93059C8.81492 8.71099 8.79848 8.47201 8.73233 8.28118L8.70108 8.20305L7.07999 4.63567Z" fill="#323544"/>
<path d="M4.38761 3.1425C5.67482 2.00728 7.72195 2.42435 8.44522 4.01555L10.0663 7.58196L10.1454 7.77922C10.3107 8.24897 10.3379 8.77923 10.2265 9.26555C10.1059 9.79123 9.80422 10.3335 9.25577 10.6611L9.14346 10.7236L5.63272 12.5224C5.27436 12.7061 4.83528 12.5744 4.63761 12.2236C3.66611 10.4986 2.9899 8.65263 2.60831 6.75969L2.53604 6.38078C2.39735 5.61133 2.67084 4.85142 3.19718 4.32512L4.26554 3.25676L4.38761 3.1425ZM7.07999 4.63567C6.78634 3.9897 5.97224 3.8053 5.43057 4.22551L5.32608 4.31828L4.25772 5.38567C4.05193 5.59145 3.96665 5.86568 4.01163 6.11516L4.15225 6.81145C4.46239 8.20119 4.94571 9.55996 5.60343 10.8525L8.45889 9.3886L8.55362 9.32317C8.64464 9.24267 8.72224 9.11512 8.76456 8.93059C8.81492 8.71099 8.79848 8.47201 8.73233 8.28118L8.70108 8.20305L7.07999 4.63567Z" fill="#323544"/>
<path opacity="0.4" d="M6.34375 12.1572C7.02308 13.2443 7.83414 14.2736 8.78027 15.2197L9.21289 15.6377C10.0369 16.407 10.9187 17.0783 11.8418 17.6553L11.4775 18.3672C11.2939 18.7255 11.4256 19.1646 11.7764 19.3623L11.2354 19.0459C10.1619 18.3927 9.14053 17.6214 8.18945 16.7334L7.71973 16.2803C6.63822 15.1988 5.71615 14.017 4.9541 12.7646L4.6377 12.2236C4.8354 12.5744 5.27448 12.7061 5.63281 12.5225L6.34375 12.1572Z" fill="#323544"/>
</svg>
