<svg width="24" height="24" viewBox="0 0 24 24" fill="none" xmlns="http://www.w3.org/2000/svg">
<g opacity="0.4">
<path d="M12.0013 12.7618C10.4826 12.7618 9.25134 13.993 9.25134 15.5118C9.25134 17.0306 10.4826 18.2618 12.0013 18.2618C13.5201 18.2618 14.7513 17.0306 14.7513 15.5118C14.7513 13.993 13.5201 12.7618 12.0013 12.7618ZM10.7513 15.5118C10.7513 14.8214 11.311 14.2618 12.0013 14.2618C12.6917 14.2618 13.2513 14.8214 13.2513 15.5118C13.2513 16.2022 12.6917 16.7618 12.0013 16.7618C11.311 16.7618 10.7513 16.2022 10.7513 15.5118Z" fill="#323544"/>
<path d="M9.99399 10.5307C11.2794 9.99887 12.7233 9.99887 14.0087 10.5307L18.8242 12.5234C19.4962 12.8014 19.9923 13.3871 20.1561 14.0956L21.0572 17.9931C21.3832 19.4032 20.3123 20.7499 18.865 20.7499H5.13769C3.69038 20.7499 2.61951 19.4032 2.94552 17.9931L3.84659 14.0956C4.01039 13.3871 4.50652 12.8014 5.17847 12.5234L9.99399 10.5307ZM13.4352 11.9168C12.517 11.5369 11.4857 11.5369 10.5675 11.9168L5.752 13.9094C5.52802 14.0021 5.36264 14.1973 5.30804 14.4335L4.40697 18.331C4.2983 18.801 4.65526 19.2499 5.13769 19.2499H18.865C19.3474 19.2499 19.7044 18.801 19.5957 18.331L18.6946 14.4335C18.64 14.1973 18.4747 14.0021 18.2507 13.9094L13.4352 11.9168Z" fill="#323544"/>
</g>
<path d="M9.40554 5.02116L10.0493 7.01934C10.1001 7.17723 10.1514 7.40219 10.1202 7.65893C10.0265 8.4276 9.51347 9.0909 8.77547 9.36766L6.08329 10.3772C4.71298 10.8911 3.25122 9.87809 3.25122 8.41459L3.25122 7.306C3.25122 6.69945 3.53144 6.09966 4.06045 5.73225C6.31369 4.16731 9.05149 3.25 12.0013 3.25C14.9511 3.25 17.6889 4.16731 19.9421 5.73224C20.4712 6.09966 20.7514 6.69948 20.7514 7.30605L20.7513 8.41462C20.7513 9.87809 19.2896 10.8911 17.9193 10.3772L15.2271 9.36766C14.4891 9.0909 13.976 8.4276 13.8824 7.65893C13.8511 7.4022 13.9024 7.17724 13.9533 7.01934L14.597 5.02115C13.76 4.84348 12.8917 4.75 12.0013 4.75C11.1109 4.75 10.2426 4.84348 9.40554 5.02116ZM7.95863 5.42163C6.86795 5.79632 5.84595 6.31846 4.91611 6.96426C4.82106 7.03027 4.75122 7.15275 4.75122 7.306L4.75122 8.41459C4.75122 8.83078 5.16692 9.11886 5.55661 8.97273L8.24878 7.96316C8.45093 7.88736 8.59402 7.70929 8.62786 7.50094C8.62647 7.49547 8.62444 7.48832 8.62154 7.4793L7.95863 5.42163ZM15.381 7.4793C15.3781 7.48833 15.3761 7.49547 15.3747 7.50094C15.4085 7.70929 15.5516 7.88736 15.7538 7.96316L18.4459 8.97273C18.8356 9.11886 19.2513 8.83079 19.2513 8.41457L19.2514 7.306C19.2514 7.15275 19.1815 7.03026 19.0865 6.96425C18.1566 6.31845 17.1346 5.79631 16.0439 5.42161L15.381 7.4793Z" fill="#323544"/>
</svg>
