<svg width="24" height="25" viewBox="0 0 24 25" fill="none" xmlns="http://www.w3.org/2000/svg">
<path opacity="0.4" d="M6.38688 9.23329C6.45702 6.19302 8.94354 3.75 12.0007 3.75C15.0578 3.75 17.5444 6.19308 17.6144 9.23338C20.0688 9.42706 22.0001 11.4801 22.0001 13.9842C22.0001 16.0917 20.6321 17.8797 18.7357 18.5087C18.827 18.0617 18.875 17.599 18.875 17.125C18.875 17.0203 18.8727 16.9162 18.868 16.8126C19.8437 16.2478 20.5001 15.1927 20.5001 13.9842C20.5001 12.1806 19.038 10.7184 17.2343 10.7184H16.866C16.4518 10.7184 16.116 10.3827 16.116 9.96844V9.3653C16.116 7.09248 14.2735 5.25 12.0007 5.25C9.72784 5.25 7.88536 7.09248 7.88536 9.3653V9.96844C7.88536 10.3827 7.54957 10.7184 7.13536 10.7184H6.76578C4.96214 10.7184 3.5 12.1806 3.5 13.9842C3.5 15.1926 4.15634 16.2478 5.13197 16.8126C5.12734 16.9161 5.125 17.0203 5.125 17.125C5.125 17.599 5.17296 18.0617 5.26429 18.5087C3.36791 17.8796 2 16.0917 2 13.9842C2 11.4797 3.93195 9.42638 6.38688 9.23329Z" fill="#323544"/>
<path d="M13.7645 12.425C13.7355 12.1367 13.5431 11.8909 13.2702 11.7936C12.9973 11.6963 12.6928 11.7648 12.4879 11.9697L7.51657 16.9411C7.30207 17.1556 7.2379 17.4781 7.35399 17.7584C7.47007 18.0387 7.74355 18.2214 8.0469 18.2214H9.87687L10.2393 21.8251C10.2683 22.1133 10.4607 22.3591 10.7336 22.4564C11.0065 22.5537 11.311 22.4852 11.5159 22.2803L16.4873 17.309C16.7018 17.0945 16.7659 16.7719 16.6498 16.4916C16.5338 16.2114 16.2603 16.0286 15.9569 16.0286H14.127L13.7645 12.425ZM10.5552 16.7214H9.85756L12.4303 14.1486L12.7024 16.8537C12.7409 17.2369 13.0635 17.5286 13.4486 17.5286H14.1463L11.5735 20.1014L11.3015 17.3963C11.2629 17.0131 10.9404 16.7214 10.5552 16.7214Z" fill="#323544"/>
</svg>
