<svg width="24" height="25" viewBox="0 0 24 25" fill="none" xmlns="http://www.w3.org/2000/svg">
<path opacity="0.4" d="M6.38688 9.23329C6.45702 6.19302 8.94354 3.75 12.0007 3.75C15.0578 3.75 17.5444 6.19308 17.6144 9.23338C20.0688 9.42706 22.0001 11.4801 22.0001 13.9842C22.0001 16.0917 20.6321 17.8797 18.7357 18.5087C18.827 18.0617 18.875 17.599 18.875 17.125C18.875 17.0203 18.8727 16.9162 18.868 16.8126C19.8437 16.2478 20.5001 15.1927 20.5001 13.9842C20.5001 12.1806 19.038 10.7184 17.2343 10.7184H16.866C16.4518 10.7184 16.116 10.3827 16.116 9.96844V9.3653C16.116 7.09248 14.2735 5.25 12.0007 5.25C9.72784 5.25 7.88536 7.09248 7.88536 9.3653V9.96844C7.88536 10.3827 7.54957 10.7184 7.13536 10.7184H6.76578C4.96214 10.7184 3.5 12.1806 3.5 13.9842C3.5 15.1926 4.15634 16.2478 5.13197 16.8126C5.12734 16.9161 5.125 17.0203 5.125 17.125C5.125 17.599 5.17296 18.0617 5.26429 18.5087C3.36791 17.8796 2 16.0917 2 13.9842C2 11.4797 3.93195 9.42638 6.38688 9.23329Z" fill="#323544"/>
<path d="M9.54297 11.75C9.21221 11.75 8.92049 11.9667 8.82495 12.2834L7.32495 17.2547C7.2564 17.4819 7.29941 17.7281 7.4409 17.9186C7.5824 18.1091 7.80569 18.2214 8.04297 18.2214H9.48163V21.75C9.48163 22.0533 9.66436 22.3268 9.94462 22.4429C10.2249 22.559 10.5475 22.4948 10.762 22.2803L16.4833 16.559C16.6978 16.3445 16.762 16.0219 16.6459 15.7416C16.5298 15.4614 16.2564 15.2786 15.953 15.2786H13.7644V12.5C13.7644 12.0858 13.4286 11.75 13.0144 11.75H9.54297ZM9.05267 16.7214L10.1001 13.25H12.2644V16.0286C12.2644 16.2275 12.3434 16.4183 12.484 16.559C12.6247 16.6996 12.8154 16.7786 13.0144 16.7786H14.1423L10.9816 19.9393V17.4714C10.9816 17.0572 10.6458 16.7214 10.2316 16.7214H9.05267Z" fill="#323544"/>
</svg>
