<svg width="24" height="25" viewBox="0 0 24 25" fill="none" xmlns="http://www.w3.org/2000/svg">
<path opacity="0.4" d="M6.38688 9.23329C6.45702 6.19302 8.94354 3.75 12.0007 3.75C15.0578 3.75 17.5444 6.19308 17.6144 9.23338C20.0688 9.42706 22.0001 11.4801 22.0001 13.9842C22.0001 16.0917 20.6321 17.8797 18.7357 18.5087C18.827 18.0617 18.875 17.599 18.875 17.125C18.875 17.0203 18.8727 16.9162 18.868 16.8126C19.8437 16.2478 20.5001 15.1927 20.5001 13.9842C20.5001 12.1806 19.038 10.7184 17.2343 10.7184H16.866C16.4518 10.7184 16.116 10.3827 16.116 9.96844V9.3653C16.116 7.09248 14.2735 5.25 12.0007 5.25C9.72784 5.25 7.88536 7.09248 7.88536 9.3653V9.96844C7.88536 10.3827 7.54957 10.7184 7.13536 10.7184H6.76578C4.96214 10.7184 3.5 12.1806 3.5 13.9842C3.5 15.1926 4.15634 16.2478 5.13197 16.8126C5.12734 16.9161 5.125 17.0203 5.125 17.125C5.125 17.599 5.17296 18.0617 5.26429 18.5087C3.36791 17.8796 2 16.0917 2 13.9842C2 11.4797 3.93195 9.42638 6.38688 9.23329Z" fill="#323544"/>
<path d="M8.79688 14.67C8.79688 14.2558 8.46109 13.92 8.04688 13.92C7.63266 13.92 7.29688 14.2558 7.29688 14.67L7.29688 21.08C7.29688 21.4942 7.63266 21.83 8.04688 21.83C8.46109 21.83 8.79688 21.4942 8.79688 21.08L8.79688 14.67Z" fill="#323544"/>
<path d="M15.9569 13.17C16.3711 13.17 16.7069 13.5058 16.7069 13.92V20.33C16.7069 20.7442 16.3711 21.08 15.9569 21.08C15.5427 21.08 15.2069 20.7442 15.2069 20.33V13.92C15.2069 13.5058 15.5427 13.17 15.9569 13.17Z" fill="#323544"/>
<path d="M12.7519 13.17C12.7519 12.7558 12.4161 12.42 12.0019 12.42C11.5876 12.42 11.2519 12.7558 11.2519 13.17V19.58C11.2519 19.9942 11.5876 20.33 12.0019 20.33C12.4161 20.33 12.7519 19.9942 12.7519 19.58V13.17Z" fill="#323544"/>
</svg>
