<svg width="24" height="25" viewBox="0 0 24 25" fill="none" xmlns="http://www.w3.org/2000/svg">
<path d="M7.62156 2.5086C8.03535 2.52736 8.35558 2.87801 8.33681 3.2918L8.33636 3.30179C8.3176 3.71558 7.96694 4.03581 7.55315 4.01705C7.13937 3.99828 6.81914 3.64763 6.8379 3.23384L6.83835 3.22385C6.85712 2.81006 7.20777 2.48983 7.62156 2.5086Z" fill="#323544"/>
<path d="M11.3469 4.25343C11.6263 4.55929 11.6047 5.03368 11.2989 5.313L11.2915 5.31975C10.9856 5.59907 10.5113 5.57756 10.2319 5.2717C9.95261 4.96584 9.97412 4.49145 10.28 4.21213L10.2874 4.20538C10.5932 3.92606 11.0676 3.94757 11.3469 4.25343Z" fill="#323544"/>
<path d="M4.52422 10.4845C4.80354 10.7903 4.78203 11.2647 4.47617 11.544L4.46879 11.5508C4.16292 11.8301 3.68854 11.8086 3.40921 11.5027C3.12989 11.1969 3.1514 10.7225 3.45726 10.4431L3.46465 10.4364C3.77051 10.1571 4.24489 10.1786 4.52422 10.4845Z" fill="#323544"/>
<path d="M2.73384 8.41825C3.14763 8.43701 3.49828 8.11678 3.51705 7.70299C3.53581 7.28921 3.21558 6.93855 2.80179 6.91979L2.7918 6.91934C2.37801 6.90057 2.02736 7.2208 2.0086 7.63459C1.98983 8.04838 2.31006 8.39903 2.72385 8.4178L2.73384 8.41825Z" fill="#323544"/>
<path d="M4.77183 5.02411C4.46596 5.30343 3.99158 5.28192 3.71225 4.97606L3.70551 4.96868C3.42619 4.66282 3.4477 4.18843 3.75356 3.90911C4.05942 3.62978 4.53381 3.65129 4.81313 3.95715L4.81987 3.96454C5.0992 4.2704 5.07769 4.74479 4.77183 5.02411Z" fill="#323544"/>
<path d="M5.81468 7.80718C5.85383 6.94375 6.58553 6.27553 7.44897 6.31469C8.01738 6.34046 8.50118 6.66636 8.75427 7.1324C9.13306 6.80377 9.54397 6.51122 9.98154 6.26007C9.46598 5.43216 8.56487 4.86375 7.51692 4.81623C5.8259 4.73954 4.3929 6.04822 4.31622 7.73923C4.2559 9.06942 5.0528 10.24 6.21871 10.7163C6.29207 10.6906 6.36614 10.6664 6.44087 10.6438C6.57928 10.2071 6.75539 9.78728 6.96533 9.38802C6.27427 9.19981 5.78088 8.55259 5.81468 7.80718Z" fill="#323544"/>
<path opacity="0.4" d="M13.8379 6.73438C17.1276 6.73438 19.8381 9.27843 20.08 12.5106C21.2313 13.2235 22 14.4989 22 15.9549C22 18.191 20.1873 20.0036 17.9513 20.0036H8.04869C5.81266 20.0036 4 18.191 4 15.9549C4 13.8474 5.61035 12.1159 7.66773 11.9239C8.17265 8.97566 10.7497 6.73438 13.8379 6.73438ZM18.5976 12.9676C18.59 10.3545 16.4572 8.23438 13.8379 8.23438C11.3086 8.23438 9.2323 10.2116 9.08635 12.7002C9.0631 13.0966 8.7348 13.4062 8.33764 13.4062H8.04869C6.64109 13.4062 5.5 14.5473 5.5 15.9549C5.5 17.3625 6.64109 18.5036 8.04869 18.5036H17.9513C19.3589 18.5036 20.5 17.3625 20.5 15.9549C20.5 14.9341 19.8998 14.0518 19.0297 13.6448C18.7668 13.5217 18.5984 13.258 18.5976 12.9676Z" fill="#323544"/>
</svg>
