<svg width="24" height="25" viewBox="0 0 24 25" fill="none" xmlns="http://www.w3.org/2000/svg">
<path opacity="0.4" d="M20.5003 12.5C20.5003 8.68044 17.9802 5.44787 14.5111 4.37695L14.1732 4.28027L14.0999 4.25684C13.7438 4.12343 13.54 3.7389 13.639 3.36328C13.7381 2.98802 14.1045 2.75433 14.4798 2.81348L14.555 2.8291L14.9535 2.94336C19.0343 4.20314 22.0003 8.00434 22.0003 12.5C22.0003 18.0228 17.5231 22.5 12.0003 22.5C7.50467 22.5 3.70347 19.534 2.44369 15.4531L2.32943 15.0547L2.31381 14.9795C2.25467 14.6042 2.48835 14.2377 2.86361 14.1387C3.23923 14.0397 3.62376 14.2435 3.75717 14.5996L3.78061 14.6729L3.87729 15.0107C4.9482 18.4799 8.18077 21 12.0003 21C16.6947 21 20.5003 17.1944 20.5003 12.5Z" fill="#323544"/>
<path d="M15.7537 9.00195C15.7537 7.21373 15.1069 5.57815 14.0339 4.31348L13.8142 4.06543L13.7644 4.00684C13.5351 3.70386 13.5683 3.27032 13.8523 3.00586C14.1366 2.74156 14.5715 2.73973 14.8572 2.99023L14.9128 3.04394L15.1785 3.34277C16.4725 4.86818 17.2537 6.84469 17.2537 9.00195C17.2536 13.8355 13.3352 17.7539 8.5017 17.7539C6.34444 17.7539 4.36792 16.9727 2.84252 15.6787L2.54369 15.4131L2.48998 15.3574C2.23948 15.0718 2.24131 14.6368 2.50561 14.3525C2.77006 14.0685 3.20361 14.0354 3.50658 14.2646L3.56518 14.3145L3.81322 14.5342C5.0779 15.6072 6.71348 16.2539 8.5017 16.2539C12.5068 16.2539 15.7536 13.0071 15.7537 9.00195Z" fill="#323544"/>
</svg>
