<svg width="24" height="25" viewBox="0 0 24 25" fill="none" xmlns="http://www.w3.org/2000/svg">
<g opacity="0.4">
<path d="M12 2.5C12.4142 2.5 12.75 2.83579 12.75 3.25V4.75C12.75 5.16421 12.4142 5.5 12 5.5C11.5858 5.5 11.25 5.16421 11.25 4.75V3.25C11.25 2.83579 11.5858 2.5 12 2.5Z" fill="#323544"/>
<path d="M19.0713 6.49127C19.3642 6.19837 19.3642 5.7235 19.0713 5.43061C18.7785 5.13771 18.3036 5.13771 18.0107 5.43061L16.95 6.49127C16.6571 6.78416 16.6571 7.25903 16.95 7.55193C17.2429 7.84482 17.7178 7.84482 18.0107 7.55193L19.0713 6.49127Z" fill="#323544"/>
<path d="M22 12.5C22 12.9142 21.6642 13.25 21.25 13.25H19.75C19.3358 13.25 19 12.9142 19 12.5C19 12.0858 19.3358 11.75 19.75 11.75H21.25C21.6642 11.75 22 12.0858 22 12.5Z" fill="#323544"/>
<path d="M18.0107 19.5694C18.3036 19.8623 18.7785 19.8623 19.0713 19.5694C19.3642 19.2765 19.3642 18.8016 19.0713 18.5087L18.0107 17.4481C17.7178 17.1552 17.2429 17.1552 16.95 17.4481C16.6571 17.741 16.6571 18.2158 16.95 18.5087L18.0107 19.5694Z" fill="#323544"/>
<path d="M12 19.5C12.4142 19.5 12.75 19.8358 12.75 20.25V21.75C12.75 22.1642 12.4142 22.5 12 22.5C11.5858 22.5 11.25 22.1642 11.25 21.75V20.25C11.25 19.8358 11.5858 19.5 12 19.5Z" fill="#323544"/>
<path d="M7.04986 18.5147C7.34275 18.2218 7.34275 17.7469 7.04986 17.454C6.75697 17.1612 6.28209 17.1612 5.9892 17.454L4.92854 18.5147C4.63565 18.8076 4.63565 19.2825 4.92854 19.5754C5.22143 19.8683 5.69631 19.8683 5.9892 19.5754L7.04986 18.5147Z" fill="#323544"/>
<path d="M5 12.5C5 12.9142 4.66421 13.25 4.25 13.25H2.75C2.33579 13.25 2 12.9142 2 12.5C2 12.0858 2.33579 11.75 2.75 11.75H4.25C4.66421 11.75 5 12.0858 5 12.5Z" fill="#323544"/>
<path d="M5.9892 7.54596C6.28209 7.83885 6.75697 7.83885 7.04986 7.54596C7.34275 7.25306 7.34275 6.77819 7.04986 6.4853L5.9892 5.42463C5.69631 5.13174 5.22143 5.13174 4.92854 5.42463C4.63565 5.71753 4.63565 6.1924 4.92854 6.48529L5.9892 7.54596Z" fill="#323544"/>
</g>
<path d="M6.5 12.5C6.5 9.46243 8.96243 7 12 7C15.0376 7 17.5 9.46243 17.5 12.5C17.5 15.5376 15.0376 18 12 18C8.96243 18 6.5 15.5376 6.5 12.5ZM12 8.5C9.79086 8.5 8 10.2909 8 12.5C8 14.7091 9.79086 16.5 12 16.5C14.2091 16.5 16 14.7091 16 12.5C16 10.2909 14.2091 8.5 12 8.5Z" fill="#323544"/>
</svg>
