<svg width="24" height="25" viewBox="0 0 24 25" fill="none" xmlns="http://www.w3.org/2000/svg">
<path opacity="0.4" d="M18.8147 14.1816C18.8147 11.506 17.0964 8.95594 15.2366 7.00097C14.3214 6.03894 13.4039 5.25418 12.7141 4.70995C12.37 4.43842 12.0844 4.22759 11.886 4.08593C11.7869 4.01512 11.709 3.96199 11.6575 3.92675C11.6318 3.90916 11.6123 3.89602 11.5999 3.88769C11.5938 3.88357 11.5899 3.87971 11.5872 3.87792L11.5843 3.87694L11.5218 3.83105C11.2273 3.59111 11.1563 3.16214 11.3694 2.83788C11.597 2.49193 12.0625 2.3956 12.4085 2.62304L11.9964 3.24999L12.4095 2.62401L12.4114 2.62499C12.4128 2.6259 12.415 2.62739 12.4173 2.6289C12.4218 2.63191 12.4279 2.6363 12.4358 2.64159C12.452 2.65245 12.4755 2.66818 12.5052 2.68847C12.5645 2.72904 12.6496 2.78844 12.7571 2.86523C12.9726 3.01911 13.2786 3.24405 13.6438 3.53222C14.373 4.10758 15.3468 4.94013 16.3235 5.96679C18.2477 7.98951 20.3147 10.9049 20.3147 14.1816C20.3147 18.7756 16.5904 22.5 11.9964 22.5C11.5822 22.5 11.2464 22.1642 11.2464 21.75C11.2464 21.3358 11.5822 21 11.9964 21C15.7619 21 18.8147 17.9472 18.8147 14.1816Z" fill="#323544"/>
<path d="M3.67969 14.1816C3.67976 10.905 5.74575 7.98951 7.66992 5.96679C8.64671 4.94001 9.62133 4.10762 10.3506 3.53222C10.7158 3.24405 11.0218 3.01912 11.2373 2.86523C11.3449 2.78843 11.43 2.72903 11.4893 2.68847C11.5189 2.66817 11.5424 2.65246 11.5586 2.6416C11.5665 2.63628 11.5726 2.6319 11.5771 2.6289C11.5794 2.62739 11.5816 2.6259 11.583 2.625L11.585 2.62402C11.5852 2.62387 11.5858 2.62344 11.998 3.25L11.5859 2.62304C11.9319 2.39573 12.3964 2.49206 12.624 2.83789C12.8517 3.18392 12.7562 3.64928 12.4102 3.87695L12.4072 3.87792C12.4045 3.87973 12.3998 3.88352 12.3936 3.88769C12.3811 3.89605 12.3614 3.90931 12.3359 3.92675C12.2844 3.962 12.2073 4.01534 12.1084 4.08593C11.91 4.22758 11.6244 4.43841 11.2803 4.70996C10.5905 5.25419 9.67204 6.03892 8.75684 7.00097C6.89718 8.9559 5.17976 11.5062 5.17969 14.1816C5.17969 17.8297 8.04472 20.8088 11.6475 20.9912L11.998 21L12.0742 21.0039C12.4526 21.0422 12.748 21.3616 12.748 21.75C12.748 22.1384 12.4526 22.4578 12.0742 22.4961L11.998 22.5L11.5693 22.4893C7.17448 22.2662 3.67969 18.6319 3.67969 14.1816Z" fill="#323544"/>
</svg>
