<svg width="25" height="25" viewBox="0 0 25 25" fill="none" xmlns="http://www.w3.org/2000/svg">
<path d="M7.75001 5.75C7.75001 4.50736 8.75737 3.5 10 3.5H19C20.2426 3.5 21.25 4.50736 21.25 5.75V14.75C21.25 15.9926 20.2426 17 19 17H18.2498V9.75C18.2498 7.95508 16.7948 6.5 14.9998 6.5H7.75001V5.75Z" fill="#323544"/>
<path d="M5.99984 7.5C4.75728 7.50008 3.75 8.50741 3.75 9.75V17.4692L10.9184 13.7532C11.7618 13.316 12.7889 13.4556 13.485 14.102L17.2498 17.598V9.75C17.2498 8.50736 16.2425 7.5 14.9998 7.5H5.99984ZM8.26001 10.75C8.95037 10.75 9.51001 11.3096 9.51001 12C9.51001 12.6904 8.95037 13.25 8.26001 13.25C7.56966 13.25 7.01 12.6904 7.01 12C7.01 11.3096 7.56966 10.75 8.26001 10.75Z" fill="#323544"/>
<path d="M3.78388 19.1411C3.96902 20.1973 4.89077 21 6 21H15C15.9723 21 16.8005 20.3833 17.1149 19.5197L12.4643 15.2011C12.2322 14.9857 11.8899 14.9391 11.6088 15.0849L3.78388 19.1411Z" fill="#323544"/>
</svg>
