<svg width="25" height="25" viewBox="0 0 25 25" fill="none" xmlns="http://www.w3.org/2000/svg">
<path d="M15.2391 7.75C15.5625 7.24485 15.75 6.64432 15.75 6C15.75 4.20507 14.2949 2.75 12.5 2.75C11.3108 2.75 10.2709 3.38866 9.70433 4.34168C9.23578 3.97117 8.64372 3.75 8 3.75C6.48122 3.75 5.25 4.98122 5.25 6.5C5.25 6.95011 5.35814 7.37497 5.54985 7.75H4.75C3.50736 7.75 2.5 8.75736 2.5 10V18C2.5 19.2426 3.50736 20.25 4.75 20.25H16.25C16.4053 20.25 16.557 20.2343 16.7035 20.2043C17.7287 19.9945 18.5 19.0873 18.5 18V10C18.5 8.75736 17.4926 7.75 16.25 7.75H15.2391ZM12.5 4.25C13.4665 4.25 14.25 5.0335 14.25 6C14.25 6.9665 13.4665 7.75 12.5 7.75C11.5335 7.75 10.75 6.9665 10.75 6C10.75 5.0335 11.5335 4.25 12.5 4.25ZM8 5.25C8.69036 5.25 9.25 5.80964 9.25 6.5C9.25 7.19036 8.69036 7.75 8 7.75C7.30964 7.75 6.75 7.19036 6.75 6.5C6.75 5.80964 7.30964 5.25 8 5.25Z" fill="#323544"/>
<path opacity="0.4" d="M19.4844 9.68362C19.4944 9.78752 19.4995 9.89286 19.4995 9.99939V17.9994C19.4995 18.1059 19.4944 18.2113 19.4844 18.3152L20.5659 19.0218C21.3973 19.5649 22.4995 18.9684 22.4995 17.9753V10.0236C22.4995 9.03045 21.3973 8.43392 20.5659 8.97708L19.4844 9.68362Z" fill="#323544"/>
</svg>
