<svg width="24" height="25" viewBox="0 0 24 25" fill="none" xmlns="http://www.w3.org/2000/svg">
<path opacity="0.4" d="M5.5 3.75C4.25736 3.75 3.25 4.75736 3.25 6V19C3.25 20.2426 4.25736 21.25 5.5 21.25H18.5C19.7426 21.25 20.75 20.2426 20.75 19V6C20.75 4.75736 19.7426 3.75 18.5 3.75H5.5ZM6.20103 14.1808C7.10463 12.9977 8.88749 13.0025 9.78466 14.1905L11.0002 15.8001C11.3508 16.2643 12.0734 16.1701 12.2931 15.6315L14.2708 10.7852C14.9381 9.15008 17.1428 8.8859 18.1774 10.317L18.9656 11.4072C19.1505 11.6629 19.25 11.9705 19.25 12.286V14.3608V19C19.25 19.4142 18.9142 19.75 18.5 19.75H5.5C5.08579 19.75 4.75 19.4142 4.75 19V18.5031V16.588C4.75 16.2589 4.85819 15.939 5.05792 15.6775L6.20103 14.1808ZM7.01953 9.05957C7.01953 8.16211 7.74707 7.43457 8.64453 7.43457H8.65453C9.55199 7.43457 10.2795 8.16211 10.2795 9.05957C10.2795 9.95703 9.55199 10.6846 8.65453 10.6846H8.64453C7.74707 10.6846 7.01953 9.95703 7.01953 9.05957Z" fill="#323544"/>
<path d="M4.75 16.587C4.75 16.2579 4.85819 15.938 5.05792 15.6765L6.20103 14.1798C7.10463 12.9967 8.88749 13.0016 9.78466 14.1896L11.0002 15.7992C11.3508 16.2633 12.0734 16.1691 12.2931 15.6305L14.2708 10.7842C14.9381 9.1491 17.1428 8.88492 18.1774 10.3161L18.9656 11.4062C19.1505 11.662 19.25 11.9695 19.25 12.2851V14.3599V18.999C19.25 19.4132 18.9142 19.749 18.5 19.749H5.5C5.08579 19.749 4.75 19.4132 4.75 18.999V18.5021V16.587Z" fill="#323544"/>
<path d="M8.64453 7.43359C7.74707 7.43359 7.01953 8.16113 7.01953 9.05859C7.01953 9.95606 7.74707 10.6836 8.64453 10.6836H8.65453C9.55199 10.6836 10.2795 9.95606 10.2795 9.05859C10.2795 8.16113 9.55199 7.43359 8.65453 7.43359H8.64453Z" fill="#323544"/>
</svg>
