<svg width="25" height="25" viewBox="0 0 25 25" fill="none" xmlns="http://www.w3.org/2000/svg">
<path d="M7.75 14.9585C7.20497 14.6636 6.55664 14.5 5.875 14.5C5.00075 14.5 4.18131 14.7691 3.56431 15.2392C2.9467 15.7098 2.5 16.4138 2.5 17.25C2.5 18.0862 2.9467 18.7902 3.56431 19.2608C4.18131 19.7309 5.00075 20 5.875 20C6.74925 20 7.56869 19.7309 8.18569 19.2608C8.79111 18.7995 9.2323 18.1139 9.24948 17.2993C9.24983 17.29 9.24948 17.2101 9.24948 17.2007C9.2323 16.3861 8.79111 15.7005 8.18569 15.2392C8.05072 15.1364 7.90606 15.0432 7.75327 14.9603L7.75 14.9585Z" fill="#323544"/>
<path d="M19.75 12.7085C19.205 12.4136 18.5566 12.25 17.875 12.25C17.0008 12.25 16.1813 12.5191 15.5643 12.9892C14.9467 13.4598 14.5 14.1638 14.5 15C14.5 15.8362 14.9467 16.5402 15.5643 17.0108C16.1813 17.4809 17.0008 17.75 17.875 17.75C18.7492 17.75 19.5687 17.4809 20.1857 17.0108C20.7911 16.5495 21.2323 15.8639 21.2495 15.0493C21.2498 15.04 21.2495 14.9601 21.2495 14.9507C21.2323 14.1361 20.7911 13.4505 20.1857 12.9892C20.0507 12.8864 19.9061 12.7932 19.7533 12.7103L19.75 12.7085Z" fill="#323544"/>
<path opacity="0.4" d="M20.3613 3.7628C20.5805 3.72171 20.8069 3.78068 20.9785 3.92296C21.1502 4.06542 21.25 4.27704 21.25 4.50011V15.0216C21.25 15.031 21.2494 15.0406 21.249 15.0499C21.2494 15.0407 21.249 14.9624 21.249 14.9513C21.2318 14.1367 20.791 13.4506 20.1855 12.9894C20.0506 12.8866 19.9057 12.7929 19.7529 12.7101L19.75 12.7091V9.10948L9.25 11.1202L9.24902 17.2013C9.23185 16.3867 8.79097 15.7006 8.18555 15.2394C8.05061 15.1366 7.90568 15.0429 7.75293 14.9601L7.75 14.9591V6.75011C7.75006 6.38938 8.00684 6.07946 8.36133 6.0128L20.3613 3.7628Z" fill="#323544"/>
</svg>
