<svg width="25" height="25" viewBox="0 0 25 25" fill="none" xmlns="http://www.w3.org/2000/svg">
<path d="M7 3.75C5.75736 3.75 4.75 4.75736 4.75 6V18.9999C4.75 20.2426 5.75736 21.25 7 21.25H8.75C9.99264 21.25 11 20.2426 11 18.9999V6C11 4.75736 9.99264 3.75 8.75 3.75H7Z" fill="#323544"/>
<path opacity="0.4" d="M16.25 3.75C15.0074 3.75 14 4.75736 14 6V18.9999C14 20.2426 15.0074 21.25 16.25 21.25H18C19.2426 21.25 20.25 20.2426 20.25 18.9999V6C20.25 4.75736 19.2426 3.75 18 3.75H16.25Z" fill="#323544"/>
</svg>
