<svg width="25" height="25" viewBox="0 0 25 25" fill="none" xmlns="http://www.w3.org/2000/svg">
<path d="M5.99984 8C4.75728 8.00008 3.75 9.00741 3.75 10.25V17.9692L10.9184 14.2532C11.7618 13.816 12.7889 13.9556 13.485 14.602L17.2498 18.098V10.25C17.2498 9.00736 16.2425 8 14.9998 8H5.99984ZM8.26001 11.25C8.95037 11.25 9.51001 11.8096 9.51001 12.5C9.51001 13.1904 8.95037 13.75 8.26001 13.75C7.56966 13.75 7.01 13.1904 7.01 12.5C7.01 11.8096 7.56966 11.25 8.26001 11.25Z" fill="#323544"/>
<path d="M3.78388 19.6411C3.96902 20.6973 4.89077 21.5 6 21.5H15C15.9723 21.5 16.8005 20.8833 17.1149 20.0197L12.4643 15.7011C12.2322 15.4857 11.8899 15.4391 11.6088 15.5849L3.78388 19.6411Z" fill="#323544"/>
<path opacity="0.4" d="M7.75 6.25C7.75 5.00736 8.75736 4 10 4H19C20.2426 4 21.25 5.00736 21.25 6.25V15.25C21.25 16.4926 20.2426 17.5 19 17.5H18.2498V10.25C18.2498 8.45508 16.7948 7 14.9998 7H7.75V6.25Z" fill="#323544"/>
</svg>
