<svg width="25" height="25" viewBox="0 0 25 25" fill="none" xmlns="http://www.w3.org/2000/svg">
<path opacity="0.4" d="M19.4357 14.4174C20.8659 13.5392 20.8659 11.4608 19.4357 10.5826L9.55234 4.51389C8.05317 3.59335 6.125 4.67205 6.125 6.43128L6.125 18.5688C6.125 20.328 8.05317 21.4067 9.55234 20.4861L19.4357 14.4174Z" fill="#323544"/>
<path fill-rule="evenodd" clip-rule="evenodd" d="M19.4357 14.4174C20.8659 13.5392 20.8659 11.4608 19.4357 10.5826L9.55234 4.51389C8.05317 3.59335 6.125 4.67205 6.125 6.43128L6.125 18.5688C6.125 20.328 8.05317 21.4067 9.55234 20.4861L19.4357 14.4174ZM18.6508 11.8609C19.1276 12.1536 19.1276 12.8464 18.6508 13.1391L8.76745 19.2079C8.26772 19.5147 7.625 19.1552 7.625 18.5688L7.625 6.43128C7.625 5.84487 8.26772 5.4853 8.76745 5.79215L18.6508 11.8609Z" fill="#323544"/>
</svg>
