<svg width="25" height="25" viewBox="0 0 25 25" fill="none" xmlns="http://www.w3.org/2000/svg">
<path fill-rule="evenodd" clip-rule="evenodd" d="M20.0305 4.21969C19.816 4.0052 19.4935 3.94103 19.2132 4.05711C18.933 4.17318 18.7502 4.44665 18.7502 4.74999L18.7501 6.24999L18.7501 7.74999L18.75 9.24999C18.75 9.55334 18.9327 9.82683 19.213 9.94293C19.4932 10.059 19.8158 9.99485 20.0303 9.78035L22.2804 7.53025C22.5733 7.23735 22.5733 6.76248 22.2804 6.46959L20.0305 4.21969ZM18.7501 17.25L18.7501 18.75L18.75 20.25C18.75 20.5533 18.9327 20.8268 19.213 20.9429C19.4932 21.059 19.8158 20.9949 20.0303 20.7803L22.2804 18.5302C22.5733 18.2374 22.5733 17.7625 22.2804 17.4696L20.0305 15.2197C19.816 15.0052 19.4935 14.941 19.2132 15.0571C18.933 15.1732 18.7502 15.4466 18.7502 15.75L18.7501 17.25Z" fill="#323544"/>
<path opacity="0.4" d="M16.6189 8.00982C16.7614 7.84486 16.9686 7.75004 17.1865 7.75004L18.7501 7.75L18.7501 6.25L17.1865 6.25004C16.5326 6.25004 15.9111 6.53451 15.4837 7.02939L11.75 11.3526L8.01634 7.02939C7.58894 6.53451 6.96738 6.25004 6.31349 6.25004H3.25C2.83579 6.25004 2.5 6.58582 2.5 7.00004C2.5 7.41425 2.83579 7.75004 3.25 7.75004H6.31349C6.53145 7.75004 6.73864 7.84486 6.8811 8.00982L10.759 12.5L6.8811 16.9903C6.73864 17.1552 6.53145 17.25 6.31349 17.25H3.25C2.83579 17.25 2.5 17.5858 2.5 18C2.5 18.4142 2.83579 18.75 3.25 18.75H6.31349C6.96738 18.75 7.58894 18.4656 8.01634 17.9707L11.75 13.6475L15.4837 17.9707C15.9111 18.4656 16.5326 18.75 17.1865 18.75L18.7501 18.75L18.7501 17.25L17.1865 17.25C16.9685 17.25 16.7614 17.1552 16.6189 16.9902L12.741 12.5L16.6189 8.00982Z" fill="#323544"/>
</svg>
