<svg width="25" height="25" viewBox="0 0 25 25" fill="none" xmlns="http://www.w3.org/2000/svg">
<path opacity="0.4" d="M10.0052 4.78367C11.4562 3.49387 13.75 4.52392 13.75 6.46534V17.7848C13.75 19.7262 11.4562 20.7563 10.0052 19.4665L6.80862 16.6251H4.75C3.50736 16.6251 2.5 15.6177 2.5 14.3751V9.87509C2.5 8.63245 3.50736 7.62509 4.75 7.62509H6.80858L10.0052 4.78367Z" fill="#323544"/>
<path d="M17.0768 15.2899C18.6384 13.5508 18.6384 10.7011 17.0768 8.96203C16.8001 8.65382 16.8256 8.17964 17.1338 7.9029C17.442 7.62616 17.9162 7.65166 18.1929 7.95986C20.2664 10.269 20.2664 13.9829 18.1929 16.292C17.9162 16.6002 17.442 16.6257 17.1338 16.349C16.8256 16.0723 16.8001 15.5981 17.0768 15.2899Z" fill="#323544"/>
<path d="M14.9853 10.7788C15.6728 11.5434 15.6728 12.7086 14.9853 13.4731C14.7083 13.7811 14.7335 14.2553 15.0415 14.5323C15.3495 14.8092 15.8237 14.7841 16.1006 14.4761C17.301 13.1412 17.301 11.1107 16.1006 9.77585C15.8237 9.46786 15.3495 9.44271 15.0415 9.71968C14.7335 9.99665 14.7083 10.4709 14.9853 10.7788Z" fill="#323544"/>
</svg>
