<svg width="25" height="25" viewBox="0 0 25 25" fill="none" xmlns="http://www.w3.org/2000/svg">
<path opacity="0.4" d="M13.75 6.46534C13.75 4.52392 11.4562 3.49387 10.0052 4.78367L6.80858 7.62509H4.75C3.50736 7.62509 2.5 8.63245 2.5 9.87509V14.3751C2.5 15.6177 3.50736 16.6251 4.75 16.6251H6.80862L10.0052 19.4665C11.4562 20.7563 13.75 19.7262 13.75 17.7848V6.46534Z" fill="#323544"/>
<path d="M14.9853 10.7788C15.6728 11.5434 15.6728 12.7086 14.9853 13.4731C14.7083 13.7811 14.7335 14.2553 15.0415 14.5323C15.3495 14.8092 15.8237 14.7841 16.1006 14.4761C17.301 13.1412 17.301 11.1107 16.1006 9.77585C15.8237 9.46786 15.3495 9.44271 15.0415 9.71968C14.7335 9.99665 14.7083 10.4709 14.9853 10.7788Z" fill="#323544"/>
</svg>
