<svg width="25" height="25" viewBox="0 0 25 25" fill="none" xmlns="http://www.w3.org/2000/svg">
<path opacity="0.4" d="M10.0052 4.78367C11.4562 3.49387 13.75 4.52392 13.75 6.46534V17.7848C13.75 19.7262 11.4562 20.7563 10.0052 19.4665L6.80862 16.6251H4.75C3.50736 16.6251 2.5 15.6177 2.5 14.3751V9.87509C2.5 8.63245 3.50736 7.62509 4.75 7.62509H6.80858L10.0052 4.78367Z" fill="#323544"/>
<path d="M10.0052 4.78367C11.4562 3.49387 13.75 4.52392 13.75 6.46534V17.7848C13.75 19.7262 11.4562 20.7563 10.0052 19.4665L6.80862 16.6251H4.75C3.50736 16.6251 2.5 15.6177 2.5 14.3751V9.87509C2.5 8.63245 3.50736 7.62509 4.75 7.62509H6.80858L10.0052 4.78367ZM12.25 6.46534C12.25 5.8182 11.4854 5.47485 11.0017 5.90478L7.592 8.93564C7.45472 9.05768 7.27742 9.12509 7.09373 9.12509H4.75C4.33579 9.12509 4 9.46087 4 9.87509V14.3751C4 14.7893 4.33579 15.1251 4.75 15.1251H7.09377C7.27745 15.1251 7.45475 15.1925 7.59204 15.3145L11.0017 18.3454C11.4854 18.7753 12.25 18.4319 12.25 17.7848V6.46534Z" fill="#323544"/>
</svg>
