<svg width="25" height="25" viewBox="0 0 25 25" fill="none" xmlns="http://www.w3.org/2000/svg">
<path opacity="0.4" d="M13.75 6.46534C13.75 4.52392 11.4562 3.49387 10.0052 4.78367L6.80858 7.62509H4.75C3.50736 7.62509 2.5 8.63245 2.5 9.87509V14.3751C2.5 15.6177 3.50736 16.6251 4.75 16.6251H6.80862L10.0052 19.4665C11.4562 20.7563 13.75 19.7262 13.75 17.7848V6.46534Z" fill="#323544"/>
<path d="M17.0768 8.96105C18.6384 10.7001 18.6384 13.5498 17.0768 15.2889C16.8001 15.5971 16.8256 16.0713 17.1338 16.348C17.442 16.6248 17.9162 16.5993 18.1929 16.2911C20.2664 13.9819 20.2664 10.268 18.1929 7.95889C17.9162 7.65069 17.442 7.62519 17.1338 7.90193C16.8256 8.17866 16.8001 8.65285 17.0768 8.96105Z" fill="#323544"/>
<path d="M19.2657 17.0108C21.5781 14.3235 21.5781 9.92649 19.2657 7.23919C18.9956 6.92522 19.0311 6.45167 19.3451 6.1815C19.659 5.91134 20.1326 5.94685 20.4027 6.26083C23.199 9.51059 23.199 14.7394 20.4027 17.9892C20.1326 18.3032 19.659 18.3387 19.3451 18.0685C19.0311 17.7984 18.9956 17.3248 19.2657 17.0108Z" fill="#323544"/>
<path d="M14.9853 10.7779C15.6728 11.5424 15.6728 12.7076 14.9853 13.4721C14.7083 13.7801 14.7335 14.2543 15.0415 14.5313C15.3495 14.8083 15.8237 14.7831 16.1006 14.4751C17.301 13.1403 17.301 11.1097 16.1006 9.77488C15.8237 9.46689 15.3495 9.44174 15.0415 9.71871C14.7335 9.99568 14.7083 10.4699 14.9853 10.7779Z" fill="#323544"/>
</svg>
