<svg width="25" height="25" viewBox="0 0 25 25" fill="none" xmlns="http://www.w3.org/2000/svg">
<path d="M3.78082 2.34467C3.48792 2.05178 3.01305 2.05178 2.72016 2.34467C2.42726 2.63756 2.42726 3.11244 2.72016 3.40533L6.87798 7.56315L6.80858 7.62484H4.75C3.50736 7.62484 2.5 8.6322 2.5 9.87484V14.3748C2.5 15.6175 3.50736 16.6248 4.75 16.6248H6.80862L10.0052 19.4662C11.4562 20.756 13.75 19.726 13.75 17.7846V14.4352L21.2192 21.9044C21.5121 22.1972 21.9869 22.1972 22.2798 21.9044C22.5727 21.6115 22.5727 21.1366 22.2798 20.8437L3.78082 2.34467Z" fill="#323544"/>
<g opacity="0.4">
<path d="M15.4988 12.0356L16.79 13.3268C17.2209 12.1387 16.9911 10.7654 16.1005 9.77499C15.8235 9.467 15.3493 9.44185 15.0413 9.71882C14.7333 9.99579 14.7082 10.47 14.9851 10.778C15.3076 11.1366 15.4788 11.5834 15.4988 12.0356Z" fill="#323544"/>
<path d="M17.7517 14.2885L18.8563 15.3931C20.2356 13.101 20.0145 9.98782 18.1928 7.959C17.916 7.6508 17.4418 7.6253 17.1336 7.90204C16.8254 8.17878 16.7999 8.65296 17.0767 8.96117C18.3656 10.3967 18.5907 12.5888 17.7517 14.2885Z" fill="#323544"/>
<path d="M13.7498 10.2866L12.2498 8.78659L10.1367 6.6735L9.07422 5.61101L10.005 4.78367C11.456 3.49387 13.7498 4.52392 13.7498 6.46534V10.2866Z" fill="#323544"/>
</g>
</svg>
