<svg width="25" height="24" viewBox="0 0 25 24" fill="none" xmlns="http://www.w3.org/2000/svg">
<path d="M4.8125 4.25C4.8125 3.42157 5.48407 2.75 6.3125 2.75H17.5625C18.3909 2.75 19.0625 3.42157 19.0625 4.25V5.61053C19.0625 6.26854 18.8462 6.9083 18.4468 7.43127L14.1203 13.0969C13.9207 13.3583 13.8125 13.6782 13.8125 14.0072V20.2455C13.8125 21.0228 12.9645 21.5029 12.298 21.103L10.7908 20.1987C10.3389 19.9276 10.0625 19.4393 10.0625 18.9124V14.0072C10.0625 13.6782 9.95433 13.3583 9.75465 13.0969L5.4282 7.43127C5.02884 6.9083 4.8125 6.26854 4.8125 5.61053V4.25Z" stroke="#323544" stroke-width="1.5" stroke-linecap="round" stroke-linejoin="round"/>
</svg>
