<svg width="24" height="24" viewBox="0 0 24 24" fill="none" xmlns="http://www.w3.org/2000/svg">
<path d="M6.00338 10.5017C6.83084 10.5017 7.50163 11.1725 7.50163 12C7.50163 12.8274 6.83084 13.4982 6.00338 13.4982C5.17592 13.4982 4.50513 12.8274 4.50513 12C4.50513 11.1725 5.17592 10.5017 6.00338 10.5017Z" stroke="#323544" stroke-width="1.5" stroke-linecap="round" stroke-linejoin="round"/>
<path d="M12 10.5017C12.8274 10.5017 13.4982 11.1725 13.4982 12C13.4982 12.8274 12.8274 13.4982 12 13.4982C11.1725 13.4982 10.5017 12.8274 10.5017 12C10.5017 11.1725 11.1725 10.5017 12 10.5017Z" stroke="#323544" stroke-width="1.5" stroke-linecap="round" stroke-linejoin="round"/>
<path d="M17.9965 10.5017C18.824 10.5017 19.4948 11.1725 19.4948 12C19.4948 12.8274 18.824 13.4982 17.9965 13.4982C17.1691 13.4982 16.4983 12.8274 16.4983 12C16.4983 11.1725 17.1691 10.5017 17.9965 10.5017Z" stroke="#323544" stroke-width="1.5" stroke-linecap="round" stroke-linejoin="round"/>
</svg>
