<svg width="24" height="24" viewBox="0 0 24 24" fill="none" xmlns="http://www.w3.org/2000/svg">
<path d="M3.54727 9.73562C4.04577 7.87521 5.14421 6.23127 6.67225 5.05877C8.20028 3.88627 10.0725 3.25073 11.9985 3.25073C13.9246 3.25073 15.7968 3.88627 17.3248 5.05877C18.8529 6.23127 19.9513 7.87521 20.4498 9.73562C20.5515 10.115 20.6163 10.381 20.6551 10.5642M20.4525 14.2639C19.954 16.1243 18.8556 17.7682 17.3276 18.9407C15.7995 20.1132 13.9273 20.7488 12.0013 20.7488C10.0752 20.7488 8.20299 20.1132 6.67496 18.9407C5.14693 17.7682 4.04848 16.1243 3.54999 14.2639C3.4463 13.8769 3.38051 13.6079 3.34134 13.4244M17.4804 8.99641L20.5611 10.7311L20.6551 10.5642M22.2957 7.65009L20.6551 10.5642M6.50967 15.0035L3.42896 13.2688L3.34134 13.4244M1.69434 16.3498L3.34134 13.4244" stroke="#323544" stroke-width="1.5" stroke-linecap="round" stroke-linejoin="round"/>
</svg>
