<svg width="25" height="25" viewBox="0 0 25 25" fill="none" xmlns="http://www.w3.org/2000/svg">
<path d="M12.9596 11.7569L7.40436 3.82359M12.9596 11.7569L9.79394 16.2779M12.9596 11.7569L16.1374 16.2951M14.7165 9.24768L18.5508 3.77173M9.79394 16.2779C10.507 16.6969 10.9856 17.4719 10.9856 18.3587C10.9856 19.6907 9.90584 20.7705 8.57387 20.7705C7.98937 20.7705 7.45344 20.5626 7.036 20.2166C6.50216 19.7743 6.16211 19.1062 6.16211 18.3587C6.16211 17.0268 7.24189 15.947 8.57387 15.947C9.01902 15.947 9.43601 16.0676 9.79394 16.2779ZM16.1374 16.2951C15.4404 16.7179 14.9746 17.4839 14.9746 18.3587C14.9746 19.6907 16.0544 20.7705 17.3864 20.7705C17.9588 20.7705 18.4847 20.571 18.8983 20.2378C19.447 19.7958 19.7981 19.1182 19.7981 18.3587C19.7981 17.0268 18.7183 15.947 17.3864 15.947C16.9292 15.947 16.5017 16.0742 16.1374 16.2951Z" stroke="#323544" stroke-width="1.5" stroke-linecap="round" stroke-linejoin="round"/>
</svg>
