<svg width="25" height="24" viewBox="0 0 25 24" fill="none" xmlns="http://www.w3.org/2000/svg">
<path d="M9.56054 15H7.3125M9.56054 15L9.56055 13M9.56054 15L9.56054 17M13.5623 6.99997L13.5623 8.99997M13.5623 8.99997L13.5623 11M13.5623 8.99997L7.31231 9.00046M16.5623 9.00046H17.3123M17.3125 15H12.5584M18.8125 19.9995H5.8125C4.98407 19.9995 4.3125 19.3279 4.3125 18.4995V5.5C4.3125 4.67157 4.98407 4 5.8125 4H18.8125C19.6409 4 20.3125 4.67157 20.3125 5.5L20.3125 18.4995C20.3125 19.3279 19.6409 19.9995 18.8125 19.9995Z" stroke="#323544" stroke-width="1.5" stroke-linecap="round" stroke-linejoin="round"/>
</svg>
