<svg width="24" height="24" viewBox="0 0 24 24" fill="none" xmlns="http://www.w3.org/2000/svg">
<path opacity="0.4" d="M4.5 4.25C4.5 3.00736 5.50736 2 6.75 2H17.25C18.4926 2 19.5 3.00736 19.5 4.25V19.75C19.5 20.9926 18.4926 22 17.25 22H6.75C5.50736 22 4.5 20.9926 4.5 19.75V4.25ZM6.75 3.5C6.33579 3.5 6 3.83579 6 4.25V7.25H18V4.25C18 3.83579 17.6642 3.5 17.25 3.5H6.75ZM6 19.75C6 20.1642 6.33579 20.5 6.75 20.5H17.25C17.6642 20.5 18 20.1642 18 19.75V8.75H6V19.75Z" fill="#323544"/>
<path d="M13.7094 17.6088C13.4332 17.6088 13.2094 17.8326 13.2094 18.1088C13.2094 18.3849 13.4332 18.6088 13.7094 18.6088H16.2907C16.5669 18.6088 16.7907 18.3849 16.7907 18.1088C16.7907 17.8326 16.5669 17.6088 16.2907 17.6088H13.7094Z" fill="#323544"/>
<path d="M13.2094 16.6436C13.2094 16.3675 13.4332 16.1436 13.7094 16.1436H16.2907C16.5669 16.1436 16.7907 16.3675 16.7907 16.6436C16.7907 16.9198 16.5669 17.1436 16.2907 17.1436H13.7094C13.4332 17.1436 13.2094 16.9198 13.2094 16.6436Z" fill="#323544"/>
<path d="M13.6392 10.5155C13.444 10.7108 13.444 11.0274 13.6392 11.2226L14.2928 11.8762L13.6392 12.5297C13.444 12.7249 13.444 13.0415 13.6392 13.2368C13.8345 13.4321 14.1511 13.4321 14.3463 13.2368L14.9999 12.5833L15.6534 13.2368C15.8486 13.432 16.1652 13.432 16.3605 13.2368C16.5557 13.0415 16.5557 12.7249 16.3605 12.5297L15.707 11.8762L16.3605 11.2227C16.5557 11.0274 16.5557 10.7108 16.3605 10.5155C16.1652 10.3203 15.8486 10.3203 15.6534 10.5155L14.9999 11.1691L14.3463 10.5155C14.1511 10.3203 13.8345 10.3203 13.6392 10.5155Z" fill="#323544"/>
<path d="M7.20935 17.3762C7.20935 17.1 7.43321 16.8762 7.70935 16.8762H10.2907C10.5669 16.8762 10.7907 17.1 10.7907 17.3762C10.7907 17.6523 10.5669 17.8762 10.2907 17.8762H7.70935C7.43321 17.8762 7.20935 17.6523 7.20935 17.3762Z" fill="#323544"/>
<path d="M8.99993 10.0859C8.72379 10.0859 8.49993 10.3098 8.49993 10.5859V11.3761H7.70976C7.43361 11.3761 7.20976 11.6 7.20976 11.8761C7.20976 12.1523 7.43361 12.3761 7.70976 12.3761H8.49993V13.1665C8.49993 13.4426 8.72379 13.6665 8.99993 13.6665C9.27607 13.6665 9.49993 13.4426 9.49993 13.1665V12.3761H10.2903C10.5664 12.3761 10.7903 12.1523 10.7903 11.8761C10.7903 11.6 10.5664 11.3761 10.2903 11.3761H9.49993V10.5859C9.49993 10.3098 9.27607 10.0859 8.99993 10.0859Z" fill="#323544"/>
</svg>
