<svg width="24" height="24" viewBox="0 0 24 24" fill="none" xmlns="http://www.w3.org/2000/svg">
<path d="M11.2989 4.70792C13.5204 2.70087 16.9498 2.76734 19.0909 4.90812C21.3011 7.11827 21.3011 10.7019 19.0909 12.912C17.7758 14.2272 15.9741 14.7589 14.2677 14.5097C14.1479 14.4922 14.0348 14.446 13.9376 14.3759L13.8458 14.2987L9.70125 10.1542C9.58712 10.0401 9.51271 9.89204 9.48934 9.73234C9.24009 8.02588 9.77182 6.22329 11.087 4.90812L11.2989 4.70792ZM18.0304 5.96964C16.4567 4.39603 13.9356 4.34594 12.3028 5.8212L12.1485 5.96964C11.2433 6.87484 10.8411 8.09253 10.9454 9.27726L14.7227 13.0536C15.9073 13.1578 17.1253 12.7566 18.0304 11.8515C19.6546 10.2272 19.6545 7.59402 18.0304 5.96964Z" fill="#323544"/>
<path opacity="0.4" d="M9.5381 9.90332C9.57564 9.99637 9.62943 10.0825 9.70119 10.1543L10.5615 11.0146L4.93264 17.54C4.67655 17.8374 4.69329 18.282 4.97072 18.5596L5.43947 19.0283L5.5508 19.1211C5.82609 19.3067 6.19976 19.2908 6.45998 19.0664L12.9844 13.4375L13.8457 14.2988L13.9375 14.376C13.9857 14.4107 14.0379 14.4395 14.0928 14.4619L7.43947 20.2021C6.60296 20.9237 5.37754 20.9254 4.54103 20.2363L4.37892 20.0898L3.91017 19.6201C3.0771 18.7869 3.0273 17.4518 3.79689 16.5596L9.5381 9.90332Z" fill="#323544"/>
</svg>
