<svg width="24" height="24" viewBox="0 0 24 24" fill="none" xmlns="http://www.w3.org/2000/svg">
<path d="M7.25 13.75C7.25 13.3358 6.91421 13 6.5 13H5.5C5.08579 13 4.75 13.3358 4.75 13.75V17.25C4.75 17.6642 5.08579 18 5.5 18H6.5C6.91421 18 7.25 17.6642 7.25 17.25V13.75ZM19.25 13.75C19.25 13.3358 18.9142 13 18.5 13H17.5C17.0859 13.0001 16.75 13.3358 16.75 13.75V17.25C16.75 17.6642 17.0859 17.9999 17.5 18H18.5C18.9142 18 19.25 17.6642 19.25 17.25V13.75ZM8.75 17.25C8.75 18.4926 7.74264 19.5 6.5 19.5H5.5C4.25736 19.5 3.25 18.4926 3.25 17.25V13.75C3.25 12.5074 4.25736 11.5 5.5 11.5H6.5C7.74264 11.5 8.75 12.5074 8.75 13.75V17.25ZM20.75 17.25C20.75 18.4926 19.7426 19.5 18.5 19.5H17.5C16.2574 19.4999 15.25 18.4926 15.25 17.25V13.75C15.25 12.5074 16.2574 11.5001 17.5 11.5H18.5C19.7426 11.5 20.75 12.5074 20.75 13.75V17.25Z" fill="#323544"/>
<path opacity="0.4" d="M12 3.25C16.8325 3.25 20.75 7.1675 20.75 12V13.75C20.75 12.767 20.1188 11.9333 19.2402 11.627C19.046 7.79626 15.879 4.75 12 4.75C8.12105 4.75002 4.95295 7.79625 4.75879 11.627C3.88063 11.9335 3.25 12.7673 3.25 13.75V12C3.25002 7.16752 7.16752 3.25002 12 3.25Z" fill="#323544"/>
</svg>
