<svg width="24" height="24" viewBox="0 0 24 24" fill="none" xmlns="http://www.w3.org/2000/svg">
<path opacity="0.4" d="M4.25 4.86719C3.00736 4.86719 2 5.87455 2 7.11719V17.6172C2 18.8598 3.00736 19.8672 4.25 19.8672H19.7501C20.9927 19.8672 22.0001 18.8598 22.0001 17.6172V7.11719C22.0001 5.87455 20.9927 4.86719 19.7501 4.86719H4.25ZM3.5 7.11719C3.5 6.70297 3.83579 6.36719 4.25 6.36719H19.7501C20.1643 6.36719 20.5001 6.70297 20.5001 7.11719V17.6172C20.5001 18.0314 20.1643 18.3672 19.7501 18.3672H4.25C3.83579 18.3672 3.5 18.0314 3.5 17.6172V7.11719Z" fill="#323544"/>
<path d="M6.44136 8.19238C5.99953 8.19238 5.64136 8.55055 5.64136 8.99238C5.64136 9.43421 5.99953 9.79238 6.44136 9.79238H6.45136C6.89319 9.79238 7.25136 9.43421 7.25136 8.99238C7.25136 8.55055 6.89319 8.19238 6.45136 8.19238H6.44136Z" fill="#323544"/>
<path d="M5.6394 12.3674C5.6394 11.9256 5.99758 11.5674 6.4394 11.5674H6.4494C6.89123 11.5674 7.2494 11.9256 7.2494 12.3674C7.2494 12.8092 6.89123 13.1674 6.4494 13.1674H6.4394C5.99758 13.1674 5.6394 12.8092 5.6394 12.3674Z" fill="#323544"/>
<path d="M10.1445 8.19238C9.70265 8.19238 9.34448 8.55055 9.34448 8.99238C9.34448 9.43421 9.70265 9.79238 10.1445 9.79238H10.1545C10.5963 9.79238 10.9545 9.43421 10.9545 8.99238C10.9545 8.55055 10.5963 8.19238 10.1545 8.19238H10.1445Z" fill="#323544"/>
<path d="M9.35815 12.3674C9.35815 11.9256 9.71633 11.5674 10.1582 11.5674H10.1682C10.61 11.5674 10.9682 11.9256 10.9682 12.3674C10.9682 12.8092 10.61 13.1674 10.1682 13.1674H10.1582C9.71633 13.1674 9.35815 12.8092 9.35815 12.3674Z" fill="#323544"/>
<path d="M7.99995 14.9924C7.58574 14.9924 7.24995 15.3282 7.24995 15.7424C7.24995 16.1566 7.58574 16.4924 7.99995 16.4924H16C16.4142 16.4924 16.75 16.1566 16.75 15.7424C16.75 15.3282 16.4142 14.9924 16 14.9924H7.99995Z" fill="#323544"/>
<path d="M13.0457 8.99238C13.0457 8.55055 13.4038 8.19238 13.8457 8.19238H13.8557C14.2975 8.19238 14.6557 8.55055 14.6557 8.99238C14.6557 9.43421 14.2975 9.79238 13.8557 9.79238H13.8457C13.4038 9.79238 13.0457 9.43421 13.0457 8.99238Z" fill="#323544"/>
<path d="M17.5478 8.19238C17.106 8.19238 16.7478 8.55055 16.7478 8.99238C16.7478 9.43421 17.106 9.79238 17.5478 9.79238H17.5578C17.9996 9.79238 18.3578 9.43421 18.3578 8.99238C18.3578 8.55055 17.9996 8.19238 17.5578 8.19238H17.5478Z" fill="#323544"/>
<path d="M13.0369 12.3674C13.0369 11.9256 13.395 11.5674 13.8369 11.5674H13.8469C14.2887 11.5674 14.6469 11.9256 14.6469 12.3674C14.6469 12.8092 14.2887 13.1674 13.8469 13.1674H13.8369C13.395 13.1674 13.0369 12.8092 13.0369 12.3674Z" fill="#323544"/>
<path d="M17.5556 11.5674C17.1138 11.5674 16.7556 11.9256 16.7556 12.3674C16.7556 12.8092 17.1138 13.1674 17.5556 13.1674H17.5656C18.0074 13.1674 18.3656 12.8092 18.3656 12.3674C18.3656 11.9256 18.0074 11.5674 17.5656 11.5674H17.5556Z" fill="#323544"/>
</svg>
