<svg width="24" height="24" viewBox="0 0 24 24" fill="none" xmlns="http://www.w3.org/2000/svg">
<path d="M4.25 3.45117C3.00736 3.45117 2 4.45853 2 5.70117V15.2868C2 16.5294 3.00736 17.5368 4.25 17.5368H19.75C20.9926 17.5368 22 16.5294 22 15.2868V12.7102L22.0001 12.7012L22 12.6921V5.70117C22 4.45853 20.9926 3.45117 19.75 3.45117H4.25ZM20.5 15.2868C20.5 15.701 20.1642 16.0368 19.75 16.0368H4.25C3.83579 16.0368 3.5 15.701 3.5 15.2868V13.4512H20.5V15.2868ZM19.75 4.95117C20.1642 4.95117 20.5 5.28696 20.5 5.70117V11.9512H3.5V5.70117C3.5 5.28696 3.83579 4.95117 4.25 4.95117H19.75Z" fill="#323544"/>
<path opacity="0.4" d="M14.25 19.0492V17.5371H12.75V19.0492H11.25V17.5371H9.75V19.0492H8.75C8.33579 19.0492 8 19.385 8 19.7992C8 20.2134 8.33579 20.5492 8.75 20.5492H15.25C15.6642 20.5492 16 20.2134 16 19.7992C16 19.385 15.6642 19.0492 15.25 19.0492H14.25Z" fill="#323544"/>
</svg>
