<svg width="24" height="24" viewBox="0 0 24 24" fill="none" xmlns="http://www.w3.org/2000/svg">
<path d="M4.25 4.17188C3.00736 4.17188 2 5.17923 2 6.42187V13.8281C2 15.0708 3.00736 16.0781 4.25 16.0781H11.25H12.75H19.75C20.9926 16.0781 22 15.0708 22 13.8281V6.42188C22 5.17923 20.9926 4.17188 19.75 4.17188H4.25ZM3.5 6.42187C3.5 6.00766 3.83579 5.67188 4.25 5.67188H19.75C20.1642 5.67188 20.5 6.00766 20.5 6.42188V13.8281C20.5 14.2423 20.1642 14.5781 19.75 14.5781H4.25C3.83579 14.5781 3.5 14.2423 3.5 13.8281V6.42187Z" fill="#323544"/>
<path opacity="0.4" d="M12.75 18.3281V16.0781H11.25V18.3281H9C8.58579 18.3281 8.25 18.6639 8.25 19.0781C8.25 19.4923 8.58579 19.8281 9 19.8281H15C15.4142 19.8281 15.75 19.4923 15.75 19.0781C15.75 18.6639 15.4142 18.3281 15 18.3281H12.75Z" fill="#323544"/>
</svg>
