<svg width="24" height="24" viewBox="0 0 24 24" fill="none" xmlns="http://www.w3.org/2000/svg">
<path opacity="0.4" d="M22 15.3438V11.662C21.5725 12.1973 21.0667 12.6673 20.5 13.0547V15.3438C20.5 15.758 20.1642 16.0938 19.75 16.0938H4.25C3.83579 16.0938 3.5 15.758 3.5 15.3438V6.75C3.5 6.33579 3.83579 6 4.25 6H9.88753C9.99391 5.47589 10.1599 4.97342 10.3782 4.5H4.25C3.00736 4.5 2 5.50736 2 6.75V15.3438C2 16.5864 3.00736 17.5938 4.25 17.5938H11.25V19.25H9.00003C8.58582 19.25 8.25003 19.5858 8.25003 20C8.25003 20.4142 8.58582 20.75 9.00003 20.75H15C15.4142 20.75 15.75 20.4142 15.75 20C15.75 19.5858 15.4142 19.25 15 19.25H12.75V17.5938H19.75C20.9926 17.5938 22 16.5864 22 15.3438Z" fill="#323544"/>
<path d="M15.0302 4.34255C15.3231 4.63535 15.3233 5.11022 15.0305 5.40321L13.0603 7.37465L15.0305 9.34624C15.3233 9.63924 15.3231 10.1141 15.0301 10.4069C14.7371 10.6997 14.2623 10.6995 13.9695 10.4065L11.4695 7.90478C11.1768 7.61192 11.1768 7.13732 11.4695 6.84448L13.9695 4.34289C14.2623 4.0499 14.7372 4.04975 15.0302 4.34255Z" fill="#323544"/>
<path d="M18.2198 4.34255C17.9269 4.63535 17.9267 5.11022 18.2195 5.40321L20.1897 7.37465L18.2195 9.34624C17.9267 9.63924 17.9269 10.1141 18.2199 10.4069C18.5129 10.6997 18.9877 10.6995 19.2805 10.4065L21.7805 7.90478C22.0732 7.61192 22.0732 7.13732 21.7805 6.84448L19.2805 4.34289C18.9877 4.0499 18.5128 4.04975 18.2198 4.34255Z" fill="#323544"/>
</svg>
