<svg width="24" height="24" viewBox="0 0 24 24" fill="none" xmlns="http://www.w3.org/2000/svg">
<path d="M18 9.5C18 6.18629 15.3137 3.5 12 3.5C8.68633 3.50005 6.00002 6.18632 6 9.5V14.5L6.00781 14.8086C6.16844 17.9789 8.78982 20.5 12 20.5C15.3137 20.5 18 17.8137 18 14.5V9.5ZM19.5 14.5C19.5 18.6421 16.1421 22 12 22C7.98727 22 4.71055 18.8486 4.50977 14.8857L4.5 14.5V9.5C4.50002 5.35789 7.8579 2.00005 12 2C16.1421 2 19.5 5.35786 19.5 9.5V14.5Z" fill="#323544"/>
<path opacity="0.4" d="M12 3.5C12.2541 3.5 12.5042 3.5172 12.75 3.54785V9.5H18V11H6V9.5H11.25V3.54785C11.4958 3.5172 11.7459 3.5 12 3.5Z" fill="#323544"/>
</svg>
