<svg width="24" height="24" viewBox="0 0 24 24" fill="none" xmlns="http://www.w3.org/2000/svg">
<path opacity="0.4" d="M18.1549 6.62162V7.79002H16.6549V6.62162C16.6549 6.41865 16.5726 6.22435 16.4269 6.08309L15.2697 4.96147C15.1298 4.82584 14.9426 4.75 14.7477 4.75H8.09473C7.68051 4.75 7.34473 5.08579 7.34473 5.5V7.79002H5.84473V5.5C5.84473 4.25736 6.85208 3.25 8.09473 3.25H14.7477C15.3323 3.25 15.894 3.47753 16.3137 3.8844L17.4709 5.00602C17.9081 5.42982 18.1549 6.01272 18.1549 6.62162ZM5.84375 16.2085V18.499C5.84375 19.7416 6.85111 20.749 8.09375 20.749H15.9039C17.1465 20.749 18.1539 19.7416 18.1539 18.499V16.2085V14.7085V13.9453C18.1539 13.5311 17.8181 13.1953 17.4039 13.1953H6.59375C6.17954 13.1953 5.84375 13.5311 5.84375 13.9453V14.7085V16.2085ZM16.6539 14.6953V18.499C16.6539 18.9132 16.3181 19.249 15.9039 19.249H8.09375C7.67954 19.249 7.34375 18.9132 7.34375 18.499V14.6953H16.6539Z" fill="#323544"/>
<path d="M16.6549 7.79004H7.34473H5.84473H5.5C4.25736 7.79004 3.25 8.7974 3.25 10.04V13.9585C3.25 15.2012 4.25736 16.2085 5.5 16.2085H5.84375V14.7085H5.5C5.08579 14.7085 4.75 14.3727 4.75 13.9585V10.04C4.75 9.62583 5.08579 9.29004 5.5 9.29004H18.4991C18.9133 9.29004 19.2491 9.62582 19.2491 10.04V13.9585C19.2491 14.3727 18.9133 14.7085 18.4991 14.7085H18.1539V16.2085H18.4991C19.7417 16.2085 20.7491 15.2012 20.7491 13.9585V10.04C20.7491 8.7974 19.7417 7.79004 18.4991 7.79004H18.1549H16.6549Z" fill="#323544"/>
</svg>
