<svg width="24" height="24" viewBox="0 0 24 24" fill="none" xmlns="http://www.w3.org/2000/svg">
<path opacity="0.4" d="M12 2C7.85786 2 4.5 5.35786 4.5 9.5V14.5C4.5 18.6421 7.85786 22 12 22C16.1421 22 19.5 18.6421 19.5 14.5V9.5C19.5 5.35786 16.1421 2 12 2ZM6 9.5C6 6.18629 8.68629 3.5 12 3.5C15.3137 3.5 18 6.18629 18 9.5V14.5C18 17.8137 15.3137 20.5 12 20.5C8.68629 20.5 6 17.8137 6 14.5V9.5Z" fill="#323544"/>
<path d="M11.4698 16.2769C11.7626 16.5695 12.2372 16.5696 12.5301 16.2769L14.7801 14.0284C15.0731 13.7356 15.0733 13.2607 14.7805 12.9677C14.4877 12.6748 14.0129 12.6746 13.7199 12.9674L11.9999 14.6861L10.2802 12.9674C9.98718 12.6746 9.5123 12.6747 9.2195 12.9677C8.9267 13.2607 8.92685 13.7356 9.21984 14.0284L11.4698 16.2769Z" fill="#323544"/>
<path d="M12 9.0542C11.5582 9.0542 11.2 8.69603 11.2 8.2542C11.2 7.81237 11.5582 7.4541 12 7.4541C12.4418 7.4541 12.8 7.81227 12.8 8.2541C12.8 8.69593 12.4418 9.0542 12 9.0542Z" fill="#323544"/>
<path d="M11.2 11.0706C11.2 11.5124 11.5582 11.8706 12 11.8706C12.4418 11.8706 12.8 11.5124 12.8 11.0706C12.8 10.6288 12.4418 10.2705 12 10.2705C11.5582 10.2705 11.2 10.6288 11.2 11.0706Z" fill="#323544"/>
</svg>
