<svg width="24" height="24" viewBox="0 0 24 24" fill="none" xmlns="http://www.w3.org/2000/svg">
<path opacity="0.4" d="M7.15991 3.25C6.32162 3.25 5.55285 3.71602 5.16509 4.45923L3.05404 8.50541C2.62952 9.31907 2.74173 10.309 3.33758 11.007L11.4302 20.4869C11.5727 20.6539 11.7812 20.75 12.0006 20.75C12.2201 20.75 12.4286 20.6539 12.5711 20.4869L20.6637 11.007C21.2595 10.309 21.3717 9.31907 20.9472 8.50541L18.8362 4.45923C18.4484 3.71602 17.6796 3.25 16.8414 3.25H7.15991Z" fill="#323544"/>
<path d="M5.16411 4.45923C5.55187 3.71602 6.32065 3.25 7.15893 3.25H16.8404C17.6787 3.25 18.4474 3.71602 18.8352 4.45923L20.9462 8.50541C21.3708 9.31907 21.2586 10.309 20.6627 11.007L12.5701 20.4869C12.4276 20.6539 12.2191 20.75 11.9997 20.75C11.7802 20.75 11.5717 20.6539 11.4292 20.4869L3.33661 11.007C2.74075 10.309 2.62854 9.31907 3.05306 8.50541L5.16411 4.45923ZM7.15893 4.75C6.8795 4.75 6.62324 4.90534 6.49399 5.15308L4.38294 9.19926C4.24143 9.47048 4.27884 9.80046 4.47746 10.0331L11.9997 18.8448L19.5219 10.0331C19.7205 9.80046 19.7579 9.47048 19.6164 9.19926L17.5053 5.15308C17.3761 4.90534 17.1198 4.75 16.8404 4.75H7.15893Z" fill="#323544"/>
</svg>
