<svg width="24" height="24" viewBox="0 0 24 24" fill="none" xmlns="http://www.w3.org/2000/svg">
<path d="M20.5 12C20.5 7.30558 16.6944 3.5 12 3.5C7.30558 3.5 3.5 7.30558 3.5 12C3.5 16.6944 7.30558 20.5 12 20.5C16.6944 20.5 20.5 16.6944 20.5 12ZM22 12C22 17.5228 17.5228 22 12 22C6.47715 22 2 17.5228 2 12C2 6.47715 6.47715 2 12 2C17.5228 2 22 6.47715 22 12Z" fill="#323544"/>
<path opacity="0.4" d="M18.0096 4.92953C18.3024 4.6367 18.7772 4.63684 19.0702 4.92953C19.363 5.22242 19.363 5.69718 19.0702 5.99007L5.9891 19.0711C5.6962 19.364 5.22144 19.364 4.92855 19.0711C4.63587 18.7782 4.63573 18.3034 4.92855 18.0106L18.0096 4.92953Z" fill="#323544"/>
</svg>
