<svg width="25" height="24" viewBox="0 0 25 24" fill="none" xmlns="http://www.w3.org/2000/svg">
<path opacity="0.4" d="M21.5126 5.77444C22.1665 3.97839 20.4247 2.23663 18.6286 2.89049L4.63161 7.98618C2.69131 8.69256 2.64765 11.4209 4.56435 12.189L9.72773 14.2582C9.91795 14.3344 10.0687 14.4851 10.1449 14.6754L12.2141 19.8387C12.9822 21.7554 15.7105 21.7118 16.4169 19.7715L21.5126 5.77444Z" fill="#323544"/>
<path d="M4.5645 12.188C2.6478 11.4199 2.69147 8.69158 4.63177 7.9852L18.6288 2.88951C20.4248 2.23565 22.1666 3.97742 21.5127 5.77347L16.4171 19.7705C15.7107 21.7108 12.9824 21.7545 12.2143 19.8378L10.1451 14.6744C10.0688 14.4842 9.9181 14.3334 9.72788 14.2572L4.5645 12.188ZM5.1449 9.3947C4.49814 9.63016 4.48358 10.5396 5.12248 10.7956L10.2859 12.8648C10.8565 13.0935 11.3087 13.5457 11.5374 14.1164L13.6066 19.2798C13.8627 19.9187 14.7721 19.9041 15.0076 19.2574L20.1032 5.26033C20.3212 4.66165 19.7406 4.08106 19.1419 4.29901L5.1449 9.3947Z" fill="#323544"/>
</svg>
