<svg width="25" height="24" viewBox="0 0 25 24" fill="none" xmlns="http://www.w3.org/2000/svg">
<path d="M13.1528 3.75V10.25H18.2437C18.6723 10.25 19.086 10.0927 19.4063 9.80797L21.0938 8.30797C21.877 7.61183 21.877 6.38817 21.0938 5.69203L19.4063 4.19203C19.086 3.90729 18.6723 3.75 18.2437 3.75H13.1528ZM11.6528 15.25L11.6528 8.75L6.56249 8.75C6.13389 8.75 5.7202 8.90729 5.39986 9.19203L3.71236 10.692C2.92921 11.3882 2.92921 12.6118 3.71237 13.308L5.39987 14.808C5.72021 15.0927 6.13391 15.25 6.56251 15.25L11.6528 15.25Z" fill="#323544"/>
<path opacity="0.4" d="M13.1528 2.75C13.1528 2.33579 12.817 2 12.4028 2C11.9886 2 11.6528 2.33579 11.6528 2.75V8.75L11.6528 15.25V21.25C11.6528 21.6642 11.9886 22 12.4028 22C12.817 22 13.1528 21.6642 13.1528 21.25L13.1528 10.25V3.75V2.75Z" fill="#323544"/>
</svg>
