<svg width="25" height="24" viewBox="0 0 25 24" fill="none" xmlns="http://www.w3.org/2000/svg">
<path opacity="0.4" d="M13.1501 2C13.5644 2 13.9001 2.33579 13.9001 2.75V3.75H12.4001V2.75C12.4001 2.33579 12.7359 2 13.1501 2ZM12.4001 13.25V21.25C12.4001 21.6642 12.7359 22 13.1501 22C13.5644 22 13.9001 21.6642 13.9001 21.25V13.25H12.4001Z" fill="#323544"/>
<path d="M12.3999 3.75H7.46681C6.91575 3.75 6.38386 3.95223 5.97199 4.31833L3.15948 6.81833C2.15257 7.71336 2.15257 9.28664 3.15948 10.1817L5.97197 12.6817C6.38383 13.0478 6.91573 13.25 7.46679 13.25H12.3999H13.8999H20.1499C21.3926 13.25 22.3999 12.2426 22.3999 11V6C22.3999 4.75736 21.3926 3.75 20.1499 3.75H13.8999H12.3999Z" fill="#323544"/>
</svg>
