<svg width="24" height="24" viewBox="0 0 24 24" fill="none" xmlns="http://www.w3.org/2000/svg">
<path opacity="0.4" d="M4.5 13.1846C4.5 10.2298 4.99181 7.51972 5.81543 5.52051C6.22646 4.52281 6.73499 3.66596 7.33789 3.04688C7.94324 2.42539 8.6909 2 9.54883 2C10.724 2 11.6804 2.78733 12.3867 3.82227C13.0154 4.74349 13.5261 5.96897 13.8975 7.37793L14.0488 7.99219L14.0615 8.06836C14.1075 8.44551 13.861 8.80376 13.4824 8.88965C13.104 8.97526 12.7277 8.75839 12.6064 8.39844L12.5859 8.32422L12.4463 7.75488C12.1047 6.46039 11.6523 5.40769 11.1475 4.66797C10.5585 3.80496 9.99704 3.5 9.54883 3.5C9.21967 3.5 8.83635 3.6592 8.41309 4.09375C7.98753 4.53068 7.56897 5.20141 7.20215 6.0918C6.46993 7.86914 6 10.3765 6 13.1846C6 16.0903 6.50309 18.6674 7.27441 20.4482L7.43262 20.793L7.46191 20.8643C7.5915 21.2216 7.43187 21.6263 7.08203 21.7949C6.73226 21.9632 6.31685 21.8357 6.11816 21.5117L6.08105 21.4443L5.90137 21.0508C5.02441 19.0294 4.5 16.2339 4.5 13.1846Z" fill="#323544"/>
<path d="M15.2393 4.41388C16.1528 3.64485 17.2369 3.16407 18.3301 3.45684L18.5918 3.54181C19.8602 4.03151 20.5467 5.46161 20.8545 7.02716C21.1751 8.65803 21.1528 10.7249 20.7793 12.9451L20.7002 13.3904C20.6137 13.851 20.5124 14.3189 20.3955 14.7908L20.2734 15.2645C20.1153 15.8547 19.9392 16.4284 19.748 16.9813L19.5518 17.5272C19.147 18.6126 18.68 19.613 18.1768 20.4998H20L20.0771 20.5037C20.4551 20.5424 20.75 20.8617 20.75 21.2498C20.7498 21.6379 20.455 21.9573 20.0771 21.9959L20 21.9998H4C3.58589 21.9998 3.25016 21.6639 3.25 21.2498C3.25 20.8356 3.58579 20.4998 4 20.4998H10.085C9.84902 18.9455 9.89753 17.0511 10.2373 15.0311L10.3408 14.4608C10.4517 13.8864 10.586 13.3019 10.7441 12.7117L10.875 12.24C11.0098 11.7727 11.156 11.3171 11.3115 10.8748L11.4619 10.4598C11.8194 9.49988 12.2225 8.60679 12.6572 7.80157L12.9512 7.27911C13.6486 6.08764 14.427 5.09766 15.2393 4.41388ZM14.9512 15.0545L14.8613 15.0682L11.6416 15.7772C11.3788 17.5946 11.3799 19.2265 11.6055 20.4998H16.4248C16.9767 19.6503 17.5023 18.627 17.9639 17.4715L15.5283 15.2469C15.3708 15.1031 15.1607 15.0344 14.9512 15.0545ZM16.0342 11.0135L15.9443 11.0272L12.5918 11.7654C12.4954 12.0564 12.4036 12.3536 12.3164 12.6561L12.1924 13.0994C12.0953 13.4619 12.0076 13.8217 11.9297 14.1775L14.5391 13.6033L14.6729 13.5779C15.3459 13.4719 16.0344 13.6766 16.541 14.1395L18.5117 15.9402C18.622 15.5935 18.7272 15.2389 18.8242 14.8768L18.9395 14.4305C19.0151 14.125 19.0826 13.8215 19.1445 13.5213L16.6113 11.2059C16.4538 11.062 16.2438 10.9934 16.0342 11.0135ZM17.9424 4.90606C17.5384 4.79781 16.9554 4.9297 16.2051 5.56134C15.5613 6.10332 14.8862 6.94271 14.248 8.03204L13.9766 8.51446C13.7131 9.00242 13.4604 9.52938 13.2227 10.0897L15.6221 9.56231L15.7559 9.53692C16.4287 9.43102 17.1165 9.63571 17.623 10.0984L19.4365 11.7557C19.6472 10.0416 19.6175 8.50987 19.3828 7.31622C19.0932 5.8437 18.5561 5.14075 18.0439 4.93927L17.9424 4.90606Z" fill="#323544"/>
</svg>
