<svg width="24" height="25" viewBox="0 0 24 25" fill="none" xmlns="http://www.w3.org/2000/svg">
<path d="M16.4492 13.1777C16.8319 13.1121 17.197 13.3487 17.2988 13.7148L17.3155 13.79L18.3955 20.0898C18.4437 20.3711 18.3285 20.6554 18.0977 20.8232C17.8955 20.9701 17.6355 21.0055 17.4043 20.9229L17.3076 20.8799L11.999 18.0889L6.69045 20.8799C6.43788 21.0126 6.13228 20.9908 5.90139 20.8232C5.67047 20.6555 5.55437 20.3712 5.60256 20.0898L6.68264 13.79C6.75265 13.3819 7.14067 13.1078 7.54885 13.1777C7.9571 13.2478 8.23117 13.6357 8.16115 14.0439L7.33693 18.8457L11.6504 16.5781L11.7344 16.541C11.9337 16.4657 12.1575 16.4777 12.3487 16.5781L16.6602 18.8447L15.8369 14.0439L15.8281 13.9678C15.8019 13.5884 16.0665 13.2435 16.4492 13.1777ZM11.999 2.05469C12.2845 2.05469 12.5455 2.21668 12.6719 2.47266L15.501 8.2041L15.5313 8.27441C15.6644 8.63056 15.5084 9.03703 15.1602 9.20898C14.812 9.38084 14.3942 9.25768 14.1924 8.93555L14.1553 8.86816L11.999 4.49902L9.84279 8.86816C9.6595 9.23946 9.21025 9.39208 8.83889 9.20898C8.46745 9.02567 8.31475 8.57554 8.49807 8.2041L11.3272 2.47266L11.3799 2.38086C11.5183 2.1785 11.7494 2.05476 11.999 2.05469Z" fill="#323544"/>
<path opacity="0.4" d="M9.13932 7.78682C9.51905 7.77052 9.85692 8.04418 9.91276 8.42843C9.96835 8.81244 9.72258 9.17089 9.35417 9.26339L9.27799 9.27804L4.4567 9.97823L7.94596 13.3796L7.99772 13.4353C8.24205 13.7267 8.23081 14.162 7.95963 14.4401C7.68868 14.7181 7.25432 14.7408 6.9567 14.5046L6.89909 14.4538L2.32194 9.9919C2.11753 9.79264 2.04428 9.49484 2.13249 9.22335C2.2207 8.95184 2.45544 8.75366 2.73795 8.71261L9.06315 7.79366L9.13932 7.78682ZM14.859 7.78682L14.9362 7.79366L21.2614 8.71261L21.3649 8.73507C21.6002 8.80421 21.7897 8.98586 21.8669 9.22335C21.944 9.46091 21.8966 9.7186 21.7467 9.9128L21.6764 9.9919L17.0993 14.4538C16.8026 14.7425 16.3277 14.7366 16.0387 14.4401C15.7498 14.1436 15.7561 13.6687 16.0524 13.3796L19.5407 9.97823L14.7204 9.27804L14.6452 9.26339C14.2764 9.17118 14.03 8.81268 14.0856 8.42843C14.1414 8.04426 14.4794 7.77063 14.859 7.78682Z" fill="#323544"/>
</svg>
