<svg width="24" height="24" viewBox="0 0 24 24" fill="none" xmlns="http://www.w3.org/2000/svg">
<path d="M7.21481 8.27547L2.21967 3.28033C1.92678 2.98744 1.92678 2.51256 2.21967 2.21967C2.51256 1.92678 2.98744 1.92678 3.28033 2.21967L21.7794 20.7187C22.0722 21.0116 22.0722 21.4865 21.7794 21.7794C21.4865 22.0722 21.0116 22.0722 20.7187 21.7794L18.3107 19.3713L18.3703 19.5548C18.4707 19.8638 18.3607 20.2023 18.0978 20.3933C17.835 20.5843 17.479 20.5843 17.2161 20.3933L11.9996 16.6032L6.78296 20.3933C6.52009 20.5843 6.16415 20.5843 5.90128 20.3933C5.63841 20.2023 5.52842 19.8638 5.62883 19.5548L7.62139 13.4223L2.40479 9.63223C2.14193 9.44125 2.03193 9.10272 2.13234 8.7937C2.23275 8.48469 2.52071 8.27547 2.84563 8.27547L7.21481 8.27547ZM15.9744 17.035L8.71481 9.77547H5.1539L8.9439 12.5291C9.20677 12.7201 9.31676 13.0586 9.21636 13.3676L7.7687 17.823L11.5587 15.0694C11.8216 14.8784 12.1775 14.8784 12.4404 15.0694L16.2304 17.823L15.9744 17.035Z" fill="#323544"/>
<path opacity="0.4" d="M18.8446 9.77571L15.3802 12.2927L16.4541 13.3666L21.5937 9.63247C21.8566 9.44149 21.9666 9.10297 21.8662 8.79395C21.7658 8.48493 21.4778 8.27571 21.1529 8.27571L14.7048 8.27571L12.7123 2.14324C12.6119 1.83422 12.3239 1.625 11.999 1.625C11.674 1.625 11.3861 1.83422 11.2857 2.14324L9.80078 6.71327L10.9912 7.90368L11.999 4.80205L13.4466 9.25747C13.547 9.56649 13.835 9.77571 14.1599 9.77571H18.8446Z" fill="#323544"/>
</svg>
