<svg width="24" height="24" viewBox="0 0 24 24" fill="none" xmlns="http://www.w3.org/2000/svg">
<path opacity="0.4" d="M12 2C6.47715 2 2 6.47715 2 12C2 17.5228 6.47715 22 12 22C17.5228 22 22 17.5228 22 12C22 6.47715 17.5228 2 12 2ZM3.5 12C3.5 7.30558 7.30558 3.5 12 3.5C16.6944 3.5 20.5 7.30558 20.5 12C20.5 16.6944 16.6944 20.5 12 20.5C7.30558 20.5 3.5 16.6944 3.5 12Z" fill="#323544"/>
<path d="M10.0001 9.23242C10.0001 8.54207 9.44043 7.98242 8.75007 7.98242C8.05972 7.98242 7.50007 8.54207 7.50007 9.23242C7.50007 9.92278 8.05972 10.4825 8.75007 10.4825C9.44043 10.4825 10.0001 9.92278 10.0001 9.23242Z" fill="#323544"/>
<path d="M15.2499 7.98242C15.9403 7.98242 16.4999 8.54207 16.4999 9.23242C16.4999 9.92278 15.9403 10.4825 15.2499 10.4825C14.5596 10.4825 13.9999 9.92288 13.9999 9.23252C13.9999 8.54217 14.5596 7.98242 15.2499 7.98242Z" fill="#323544"/>
<path d="M6.81678 13.0609C6.60497 13.0609 6.40304 13.1505 6.26086 13.3075C6.11868 13.4645 6.04952 13.6743 6.07045 13.885C6.31056 16.303 8.5291 18.7731 12 18.7731C15.471 18.7731 17.6894 16.303 17.9296 13.885C17.9505 13.6743 17.8814 13.4645 17.7392 13.3075C17.597 13.1505 17.3951 13.0609 17.1833 13.0609H6.81678ZM12 17.2731C9.74178 17.2731 8.27458 15.955 7.75718 14.5609H16.2429C15.7254 15.955 14.2583 17.2731 12 17.2731Z" fill="#323544"/>
</svg>
