<svg width="24" height="24" viewBox="0 0 24 24" fill="none" xmlns="http://www.w3.org/2000/svg">
<path opacity="0.4" d="M12 2C6.47715 2 2 6.47715 2 12C2 17.5228 6.47715 22 12 22C17.5228 22 22 17.5228 22 12C22 6.47715 17.5228 2 12 2ZM3.5 12C3.5 7.30558 7.30558 3.5 12 3.5C16.6944 3.5 20.5 7.30558 20.5 12C20.5 16.6944 16.6944 20.5 12 20.5C7.30558 20.5 3.5 16.6944 3.5 12Z" fill="#323544"/>
<path d="M17.0135 15.2236C17.2489 14.8827 17.1634 14.4156 16.8226 14.1802C16.4818 13.9448 16.0147 14.0303 15.7793 14.3711C14.7857 15.8098 13.1276 16.7499 11.25 16.7499C10.8358 16.7499 10.5 17.0857 10.5 17.4999C10.5 17.9141 10.8358 18.2499 11.25 18.2499C13.6411 18.2499 15.7519 17.0503 17.0135 15.2236Z" fill="#323544"/>
<path d="M8.74994 7.98242C9.44029 7.98242 9.99994 8.54207 9.99994 9.23242C9.99994 9.92278 9.44029 10.4825 8.74994 10.4825C8.05958 10.4825 7.49994 9.92288 7.49994 9.23252C7.49994 8.54217 8.05958 7.98242 8.74994 7.98242Z" fill="#323544"/>
<path d="M16.5001 9.23242C16.5001 8.54207 15.9405 7.98242 15.2501 7.98242C14.5598 7.98242 14.0001 8.54207 14.0001 9.23242C14.0001 9.92278 14.5598 10.4825 15.2501 10.4825C15.9405 10.4825 16.5001 9.92278 16.5001 9.23242Z" fill="#323544"/>
</svg>
