<svg width="24" height="24" viewBox="0 0 24 24" fill="none" xmlns="http://www.w3.org/2000/svg">
<path opacity="0.4" d="M2 12C2 6.47715 6.47715 2 12 2C17.5228 2 22 6.47715 22 12C22 17.5228 17.5228 22 12 22C6.47715 22 2 17.5228 2 12ZM12 3.5C7.30558 3.5 3.5 7.30558 3.5 12C3.5 16.6944 7.30558 20.5 12 20.5C16.6944 20.5 20.5 16.6944 20.5 12C20.5 7.30558 16.6944 3.5 12 3.5Z" fill="#323544"/>
<path d="M8.17625 14.568C8.5003 14.31 8.97215 14.3636 9.23015 14.6876C9.87961 15.5034 10.8788 16.0241 12 16.0241C13.1213 16.0241 14.1205 15.5034 14.7699 14.6876C15.0279 14.3636 15.4998 14.31 15.8238 14.568C16.1479 14.826 16.2014 15.2979 15.9434 15.6219C15.0216 16.7797 13.5975 17.5241 12 17.5241C10.4026 17.5241 8.97847 16.7797 8.05665 15.6219C7.79865 15.2979 7.8522 14.826 8.17625 14.568Z" fill="#323544"/>
<path d="M6.95349 8.15625C6.53928 8.15625 6.20349 8.49204 6.20349 8.90625V10.8597C6.20349 11.6336 6.83081 12.2609 7.60465 12.2609H9.38884C10.1627 12.2609 10.79 11.6336 10.79 10.8597V9.65625H13.21V10.8597C13.21 11.6336 13.8373 12.2609 14.6112 12.2609H16.3954C17.1692 12.2609 17.7965 11.6336 17.7965 10.8597V8.90625C17.7965 8.49204 17.4607 8.15625 17.0465 8.15625H6.95349Z" fill="#323544"/>
</svg>
