<svg width="24" height="24" viewBox="0 0 24 24" fill="none" xmlns="http://www.w3.org/2000/svg">
<path opacity="0.4" d="M12 2C6.47715 2 2 6.47715 2 12C2 17.5228 6.47715 22 12 22C17.5228 22 22 17.5228 22 12C22 6.47715 17.5228 2 12 2ZM3.5 12C3.5 7.30558 7.30558 3.5 12 3.5C16.6944 3.5 20.5 7.30558 20.5 12C20.5 16.6944 16.6944 20.5 12 20.5C7.30558 20.5 3.5 16.6944 3.5 12Z" fill="#323544"/>
<path d="M10.0001 9.23242C10.0001 8.54207 9.44042 7.98242 8.75006 7.98242C8.05971 7.98242 7.50006 8.54207 7.50006 9.23242C7.50006 9.92278 8.05971 10.4825 8.75006 10.4825C9.44042 10.4825 10.0001 9.92278 10.0001 9.23242Z" fill="#323544"/>
<path d="M15.2499 7.98242C15.9403 7.98242 16.4999 8.54207 16.4999 9.23242C16.4999 9.92278 15.9403 10.4825 15.2499 10.4825C14.5596 10.4825 13.9999 9.92288 13.9999 9.23252C13.9999 8.54217 14.5596 7.98242 15.2499 7.98242Z" fill="#323544"/>
<path d="M9.23014 16.2651C8.97214 16.5891 8.50029 16.6427 8.17624 16.3847C7.85219 16.1267 7.79864 15.6548 8.05664 15.3308C8.97846 14.173 10.4026 13.4286 12 13.4286C13.5975 13.4286 15.0216 14.173 15.9434 15.3308C16.2014 15.6548 16.1479 16.1267 15.8238 16.3847C15.4998 16.6427 15.0279 16.5891 14.7699 16.2651C14.1205 15.4493 13.1213 14.9286 12 14.9286C10.8788 14.9286 9.8796 15.4493 9.23014 16.2651Z" fill="#323544"/>
</svg>
