<svg width="24" height="24" viewBox="0 0 24 24" fill="none" xmlns="http://www.w3.org/2000/svg">
<path opacity="0.4" d="M12 2C6.47715 2 2 6.47715 2 12C2 17.5228 6.47715 22 12 22C17.5228 22 22 17.5228 22 12C22 6.47715 17.5228 2 12 2ZM3.5 12C3.5 7.30558 7.30558 3.5 12 3.5C16.6944 3.5 20.5 7.30558 20.5 12C20.5 16.6944 16.6944 20.5 12 20.5C7.30558 20.5 3.5 16.6944 3.5 12Z" fill="#323544"/>
<path d="M10.0001 9.23242C10.0001 8.54207 9.44042 7.98242 8.75006 7.98242C8.05971 7.98242 7.50006 8.54207 7.50006 9.23242C7.50006 9.92278 8.05971 10.4825 8.75006 10.4825C9.44042 10.4825 10.0001 9.92278 10.0001 9.23242Z" fill="#323544"/>
<path d="M15.2499 7.98242C15.9403 7.98242 16.4999 8.54207 16.4999 9.23242C16.4999 9.92278 15.9403 10.4825 15.2499 10.4825C14.5596 10.4825 13.9999 9.92288 13.9999 9.23252C13.9999 8.54217 14.5596 7.98242 15.2499 7.98242Z" fill="#323544"/>
<path d="M9.23014 13.7115C8.97214 13.3874 8.50029 13.3339 8.17624 13.5919C7.85219 13.8499 7.79864 14.3217 8.05664 14.6458C8.97846 15.8036 10.4026 16.5479 12 16.5479C13.5975 16.5479 15.0216 15.8036 15.9434 14.6458C16.2014 14.3217 16.1479 13.8499 15.8238 13.5919C15.4998 13.3339 15.0279 13.3874 14.7699 13.7115C14.1205 14.5272 13.1213 15.0479 12 15.0479C10.8788 15.0479 9.8796 14.5272 9.23014 13.7115Z" fill="#323544"/>
</svg>
