<svg width="24" height="24" viewBox="0 0 24 24" fill="none" xmlns="http://www.w3.org/2000/svg">
<path opacity="0.4" d="M12 2C6.47715 2 2 6.47715 2 12C2 17.5228 6.47715 22 12 22C17.5228 22 22 17.5228 22 12C22 6.47715 17.5228 2 12 2ZM3.5 12C3.5 7.30558 7.30558 3.5 12 3.5C16.6944 3.5 20.5 7.30558 20.5 12C20.5 16.6944 16.6944 20.5 12 20.5C7.30558 20.5 3.5 16.6944 3.5 12Z" fill="#323544"/>
<path d="M8.093 14.2389C7.67878 14.2389 7.343 14.5747 7.343 14.9889C7.343 15.4032 7.67878 15.7389 8.093 15.7389H15.9069C16.3212 15.7389 16.6569 15.4032 16.6569 14.9889C16.6569 14.5747 16.3212 14.2389 15.9069 14.2389H8.093Z" fill="#323544"/>
<path d="M6.69183 9.16797C6.69183 8.75376 7.02762 8.41797 7.44183 8.41797H9.72742C10.1416 8.41797 10.4774 8.75376 10.4774 9.16797C10.4774 9.58218 10.1416 9.91797 9.72742 9.91797H7.44183C7.02762 9.91797 6.69183 9.58218 6.69183 9.16797Z" fill="#323544"/>
<path d="M14.2856 8.41797C13.8713 8.41797 13.5356 8.75376 13.5356 9.16797C13.5356 9.58218 13.8713 9.91797 14.2856 9.91797H16.5581C16.9723 9.91797 17.3081 9.58218 17.3081 9.16797C17.3081 8.75376 16.9723 8.41797 16.5581 8.41797H14.2856Z" fill="#323544"/>
</svg>
