<svg width="24" height="24" viewBox="0 0 24 24" fill="none" xmlns="http://www.w3.org/2000/svg">
<path opacity="0.4" d="M12 22C6.49 22 2 17.51 2 12C2 6.49 6.49 2 12 2C17.51 2 22 6.49 22 12C22 17.51 17.51 22 12 22ZM12 3.5C7.31 3.5 3.5 7.31 3.5 12C3.5 16.69 7.31 20.5 12 20.5C16.69 20.5 20.5 16.69 20.5 12C20.5 7.31 16.69 3.5 12 3.5Z" fill="#323544"/>
<path d="M16.61 10.4604C16.72 10.7704 17.01 10.9704 17.32 10.9704V10.9604C17.4 10.9604 17.48 10.9504 17.56 10.9204C17.95 10.7904 18.16 10.3604 18.03 9.97039C17.8 9.29039 17.03 8.15039 15.58 8.15039C14.13 8.15039 13.36 9.30039 13.13 9.97039C13 10.3604 13.21 10.7904 13.6 10.9204C14 11.0604 14.42 10.8404 14.55 10.4504C14.55 10.4404 14.83 9.66039 15.58 9.66039C16.3 9.66039 16.58 10.3704 16.61 10.4604Z" fill="#323544"/>
<path d="M9.45 10.4604C9.56 10.7704 9.85 10.9704 10.16 10.9704V10.9604C10.24 10.9604 10.32 10.9504 10.4 10.9204C10.79 10.7904 11 10.3604 10.87 9.97039C10.64 9.29039 9.87 8.15039 8.42 8.15039C6.97 8.15039 6.2 9.30039 5.97 9.97039C5.84 10.3604 6.05 10.7904 6.44 10.9204C6.84 11.0604 7.26 10.8404 7.39 10.4504C7.39 10.4404 7.67 9.66039 8.42 9.66039C9.14 9.66039 9.42 10.3704 9.45 10.4604Z" fill="#323544"/>
<path d="M14.81 18.4804C14.62 18.4804 14.42 18.4504 14.23 18.4004C13.65 18.2404 13.16 17.8704 12.86 17.3504L12.39 16.5304C10.72 16.6504 9.1 15.9504 8.06 14.6404C7.8 14.3204 7.85 13.8504 8.18 13.5904C8.51 13.3304 8.98 13.3904 9.23 13.7104C10.04 14.7304 11.39 15.2204 12.65 14.9904C13.48 14.8304 14.24 14.3804 14.77 13.7104C14.92 13.5204 15.16 13.4204 15.41 13.4304C15.66 13.4504 15.88 13.5904 16 13.8004L16.75 15.1004C17.37 16.1704 17 17.5504 15.93 18.1704C15.58 18.3704 15.2 18.4704 14.81 18.4704V18.4804ZM14.16 16.6004C14.26 16.7704 14.42 16.9004 14.62 16.9504C14.81 17.0004 15.01 16.9804 15.19 16.8704C15.55 16.6604 15.67 16.2004 15.47 15.8504L15.21 15.4004C14.82 15.7204 14.39 15.9804 13.92 16.1704H13.91L14.16 16.6004Z" fill="#323544"/>
</svg>
