<svg width="24" height="24" viewBox="0 0 24 24" fill="none" xmlns="http://www.w3.org/2000/svg">
<path opacity="0.4" d="M12 2C6.47715 2 2 6.47715 2 12C2 17.5228 6.47715 22 12 22C17.5228 22 22 17.5228 22 12C22 6.47715 17.5228 2 12 2ZM3.5 12C3.5 7.30558 7.30558 3.5 12 3.5C16.6944 3.5 20.5 7.30558 20.5 12C20.5 16.6944 16.6944 20.5 12 20.5C7.30558 20.5 3.5 16.6944 3.5 12Z" fill="#323544"/>
<path d="M9.66858 9.23242C9.66858 8.54207 9.10893 7.98242 8.41858 7.98242C7.72822 7.98242 7.16858 8.54207 7.16858 9.23242C7.16858 9.92278 7.72822 10.4825 8.41858 10.4825C9.10893 10.4825 9.66858 9.92278 9.66858 9.23242Z" fill="#323544"/>
<path d="M8.093 14.2383C7.67878 14.2383 7.343 14.5741 7.343 14.9883C7.343 15.4025 7.67878 15.7383 8.093 15.7383H15.907C16.3212 15.7383 16.657 15.4025 16.657 14.9883C16.657 14.5741 16.3212 14.2383 15.907 14.2383H8.093Z" fill="#323544"/>
<path d="M15.5814 7.98242C16.2717 7.98242 16.8314 8.54207 16.8314 9.23242C16.8314 9.92278 16.2717 10.4825 15.5814 10.4825C14.891 10.4825 14.3314 9.92288 14.3314 9.23252C14.3314 8.54217 14.891 7.98242 15.5814 7.98242Z" fill="#323544"/>
</svg>
