<svg width="24" height="24" viewBox="0 0 24 24" fill="none" xmlns="http://www.w3.org/2000/svg">
<path d="M11.6376 16.2677C11.6089 15.55 11.3427 14.8724 10.8296 14.3593C10.3387 13.8684 9.67166 13.517 8.96852 13.402M11.6376 16.2677C11.6766 17.2413 11.2788 18.2888 10.4677 19.0998C9.78192 19.7856 8.96703 20.0714 8.1279 20.1124C5.55301 20.2381 2.75 18.0589 2.75 18.0589C2.75 18.0589 4.57371 17.6249 6.08901 14.7212C6.83329 13.572 7.93954 13.2337 8.96852 13.402M11.6376 16.2677L20.9015 6.11968C21.3831 5.59211 21.3646 4.77905 20.8595 4.27394C20.3544 3.76883 19.5413 3.75032 19.0137 4.23193L8.96852 13.402" stroke="#323544" stroke-width="1.5" stroke-linecap="round" stroke-linejoin="round"/>
</svg>
