<svg width="24" height="24" viewBox="0 0 24 24" fill="none" xmlns="http://www.w3.org/2000/svg">
<path d="M11.0413 7.6564L14.5768 4.12087M14.9302 8.00973L16.6979 6.24196M15.107 18.4401L5.56121 8.8943M3.97059 12.6062L11.3951 20.0307C11.9809 20.6165 12.9306 20.6165 13.5164 20.0307L20.9409 12.6062C21.5267 12.0205 21.5267 11.0707 20.9409 10.4849L13.5164 3.06043C12.9306 2.47465 11.9809 2.47465 11.3951 3.06043L3.97059 10.4849C3.3848 11.0707 3.3848 12.0205 3.97059 12.6062ZM6.62176 15.2576L8.74308 17.3789L6.26807 19.8539C5.68229 20.4397 4.73254 20.4397 4.14675 19.8539C3.56097 19.2681 3.56097 18.3184 4.14675 17.7326L6.62176 15.2576Z" stroke="#323544" stroke-width="1.5" stroke-linecap="round" stroke-linejoin="round"/>
</svg>
