<svg width="24" height="25" viewBox="0 0 24 25" fill="none" xmlns="http://www.w3.org/2000/svg">
<path d="M3.72266 19.3639L6.06781 19.8472L6.96199 18.9528L5.54778 17.5386L3.72266 19.3639Z" fill="#323544"/>
<path d="M5.54778 17.5386C5.15725 17.1481 5.15725 16.5149 5.54778 16.1244L7.6691 14.0031L10.4975 16.8315L8.3762 18.9528C7.9857 19.3433 7.35252 19.3433 6.96199 18.9528M5.54778 17.5386L6.96199 18.9528M5.54778 17.5386L3.72266 19.3639L6.06781 19.8472L6.96199 18.9528M11.2043 17.5388L6.96161 13.2962L15.4469 4.81092C16.0327 4.22514 16.9824 4.22514 17.5682 4.81092L19.6895 6.93224C20.2753 7.51803 20.2753 8.46778 19.6895 9.05356L11.2043 17.5388Z" stroke="#323544" stroke-width="1.5" stroke-linecap="round" stroke-linejoin="round"/>
</svg>
