<svg width="24" height="25" viewBox="0 0 24 25" fill="none" xmlns="http://www.w3.org/2000/svg">
<path fill-rule="evenodd" clip-rule="evenodd" d="M12.9215 19.3722V21.0591L11.0789 21.7501V19.3722H12.9215Z" fill="#323544"/>
<path d="M10.1688 19.3722C10.164 19.3722 10.1599 19.3687 10.159 19.364L9.78532 17.371C9.73347 17.0944 9.60487 16.838 9.41421 16.631L9.00814 16.1903C8.71395 15.8709 8.57256 15.4398 8.62051 15.0083L8.75532 13.795M10.1688 19.3722H13.8373M10.1688 19.3722H11.0789M13.8373 19.3722C13.8421 19.3722 13.8463 19.3687 13.8471 19.364L14.2225 17.362C14.2744 17.0854 14.403 16.829 14.5936 16.6221L14.9914 16.1903C15.2856 15.8709 15.427 15.4398 15.3791 15.0083L15.2442 13.795M13.8373 19.3722H12.9215M11.0789 19.3722V21.7501L12.9215 21.0591V19.3722M11.0789 19.3722H12.9215M8.75532 13.795L9.77867 4.58484C9.86308 3.82519 10.5052 3.25049 11.2695 3.25049H12.7301C13.4944 3.25049 14.1365 3.82519 14.2209 4.58484L15.2442 13.795M8.75532 13.795H15.2442" stroke="#323544" stroke-width="1.5" stroke-linecap="round" stroke-linejoin="round"/>
</svg>
