<svg width="24" height="25" viewBox="0 0 24 25" fill="none" xmlns="http://www.w3.org/2000/svg">
<path d="M5.0248 14.0942L3.1405 14.7697C2.63025 14.9526 2.63025 15.6742 3.1405 15.8571L11.415 18.8233C11.793 18.9588 12.2063 18.9588 12.5844 18.8233L20.8588 15.8571C21.3691 15.6742 21.3691 14.9526 20.8588 14.7697L18.9833 14.0974M11.415 6.17488L3.1405 9.14101C2.63025 9.32392 2.63025 10.0455 3.1405 10.2284L11.415 13.1946C11.793 13.3301 12.2063 13.3301 12.5844 13.1946L20.8588 10.2284C21.3691 10.0455 21.3691 9.32393 20.8588 9.14102L12.5844 6.17488C12.2063 6.03936 11.793 6.03936 11.415 6.17488Z" stroke="#323544" stroke-width="1.5" stroke-linecap="round" stroke-linejoin="round"/>
</svg>
