<svg width="24" height="24" viewBox="0 0 24 24" fill="none" xmlns="http://www.w3.org/2000/svg">
<path d="M12 9.25C10.8954 9.25 10 8.35457 10 7.25M12 9.25C13.1046 9.25 14 8.35457 14 7.25M12 9.25C5.75 9.25 5.75 15.75 5.75 15.75M12 9.25C18.25 9.25 18.25 15.75 18.25 15.75M10 7.25C10 6.14543 10.8954 5.25 12 5.25C13.1046 5.25 14 6.14543 14 7.25M10 7.25H5.75M14 7.25H18.25M5.75 7.25V5.75H2.75V8.75H5.75V7.25ZM18.25 7.25V8.75H21.25V5.75H18.25V7.25ZM16.75 15.75H19.75V18.75H16.75V15.75ZM4.25 15.75H7.25V18.75H4.25V15.75Z" stroke="#323544" stroke-width="1.5" stroke-linecap="round" stroke-linejoin="round"/>
</svg>
