<svg width="25" height="25" viewBox="0 0 25 25" fill="none" xmlns="http://www.w3.org/2000/svg">
<path d="M5.50005 10.4489C5.50005 9.62046 6.17162 8.94889 7.00005 8.94889H19.4677M5.50005 10.4489V12.1921M5.50005 10.4489V18.3078M5.50005 12.1921H21.5M5.50005 12.1921V13.4894M5.50005 13.4894H21.5M5.50005 13.4894V18.3078M5.50005 18.3078C5.40561 18.1706 5.33259 18.0153 5.28703 17.8452L3.0416 9.46516C2.82718 8.66496 3.30206 7.84246 4.10226 7.62805L16.6593 4.2634C17.4595 4.04898 18.282 4.52386 18.4964 5.32406L19.4677 8.94889M5.50005 18.3078V19.1246C5.50005 19.953 6.17162 20.6246 7.00005 20.6246H20C20.8285 20.6246 21.5 19.953 21.5 19.1246V10.4489C21.5 9.62046 20.8285 8.94889 20 8.94889H19.4677" stroke="#323544" stroke-width="1.5" stroke-linecap="round" stroke-linejoin="round"/>
</svg>
