<svg width="25" height="24" viewBox="0 0 25 24" fill="none" xmlns="http://www.w3.org/2000/svg">
<path d="M14 9.85184C14 9.12691 13.4123 8.53924 12.6874 8.53924H12C11.1716 8.53924 10.5 9.21082 10.5 10.0392V10.3043C10.5 10.9296 10.8878 11.4892 11.4733 11.7088L13.0267 12.2914C13.6122 12.5109 14 13.0706 14 13.6959V13.9609C14 14.7894 13.3284 15.4609 12.5 15.4609H11.8126C11.0877 15.4609 10.5 14.8733 10.5 14.1483M12.25 15.4609V16.625M12.25 7.375V8.53924M3 12C3 17.1086 7.14137 21.25 12.25 21.25C17.3586 21.25 21.5 17.1086 21.5 12C21.5 6.89137 17.3586 2.75 12.25 2.75C7.14137 2.75 3 6.89137 3 12Z" stroke="#323544" stroke-width="1.5" stroke-linecap="round" stroke-linejoin="round"/>
</svg>
