<svg width="25" height="24" viewBox="0 0 25 24" fill="none" xmlns="http://www.w3.org/2000/svg">
<path d="M14 8.72684C14 8.00191 13.4123 7.41424 12.6874 7.41424H12C11.1716 7.41424 10.5 8.08582 10.5 8.91424V9.17932C10.5 9.80457 10.8878 10.3642 11.4733 10.5838L13.0267 11.1664C13.6122 11.3859 14 11.9456 14 12.5709V12.8359C14 13.6644 13.3284 14.3359 12.5 14.3359H11.8126C11.0877 14.3359 10.5 13.7483 10.5 13.0233M12.25 14.3359V15.5M12.25 6.25V7.41424M4.25 10.75C4.25 17.4183 12.25 21.2539 12.25 21.2539C12.25 21.2539 20.25 17.4183 20.25 10.75C20.25 6.33172 16.6683 2.75 12.25 2.75C7.83172 2.75 4.25 6.33172 4.25 10.75Z" stroke="#323544" stroke-width="1.5" stroke-linecap="round" stroke-linejoin="round"/>
</svg>
