<svg width="25" height="24" viewBox="0 0 25 24" fill="none" xmlns="http://www.w3.org/2000/svg">
<path d="M14 8.72685C14 8.00192 13.4123 7.41425 12.6874 7.41425H12C11.1716 7.41425 10.5 8.08582 10.5 8.91425V9.17932C10.5 9.80457 10.8878 10.3642 11.4733 10.5838L13.0267 11.1664C13.6121 11.3859 14 11.9456 14 12.5709V12.8359C14 13.6644 13.3284 14.3359 12.5 14.3359H11.8126C11.0877 14.3359 10.5 13.7483 10.5 13.0233M12.25 14.3359V15.5M12.25 6.25V7.41425M12.2495 21.25C13.924 21.25 16.5771 18.3125 18.1594 16.3548C19.0428 15.2619 19.4735 13.8874 19.4734 12.4821L19.4734 7.01705C19.4734 6.43009 19.131 5.89706 18.5972 5.65295L12.8732 3.03529C12.477 2.85412 12.0217 2.85412 11.6255 3.03529L5.90156 5.65294C5.36775 5.89705 5.02538 6.4301 5.02539 7.01708L5.02547 12.4822C5.02549 13.8875 5.45618 15.2618 6.33949 16.3548C7.92175 18.3125 10.5749 21.25 12.2495 21.25Z" stroke="#323544" stroke-width="1.5" stroke-linecap="round" stroke-linejoin="round"/>
</svg>
