<svg width="25" height="24" viewBox="0 0 25 24" fill="none" xmlns="http://www.w3.org/2000/svg">
<path opacity="0.4" d="M6 3.25C4.75736 3.25 3.75 4.25736 3.75 5.5V18.5C3.75 19.7426 4.75736 20.75 6 20.75H19C20.2426 20.75 21.25 19.7426 21.25 18.5V5.5C21.25 4.25736 20.2426 3.25 19 3.25H6ZM5.25 5.5C5.25 5.08579 5.58579 4.75 6 4.75H19C19.4142 4.75 19.75 5.08579 19.75 5.5V11.3006V13.8608V18.5C19.75 18.9142 19.4142 19.25 19 19.25H6C5.58579 19.25 5.25 18.9142 5.25 18.5V18.0031V15.5807V5.5Z" fill="#323544"/>
<path d="M9.14453 6.93359C8.24707 6.93359 7.51953 7.66113 7.51953 8.55859C7.51953 9.45606 8.24707 10.1836 9.14453 10.1836H9.15453C10.052 10.1836 10.7795 9.45606 10.7795 8.55859C10.7795 7.66113 10.052 6.93359 9.15453 6.93359H9.14453Z" fill="#323544"/>
<path d="M6.70103 13.6798L5.25 15.5797V18.0021C5.3057 17.961 5.35659 17.9114 5.40073 17.8536L7.89311 14.5903C8.19431 14.1959 8.7886 14.1975 9.08766 14.5935L10.3032 16.2031C11.3548 17.5956 13.5226 17.3129 14.1819 15.6973L16.1596 10.8509C16.3821 10.3059 17.117 10.2178 17.4618 10.6949L19.75 13.8599V11.2996L18.6774 9.81606C17.6428 8.38492 15.4381 8.6491 14.7708 10.2842L12.7931 15.1305C12.5734 15.6691 11.8508 15.7633 11.5002 15.2992L10.2847 13.6896C9.38749 12.5016 7.60463 12.4967 6.70103 13.6798Z" fill="#323544"/>
</svg>
