<svg width="25" height="24" viewBox="0 0 25 24" fill="none" xmlns="http://www.w3.org/2000/svg">
<path d="M20.979 3.42287C21.1507 3.56536 21.25 3.77689 21.25 4.00001V14.5212C21.25 14.5264 21.2499 14.5316 21.2498 14.5368C21.2498 14.541 21.2496 14.5452 21.2495 14.5493C21.2323 15.3639 20.7911 16.0495 20.1857 16.5108C19.5687 16.9809 18.7492 17.25 17.875 17.25C17.0008 17.25 16.1813 16.9809 15.5643 16.5108C14.9467 16.0402 14.5 15.3362 14.5 14.5C14.5 13.6638 14.9467 12.9598 15.5643 12.4892C16.1813 12.0191 17.0008 11.75 17.875 11.75C18.5566 11.75 19.205 11.9136 19.75 12.2085V4.9037L9.25 6.87245V16.7712C9.25 16.7806 9.24983 16.79 9.24948 16.7993C9.2323 17.6139 8.79111 18.2995 8.18569 18.7608C7.56869 19.2309 6.74925 19.5 5.875 19.5C5.00075 19.5 4.18131 19.2309 3.56431 18.7608C2.9467 18.2902 2.5 17.5862 2.5 16.75C2.5 15.9138 2.9467 15.2098 3.56431 14.7392C4.18131 14.2691 5.00075 14 5.875 14C6.55664 14 7.20497 14.1636 7.75 14.4585V10.0135C7.74982 10.0039 7.74982 9.99437 7.75 9.98484V6.25001C7.75 5.88909 8.00705 5.57936 8.36178 5.51285L20.3618 3.26285C20.5811 3.22173 20.8073 3.28039 20.979 3.42287ZM19.2766 15.3176C19.6091 15.0643 19.75 14.7684 19.75 14.5C19.75 14.2316 19.6091 13.9357 19.2766 13.6824C18.9436 13.4286 18.4505 13.25 17.875 13.25C17.2995 13.25 16.8064 13.4286 16.4734 13.6824C16.1409 13.9357 16 14.2316 16 14.5C16 14.7684 16.1409 15.0643 16.4734 15.3176C16.8064 15.5714 17.2995 15.75 17.875 15.75C18.4505 15.75 18.9436 15.5714 19.2766 15.3176ZM7.75 16.75C7.75 16.4816 7.60908 16.1857 7.27662 15.9324C6.94356 15.6786 6.4505 15.5 5.875 15.5C5.2995 15.5 4.80644 15.6786 4.47338 15.9324C4.14092 16.1857 4 16.4816 4 16.75C4 17.0184 4.14092 17.3143 4.47338 17.5676C4.80644 17.8214 5.2995 18 5.875 18C6.4505 18 6.94356 17.8214 7.27662 17.5676C7.60908 17.3143 7.75 17.0184 7.75 16.75Z" fill="#323544"/>
<path opacity="0.4" d="M9.25 10.6199L19.75 8.60928V7.08203L9.25 9.09267V10.6199Z" fill="#323544"/>
</svg>
