<svg width="25" height="24" viewBox="0 0 25 24" fill="none" xmlns="http://www.w3.org/2000/svg">
<path opacity="0.4" d="M5.91406 6.13276C5.91406 4.32456 7.93914 3.25501 9.43262 4.27436L18.0303 10.1425L18.1484 10.2285C19.2992 11.1248 19.2992 12.8761 18.1484 13.7724L18.0303 13.8593L9.43262 19.7265C7.98587 20.714 6.04026 19.7416 5.91992 18.0361L5.91406 17.8681V6.13276ZM7.41406 17.8681L7.42188 17.9785C7.4978 18.513 8.12019 18.8067 8.58691 18.4882L17.1846 12.6201L17.2607 12.5605C17.5952 12.2645 17.5952 11.7364 17.2607 11.4404L17.1846 11.3808L8.58691 5.51264C8.08909 5.17298 7.41406 5.53007 7.41406 6.13276V17.8681Z" fill="#323544"/>
<path d="M17.585 19.5V4.5C17.585 4.08579 17.9207 3.75 18.335 3.75C18.7492 3.75 19.085 4.08579 19.085 4.5V19.5C19.0849 19.9142 18.7492 20.25 18.335 20.25C17.9208 20.25 17.585 19.9142 17.585 19.5Z" fill="#323544"/>
</svg>
