<svg width="25" height="24" viewBox="0 0 25 24" fill="none" xmlns="http://www.w3.org/2000/svg">
<path d="M9.5 5.5C9.5 5.08579 9.16421 4.75 8.75 4.75H7C6.58579 4.75 6.25 5.08579 6.25 5.5V18.5C6.25003 18.9142 6.5858 19.25 7 19.25H8.75C9.1642 19.25 9.49997 18.9142 9.5 18.5V5.5ZM11 18.5C11 19.7426 9.99262 20.75 8.75 20.75H7C5.75738 20.75 4.75003 19.7426 4.75 18.5V5.5C4.75 4.25736 5.75736 3.25 7 3.25H8.75C9.99264 3.25 11 4.25736 11 5.5V18.5Z" fill="#323544"/>
<path opacity="0.4" d="M18.75 5.5C18.75 5.08579 18.4142 4.75 18 4.75H16.25C15.8358 4.75 15.5 5.08579 15.5 5.5V18.5C15.5 18.9142 15.8358 19.25 16.25 19.25H18C18.4142 19.25 18.75 18.9142 18.75 18.5V5.5ZM20.25 18.5C20.25 19.7426 19.2426 20.75 18 20.75H16.25C15.0074 20.75 14 19.7426 14 18.5V5.5C14 4.25736 15.0074 3.25 16.25 3.25H18C19.2426 3.25 20.25 4.25736 20.25 5.5V18.5Z" fill="#323544"/>
</svg>
