<svg width="25" height="24" viewBox="0 0 25 24" fill="none" xmlns="http://www.w3.org/2000/svg">
<path d="M8.25016 10.5C7.5598 10.5 7.00016 11.0596 7.00016 11.75C7.00016 12.4404 7.5598 13 8.25016 13H8.26016C8.95051 13 9.51016 12.4404 9.51016 11.75C9.51016 11.0596 8.95051 10.5 8.26016 10.5H8.25016Z" fill="#323544"/>
<path d="M7.75016 7.25H6.00016C4.75751 7.25 3.75016 8.25736 3.75016 9.5V17.6611C3.74995 17.6712 3.74995 17.6814 3.75016 17.6916V18.5C3.75016 19.7426 4.75751 20.75 6.00016 20.75H15.0002C16.2428 20.75 17.2502 19.7426 17.2502 18.5V16.75V15.25V9.5C17.2502 8.25736 16.2428 7.25 15.0002 7.25H9.25016H7.75016ZM15.0002 8.75C15.4144 8.75 15.7502 9.08579 15.7502 9.5V15.9558L13.4851 13.8525C12.789 13.206 11.7619 13.0665 10.9186 13.5037L5.25016 16.4421L5.25016 9.5C5.25016 9.08579 5.58594 8.75 6.00016 8.75H15.0002ZM6.00016 19.25C5.58594 19.25 5.25016 18.9142 5.25016 18.5V18.1317L11.6089 14.8354C11.89 14.6896 12.2324 14.7362 12.4644 14.9516L15.7502 18.0028V18.5C15.7502 18.9142 15.4144 19.25 15.0002 19.25H6.00016Z" fill="#323544"/>
<path opacity="0.4" d="M10 3.25C8.75736 3.25 7.75 4.25736 7.75 5.5V7.25H9.25V5.5C9.25 5.08579 9.58579 4.75 10 4.75H19C19.4142 4.75 19.75 5.08579 19.75 5.5V14.5C19.75 14.9142 19.4142 15.25 19 15.25H17.25V16.75H19C20.2426 16.75 21.25 15.7426 21.25 14.5V5.5C21.25 4.25736 20.2426 3.25 19 3.25H10Z" fill="#323544"/>
</svg>
