<svg width="25" height="24" viewBox="0 0 25 24" fill="none" xmlns="http://www.w3.org/2000/svg">
<path opacity="0.4" d="M18.7178 12.6017C19.0602 12.4363 19.4793 12.554 19.6826 12.8849C19.8994 13.2379 19.7885 13.7004 19.4355 13.9171L9.55273 19.9855L9.48535 20.0226C9.14301 20.1879 8.7238 20.0702 8.52051 19.7394C8.30377 19.3864 8.4146 18.9239 8.76758 18.7072L18.6504 12.6388L18.7178 12.6017ZM6.125 18.0685V5.93081C6.125 5.51659 6.46079 5.18081 6.875 5.18081C7.28921 5.18081 7.625 5.51659 7.625 5.93081V18.0685C7.62485 18.4826 7.28912 18.8185 6.875 18.8185C6.46088 18.8185 6.12515 18.4826 6.125 18.0685ZM8.52051 4.25991C8.72378 3.92887 9.1429 3.81127 9.48535 3.97671L9.55273 4.01381L19.4355 10.0822C19.7884 10.2989 19.8991 10.7605 19.6826 11.1134C19.4659 11.4664 19.0034 11.5772 18.6504 11.3605L8.76758 5.29116L8.7041 5.24819C8.40193 5.01757 8.31733 4.59082 8.52051 4.25991Z" fill="#323544"/>
<path d="M6.125 18.0686C6.1251 17.6545 6.46085 17.3186 6.875 17.3186C7.26343 17.3186 7.58283 17.6141 7.62109 17.9924L7.625 18.0686C7.625 18.655 8.26786 19.015 8.76758 18.7082L8.83496 18.6711C9.17723 18.5061 9.59559 18.6236 9.79883 18.9543C10.0155 19.3073 9.90563 19.7698 9.55273 19.9865L9.41016 20.0666C7.98178 20.8134 6.24169 19.8397 6.13086 18.2317L6.125 18.0686ZM18.4043 10.3293C18.621 9.9765 19.0826 9.86577 19.4355 10.0823L19.5654 10.1682C20.8646 11.0893 20.8211 13.0664 19.4355 13.9172L19.3682 13.9543C19.0259 14.1193 18.6075 14.0017 18.4043 13.6711C18.1876 13.3182 18.2976 12.8557 18.6504 12.6389L18.7344 12.5793C19.1254 12.2609 19.0973 11.635 18.6504 11.3606L18.5879 11.3176C18.2855 11.087 18.201 10.6604 18.4043 10.3293ZM6.125 5.93088C6.1253 4.17189 8.05368 3.09342 9.55273 4.01389C9.90544 4.23067 10.0154 4.69227 9.79883 5.04514C9.58211 5.39808 9.12054 5.50886 8.76758 5.29221C8.26797 4.98544 7.6253 5.34471 7.625 5.93088L7.62109 6.00803C7.58266 6.3862 7.26331 6.68088 6.875 6.68088C6.48669 6.68088 6.16734 6.3862 6.12891 6.00803L6.125 5.93088Z" fill="#323544"/>
</svg>
