<svg width="25" height="24" viewBox="0 0 25 24" fill="none" xmlns="http://www.w3.org/2000/svg">
<path opacity="0.4" d="M17.5781 6.02265C17.5072 5.52365 16.9599 5.23438 16.5078 5.45722L16.4131 5.51289L7.81542 11.3811C7.37916 11.6788 7.37916 12.3225 7.81542 12.6203L16.4131 18.4885L16.5078 18.5441C16.9599 18.767 17.5073 18.4778 17.5781 17.9787L17.5859 17.8684V6.133L17.5781 6.02265ZM19.0859 17.8684L19.0801 18.0363C18.9636 19.6868 17.1378 20.651 15.709 19.8166L15.5674 19.7268L6.96971 13.8596C5.66104 12.9663 5.66124 11.0361 6.96971 10.1428L15.5674 4.27461L15.709 4.18476C17.1855 3.32259 19.0859 4.38136 19.0859 6.133V17.8684Z" fill="#323544"/>
<path d="M5.91406 19.5V4.5C5.91406 4.08579 6.24985 3.75 6.66406 3.75C7.07828 3.75 7.41406 4.08579 7.41406 4.5V19.5C7.41404 19.9142 7.07826 20.25 6.66406 20.25C6.24987 20.25 5.91409 19.9142 5.91406 19.5Z" fill="#323544"/>
</svg>
