<svg width="25" height="24" viewBox="0 0 25 24" fill="none" xmlns="http://www.w3.org/2000/svg">
<path opacity="0.4" d="M6.31348 5.75C6.96738 5.75 7.5892 6.03441 8.0166 6.5293L11.75 10.8525L15.4834 6.5293L15.6523 6.35352C16.0666 5.96752 16.6144 5.75 17.1865 5.75H21.75L21.8271 5.75391C22.2052 5.79248 22.5 6.11181 22.5 6.5C22.5 6.8882 22.2052 7.20752 21.8271 7.24609L21.75 7.25H17.1865C16.9957 7.25 16.8129 7.32243 16.6748 7.45117L16.6191 7.50977L12.7402 12L16.6191 16.4902L16.6748 16.5488C16.8129 16.6776 16.9957 16.75 17.1865 16.75H21.75L21.8271 16.7539C22.2052 16.7925 22.5 17.1118 22.5 17.5C22.5 17.8882 22.2052 18.2075 21.8271 18.2461L21.75 18.25H17.1865C16.6143 18.25 16.0666 18.0325 15.6523 17.6465L15.4834 17.4707L11.75 13.1465L8.0166 17.4707C7.5892 17.9656 6.96737 18.25 6.31348 18.25H3.25C2.83579 18.25 2.5 17.9142 2.5 17.5C2.50006 17.0858 2.83582 16.75 3.25 16.75H6.31348C6.53141 16.75 6.7384 16.6552 6.88086 16.4902L10.7588 12L6.88086 7.50977C6.7384 7.34492 6.53136 7.25 6.31348 7.25H3.25C2.83579 7.25 2.5 6.91421 2.5 6.5C2.50006 6.08583 2.83582 5.75 3.25 5.75H6.31348Z" fill="#323544"/>
<path d="M18.9698 14.7198C19.2443 14.4452 19.6791 14.4278 19.9737 14.668L20.0303 14.7198L22.2803 16.9698L22.3321 17.0264C22.5724 17.321 22.5549 17.7557 22.2803 18.0303L20.0303 20.2803C19.7374 20.5732 19.2626 20.5732 18.9698 20.2803C18.6769 19.9874 18.6769 19.5127 18.9698 19.2198L20.6895 17.5001L18.9698 15.7803L18.918 15.7237C18.6778 15.4292 18.6953 14.9944 18.9698 14.7198ZM18.9698 3.71979C19.2443 3.44522 19.6791 3.42783 19.9737 3.66803L20.0303 3.71979L22.2803 5.96979L22.3321 6.02643C22.5724 6.32101 22.5549 6.75574 22.2803 7.03034L20.0303 9.28034C19.7374 9.57323 19.2626 9.57323 18.9698 9.28034C18.6769 8.98744 18.6769 8.51268 18.9698 8.21979L20.6895 6.50006L18.9698 4.78034L18.918 4.72369C18.6778 4.42915 18.6953 3.99437 18.9698 3.71979Z" fill="#323544"/>
</svg>
