<svg width="25" height="24" viewBox="0 0 25 24" fill="none" xmlns="http://www.w3.org/2000/svg">
<path d="M17.0768 8.83605C18.6384 10.5751 18.6384 13.4248 17.0768 15.1639C16.8001 15.4721 16.8256 15.9463 17.1338 16.223C17.442 16.4998 17.9162 16.4743 18.1929 16.1661C20.2664 13.8569 20.2664 10.143 18.1929 7.83389C17.9162 7.52569 17.442 7.50019 17.1338 7.77693C16.8256 8.05366 16.8001 8.52785 17.0768 8.83605Z" fill="#323544"/>
<path d="M19.2657 16.8858C21.5781 14.1985 21.5781 9.80149 19.2657 7.11419C18.9956 6.80022 19.0311 6.32667 19.3451 6.0565C19.659 5.78634 20.1326 5.82185 20.4027 6.13583C23.199 9.38559 23.199 14.6144 20.4027 17.8642C20.1326 18.1782 19.659 18.2137 19.3451 17.9435C19.0311 17.6734 18.9956 17.1998 19.2657 16.8858Z" fill="#323544"/>
<path d="M14.9853 10.6529C15.6728 11.4174 15.6728 12.5826 14.9853 13.3471C14.7083 13.6551 14.7335 14.1293 15.0415 14.4063C15.3495 14.6833 15.8237 14.6581 16.1006 14.3501C17.301 13.0153 17.301 10.9847 16.1006 9.64988C15.8237 9.34189 15.3495 9.31674 15.0415 9.59371C14.7335 9.87068 14.7083 10.3449 14.9853 10.6529Z" fill="#323544"/>
<path opacity="0.4" d="M13.75 6.34034C13.75 4.39892 11.4562 3.36887 10.0052 4.65867L6.80858 7.50009H4.75C3.50736 7.50009 2.5 8.50745 2.5 9.75009V14.2501C2.5 15.4927 3.50736 16.5001 4.75 16.5001H6.80862L10.0052 19.3415C11.4562 20.6313 13.75 19.6012 13.75 17.6598V6.34034ZM11.0017 5.77978C11.4854 5.34985 12.25 5.6932 12.25 6.34034V17.6598C12.25 18.3069 11.4854 18.6503 11.0017 18.2204L7.59204 15.1895C7.45475 15.0675 7.27745 15.0001 7.09377 15.0001H4.75C4.33579 15.0001 4 14.6643 4 14.2501V9.75009C4 9.33587 4.33579 9.00009 4.75 9.00009H7.09373C7.27742 9.00009 7.45472 8.93268 7.592 8.81064L11.0017 5.77978Z" fill="#323544"/>
</svg>
