<svg width="25" height="24" viewBox="0 0 25 24" fill="none" xmlns="http://www.w3.org/2000/svg">
<path opacity="0.4" d="M13.75 6.34034C13.75 4.39892 11.4562 3.36887 10.0052 4.65867L6.80858 7.50009H4.75C3.50736 7.50009 2.5 8.50745 2.5 9.75009V14.2501C2.5 15.4927 3.50736 16.5001 4.75 16.5001H6.80862L10.0052 19.3415C11.4562 20.6313 13.75 19.6012 13.75 17.6598V6.34034ZM11.0017 5.77978C11.4854 5.34985 12.25 5.6932 12.25 6.34034V17.6598C12.25 18.3069 11.4854 18.6503 11.0017 18.2204L7.59204 15.1895C7.45475 15.0675 7.27745 15.0001 7.09377 15.0001H4.75C4.33579 15.0001 4 14.6643 4 14.2501V9.75009C4 9.33587 4.33579 9.00009 4.75 9.00009H7.09373C7.27742 9.00009 7.45472 8.93268 7.592 8.81064L11.0017 5.77978Z" fill="#323544"/>
<path d="M14.9853 10.6538C15.6728 11.4184 15.6728 12.5836 14.9853 13.3481C14.7083 13.6561 14.7335 14.1303 15.0415 14.4073C15.3495 14.6842 15.8237 14.6591 16.1006 14.3511C17.301 13.0162 17.301 10.9857 16.1006 9.65085C15.8237 9.34286 15.3495 9.31771 15.0415 9.59468C14.7335 9.87165 14.7083 10.3459 14.9853 10.6538Z" fill="#323544"/>
</svg>
