<svg width="25" height="24" viewBox="0 0 25 24" fill="none" xmlns="http://www.w3.org/2000/svg">
<path d="M3.78082 2.21967C3.48792 1.92678 3.01305 1.92678 2.72016 2.21967C2.42726 2.51256 2.42726 2.98744 2.72016 3.28033L6.87798 7.43815L6.80858 7.49984H4.75C3.50736 7.49984 2.5 8.5072 2.5 9.74984V14.2498C2.5 15.4925 3.50736 16.4998 4.75 16.4998H6.80862L10.0052 19.3412C11.4562 20.631 13.75 19.601 13.75 17.6596V14.3102L21.2192 21.7794C21.5121 22.0722 21.9869 22.0722 22.2798 21.7794C22.5727 21.4865 22.5727 21.0116 22.2798 20.7187L3.78082 2.21967ZM12.25 12.8102V17.6596C12.25 18.3067 11.4854 18.6501 11.0017 18.2201L7.59204 15.1893C7.45475 15.0673 7.27745 14.9998 7.09377 14.9998H4.75C4.33579 14.9998 4 14.6641 4 14.2498V9.74984C4 9.33563 4.33579 8.99984 4.75 8.99984H7.09373C7.27742 8.99984 7.45472 8.93243 7.592 8.8104L7.94048 8.50065L12.25 12.8102Z" fill="#323544"/>
<g opacity="0.4">
<path d="M12.2498 6.34034V8.66159L13.7498 10.1616V6.34034C13.7498 4.39892 11.456 3.36887 10.005 4.65867L9.07422 5.48601L10.1367 6.5485L11.0015 5.77978C11.4852 5.34985 12.2498 5.6932 12.2498 6.34034Z" fill="#323544"/>
<path d="M15.4988 11.9106L16.79 13.2018C17.2209 12.0137 16.9911 10.6404 16.1005 9.64999C15.8235 9.342 15.3493 9.31685 15.0413 9.59382C14.7333 9.87079 14.7082 10.345 14.9851 10.653C15.3076 11.0116 15.4788 11.4584 15.4988 11.9106Z" fill="#323544"/>
<path d="M17.7517 14.1635L18.8563 15.2681C20.2356 12.976 20.0145 9.86282 18.1928 7.834C17.916 7.5258 17.4418 7.5003 17.1336 7.77704C16.8254 8.05378 16.7999 8.52796 17.0767 8.83617C18.3656 10.2717 18.5907 12.4638 17.7517 14.1635Z" fill="#323544"/>
</g>
</svg>
