<svg width="25" height="24" viewBox="0 0 25 24" fill="none" xmlns="http://www.w3.org/2000/svg">
<path opacity="0.4" d="M10.0052 4.65867C11.4562 3.36887 13.75 4.39892 13.75 6.34034V17.6598C13.75 19.6012 11.4562 20.6313 10.0052 19.3415L6.80862 16.5001H4.75C3.50736 16.5001 2.5 15.4927 2.5 14.2501V9.75009C2.5 8.50745 3.50736 7.50009 4.75 7.50009H6.80858L10.0052 4.65867ZM12.25 6.34034C12.25 5.6932 11.4854 5.34985 11.0017 5.77978L7.592 8.81064C7.45472 8.93268 7.27742 9.00009 7.09373 9.00009H4.75C4.33579 9.00009 4 9.33587 4 9.75009V14.2501C4 14.6643 4.33579 15.0001 4.75 15.0001H7.09377C7.27745 15.0001 7.45475 15.0675 7.59204 15.1895L11.0017 18.2204C11.4854 18.6503 12.25 18.3069 12.25 17.6598V6.34034Z" fill="#323544"/>
<path d="M17.0768 15.1649C18.6384 13.4258 18.6384 10.5761 17.0768 8.83703C16.8001 8.52882 16.8256 8.05464 17.1338 7.7779C17.442 7.50116 17.9162 7.52666 18.1929 7.83486C20.2664 10.144 20.2664 13.8579 18.1929 16.167C17.9162 16.4752 17.442 16.5007 17.1338 16.224C16.8256 15.9473 16.8001 15.4731 17.0768 15.1649Z" fill="#323544"/>
<path d="M14.9853 10.6538C15.6728 11.4184 15.6728 12.5836 14.9853 13.3481C14.7083 13.6561 14.7335 14.1303 15.0415 14.4073C15.3495 14.6842 15.8237 14.6591 16.1006 14.3511C17.301 13.0162 17.301 10.9857 16.1006 9.65085C15.8237 9.34286 15.3495 9.31771 15.0415 9.59468C14.7335 9.87165 14.7083 10.3459 14.9853 10.6538Z" fill="#323544"/>
</svg>
