<svg width="24" height="24" viewBox="0 0 24 24" fill="none" xmlns="http://www.w3.org/2000/svg">
<path d="M7 12.125C6.58579 12.125 6.25 12.4608 6.25 12.875C6.25 13.2892 6.58579 13.625 7 13.625H8.5C8.91421 13.625 9.25 13.2892 9.25 12.875C9.25 12.4608 8.91421 12.125 8.5 12.125H7Z" fill="#323544"/>
<path d="M14.75 12.875C14.75 12.4608 15.0858 12.125 15.5 12.125H17C17.4142 12.125 17.75 12.4608 17.75 12.875C17.75 13.2892 17.4142 13.625 17 13.625H15.5C15.0858 13.625 14.75 13.2892 14.75 12.875Z" fill="#323544"/>
<path fill-rule="evenodd" clip-rule="evenodd" d="M7.69864 3.25C6.76042 3.25 5.92068 3.83218 5.59159 4.7108L3.70609 9.74479C2.96444 10.4299 2.5 11.4107 2.5 12.5V13.25C2.5 14.7877 3.42557 16.1093 4.75 16.688V18C4.75 18.8284 5.42157 19.5 6.25 19.5C7.07843 19.5 7.75 18.8284 7.75 18V17H16.25V18C16.25 18.8284 16.9216 19.5 17.75 19.5C18.5784 19.5 19.25 18.8284 19.25 18V16.688C20.5744 16.1093 21.5 14.7877 21.5 13.25V12.5C21.5 11.4101 21.0351 10.4289 20.2927 9.74369L18.4076 4.7108C18.0785 3.83218 17.2388 3.25 16.3006 3.25H7.69864ZM17.75 15.5C18.9926 15.5 20 14.4926 20 13.25V12.5C20 11.2574 18.9926 10.25 17.75 10.25H6.25C5.00736 10.25 4 11.2574 4 12.5V13.25C4 14.4926 5.00736 15.5 6.25 15.5H17.75ZM18.3358 8.79549L17.0029 5.23693C16.8932 4.94406 16.6133 4.75 16.3006 4.75H7.69864C7.3859 4.75 7.10598 4.94406 6.99629 5.23693L5.66337 8.79562C5.85451 8.76559 6.05043 8.75 6.25 8.75H17.75C17.9493 8.75 18.1449 8.76554 18.3358 8.79549Z" fill="#323544"/>
</svg>
