<svg width="24" height="24" viewBox="0 0 24 24" fill="none" xmlns="http://www.w3.org/2000/svg">
<path fill-rule="evenodd" clip-rule="evenodd" d="M4.25 4.5C3.00736 4.5 2 5.50736 2 6.75V16.5C2 17.7426 3.00736 18.75 4.25 18.75H5.17071C5.58254 19.9152 6.69378 20.75 8 20.75C9.30622 20.75 10.4175 19.9152 10.8293 18.75H21.25C21.6642 18.75 22 18.4142 22 18C22 17.5858 21.6642 17.25 21.25 17.25H20.25V9.75C20.25 6.85051 17.8995 4.5 15 4.5H4.25ZM10.9585 17.25H18.75V9.75C18.75 7.67893 17.0711 6 15 6H4.25C3.83579 6 3.5 6.33579 3.5 6.75V16.5C3.5 16.9142 3.83579 17.25 4.25 17.25H5.04148C5.27952 15.8311 6.5135 14.75 8 14.75C9.4865 14.75 10.7205 15.8311 10.9585 17.25ZM6.5 17.75C6.5 16.9216 7.17157 16.25 8 16.25C8.82843 16.25 9.5 16.9216 9.5 17.75C9.5 18.5784 8.82843 19.25 8 19.25C7.17157 19.25 6.5 18.5784 6.5 17.75Z" fill="#323544"/>
</svg>
