<svg width="24" height="24" viewBox="0 0 24 24" fill="none" xmlns="http://www.w3.org/2000/svg">
<path d="M14.8985 19.1487C14.8985 19.1487 15.0017 13.205 8.74983 13.205C2.49801 13.205 2.60118 19.1487 2.60118 19.1487M14.1072 5.10514C14.4732 4.94215 14.8785 4.85156 15.3049 4.85156C16.9325 4.85156 18.2519 6.17095 18.2519 7.79851C18.2519 9.42606 16.9325 10.7455 15.3049 10.7455C14.8802 10.7455 14.4765 10.6556 14.1118 10.4939M15.7928 13.2205C21.4958 13.5543 21.3987 19.1487 21.3987 19.1487M11.7517 7.79855C11.7517 9.4261 10.4323 10.7455 8.80475 10.7455C7.17719 10.7455 5.8578 9.4261 5.8578 7.79855C5.8578 6.171 7.17719 4.8516 8.80475 4.8516C10.4323 4.8516 11.7517 6.171 11.7517 7.79855Z" stroke="#323544" stroke-width="1.5" stroke-linecap="round" stroke-linejoin="round"/>
</svg>
