<svg width="24" height="25" viewBox="0 0 24 25" fill="none" xmlns="http://www.w3.org/2000/svg">
<g opacity="0.4">
<path d="M4.5 20.25V10.2508H10.0004C11.2436 10.2508 12.2512 9.24244 12.2504 7.99924L12.2474 2.5H17.25C18.4926 2.5 19.5 3.50736 19.5 4.75V11.718C19.1865 11.8257 18.8921 12.0046 18.642 12.2548L16.6243 14.2724L14.6066 12.2547C13.7279 11.376 12.3033 11.376 11.4246 12.2547C10.546 13.1334 10.546 14.558 11.4246 15.4367L13.4423 17.4544L11.4246 19.4721C10.5956 20.3011 10.5488 21.6161 11.284 22.5H6.75C5.50736 22.5 4.5 21.4926 4.5 20.25Z" fill="#323544"/>
<path d="M10.5262 3.15951C10.5961 3.08957 10.6701 3.02471 10.7477 2.96516L10.7504 8.0003C10.7507 8.41473 10.4148 8.75084 10.0004 8.75084H4.96533C5.02455 8.6737 5.08902 8.60008 5.15851 8.53055L10.5262 3.15951Z" fill="#323544"/>
</g>
<path d="M12.4853 13.3154C12.7782 13.0225 13.2531 13.0225 13.546 13.3154L16.6243 16.3937L19.7026 13.3155C19.9955 13.0226 20.4704 13.0226 20.7633 13.3155C21.0562 13.6084 21.0562 14.0832 20.7633 14.3761L17.685 17.4544L20.7633 20.5327C21.0562 20.8256 21.0562 21.3005 20.7633 21.5933C20.4704 21.8862 19.9955 21.8862 19.7026 21.5933L16.6243 18.5151L13.546 21.5934C13.2531 21.8863 12.7782 21.8863 12.4853 21.5934C12.1924 21.3005 12.1924 20.8257 12.4853 20.5328L15.5637 17.4544L12.4853 14.376C12.1924 14.0831 12.1924 13.6083 12.4853 13.3154Z" fill="#323544"/>
</svg>
