<svg width="24" height="25" viewBox="0 0 24 25" fill="none" xmlns="http://www.w3.org/2000/svg">
<g opacity="0.4">
<path d="M4.5 20.25V10.2508H10.0004C11.2436 10.2508 12.2512 9.24244 12.2504 7.99924L12.2474 2.5H17.25C18.4926 2.5 19.5 3.50736 19.5 4.75V12.25H10.5C9.67157 12.25 9 12.9216 9 13.75V18.0058C9 18.8342 9.67157 19.5058 10.5 19.5058H19.5V20.25C19.5 21.4926 18.4926 22.5 17.25 22.5H6.75C5.50736 22.5 4.5 21.4926 4.5 20.25Z" fill="#323544"/>
<path d="M10.5262 3.15951C10.5961 3.08957 10.6701 3.02471 10.7477 2.96516L10.7504 8.0003C10.7507 8.41473 10.4148 8.75084 10.0004 8.75084H4.96533C5.02455 8.6737 5.08902 8.60008 5.15851 8.53055L10.5262 3.15951Z" fill="#323544"/>
</g>
<path d="M11.3543 17.9701C11.3704 17.9862 11.3926 17.9943 11.4208 17.9943H14.3291C14.3574 17.9943 14.3795 17.9862 14.3957 17.9701C14.4118 17.954 14.4198 17.9318 14.4198 17.9036V17.1115C14.4198 17.0833 14.4118 17.0611 14.3957 17.045C14.3795 17.0289 14.3574 17.0208 14.3291 17.0208H12.624C12.6119 17.0208 12.6039 17.0168 12.5998 17.0087C12.5958 17.0006 12.5978 16.9926 12.6059 16.9845L14.3775 14.838C14.4057 14.8098 14.4198 14.7715 14.4198 14.7231V13.8524C14.4198 13.8242 14.4118 13.802 14.3957 13.7859C14.3795 13.7698 14.3574 13.7617 14.3291 13.7617H11.4208C11.3926 13.7617 11.3704 13.7698 11.3543 13.7859C11.3381 13.802 11.3301 13.8242 11.3301 13.8524V14.6445C11.3301 14.6727 11.3381 14.6949 11.3543 14.711C11.3704 14.7271 11.3926 14.7352 11.4208 14.7352H13.1138C13.1259 14.7352 13.134 14.7392 13.138 14.7473C13.142 14.7554 13.14 14.7634 13.1319 14.7715L11.3724 16.918C11.3442 16.9502 11.3301 16.9865 11.3301 17.0268V17.9036C11.3301 17.9318 11.3381 17.954 11.3543 17.9701Z" fill="#323544"/>
<path d="M14.907 17.9943C14.8787 17.9943 14.8566 17.9862 14.8405 17.9701C14.8243 17.954 14.8163 17.9318 14.8163 17.9036V13.8524C14.8163 13.8242 14.8243 13.802 14.8405 13.7859C14.8566 13.7698 14.8787 13.7617 14.907 13.7617H15.8623C15.8905 13.7617 15.9127 13.7698 15.9288 13.7859C15.945 13.802 15.953 13.8242 15.953 13.8524V17.9036C15.953 17.9318 15.945 17.954 15.9288 17.9701C15.9127 17.9862 15.8905 17.9943 15.8623 17.9943H14.907Z" fill="#323544"/>
<path d="M19.0224 13.9371C18.8048 13.8202 18.5528 13.7617 18.2666 13.7617H16.495C16.4668 13.7617 16.4446 13.7698 16.4285 13.7859C16.4124 13.802 16.4043 13.8242 16.4043 13.8524V17.9036C16.4043 17.9318 16.4124 17.954 16.4285 17.9701C16.4446 17.9862 16.4668 17.9943 16.495 17.9943H17.4503C17.4786 17.9943 17.5007 17.9862 17.5169 17.9701C17.533 17.954 17.541 17.9318 17.541 17.9036V16.5431C17.541 16.523 17.5511 16.5129 17.5713 16.5129H18.2122C18.5065 16.5129 18.7665 16.4564 18.9922 16.3436C19.2179 16.2307 19.3933 16.0715 19.5183 15.8659C19.6432 15.6603 19.7057 15.4225 19.7057 15.1524C19.7057 14.8783 19.6452 14.6364 19.5243 14.4268C19.4074 14.2132 19.2401 14.0499 19.0224 13.9371ZM18.0792 15.6059H17.5713C17.5511 15.6059 17.541 15.5958 17.541 15.5757V14.7654C17.541 14.7453 17.5511 14.7352 17.5713 14.7352H18.0792C18.2283 14.7352 18.3472 14.7755 18.4359 14.8561C18.5286 14.9368 18.575 15.0436 18.575 15.1766C18.575 15.3056 18.5286 15.4104 18.4359 15.491C18.3472 15.5676 18.2283 15.6059 18.0792 15.6059Z" fill="#323544"/>
</svg>
