<svg width="24" height="25" viewBox="0 0 24 25" fill="none" xmlns="http://www.w3.org/2000/svg">
<g opacity="0.4">
<path d="M4.5 20.25V10.2508H10.0004C11.2436 10.2508 12.2512 9.24244 12.2504 7.99924L12.2474 2.5H17.25C18.4926 2.5 19.5 3.50736 19.5 4.75V10.8782C18.6253 10.4749 17.6514 10.25 16.625 10.25C12.828 10.25 9.75 13.328 9.75 17.125C9.75 19.3006 10.7606 21.2403 12.338 22.5H6.75C5.50736 22.5 4.5 21.4926 4.5 20.25Z" fill="#323544"/>
<path d="M10.5262 3.15951C10.5961 3.08957 10.6701 3.02471 10.7477 2.96516L10.7504 8.0003C10.7507 8.41473 10.4148 8.75084 10.0004 8.75084H4.96533C5.02455 8.6737 5.08902 8.60008 5.15851 8.53055L10.5262 3.15951Z" fill="#323544"/>
</g>
<path d="M16.625 11.75C13.6565 11.75 11.25 14.1565 11.25 17.125C11.25 20.0935 13.6565 22.5 16.625 22.5C19.5935 22.5 22 20.0935 22 17.125C22 14.1565 19.5935 11.75 16.625 11.75ZM16.6251 14.7498C17.0393 14.7498 17.3751 15.0855 17.3751 15.4998V16.3748H18.2502C18.6644 16.3748 19.0002 16.7106 19.0002 17.1248C19.0002 17.539 18.6644 17.8748 18.2502 17.8748H17.3751V18.7499C17.3751 19.1642 17.0393 19.4999 16.6251 19.4999C16.2109 19.4999 15.8751 19.1642 15.8751 18.7499V17.8748H15C14.5858 17.8748 14.25 17.539 14.25 17.1248C14.25 16.7106 14.5858 16.3748 15 16.3748H15.8751V15.4998C15.8751 15.0855 16.2109 14.7498 16.6251 14.7498Z" fill="#323544"/>
</svg>
