<svg width="24" height="25" viewBox="0 0 24 25" fill="none" xmlns="http://www.w3.org/2000/svg">
<path d="M9.32285 2.96471C9.24493 3.02445 9.1706 3.08954 9.10044 3.15975L4.75129 7.51162C4.68186 7.58109 4.61745 7.65463 4.55827 7.73169H8.57461C8.98903 7.73169 9.3249 7.39557 9.32461 6.98115L9.32285 2.96471Z" fill="#323544"/>
<path d="M4.09277 9.23169V17.2335C4.09277 18.4761 5.10013 19.4835 6.34277 19.4835H14.6414C15.884 19.4835 16.8914 18.4761 16.8914 17.2335V4.75024C16.8914 3.5076 15.884 2.50024 14.6414 2.50024H10.8226L10.8246 6.98008C10.8254 8.22325 9.81781 9.23169 8.57461 9.23169H4.09277Z" fill="#323544"/>
<path opacity="0.4" d="M19.1577 5.43304C19.5719 5.43304 19.9077 5.76883 19.9077 6.18304V17.75C19.9077 20.3733 17.781 22.5 15.1577 22.5H7.79883C7.38461 22.5 7.04883 22.1642 7.04883 21.75C7.04883 21.3358 7.38461 21 7.79883 21H15.1577C16.9526 21 18.4077 19.5449 18.4077 17.75V6.18304C18.4077 5.76883 18.7435 5.43304 19.1577 5.43304Z" fill="#323544"/>
</svg>
