<svg width="24" height="25" viewBox="0 0 24 25" fill="none" xmlns="http://www.w3.org/2000/svg">
<g opacity="0.4">
<path d="M4.5 20.25V10.2508H10.0004C11.2436 10.2508 12.2512 9.24244 12.2504 7.99924L12.2474 2.5H17.25C18.4926 2.5 19.5 3.50736 19.5 4.75V11.2956C18.7047 10.6816 17.7075 10.3164 16.625 10.3164C14.0243 10.3164 11.916 12.4247 11.916 15.0254C11.916 16.2681 12.9234 17.2754 14.166 17.2754C14.4038 17.2754 14.6329 17.2385 14.8481 17.1702C14.5786 17.6641 14.375 18.2721 14.375 18.9844C14.375 19.4905 14.5421 19.9576 14.8242 20.3335C14.5421 20.7094 14.375 21.1765 14.375 21.6826C14.375 21.971 14.4293 22.2466 14.5281 22.5H6.75C5.50736 22.5 4.5 21.4926 4.5 20.25Z" fill="#323544"/>
<path d="M10.5262 3.15951C10.5961 3.08957 10.6701 3.02471 10.7477 2.96516L10.7504 8.0003C10.7507 8.41473 10.4148 8.75084 10.0004 8.75084H4.96533C5.02455 8.6737 5.08902 8.60008 5.15851 8.53055L10.5262 3.15951Z" fill="#323544"/>
</g>
<path d="M16.625 13.3164C15.6812 13.3164 14.916 14.0816 14.916 15.0254C14.916 15.4396 14.5802 15.7754 14.166 15.7754C13.7518 15.7754 13.416 15.4396 13.416 15.0254C13.416 13.2531 14.8527 11.8164 16.625 11.8164C18.3973 11.8164 19.834 13.2531 19.834 15.0254C19.834 16.1145 19.2908 17.0766 18.4639 17.6555C18.1428 17.8804 17.8556 18.1134 17.6526 18.3586C17.4524 18.6004 17.375 18.8034 17.375 18.9844C17.375 19.3986 17.0392 19.7344 16.625 19.7344C16.2108 19.7344 15.875 19.3986 15.875 18.9844C15.875 18.337 16.1627 17.806 16.4972 17.402C16.8289 17.0014 17.2461 16.6771 17.6036 16.4268C18.0468 16.1165 18.334 15.6044 18.334 15.0254C18.334 14.0816 17.5689 13.3164 16.625 13.3164ZM15.875 21.6826C15.875 21.2684 16.2108 20.9326 16.625 20.9326H16.635C17.0492 20.9326 17.385 21.2684 17.385 21.6826C17.385 22.0968 17.0492 22.4326 16.635 22.4326H16.625C16.2108 22.4326 15.875 22.0968 15.875 21.6826Z" fill="#323544"/>
</svg>
