<svg width="24" height="25" viewBox="0 0 24 25" fill="none" xmlns="http://www.w3.org/2000/svg">
<g opacity="0.4">
<path d="M4.5 20.25V10.2508H10.0004C11.2436 10.2508 12.2512 9.24244 12.2504 7.99924L12.2474 2.5H17.25C18.4926 2.5 19.5 3.50736 19.5 4.75V10.8558C18.5288 10.7242 17.5096 11.0316 16.7631 11.7781L11.6049 16.9363C11.0001 17.541 10.6203 18.3343 10.5283 19.1846L10.3392 20.9315C10.2786 21.4923 10.431 22.051 10.7588 22.5H6.75C5.50736 22.5 4.5 21.4926 4.5 20.25Z" fill="#323544"/>
<path d="M10.5262 3.15951C10.5961 3.08957 10.6701 3.02471 10.7477 2.96516L10.7504 8.0003C10.7507 8.41473 10.4148 8.75084 10.0004 8.75084H4.96533C5.02455 8.6737 5.08902 8.60008 5.15851 8.53055L10.5262 3.15951Z" fill="#323544"/>
</g>
<path d="M20.2986 12.8387C19.6152 12.1553 18.5072 12.1553 17.8237 12.8387L17.1382 13.5243L20.2254 16.6115L20.911 15.926C21.5944 15.2425 21.5944 14.1345 20.911 13.4511L20.2986 12.8387Z" fill="#323544"/>
<path d="M19.1647 17.6722L16.0775 14.585L12.6655 17.997C12.3027 18.3598 12.0748 18.8358 12.0196 19.3459L11.8305 21.0928C11.8061 21.3186 11.8853 21.5433 12.0458 21.7038C12.2064 21.8644 12.4311 21.9436 12.6569 21.9192L14.4038 21.7301C14.9139 21.6749 15.3899 21.447 15.7527 21.0842L19.1647 17.6722Z" fill="#323544"/>
</svg>
