<svg width="24" height="25" viewBox="0 0 24 25" fill="none" xmlns="http://www.w3.org/2000/svg">
<path opacity="0.4" d="M4.25 4.25C3.00736 4.25 2 5.25736 2 6.5V18.5C2 19.7426 3.00736 20.75 4.25 20.75H19.75C20.9926 20.75 22 19.7426 22 18.5V9.5C22 8.25736 20.9926 7.25 19.75 7.25H12.25C12.0139 7.25 11.7916 7.13885 11.65 6.95L10.3 5.15C9.87508 4.58344 9.2082 4.25 8.5 4.25H4.25Z" fill="#323544"/>
<path d="M2 6.5C2 5.25736 3.00736 4.25 4.25 4.25H8.5C9.2082 4.25 9.87508 4.58344 10.3 5.15L11.65 6.95C11.7916 7.13885 12.0139 7.25 12.25 7.25H19.75C20.9926 7.25 22 8.25736 22 9.5V18.5C22 19.7426 20.9926 20.75 19.75 20.75H4.25C3.00736 20.75 2 19.7426 2 18.5V6.5ZM4.25 5.75C3.83579 5.75 3.5 6.08579 3.5 6.5V18.5C3.5 18.9142 3.83579 19.25 4.25 19.25H19.75C20.1642 19.25 20.5 18.9142 20.5 18.5V9.5C20.5 9.08579 20.1642 8.75 19.75 8.75H12.25C11.5418 8.75 10.8749 8.41656 10.45 7.85L9.1 6.05C8.95836 5.86115 8.73607 5.75 8.5 5.75H4.25Z" fill="#323544"/>
</svg>
