<svg width="24" height="24" viewBox="0 0 24 24" fill="none" xmlns="http://www.w3.org/2000/svg">
<path d="M9.44531 2.75L10.1953 4.25M14.6953 2.75L13.9453 4.25M17.6514 13.875H20M17.6514 10.5L20 9.75M17.6514 17.25L20 18M4 13.8752H6.34863M4 9.75L6.34863 10.5M4 18L6.34863 17.25M7.875 7.25H16.125C16.9534 7.25 17.625 7.92157 17.625 8.75V15.625C17.625 18.7316 15.1066 21.25 12 21.25C8.8934 21.25 6.375 18.7316 6.375 15.625V8.75C6.375 7.92157 7.04657 7.25 7.875 7.25ZM10.6771 4.25H13.3229C13.8911 4.25 14.4105 4.571 14.6646 5.07918L15.75 7.25H8.25L9.33541 5.07918C9.5895 4.571 10.1089 4.25 10.6771 4.25Z" stroke="#323544" stroke-width="1.5" stroke-linecap="round" stroke-linejoin="round"/>
</svg>
