<svg width="24" height="24" viewBox="0 0 24 24" fill="none" xmlns="http://www.w3.org/2000/svg">
<path d="M15.1137 15.114C15.1633 15.4343 15.1895 15.7786 15.1895 16.1466C15.1895 19.8219 11.9998 21.25 11.9998 21.25C11.9998 21.25 8.81014 19.8219 8.81014 16.1466C8.81014 15.7785 8.83632 15.4341 8.88595 15.1137M15.1137 15.114C15.4341 15.1637 15.7785 15.1899 16.1466 15.1899C19.8219 15.1899 21.25 12.0002 21.25 12.0002C21.25 12.0002 19.8219 8.81055 16.1466 8.81055C15.7784 8.81055 15.434 8.83673 15.1135 8.88637M15.1137 15.114C15.0178 14.4946 14.8342 13.9649 14.5825 13.5273M8.88595 15.1137C8.56565 15.1633 8.22137 15.1895 7.85345 15.1895C4.17806 15.1895 2.75 11.9998 2.75 11.9998C2.75 11.9998 4.17806 8.81014 7.85345 8.81014C8.22132 8.81014 8.56555 8.8363 8.88581 8.88589M8.88595 15.1137C8.98189 14.4944 9.16549 13.9647 9.41712 13.5271M8.88581 8.88589C8.83621 8.5656 8.81006 8.22134 8.81006 7.85345C8.81006 4.17806 11.9997 2.75 11.9997 2.75C11.9997 2.75 15.1894 4.17806 15.1894 7.85345C15.1894 8.22153 15.1632 8.56595 15.1135 8.88637M8.88581 8.88589C8.98174 9.50543 9.16538 10.0353 9.41709 10.4729M15.1135 8.88637C15.0176 9.50556 14.8341 10.0351 14.5825 10.4726M9.41712 13.5271C9.15205 13.0798 8.99989 12.5577 8.99989 12C8.99989 11.4424 9.15204 10.9202 9.41709 10.4729M9.41712 13.5271C9.67448 13.9614 10.0383 14.3253 10.4726 14.5826C10.9199 14.8478 11.4421 15 11.9999 15C12.5576 15 13.0797 14.8478 13.527 14.5828C13.9613 14.3254 14.3251 13.9616 14.5825 13.5273M9.41709 10.4729C9.67449 10.0385 10.0384 9.67463 10.4728 9.41722C10.9201 9.15216 11.4422 9 11.9999 9C12.5576 9 13.0798 9.15221 13.5272 9.41736C13.9614 9.6747 14.3252 10.0384 14.5825 10.4726M14.5825 13.5273C14.8477 13.08 14.9999 12.5578 14.9999 12C14.9999 11.4422 14.8477 10.92 14.5825 10.4726" stroke="#323544" stroke-width="1.5" stroke-linecap="round" stroke-linejoin="round"/>
</svg>
