<svg width="24" height="24" viewBox="0 0 24 24" fill="none" xmlns="http://www.w3.org/2000/svg">
<path d="M9.00867 6.81134C8.5873 5.64513 9.68985 4.53065 10.6792 4.09831C11.6686 3.66596 12.7473 3.71789 13.6503 4.15021M9.00867 6.81134C8.42359 5.72153 6.93069 5.32824 5.86314 5.48978C4.79559 5.65133 3.91054 6.27027 3.37695 7.11737M9.00867 6.81134C7.60509 7.18743 6.51415 8.1479 5.92749 9.36084M9.00867 6.81134C10.4123 6.43525 11.8373 6.72157 12.9518 7.47868M9.00867 6.81134C8.40177 4.81571 7.82209 3.23988 6.65995 2.74316M9.00867 6.81134C10.1903 9.54395 10.8948 11.6653 10.276 16.4763M11.9996 16.3364C8.80243 16.3364 5.93697 17.7564 3.99944 20.0001H19.9997C18.0622 17.7564 15.1967 16.3364 11.9996 16.3364ZM15.9999 10.2508C15.9999 11.3554 16.8953 12.2508 17.9999 12.2508C19.1045 12.2508 19.9999 11.3554 19.9999 10.2508C19.9999 9.14624 19.1045 8.25081 17.9999 8.25081C16.8953 8.25081 15.9999 9.14624 15.9999 10.2508Z" stroke="#323544" stroke-width="1.5" stroke-linecap="round" stroke-linejoin="round"/>
</svg>
