<svg width="24" height="24" viewBox="0 0 24 24" fill="none" xmlns="http://www.w3.org/2000/svg">
<path d="M15.8145 11.2656H15.8146" stroke="#323544" stroke-width="1.8" stroke-linecap="round" stroke-linejoin="round"/>
<path d="M8.99609 10.3008C8.99609 10.5769 8.77224 10.8008 8.49609 10.8008C8.21995 10.8008 7.99609 10.5769 7.99609 10.3008C7.99609 10.0246 8.21995 9.80078 8.49609 9.80078C8.77224 9.80078 8.99609 10.0246 8.99609 10.3008Z" fill="#323544"/>
<path d="M14.4375 7.54688C14.4375 8.09916 13.9898 8.54688 13.4375 8.54688C12.8852 8.54688 12.4375 8.09916 12.4375 7.54688C12.4375 6.99459 12.8852 6.54688 13.4375 6.54688C13.9898 6.54688 14.4375 6.99459 14.4375 7.54688Z" fill="#323544"/>
<path d="M13.75 13.8721L14.3187 19.0871C14.4155 19.9747 13.7203 20.7498 12.8275 20.7498H11.1725C10.2797 20.7498 9.58452 19.9747 9.6813 19.0871L10.25 13.8721M5.48956 13.8723H18.5107C19.1511 13.8723 19.7358 13.4673 19.8584 12.8387C20.7847 8.08861 17.063 3.25 12.0001 3.25C6.93726 3.25 3.21563 8.08861 4.14191 12.8387C4.26448 13.4673 4.84914 13.8723 5.48956 13.8723ZM14.4375 7.54688C14.4375 8.09916 13.9898 8.54688 13.4375 8.54688C12.8852 8.54688 12.4375 8.09916 12.4375 7.54688C12.4375 6.99459 12.8852 6.54688 13.4375 6.54688C13.9898 6.54688 14.4375 6.99459 14.4375 7.54688ZM8.99609 10.3008C8.99609 10.5769 8.77224 10.8008 8.49609 10.8008C8.21995 10.8008 7.99609 10.5769 7.99609 10.3008C7.99609 10.0246 8.21995 9.80078 8.49609 9.80078C8.77224 9.80078 8.99609 10.0246 8.99609 10.3008Z" stroke="#323544" stroke-width="1.5" stroke-linecap="round" stroke-linejoin="round"/>
</svg>
