<svg width="24" height="24" viewBox="0 0 24 24" fill="none" xmlns="http://www.w3.org/2000/svg">
<path d="M8.68945 14.5L8.68945 20.75M16.3574 15.25V20.75M5.732 9.94327C5.08434 9.23249 4.68945 8.28736 4.68945 7.25C4.68945 5.04086 6.48031 3.25 8.68945 3.25C10.8986 3.25 12.6895 5.04086 12.6895 7.25C12.6895 8.2875 12.2945 9.23274 11.6466 9.94355C12.5074 10.7395 13.0463 11.8785 13.0463 13.1433C13.0463 15.5497 11.0956 17.5004 8.68917 17.5004C6.28279 17.5004 4.33203 15.5497 4.33203 13.1433C4.33203 11.8783 4.87108 10.7393 5.732 9.94327ZM14.1677 12.4339C13.4804 11.8273 13.047 10.9398 13.047 9.95112C13.047 8.12278 14.5291 6.64062 16.3575 6.64062C18.1858 6.64062 19.668 8.12278 19.668 9.95112C19.668 10.9399 19.2345 11.8274 18.5472 12.434C19.2344 13.0406 19.6679 13.9281 19.6679 14.9168C19.6679 16.7452 18.1857 18.2273 16.3574 18.2273C14.529 18.2273 13.0469 16.7452 13.0469 14.9168C13.0469 13.9281 13.4804 13.0405 14.1677 12.4339Z" stroke="#323544" stroke-width="1.5" stroke-linecap="round" stroke-linejoin="round"/>
</svg>
