<svg width="25" height="25" viewBox="0 0 25 25" fill="none" xmlns="http://www.w3.org/2000/svg">
<path d="M19.7714 7.19922L19.2173 5.13111C18.8956 3.93081 17.6619 3.2185 16.4616 3.54012L3.90454 6.90476C2.70425 7.22638 1.99193 8.46014 2.31355 9.66044L3.74609 15.0068V10.4492C3.74609 8.65429 5.20117 7.19922 6.99609 7.19922H19.7714Z" fill="#323544"/>
<path d="M22.0736 9.58365C22.1847 9.8501 22.2461 10.1425 22.2461 10.4492C22.2461 10.4489 22.2461 10.4495 22.2461 10.4492L22.2465 11.4434H4.74609V10.4492C4.74609 9.20658 5.75345 8.19922 6.99609 8.19922H19.9961C20.0106 8.19922 20.025 8.19936 20.0395 8.19963C20.9378 8.21656 21.7075 8.76076 22.0526 9.53495C22.0598 9.55108 22.0668 9.56732 22.0736 9.58365Z" fill="#323544"/>
<path d="M22.2465 14.2407H4.74609V18.5159C4.74621 18.5162 4.74598 18.5157 4.74609 18.5159L4.74645 19.1257C4.74645 19.4364 4.80941 19.7323 4.92327 20.0015C4.92845 20.0138 4.93375 20.026 4.93914 20.0382C5.28934 20.8257 6.07859 21.3749 6.99609 21.3749C6.99621 21.3749 6.99598 21.3749 6.99609 21.3749L19.9965 21.3757C21.2391 21.3757 22.2465 20.3684 22.2465 19.1257V14.2407Z" fill="#323544"/>
</svg>
