<svg width="25" height="24" viewBox="0 0 25 24" fill="none" xmlns="http://www.w3.org/2000/svg">
<path d="M2.25 12C2.25 6.47715 6.72715 2 12.25 2C17.7728 2 22.25 6.47715 22.25 12C22.25 17.5228 17.7728 22 12.25 22C6.72715 22 2.25 17.5228 2.25 12ZM13 7.375C13 6.96079 12.6642 6.625 12.25 6.625C11.8358 6.625 11.5 6.96079 11.5 7.375V7.845C10.498 8.07236 9.75 8.96845 9.75 10.0392V10.3043C9.75 11.2422 10.3318 12.0817 11.2099 12.411L12.7634 12.9936C13.0561 13.1034 13.25 13.3832 13.25 13.6959V13.9609C13.25 14.3752 12.9142 14.7109 12.5 14.7109H11.8126C11.5019 14.7109 11.25 14.4591 11.25 14.1483C11.25 13.7341 10.9142 13.3983 10.5 13.3983C10.0858 13.3983 9.75 13.7341 9.75 14.1483C9.75 15.1812 10.5092 16.0368 11.5 16.1874V16.625C11.5 17.0392 11.8358 17.375 12.25 17.375C12.6642 17.375 13 17.0392 13 16.625V16.1552C14.002 15.9278 14.75 15.0317 14.75 13.9609V13.6959C14.75 12.758 14.1682 11.9185 13.2901 11.5891L11.7366 11.0066C11.4439 10.8968 11.25 10.6169 11.25 10.3043V10.0392C11.25 9.62503 11.5858 9.28924 12 9.28924H12.6874C12.9981 9.28924 13.25 9.54113 13.25 9.85184C13.25 10.2661 13.5858 10.6018 14 10.6018C14.4142 10.6018 14.75 10.2661 14.75 9.85184C14.75 8.81897 13.9908 7.96341 13 7.81278V7.375Z" fill="#323544"/>
</svg>
