<svg width="25" height="24" viewBox="0 0 25 24" fill="none" xmlns="http://www.w3.org/2000/svg">
<path d="M12.2495 1.625C12.8708 1.625 13.3745 2.12868 13.3745 2.75V3.94702H14.7974C16.2471 3.94702 17.4224 5.12228 17.4224 6.57202V7.69637C17.4224 8.31769 16.9187 8.82137 16.2974 8.82137C15.6761 8.82137 15.1724 8.31769 15.1724 7.69637V6.57202C15.1724 6.36491 15.0045 6.19702 14.7974 6.19702H9.70312C9.49602 6.19702 9.32812 6.36492 9.32812 6.57202V9.58876C9.32812 9.75131 9.43284 9.89535 9.58747 9.94548L15.607 11.8971C16.6893 12.2481 17.4224 13.2564 17.4224 14.3942V17.4109C17.4224 18.8607 16.2471 20.0359 14.7974 20.0359H13.3745V21.249C13.3745 21.8703 12.8708 22.374 12.2495 22.374C11.6281 22.374 11.1245 21.8703 11.1245 21.249V20.0359H9.70312C8.25338 20.0359 7.07812 18.8607 7.07812 17.4109V16.2866C7.07812 15.6652 7.5818 15.1616 8.20312 15.1616C8.82445 15.1616 9.32812 15.6652 9.32812 16.2866V17.4109C9.32812 17.618 9.49602 17.7859 9.70312 17.7859H14.7974C15.0045 17.7859 15.1724 17.618 15.1724 17.4109V14.3942C15.1724 14.2316 15.0677 14.0876 14.913 14.0375L8.89353 12.0858C7.81117 11.7349 7.07812 10.7266 7.07812 9.58876V6.57202C7.07812 5.12228 8.25338 3.94702 9.70312 3.94702H11.1245V2.75C11.1245 2.12868 11.6281 1.625 12.2495 1.625Z" fill="#323544"/>
</svg>
