<svg width="25" height="24" viewBox="0 0 25 24" fill="none" xmlns="http://www.w3.org/2000/svg">
<path d="M9.22135 11.125C9.18495 11.4115 9.16619 11.7036 9.16619 12C9.16619 12.2964 9.18495 12.5885 9.22135 12.875H14.0334C14.6547 12.875 15.1584 13.3787 15.1584 14C15.1584 14.6213 14.6547 15.125 14.0334 15.125H9.91583C11.0538 17.351 13.3695 18.875 16.0412 18.875C16.9161 18.875 17.7503 18.7121 18.517 18.416C19.0966 18.1922 19.7479 18.4806 19.9717 19.0602C20.1956 19.6398 19.9072 20.2911 19.3276 20.515C18.3064 20.9093 17.1977 21.125 16.0412 21.125C12.0993 21.125 8.74123 18.6255 7.46534 15.125H5.57617C4.95485 15.125 4.45117 14.6213 4.45117 14C4.45117 13.3787 4.95485 12.875 5.57617 12.875H6.9576C6.93021 12.587 6.91619 12.2951 6.91619 12C6.91619 11.7049 6.93021 11.413 6.9576 11.125H5.57716C4.95584 11.125 4.45216 10.6213 4.45216 10C4.45216 9.37868 4.95584 8.875 5.57716 8.875H7.46534C8.74123 5.37447 12.0993 2.875 16.0412 2.875C17.1977 2.875 18.3064 3.09068 19.3276 3.48503C19.9072 3.70886 20.1956 4.36017 19.9717 4.93977C19.7479 5.51937 19.0966 5.80779 18.517 5.58396C17.7503 5.28788 16.9161 5.125 16.0412 5.125C13.3695 5.125 11.0538 6.64895 9.91583 8.875H14.0334C14.6547 8.875 15.1584 9.37868 15.1584 10C15.1584 10.6213 14.6547 11.125 14.0334 11.125H9.22135Z" fill="#323544"/>
</svg>
