<svg width="25" height="24" viewBox="0 0 25 24" fill="none" xmlns="http://www.w3.org/2000/svg">
<path d="M3.5 10.75C3.5 5.91751 7.41751 2 12.25 2C17.0825 2 21 5.91751 21 10.75C21 14.3979 18.8146 17.2112 16.7506 19.0611C15.7092 19.9943 14.6711 20.708 13.8945 21.1883C13.5053 21.4289 13.1798 21.6122 12.9496 21.7363C12.8344 21.7983 12.743 21.8457 12.6791 21.8781C12.6751 21.8801 12.6712 21.8821 12.6675 21.884C12.6411 21.8973 12.62 21.9078 12.6045 21.9154L12.5837 21.9256L12.5775 21.9286L12.5755 21.9296L12.5742 21.9302C12.3693 22.0285 12.1307 22.0285 11.9258 21.9302C11.9258 21.9302 11.9264 21.9305 11.9245 21.9296L11.9225 21.9286L11.9163 21.9256L11.8955 21.9154C11.8778 21.9067 11.8528 21.8943 11.8209 21.8781C11.757 21.8457 11.6656 21.7983 11.5504 21.7363C11.3202 21.6122 10.9947 21.4289 10.6055 21.1883C9.82886 20.708 8.79077 19.9943 7.74944 19.0611C5.68538 17.2112 3.5 14.3979 3.5 10.75ZM13 6.25C13 5.83579 12.6642 5.5 12.25 5.5C11.8358 5.5 11.5 5.83579 11.5 6.25V6.72C10.498 6.94736 9.75 7.84345 9.75 8.91424V9.17932C9.75 10.1172 10.3318 10.9567 11.2099 11.286L12.7634 11.8686C13.0561 11.9784 13.25 12.2582 13.25 12.5709V12.8359C13.25 13.2502 12.9142 13.5859 12.5 13.5859H11.8126C11.5019 13.5859 11.25 13.3341 11.25 13.0233C11.25 12.6091 10.9142 12.2733 10.5 12.2733C10.0858 12.2733 9.75 12.6091 9.75 13.0233C9.75 14.0562 10.5092 14.9118 11.5 15.0624V15.5C11.5 15.9142 11.8358 16.25 12.25 16.25C12.6642 16.25 13 15.9142 13 15.5V15.0302C14.002 14.8028 14.75 13.9067 14.75 12.8359V12.5709C14.75 11.633 14.1682 10.7935 13.2901 10.4641L11.7366 9.88156C11.4439 9.77178 11.25 9.49194 11.25 9.17932V8.91424C11.25 8.50003 11.5858 8.16424 12 8.16424H12.6874C12.9981 8.16424 13.25 8.41613 13.25 8.72684C13.25 9.14106 13.5858 9.47684 14 9.47684C14.4142 9.47684 14.75 9.14106 14.75 8.72684C14.75 7.69397 13.9908 6.83841 13 6.68778V6.25Z" fill="#323544"/>
</svg>
