<svg width="25" height="24" viewBox="0 0 25 24" fill="none" xmlns="http://www.w3.org/2000/svg">
<path d="M14.2251 2.875C11.4085 2.875 9.12516 5.15834 9.12516 7.97498V11.75H6.32805C5.70673 11.75 5.20305 12.2537 5.20305 12.875C5.20305 13.4963 5.70673 14 6.32805 14H9.12516V15.0992C9.12516 16.7399 8.36645 17.6486 7.60764 18.1873C7.21273 18.4677 6.81132 18.6491 6.50615 18.7599C6.35517 18.8146 6.2323 18.8505 6.15189 18.8717C6.11182 18.8823 6.08271 18.8891 6.0664 18.8927L6.05211 18.8958C5.48501 19.0065 5.09351 19.5292 5.14756 20.1051C5.2018 20.6832 5.68703 21.125 6.26764 21.125H18.2322C18.8535 21.125 19.3572 20.6213 19.3572 20C19.3572 19.3787 18.8535 18.875 18.2322 18.875H10.1281C10.8428 17.9766 11.3752 16.7461 11.3752 15.0992V14H14.1734C14.7948 14 15.2984 13.4963 15.2984 12.875C15.2984 12.2537 14.7948 11.75 14.1734 11.75H11.3752V7.97498C11.3752 6.40098 12.6511 5.125 14.2251 5.125C15.7991 5.125 17.0751 6.40098 17.0751 7.97498V8.12755C17.0751 8.74887 17.5788 9.25255 18.2001 9.25255C18.8214 9.25255 19.3251 8.74887 19.3251 8.12755V7.97498C19.3251 5.15834 17.0418 2.875 14.2251 2.875Z" fill="#323544"/>
</svg>
