<svg width="25" height="24" viewBox="0 0 25 24" fill="none" xmlns="http://www.w3.org/2000/svg">
<path d="M5.54108 4C5.54108 3.37868 6.04476 2.875 6.66608 2.875H17.8311C18.4524 2.875 18.9561 3.37868 18.9561 4C18.9561 4.62132 18.4524 5.125 17.8311 5.125H15.2399C15.7733 5.81647 16.1535 6.63226 16.3294 7.52148H17.831C18.4524 7.52148 18.956 8.02516 18.956 8.64648C18.956 9.2678 18.4524 9.77148 17.831 9.77148H16.3302C15.8076 12.4225 13.4702 14.4218 10.6659 14.4218H9.95424L16.0035 19.11C16.4946 19.4906 16.5842 20.1972 16.2036 20.6883C15.823 21.1794 15.1163 21.269 14.6252 20.8884L5.97694 14.1861C5.59678 13.8914 5.44596 13.3877 5.60166 12.9327C5.75735 12.4776 6.18512 12.1718 6.66608 12.1718H10.6659C12.2192 12.1718 13.5377 11.1668 14.0066 9.77148H6.66604C6.04472 9.77148 5.54104 9.2678 5.54104 8.64648C5.54104 8.02516 6.04472 7.52148 6.66604 7.52148H14.0053C13.5353 6.12822 12.2178 5.125 10.6659 5.125H6.66608C6.04476 5.125 5.54108 4.62132 5.54108 4Z" fill="#323544"/>
</svg>
