<svg width="25" height="24" viewBox="0 0 25 24" fill="none" xmlns="http://www.w3.org/2000/svg">
<path d="M11.3156 2.35225C11.9098 2.0805 12.5928 2.0805 13.1871 2.35225L18.9111 4.96991C19.7118 5.33608 20.2253 6.13562 20.2253 7.01607L20.2254 12.4811C20.2254 14.0375 19.7481 15.5838 18.7447 16.8253C17.9444 17.8155 16.8583 19.0727 15.7472 20.089C15.1923 20.5966 14.6131 21.0609 14.0452 21.4022C13.4919 21.7349 12.8712 21.999 12.2514 21.999C11.6317 21.999 11.011 21.7349 10.4576 21.4022C9.88978 21.0608 9.31059 20.5966 8.75563 20.0889C7.64456 19.0726 6.55842 17.8154 5.75814 16.8252C4.75474 15.5837 4.27744 14.0376 4.27742 12.4813L4.27734 7.01612C4.27733 6.13565 4.79089 5.33607 5.5916 4.9699L11.3156 2.35225ZM13.0019 6.24903C13.0019 5.83481 12.6662 5.49903 12.2519 5.49903C11.8377 5.49903 11.5019 5.83481 11.5019 6.24903V6.71902C10.4999 6.94639 9.75194 7.84248 9.75194 8.91327V9.17834C9.75194 10.1162 10.3337 10.9557 11.2119 11.2851L12.7653 11.8677C13.058 11.9774 13.2519 12.2573 13.2519 12.5699V12.835C13.2519 13.2492 12.9162 13.585 12.5019 13.585H11.8145C11.5038 13.585 11.2519 13.3331 11.2519 13.0224C11.2519 12.6082 10.9162 12.2724 10.5019 12.2724C10.0877 12.2724 9.75194 12.6082 9.75194 13.0224C9.75194 14.0552 10.5111 14.9108 11.5019 15.0614V15.499C11.5019 15.9132 11.8377 16.249 12.2519 16.249C12.6662 16.249 13.0019 15.9132 13.0019 15.499V15.0292C14.0039 14.8018 14.7519 13.9058 14.7519 12.835V12.5699C14.7519 11.632 14.1702 10.7925 13.292 10.4632L11.7386 9.88059C11.4459 9.77081 11.2519 9.49097 11.2519 9.17834V8.91327C11.2519 8.49906 11.5877 8.16327 12.0019 8.16327H12.6893C13.0001 8.16327 13.2519 8.41515 13.2519 8.72587C13.2519 9.14008 13.5877 9.47587 14.0019 9.47587C14.4162 9.47587 14.7519 9.14008 14.7519 8.72587C14.7519 7.693 13.9927 6.83744 13.0019 6.6868V6.24903Z" fill="#323544"/>
</svg>
