<svg width="25" height="24" viewBox="0 0 25 24" fill="none" xmlns="http://www.w3.org/2000/svg">
<path d="M5.78263 3.20646C6.22197 2.76712 6.93428 2.76712 7.37362 3.20646L12.2502 8.08305L17.1268 3.20646C17.5661 2.76712 18.2785 2.76712 18.7178 3.20646C19.1571 3.6458 19.1571 4.35811 18.7178 4.79745L13.3752 10.14L13.3752 11.1074H16.5742C17.1955 11.1074 17.6992 11.6111 17.6992 12.2324C17.6992 12.8537 17.1955 13.3574 16.5742 13.3574H13.3751L13.3751 14.1074H16.5742C17.1955 14.1074 17.6992 14.6111 17.6992 15.2324C17.6992 15.8537 17.1955 16.3574 16.5742 16.3574H13.3751L13.375 20.0001C13.375 20.6214 12.8713 21.1251 12.25 21.1251C11.6287 21.1251 11.125 20.6214 11.125 20.0001L11.1251 16.3574H7.92782C7.3065 16.3574 6.80282 15.8537 6.80282 15.2324C6.80282 14.6111 7.3065 14.1074 7.92782 14.1074H11.1251L11.1251 13.3574H7.92782C7.3065 13.3574 6.80282 12.8537 6.80282 12.2324C6.80282 11.6111 7.3065 11.1074 7.92782 11.1074H11.1252L11.1252 10.14L5.78263 4.79745C5.34329 4.35811 5.34329 3.6458 5.78263 3.20646Z" fill="#323544"/>
</svg>
