<svg width="24" height="24" viewBox="0 0 24 24" fill="none" xmlns="http://www.w3.org/2000/svg">
<path d="M7 6.75L7.07715 6.75391C7.45512 6.79253 7.75 7.11183 7.75 7.5V16.5C7.75 16.9142 7.41421 17.25 7 17.25H5.5C4.25736 17.25 3.25 16.2426 3.25 15V9C3.25 7.75736 4.25736 6.75 5.5 6.75H7ZM19.25 9C19.25 8.58579 18.9142 8.25 18.5 8.25H17.75V15.75H18.5C18.9142 15.75 19.25 15.4142 19.25 15V9ZM4.75 15C4.75 15.4142 5.08579 15.75 5.5 15.75H6.25V8.25H5.5C5.08579 8.25 4.75 8.58579 4.75 9V15ZM20.75 15C20.75 16.2426 19.7426 17.25 18.5 17.25H17C16.5858 17.25 16.25 16.9142 16.25 16.5V7.5L16.2539 7.42285C16.2925 7.04488 16.6118 6.75 17 6.75H18.5C19.7426 6.75 20.75 7.75736 20.75 9V15Z" fill="#323544"/>
<g opacity="0.4">
<path d="M3.25 12.75H2.75C2.33579 12.75 2 12.4142 2 12C2 11.5858 2.33579 11.25 2.75 11.25H3.25V12.75Z" fill="#323544"/>
<path d="M21.25 11.25C21.6642 11.25 22 11.5858 22 12C22 12.4142 21.6642 12.75 21.25 12.75H20.75V11.25H21.25Z" fill="#323544"/>
<path d="M16.25 12.75H7.75V11.25H16.25V12.75Z" fill="#323544"/>
</g>
</svg>
