<svg width="24" height="24" viewBox="0 0 24 24" fill="none" xmlns="http://www.w3.org/2000/svg">
<path d="M8.22887 2.57514C8.1322 2.17237 7.72733 1.92422 7.32455 2.02088C6.92177 2.11755 6.67362 2.52243 6.77029 2.9252L7.08558 4.23894C7.31754 5.20543 7.15631 6.22448 6.63732 7.07216L6.03334 8.05866C4.54221 10.4942 4.29543 13.4929 5.36835 16.1394L7.55452 21.5319C7.71015 21.9158 8.14749 22.1008 8.53136 21.9452C8.91523 21.7896 9.10026 21.3523 8.94463 20.9684L6.75846 15.5758C6.51933 14.986 6.35887 14.3751 6.27587 13.7579C7.84411 13.8977 9.10359 14.3628 9.99582 14.8143C10.4975 15.0682 10.8812 15.3168 11.1357 15.4986C11.1772 15.5282 11.2151 15.556 11.2496 15.5818V21.2502C11.2496 21.6644 11.5854 22.0002 11.9996 22.0002C12.4138 22.0002 12.7496 21.6644 12.7496 21.2502V15.5811C12.7838 15.5555 12.8214 15.528 12.8625 15.4986C13.117 15.3168 13.5007 15.0682 14.0024 14.8143C14.8948 14.3627 16.1546 13.8975 17.7233 13.7578C17.6403 14.3751 17.4798 14.986 17.2407 15.5758L15.0545 20.9684C14.8989 21.3523 15.0839 21.7896 15.4678 21.9452C15.8517 22.1008 16.289 21.9158 16.4446 21.5319L18.6308 16.1394C19.7037 13.4929 19.457 10.4942 17.9658 8.05866L17.3618 7.07216C16.8428 6.22448 16.6816 5.20543 16.9136 4.23894L17.2289 2.9252C17.3255 2.52243 17.0774 2.11755 16.6746 2.02088C16.2718 1.92422 15.867 2.17237 15.7703 2.57514L15.455 3.88888C15.1302 5.24197 15.356 6.66864 16.0826 7.85539L16.1118 7.90317C15.8958 8.01556 15.621 8.14764 15.2986 8.27999C14.4415 8.63183 13.2763 8.9738 11.9996 8.9738C10.7228 8.9738 9.55764 8.63183 8.70052 8.27999C8.37812 8.14764 8.10332 8.01556 7.88735 7.90317L7.9166 7.85539C8.64319 6.66864 8.86891 5.24197 8.54417 3.88888L8.22887 2.57514ZM10.6731 13.4759C9.61005 12.938 8.1028 12.3875 6.22631 12.2489C6.29845 11.1887 6.5957 10.1446 7.11199 9.19017C7.37527 9.33016 7.72025 9.49905 8.1309 9.66762C9.10084 10.0658 10.4654 10.4738 11.9996 10.4738C13.5337 10.4738 14.8983 10.0658 15.8683 9.66762C16.2789 9.49905 16.6239 9.33016 16.8872 9.19017C17.4034 10.1446 17.7007 11.1887 17.7728 12.2488C15.8959 12.3873 14.3883 12.9379 13.3251 13.4759C12.7523 13.7658 12.3067 14.0528 11.9991 14.272C11.6915 14.0528 11.2459 13.7658 10.6731 13.4759Z" fill="#323544"/>
<path d="M12.7496 6.72266C12.7496 6.30844 12.4138 5.97266 11.9996 5.97266C11.5854 5.97266 11.2496 6.30844 11.2496 6.72266C11.2496 7.13687 11.5854 7.47276 11.9996 7.47276C12.4138 7.47276 12.7496 7.13687 12.7496 6.72266Z" fill="#323544"/>
<g opacity="0.4">
<path d="M3.28033 3.19347C2.98744 2.90058 2.51256 2.90058 2.21967 3.19347C1.92678 3.48636 1.92678 3.96124 2.21967 4.25413L3.18934 5.2238L2.21967 6.19347C1.92678 6.48636 1.92678 6.96124 2.21967 7.25413C2.51256 7.54702 2.98744 7.54702 3.28033 7.25413L4.78033 5.75413C5.07322 5.46124 5.07322 4.98636 4.78033 4.69347L3.28033 3.19347Z" fill="#323544"/>
<path d="M21.7803 4.25413C22.0732 3.96124 22.0732 3.48636 21.7803 3.19347C21.4874 2.90058 21.0126 2.90058 20.7197 3.19347L19.2197 4.69347C18.9268 4.98636 18.9268 5.46124 19.2197 5.75413L20.7197 7.25413C21.0126 7.54702 21.4874 7.54702 21.7803 7.25413C22.0732 6.96124 22.0732 6.48636 21.7803 6.19347L20.8107 5.2238L21.7803 4.25413Z" fill="#323544"/>
</g>
</svg>
