<svg width="24" height="25" viewBox="0 0 24 25" fill="none" xmlns="http://www.w3.org/2000/svg">
<path d="M6.44141 7.95293C5.99958 7.95293 5.64141 8.3111 5.64141 8.75293C5.64141 9.19476 5.99958 9.55293 6.44141 9.55293H6.45141C6.89323 9.55293 7.25141 9.19476 7.25141 8.75293C7.25141 8.3111 6.89323 7.95293 6.45141 7.95293H6.44141Z" fill="#323544"/>
<path d="M5.63945 12.1279C5.63945 11.6861 5.99763 11.3279 6.43945 11.3279H6.44945C6.89128 11.3279 7.24945 11.6861 7.24945 12.1279C7.24945 12.5698 6.89128 12.9279 6.44945 12.9279H6.43945C5.99763 12.9279 5.63945 12.5698 5.63945 12.1279Z" fill="#323544"/>
<path d="M10.1445 7.95293C9.7027 7.95293 9.34453 8.3111 9.34453 8.75293C9.34453 9.19476 9.7027 9.55293 10.1445 9.55293H10.1545C10.5964 9.55293 10.9545 9.19476 10.9545 8.75293C10.9545 8.3111 10.5964 7.95293 10.1545 7.95293H10.1445Z" fill="#323544"/>
<path d="M9.3582 12.1279C9.3582 11.6861 9.71638 11.3279 10.1582 11.3279H10.1682C10.61 11.3279 10.9682 11.6861 10.9682 12.1279C10.9682 12.5698 10.61 12.9279 10.1682 12.9279H10.1582C9.71638 12.9279 9.3582 12.5698 9.3582 12.1279Z" fill="#323544"/>
<path d="M8 14.7529C7.58579 14.7529 7.25 15.0887 7.25 15.5029C7.25 15.9171 7.58579 16.2529 8 16.2529H16C16.4142 16.2529 16.75 15.9171 16.75 15.5029C16.75 15.0887 16.4142 14.7529 16 14.7529H8Z" fill="#323544"/>
<path d="M13.0457 8.75293C13.0457 8.3111 13.4039 7.95293 13.8457 7.95293H13.8557C14.2975 7.95293 14.6557 8.3111 14.6557 8.75293C14.6557 9.19476 14.2975 9.55293 13.8557 9.55293H13.8457C13.4039 9.55293 13.0457 9.19476 13.0457 8.75293Z" fill="#323544"/>
<path d="M17.5479 7.95293C17.106 7.95293 16.7479 8.3111 16.7479 8.75293C16.7479 9.19476 17.106 9.55293 17.5479 9.55293H17.5579C17.9997 9.55293 18.3579 9.19476 18.3579 8.75293C18.3579 8.3111 17.9997 7.95293 17.5579 7.95293H17.5479Z" fill="#323544"/>
<path d="M13.0369 12.1279C13.0369 11.6861 13.3951 11.3279 13.8369 11.3279H13.8469C14.2887 11.3279 14.6469 11.6861 14.6469 12.1279C14.6469 12.5698 14.2887 12.9279 13.8469 12.9279H13.8369C13.3951 12.9279 13.0369 12.5698 13.0369 12.1279Z" fill="#323544"/>
<path d="M17.5557 11.3279C17.1138 11.3279 16.7557 11.6861 16.7557 12.1279C16.7557 12.5698 17.1138 12.9279 17.5557 12.9279H17.5657C18.0075 12.9279 18.3657 12.5698 18.3657 12.1279C18.3657 11.6861 18.0075 11.3279 17.5657 11.3279H17.5557Z" fill="#323544"/>
<path fill-rule="evenodd" clip-rule="evenodd" d="M4.25 4.62793C3.00736 4.62793 2 5.63529 2 6.87793V17.3779C2 18.6206 3.00736 19.6279 4.25 19.6279H19.7501C20.9927 19.6279 22.0001 18.6206 22.0001 17.3779V6.87793C22.0001 5.63529 20.9927 4.62793 19.7501 4.62793H4.25ZM3.5 6.87793C3.5 6.46372 3.83579 6.12793 4.25 6.12793H19.7501C20.1643 6.12793 20.5001 6.46372 20.5001 6.87793V17.3779C20.5001 17.7921 20.1643 18.1279 19.7501 18.1279H4.25C3.83579 18.1279 3.5 17.7921 3.5 17.3779V6.87793Z" fill="#323544"/>
</svg>
