<svg width="24" height="24" viewBox="0 0 24 24" fill="none" xmlns="http://www.w3.org/2000/svg">
<path fill-rule="evenodd" clip-rule="evenodd" d="M6 4.5C4.75736 4.5 3.75 5.50736 3.75 6.75V15H2.75C2.49007 15 2.24867 15.1346 2.11201 15.3557C1.97536 15.5768 1.96293 15.8529 2.07918 16.0854L3.16459 18.2562C3.54572 19.0185 4.32481 19.5 5.17705 19.5H18.8229C19.6752 19.5 20.4543 19.0185 20.8354 18.2562L21.9208 16.0854C22.0371 15.8529 22.0246 15.5768 21.888 15.3557C21.7513 15.1346 21.5099 15 21.25 15H20.25V6.75C20.25 5.50736 19.2426 4.5 18 4.5H6ZM20.0365 16.5H3.96353L4.50623 17.5854C4.63328 17.8395 4.89297 18 5.17705 18H18.8229C19.107 18 19.3667 17.8395 19.4938 17.5854L20.0365 16.5ZM18.75 15V6.75C18.75 6.33579 18.4142 6 18 6H6C5.58579 6 5.25 6.33579 5.25 6.75V15H18.75Z" fill="#323544"/>
</svg>
