<svg width="25" height="24" viewBox="0 0 25 24" fill="none" xmlns="http://www.w3.org/2000/svg">
<path d="M5.14948 9.50003C5.14948 5.35788 8.50735 2 12.6495 2C16.7917 2 20.1495 5.35788 20.1495 9.50003V14.5C20.1495 18.6421 16.7917 22 12.6495 22C8.50735 22 5.14948 18.6421 5.14948 14.5V10.2597C5.14943 10.2565 5.14941 10.2532 5.14941 10.25C5.14941 10.2468 5.14943 10.2435 5.14948 10.2403V9.50003ZM6.64948 11V14.5C6.64948 17.8137 9.33578 20.5 12.6495 20.5C15.9632 20.5 18.6495 17.8137 18.6495 14.5V11H6.64948ZM11.8995 9.5L11.8995 3.54642C8.93976 3.91549 6.64949 6.44028 6.64948 9.5H11.8995ZM13.3995 9.5H18.6495C18.6495 6.44028 16.3592 3.91549 13.3995 3.54642L13.3995 9.5Z" fill="#323544"/>
</svg>
