<svg width="24" height="24" viewBox="0 0 24 24" fill="none" xmlns="http://www.w3.org/2000/svg">
<path d="M8.80437 4.10156C6.7626 4.10156 5.10742 5.75674 5.10742 7.79851C5.10742 9.84027 6.7626 11.4955 8.80437 11.4955C10.8461 11.4955 12.5013 9.84027 12.5013 7.79851C12.5013 5.75674 10.8461 4.10156 8.80437 4.10156Z" fill="#323544"/>
<path d="M1.85175 19.16L1.85172 19.1577L1.85165 19.1513L1.85156 19.1321C1.85156 19.1164 1.85169 19.0952 1.85215 19.0688C1.85309 19.016 1.85538 18.9421 1.86069 18.8502C1.8713 18.6666 1.89402 18.4095 1.94242 18.1031C2.03866 17.4938 2.23948 16.6698 2.66304 15.837C3.08862 15.0001 3.74414 14.1453 4.74743 13.5023C5.75344 12.8576 7.06383 12.4551 8.75032 12.4551C10.4368 12.4551 11.7472 12.8576 12.7532 13.5023C13.7565 14.1453 14.412 15.0001 14.8376 15.837C15.2612 16.6698 15.462 17.4938 15.5582 18.1031C15.6066 18.4095 15.6293 18.6666 15.6399 18.8502C15.6453 18.9421 15.6476 19.016 15.6485 19.0688C15.649 19.0952 15.6491 19.1164 15.6491 19.1321L15.649 19.1513L15.6489 19.1577L15.6489 19.161C15.6418 19.5701 15.3081 19.8988 14.899 19.8988H2.60167C2.19253 19.8988 1.85888 19.5709 1.85178 19.1618C1.85178 19.1618 1.85179 19.1625 1.85175 19.16Z" fill="#323544"/>
<g opacity="0.4">
<path d="M17.0209 19.8988C17.0999 19.6756 17.1446 19.4363 17.149 19.187L17.1491 19.1799L17.1493 19.1676L17.1494 19.1387L17.1494 19.1327C17.1494 19.1083 17.1492 19.078 17.1486 19.0422C17.1473 18.9708 17.1443 18.8769 17.1378 18.7637C17.1247 18.538 17.0974 18.2312 17.0402 17.8691C17.0103 17.6801 16.9717 17.472 16.9215 17.2494C16.9165 17.2261 16.9113 17.2028 16.9058 17.1794C16.6448 16.0607 16.0667 14.4931 14.7497 13.189C14.515 12.9567 14.2627 12.7384 13.9924 12.5363C14.3865 12.4831 14.8056 12.4551 15.2509 12.4551C16.9373 12.4551 18.2477 12.8576 19.2537 13.5023C20.257 14.1453 20.9126 15.0001 21.3381 15.837C21.7617 16.6698 21.9625 17.4938 22.0588 18.1031C22.1072 18.4095 22.1299 18.6666 22.1405 18.8502C22.1458 18.9421 22.1481 19.016 22.149 19.0688C22.1495 19.0952 22.1496 19.1164 22.1496 19.1321L22.1495 19.1513L22.1495 19.1577L22.1494 19.161C22.1423 19.5701 21.8086 19.8988 21.3995 19.8988H17.0209Z" fill="#323544"/>
<path d="M14.0028 7.79851C14.0028 8.89595 13.6627 9.91394 13.082 10.7528C13.7007 11.219 14.4705 11.4955 15.3049 11.4955C17.3467 11.4955 19.0018 9.84027 19.0018 7.79851C19.0018 5.75674 17.3467 4.10156 15.3049 4.10156C14.4705 4.10156 13.7007 4.37797 13.082 4.84422C13.6627 5.68307 14.0028 6.70106 14.0028 7.79851Z" fill="#323544"/>
</g>
</svg>
