<svg width="24" height="24" viewBox="0 0 24 24" fill="none" xmlns="http://www.w3.org/2000/svg">
<path d="M4.25 4.5C3.00736 4.5 2 5.50736 2 6.75V9.68555C2 10.0998 2.33633 10.4355 2.75055 10.4355C3.61487 10.4355 4.31555 11.1362 4.31555 12.0005C4.31555 12.8649 3.61433 13.5655 2.75 13.5655C2.33579 13.5655 2 13.9013 2 14.3155V17.25C2 18.4926 3.00736 19.5 4.25 19.5H19.75C20.9926 19.5 22 18.4926 22 17.25V14.3155C22 13.9014 21.6643 13.5656 21.2502 13.5655C20.386 13.5653 19.6855 12.8647 19.6855 12.0005C19.6855 11.1363 20.386 10.4357 21.2502 10.4355C21.6643 10.4355 22 10.0997 22 9.68555V6.75C22 5.50736 20.9926 4.5 19.75 4.5H4.25Z" fill="#323544"/>
</svg>
