<svg width="25" height="24" viewBox="0 0 25 24" fill="none" xmlns="http://www.w3.org/2000/svg">
<path d="M13.0817 2.37507C13.0817 2.02651 12.8415 1.72389 12.5021 1.64469C12.1627 1.56549 11.8134 1.73058 11.6591 2.04315L9.00491 7.42117L3.06991 8.28358C2.78739 8.32463 2.55268 8.52251 2.46446 8.79402C2.37625 9.06553 2.44982 9.36358 2.65425 9.56285L6.94886 13.7491L5.93504 19.6601C5.88678 19.9415 6.00244 20.2258 6.2334 20.3936C6.46436 20.5614 6.77056 20.5836 7.02325 20.4507L12.6807 17.4764C12.9273 17.3468 13.0817 17.0912 13.0817 16.8126V2.37507Z" fill="#323544"/>
<path opacity="0.4" d="M17.6428 20.4508L14.6016 18.852V17.1573L16.9957 18.4159L16.1721 13.6141C16.1304 13.3708 16.211 13.1225 16.3878 12.9502L19.8765 9.54956L15.0552 8.84898C14.8777 8.82318 14.7177 8.73514 14.6016 8.60401V5.27441L15.6611 7.42126L21.5961 8.28367C21.8786 8.32472 22.1133 8.5226 22.2015 8.79411C22.2898 9.06562 22.2162 9.36367 22.0118 9.56294L17.7172 13.7491L18.731 19.6602C18.7792 19.9415 18.6636 20.2259 18.4326 20.3937C18.2016 20.5615 17.8954 20.5836 17.6428 20.4508Z" fill="#323544"/>
</svg>
