<svg width="24" height="24" viewBox="0 0 24 24" fill="none" xmlns="http://www.w3.org/2000/svg">
<path opacity="0.4" d="M12.6722 2.04308C12.5459 1.78707 12.2851 1.625 11.9996 1.625C11.7142 1.625 11.4534 1.78707 11.3271 2.04308L8.67288 7.4211L2.73788 8.28351C2.45536 8.32456 2.22065 8.52244 2.13243 8.79395C2.04421 9.06546 2.11779 9.36351 2.32222 9.56278L6.61682 13.749L5.603 19.66C5.55475 19.9414 5.67041 20.2257 5.90137 20.3936C6.13233 20.5614 6.43853 20.5835 6.69122 20.4506L11.9996 17.6598L17.3081 20.4506C17.5608 20.5835 17.867 20.5614 18.0979 20.3936C18.3289 20.2257 18.4445 19.9414 18.3963 19.66L17.3825 13.749L21.6771 9.56278C21.8815 9.36351 21.9551 9.06546 21.8669 8.79395C21.7786 8.52244 21.5439 8.32456 21.2614 8.28351L15.3264 7.4211L12.6722 2.04308Z" fill="#323544"/>
<path d="M11.9977 1.625C12.2832 1.625 12.5439 1.78707 12.6702 2.04308L15.3245 7.4211L21.2595 8.28351C21.542 8.32456 21.7767 8.52244 21.8649 8.79395C21.9531 9.06546 21.8795 9.36351 21.6751 9.56278L17.3805 13.749L18.3943 19.66C18.4426 19.9414 18.3269 20.2257 18.096 20.3936C17.865 20.5614 17.5588 20.5835 17.3061 20.4506L11.9977 17.6598L6.68926 20.4506C6.43657 20.5835 6.13038 20.5614 5.89942 20.3936C5.66846 20.2257 5.55279 19.9414 5.60105 19.66L6.61487 13.749L2.32026 9.56278C2.11583 9.36351 2.04226 9.06546 2.13048 8.79395C2.2187 8.52244 2.45341 8.32456 2.73592 8.28351L8.67093 7.4211L11.3251 2.04308C11.4515 1.78707 11.7122 1.625 11.9977 1.625ZM11.9977 4.06966L9.84153 8.43853C9.73228 8.65989 9.52111 8.81331 9.27682 8.84881L4.45549 9.54939L7.94424 12.9501C8.12101 13.1224 8.20167 13.3706 8.15994 13.6139L7.33636 18.4158L11.6487 16.1487C11.8672 16.0338 12.1282 16.0338 12.3467 16.1487L16.659 18.4158L15.8354 13.6139C15.7937 13.3706 15.8744 13.1224 16.0511 12.9501L19.5399 9.54939L14.7186 8.84881C14.4743 8.81331 14.2631 8.65989 14.1539 8.43853L11.9977 4.06966Z" fill="#323544"/>
</svg>
