<svg width="24" height="24" viewBox="0 0 24 24" fill="none" xmlns="http://www.w3.org/2000/svg">
<path d="M5.375 5.25C5.375 4.62868 5.87868 4.125 6.5 4.125L17.5 4.125C18.1213 4.125 18.625 4.62868 18.625 5.25C18.625 5.87132 18.1213 6.375 17.5 6.375L6.5 6.375C5.87868 6.375 5.375 5.87132 5.375 5.25ZM2.875 9.75C2.875 9.12868 3.37868 8.625 4 8.625L20 8.625C20.6213 8.625 21.125 9.12868 21.125 9.75C21.125 10.3713 20.6213 10.875 20 10.875L4 10.875C3.37868 10.875 2.875 10.3713 2.875 9.75ZM5.375 14.25C5.375 13.6287 5.87868 13.125 6.5 13.125L17.5 13.125C18.1213 13.125 18.625 13.6287 18.625 14.25C18.625 14.8713 18.1213 15.375 17.5 15.375L6.5 15.375C5.87868 15.375 5.375 14.8713 5.375 14.25ZM2.875 18.75C2.875 18.1287 3.37868 17.625 4 17.625L20 17.625C20.6213 17.625 21.125 18.1287 21.125 18.75C21.125 19.3713 20.6213 19.875 20 19.875L4 19.875C3.37868 19.875 2.875 19.3713 2.875 18.75Z" fill="#323544"/>
</svg>
