<svg width="24" height="24" viewBox="0 0 24 24" fill="none" xmlns="http://www.w3.org/2000/svg">
<path d="M7.875 5.25C7.875 4.62868 8.37868 4.125 9 4.125L20 4.125C20.6213 4.125 21.125 4.62868 21.125 5.25C21.125 5.87132 20.6213 6.375 20 6.375L9 6.375C8.37868 6.375 7.875 5.87132 7.875 5.25ZM2.875 9.75C2.875 9.12868 3.37868 8.625 4 8.625L20 8.625C20.6213 8.625 21.125 9.12868 21.125 9.75C21.125 10.3713 20.6213 10.875 20 10.875L4 10.875C3.37868 10.875 2.875 10.3713 2.875 9.75ZM7.875 14.25C7.875 13.6287 8.37868 13.125 9 13.125L20 13.125C20.6213 13.125 21.125 13.6287 21.125 14.25C21.125 14.8713 20.6213 15.375 20 15.375L9 15.375C8.37868 15.375 7.875 14.8713 7.875 14.25ZM2.875 18.75C2.875 18.1287 3.37868 17.625 4 17.625L20 17.625C20.6213 17.625 21.125 18.1287 21.125 18.75C21.125 19.3713 20.6213 19.875 20 19.875L4 19.875C3.37868 19.875 2.875 19.3713 2.875 18.75Z" fill="#323544"/>
</svg>
