<svg width="24" height="24" viewBox="0 0 24 24" fill="none" xmlns="http://www.w3.org/2000/svg">
<path d="M15 6.375L4 6.375C3.37868 6.375 2.875 5.87132 2.875 5.25C2.875 4.62868 3.37868 4.125 4 4.125L15 4.125C15.6213 4.125 16.125 4.62868 16.125 5.25C16.125 5.87132 15.6213 6.375 15 6.375ZM20 10.875L4 10.875C3.37868 10.875 2.875 10.3713 2.875 9.75C2.875 9.12868 3.37868 8.625 4 8.625L20 8.625C20.6213 8.625 21.125 9.12868 21.125 9.75C21.125 10.3713 20.6213 10.875 20 10.875ZM15 15.375L4 15.375C3.37868 15.375 2.875 14.8713 2.875 14.25C2.875 13.6287 3.37868 13.125 4 13.125L15 13.125C15.6213 13.125 16.125 13.6287 16.125 14.25C16.125 14.8713 15.6213 15.375 15 15.375ZM20 19.875L4 19.875C3.37868 19.875 2.875 19.3713 2.875 18.75C2.875 18.1287 3.37868 17.625 4 17.625L20 17.625C20.6213 17.625 21.125 18.1287 21.125 18.75C21.125 19.3713 20.6213 19.875 20 19.875Z" fill="#323544"/>
</svg>
