<svg width="24" height="24" viewBox="0 0 24 24" fill="none" xmlns="http://www.w3.org/2000/svg">
<path d="M18.5081 3.67826C19.3317 2.92634 20.6012 2.95524 21.3898 3.74386C22.1784 4.53248 22.2073 5.80189 21.4554 6.62558L13.3159 15.5419C13.1598 14.6599 12.7551 13.8091 12.0672 13.1212C11.4186 12.4726 10.5755 11.9878 9.65704 11.7582L18.5081 3.67826Z" fill="#323544"/>
<path d="M8.7145 12.6186L8.7136 12.6194C7.52707 12.5441 6.29189 13.0284 5.45946 14.3137C5.44672 14.3334 5.4349 14.3536 5.42406 14.3744C4.71836 15.7267 3.95876 16.4718 3.40879 16.8736C3.13222 17.0757 2.90402 17.1943 2.75532 17.26C2.68087 17.293 2.62611 17.3127 2.59497 17.3231C2.57939 17.3282 2.56971 17.331 2.56644 17.332C2.29055 17.4016 2.07745 17.6215 2.01701 17.9002C1.95585 18.1821 2.06253 18.4747 2.29031 18.6518L2.29124 18.6525L2.29389 18.6546L2.30224 18.661L2.33096 18.6828C2.35535 18.7011 2.39014 18.727 2.43459 18.7593C2.52342 18.8239 2.65112 18.9142 2.81168 19.0214C3.13208 19.2354 3.5872 19.519 4.12869 19.7992C5.18927 20.3479 6.67746 20.9343 8.16445 20.8617C9.16006 20.8131 10.161 20.4674 10.998 19.6304C11.6011 19.0273 12.0177 18.3037 12.2292 17.5505C12.321 17.2234 12.3741 16.8906 12.3871 16.5593C12.3913 16.4517 12.3915 16.344 12.3872 16.237C12.3518 15.3518 12.0206 14.4888 11.3601 13.8283C10.7611 13.2294 9.95203 12.8022 9.08976 12.6612C8.96558 12.6409 8.84032 12.6266 8.7145 12.6186Z" fill="#323544"/>
</svg>
