<svg width="24" height="24" viewBox="0 0 24 24" fill="none" xmlns="http://www.w3.org/2000/svg">
<path d="M5.25 1.625C5.87132 1.625 6.375 2.12868 6.375 2.75V4.125L18.284 4.125L19.9545 2.4545C20.3938 2.01517 21.1062 2.01517 21.5455 2.4545C21.9848 2.89384 21.9848 3.60616 21.5455 4.0455L19.875 5.71599V17.625H21.25C21.8713 17.625 22.375 18.1287 22.375 18.75C22.375 19.3713 21.8713 19.875 21.25 19.875H19.875V21.25C19.875 21.8713 19.3713 22.375 18.75 22.375C18.1287 22.375 17.625 21.8713 17.625 21.25V19.875L6.75 19.875C5.30025 19.875 4.125 18.6997 4.125 17.25L4.125 6.375L2.75 6.375C2.12868 6.375 1.625 5.87132 1.625 5.25C1.625 4.62868 2.12868 4.125 2.75 4.125H4.125V2.75C4.125 2.12868 4.62868 1.625 5.25 1.625ZM6.375 6.375L6.375 16.034L16.034 6.375L6.375 6.375ZM17.625 7.96599L7.96599 17.625L17.625 17.625V7.96599Z" fill="#323544"/>
</svg>
