<svg width="24" height="24" viewBox="0 0 24 24" fill="none" xmlns="http://www.w3.org/2000/svg">
<path d="M13.8373 19.6217C14.2031 19.6217 14.5169 19.3612 14.5843 19.0017L14.9597 16.9997C14.9856 16.8614 15.0499 16.7332 15.1452 16.6297L15.543 16.1979C15.9843 15.719 16.1964 15.0723 16.1245 14.425L16.0822 14.0449H7.91733L7.8751 14.425C7.80318 15.0723 8.01526 15.719 8.45654 16.1979L8.86262 16.6387C8.95794 16.7422 9.02224 16.8704 9.04817 17.0087L9.42186 19.0017C9.48926 19.3612 9.80311 19.6217 10.1688 19.6217H10.3289V21.2496C10.3289 21.4956 10.4496 21.7259 10.6518 21.866C10.8539 22.0062 11.112 22.0382 11.3423 21.9518L13.1848 21.2609C13.4775 21.1511 13.6715 20.8713 13.6715 20.5586V19.6217H13.8373Z" fill="#323544"/>
<path d="M8.084 12.5449L9.03326 4.00153C9.15987 2.86205 10.123 2 11.2695 2H12.7301C13.8766 2 14.8397 2.86206 14.9663 4.00153L15.9156 12.5449H8.084Z" fill="#323544"/>
</svg>
