<svg width="24" height="24" viewBox="0 0 24 24" fill="none" xmlns="http://www.w3.org/2000/svg">
<path d="M6.4205 13.3153C6.13821 13.0216 6.14173 12.5547 6.43106 12.2654L14.9163 3.7801C15.795 2.90142 17.2196 2.90142 18.0983 3.7801L20.2196 5.90142C21.0983 6.7801 21.0983 8.20472 20.2196 9.0834L11.7344 17.5687C11.5937 17.7093 11.4029 17.7884 11.204 17.7884C11.0101 17.7884 10.8239 17.7132 10.6844 17.5791L6.4205 13.3153Z" fill="#323544"/>
<path d="M5.90091 14.2099L5.01722 15.0936C4.52358 15.5872 4.3865 16.3024 4.60598 16.9191L3.19208 18.3331C2.99706 18.5281 2.92483 18.8145 3.00399 19.0787C3.08314 19.3429 3.30093 19.5423 3.57106 19.598L5.91621 20.0812C6.16335 20.1322 6.41954 20.0554 6.59796 19.877L7.08093 19.3939C7.69756 19.6133 8.41267 19.4763 8.90631 18.9827L9.78999 18.099L5.90091 14.2099Z" fill="#323544"/>
</svg>
