<svg width="24" height="24" viewBox="0 0 24 24" fill="none" xmlns="http://www.w3.org/2000/svg">
<path d="M5.25 2C4.83579 2 4.5 2.33579 4.5 2.75V5.75C4.5 6.16421 4.83579 6.5 5.25 6.5H5.96094L5.96094 9.75H5.25C4.83579 9.75 4.5 10.0858 4.5 10.5V13.5C4.5 13.9142 4.83579 14.25 5.25 14.25H8.25C8.66421 14.25 9 13.9142 9 13.5V12.75H15V13.5C15 13.9142 15.3358 14.25 15.75 14.25H16.5V17.5H15.75C15.3358 17.5 15 17.8358 15 18.25V21.25C15 21.6642 15.3358 22 15.75 22H18.75C19.1642 22 19.5 21.6642 19.5 21.25V18.25C19.5 17.8358 19.1642 17.5 18.75 17.5H18V14.25H18.75C19.1642 14.25 19.5 13.9142 19.5 13.5V10.5C19.5 10.0858 19.1642 9.75 18.75 9.75H15.75C15.3358 9.75 15 10.0858 15 10.5V11.25H9V10.5C9 10.0858 8.66421 9.75 8.25 9.75H7.46094L7.46094 6.5H8.25C8.66421 6.5 9 6.16421 9 5.75V2.75C9 2.33579 8.66421 2 8.25 2H5.25Z" fill="#323544"/>
</svg>
