<svg width="24" height="24" viewBox="0 0 24 24" fill="none" xmlns="http://www.w3.org/2000/svg">
<path d="M12 4.5C10.7412 4.5 9.67998 5.34575 9.35352 6.5H6.5V5.75C6.5 5.33579 6.16421 5 5.75 5H2.75C2.33579 5 2 5.33579 2 5.75V8.75C2 9.16421 2.33579 9.5 2.75 9.5H5.75C6.16421 9.5 6.5 9.16421 6.5 8.75V8H9.35352C9.43603 8.29175 9.5655 8.56379 9.73323 8.80745C9.0585 9.00679 8.47009 9.29519 7.95938 9.64928C6.94912 10.3497 6.28757 11.2759 5.85531 12.175C5.42414 13.0719 5.21231 13.9592 5.10711 14.6157C5.08497 14.7538 5.06743 14.8825 5.05351 15H4.25C3.83579 15 3.5 15.3358 3.5 15.75V18.75C3.5 19.1642 3.83579 19.5 4.25 19.5H7.25C7.66421 19.5 8 19.1642 8 18.75V15.75C8 15.3358 7.66421 15 7.25 15H6.56604C6.57273 14.9527 6.5801 14.9037 6.58821 14.8531C6.67831 14.2908 6.85711 13.5531 7.20719 12.825C7.55618 12.0991 8.06651 11.4003 8.81405 10.882C9.55543 10.368 10.5749 10 12 10C13.4251 10 14.4446 10.368 15.1859 10.882C15.9335 11.4003 16.4438 12.0991 16.7928 12.825C17.1429 13.5531 17.3217 14.2908 17.4118 14.8531C17.4199 14.9037 17.4273 14.9527 17.434 15H16.75C16.3358 15 16 15.3358 16 15.75V18.75C16 19.1642 16.3358 19.5 16.75 19.5H19.75C20.1642 19.5 20.5 19.1642 20.5 18.75V15.75C20.5 15.3358 20.1642 15 19.75 15H18.9465C18.9326 14.8825 18.915 14.7538 18.8929 14.6157C18.7877 13.9592 18.5759 13.0719 18.1447 12.175C17.7124 11.2759 17.0509 10.3497 16.0406 9.64928C15.5299 9.29519 14.9415 9.00679 14.2668 8.80745C14.4345 8.56379 14.564 8.29175 14.6465 8H17.5V8.75C17.5 9.16421 17.8358 9.5 18.25 9.5H21.25C21.6642 9.5 22 9.16421 22 8.75V5.75C22 5.33579 21.6642 5 21.25 5H18.25C17.8358 5 17.5 5.33579 17.5 5.75V6.5H14.6465C14.32 5.34575 13.2588 4.5 12 4.5Z" fill="#323544"/>
</svg>
