<svg width="24" height="24" viewBox="0 0 24 24" fill="none" xmlns="http://www.w3.org/2000/svg">
<path opacity="0.4" d="M9.52344 8.63075C9.88176 8.50383 10.2852 8.6664 10.4512 9.01747C10.6279 9.39177 10.4679 9.83841 10.0938 10.0155L4.75 12.5409V13.7186L9.87109 12.9061L9.94727 12.8983C10.3268 12.8768 10.6684 13.1457 10.7295 13.5292C10.7945 13.9383 10.5155 14.3226 10.1064 14.3876L4.11719 15.3388C3.90057 15.373 3.6795 15.3112 3.5127 15.1688C3.34592 15.0264 3.25007 14.8178 3.25 14.5985V12.0673L3.25781 11.9599C3.29336 11.7133 3.4502 11.4971 3.67969 11.3886L9.45215 8.66005L9.52344 8.63075ZM20.3203 11.3886C20.5825 11.5125 20.75 11.7772 20.75 12.0673V14.5985C20.7499 14.8178 20.6541 15.0264 20.4873 15.1688C20.3205 15.3112 20.0994 15.373 19.8828 15.3388L13.8936 14.3876L14.0117 13.6474L14.1289 12.9061L19.25 13.7186V12.5409L13.9062 10.0155L14.2275 9.33779L14.5479 8.66005L20.3203 11.3886ZM13.2705 13.5292C13.3356 13.1203 13.7199 12.8412 14.1289 12.9061L13.8936 14.3876C13.4845 14.3226 13.2055 13.9383 13.2705 13.5292ZM13.5488 9.01747C13.7259 8.643 14.1734 8.48301 14.5479 8.66005L13.9062 10.0155C13.5321 9.83841 13.3721 9.39177 13.5488 9.01747Z" fill="#323544"/>
<path d="M14.0488 12.8985C14.4624 12.9192 14.7813 13.271 14.7607 13.6846L14.5947 16.9766L16.5225 18.4785C16.7049 18.6207 16.8115 18.8391 16.8115 19.0703V21.2491C16.8115 21.499 16.687 21.7328 16.4795 21.8721C16.2978 21.9939 16.0734 22.0292 15.8652 21.9727L15.7773 21.9434L12 20.3965L8.22363 21.9434C7.99241 22.038 7.72896 22.0113 7.52148 21.8721C7.31397 21.7328 7.18947 21.499 7.18945 21.2491V19.0703C7.18945 18.8392 7.2962 18.6207 7.47852 18.4785L9.40527 16.9776L9.24023 13.6846L9.98926 13.6475L10.7383 13.6094L10.9229 17.292C10.9335 17.5056 10.8527 17.7124 10.7031 17.8614L10.6348 17.9209L8.68945 19.4356V20.1309L11.7168 18.8926L11.8564 18.8506C11.9992 18.8226 12.1486 18.8367 12.2852 18.8926L15.3115 20.1309V19.4356L13.3662 17.9209C13.1735 17.7708 13.066 17.536 13.0781 17.292L13.2627 13.6094C13.2837 13.196 13.6354 12.8779 14.0488 12.8985ZM9.95117 12.8985C10.3647 12.8777 10.7173 13.1959 10.7383 13.6094L9.24023 13.6846C9.21969 13.2712 9.53779 12.9194 9.95117 12.8985Z" fill="#323544"/>
<path d="M11.0098 2.42678C11.5435 1.85762 12.4564 1.85785 12.9902 2.42678L13.0986 2.55764L13.3428 2.90628C14.4446 4.55632 15.0258 6.49939 15.0117 8.48343L15 8.90921L14.9766 9.376C14.9556 9.7895 14.603 10.1077 14.1895 10.0869C13.7761 10.066 13.4579 9.71423 13.4785 9.30081L13.502 8.83401L13.5117 8.47268C13.5241 6.73329 12.9959 5.03198 12 3.60257C10.9353 5.13077 10.4057 6.97018 10.499 8.83401L10.5225 9.30081C10.543 9.71438 10.2241 10.0662 9.81055 10.0869C9.39709 10.1075 9.04536 9.78942 9.02441 9.376L9.00098 8.90921C8.88716 6.6367 9.5579 4.39403 10.9014 2.55764L11.0098 2.42678Z" fill="#323544"/>
</svg>
