<svg width="24" height="24" viewBox="0 0 24 24" fill="none" xmlns="http://www.w3.org/2000/svg">
<path opacity="0.4" d="M4.25285 15.25V14.4316L3.2802 15.4043L3.22356 15.4551C2.92888 15.6956 2.49429 15.6782 2.21965 15.4033C1.9269 15.1103 1.92667 14.6356 2.21965 14.3428L4.46965 12.0947L4.52727 12.043C4.63027 11.9591 4.75057 11.9087 4.87492 11.8877C4.91442 11.8809 4.95467 11.8763 4.99602 11.876C4.99765 11.876 4.99927 11.876 5.0009 11.876L5.00285 11.875C5.04929 11.875 5.09449 11.8806 5.1386 11.8887C5.14054 11.889 5.14251 11.8893 5.14445 11.8896C5.25419 11.9107 5.35421 11.9563 5.44133 12.0195C5.46263 12.0351 5.48292 12.0522 5.50285 12.0703C5.51796 12.0839 5.53284 12.0975 5.5468 12.1123L7.7802 14.3428C8.07316 14.6356 8.07294 15.1103 7.7802 15.4033C7.48743 15.6963 7.01264 15.697 6.71965 15.4043L5.75285 14.4375V15.25C5.75305 18.1493 8.10348 20.5 11.0029 20.5H12.996C15.8953 20.4999 18.2458 18.1492 18.246 15.25V14.4385L17.2802 15.4043C16.9872 15.697 16.5124 15.6963 16.2197 15.4033C15.9269 15.1103 15.9267 14.6356 16.2197 14.3428L18.4472 12.1172C18.4692 12.0934 18.4936 12.0725 18.5185 12.0518C18.5234 12.0476 18.5281 12.0431 18.5331 12.0391C18.6259 11.9657 18.7346 11.9126 18.8554 11.8896L18.8573 11.8887C18.9023 11.8803 18.9487 11.875 18.996 11.875L18.998 11.876C18.9999 11.876 19.0019 11.876 19.0038 11.876C19.0438 11.8764 19.0828 11.8803 19.121 11.8867C19.2707 11.9111 19.4147 11.9793 19.5302 12.0947L21.7802 14.3428C22.0732 14.6356 22.0729 15.1103 21.7802 15.4033C21.4874 15.6963 21.0126 15.697 20.7197 15.4043L19.746 14.4307V15.25C19.7458 18.9777 16.7237 21.9999 12.996 22H11.0029C7.27505 22 4.25305 18.9778 4.25285 15.25Z" fill="#323544"/>
<path d="M12 2C13.5188 2 14.75 3.23122 14.75 4.75C14.75 6.0084 13.9037 7.06578 12.75 7.39258V9H14.625L14.7021 9.00391C15.0801 9.04253 15.375 9.36183 15.375 9.75C15.375 10.1382 15.0801 10.4575 14.7021 10.4961L14.625 10.5H12.75V20.5H11.25V10.5H9.375C8.96079 10.5 8.625 10.1642 8.625 9.75C8.625 9.33579 8.96079 9 9.375 9H11.25V7.39258C10.0963 7.06578 9.25 6.0084 9.25 4.75C9.25 3.23122 10.4812 2 12 2ZM12 3.5C11.3096 3.5 10.75 4.05964 10.75 4.75C10.75 5.44036 11.3096 6 12 6C12.6904 6 13.25 5.44036 13.25 4.75C13.25 4.05964 12.6904 3.5 12 3.5Z" fill="#323544"/>
</svg>
