<svg width="24" height="24" viewBox="0 0 24 24" fill="none" xmlns="http://www.w3.org/2000/svg">
<path d="M2 15.75C2 13.6789 3.67893 12 5.75 12C7.82107 12 9.5 13.6789 9.5 15.75C9.5 17.8211 7.82107 19.5 5.75 19.5C3.67893 19.5 2 17.8211 2 15.75ZM5.75 13.5C4.50736 13.5 3.5 14.5074 3.5 15.75C3.5 16.9926 4.50736 18 5.75 18C6.99264 18 8 16.9926 8 15.75C8 14.5074 6.99264 13.5 5.75 13.5Z" fill="#323544"/>
<path d="M18.25 12C16.1789 12 14.5 13.6789 14.5 15.75C14.5 17.8211 16.1789 19.5 18.25 19.5C20.3211 19.5 22 17.8211 22 15.75C22 13.6789 20.3211 12 18.25 12ZM16 15.75C16 14.5074 17.0074 13.5 18.25 13.5C19.4926 13.5 20.5 14.5074 20.5 15.75C20.5 16.9926 19.4926 18 18.25 18C17.0074 18 16 16.9926 16 15.75Z" fill="#323544"/>
<g opacity="0.4">
<path d="M15.7927 3.61612C15.3045 3.12796 14.513 3.12796 14.0249 3.61612C13.5367 4.10427 13.5367 4.89573 14.0249 5.38388C14.513 5.87204 15.3046 5.87211 15.7927 5.38395C16.2809 4.8958 16.2808 4.10427 15.7927 3.61612Z" fill="#323544"/>
<path d="M17.0688 10.2183C17.4823 10.2426 17.8372 9.92713 17.8615 9.51363C17.8858 9.10013 17.5703 8.74523 17.1568 8.72093L15.0746 8.59858C14.7996 8.58241 14.5555 8.41671 14.439 8.16701L13.655 6.48696C13.5766 6.31882 13.4693 6.1657 13.3381 6.0345C12.7165 5.41289 11.7087 5.41289 11.0871 6.0345L8.42878 8.69279C7.79978 9.32178 7.79978 10.3416 8.42878 10.9706C8.54232 11.0841 8.6722 11.18 8.81411 11.2552L10.8705 12.3438C11.1177 12.4746 11.2715 12.7321 11.2696 13.0117L11.2515 15.6707C11.2487 16.0849 11.5822 16.423 11.9964 16.4258C12.4106 16.4286 12.7487 16.0951 12.7515 15.6809L12.7696 13.0219C12.7753 12.183 12.3138 11.4106 11.5723 11.0181L10.3008 10.345L12.686 7.95767L13.0797 8.80129C13.4293 9.5504 14.1614 10.0475 14.9867 10.096L17.0688 10.2183Z" fill="#323544"/>
</g>
</svg>
