<svg width="24" height="24" viewBox="0 0 24 24" fill="none" xmlns="http://www.w3.org/2000/svg">
<path d="M14.7131 3.25H16.3016C17.2398 3.25 18.0795 3.83218 18.4086 4.71079L19.3597 7.25L19.9215 8.75L19.965 8.86597C20.8571 9.16474 21.5 10.0073 21.5 11V18C21.5 18.8284 20.8284 19.5 20 19.5C19.1716 19.5 18.5 18.8284 18.5 18V17H5.5V18C5.5 18.8284 4.82843 19.5 4 19.5C3.17157 19.5 2.5 18.8284 2.5 18V11C2.5 10.0068 3.14353 9.1639 4.03637 8.86552L4.07964 8.75L4.64148 7.25L5.59256 4.71079C5.92165 3.83218 6.76139 3.25 7.69961 3.25H9.2869H14.7131ZM4 15.5H20V11C20 10.5858 19.6642 10.25 19.25 10.25H4.75C4.33579 10.25 4 10.5858 4 11V15.5ZM16.3016 4.75H7.69961C7.38687 4.75 7.10695 4.94406 6.99726 5.23693L5.68141 8.75H18.3198L17.0039 5.23693C16.8942 4.94406 16.6143 4.75 16.3016 4.75Z" fill="#323544"/>
<g opacity="0.4">
<path d="M8.5 12.125C8.91421 12.125 9.25 12.4608 9.25 12.875C9.25 13.2892 8.91421 13.625 8.5 13.625H7C6.58579 13.625 6.25 13.2892 6.25 12.875C6.25 12.4608 6.58579 12.125 7 12.125H8.5Z" fill="#323544"/>
<path d="M17 12.125C17.4142 12.125 17.75 12.4608 17.75 12.875C17.75 13.2892 17.4142 13.625 17 13.625H15.5C15.0858 13.625 14.75 13.2892 14.75 12.875C14.75 12.4608 15.0858 12.125 15.5 12.125H17Z" fill="#323544"/>
<path d="M4.08008 8.75H2.75C2.33579 8.75 2 8.41421 2 8C2 7.58579 2.33579 7.25 2.75 7.25H4.6416L4.08008 8.75Z" fill="#323544"/>
<path d="M21.25 7.25C21.6642 7.25 22 7.58579 22 8C22 8.41421 21.6642 8.75 21.25 8.75H19.9219L19.3594 7.25H21.25Z" fill="#323544"/>
<path d="M13.624 2C13.9077 2.00012 14.1668 2.16043 14.2939 2.41406L14.7129 3.25H9.28711L9.70605 2.41406C9.83318 2.16043 10.0923 2.00012 10.376 2H13.624Z" fill="#323544"/>
</g>
</svg>
