<svg width="24" height="24" viewBox="0 0 24 24" fill="none" xmlns="http://www.w3.org/2000/svg">
<path d="M5.59256 4.71079C5.92165 3.83218 6.76139 3.25 7.69961 3.25H16.3016C17.2398 3.25 18.0795 3.83218 18.4086 4.71079L19.3597 7.25L19.9215 8.75L19.965 8.86597C20.8571 9.16474 21.5 10.0073 21.5 11V18C21.5 18.8284 20.8284 19.5 20 19.5C19.1716 19.5 18.5 18.8284 18.5 18V17H5.5V18C5.5 18.8284 4.82843 19.5 4 19.5C3.17157 19.5 2.5 18.8284 2.5 18V11C2.5 10.0068 3.14353 9.1639 4.03637 8.86552L4.07964 8.75L4.64148 7.25L5.59256 4.71079ZM16.75 15.5H20V11C20 10.5858 19.6642 10.25 19.25 10.25H4.75C4.33579 10.25 4 10.5858 4 11V15.5H7.25H8.75H15.25H16.75ZM5.68141 8.75H18.3198L17.0039 5.23693C16.8942 4.94406 16.6143 4.75 16.3016 4.75H7.69961C7.38687 4.75 7.10695 4.94406 6.99726 5.23693L5.68141 8.75Z" fill="#323544"/>
<g opacity="0.4">
<path d="M4.64148 7.25L2.75 7.25C2.33579 7.25 2 7.58579 2 8C2 8.41421 2.33579 8.75 2.75 8.75H4.07964L4.64148 7.25Z" fill="#323544"/>
<path d="M19.9215 8.75H21.25C21.6642 8.75 22 8.41421 22 8C22 7.58579 21.6642 7.25 21.25 7.25H19.3597L19.9215 8.75Z" fill="#323544"/>
<path d="M7.25 14V15.5H8.75V14C8.75 13.5858 9.08579 13.25 9.5 13.25H14.5C14.9142 13.25 15.25 13.5858 15.25 14V15.5H16.75V14C16.75 12.7574 15.7426 11.75 14.5 11.75H9.5C8.25736 11.75 7.25 12.7574 7.25 14Z" fill="#323544"/>
</g>
</svg>
