<svg width="24" height="24" viewBox="0 0 24 24" fill="none" xmlns="http://www.w3.org/2000/svg">
<path opacity="0.4" d="M2 16.5V6.75C2 5.50736 3.00736 4.5 4.25 4.5H15C17.8995 4.5 20.25 6.85051 20.25 9.75V17.25H21.25C21.6642 17.25 22 17.5858 22 18C22 18.4142 21.6642 18.75 21.25 18.75H10.2363C9.82211 18.75 9.48633 18.4142 9.48633 18C9.48633 17.5858 9.82211 17.25 10.2363 17.25H18.75V9.75C18.75 7.67893 17.0711 6 15 6H4.25C3.83579 6 3.5 6.33579 3.5 6.75V16.5C3.5 16.9142 3.83579 17.25 4.25 17.25H5.76367L5.84082 17.2539C6.21882 17.2925 6.51367 17.6118 6.51367 18C6.51367 18.3882 6.21882 18.7075 5.84082 18.7461L5.76367 18.75H4.25C3.00736 18.75 2 17.7426 2 16.5Z" fill="#323544"/>
<path d="M9.5 17.75C9.5 16.9216 8.82843 16.25 8 16.25C7.17157 16.25 6.5 16.9216 6.5 17.75C6.5 17.8069 6.50273 17.8632 6.50879 17.918L6.53125 18.0557C6.67211 18.7372 7.27652 19.25 8 19.25C8.77148 19.25 9.40824 18.667 9.49121 17.918L9.5 17.75ZM10.9951 17.917L10.9814 18.082C10.8155 19.5828 9.54469 20.75 8 20.75C6.55178 20.75 5.34442 19.7243 5.0625 18.3594L5.01855 18.082C5.00649 17.9727 5 17.862 5 17.75C5 16.0931 6.34315 14.75 8 14.75C9.65685 14.75 11 16.0931 11 17.75C11 17.806 10.9982 17.8616 10.9951 17.917Z" fill="#323544"/>
</svg>
