<svg width="24" height="24" viewBox="0 0 24 24" fill="none" xmlns="http://www.w3.org/2000/svg">
<path opacity="0.4" d="M20.5 14.3125C20.5 13.1963 20.2801 12.091 19.853 11.0597C19.8068 10.9482 19.7583 10.8378 19.7075 10.7285L18.6527 11.3375C18.294 11.5446 17.8353 11.4217 17.6282 11.063C17.4211 10.7043 17.544 10.2456 17.9027 10.0385L18.9575 9.42951C18.6757 9.02797 18.3589 8.65063 18.0104 8.30209C17.2211 7.5128 16.2841 6.88669 15.2528 6.45952C14.4532 6.12833 13.6092 5.92176 12.75 5.84565V7.0625C12.75 7.47671 12.4142 7.8125 12 7.8125C11.5858 7.8125 11.25 7.47671 11.25 7.0625V5.84565C10.3908 5.92176 9.54676 6.12833 8.74719 6.45952C7.71592 6.88669 6.77889 7.51279 5.98959 8.30209C5.64116 8.65053 5.32453 9.02775 5.04277 9.42916L6.09729 10.038C6.45601 10.2451 6.57891 10.7038 6.3718 11.0625C6.1647 11.4212 5.70601 11.5441 5.34729 11.337L4.2927 10.7282C4.24184 10.8375 4.19327 10.9481 4.14702 11.0597C3.71986 12.091 3.5 13.1963 3.5 14.3125C3.5 15.4287 3.71986 16.534 4.14702 17.5653C4.1932 17.6768 4.24169 17.7871 4.29247 17.8963L5.34533 17.2885C5.70405 17.0814 6.16274 17.2043 6.36985 17.563C6.57696 17.9217 6.45405 18.3804 6.09533 18.5875L4.36328 19.5875C4.00456 19.7946 3.54587 19.6717 3.33876 19.313C3.33162 19.3006 3.32488 19.2881 3.31852 19.2755C3.10938 18.9097 2.92314 18.5303 2.76121 18.1393C2.25866 16.9261 2 15.6257 2 14.3125C2 12.9993 2.25866 11.6989 2.76121 10.4857C3.26375 9.27241 4.00035 8.17002 4.92893 7.24143C5.85752 6.31285 6.95991 5.57625 8.17317 5.0737C9.38642 4.57116 10.6868 4.3125 12 4.3125C13.3132 4.3125 14.6136 4.57116 15.8268 5.07371C17.0401 5.57625 18.1425 6.31285 19.0711 7.24143C19.9997 8.17002 20.7362 9.27241 21.2388 10.4857C21.7413 11.6989 22 12.9993 22 14.3125C22 15.6257 21.7413 16.9261 21.2388 18.1393C21.071 18.5444 20.8771 18.9372 20.6587 19.3152C20.4515 19.6739 19.9927 19.7966 19.6341 19.5894C19.6165 19.5793 19.5995 19.5685 19.5831 19.5572L17.9027 18.587C17.544 18.3799 17.4211 17.9212 17.6282 17.5625C17.8353 17.2038 18.294 17.0809 18.6527 17.288L19.7073 17.8968C19.7582 17.7875 19.8067 17.6769 19.853 17.5653C20.2801 16.534 20.5 15.4287 20.5 14.3125Z" fill="#323544"/>
<path d="M11.2673 9.971L11.3182 9.87305L11.3379 9.83742C11.4677 9.59143 11.723 9.4375 12.0012 9.4375C12.2793 9.4375 12.5346 9.59143 12.6645 9.83742L12.6825 9.87305L12.7334 9.971C12.7769 10.0553 12.8389 10.1762 12.9132 10.3237C13.0615 10.6183 13.2599 11.0216 13.459 11.4538C13.6571 11.8839 13.8608 12.3531 14.0164 12.7768C14.1585 13.1638 14.3053 13.6266 14.3053 13.9922C14.3053 15.2652 13.2733 16.2972 12.0003 16.2972C10.7273 16.2972 9.69531 15.2652 9.69531 13.9922C9.69531 13.6266 9.84213 13.1638 9.98425 12.7768C10.1399 12.3531 10.3435 11.8839 10.5416 11.4538C10.7407 11.0216 10.9391 10.6183 11.0874 10.3237C11.1617 10.1762 11.2237 10.0553 11.2673 9.971ZM11.904 12.0814C11.7134 12.4952 11.5283 12.9237 11.3923 13.2939C11.3243 13.4791 11.2721 13.6403 11.2378 13.7717C11.2207 13.837 11.2095 13.8897 11.2027 13.9305C11.1994 13.9506 11.1974 13.966 11.1964 13.9771C11.1954 13.9875 11.1953 13.9923 11.1953 13.9923C11.1954 14.4368 11.5558 14.7972 12.0003 14.7972C12.4449 14.7972 12.8053 14.4369 12.8053 13.9923C12.8053 13.9923 12.8053 13.9875 12.8043 13.9771C12.8032 13.966 12.8013 13.9506 12.7979 13.9305C12.7912 13.8897 12.7799 13.837 12.7629 13.7717C12.7285 13.6403 12.6764 13.4791 12.6083 13.2939C12.4724 12.9237 12.2872 12.4952 12.0966 12.0814C12.0645 12.0116 12.0323 11.9425 12.0003 11.8745C11.9684 11.9425 11.9362 12.0116 11.904 12.0814Z" fill="#323544"/>
</svg>
