<svg width="24" height="24" viewBox="0 0 24 24" fill="none" xmlns="http://www.w3.org/2000/svg">
<path d="M19.125 6.73438H13.875V8.23425H14.0008C17.7287 8.23425 20.7508 11.2563 20.7508 14.9843V15.4174C20.7508 16.66 19.7434 17.6674 18.5008 17.6674H12.1297C11.4181 17.6674 10.7484 17.3307 10.3239 16.7596L7.63552 13.1428C7.52047 12.988 7.3502 12.8835 7.1601 12.851L4.42964 12.3837C3.47915 12.2211 2.73798 11.4708 2.58693 10.5184L2.00539 6.85186C1.95547 6.53713 2.10988 6.22523 2.39042 6.07409C2.67096 5.92296 3.01637 5.9656 3.25173 6.18042L5.28722 8.03826C5.42541 8.16439 5.60574 8.23431 5.79283 8.23431L12.375 8.23425V6.73438H7.12503C6.71082 6.73438 6.37503 6.39859 6.37503 5.98438C6.37503 5.57016 6.71082 5.23438 7.12503 5.23438H19.125C19.5392 5.23438 19.875 5.57016 19.875 5.98438C19.875 6.39859 19.5392 6.73438 19.125 6.73438ZM13.1114 9.73425L5.79285 9.73431C5.23158 9.73431 4.69057 9.52454 4.27601 9.14616L3.82235 8.7321L4.06841 10.2835C4.11876 10.6009 4.36581 10.851 4.68265 10.9052L7.4131 11.3725C7.98342 11.4701 8.49421 11.7836 8.83938 12.248L11.5277 15.8648C11.6692 16.0551 11.8925 16.1674 12.1297 16.1674H18.5008C18.915 16.1674 19.2508 15.8316 19.2508 15.4174V14.9843C19.2508 12.0848 16.9003 9.73425 14.0008 9.73425H13.1387L13.125 9.73438L13.1114 9.73425Z" fill="#323544"/>
<path opacity="0.4" d="M22.3931 19.3474C22.7456 19.1299 22.8551 18.6678 22.6376 18.3153C22.4201 17.9628 21.958 17.8533 21.6055 18.0708L20.7338 18.6086C20.142 18.9737 19.4602 19.1671 18.7648 19.1671H9.78906C9.37485 19.1671 9.03906 19.5029 9.03906 19.9171C9.03906 20.3313 9.37485 20.6671 9.78906 20.6671H18.7648C19.7384 20.6671 20.6928 20.3964 21.5214 19.8852L22.3931 19.3474Z" fill="#323544"/>
</svg>
