<svg width="24" height="24" viewBox="0 0 24 24" fill="none" xmlns="http://www.w3.org/2000/svg">
<path d="M20.6216 4.04316C20.5821 3.69619 20.3083 3.4224 19.9614 3.38283C16.2551 2.96017 12.3947 4.17038 9.55023 7.01484C8.88176 7.6833 8.30341 8.40811 7.81526 9.174C6.1781 9.23859 4.55997 9.89584 3.31006 11.1457C2.80493 11.6509 2.39581 12.2173 2.08364 12.8217C1.95144 13.0776 1.97753 13.3867 2.15076 13.6169C2.324 13.847 2.61377 13.9577 2.89631 13.9015C4.08094 13.6658 5.32046 13.7826 6.44797 14.2511L9.74979 17.5529C10.2185 18.6808 10.3351 19.9208 10.0992 21.1059C10.0429 21.3884 10.1534 21.6782 10.3836 21.8515C10.6137 22.0248 10.9228 22.0509 11.1788 21.9188C11.7836 21.6065 12.3505 21.1972 12.856 20.6917C14.1054 19.4423 14.7626 17.825 14.8277 16.1885C15.5945 15.7 16.3201 15.1211 16.9893 14.452C19.8332 11.6081 21.0435 7.74873 20.6216 4.04316ZM13.2079 17.061C12.999 18.0028 12.5281 18.8983 11.7953 19.631C11.7688 19.6576 11.742 19.6838 11.715 19.7097C11.6979 19.0354 11.5917 18.3628 11.3966 17.7111C12.0126 17.5417 12.6183 17.325 13.2079 17.061ZM6.29179 12.6049C5.63997 12.4095 4.96724 12.3032 4.29283 12.2859C4.31845 12.2592 4.34442 12.2327 4.37072 12.2064C5.1039 11.4732 5.99998 11.0022 6.94246 10.7934C6.67827 11.3831 6.46137 11.9889 6.29179 12.6049ZM10.6109 8.0755C12.9635 5.72292 16.1029 4.63755 19.1837 4.82052C19.3661 7.90068 18.2807 11.0392 15.9286 13.3913C14.4226 14.8973 12.5957 15.883 10.6685 16.3503L7.6523 13.3341C8.11969 11.4074 9.10531 9.58107 10.6109 8.0755Z" fill="#323544"/>
<g opacity="0.4">
<path d="M12.7668 7.97981C13.667 7.07965 15.1264 7.07965 16.0266 7.97981C16.9267 8.87996 16.9267 10.3394 16.0266 11.2396C15.1264 12.1397 13.667 12.1397 12.7668 11.2396C11.8667 10.3394 11.8667 8.87996 12.7668 7.97981ZM14.9659 9.04047C14.6515 8.72609 14.1418 8.72609 13.8275 9.04047C13.5131 9.35484 13.5131 9.86454 13.8275 10.1789C14.1418 10.4933 14.6515 10.4933 14.9659 10.1789C15.2803 9.86454 15.2803 9.35484 14.9659 9.04047Z" fill="#323544"/>
<path d="M4.12975 20.9764C4.01811 20.9777 3.92619 20.977 3.86124 20.976L3.75359 20.9726C3.36071 20.9583 3.04549 20.6429 3.03125 20.25L3.02846 20.1432C3.02745 20.0782 3.02678 19.9863 3.028 19.8747C3.03042 19.6526 3.04038 19.3468 3.07118 19.0172C3.10164 18.6913 3.15431 18.3213 3.2486 17.9783C3.33691 17.6572 3.48843 17.2562 3.78049 16.9642C4.68065 16.064 6.14009 16.064 7.04025 16.9642C7.94041 17.8643 7.94041 19.3238 7.04025 20.2239C6.74819 20.516 6.34725 20.6675 6.02609 20.7558C5.68317 20.8501 5.31318 20.9028 4.98726 20.9333C4.65767 20.9641 4.35185 20.974 4.12975 20.9764ZM4.84115 18.0248C4.83939 18.0269 4.81902 18.0502 4.78922 18.1119C4.75814 18.1764 4.72572 18.264 4.69493 18.376C4.63285 18.6018 4.59089 18.8762 4.56467 19.1567C4.55487 19.2616 4.54753 19.3645 4.54207 19.4624C4.63996 19.4569 4.74281 19.4496 4.84769 19.4398C5.12823 19.4135 5.40264 19.3716 5.62842 19.3095C5.7404 19.2787 5.82805 19.2463 5.89249 19.2152C5.95427 19.1854 5.97758 19.165 5.97959 19.1633C6.29396 18.8489 6.29396 18.3392 5.97959 18.0248C5.66522 17.7105 5.15552 17.7105 4.84115 18.0248Z" fill="#323544"/>
</g>
</svg>
