<svg width="24" height="24" viewBox="0 0 24 24" fill="none" xmlns="http://www.w3.org/2000/svg">
<path d="M17.2041 6.39062C17.9509 6.39077 18.649 6.76135 19.0674 7.37988L21.6133 11.1445L21.6982 11.2803C21.7782 11.4187 21.8429 11.5647 21.8916 11.7158L21.9385 11.8838C21.979 12.0538 22 12.2287 22 12.4053V16.751L22.0771 16.7549C22.4551 16.7935 22.75 17.1128 22.75 17.501C22.7498 17.889 22.455 18.2085 22.0771 18.2471L22 18.251H20.0771C19.8118 19.6734 18.5648 20.7508 17.0654 20.751C15.5659 20.751 14.3181 19.6736 14.0527 18.251H10.3271C10.0618 19.6734 8.81479 20.7508 7.31543 20.751C5.81587 20.751 4.56808 19.6736 4.30273 18.251H4.25C3.00749 18.251 2.0002 17.2434 2 16.001C2 15.5868 2.33579 15.251 2.75 15.251C3.16421 15.251 3.5 15.5868 3.5 16.001C3.5002 16.415 3.83591 16.751 4.25 16.751H4.39844C4.79404 15.5156 5.94883 14.6201 7.31543 14.6201C8.68183 14.6203 9.83588 15.5157 10.2314 16.751H14.1484C14.1782 16.6581 14.2119 16.5673 14.25 16.4785V7.14062L14.2539 7.06348C14.2925 6.68551 14.6118 6.39062 15 6.39062H17.2041ZM7.31543 16.1201C6.54487 16.1201 5.90391 16.678 5.77441 17.4111L5.75488 17.5596C5.75161 17.6009 5.75 17.643 5.75 17.6855C5.75 18.5499 6.4511 19.251 7.31543 19.251C8.17956 19.2507 8.87988 18.5497 8.87988 17.6855L8.875 17.5596C8.81128 16.7547 8.13705 16.1203 7.31543 16.1201ZM17.0654 16.1201C16.533 16.1201 16.0616 16.3865 15.7783 16.7949L15.6689 16.9775C15.6015 17.1101 15.5517 17.2539 15.5244 17.4053L15.5049 17.5596C15.5016 17.6009 15.5 17.643 15.5 17.6855C15.5 18.5499 16.2011 19.251 17.0654 19.251C17.9296 19.2507 18.6299 18.5497 18.6299 17.6855L18.625 17.5596C18.5613 16.7547 17.8871 16.1203 17.0654 16.1201ZM15.75 14.918C16.1485 14.7283 16.5943 14.6201 17.0654 14.6201C18.4318 14.6203 19.5859 15.5157 19.9814 16.751H20.5V12.6953H15.75V14.918ZM15.75 11.1953H19.8369L17.8252 8.2207C17.6858 8.01458 17.4529 7.89077 17.2041 7.89062H15.75V11.1953Z" fill="#323544"/>
<path opacity="0.4" d="M14.25 7.13965V5.5C14.25 5.08579 13.9142 4.75 13.5 4.75H4.25C3.83579 4.75 3.5 5.08579 3.5 5.5V16C3.5 16.4142 3.16421 16.75 2.75 16.75C2.33579 16.75 2 16.4142 2 16V5.5C2 4.25736 3.00736 3.25 4.25 3.25H13.5C14.7426 3.25 15.75 4.25736 15.75 5.5V7.13965C15.75 7.55386 15.4142 7.88965 15 7.88965C14.5858 7.88965 14.25 7.55386 14.25 7.13965Z" fill="#323544"/>
</svg>
