<svg width="24" height="24" viewBox="0 0 24 24" fill="none" xmlns="http://www.w3.org/2000/svg">
<path d="M11.999 3.25C7.95235 3.25 4.67188 6.53048 4.67188 10.5771V12.9073C3.83903 13.2371 3.25 14.0498 3.25 15V18.5C3.25 19.7426 4.25736 20.75 5.5 20.75C6.74264 20.75 7.75 19.7426 7.75 18.5V15C7.75 13.9914 7.08634 13.1378 6.17188 12.852V10.5771C6.17188 8.72519 7.03581 7.07502 8.38264 6.00767C8.29617 6.32376 8.25 6.65649 8.25 7C8.25 9.07107 9.92893 10.75 12 10.75C14.0711 10.75 15.75 9.07107 15.75 7C15.75 6.65714 15.704 6.32503 15.6177 6.00952C16.9632 7.07692 17.8262 8.72626 17.8262 10.5771V12.8526C16.9127 13.139 16.25 13.9921 16.25 15V18.5C16.25 19.7426 17.2574 20.75 18.5 20.75C19.7426 20.75 20.75 19.7426 20.75 18.5V15C20.75 14.049 20.16 13.2359 19.3262 12.9065V10.5771C19.3262 6.53048 16.0457 3.25 11.999 3.25ZM9.75 7C9.75 5.75704 10.7567 4.75 11.999 4.75C13.242 4.75 14.25 5.75768 14.25 7C14.25 8.24264 13.2426 9.25 12 9.25C10.7574 9.25 9.75 8.24264 9.75 7Z" fill="#323544"/>
</svg>
