<svg width="25" height="24" viewBox="0 0 25 24" fill="none" xmlns="http://www.w3.org/2000/svg">
<path d="M8.8268 12.7484C9.10923 13.9664 10.0681 14.9251 11.2862 15.2072M8.8268 12.7484C8.77122 12.5087 8.74183 12.259 8.74183 12.0023C8.74183 11.745 8.77139 11.4945 8.82729 11.2542M8.8268 12.7484L4.92182 16.6534M11.2862 15.2072C11.5256 15.2627 11.7751 15.292 12.0315 15.292C12.2889 15.292 12.5393 15.2624 12.7797 15.2065M11.2862 15.2072L7.38101 19.1124M12.7797 15.2065C13.9973 14.9234 14.9555 13.964 15.2369 12.7456M12.7797 15.2065L16.6864 19.1133M15.2369 12.7456C15.292 12.5067 15.3212 12.2579 15.3212 12.0023C15.3212 11.746 15.2918 11.4965 15.2364 11.257M15.2369 12.7456L19.1461 16.6549M15.2364 11.257C14.9542 10.0389 13.9956 9.08007 12.7776 8.79764M15.2364 11.257L19.1475 7.34586M12.7776 8.79764C12.5379 8.74205 12.2881 8.71267 12.0315 8.71267C11.7759 8.71267 11.5271 8.74182 11.2882 8.79698M12.7776 8.79764L16.6886 4.88666M11.2882 8.79698C10.0699 9.07836 9.11048 10.0365 8.82729 11.2542M11.2882 8.79698L7.37887 4.88761M8.82729 11.2542L4.92041 7.3473M4.92041 7.3473C3.07424 10.1643 3.07471 13.8369 4.92182 16.6534M4.92041 7.3473L4.6908 7.11769C4.10502 6.5319 4.10502 5.58215 4.6908 4.99637L5.02856 4.65862C5.61434 4.07283 6.56409 4.07283 7.14987 4.65862L7.37887 4.88761M4.92182 16.6534L4.69337 16.8819C4.10758 17.4676 4.10758 18.4174 4.69337 19.0032L5.03112 19.3409C5.61691 19.9267 6.56665 19.9267 7.15244 19.3409L7.38101 19.1124M16.6886 4.88666C13.8708 3.03877 10.1963 3.03908 7.37887 4.88761M16.6886 4.88666L16.9171 4.65809C17.5029 4.0723 18.4527 4.0723 19.0385 4.65809L19.3762 4.99584C19.962 5.58163 19.962 6.53138 19.3762 7.11716L19.1475 7.34586M19.1461 16.6549C20.9945 13.8376 20.995 10.1635 19.1475 7.34586M19.1461 16.6549L19.3728 16.8816C19.9586 17.4674 19.9586 18.4171 19.3728 19.0029L19.0351 19.3407C18.4493 19.9264 17.4996 19.9264 16.9138 19.3407L16.6864 19.1133M7.38101 19.1124C10.1975 20.959 13.8697 20.9593 16.6864 19.1133" stroke="#323544" stroke-width="1.5" stroke-linejoin="round"/>
</svg>
