<svg width="24" height="24" viewBox="0 0 24 24" fill="none" xmlns="http://www.w3.org/2000/svg">
<path d="M12 2C6.47715 2 2 6.47715 2 12C2 17.5228 6.47715 22 12 22C17.5228 22 22 17.5228 22 12C22 6.47715 17.5228 2 12 2ZM9.23014 14.6884C9.87961 15.5041 10.8788 16.0248 12 16.0248C13.1213 16.0248 14.1205 15.5041 14.7699 14.6884C15.0279 14.3643 15.4998 14.3108 15.8238 14.5688C16.1479 14.8268 16.2014 15.2986 15.9434 15.6226C15.0216 16.7805 13.5975 17.5248 12 17.5248C10.4026 17.5248 8.97846 16.7805 8.05665 15.6226C7.79865 15.2986 7.8522 14.8268 8.17625 14.5688C8.5003 14.3108 8.97215 14.3643 9.23014 14.6884ZM6.20349 8.90698C6.20349 8.49276 6.53927 8.15698 6.95349 8.15698H17.0465C17.4607 8.15698 17.7965 8.49276 17.7965 8.90698V10.8605C17.7965 11.6343 17.1692 12.2616 16.3953 12.2616H14.6112C13.8373 12.2616 13.21 11.6343 13.21 10.8605V9.65698H10.79V10.8605C10.79 11.6343 10.1627 12.2616 9.38884 12.2616H7.60465C6.83081 12.2616 6.20349 11.6343 6.20349 10.8605V8.90698Z" fill="#323544"/>
</svg>
