<svg width="24" height="24" viewBox="0 0 24 24" fill="none" xmlns="http://www.w3.org/2000/svg">
<path d="M2 12C2 6.47715 6.47715 2 12 2C17.5228 2 22 6.47715 22 12C22 17.5228 17.5228 22 12 22C6.47715 22 2 17.5228 2 12ZM8.75007 7.98256C8.05971 7.98256 7.50007 8.5422 7.50007 9.23256C7.50007 9.92291 8.05971 10.4827 8.75007 10.4827C9.44042 10.4827 10.0001 9.92291 10.0001 9.23256C10.0001 8.5422 9.44042 7.98256 8.75007 7.98256ZM16.4999 9.23256C16.4999 8.5422 15.9403 7.98256 15.2499 7.98256C14.5596 7.98256 13.9999 8.5423 13.9999 9.23266C13.9999 9.92301 14.5596 10.4827 15.2499 10.4827C15.9403 10.4827 16.4999 9.92291 16.4999 9.23256ZM8.17625 13.592C7.8522 13.85 7.79865 14.3219 8.05665 14.6459C8.97846 15.8037 10.4026 16.5481 12 16.5481C13.5975 16.5481 15.0216 15.8037 15.9434 14.6459C16.2014 14.3219 16.1479 13.85 15.8238 13.592C15.4998 13.334 15.0279 13.3876 14.7699 13.7116C14.1205 14.5274 13.1213 15.0481 12 15.0481C10.8788 15.0481 9.87961 14.5274 9.23014 13.7116C8.97215 13.3876 8.5003 13.334 8.17625 13.592Z" fill="#323544"/>
</svg>
