<svg width="24" height="24" viewBox="0 0 24 24" fill="none" xmlns="http://www.w3.org/2000/svg">
<path d="M2 12C2 6.47715 6.47715 2 12 2C17.5228 2 22 6.47715 22 12C22 17.5228 17.5228 22 12 22C6.47715 22 2 17.5228 2 12ZM7.34302 14.9884C7.34302 15.4026 7.67881 15.7384 8.09302 15.7384H15.907C16.3212 15.7384 16.657 15.4026 16.657 14.9884C16.657 14.5742 16.3212 14.2384 15.907 14.2384H8.09302C7.67881 14.2384 7.34302 14.5742 7.34302 14.9884ZM7.44186 8.41744C7.02765 8.41744 6.69186 8.75323 6.69186 9.16744C6.69186 9.58166 7.02765 9.91744 7.44186 9.91744H9.72744C10.1417 9.91744 10.4774 9.58166 10.4774 9.16744C10.4774 8.75323 10.1417 8.41744 9.72744 8.41744H7.44186ZM13.5356 9.16744C13.5356 9.58166 13.8714 9.91744 14.2856 9.91744H16.5581C16.9724 9.91744 17.3081 9.58166 17.3081 9.16744C17.3081 8.75323 16.9724 8.41744 16.5581 8.41744H14.2856C13.8714 8.41744 13.5356 8.75323 13.5356 9.16744Z" fill="#323544"/>
</svg>
