<svg width="24" height="24" viewBox="0 0 24 24" fill="none" xmlns="http://www.w3.org/2000/svg">
<path d="M2 12C2 6.47715 6.47715 2 12 2C17.5228 2 22 6.47715 22 12C22 17.5228 17.5228 22 12 22C6.47715 22 2 17.5228 2 12ZM8.75007 7.98256C8.05971 7.98256 7.50007 8.5422 7.50007 9.23256C7.50007 9.92291 8.05971 10.4827 8.75007 10.4827C9.44042 10.4827 10.0001 9.92291 10.0001 9.23256C10.0001 8.5422 9.44042 7.98256 8.75007 7.98256ZM16.4999 9.23256C16.4999 8.5422 15.9403 7.98256 15.2499 7.98256C14.5596 7.98256 13.9999 8.5423 13.9999 9.23266C13.9999 9.92301 14.5596 10.4827 15.2499 10.4827C15.9403 10.4827 16.4999 9.92291 16.4999 9.23256ZM8.17625 16.3848C8.5003 16.6428 8.97215 16.5893 9.23014 16.2652C9.87961 15.4495 10.8788 14.9288 12 14.9288C13.1213 14.9288 14.1205 15.4495 14.7699 16.2652C15.0279 16.5893 15.4998 16.6428 15.8238 16.3848C16.1479 16.1268 16.2014 15.655 15.9434 15.3309C15.0216 14.1731 13.5975 13.4288 12 13.4288C10.4026 13.4288 8.97846 14.1731 8.05665 15.3309C7.79865 15.655 7.8522 16.1268 8.17625 16.3848Z" fill="#323544"/>
</svg>
