<svg width="25" height="25" viewBox="0 0 25 25" fill="none" xmlns="http://www.w3.org/2000/svg">
<path fill-rule="evenodd" clip-rule="evenodd" d="M13.0788 18.3661L11.5788 18.366L10.0164 18.366C9.71309 18.366 9.4396 18.5487 9.32351 18.8289C9.20741 19.1092 9.27158 19.4318 9.48608 19.6463L11.7985 21.9587C12.0914 22.2516 12.5662 22.2516 12.8591 21.9587L15.1713 19.6465C15.3858 19.432 15.45 19.1094 15.3339 18.8292C15.2178 18.5489 14.9443 18.3662 14.641 18.3662L13.0788 18.3661Z" fill="#323544"/>
<path fill-rule="evenodd" clip-rule="evenodd" d="M5.67843 9.17373C5.95868 9.2898 6.14141 9.56327 6.14143 9.86661L6.1415 11.4294L6.14157 12.9294L6.14164 14.4912C6.14165 14.7945 5.95893 15.068 5.67867 15.1841C5.39841 15.3002 5.07581 15.236 4.86131 15.0215L2.5787 12.7389C2.42493 12.6016 2.32812 12.4018 2.32812 12.1794C2.32812 11.9634 2.41938 11.7688 2.56544 11.632L4.8611 9.33631C5.07559 9.12182 5.39817 9.05765 5.67843 9.17373Z" fill="#323544"/>
<path fill-rule="evenodd" clip-rule="evenodd" d="M11.7814 2.41603L9.48545 4.71196C9.27095 4.92646 9.20678 5.24904 9.32286 5.52929C9.43894 5.80954 9.7124 5.99228 10.0157 5.99229L11.5788 5.99237L13.0788 5.99243L14.6403 5.9925C14.9437 5.99252 15.2171 5.80979 15.3332 5.52953C15.4493 5.24927 15.3852 4.92668 15.1707 4.71217L12.8927 2.43417C12.7552 2.27757 12.5535 2.17871 12.3288 2.17871C12.1129 2.17871 11.9182 2.26997 11.7814 2.41603Z" fill="#323544"/>
<path fill-rule="evenodd" clip-rule="evenodd" d="M18.9781 9.17437C19.2583 9.05827 19.5809 9.12244 19.7954 9.33694L22.1078 11.6493C22.2485 11.79 22.3275 11.9807 22.3275 12.1797C22.3275 12.3786 22.2485 12.5693 22.1078 12.71L19.7957 15.0222C19.5812 15.2367 19.2586 15.3008 18.9783 15.1847C18.6981 15.0687 18.5153 14.7952 18.5153 14.4919L18.5153 11.4294L18.5152 12.9294L18.5151 9.8673C18.5151 9.56395 18.6978 9.29046 18.9781 9.17437Z" fill="#323544"/>
<g opacity="0.4">
<path d="M13.0789 15.3026C13.0789 14.8884 12.7431 14.5526 12.3289 14.5526C11.9147 14.5526 11.5789 14.8884 11.5789 15.3026L11.5789 18.366L13.0789 18.3661L13.0789 15.3026Z" fill="#323544"/>
<path d="M6.14167 12.9293H9.20289C9.61711 12.9293 9.95289 12.5935 9.95289 12.1793C9.95289 11.7651 9.61711 11.4293 9.20289 11.4293H6.1416L6.14167 12.9293Z" fill="#323544"/>
<path d="M13.0789 9.05332L13.0789 5.99238L11.5789 5.99231L11.5789 9.05332C11.5789 9.46753 11.9147 9.80332 12.3289 9.80332C12.7431 9.80332 13.0789 9.46753 13.0789 9.05332Z" fill="#323544"/>
<path d="M18.5153 12.9293L15.4523 12.9295C15.038 12.9295 14.7022 12.5937 14.7022 12.1795C14.7022 11.7653 15.038 11.4295 15.4522 11.4295L18.5154 11.4293L18.5153 12.9293Z" fill="#323544"/>
</g>
</svg>
