<svg width="24" height="25" viewBox="0 0 24 25" fill="none" xmlns="http://www.w3.org/2000/svg">
<path d="M5.75002 6.25C5.44668 6.25 5.1732 6.43273 5.05711 6.71299C4.94103 6.99324 5.00519 7.31583 5.21969 7.53033L11.4697 13.7803C11.6103 13.921 11.8011 14 12 14C12.1989 14 12.3897 13.921 12.5304 13.7803L18.7804 7.53033C18.9949 7.31583 19.059 6.99324 18.9429 6.71299C18.8268 6.43273 18.5534 6.25 18.25 6.25H5.75002Z" fill="#323544"/>
<path opacity="0.4" d="M18.7803 12.0303C19.0732 11.7374 19.0732 11.2626 18.7803 10.9697C18.4874 10.6768 18.0126 10.6768 17.7197 10.9697L12 16.6893L6.28033 10.9697C5.98744 10.6768 5.51256 10.6768 5.21967 10.9697C4.92678 11.2626 4.92678 11.7374 5.21967 12.0303L11.4697 18.2803C11.7626 18.5732 12.2374 18.5732 12.5303 18.2803L18.7803 12.0303Z" fill="#323544"/>
</svg>
