<svg width="24" height="25" viewBox="0 0 24 25" fill="none" xmlns="http://www.w3.org/2000/svg">
<path d="M12.5304 10.9697C12.3897 10.829 12.1989 10.75 12 10.75C11.8011 10.75 11.6103 10.829 11.4697 10.9697L5.21969 17.2197C5.00519 17.4342 4.94103 17.7568 5.05711 18.037C5.1732 18.3173 5.44668 18.5 5.75002 18.5H18.25C18.5534 18.5 18.8268 18.3173 18.9429 18.037C19.059 17.7568 18.9949 17.4342 18.7804 17.2197L12.5304 10.9697Z" fill="#323544"/>
<path opacity="0.4" d="M18.7803 12.7197L12.5303 6.46967C12.2374 6.17678 11.7626 6.17678 11.4697 6.46967L5.21967 12.7197C4.92678 13.0126 4.92678 13.4874 5.21967 13.7803C5.51256 14.0732 5.98744 14.0732 6.28033 13.7803L12 8.06066L17.7197 13.7803C18.0126 14.0732 18.4874 14.0732 18.7803 13.7803C19.0732 13.4874 19.0732 13.0126 18.7803 12.7197Z" fill="#323544"/>
</svg>
