<svg width="24" height="25" viewBox="0 0 24 25" fill="none" xmlns="http://www.w3.org/2000/svg">
<path d="M18.125 6.12502C18.125 5.82168 17.9423 5.5482 17.662 5.43211C17.3818 5.31603 17.0592 5.38019 16.8447 5.59469L10.5947 11.8447C10.3018 12.1376 10.3018 12.6125 10.5947 12.9054L16.8447 19.1554C17.0592 19.3699 17.3818 19.434 17.662 19.3179C17.9423 19.2018 18.125 18.9284 18.125 18.625V6.12502Z" fill="#323544"/>
<path opacity="0.4" d="M13.4053 6.65533C13.6982 6.36244 13.6982 5.88756 13.4053 5.59467C13.1124 5.30178 12.6376 5.30178 12.3447 5.59467L6.09467 11.8447C5.80178 12.1376 5.80178 12.6124 6.09467 12.9053L12.3447 19.1553C12.6376 19.4482 13.1124 19.4482 13.4053 19.1553C13.6982 18.8624 13.6982 18.3876 13.4053 18.0947L7.68566 12.375L13.4053 6.65533Z" fill="#323544"/>
</svg>
