<svg width="24" height="25" viewBox="0 0 24 25" fill="none" xmlns="http://www.w3.org/2000/svg">
<path d="M7.15533 5.59469C6.94083 5.38019 6.61824 5.31603 6.33799 5.43211C6.05773 5.5482 5.875 5.82168 5.875 6.12502V18.625C5.875 18.9284 6.05773 19.2018 6.33799 19.3179C6.61824 19.434 6.94083 19.3699 7.15533 19.1554L13.4053 12.9054C13.6982 12.6125 13.6982 12.1376 13.4053 11.8447L7.15533 5.59469Z" fill="#323544"/>
<path opacity="0.4" d="M11.6553 5.59467C11.3624 5.30178 10.8876 5.30178 10.5947 5.59467C10.3018 5.88756 10.3018 6.36244 10.5947 6.65533L16.3143 12.375L10.5947 18.0947C10.3018 18.3876 10.3018 18.8624 10.5947 19.1553C10.8876 19.4482 11.3624 19.4482 11.6553 19.1553L17.9053 12.9053C18.1982 12.6124 18.1982 12.1376 17.9053 11.8447L11.6553 5.59467Z" fill="#323544"/>
</svg>
