<svg width="24" height="24" viewBox="0 0 24 24" fill="none" xmlns="http://www.w3.org/2000/svg">
<path opacity="0.4" d="M2 12C2 6.47766 6.47729 2.00098 11.9996 2.00098C17.5218 2.00098 21.9991 6.47766 21.9991 12C21.9991 17.5224 17.5218 21.9991 11.9996 21.9991C6.47729 21.9991 2 17.5224 2 12ZM11.4982 8.65521C11.2178 8.53915 10.8952 8.60341 10.6808 8.81801L8.04259 11.4578C7.89904 11.5945 7.80957 11.7874 7.80957 12.0012C7.80957 12.2277 7.90996 12.4307 8.06867 12.5682L10.6807 15.1821C10.8952 15.3967 11.2178 15.461 11.4981 15.3449C11.7785 15.2289 11.9612 14.9554 11.9612 14.652V12.7512L15.4402 12.7512C15.8544 12.7512 16.1902 12.4154 16.1902 12.0012C16.1902 11.587 15.8544 11.2512 15.4402 11.2512H11.9612V9.34817C11.9612 9.04478 11.7785 8.77127 11.4982 8.65521Z" fill="#323544"/>
<path d="M11.9612 9.34817C11.9612 9.04478 11.7785 8.77127 11.4982 8.65521C11.2178 8.53915 10.8952 8.60341 10.6808 8.818L8.04259 11.4578C7.89904 11.5945 7.80957 11.7874 7.80957 12.0012C7.80957 12.2277 7.90996 12.4307 8.06867 12.5682L10.6807 15.1821C10.8952 15.3967 11.2178 15.461 11.4981 15.3449C11.7785 15.2289 11.9612 14.9554 11.9612 14.652V12.7512L15.4402 12.7512C15.8544 12.7512 16.1902 12.4154 16.1902 12.0012C16.1902 11.587 15.8544 11.2512 15.4402 11.2512H11.9612V9.34817Z" fill="#323544"/>
</svg>
