<svg width="24" height="25" viewBox="0 0 24 25" fill="none" xmlns="http://www.w3.org/2000/svg">
<path fill-rule="evenodd" clip-rule="evenodd" d="M15.6919 6.21245C15.808 6.49277 15.7438 6.81545 15.5292 7.02995L11.5576 10.9999L10.4967 12.0603L6.53095 16.0244C6.3164 16.2388 5.99377 16.3029 5.71354 16.1868C5.4333 16.0706 5.25064 15.797 5.25073 15.4937L5.25357 6.5554C5.24117 6.37079 5.29676 6.18246 5.42033 6.03113C5.55777 5.86133 5.76787 5.75275 6.00333 5.75266L14.9987 5.74951C15.3021 5.74941 15.5757 5.93213 15.6919 6.21245Z" fill="#323544"/>
<path opacity="0.4" d="M10.4971 12.0603L17.468 19.0313C17.7609 19.3242 18.2358 19.3242 18.5287 19.0313C18.8216 18.7384 18.8216 18.2635 18.5287 17.9706L11.558 10.9999L10.4971 12.0603Z" fill="#323544"/>
</svg>
