<svg width="24" height="25" viewBox="0 0 24 25" fill="none" xmlns="http://www.w3.org/2000/svg">
<path fill-rule="evenodd" clip-rule="evenodd" d="M13.7185 5.80707C13.9988 5.69101 14.3214 5.75526 14.5359 5.96986L20.4888 11.9266C20.6495 12.0642 20.7514 12.2685 20.7514 12.4966L20.7514 12.4981C20.7518 12.6905 20.6786 12.8831 20.5319 13.03L14.5359 19.0302C14.3214 19.2448 13.9988 19.309 13.7185 19.193C13.4382 19.0769 13.2554 18.8034 13.2554 18.5V13.2466V11.7466V6.50002C13.2554 6.19663 13.4382 5.92312 13.7185 5.80707Z" fill="#323544"/>
<path opacity="0.4" d="M13.2554 11.7466L4 11.7466C3.58579 11.7466 3.25 12.0824 3.25 12.4966C3.25 12.9108 3.58579 13.2466 4 13.2466L13.2554 13.2466V11.7466Z" fill="#323544"/>
</svg>
