<svg width="24" height="25" viewBox="0 0 24 25" fill="none" xmlns="http://www.w3.org/2000/svg">
<path fill-rule="evenodd" clip-rule="evenodd" d="M8.30713 6.21245C8.42327 5.93213 8.69686 5.74941 9.00028 5.74951L17.9957 5.75266C18.2006 5.75274 18.3863 5.83497 18.5216 5.96821L18.5275 5.97406C18.6869 6.13346 18.7595 6.34677 18.7454 6.5553L18.7483 15.4937C18.7484 15.797 18.5657 16.0706 18.2855 16.1868C18.0052 16.3029 17.6826 16.2388 17.468 16.0244L13.5021 12.0601L12.4412 10.9997L8.4698 7.02995C8.25521 6.81545 8.191 6.49277 8.30713 6.21245Z" fill="#323544"/>
<path opacity="0.4" d="M12.4411 10.9997L5.47065 17.9702C5.17775 18.2631 5.17775 18.7379 5.47065 19.0308C5.76354 19.3237 6.23841 19.3237 6.53131 19.0308L13.502 12.0601L12.4411 10.9997Z" fill="#323544"/>
</svg>
