<svg width="24" height="25" viewBox="0 0 24 25" fill="none" xmlns="http://www.w3.org/2000/svg">
<path fill-rule="evenodd" clip-rule="evenodd" d="M10.2829 5.80707C10.5632 5.92312 10.746 6.19663 10.746 6.50002V11.7466V13.2466L10.746 18.5C10.746 18.8034 10.5632 19.0769 10.2829 19.193C10.0026 19.309 9.67994 19.2448 9.46548 19.0302L3.46949 13.03C3.32276 12.8831 3.24959 12.6906 3.25 12.4982V12.4966C3.25 12.2685 3.35184 12.0642 3.51254 11.9266L9.4655 5.96986C9.67996 5.75526 10.0026 5.69101 10.2829 5.80707Z" fill="#323544"/>
<path opacity="0.4" d="M10.7461 13.2466L20.0015 13.2466C20.4157 13.2466 20.7515 12.9108 20.7515 12.4966C20.7515 12.0824 20.4157 11.7466 20.0015 11.7466L10.7461 11.7466V13.2466Z" fill="#323544"/>
</svg>
