<svg width="24" height="24" viewBox="0 0 24 24" fill="none" xmlns="http://www.w3.org/2000/svg">
<path opacity="0.4" d="M2 12C2 6.47766 6.47729 2.00098 11.9996 2.00098C17.5218 2.00098 21.9991 6.47766 21.9991 12C21.9991 17.5224 17.5218 21.9991 11.9996 21.9991C6.47729 21.9991 2 17.5224 2 12ZM12.5016 8.65521C12.2213 8.77126 12.0385 9.04477 12.0385 9.34817L12.0385 11.249L8.55957 11.249C8.14536 11.249 7.80957 11.5847 7.80957 11.999C7.80957 12.4132 8.14536 12.749 8.55957 12.749H12.0385V14.652C12.0385 14.9554 12.2213 15.2289 12.5016 15.3449C12.7819 15.461 13.1046 15.3967 13.319 15.1821L15.9572 12.5423C16.1007 12.4057 16.1902 12.2128 16.1902 11.999C16.1902 11.7725 16.0898 11.5694 15.9311 11.4319L13.319 8.81802C13.1046 8.60342 12.782 8.53915 12.5016 8.65521Z" fill="#323544"/>
<path d="M13.319 8.81802C13.1046 8.60341 12.782 8.53915 12.5016 8.65521C12.2213 8.77126 12.0385 9.04477 12.0385 9.34817L12.0385 11.249L8.55957 11.249C8.14536 11.249 7.80957 11.5847 7.80957 11.999C7.80957 12.4132 8.14536 12.749 8.55957 12.749H12.0385V14.652C12.0385 14.9554 12.2213 15.2289 12.5016 15.3449C12.7819 15.461 13.1046 15.3967 13.319 15.1821L15.9572 12.5423C16.1007 12.4057 16.1902 12.2128 16.1902 11.999C16.1902 11.7725 16.0898 11.5694 15.9311 11.4319L13.319 8.81802Z" fill="#323544"/>
</svg>
