<svg width="24" height="24" viewBox="0 0 24 24" fill="none" xmlns="http://www.w3.org/2000/svg">
<path fill-rule="evenodd" clip-rule="evenodd" d="M16.9628 7.30804C17.2432 7.19198 17.5658 7.25625 17.7803 7.47085L21.7451 11.4385C21.9008 11.5759 21.999 11.777 21.999 12.001C21.999 12.2239 21.9018 12.4241 21.7474 12.5615L17.7802 16.5312C17.5658 16.7458 17.2431 16.81 16.9628 16.694C16.6825 16.5779 16.4997 16.3044 16.4997 16.001L16.4997 12.751V11.251L16.4997 8.001C16.4997 7.6976 16.6825 7.42409 16.9628 7.30804ZM7.49928 11.251L7.49928 8.001C7.49928 7.69761 7.3165 7.4241 7.03618 7.30804C6.75586 7.19199 6.43324 7.25625 6.21878 7.47085L2.22145 11.4708C1.92879 11.7637 1.92879 12.2383 2.22144 12.5311L6.21877 16.5312C6.43323 16.7458 6.75586 16.81 7.03618 16.694C7.31649 16.5779 7.49928 16.3044 7.49928 16.001L7.49928 12.751V11.251Z" fill="#323544"/>
<path opacity="0.4" d="M16.4995 11.251L7.49902 11.251V12.751L16.4995 12.751V11.251Z" fill="#323544"/>
</svg>
