<svg width="24" height="25" viewBox="0 0 24 25" fill="none" xmlns="http://www.w3.org/2000/svg">
<path fill-rule="evenodd" clip-rule="evenodd" d="M12.7461 13.7548H11.2461H6.00002C5.69663 13.7548 5.42312 13.9376 5.30707 14.2179C5.19101 14.4982 5.25526 14.8208 5.46986 15.0353L11.4228 20.9844C11.5604 21.1474 11.7662 21.2509 11.9961 21.2509C12.0038 21.2509 12.0114 21.2508 12.019 21.2505C12.2045 21.2458 12.3884 21.1727 12.53 21.0313L18.5302 15.0353C18.7448 14.8209 18.809 14.4982 18.693 14.2179C18.5769 13.9376 18.3034 13.7548 18 13.7548H12.7461Z" fill="#323544"/>
<path opacity="0.4" d="M12.7461 4.49951C12.7461 4.0853 12.4103 3.74951 11.9961 3.74951C11.5819 3.74951 11.2461 4.0853 11.2461 4.49951L11.2461 13.7548H12.7461L12.7461 4.49951Z" fill="#323544"/>
</svg>
