<svg width="24" height="24" viewBox="0 0 24 24" fill="none" xmlns="http://www.w3.org/2000/svg">
<path fill-rule="evenodd" clip-rule="evenodd" d="M11.4341 2.25975L7.46988 6.22121C7.25527 6.43566 7.19101 6.75829 7.30706 7.03861C7.42312 7.31893 7.69663 7.50172 8.00002 7.50172L11.25 7.50172L12.75 7.50172L16 7.50173C16.3034 7.50173 16.5769 7.31894 16.693 7.03863C16.809 6.75831 16.7448 6.43569 16.5302 6.22123L12.5642 2.25771C12.4267 2.10094 12.2249 2.00195 12 2.00195C11.7742 2.00195 11.5716 2.10179 11.4341 2.25975ZM12.75 16.5022H11.25L8.00002 16.5022C7.69663 16.5022 7.42312 16.685 7.30707 16.9653C7.19101 17.2456 7.25527 17.5682 7.46987 17.7827L11.4699 21.78C11.7627 22.0727 12.2373 22.0727 12.5302 21.78L16.5302 17.7827C16.7448 17.5682 16.809 17.2456 16.693 16.9653C16.5769 16.685 16.3034 16.5022 16 16.5022L12.75 16.5022Z" fill="#323544"/>
<path opacity="0.4" d="M12.75 16.5022L12.75 7.50171L11.25 7.50171L11.25 16.5022H12.75Z" fill="#323544"/>
</svg>
