<svg width="24" height="25" viewBox="0 0 24 25" fill="none" xmlns="http://www.w3.org/2000/svg">
<path opacity="0.4" d="M15.125 6.12502C15.125 5.82168 14.9423 5.5482 14.662 5.43211C14.3818 5.31603 14.0592 5.38019 13.8447 5.59469L7.59467 11.8447C7.30178 12.1376 7.30178 12.6125 7.59467 12.9054L13.8447 19.1554C14.0592 19.3699 14.3818 19.434 14.662 19.3179C14.9423 19.2018 15.125 18.9284 15.125 18.625V6.12502Z" fill="#323544"/>
<path d="M13.9296 5.52148C14.1389 5.36699 14.4168 5.33007 14.6621 5.43164C14.9423 5.54773 15.1249 5.82165 15.1249 6.125V18.625C15.1249 18.9283 14.9423 19.2023 14.6621 19.3184C14.3818 19.4344 14.0591 19.3698 13.8447 19.1553L7.59467 12.9053C7.30178 12.6124 7.30178 12.1376 7.59467 11.8447L13.8447 5.59473L13.9296 5.52148ZM9.18549 12.375L13.6249 16.8145V7.93555L9.18549 12.375Z" fill="#323544"/>
</svg>
