<svg width="24" height="25" viewBox="0 0 24 25" fill="none" xmlns="http://www.w3.org/2000/svg">
<path opacity="0.4" d="M5.75002 9.25C5.44668 9.25 5.1732 9.43273 5.05711 9.71299C4.94103 9.99324 5.00519 10.3158 5.21969 10.5303L11.4697 16.7803C11.7626 17.0732 12.2375 17.0732 12.5304 16.7803L18.7804 10.5303C18.9949 10.3158 19.059 9.99324 18.9429 9.71299C18.8268 9.43273 18.5534 9.25 18.25 9.25L5.75002 9.25Z" fill="#323544"/>
<path d="M5.14655 10.4453C4.99205 10.236 4.95513 9.95817 5.0567 9.71289C5.17279 9.43264 5.44671 9.25 5.75006 9.25L18.2501 9.25C18.5534 9.25 18.8273 9.43263 18.9434 9.71289C19.0595 9.99313 18.9948 10.3158 18.7803 10.5303L12.5303 16.7803C12.2374 17.0732 11.7627 17.0732 11.4698 16.7803L5.21979 10.5303L5.14655 10.4453ZM12.0001 15.1895L16.4395 10.75L7.56061 10.75L12.0001 15.1895Z" fill="#323544"/>
</svg>
