<svg width="24" height="25" viewBox="0 0 24 25" fill="none" xmlns="http://www.w3.org/2000/svg">
<path opacity="0.4" d="M2 12.375C2 6.85215 6.47715 2.375 12 2.375C17.5228 2.375 22 6.85215 22 12.375C22 17.8978 17.5228 22.375 12 22.375C6.47715 22.375 2 17.8978 2 12.375ZM10.463 8.43211C10.1827 8.5482 10 8.82167 10 9.12502V15.625C10 15.9284 10.1827 16.2018 10.463 16.3179C10.7432 16.434 11.0658 16.3699 11.2803 16.1554L14.5303 12.9054C14.8232 12.6125 14.8232 12.1376 14.5303 11.8447L11.2803 8.59469C11.0658 8.38019 10.7432 8.31603 10.463 8.43211Z" fill="#323544"/>
<path d="M11.2803 8.59469C11.0658 8.38019 10.7432 8.31603 10.463 8.43211C10.1827 8.5482 10 8.82168 10 9.12502V15.625C10 15.9284 10.1827 16.2018 10.463 16.3179C10.7432 16.434 11.0658 16.3699 11.2803 16.1554L14.5303 12.9054C14.8232 12.6125 14.8232 12.1376 14.5303 11.8447L11.2803 8.59469Z" fill="#323544"/>
</svg>
