<svg width="24" height="25" viewBox="0 0 24 25" fill="none" xmlns="http://www.w3.org/2000/svg">
<path opacity="0.4" d="M22 12.375C22 17.8978 17.5228 22.375 12 22.375C6.47715 22.375 2 17.8978 2 12.375C2 6.85215 6.47715 2.375 12 2.375C17.5228 2.375 22 6.85215 22 12.375ZM13.537 16.3179C13.8173 16.2018 14 15.9283 14 15.625V9.12498C14 8.82163 13.8173 8.54815 13.537 8.43207C13.2568 8.31598 12.9342 8.38015 12.7197 8.59465L9.46967 11.8446C9.17678 12.1375 9.17678 12.6124 9.46967 12.9053L12.7197 16.1553C12.9342 16.3698 13.2568 16.434 13.537 16.3179Z" fill="#323544"/>
<path d="M12.7197 16.1554C12.9342 16.3699 13.2568 16.434 13.537 16.3179C13.8173 16.2018 14 15.9284 14 15.625V9.12502C14 8.82168 13.8173 8.5482 13.537 8.43211C13.2568 8.31603 12.9342 8.38019 12.7197 8.59469L9.46967 11.8447C9.17678 12.1376 9.17678 12.6125 9.46967 12.9054L12.7197 16.1554Z" fill="#323544"/>
</svg>
