<svg width="24" height="25" viewBox="0 0 24 25" fill="none" xmlns="http://www.w3.org/2000/svg">
<path opacity="0.4" d="M18.25 15.5C18.5534 15.5 18.8268 15.3173 18.9429 15.037C19.059 14.7568 18.9949 14.4342 18.7804 14.2197L12.5304 7.96967C12.2375 7.67678 11.7626 7.67678 11.4697 7.96967L5.21969 14.2197C5.00519 14.4342 4.94103 14.7568 5.05711 15.037C5.1732 15.3173 5.44668 15.5 5.75002 15.5L18.25 15.5Z" fill="#323544"/>
<path d="M18.8536 14.3047C19.0081 14.514 19.045 14.7918 18.9434 15.0371C18.8273 15.3174 18.5534 15.5 18.2501 15.5L5.75007 15.5C5.44673 15.5 5.1728 15.3174 5.05672 15.0371C4.94067 14.7569 5.00532 14.4342 5.2198 14.2197L11.4698 7.96973C11.7627 7.67684 12.2375 7.67684 12.5303 7.96973L18.7803 14.2197L18.8536 14.3047ZM12.0001 9.56055L7.56062 14H16.4395L12.0001 9.56055Z" fill="#323544"/>
</svg>
