<svg width="24" height="25" viewBox="0 0 24 25" fill="none" xmlns="http://www.w3.org/2000/svg">
<path opacity="0.4" d="M12 2.375C17.5228 2.375 22 6.85215 22 12.375C22 17.8978 17.5228 22.375 12 22.375C6.47715 22.375 2 17.8978 2 12.375C2 6.85215 6.47715 2.375 12 2.375ZM15.9429 10.838C15.8268 10.5577 15.5533 10.375 15.25 10.375H8.74998C8.44663 10.375 8.17315 10.5577 8.05707 10.838C7.94098 11.1182 8.00515 11.4408 8.21965 11.6553L11.4696 14.9053C11.7625 15.1982 12.2374 15.1982 12.5303 14.9053L15.7803 11.6553C15.9948 11.4408 16.059 11.1182 15.9429 10.838Z" fill="#323544"/>
<path d="M15.7804 11.6553C15.9949 11.4408 16.059 11.1182 15.9429 10.838C15.8268 10.5577 15.5534 10.375 15.25 10.375H8.75002C8.44668 10.375 8.1732 10.5577 8.05711 10.838C7.94103 11.1182 8.00519 11.4408 8.21969 11.6553L11.4697 14.9053C11.7626 15.1982 12.2375 15.1982 12.5304 14.9053L15.7804 11.6553Z" fill="#323544"/>
</svg>
