<svg width="24" height="25" viewBox="0 0 24 25" fill="none" xmlns="http://www.w3.org/2000/svg">
<path opacity="0.4" d="M12 22.375C6.47715 22.375 2 17.8978 2 12.375C2 6.85215 6.47715 2.375 12 2.375C17.5228 2.375 22 6.85215 22 12.375C22 17.8978 17.5228 22.375 12 22.375ZM8.05711 13.912C8.1732 14.1923 8.44667 14.375 8.75002 14.375H15.25C15.5534 14.375 15.8268 14.1923 15.9429 13.912C16.059 13.6318 15.9949 13.3092 15.7804 13.0947L12.5304 9.84467C12.2375 9.55178 11.7626 9.55178 11.4697 9.84467L8.21969 13.0947C8.00519 13.3092 7.94103 13.6318 8.05711 13.912Z" fill="#323544"/>
<path d="M8.21969 13.0947C8.00519 13.3092 7.94103 13.6318 8.05711 13.912C8.1732 14.1923 8.44668 14.375 8.75002 14.375H15.25C15.5534 14.375 15.8268 14.1923 15.9429 13.912C16.059 13.6318 15.9949 13.3092 15.7804 13.0947L12.5304 9.84467C12.2375 9.55178 11.7626 9.55178 11.4697 9.84467L8.21969 13.0947Z" fill="#323544"/>
</svg>
