<svg width="24" height="25" viewBox="0 0 24 25" fill="none" xmlns="http://www.w3.org/2000/svg">
<path opacity="0.4" d="M7.875 2.375C6.01104 2.375 4.5 3.88604 4.5 5.75C4.5 7.61396 6.01104 9.125 7.875 9.125H9V13.3711C9 13.7853 9.33579 14.1211 9.75 14.1211C10.1642 14.1211 10.5 13.7853 10.5 13.3711V3.875H13.5V13.3711C13.5 13.7853 13.8358 14.1211 14.25 14.1211C14.6642 14.1211 15 13.7853 15 13.3711V3.875H18.75C19.1642 3.875 19.5 3.53921 19.5 3.125C19.5 2.71079 19.1642 2.375 18.75 2.375H7.875Z" fill="#323544"/>
<path d="M16.2785 15.8407C16.0641 15.6261 15.7415 15.5619 15.4611 15.6779C15.1808 15.794 14.998 16.0675 14.998 16.3709V18.6229L5.25 18.6229C4.83579 18.6229 4.5 18.9587 4.5 19.3729C4.5 19.7871 4.83579 20.1229 5.25 20.1229L14.998 20.1229V22.3749C14.998 22.6783 15.1808 22.9518 15.4612 23.0678C15.7415 23.1839 16.0641 23.1196 16.2786 22.905L19.2464 19.9351C19.4019 19.7976 19.5 19.5967 19.5 19.3729C19.5 19.1498 19.4026 18.9495 19.2481 18.8122L16.2785 15.8407Z" fill="#323544"/>
</svg>
