<svg width="24" height="25" viewBox="0 0 24 25" fill="none" xmlns="http://www.w3.org/2000/svg">
<path opacity="0.4" d="M7.875 2.375C6.01104 2.375 4.5 3.88604 4.5 5.75C4.5 7.61396 6.01104 9.125 7.875 9.125H9V13.3711C9 13.7853 9.33579 14.1211 9.75 14.1211C10.1642 14.1211 10.5 13.7853 10.5 13.3711V3.875H13.5V13.3711C13.5 13.7853 13.8358 14.1211 14.25 14.1211C14.6642 14.1211 15 13.7853 15 13.3711V3.875H18.75C19.1642 3.875 19.5 3.53921 19.5 3.125C19.5 2.71079 19.1642 2.375 18.75 2.375H7.875Z" fill="#323544"/>
<path d="M9.00195 16.3709C9.00195 16.0675 8.81917 15.794 8.53886 15.6779C8.25854 15.5619 7.93592 15.6261 7.72145 15.8407L4.7519 18.8122C4.59736 18.9495 4.5 19.1498 4.5 19.3729C4.5 19.5967 4.59806 19.7976 4.75355 19.9351L7.72144 22.905C7.93589 23.1196 8.25852 23.1839 8.53884 23.0678C8.81916 22.9518 9.00195 22.6783 9.00195 22.3749V20.1229L18.75 20.1229C19.1642 20.1229 19.5 19.7871 19.5 19.3729C19.5 18.9587 19.1642 18.6229 18.75 18.6229L9.00195 18.6229V16.3709Z" fill="#323544"/>
</svg>
