<svg width="25" height="25" viewBox="0 0 25 25" fill="none" xmlns="http://www.w3.org/2000/svg">
<path opacity="0.4" d="M12.4214 2.50098C6.89916 2.50098 2.42188 6.97766 2.42188 12.5C2.42188 18.0224 6.89916 22.4991 12.4214 22.4991C17.9437 22.4991 22.421 18.0224 22.421 12.5C22.421 6.97766 17.9437 2.50098 12.4214 2.50098Z" fill="#323544"/>
<path d="M12.4231 8.30957C12.8373 8.30957 13.1731 8.64536 13.1731 9.05957V12.5385H15.0739C15.3773 12.5385 15.6508 12.7213 15.7668 13.0016C15.8829 13.282 15.8186 13.6046 15.604 13.819L12.9901 16.4311C12.8526 16.5898 12.6496 16.6902 12.4231 16.6902C12.2093 16.6902 12.0163 16.6007 11.8797 16.4572L9.23988 13.819C9.02528 13.6046 8.96103 13.2819 9.07709 13.0016C9.19314 12.7213 9.46665 12.5385 9.77004 12.5385H11.6716H11.6731V9.05957C11.6731 8.64536 12.0089 8.30957 12.4231 8.30957Z" fill="#323544"/>
</svg>
