<svg width="25" height="25" viewBox="0 0 25 25" fill="none" xmlns="http://www.w3.org/2000/svg">
<path opacity="0.4" d="M5.17188 16.5C5.17188 16.0858 4.83609 15.75 4.42188 15.75C4.00766 15.75 3.67188 16.0858 3.67188 16.5V19C3.67188 20.2426 4.67923 21.25 5.92188 21.25H18.9227C20.1654 21.25 21.1727 20.2426 21.1727 19V16.5C21.1727 16.0858 20.837 15.75 20.4227 15.75C20.0085 15.75 19.6727 16.0858 19.6727 16.5V19C19.6727 19.4142 19.337 19.75 18.9227 19.75H5.92188C5.50766 19.75 5.17188 19.4142 5.17188 19V16.5Z" fill="#323544"/>
<path d="M13.1739 4.5C13.1739 4.08579 12.8381 3.75 12.4239 3.75C12.0096 3.75 11.6739 4.08579 11.6739 4.5L11.6738 11.1254L7.7969 11.1254C7.49351 11.1254 7.22 11.3082 7.10394 11.5885C6.98788 11.8688 7.05214 12.1914 7.26674 12.4059L11.8763 17.0126C12.0132 17.1587 12.2078 17.25 12.4238 17.25C12.6566 17.25 12.8645 17.144 13.0021 16.9776L17.577 12.4059C17.7916 12.1915 17.8559 11.8688 17.7399 11.5885C17.6238 11.3082 17.3503 11.1254 17.0469 11.1254H13.1738L13.1739 4.5Z" fill="#323544"/>
</svg>
