<svg width="24" height="25" viewBox="0 0 24 25" fill="none" xmlns="http://www.w3.org/2000/svg">
<path opacity="0.4" d="M4.25 9.37451H6.12857C6.20974 9.49606 6.30353 9.61082 6.40957 9.71678L10.3528 13.6573C10.7636 14.0985 11.3496 14.3745 12 14.3745C12.6486 14.3745 13.233 14.1001 13.6436 13.6611L17.5905 9.71672C17.6965 9.61078 17.7903 9.49604 17.8714 9.37451H19.75C20.9926 9.37451 22 10.3819 22 11.6245V17.6245C22 18.8672 20.9926 19.8745 19.75 19.8745H4.25C3.00736 19.8745 2 18.8672 2 17.6245V11.6245C2 10.3819 3.00736 9.37451 4.25 9.37451Z" fill="#323544"/>
<path d="M16.693 7.83833C16.809 8.11864 16.7448 8.44127 16.5302 8.65573L12.5605 12.6229C12.4231 12.7773 12.2229 12.8745 12 12.8745C11.776 12.8745 11.575 12.7763 11.4376 12.6207L7.46988 8.65575C7.25527 8.44129 7.19101 8.11866 7.30706 7.83834C7.42312 7.55802 7.69663 7.37523 8.00002 7.37523H11.25L11.25 4.37451C11.25 3.9603 11.5858 3.62451 12 3.62451C12.4142 3.62451 12.75 3.9603 12.75 4.37451L12.75 7.37523H16C16.3034 7.37523 16.5769 7.55801 16.693 7.83833Z" fill="#323544"/>
</svg>
