<svg width="24" height="25" viewBox="0 0 24 25" fill="none" xmlns="http://www.w3.org/2000/svg">
<path opacity="0.4" d="M11.25 2.12451C10.0074 2.12451 9 3.13187 9 4.37451V6.25308C9.12153 6.33423 9.23627 6.42802 9.34221 6.53403L13.2866 10.4809C13.7256 10.8915 14 11.476 14 12.1245C14 12.7749 13.724 13.3609 13.2828 13.7717L9.34227 17.7149C9.23631 17.821 9.12155 17.9148 9 17.9959V19.8745C9 21.1172 10.0074 22.1245 11.25 22.1245H17.25C18.4926 22.1245 19.5 21.1172 19.5 19.8745V4.37451C19.5 3.13187 18.4926 2.12451 17.25 2.12451H11.25Z" fill="#323544"/>
<path d="M7.46382 7.43158C7.74413 7.31552 8.06676 7.37977 8.28122 7.59437L12.2484 11.5641C12.4028 11.7015 12.5 11.9016 12.5 12.1245C12.5 12.3485 12.4018 12.5495 12.2462 12.687L8.28123 16.6547C8.06678 16.8693 7.74415 16.9335 7.46383 16.8175C7.18351 16.7014 7.00072 16.4279 7.00072 16.1245L7.00072 12.8745L4 12.8745C3.58579 12.8745 3.25 12.5387 3.25 12.1245C3.25 11.7103 3.58579 11.3745 4 11.3745L7.00072 11.3745L7.00072 8.12453C7.00072 7.82114 7.1835 7.54764 7.46382 7.43158Z" fill="#323544"/>
</svg>
