<svg width="24" height="25" viewBox="0 0 24 25" fill="none" xmlns="http://www.w3.org/2000/svg">
<path opacity="0.4" d="M4.25 9.37451H5.98476C6.36253 10.1358 7.14137 10.6238 8 10.6238L9.75 10.6238L9.75 12.1245C9.75 13.3672 10.7574 14.3745 12 14.3745C13.2426 14.3745 14.25 13.3672 14.25 12.1245L14.25 10.6238H16C16.8586 10.6238 17.6375 10.1358 18.0152 9.37451H19.75C20.9926 9.37451 22 10.3819 22 11.6245V17.6245C22 18.8672 20.9926 19.8745 19.75 19.8745H4.25C3.00736 19.8745 2 18.8672 2 17.6245V11.6245C2 10.3819 3.00736 9.37451 4.25 9.37451Z" fill="#323544"/>
<path d="M16.693 8.6607C16.5769 8.94101 16.3034 9.12379 16 9.12379L12.75 9.12379L12.75 12.1245C12.75 12.5387 12.4142 12.8745 12 12.8745C11.5858 12.8745 11.25 12.5387 11.25 12.1245L11.25 9.12379H8.00002C7.69663 9.12379 7.42312 8.94101 7.30706 8.66068C7.19101 8.38036 7.25527 8.05773 7.46988 7.84328L11.4376 3.87836C11.575 3.72269 11.776 3.62451 12 3.62451C12.2229 3.62451 12.4231 3.72174 12.5605 3.8761L16.5302 7.8433C16.7448 8.05776 16.809 8.38038 16.693 8.6607Z" fill="#323544"/>
</svg>
