<svg width="24" height="25" viewBox="0 0 24 25" fill="none" xmlns="http://www.w3.org/2000/svg">
<path d="M13.3746 7.87452C13.3746 7.57113 13.1918 7.29762 12.9115 7.18156C12.6312 7.06551 12.3086 7.12976 12.0941 7.34436L7.48746 11.9539C7.34132 12.0908 7.25 12.2855 7.25 12.5015C7.25 12.7342 7.356 12.9422 7.52235 13.0797L12.0941 17.6547C12.3085 17.8693 12.6312 17.9335 12.9115 17.8175C13.1918 17.7014 13.3746 17.4279 13.3746 17.1245V13.2515L20 13.2515C20.4142 13.2515 20.75 12.9157 20.75 12.5015C20.75 12.0873 20.4142 11.7515 20 11.7515L13.3746 11.7515L13.3746 7.87452Z" fill="#323544"/>
<path opacity="0.4" d="M4.75 4.49951C4.75 4.0853 4.41421 3.74951 4 3.74951C3.58579 3.74951 3.25 4.0853 3.25 4.49951V20.5004C3.25 20.9146 3.58579 21.2504 4 21.2504C4.41421 21.2504 4.75 20.9146 4.75 20.5004V4.49951Z" fill="#323544"/>
</svg>
