<svg width="24" height="25" viewBox="0 0 24 25" fill="none" xmlns="http://www.w3.org/2000/svg">
<path d="M11.9059 7.34523C11.6915 7.13062 11.3688 7.06636 11.0885 7.18241C10.8082 7.29847 10.6254 7.57198 10.6254 7.87537V11.7484L4 11.7484C3.58579 11.7484 3.25 12.0842 3.25 12.4984C3.25 12.9126 3.58579 13.2484 4 13.2484L10.6254 13.2484V17.1254C10.6254 17.4288 10.8082 17.7023 11.0885 17.8183C11.3688 17.9344 11.6914 17.8701 11.9059 17.6555L16.5126 13.0459C16.6587 12.9091 16.75 12.7144 16.75 12.4984C16.75 12.2657 16.644 12.0577 16.4776 11.9202L11.9059 7.34523Z" fill="#323544"/>
<path opacity="0.4" d="M20.75 4.49951C20.75 4.0853 20.4142 3.74951 20 3.74951C19.5858 3.74951 19.25 4.0853 19.25 4.49951L19.25 20.5004C19.25 20.9146 19.5858 21.2504 20 21.2504C20.4142 21.2504 20.75 20.9146 20.75 20.5004V4.49951Z" fill="#323544"/>
</svg>
