<svg width="24" height="25" viewBox="0 0 24 25" fill="none" xmlns="http://www.w3.org/2000/svg">
<path opacity="0.4" d="M4.75 16.5C4.75 16.0858 4.41421 15.75 4 15.75C3.58579 15.75 3.25 16.0858 3.25 16.5V19C3.25 20.2426 4.25736 21.25 5.5 21.25H18.5009C19.7435 21.25 20.7509 20.2426 20.7509 19V16.5C20.7509 16.0858 20.4151 15.75 20.0009 15.75C19.5867 15.75 19.2509 16.0858 19.2509 16.5V19C19.2509 19.4142 18.9151 19.75 18.5009 19.75H5.5C5.08579 19.75 4.75 19.4142 4.75 19V16.5Z" fill="#323544"/>
<path d="M6.84486 8.5941L11.4544 3.98744C11.5913 3.84131 11.786 3.75 12.002 3.75C12.2347 3.75 12.4427 3.856 12.5802 4.02235L17.1552 8.59408C17.3698 8.80854 17.434 9.13117 17.318 9.41149C17.2019 9.69181 16.9284 9.8746 16.625 9.8746H12.752L12.752 16.5C12.752 16.9142 12.4162 17.25 12.002 17.25C11.5878 17.25 11.252 16.9142 11.252 16.5L11.252 9.8746L7.37502 9.8746C7.07163 9.8746 6.79812 9.69181 6.68207 9.4115C6.56601 9.13119 6.63026 8.80856 6.84486 8.5941Z" fill="#323544"/>
</svg>
