<svg width="25" height="25" viewBox="0 0 25 25" fill="none" xmlns="http://www.w3.org/2000/svg">
<path opacity="0.4" d="M12.4214 22.4991C17.9437 22.4991 22.421 18.0224 22.421 12.5C22.421 6.97766 17.9437 2.50098 12.4214 2.50098C6.89916 2.50098 2.42188 6.97766 2.42188 12.5C2.42188 18.0224 6.89916 22.4991 12.4214 22.4991Z" fill="#323544"/>
<path d="M12.4208 16.6902C12.0066 16.6902 11.6708 16.3544 11.6708 15.9402L11.6708 12.4612L9.77004 12.4612C9.46665 12.4612 9.19314 12.2784 9.07708 11.9981C8.96103 11.7178 9.02529 11.3952 9.2399 11.1807L11.8538 8.56864C11.9913 8.40993 12.1943 8.30954 12.4208 8.30954C12.6346 8.30954 12.8276 8.39901 12.9642 8.54255L15.604 11.1807C15.8186 11.3952 15.8829 11.7178 15.7668 11.9981C15.6508 12.2784 15.3773 12.4612 15.0739 12.4612H13.1708L13.1708 15.9402C13.1708 16.3544 12.835 16.6902 12.4208 16.6902Z" fill="#323544"/>
</svg>
