<svg width="25" height="25" viewBox="0 0 25 25" fill="none" xmlns="http://www.w3.org/2000/svg">
<path d="M15.2774 9.63017C15.2774 11.334 13.8962 12.7152 12.1924 12.7152C10.4886 12.7152 9.10742 11.334 9.10742 9.63017C9.10742 7.92637 10.4886 6.54517 12.1924 6.54517C13.8962 6.54517 15.2774 7.92637 15.2774 9.63017Z" stroke="#323544" stroke-width="1.5" stroke-linecap="round" stroke-linejoin="round"/>
<path d="M18.9143 9.63221C18.9143 14.8597 14.935 19.2876 13.1079 21.0451C12.5979 21.5357 11.8214 21.5367 11.31 21.0475C9.47431 19.2916 5.47021 14.8621 5.47021 9.63221C5.47021 5.91972 8.47978 2.91016 12.1923 2.91016C15.9048 2.91016 18.9143 5.91972 18.9143 9.63221Z" stroke="#323544" stroke-width="1.5" stroke-linecap="round" stroke-linejoin="round"/>
</svg>
