<svg width="24" height="24" viewBox="0 0 24 24" fill="none" xmlns="http://www.w3.org/2000/svg">
<path d="M5.19189 5.19238H5.19934M18.8079 16.8098H18.8153" stroke="#323544" stroke-width="1.8" stroke-linecap="round" stroke-linejoin="round"/>
<path d="M9.16886 9.63677H10.3966C12.0001 9.63677 13.2999 10.9366 13.2999 12.5401C13.2999 14.1436 12.0001 15.4434 10.3966 15.4434L5.65715 15.4434C4.05369 15.4434 2.75382 16.7433 2.75382 18.3467C2.75382 19.9502 4.05368 21.2501 5.65714 21.2501H14.7704M7.63403 5.19201C7.63403 7.65698 5.19848 9.63252 5.19848 9.63252C5.19848 9.63252 2.75 7.65698 2.75 5.19201C2.75 3.84333 3.84333 2.75 5.19201 2.75C6.5407 2.75 7.63403 3.84333 7.63403 5.19201ZM21.25 16.8094C21.25 19.2744 18.8144 21.25 18.8144 21.25C18.8144 21.25 16.366 19.2744 16.366 16.8094C16.366 15.4608 17.4593 14.3674 18.808 14.3674C20.1567 14.3674 21.25 15.4608 21.25 16.8094Z" stroke="#323544" stroke-width="1.5" stroke-linecap="round" stroke-linejoin="round"/>
</svg>
