<svg width="24" height="24" viewBox="0 0 24 24" fill="none" xmlns="http://www.w3.org/2000/svg">
<path opacity="0.4" d="M5.60865 11.5794C7.70679 9.48121 11.109 9.48151 13.2073 11.5794C15.3056 13.6776 15.3056 17.0797 13.2073 19.178C11.109 21.2763 7.70694 21.2763 5.60865 19.178C3.51081 17.0797 3.51051 13.6775 5.60865 11.5794Z" fill="#323544"/>
<path d="M14.9912 3.46782C15.2658 3.19339 15.7006 3.17578 15.9951 3.41606L16.0518 3.46782L18.1553 5.57133L18.6855 5.04204C18.9785 4.74932 19.4533 4.74921 19.7461 5.04204C20.0387 5.33489 20.0387 5.80975 19.7461 6.10258L13.6992 12.1475C13.5502 11.9501 13.387 11.7591 13.207 11.5791C13.027 11.3992 12.8363 11.2361 12.6387 11.087L14.9736 8.752L13.9307 7.70903L13.8799 7.65239C13.6395 7.3579 13.6563 6.92317 13.9307 6.64848C14.2236 6.35576 14.6993 6.35565 14.9922 6.64848L16.0352 7.69145L17.0947 6.63188L14.9912 4.52836L14.9395 4.47172C14.6991 4.17714 14.7166 3.74242 14.9912 3.46782Z" fill="#323544"/>
</svg>
