<svg width="24" height="24" viewBox="0 0 24 24" fill="none" xmlns="http://www.w3.org/2000/svg">
<path opacity="0.4" d="M7.25 6C7.25 3.37665 9.37665 1.25 12 1.25C14.6234 1.25 16.75 3.37665 16.75 6V8.69562C18.4288 10.071 19.5 12.1604 19.5 14.5C19.5 18.6421 16.1421 22 12 22C7.85786 22 4.5 18.6421 4.5 14.5C4.5 12.1604 5.57125 10.071 7.25 8.69562V6ZM8.75 7.73883C9.73325 7.26533 10.8356 7 12 7C13.1644 7 14.2667 7.26533 15.25 7.73883V6C15.25 4.20507 13.7949 2.75 12 2.75C10.2051 2.75 8.75 4.20507 8.75 6V7.73883ZM12 14.75C11.5858 14.75 11.25 15.0858 11.25 15.5V17.5C11.25 17.9142 11.5858 18.25 12 18.25C12.4142 18.25 12.75 17.9142 12.75 17.5V15.5C12.75 15.0858 12.4142 14.75 12 14.75Z" fill="#323544"/>
<path d="M12.75 15.5C12.75 15.0858 12.4142 14.75 12 14.75C11.5858 14.75 11.25 15.0858 11.25 15.5V17.5C11.25 17.9142 11.5858 18.25 12 18.25C12.4142 18.25 12.75 17.9142 12.75 17.5V15.5Z" fill="#323544"/>
</svg>
