<svg width="24" height="24" viewBox="0 0 24 24" fill="none" xmlns="http://www.w3.org/2000/svg">
<path opacity="0.4" d="M11.1385 2.29633C11.6899 2.06789 12.3094 2.06789 12.8608 2.29633L19.409 5.00923C20.1849 5.33068 20.7473 6.07313 20.7701 6.95597C20.8871 11.5013 19.4296 17.7631 13.067 21.5139C12.4101 21.9012 11.5955 21.9047 10.9353 21.5237C4.43153 17.7707 3.09402 11.4935 3.22752 6.95318C3.2534 6.07287 3.81392 5.33089 4.59034 5.00922L11.1385 2.29633ZM15.507 8.71521C15.2141 8.42231 14.7393 8.42231 14.4464 8.71521L10.9648 12.1967L9.55353 10.7854C9.26063 10.4925 8.78576 10.4926 8.49287 10.7854C8.19998 11.0783 8.19998 11.5532 8.49287 11.8461L10.4345 13.7877C10.7274 14.0806 11.2023 14.0806 11.4952 13.7877L15.507 9.77587C15.7999 9.48297 15.7999 9.0081 15.507 8.71521Z" fill="#323544"/>
<path d="M15.5073 9.77545C15.8001 9.48255 15.8001 9.00768 15.5073 8.71479C15.2144 8.42189 14.7395 8.42189 14.4466 8.71479L10.9651 12.1963L9.55376 10.785C9.26087 10.4921 8.786 10.4921 8.4931 10.785C8.20021 11.0779 8.20022 11.5528 8.49311 11.8457L10.4347 13.7873C10.7276 14.0802 11.2025 14.0802 11.4954 13.7873L15.5073 9.77545Z" fill="#323544"/>
</svg>
