<svg width="24" height="24" viewBox="0 0 24 24" fill="none" xmlns="http://www.w3.org/2000/svg">
<path opacity="0.4" d="M11.1385 2.29633C11.6899 2.06789 12.3094 2.06789 12.8608 2.29633L19.409 5.00923C20.1849 5.33068 20.7473 6.07313 20.7701 6.95597C20.8871 11.5013 19.4296 17.7631 13.067 21.5139C12.4101 21.9012 11.5955 21.9047 10.9353 21.5237C4.43153 17.7707 3.09402 11.4935 3.22752 6.95318C3.2534 6.07287 3.81392 5.33089 4.59034 5.00922L11.1385 2.29633Z" fill="#323544"/>
<path d="M11.1385 2.33051C11.6899 2.10207 12.3094 2.10207 12.8608 2.33051L19.409 5.04341C20.1849 5.36486 20.7473 6.10731 20.7701 6.99015C20.8871 11.5354 19.4296 17.7973 13.067 21.5481C12.4101 21.9354 11.5955 21.9389 10.9353 21.5579C4.43153 17.8049 3.09402 11.5277 3.22752 6.98736C3.2534 6.10705 3.81392 5.36507 4.59034 5.0434L11.1385 2.33051ZM12.2867 3.71629C12.1029 3.64014 11.8964 3.64014 11.7126 3.71629L5.16447 6.42918C4.89602 6.5404 4.73423 6.78126 4.72687 7.03145C4.60224 11.27 5.84237 16.8872 11.685 20.2587C11.8771 20.3696 12.1143 20.3685 12.3052 20.2559C18.0304 16.8809 19.3795 11.2572 19.2706 7.02876C19.2642 6.78102 19.1038 6.54061 18.8349 6.42919L12.2867 3.71629Z" fill="#323544"/>
</svg>
