<svg width="24" height="24" viewBox="0 0 24 24" fill="none" xmlns="http://www.w3.org/2000/svg">
<path opacity="0.4" d="M6.75 7.25C6.75 4.35051 9.10051 2 12 2C13.9882 2 15.7172 3.10553 16.6076 4.73184C16.8066 5.09516 16.6733 5.55095 16.31 5.74987C15.9466 5.9488 15.4909 5.81553 15.2919 5.45221C14.6541 4.28724 13.4184 3.5 12 3.5C9.92893 3.5 8.25 5.17893 8.25 7.25V9.125H18.5C19.7426 9.125 20.75 10.1324 20.75 11.375V17.2495C20.75 19.8729 18.6234 21.9995 16 21.9995H8C5.37665 21.9995 3.25 19.8729 3.25 17.2495V11.375C3.25 10.1324 4.25736 9.125 5.5 9.125H6.75V7.25ZM12 14.5C11.1716 14.5 10.5 15.1716 10.5 16V17.5C10.5 18.3284 11.1716 19 12 19C12.8284 19 13.5 18.3284 13.5 17.5V16C13.5 15.1716 12.8284 14.5 12 14.5Z" fill="#323544"/>
<path d="M10.5 16C10.5 15.1716 11.1716 14.5 12 14.5C12.8284 14.5 13.5 15.1716 13.5 16V17.5C13.5 18.3284 12.8284 19 12 19C11.1716 19 10.5 18.3284 10.5 17.5V16Z" fill="#323544"/>
</svg>
