<svg width="24" height="24" viewBox="0 0 24 24" fill="none" xmlns="http://www.w3.org/2000/svg">
<path d="M20.5 12C20.5 9.78993 19.6574 7.77788 18.2744 6.26562L17.9902 5.96973C16.4528 4.44249 14.3372 3.5 12 3.5C9.80879 3.5 7.81246 4.32844 6.30469 5.69043L6.00977 5.96973C4.45895 7.51031 3.5 9.64242 3.5 12C3.5 14.3576 4.45895 16.4897 6.00977 18.0303L6.30469 18.3096C7.81246 19.6716 9.80879 20.5 12 20.5C14.3372 20.5 16.4528 19.5575 17.9902 18.0303L18.2744 17.7344C19.6574 16.2221 20.5 14.2101 20.5 12ZM22 12C22 14.5999 21.0069 16.9691 19.3809 18.7471L19.0479 19.0947C17.2409 20.8897 14.7492 22 12 22C9.42246 22 7.07151 21.0241 5.29883 19.4229L4.95215 19.0947C3.12955 17.2841 2 14.7732 2 12C2 9.22684 3.12955 6.7159 4.95215 4.90527L5.29883 4.57715C7.07151 2.97594 9.42246 2 12 2C14.7492 2 17.2409 3.11026 19.0479 4.90527L19.3809 5.25293C21.0069 7.03085 22 9.40005 22 12Z" fill="#323544"/>
<path opacity="0.4" d="M12 3.5C12.2525 3.5 12.5022 3.51264 12.749 3.53418V7.33984C14.5083 7.18611 16.1122 6.49695 17.4004 5.43555C17.6053 5.60434 17.802 5.78275 17.9902 5.96973L18.2744 6.26562C18.3424 6.34001 18.4083 6.41639 18.4736 6.49316C16.9074 7.8246 14.9254 8.68221 12.749 8.84375V11.25H20.4658C20.4874 11.4972 20.5 11.7472 20.5 12C20.5 12.2528 20.4874 12.5028 20.4658 12.75H12.749V15.1553C14.9252 15.3168 16.9075 16.1745 18.4736 17.5059C18.4081 17.5828 18.3426 17.6598 18.2744 17.7344L17.9902 18.0303C17.8022 18.2171 17.6051 18.3948 17.4004 18.5635C16.1123 17.5021 14.5082 16.8129 12.749 16.6592V20.4648C12.5022 20.4864 12.2525 20.5 12 20.5C11.7469 20.5 11.4965 20.4875 11.249 20.4658V16.6592C9.49011 16.8129 7.88565 17.5013 6.59766 18.5625C6.49807 18.4804 6.40041 18.396 6.30469 18.3096L6.00977 18.0303C5.84055 17.8622 5.68004 17.6856 5.52539 17.5039C7.09129 16.1733 9.07351 15.3167 11.249 15.1553V12.75H3.53418C3.51258 12.5028 3.5 12.2528 3.5 12C3.5 11.7472 3.51258 11.4972 3.53418 11.25H11.249V8.84375C9.07332 8.68226 7.09136 7.82581 5.52539 6.49512C5.67989 6.31361 5.84072 6.13765 6.00977 5.96973L6.30469 5.69043C6.40057 5.60382 6.4979 5.51874 6.59766 5.43652C7.88572 6.4977 9.48993 7.18613 11.249 7.33984V3.5332C11.4965 3.51155 11.7469 3.5 12 3.5Z" fill="#323544"/>
</svg>
