<svg width="24" height="24" viewBox="0 0 24 24" fill="none" xmlns="http://www.w3.org/2000/svg">
<path opacity="0.4" d="M14.252 7C14.252 5.75768 13.2439 4.75 12.001 4.75C10.7587 4.75 9.75195 5.75704 9.75195 7C9.75195 8.24264 10.7593 9.25 12.002 9.25C13.2446 9.25 14.252 8.24264 14.252 7ZM15.752 7C15.752 9.07107 14.073 10.75 12.002 10.75C9.93089 10.75 8.25195 9.07107 8.25195 7C8.25195 6.65685 8.29847 6.32458 8.38477 6.00879C7.03819 7.07615 6.17383 8.72539 6.17383 10.5771V13.5C6.17383 13.9142 5.83802 14.25 5.42383 14.25C5.00979 14.2498 4.67387 13.9141 4.67383 13.5V10.5771C4.67383 6.59614 7.84879 3.35994 11.8047 3.25586C11.8697 3.25251 11.9351 3.25 12.001 3.25L12.1943 3.25488L12.1963 3.25586C16.1526 3.35944 19.3281 6.59581 19.3281 10.5771V13.5C19.3281 13.9142 18.9923 14.25 18.5781 14.25C18.1639 14.25 17.8281 13.9142 17.8281 13.5V10.5771C17.8281 8.72611 16.9639 7.07814 15.6182 6.01074C15.7043 6.32603 15.752 6.65741 15.752 7Z" fill="#323544"/>
<path d="M6.17383 15C6.17383 14.5858 5.83804 14.25 5.42383 14.25C5.00961 14.25 4.67383 14.5858 4.67383 15V18.5C4.67383 18.9142 5.00961 19.25 5.42383 19.25C5.83804 19.25 6.17383 18.9142 6.17383 18.5V15ZM19.3281 15C19.3281 14.5859 18.9922 14.2502 18.5781 14.25C18.1639 14.25 17.8281 14.5858 17.8281 15V18.5C17.8281 18.9142 18.1639 19.25 18.5781 19.25C18.9922 19.2498 19.3281 18.9141 19.3281 18.5V15ZM7.67383 18.5C7.67383 19.7426 6.66647 20.75 5.42383 20.75C4.18119 20.75 3.17383 19.7426 3.17383 18.5V15C3.17383 13.7574 4.18119 12.75 5.42383 12.75C6.66647 12.75 7.67383 13.7574 7.67383 15V18.5ZM20.8281 18.5C20.8281 19.7425 19.8206 20.7498 18.5781 20.75C17.3355 20.75 16.3281 19.7426 16.3281 18.5V15C16.3281 13.7574 17.3355 12.75 18.5781 12.75C19.8206 12.7502 20.8281 13.7575 20.8281 15V18.5Z" fill="#323544"/>
</svg>
