<svg width="24" height="24" viewBox="0 0 24 24" fill="none" xmlns="http://www.w3.org/2000/svg">
<path d="M13.0002 10.25H11.0002C10.4479 10.25 10.0002 10.6977 10.0002 11.25C10.0002 11.8023 10.4479 12.25 11.0002 12.25H13.0002C13.5525 12.25 14.0002 11.8023 14.0002 11.25C14.0002 10.6977 13.5525 10.25 13.0002 10.25Z" fill="#323544"/>
<path d="M3.2502 11.25H7.62525H10.0002M20.7504 11.25H16.3754H14.0002M10.0002 11.25C10.0002 11.8023 10.4479 12.25 11.0002 12.25H13.0002C13.5525 12.25 14.0002 11.8023 14.0002 11.25M10.0002 11.25C10.0002 10.6977 10.4479 10.25 11.0002 10.25H13.0002C13.5525 10.25 14.0002 10.6977 14.0002 11.25M4.75 18.75H19.2502C20.0786 18.75 20.7502 18.0784 20.7502 17.25V8.25C20.7502 7.42157 20.0786 6.75 19.2502 6.75H4.75C3.92157 6.75 3.25 7.42157 3.25 8.25V17.25C3.25 18.0784 3.92157 18.75 4.75 18.75ZM15.5002 6.75V5.25C15.5002 4.42157 14.8286 3.75 14.0002 3.75H10.0002C9.17178 3.75 8.5002 4.42157 8.5002 5.25V6.75H15.5002Z" stroke="#323544" stroke-width="1.5" stroke-linecap="round" stroke-linejoin="round"/>
</svg>
