<svg width="24" height="24" viewBox="0 0 24 24" fill="none" xmlns="http://www.w3.org/2000/svg">
<path d="M13 3.75C13 4.30228 12.5523 4.75 12 4.75C11.4477 4.75 11 4.30228 11 3.75C11 3.19772 11.4477 2.75 12 2.75C12.5523 2.75 13 3.19772 13 3.75ZM8.5 16.25C8.5 16.8023 8.05228 17.25 7.5 17.25C6.94772 17.25 6.5 16.8023 6.5 16.25C6.5 15.6977 6.94772 15.25 7.5 15.25C8.05228 15.25 8.5 15.6977 8.5 16.25ZM17.51 16.25C17.51 16.8023 17.0623 17.25 16.51 17.25C15.9577 17.25 15.51 16.8023 15.51 16.25C15.51 15.6977 15.9577 15.25 16.51 15.25C17.0623 15.25 17.51 15.6977 17.51 16.25Z" fill="#323544" stroke="#323544" stroke-width="1.5" stroke-linejoin="round"/>
<path d="M9 8.75C9.46318 7.61335 10.3431 6.75 12 6.75C13.6569 6.75 14.5368 7.61335 15 8.75M4.5 21.2502C4.96318 20.1136 5.84315 19.2502 7.5 19.2502C9.15685 19.2502 10.0368 20.1136 10.5 21.2502M13.5 21.2502C13.9632 20.1136 14.8431 19.2502 16.5 19.2502C18.1569 19.2502 19.0368 20.1136 19.5 21.2502M11.9996 12.5002L10.2676 13.5002M11.9996 12.5002L13.7316 13.5002M11.9996 12.5002L12 10.5002" stroke="#323544" stroke-width="1.5" stroke-linecap="round" stroke-linejoin="round"/>
</svg>
