<svg width="24" height="24" viewBox="0 0 24 24" fill="none" xmlns="http://www.w3.org/2000/svg">
<path d="M3.54727 9.73587C4.04577 7.87545 5.14421 6.23151 6.67225 5.05901C8.20028 3.88651 10.0725 3.25098 11.9985 3.25098C13.9246 3.25098 15.7968 3.88651 17.3248 5.05901C18.8529 6.23151 19.9513 7.87545 20.4498 9.73587C20.5515 10.1152 20.6163 10.3813 20.6551 10.5644M20.4525 14.2641C19.954 16.1245 18.8556 17.7685 17.3276 18.941C15.7995 20.1135 13.9273 20.749 12.0013 20.749C10.0752 20.749 8.20299 20.1135 6.67496 18.941C5.14693 17.7685 4.04848 16.1245 3.54999 14.2641C3.4463 13.8772 3.38051 13.6081 3.34134 13.4247M17.4804 8.99665L20.5611 10.7314L20.6551 10.5644M22.2957 7.65034L20.6551 10.5644M6.50967 15.0038L3.42896 13.269L3.34134 13.4247M1.69434 16.3501L3.34134 13.4247M13.3022 10.4016C13.3022 9.8621 12.8649 9.42476 12.3254 9.42476H11.9304C11.2495 9.42476 10.6976 9.97671 10.6976 10.6576C10.6976 11.1714 11.0163 11.6314 11.4975 11.8119L12.5023 12.1887C12.9835 12.3691 13.3022 12.8291 13.3022 13.343C13.3022 14.0238 12.7503 14.5758 12.0694 14.5758H11.6744C11.1349 14.5758 10.6976 14.1385 10.6976 13.599M11.9999 14.5758V15.4421M11.9999 8.55835V9.42476" stroke="#323544" stroke-width="1.5" stroke-linecap="round" stroke-linejoin="round"/>
</svg>
