<svg width="24" height="24" viewBox="0 0 24 24" fill="none" xmlns="http://www.w3.org/2000/svg">
<path d="M12.8701 9.86084C12.8701 10.3441 12.4784 10.7358 11.9951 10.7358C11.5119 10.7358 11.1201 10.3441 11.1201 9.86084C11.1201 9.37759 11.5119 8.98584 11.9951 8.98584C12.4784 8.98584 12.8701 9.37759 12.8701 9.86084Z" fill="#323544" stroke="#323544" stroke-width="1.5" stroke-linejoin="round"/>
<path d="M20.4498 9.73587C19.9513 7.87545 18.8529 6.23151 17.3248 5.05901C15.7968 3.88651 13.9246 3.25098 11.9985 3.25098C10.0725 3.25098 8.20028 3.88651 6.67225 5.05901C5.14421 6.23151 4.04577 7.87545 3.54727 9.73587M3.54999 14.2641C4.04848 16.1245 5.14693 17.7685 6.67496 18.941C8.20299 20.1135 10.0752 20.749 12.0013 20.749C13.9273 20.749 15.7995 20.1135 17.3276 18.941C18.8556 17.7685 19.954 16.1245 20.4525 14.2641M17.4804 8.99665L20.5611 10.7314L22.2957 7.65034M6.50967 15.0038L3.42896 13.269L1.69434 16.3501M14.7024 15.2562H9.29738V14.326C9.29738 13.504 9.96374 12.8376 10.7857 12.8376H13.2141C14.0361 12.8376 14.7024 13.504 14.7024 14.326V15.2562Z" stroke="#323544" stroke-width="1.5" stroke-linecap="round" stroke-linejoin="round"/>
</svg>
