<svg width="24" height="24" viewBox="0 0 24 24" fill="none" xmlns="http://www.w3.org/2000/svg">
<path d="M12.0014 2.75C17.1095 2.75 21.2505 6.89178 21.2505 11.9999C21.2505 17.108 17.1095 21.2498 12.0014 21.2498M12.0014 2.75C6.89329 2.75 2.75235 6.89178 2.75235 11.9999C2.75235 17.108 6.89329 21.2498 12.0014 21.2498M12.0014 2.75C14.2101 2.75 16.0005 6.89136 16.0005 11.9993C16.0005 17.1073 14.2102 21.2498 12.0014 21.2498M12.0014 2.75C9.79266 2.75 8.00196 6.89137 8.00196 11.9993C8.00196 17.1073 9.79266 21.2498 12.0014 21.2498M11.9996 15.9986C17.1076 15.9986 21.2492 14.2081 21.2492 11.9993C21.2492 9.79058 17.1076 8.00004 11.9996 8.00004C6.89165 8.00004 2.75 9.79058 2.75 11.9993C2.75 14.2081 6.89166 15.9986 11.9996 15.9986Z" stroke="#323544" stroke-width="1.5" stroke-linecap="round" stroke-linejoin="round"/>
</svg>
