<svg width="25" height="25" viewBox="0 0 25 25" fill="none" xmlns="http://www.w3.org/2000/svg">
<path d="M15.3316 9.21313L9.67472 14.87M21.3156 7.01405L17.5329 3.23133C16.9471 2.64555 15.9973 2.64555 15.4116 3.23133L11.6679 6.975C11.0821 7.56078 11.0821 8.51053 11.6679 9.09632L15.4506 12.879C16.0364 13.4648 16.9861 13.4648 17.5719 12.879L21.3156 9.13537C21.9014 8.54958 21.9014 7.59983 21.3156 7.01405ZM13.3289 15.0007L9.5462 11.2179C8.96041 10.6322 8.01066 10.6322 7.42488 11.2179L3.68543 14.9574C3.09965 15.5432 3.09965 16.4929 3.68543 17.0787L7.46818 20.8615C8.05396 21.4472 9.00371 21.4472 9.5895 20.8615L13.3289 17.122C13.9147 16.5362 13.9147 15.5865 13.3289 15.0007Z" stroke="#323544" stroke-width="1.5" stroke-linecap="round" stroke-linejoin="round"/>
</svg>
