<svg width="25" height="25" viewBox="0 0 25 25" fill="none" xmlns="http://www.w3.org/2000/svg">
<path d="M7.20901 20.7507L7.66245 19.0584M3.84887 17.3905L5.54113 16.9371M21.2683 6.6914L19.576 7.14484M17.9081 3.33126L17.4547 5.02352M13.5624 13.11L15.4548 11.2176C16.0406 10.6319 16.9903 10.6319 17.5761 11.2176L21.3156 14.9571C21.9013 15.5429 21.9013 16.4926 21.3156 17.0784L17.5328 20.8611C16.947 21.4469 15.9973 21.4469 15.4115 20.8611L11.672 17.1217C11.0863 16.5359 11.0863 15.5862 11.672 15.0004L13.5624 13.11ZM13.5624 13.11L15.3241 14.8716M11.441 10.9885L13.3331 9.09632C13.9189 8.51053 13.9189 7.56078 13.3331 6.975L9.58947 3.23133C9.00368 2.64555 8.05393 2.64555 7.46815 3.23133L3.68543 7.01405C3.09965 7.59983 3.09965 8.54958 3.68543 9.13537L7.4291 12.879C8.01489 13.4648 8.96463 13.4648 9.55042 12.879L11.441 10.9885ZM11.441 10.9885L9.66723 9.21477" stroke="#323544" stroke-width="1.5" stroke-linecap="round" stroke-linejoin="round"/>
</svg>
