<svg width="24" height="24" viewBox="0 0 24 24" fill="none" xmlns="http://www.w3.org/2000/svg">
<path d="M4.24805 18.75H19.7495C20.5779 18.75 21.2495 18.0784 21.2495 17.25L21.2495 6.75C21.2495 5.92157 20.5779 5.25 19.7495 5.25H4.24805C3.41962 5.25 2.74805 5.92157 2.74805 6.75V17.25C2.74805 18.0784 3.41962 18.75 4.24805 18.75Z" stroke="#323544" stroke-width="1.5" stroke-linecap="round" stroke-linejoin="round"/>
<path d="M8.93359 10.4004L8.13359 13.6004L6.93359 10.4004L5.73359 13.6004L4.93359 10.4004M13.9994 10.4004L13.1994 13.6004L11.9994 10.4004L10.7994 13.6004L9.99937 10.4004M19.066 10.4004L18.266 13.6004L17.066 10.4004L15.866 13.6004L15.066 10.4004" stroke="#323544" stroke-width="1.2" stroke-linecap="round" stroke-linejoin="round"/>
</svg>
