<svg width="25" height="25" viewBox="0 0 25 25" fill="none" xmlns="http://www.w3.org/2000/svg">
<path opacity="0.4" d="M5 4.40088C5 3.15824 6.00736 2.15088 7.25 2.15088H17.75C18.9926 2.15088 20 3.15824 20 4.40088V21.4009C20 21.6775 19.8478 21.9316 19.6039 22.0621C19.36 22.1926 19.0641 22.1783 18.834 22.0249L12.916 18.0796C12.6641 17.9117 12.3359 17.9117 12.084 18.0796L6.16603 22.0249C5.93588 22.1783 5.63997 22.1926 5.39611 22.0621C5.15224 21.9316 5 21.6775 5 21.4009V4.40088Z" fill="#323544"/>
<path d="M5 4.40088C5 3.15824 6.00736 2.15088 7.25 2.15088H17.75C18.9926 2.15088 20 3.15824 20 4.40088V21.4009C20 21.6775 19.8478 21.9316 19.6039 22.0621C19.36 22.1926 19.0641 22.1783 18.834 22.0249L12.916 18.0796C12.6641 17.9117 12.3359 17.9117 12.084 18.0796L6.16603 22.0249C5.93588 22.1783 5.63997 22.1926 5.39611 22.0621C5.15224 21.9316 5 21.6775 5 21.4009V4.40088ZM7.25 3.65088C6.83579 3.65088 6.5 3.98667 6.5 4.40088V19.9995L11.2519 16.8315C12.0077 16.3277 12.9923 16.3277 13.7481 16.8315L18.5 19.9995V4.40088C18.5 3.98667 18.1642 3.65088 17.75 3.65088H7.25Z" fill="#323544"/>
</svg>
