<svg width="25" height="25" viewBox="0 0 25 25" fill="none" xmlns="http://www.w3.org/2000/svg">
<g opacity="0.4">
<path d="M9.96973 9.02588C9.96973 8.61167 10.3055 8.27588 10.7197 8.27588H14.2798C14.694 8.27588 15.0298 8.61167 15.0298 9.02588V15.3519L13.7725 14.4895C13.0056 13.9633 11.9939 13.9633 11.227 14.4895L9.96973 15.3519V9.02588Z" fill="#323544"/>
<path d="M12.5 2.15088C6.97715 2.15088 2.5 6.62803 2.5 12.1509C2.5 17.6737 6.97715 22.1509 12.5 22.1509C18.0228 22.1509 22.5 17.6737 22.5 12.1509C22.5 6.62803 18.0228 2.15088 12.5 2.15088ZM10.7197 6.77588H14.2798C15.5224 6.77588 16.5298 7.78324 16.5298 9.02588V16.7759C16.5298 17.0543 16.3756 17.3097 16.1293 17.4395C15.883 17.5692 15.5851 17.5518 15.3555 17.3944L12.924 15.7264C12.6684 15.551 12.3312 15.551 12.0755 15.7264L9.64398 17.3944C9.41442 17.5518 9.11652 17.5692 8.87022 17.4395C8.62392 17.3097 8.46973 17.0543 8.46973 16.7759V9.02588C8.46973 7.78324 9.47709 6.77588 10.7197 6.77588Z" fill="#323544"/>
</g>
<path d="M8.46875 9.02588C8.46875 7.78324 9.47611 6.77588 10.7188 6.77588H14.2788C15.5214 6.77588 16.5288 7.78324 16.5288 9.02588V16.7759C16.5288 17.0543 16.3746 17.3097 16.1283 17.4395C15.882 17.5692 15.5841 17.5518 15.3546 17.3944L12.923 15.7264C12.6674 15.551 12.3302 15.551 12.0745 15.7264L9.643 17.3944C9.41344 17.5518 9.11555 17.5692 8.86924 17.4395C8.62294 17.3097 8.46875 17.0543 8.46875 16.7759V9.02588ZM9.96875 9.02588V15.3519L11.226 14.4895C11.993 13.9633 13.0046 13.9633 13.7715 14.4895L15.0288 15.3519V9.02588C15.0288 8.61167 14.693 8.27588 14.2788 8.27588H10.7188C10.3045 8.27588 9.96875 8.61167 9.96875 9.02588Z" fill="#323544"/>
</svg>
