<svg width="25" height="25" viewBox="0 0 25 25" fill="none" xmlns="http://www.w3.org/2000/svg">
<path opacity="0.4" d="M14.5336 13.6465L13.516 12.6289L15.107 11.0379L16.1246 12.0555C16.2471 12.1779 16.4456 12.1779 16.568 12.0555L20.1582 8.46531C20.2806 8.34288 20.2806 8.14438 20.1582 8.02195L16.5305 4.39431C16.4081 4.27188 16.2096 4.27188 16.0872 4.39431L12.497 7.9845C12.3746 8.10693 12.3746 8.30543 12.497 8.42786L13.516 9.44692L11.9251 11.0379L10.906 10.0189C9.90489 9.01774 9.90489 7.39462 10.906 6.39351L14.4962 2.80332C15.4973 1.80221 17.1204 1.80221 18.1215 2.80332L21.7492 6.43096C22.7503 7.43207 22.7503 9.05519 21.7492 10.0563L18.159 13.6465C17.1579 14.6476 15.5347 14.6476 14.5336 13.6465ZM11.4815 11.4814L10.4623 10.4622C9.4612 9.46111 7.83808 9.46111 6.83697 10.4622L3.25083 14.0484C2.24972 15.0495 2.24972 16.6726 3.25083 17.6737L6.8785 21.3014C7.87961 22.3025 9.50273 22.3025 10.5038 21.3014L14.09 17.7152C15.0911 16.7141 15.0911 15.091 14.09 14.0899L13.0725 13.0724L11.4815 14.6634L12.499 15.6809C12.6214 15.8033 12.6214 16.0018 12.499 16.1242L8.91285 19.7104C8.79042 19.8328 8.59192 19.8328 8.46949 19.7104L4.84182 16.0827C4.71939 15.9603 4.71939 15.7618 4.84182 15.6393L8.42796 12.0532C8.55039 11.9308 8.74889 11.9308 8.87132 12.0532L9.89054 13.0724L11.4815 11.4814Z" fill="#323544"/>
<path d="M14.4224 8.54166L13.5172 9.44692L11.9262 11.0379L11.4826 11.4814L9.89165 13.0724L8.99747 13.9666C8.55813 14.4059 8.55813 15.1183 8.99747 15.5576C9.43681 15.9969 10.1491 15.9969 10.5885 15.5576L11.4826 14.6634L13.0736 13.0724L13.5172 12.6289L15.1081 11.0379L16.0134 10.1327C16.4527 9.69331 16.4527 8.981 16.0134 8.54166C15.5741 8.10232 14.8618 8.10232 14.4224 8.54166Z" fill="#323544"/>
</svg>
