<svg width="25" height="25" viewBox="0 0 25 25" fill="none" xmlns="http://www.w3.org/2000/svg">
<path d="M17.8805 2.97008C18.2806 3.07728 18.5181 3.48854 18.4109 3.88864L17.976 5.51154C17.8688 5.91164 17.4575 6.14908 17.0574 6.04187C16.6573 5.93467 16.4199 5.52341 16.5271 5.12331L16.962 3.50041C17.0692 3.10031 17.4804 2.86287 17.8805 2.97008ZM21.6333 6.72284C21.7405 7.12294 21.5031 7.5342 21.103 7.6414L19.4801 8.07626C19.08 8.18347 18.6687 7.94603 18.5615 7.54593C18.4543 7.14583 18.6917 6.73458 19.0918 6.62737L20.7147 6.19251C21.1148 6.08531 21.5261 6.32274 21.6333 6.72284ZM6.55066 16.5487C6.65787 16.9488 6.42043 17.36 6.02033 17.4672L4.39743 17.9021C3.99733 18.0093 3.58607 17.7718 3.47887 17.3717C3.37166 16.9716 3.6091 16.5604 4.0092 16.4532L5.6321 16.0183C6.0322 15.9111 6.44346 16.1486 6.55066 16.5487ZM8.05472 18.0527C8.45482 18.1599 8.69226 18.5712 8.58505 18.9713L8.15019 20.5942C8.04299 20.9943 7.63173 21.2317 7.23163 21.1245C6.83153 21.0173 6.5941 20.6061 6.7013 20.206L7.13616 18.583C7.24337 18.1829 7.65462 17.9455 8.05472 18.0527Z" fill="#323544"/>
<path opacity="0.4" d="M8.91292 4.39408C8.79048 4.27164 8.59197 4.27164 8.46953 4.39408L4.84183 8.02177C4.71939 8.14421 4.71939 8.34273 4.84183 8.46517L8.43208 12.0554C8.55452 12.1779 8.75303 12.1779 8.87547 12.0554L9.89304 11.0378L8.9875 10.1323C8.54816 9.69296 8.54816 8.98065 8.9875 8.54131C9.42684 8.10197 10.1391 8.10197 10.5785 8.54131L11.484 9.44686L12.5032 8.42772C12.6256 8.30528 12.6256 8.10676 12.5032 7.98432L8.91292 4.39408ZM6.87854 2.80309C7.87966 1.80197 9.50279 1.80197 10.5039 2.80309L14.0942 6.39333C15.0953 7.39445 15.0953 9.01759 14.0942 10.0187L10.4665 13.6464C9.46534 14.6475 7.84221 14.6475 6.84109 13.6464L3.25084 10.0562C2.24972 9.05504 2.24972 7.4319 3.25084 6.43078L6.87854 2.80309ZM16.5723 12.0531C16.4498 11.9307 16.2513 11.9307 16.1289 12.0531L15.1096 13.0724L16.0035 13.9663C16.4429 14.4057 16.4429 15.118 16.0035 15.5573C15.5642 15.9967 14.8519 15.9967 14.4125 15.5573L13.5186 14.6634L12.5011 15.6808C12.3787 15.8033 12.3787 16.0018 12.5011 16.1242L16.0873 19.7104C16.2098 19.8329 16.4083 19.8329 16.5307 19.7104L20.1585 16.0827C20.2809 15.9603 20.2809 15.7617 20.1585 15.6393L16.5723 12.0531ZM14.5379 10.4621C15.539 9.46099 17.1621 9.46099 18.1633 10.4621L21.7495 14.0483C22.7506 15.0494 22.7506 16.6726 21.7495 17.6737L18.1217 21.3014C17.1206 22.3025 15.4975 22.3025 14.4964 21.3014L10.9102 17.7152C9.90904 16.7141 9.90904 15.091 10.9102 14.0898L14.5379 10.4621Z" fill="#323544"/>
</svg>
