<svg width="24" height="25" viewBox="0 0 24 25" fill="none" xmlns="http://www.w3.org/2000/svg">
<path d="M5.25 2.5C5.66421 2.5 6 2.83579 6 3.25V4.25H10.5C11.7426 4.25 12.75 5.25736 12.75 6.5V15C12.75 15.4142 12.4142 15.75 12 15.75H6V21.75C6 22.1642 5.66421 22.5 5.25 22.5C4.83579 22.5 4.5 22.1642 4.5 21.75V3.25C4.5 2.83579 4.83579 2.5 5.25 2.5Z" fill="#323544"/>
<path d="M11.4839 16.75C11.8521 17.4909 12.6166 18 13.5 18H18.75C19.0045 18 19.2416 17.8709 19.3798 17.6572C19.518 17.4435 19.5384 17.1743 19.4339 16.9422L17.4609 12.5578C17.3729 12.362 17.3729 12.138 17.4609 11.9422L19.4339 7.55777C19.5384 7.32569 19.518 7.05649 19.3798 6.84277C19.2416 6.62906 19.0045 6.5 18.75 6.5H13.75V15C13.75 15.9665 12.9665 16.75 12 16.75H11.4839Z" fill="#323544"/>
</svg>
