<svg width="25" height="25" viewBox="0 0 25 25" fill="none" xmlns="http://www.w3.org/2000/svg">
<path d="M5.03125 10.392C5.03125 6.26528 8.3766 2.91992 12.5033 2.91992C16.63 2.91992 19.9754 6.26528 19.9754 10.392C19.9754 13.194 18.9108 15.7454 17.6454 17.7938C16.3778 19.8458 14.8791 21.441 13.9389 22.3454C13.139 23.1148 11.9045 23.1163 11.1026 22.3493C10.1581 21.4458 8.65084 19.8507 7.37569 17.7982C6.1028 15.7493 5.03125 13.1963 5.03125 10.392ZM9.50391 10.3906C9.50391 12.0475 10.8471 13.3906 12.5039 13.3906C14.1608 13.3906 15.5039 12.0475 15.5039 10.3906C15.5039 8.73377 14.1608 7.39062 12.5039 7.39062C10.8471 7.39062 9.50391 8.73377 9.50391 10.3906Z" fill="#323544"/>
</svg>
