<svg width="25" height="25" viewBox="0 0 25 25" fill="none" xmlns="http://www.w3.org/2000/svg">
<path d="M5.98344 10.3127C5.70863 10.5356 5.31541 10.5361 5.04002 10.3139L5.03922 10.3132L5.03818 10.3124L5.03544 10.3102L5.02733 10.3035L5.00095 10.2816C4.97901 10.2631 4.94852 10.2371 4.91069 10.2039C4.83511 10.1374 4.7299 10.0419 4.60493 9.92009C4.35583 9.6773 4.02381 9.32597 3.69055 8.88932C3.03708 8.03314 2.3125 6.76215 2.3125 5.28967C2.3125 3.52677 3.74161 2.09766 5.50451 2.09766C7.26742 2.09766 8.69653 3.52677 8.69653 5.28967C8.69653 6.76091 7.97631 8.03136 7.3261 8.8878C6.99458 9.32447 6.66428 9.67585 6.41643 9.9187C6.29209 10.0405 6.1874 10.1361 6.11218 10.2026C6.07455 10.2358 6.0442 10.2618 6.02236 10.2803L5.99609 10.3023L5.98801 10.3089L5.98528 10.3112L5.98425 10.312L5.98344 10.3127ZM5.50436 4.3897C5.0073 4.3897 4.60436 4.79264 4.60436 5.2897C4.60436 5.78675 5.0073 6.1897 5.50436 6.1897H5.5118C6.00886 6.1897 6.4118 5.78675 6.4118 5.2897C6.4118 4.79264 6.00886 4.3897 5.5118 4.3897H5.50436Z" fill="#323544"/>
<path d="M18.6559 21.9308C18.9312 22.153 19.3248 22.1528 19.5997 21.9298L19.6005 21.9292L19.6015 21.9283L19.6042 21.9261L19.6123 21.9195L19.6386 21.8975C19.6604 21.879 19.6908 21.853 19.7284 21.8197C19.8036 21.7533 19.9083 21.6577 20.0326 21.5359C20.2805 21.293 20.6108 20.9417 20.9423 20.505C21.5925 19.6486 22.3127 18.3781 22.3127 16.9069C22.3127 15.144 20.8836 13.7148 19.1207 13.7148C17.3578 13.7148 15.9287 15.144 15.9287 16.9069C15.9287 18.3793 16.6533 19.6503 17.3068 20.5065C17.64 20.9432 17.972 21.2945 18.2211 21.5373C18.3461 21.6591 18.4513 21.7546 18.5269 21.8211C18.5647 21.8543 18.5952 21.8803 18.6172 21.8987L18.6435 21.9207L18.6517 21.9273L18.6544 21.9296L18.6559 21.9308ZM18.2206 16.9069C18.2206 16.4098 18.6235 16.0069 19.1206 16.0069H19.128C19.6251 16.0069 20.028 16.4098 20.028 16.9069C20.028 17.4039 19.6251 17.8069 19.128 17.8069H19.1206C18.6235 17.8069 18.2206 17.4039 18.2206 16.9069Z" fill="#323544"/>
<path d="M12.8625 12.6376C12.8625 11.4484 11.8984 10.4843 10.7091 10.4843H7.95031C8.13164 10.2825 8.32574 10.0516 8.52077 9.79473C8.6988 9.56023 8.88923 9.2888 9.07552 8.98428H10.7091C12.7268 8.98428 14.3625 10.6199 14.3625 12.6376C14.3625 14.6553 12.7268 16.2909 10.7091 16.2909H5.9697C4.78045 16.2909 3.81637 17.255 3.81637 18.4442C3.81637 19.6335 4.78045 20.5976 5.96969 20.5976H15.4933C15.6824 20.9057 15.8757 21.18 16.0562 21.4165C16.2496 21.6698 16.442 21.8978 16.6221 22.0976H5.96969C3.95202 22.0976 2.31637 20.4619 2.31637 18.4442C2.31637 16.4266 3.95202 14.7909 5.9697 14.7909H10.7091C11.8984 14.7909 12.8625 13.8269 12.8625 12.6376Z" fill="#323544"/>
</svg>
