<svg width="24" height="24" viewBox="0 0 24 24" fill="none" xmlns="http://www.w3.org/2000/svg">
<path d="M9.30659 8.48899V11.9998M7.55114 10.2429H11.0619M15.2326 11.7462H16.1103M15.2326 8.73899H16.1103M6.5422 5.75545L4.97656 6.04509C4.33112 6.1645 3.83829 6.68969 3.76011 7.3414L2.59291 17.071C2.4858 17.9639 3.18297 18.7497 4.08224 18.7497H6.17926C6.69965 18.7497 7.18287 18.4799 7.45601 18.037L8.88956 15.7123C9.16271 15.2694 9.64592 14.9997 10.1663 14.9997H13.8329C14.3533 14.9997 14.8365 15.2694 15.1097 15.7123L16.5432 18.037C16.8164 18.4799 17.2996 18.7497 17.82 18.7497H19.917C20.8163 18.7497 21.5134 17.9639 21.4063 17.071L20.2391 7.3414C20.1609 6.68969 19.6681 6.1645 19.0227 6.04509L17.457 5.75545C13.8494 5.08803 10.1499 5.08803 6.5422 5.75545Z" stroke="#323544" stroke-width="1.5" stroke-linecap="round" stroke-linejoin="round"/>
</svg>
