<svg width="24" height="24" viewBox="0 0 24 24" fill="none" xmlns="http://www.w3.org/2000/svg">
<path fill-rule="evenodd" clip-rule="evenodd" d="M4.25 12C4.25 7.71979 7.71979 4.25 12 4.25C12.6213 4.25 13.125 3.74632 13.125 3.125C13.125 2.50368 12.6213 2 12 2C6.47715 2 2 6.47715 2 12C2 17.5228 6.47715 22 12 22V19.75C7.71979 19.75 4.25 16.2802 4.25 12Z" fill="#323544"/>
<path opacity="0.4" d="M19.75 12C19.75 16.2802 16.2802 19.75 12 19.75V22C17.5228 22 22 17.5228 22 12C22 11.3787 21.4963 10.875 20.875 10.875C20.2537 10.875 19.75 11.3787 19.75 12Z" fill="#323544"/>
</svg>
