<svg width="24" height="25" viewBox="0 0 24 25" fill="none" xmlns="http://www.w3.org/2000/svg">
<g opacity="0.4">
<path d="M3.25 9.5C3.25 6.60051 5.60051 4.25 8.5 4.25H15.5C18.3995 4.25 20.75 6.60051 20.75 9.5V9.90675C20.435 9.80498 20.0989 9.75 19.75 9.75H4.25C3.90109 9.75 3.56503 9.80498 3.25 9.90675V9.5Z" fill="#323544"/>
<path d="M20.75 16.0933C20.435 16.195 20.0989 16.25 19.75 16.25H4.25C3.9011 16.25 3.56503 16.195 3.25 16.0933V18.5C3.25 19.7426 4.25736 20.75 5.5 20.75H18.5C19.7426 20.75 20.75 19.7426 20.75 18.5V16.0933Z" fill="#323544"/>
</g>
<path d="M3.25 10.9839C2.50914 11.3521 2 12.1166 2 13C2 13.8834 2.50914 14.6479 3.25 15.0161C3.55124 15.1658 3.89079 15.25 4.25 15.25H19.75C20.1092 15.25 20.4488 15.1658 20.75 15.0161C21.4909 14.6479 22 13.8834 22 13C22 12.1166 21.4909 11.3521 20.75 10.9839C20.4488 10.8342 20.1092 10.75 19.75 10.75H4.25C3.89079 10.75 3.55124 10.8342 3.25 10.9839Z" fill="#323544"/>
</svg>
