<svg width="24" height="25" viewBox="0 0 24 25" fill="none" xmlns="http://www.w3.org/2000/svg">
<path opacity="0.4" d="M11.856 4.5C11.5408 4.5 11.2593 4.69709 11.1514 4.99326L10.5796 6.5625H15.027C15.2387 6.5625 15.4405 6.65196 15.5827 6.80879C15.7249 6.96563 15.7941 7.17525 15.7734 7.38592L15.3503 11.6875H12.9189C10.8479 11.6875 9.16895 13.3664 9.16895 15.4375V15.6179C8.75594 16.0258 8.5 16.5924 8.5 17.2188C8.5 17.8451 8.75594 18.4117 9.16895 18.8196V20.4976C9.16895 20.7621 9.21459 21.0159 9.29844 21.2517H6.657C5.49966 21.2517 4.53109 20.3737 4.4178 19.2219L3.25361 7.38592C3.23288 7.17525 3.30215 6.96563 3.44432 6.80879C3.58649 6.65196 3.78832 6.5625 4 6.5625H8.9832L9.74198 4.47979C10.0657 3.59128 10.9104 3 11.856 3H14.2655C14.6798 3 15.0155 3.33579 15.0155 3.75C15.0155 4.16421 14.6798 4.5 14.2655 4.5H11.856Z" fill="#323544"/>
<path d="M10.6689 15.4387C10.6689 14.1961 11.6763 13.1887 12.9189 13.1887H17.8291C19.0717 13.1887 20.0791 14.1961 20.0791 15.4387V15.4698C20.0529 15.4686 20.0265 15.468 20 15.468H10.75C10.7228 15.468 10.6958 15.4686 10.6689 15.4699V15.4387Z" fill="#323544"/>
<path d="M10.6689 18.9662V20.4988C10.6689 20.913 11.0047 21.2488 11.4189 21.2488H19.3291C19.7433 21.2488 20.0791 20.913 20.0791 20.4988V18.9663C20.0529 18.9674 20.0265 18.968 20 18.968H16.3943L15.9069 19.4554C15.2238 20.1385 14.1163 20.1388 13.4328 19.4561L12.9442 18.968H10.75C10.7228 18.968 10.6958 18.9674 10.6689 18.9662Z" fill="#323544"/>
<path d="M10 17.218C10 16.8038 10.3358 16.468 10.75 16.468H20C20.4142 16.468 20.75 16.8038 20.75 17.218C20.75 17.6322 20.4142 17.968 20 17.968H15.9801L15.1998 18.7483C14.9071 19.0411 14.4324 19.0412 14.1395 18.7486L13.358 17.968H10.75C10.3358 17.968 10 17.6322 10 17.218Z" fill="#323544"/>
</svg>
