<svg width="24" height="25" viewBox="0 0 24 25" fill="none" xmlns="http://www.w3.org/2000/svg">
<path d="M7.03125 4.5C7.03125 4.08579 6.69546 3.75 6.28125 3.75C5.86704 3.75 5.53125 4.08579 5.53125 4.5V6.25C5.53125 6.66421 5.86704 7 6.28125 7C6.69546 7 7.03125 6.66421 7.03125 6.25V4.5Z" fill="#323544"/>
<path d="M11.5 4.5C11.5 4.08579 11.1642 3.75 10.75 3.75C10.3358 3.75 10 4.08579 10 4.5V6.25C10 6.66421 10.3358 7 10.75 7C11.1642 7 11.5 6.66421 11.5 6.25V4.5Z" fill="#323544"/>
<path d="M15.9688 4.5C15.9688 4.08579 15.633 3.75 15.2188 3.75C14.8045 3.75 14.4688 4.08579 14.4688 4.5V6.25C14.4688 6.66421 14.8045 7 15.2188 7C15.633 7 15.9688 6.66421 15.9688 6.25V4.5Z" fill="#323544"/>
<path opacity="0.4" d="M4 7.75C3.58579 7.75 3.25 8.08579 3.25 8.5V13.75C3.25 16.2034 4.42801 18.3817 6.24927 19.75H4C3.58579 19.75 3.25 20.0858 3.25 20.5C3.25 20.9142 3.58579 21.25 4 21.25H17.5C17.9142 21.25 18.25 20.9142 18.25 20.5C18.25 20.0858 17.9142 19.75 17.5 19.75H15.2507C15.9006 19.2617 16.4687 18.6703 16.9304 18H17C19.4853 18 21.5 15.9853 21.5 13.5V12.25C21.5 11.0074 20.4926 10 19.25 10H18.25V8.5C18.25 8.08579 17.9142 7.75 17.5 7.75H4ZM20 13.5C20 14.8913 19.0528 16.0615 17.7681 16.4008C18.0796 15.5766 18.25 14.6832 18.25 13.75V11.5H19.25C19.6642 11.5 20 11.8358 20 12.25V13.5Z" fill="#323544"/>
</svg>
