<svg width="24" height="25" viewBox="0 0 24 25" fill="none" xmlns="http://www.w3.org/2000/svg">
<path d="M13.1663 5.75H11.5143H5.625C5.41332 5.75 5.21149 5.83946 5.06932 5.99629C4.92715 6.15313 4.85788 6.36275 4.87861 6.57342L6.24551 20.4702C6.3588 21.622 7.32736 22.5 8.4847 22.5H15.5153C16.6726 22.5 17.6412 21.622 17.7545 20.4702L19.1214 6.57342C19.1421 6.36275 19.0729 6.15313 18.9307 5.99629C18.7885 5.83946 18.5867 5.75 18.375 5.75H13.1663Z" fill="#323544"/>
<path opacity="0.4" d="M13.7723 4.43571C13.8949 4.17009 14.1608 4 14.4533 4H17.4935C17.9078 4 18.2435 3.66421 18.2435 3.25C18.2435 2.83579 17.9078 2.5 17.4935 2.5H14.4533C13.5757 2.5 12.7782 3.01028 12.4104 3.80712L11.5137 5.75H13.1657L13.7723 4.43571Z" fill="#323544"/>
</svg>
