<svg width="24" height="25" viewBox="0 0 24 25" fill="none" xmlns="http://www.w3.org/2000/svg">
<path d="M7.83845 4.9604C8.64653 3.49434 10.2069 2.5 12.001 2.5C13.7946 2.5 15.3546 3.49377 16.1628 4.95912C17.7246 4.58924 19.4071 5.26328 20.2507 6.72444C21.2805 8.50807 20.6693 10.7888 18.8857 11.8186L18.3923 12.1034V16H5.54006V12.0651L5.1152 11.8198C3.33157 10.79 2.72046 8.50927 3.75023 6.72564C4.5939 5.26437 6.27659 4.59033 7.83845 4.9604Z" fill="#323544"/>
<path opacity="0.4" d="M5.54102 17.5V20.5C5.54102 20.9142 5.8768 21.25 6.29102 21.25H17.6432C18.0575 21.25 18.3932 20.9142 18.3932 20.5V17.5H5.54102Z" fill="#323544"/>
</svg>
