<svg width="24" height="25" viewBox="0 0 24 25" fill="none" xmlns="http://www.w3.org/2000/svg">
<path d="M8.25 2.5C6.17893 2.5 4.5 4.17893 4.5 6.25V13C4.5 14.2426 5.50736 15.25 6.75 15.25H8.25L8.25 21.75C8.25 22.1642 8.58579 22.5 9 22.5C9.41421 22.5 9.75 22.1642 9.75 21.75V3.25C9.75 2.83579 9.41421 2.5 9 2.5H8.25Z" fill="#323544"/>
<g opacity="0.4">
<path d="M13.5 3.25C13.5 2.83579 13.1642 2.5 12.75 2.5C12.3358 2.5 12 2.83579 12 3.25V8.25C12 10.0642 13.2883 11.5775 15 11.925V21.75C15 22.1642 15.3358 22.5 15.75 22.5C16.1642 22.5 16.5 22.1642 16.5 21.75V11.925C18.2117 11.5775 19.5 10.0642 19.5 8.25V3.25C19.5 2.83579 19.1642 2.5 18.75 2.5C18.3358 2.5 18 2.83579 18 3.25V8.25C18 9.49264 16.9926 10.5 15.75 10.5C14.5074 10.5 13.5 9.49264 13.5 8.25V3.25Z" fill="#323544"/>
<path d="M16.5 3.25C16.5 2.83579 16.1642 2.5 15.75 2.5C15.3358 2.5 15 2.83579 15 3.25V8.25C15 8.66421 15.3358 9 15.75 9C16.1642 9 16.5 8.66421 16.5 8.25V3.25Z" fill="#323544"/>
</g>
</svg>
