<svg width="24" height="25" viewBox="0 0 24 25" fill="none" xmlns="http://www.w3.org/2000/svg">
<g opacity="0.4">
<path d="M21.1786 6.10434C15.8531 2.13189 8.14632 2.13189 2.82081 6.10434C1.87527 6.80964 1.75746 8.09338 2.35416 9.00425L3.31996 10.4785L3.94886 9.89697C8.40202 5.86765 15.5939 5.86769 20.0471 9.89701L20.0532 9.90254L20.6781 10.4806L21.6453 9.00425C22.242 8.09339 22.1242 6.80964 21.1786 6.10434Z" fill="#323544"/>
<path d="M10.1176 20.855L4.15338 11.7507L4.1635 11.7415L4.95825 11.0066C8.83932 7.49782 15.1566 7.49782 19.0377 11.0066L19.8321 11.7414L19.8447 11.7528L13.8818 20.855C12.9935 22.2111 11.006 22.2111 10.1176 20.855ZM12.3516 15.4594C11.8545 15.4594 11.4516 15.8623 11.4516 16.3594C11.4516 16.8564 11.8545 17.2594 12.3516 17.2594C12.8486 17.2594 13.2517 16.8564 13.2517 16.3594C13.2517 15.8623 12.8486 15.4594 12.3516 15.4594ZM8.55859 12.5C8.55859 13.4665 9.3422 14.25 10.3087 14.25C11.2752 14.25 12.0587 13.4665 12.0587 12.5C12.0587 11.5335 11.2751 10.75 10.3086 10.75C9.3421 10.75 8.55859 11.5335 8.55859 12.5ZM14.6289 10.5195C13.9385 10.5195 13.3789 11.0792 13.3789 11.7695C13.3789 12.4599 13.9385 13.0195 14.6289 13.0195C15.3193 13.0195 15.879 12.4599 15.879 11.7695C15.879 11.0792 15.3193 10.5195 14.6289 10.5195Z" fill="#323544"/>
</g>
<path d="M10.3086 10.75C9.3421 10.75 8.55859 11.5335 8.55859 12.5C8.55859 13.4665 9.3422 14.25 10.3087 14.25C11.2752 14.25 12.0587 13.4665 12.0587 12.5C12.0587 11.5335 11.2751 10.75 10.3086 10.75Z" fill="#323544"/>
<path d="M13.3789 11.7695C13.3789 11.0792 13.9385 10.5195 14.6289 10.5195C15.3193 10.5195 15.879 11.0792 15.879 11.7695C15.879 12.4599 15.3193 13.0195 14.6289 13.0195C13.9385 13.0195 13.3789 12.4599 13.3789 11.7695Z" fill="#323544"/>
<path d="M11.4516 16.3594C11.4516 15.8623 11.8545 15.4594 12.3516 15.4594C12.8486 15.4594 13.2517 15.8623 13.2517 16.3594C13.2517 16.8564 12.8486 17.2594 12.3516 17.2594C11.8545 17.2594 11.4516 16.8564 11.4516 16.3594Z" fill="#323544"/>
</svg>
