<svg width="24" height="25" viewBox="0 0 24 25" fill="none" xmlns="http://www.w3.org/2000/svg">
<path d="M9.25 5.75C9.25 5.33579 9.58579 5 10 5H14C14.4142 5 14.75 5.33579 14.75 5.75C14.75 6.16421 14.4142 6.5 14 6.5L12.75 6.5V8.03169C17.2314 8.41212 20.75 12.1702 20.75 16.75V17.5H3.25V16.75C3.25 12.1702 6.7686 8.41212 11.25 8.03169V6.5L10 6.5C9.58579 6.5 9.25 6.16421 9.25 5.75Z" fill="#323544"/>
<path opacity="0.4" d="M21.25 18.5H2.75C2.33579 18.5 2 18.8358 2 19.25C2 19.6642 2.33579 20 2.75 20H21.25C21.6642 20 22 19.6642 22 19.25C22 18.8358 21.6642 18.5 21.25 18.5Z" fill="#323544"/>
</svg>
