<svg width="24" height="25" viewBox="0 0 24 25" fill="none" xmlns="http://www.w3.org/2000/svg">
<path d="M7.15533 6.09469C6.94083 5.88019 6.61824 5.81603 6.33799 5.93211C6.05773 6.0482 5.875 6.32168 5.875 6.62502V19.125C5.875 19.4284 6.05773 19.7018 6.33799 19.8179C6.61824 19.934 6.94083 19.8699 7.15533 19.6554L13.4053 13.4054C13.6982 13.1125 13.6982 12.6376 13.4053 12.3447L7.15533 6.09469Z" fill="#323544"/>
<path d="M11.6553 6.09469C11.3624 5.8018 10.8876 5.8018 10.5947 6.09469C10.3018 6.38758 10.3018 6.86246 10.5947 7.15535L16.3143 12.875L10.5947 18.5947C10.3018 18.8876 10.3018 19.3625 10.5947 19.6554C10.8876 19.9482 11.3624 19.9482 11.6553 19.6554L17.9053 13.4054C18.1982 13.1125 18.1982 12.6376 17.9053 12.3447L11.6553 6.09469Z" fill="#323544"/>
</svg>
