<svg width="24" height="25" viewBox="0 0 24 25" fill="none" xmlns="http://www.w3.org/2000/svg">
<path d="M18.7804 13.2197L12.5304 6.96967C12.2375 6.67678 11.7626 6.67678 11.4697 6.96967L5.21969 13.2197C4.9268 13.5126 4.9268 13.9874 5.21969 14.2803C5.51259 14.5732 5.98746 14.5732 6.28035 14.2803L12 8.56066L17.7197 14.2803C18.0126 14.5732 18.4875 14.5732 18.7804 14.2803C19.0732 13.9874 19.0732 13.5126 18.7804 13.2197Z" fill="#323544"/>
<path d="M12.5304 11.4697C12.3897 11.329 12.1989 11.25 12 11.25C11.8011 11.25 11.6103 11.329 11.4697 11.4697L5.21969 17.7197C5.00519 17.9342 4.94103 18.2568 5.05711 18.537C5.1732 18.8173 5.44668 19 5.75002 19H18.25C18.5534 19 18.8268 18.8173 18.9429 18.537C19.059 18.2568 18.9949 17.9342 18.7804 17.7197L12.5304 11.4697Z" fill="#323544"/>
</svg>
