<svg width="24" height="25" viewBox="0 0 24 25" fill="none" xmlns="http://www.w3.org/2000/svg">
<path d="M18.125 6.62502C18.125 6.32168 17.9423 6.0482 17.662 5.93211C17.3818 5.81603 17.0592 5.88019 16.8447 6.09469L10.5947 12.3447C10.3018 12.6376 10.3018 13.1125 10.5947 13.4054L16.8447 19.6554C17.0592 19.8699 17.3818 19.934 17.662 19.8179C17.9423 19.7018 18.125 19.4284 18.125 19.125V6.62502Z" fill="#323544"/>
<path d="M13.4053 7.15535C13.6982 6.86246 13.6982 6.38758 13.4053 6.09469C13.1124 5.8018 12.6376 5.8018 12.3447 6.09469L6.09467 12.3447C5.80178 12.6376 5.80178 13.1125 6.09467 13.4054L12.3447 19.6554C12.6376 19.9482 13.1124 19.9482 13.4053 19.6554C13.6982 19.3625 13.6982 18.8876 13.4053 18.5947L7.68566 12.875L13.4053 7.15535Z" fill="#323544"/>
</svg>
