<svg width="24" height="24" viewBox="0 0 24 24" fill="none" xmlns="http://www.w3.org/2000/svg">
<path d="M14.5359 5.46986C14.3214 5.25526 13.9988 5.19101 13.7185 5.30707C13.4382 5.42312 13.2554 5.69663 13.2554 6.00002V11.2466L4 11.2466C3.58579 11.2466 3.25 11.5824 3.25 11.9966C3.25 12.4108 3.58579 12.7466 4 12.7466L13.2554 12.7466V18C13.2554 18.3034 13.4382 18.5769 13.7185 18.693C13.9988 18.809 14.3214 18.7448 14.5359 18.5302L20.5319 12.53C20.6786 12.3831 20.7518 12.1905 20.7514 11.9981L20.7514 11.9966C20.7514 11.7685 20.6495 11.5642 20.4888 11.4266L14.5359 5.46986Z" fill="#323544"/>
</svg>
