<svg width="24" height="24" viewBox="0 0 24 24" fill="none" xmlns="http://www.w3.org/2000/svg">
<path d="M9.00024 5.24951C8.69682 5.24941 8.42322 5.43213 8.30709 5.71245C8.19096 5.99277 8.25516 6.31545 8.46976 6.52995L12.4411 10.4997L5.47065 17.4701C5.17775 17.763 5.17775 18.2379 5.47065 18.5308C5.76354 18.8237 6.23841 18.8237 6.53131 18.5308L13.502 11.5601L17.468 15.5244C17.6826 15.7388 18.0052 15.8029 18.2854 15.6868C18.5656 15.5706 18.7483 15.297 18.7482 14.9937L18.7454 6.0553C18.7595 5.84677 18.6868 5.63346 18.5274 5.47406L18.5215 5.46821C18.3862 5.33497 18.2005 5.25274 17.9956 5.25266L9.00024 5.24951Z" fill="#323544"/>
</svg>
