<svg width="24" height="25" viewBox="0 0 24 25" fill="none" xmlns="http://www.w3.org/2000/svg">
<path d="M7.46988 6.72121L11.4341 2.75975C11.5716 2.60179 11.7742 2.50195 12 2.50195C12.2249 2.50195 12.4267 2.60094 12.5642 2.75771L16.5302 6.72123C16.7448 6.93569 16.809 7.25831 16.693 7.53863C16.5769 7.81894 16.3034 8.00173 16 8.00173L12.75 8.00172L12.75 17.0022L16 17.0022C16.3034 17.0022 16.5769 17.185 16.693 17.4653C16.809 17.7456 16.7448 18.0682 16.5302 18.2827L12.5302 22.28C12.2373 22.5727 11.7627 22.5727 11.4699 22.28L7.46987 18.2827C7.25527 18.0682 7.19101 17.7456 7.30707 17.4653C7.42312 17.185 7.69663 17.0022 8.00002 17.0022L11.25 17.0022L11.25 8.00172L8.00002 8.00172C7.69663 8.00172 7.42312 7.81893 7.30706 7.53861C7.19101 7.25829 7.25527 6.93566 7.46988 6.72121Z" fill="#323544"/>
</svg>
