<svg width="25" height="25" viewBox="0 0 25 25" fill="none" xmlns="http://www.w3.org/2000/svg">
<path d="M9.48545 5.03325L11.7814 2.73732C11.9182 2.59126 12.1129 2.5 12.3288 2.5C12.5535 2.5 12.7552 2.59886 12.8927 2.75546L15.1707 5.03346C15.3852 5.24796 15.4493 5.57056 15.3332 5.85082C15.2171 6.13108 14.9437 6.31381 14.6403 6.31379L13.0788 6.31372L13.0788 9.37466C13.0788 9.78888 12.743 10.1247 12.3288 10.1247C11.9146 10.1247 11.5788 9.78888 11.5788 9.37466L11.5788 6.31365L10.0157 6.31358C9.7124 6.31357 9.43894 6.13083 9.32286 5.85058C9.20678 5.57033 9.27095 5.24775 9.48545 5.03325Z" fill="#323544"/>
<path d="M6.14143 10.1879C6.14141 9.88456 5.95868 9.61109 5.67843 9.49502C5.39817 9.37894 5.07559 9.44311 4.8611 9.6576L2.56544 11.9533C2.41938 12.0901 2.32812 12.2847 2.32812 12.5007C2.32812 12.7231 2.42493 12.9229 2.5787 13.0602L4.86131 15.3428C5.07581 15.5573 5.39841 15.6215 5.67867 15.5054C5.95893 15.3893 6.14165 15.1158 6.14164 14.8125L6.14157 13.2507H9.20279C9.617 13.2507 9.95279 12.9149 9.95279 12.5007C9.95279 12.0865 9.617 11.7507 9.20279 11.7507H6.1415L6.14143 10.1879Z" fill="#323544"/>
<path d="M19.7954 9.65823C19.5809 9.44372 19.2583 9.37956 18.9781 9.49565C18.6978 9.61175 18.5151 9.88524 18.5151 10.1886L18.5152 11.7508L15.4522 11.7507C15.0379 11.7507 14.7021 12.0864 14.7021 12.5006C14.7021 12.9149 15.0379 13.2507 15.4521 13.2507L18.5153 13.2508L18.5153 14.8132C18.5153 15.1165 18.6981 15.39 18.9783 15.506C19.2586 15.6221 19.5812 15.5579 19.7957 15.3434L22.1078 13.0313C22.2485 12.8906 22.3275 12.6999 22.3275 12.5009C22.3275 12.302 22.2485 12.1113 22.1078 11.9706L19.7954 9.65823Z" fill="#323544"/>
<path d="M13.0788 15.624C13.0788 15.2098 12.743 14.874 12.3288 14.874C11.9146 14.874 11.5788 15.2098 11.5788 15.624L11.5788 18.6873L10.0164 18.6873C9.71309 18.6872 9.4396 18.87 9.32351 19.1502C9.20741 19.4305 9.27158 19.7531 9.48608 19.9676L11.7985 22.28C12.0914 22.5729 12.5662 22.5729 12.8591 22.28L15.1713 19.9678C15.3858 19.7533 15.45 19.4307 15.3339 19.1505C15.2178 18.8702 14.9443 18.6875 14.641 18.6875L13.0788 18.6874L13.0788 15.624Z" fill="#323544"/>
</svg>
