<svg width="24" height="24" viewBox="0 0 24 24" fill="none" xmlns="http://www.w3.org/2000/svg">
<path d="M5.46986 9.46452L11.4233 3.51482C11.5609 3.35224 11.7665 3.24902 11.9961 3.24902L11.998 3.24903C12.1905 3.24855 12.3831 3.32171 12.53 3.46851L18.5302 9.4645C18.7448 9.67896 18.809 10.0016 18.693 10.2819C18.5769 10.5622 18.3034 10.745 18 10.745H12.7461L12.7461 20.0004C12.7461 20.4146 12.4103 20.7504 11.9961 20.7504C11.5819 20.7504 11.2461 20.4146 11.2461 20.0004L11.2461 10.745H6.00002C5.69663 10.745 5.42312 10.5622 5.30707 10.2819C5.19101 10.0016 5.25526 9.67898 5.46986 9.46452Z" fill="#323544"/>
</svg>
