<svg width="24" height="24" viewBox="0 0 24 24" fill="none" xmlns="http://www.w3.org/2000/svg">
<path d="M12.7461 3.99951C12.7461 3.5853 12.4103 3.24951 11.9961 3.24951C11.5819 3.24951 11.2461 3.5853 11.2461 3.99951L11.2461 13.2548H6.00002C5.69663 13.2548 5.42312 13.4376 5.30707 13.7179C5.19101 13.9982 5.25526 14.3208 5.46986 14.5353L11.4228 20.4844C11.5604 20.6474 11.7662 20.7509 11.9961 20.7509C12.0038 20.7509 12.0114 20.7508 12.019 20.7505C12.2045 20.7458 12.3884 20.6727 12.53 20.5313L18.5302 14.5353C18.7448 14.3208 18.809 13.9982 18.693 13.7179C18.5769 13.4376 18.3034 13.2548 18 13.2548H12.7461L12.7461 3.99951Z" fill="#323544"/>
</svg>
