<svg width="24" height="25" viewBox="0 0 24 25" fill="none" xmlns="http://www.w3.org/2000/svg">
<path d="M17.7803 7.97085C17.5658 7.75625 17.2432 7.69198 16.9628 7.80804C16.6825 7.92409 16.4997 8.1976 16.4997 8.501L16.4997 11.751L7.49928 11.751L7.49928 8.501C7.49928 8.19761 7.3165 7.9241 7.03618 7.80804C6.75586 7.69199 6.43324 7.75625 6.21878 7.97085L2.22145 11.9708C1.92879 12.2637 1.92879 12.7383 2.22144 13.0311L6.21877 17.0312C6.43323 17.2458 6.75586 17.31 7.03618 17.194C7.31649 17.0779 7.49928 16.8044 7.49928 16.501L7.49928 13.251L16.4997 13.251L16.4997 16.501C16.4997 16.8044 16.6825 17.0779 16.9628 17.194C17.2431 17.31 17.5658 17.2458 17.7802 17.0312L21.7474 13.0615C21.9018 12.9241 21.999 12.7239 21.999 12.501C21.999 12.277 21.9008 12.0759 21.7451 11.9385L17.7803 7.97085Z" fill="#323544"/>
</svg>
