<svg width="24" height="24" viewBox="0 0 24 24" fill="none" xmlns="http://www.w3.org/2000/svg">
<path d="M15.5294 6.52995C15.744 6.31545 15.8082 5.99277 15.6921 5.71245C15.576 5.43213 15.3024 5.24941 14.9989 5.24951L6.00357 5.25266C5.76811 5.25275 5.55802 5.36133 5.42057 5.53113C5.297 5.68246 5.24142 5.87079 5.25382 6.0554L5.25098 14.9937C5.25088 15.297 5.43354 15.5706 5.71378 15.6868C5.99402 15.8029 6.31664 15.7388 6.53119 15.5244L10.4969 11.5603L17.4679 18.5313C17.7608 18.8242 18.2357 18.8242 18.5286 18.5313C18.8215 18.2384 18.8215 17.7635 18.5286 17.4706L11.5578 10.4999L15.5294 6.52995Z" fill="#323544"/>
</svg>
