<svg width="24" height="25" viewBox="0 0 24 25" fill="none" xmlns="http://www.w3.org/2000/svg">
<path d="M22 12.875C22 18.3978 17.5228 22.875 12 22.875C6.47715 22.875 2 18.3978 2 12.875C2 7.35215 6.47715 2.875 12 2.875C17.5228 2.875 22 7.35215 22 12.875ZM13.537 16.8179C13.8173 16.7018 14 16.4283 14 16.125V9.62498C14 9.32163 13.8173 9.04815 13.537 8.93207C13.2568 8.81598 12.9342 8.88015 12.7197 9.09465L9.46967 12.3446C9.17678 12.6375 9.17678 13.1124 9.46967 13.4053L12.7197 16.6553C12.9342 16.8698 13.2568 16.934 13.537 16.8179Z" fill="#323544"/>
</svg>
