<svg width="24" height="25" viewBox="0 0 24 25" fill="none" xmlns="http://www.w3.org/2000/svg">
<path d="M12 22.875C6.47715 22.875 2 18.3978 2 12.875C2 7.35215 6.47715 2.875 12 2.875C17.5228 2.875 22 7.35215 22 12.875C22 18.3978 17.5228 22.875 12 22.875ZM8.05711 14.412C8.1732 14.6923 8.44667 14.875 8.75002 14.875H15.25C15.5534 14.875 15.8268 14.6923 15.9429 14.412C16.059 14.1318 15.9949 13.8092 15.7804 13.5947L12.5304 10.3447C12.2375 10.0518 11.7626 10.0518 11.4697 10.3447L8.21969 13.5947C8.00519 13.8092 7.94103 14.1318 8.05711 14.412Z" fill="#323544"/>
</svg>
