<svg width="24" height="25" viewBox="0 0 24 25" fill="none" xmlns="http://www.w3.org/2000/svg">
<path d="M12 2.875C17.5228 2.875 22 7.35215 22 12.875C22 18.3978 17.5228 22.875 12 22.875C6.47715 22.875 2 18.3978 2 12.875C2 7.35215 6.47715 2.875 12 2.875ZM15.9429 11.338C15.8268 11.0577 15.5533 10.875 15.25 10.875H8.74998C8.44663 10.875 8.17315 11.0577 8.05707 11.338C7.94098 11.6182 8.00515 11.9408 8.21965 12.1553L11.4696 15.4053C11.7625 15.6982 12.2374 15.6982 12.5303 15.4053L15.7803 12.1553C15.9948 11.9408 16.059 11.6182 15.9429 11.338Z" fill="#323544"/>
</svg>
