<svg width="24" height="25" viewBox="0 0 24 25" fill="none" xmlns="http://www.w3.org/2000/svg">
<path d="M7.875 2.875C6.01104 2.875 4.5 4.38604 4.5 6.25C4.5 8.11396 6.01104 9.625 7.875 9.625H9V13.8711C9 14.2853 9.33579 14.6211 9.75 14.6211C10.1642 14.6211 10.5 14.2853 10.5 13.8711V4.375H13.5V13.8711C13.5 14.2853 13.8358 14.6211 14.25 14.6211C14.6642 14.6211 15 14.2853 15 13.8711V4.375H18.75C19.1642 4.375 19.5 4.03921 19.5 3.625C19.5 3.21079 19.1642 2.875 18.75 2.875H7.875Z" fill="#323544"/>
<path d="M16.2785 16.3407C16.0641 16.1261 15.7415 16.0619 15.4611 16.1779C15.1808 16.294 14.998 16.5675 14.998 16.8709V19.1229L5.25 19.1229C4.83579 19.1229 4.5 19.4587 4.5 19.8729C4.5 20.2871 4.83579 20.6229 5.25 20.6229L14.998 20.6229V22.8749C14.998 23.1783 15.1808 23.4518 15.4612 23.5679C15.7415 23.6839 16.0641 23.6196 16.2786 23.405L19.2464 20.4351C19.4019 20.2977 19.5 20.0967 19.5 19.8729C19.5 19.6499 19.4026 19.4496 19.2481 19.3122L16.2785 16.3407Z" fill="#323544"/>
</svg>
