<svg width="24" height="25" viewBox="0 0 24 25" fill="none" xmlns="http://www.w3.org/2000/svg">
<path d="M7.875 2.875C6.01104 2.875 4.5 4.38604 4.5 6.25C4.5 8.11396 6.01104 9.625 7.875 9.625H9V13.8711C9 14.2853 9.33579 14.6211 9.75 14.6211C10.1642 14.6211 10.5 14.2853 10.5 13.8711V4.375H13.5V13.8711C13.5 14.2853 13.8358 14.6211 14.25 14.6211C14.6642 14.6211 15 14.2853 15 13.8711V4.375H18.75C19.1642 4.375 19.5 4.03921 19.5 3.625C19.5 3.21079 19.1642 2.875 18.75 2.875H7.875Z" fill="#323544"/>
<path d="M9.00195 16.8709C9.00195 16.5675 8.81917 16.294 8.53886 16.1779C8.25854 16.0619 7.93592 16.1261 7.72145 16.3407L4.7519 19.3122C4.59736 19.4496 4.5 19.6499 4.5 19.8729C4.5 20.0967 4.59806 20.2977 4.75355 20.4351L7.72144 23.405C7.93589 23.6196 8.25852 23.6839 8.53884 23.5679C8.81916 23.4518 9.00195 23.1783 9.00195 22.8749V20.6229L18.75 20.6229C19.1642 20.6229 19.5 20.2871 19.5 19.8729C19.5 19.4587 19.1642 19.1229 18.75 19.1229L9.00195 19.1229V16.8709Z" fill="#323544"/>
</svg>
