<svg width="25" height="24" viewBox="0 0 25 24" fill="none" xmlns="http://www.w3.org/2000/svg">
<path d="M13.1739 4C13.1739 3.58579 12.8381 3.25 12.4239 3.25C12.0096 3.25 11.6739 3.58579 11.6739 4L11.6739 10.6254L7.79691 10.6254C7.49352 10.6254 7.22001 10.8082 7.10395 11.0885C6.98789 11.3688 7.05215 11.6914 7.26674 11.9059L11.8763 16.5126C12.0132 16.6587 12.2079 16.75 12.4239 16.75C12.6566 16.75 12.8646 16.644 13.0021 16.4776L17.5771 11.9059C17.7917 11.6915 17.8559 11.3688 17.7399 11.0885C17.6238 10.8082 17.3503 10.6254 17.0469 10.6254H13.1739L13.1739 4Z" fill="#323544"/>
<path d="M5.17188 16C5.17188 15.5858 4.83609 15.25 4.42188 15.25C4.00766 15.25 3.67188 15.5858 3.67188 16V18.5C3.67188 19.7426 4.67923 20.75 5.92188 20.75H18.9227C20.1654 20.75 21.1727 19.7426 21.1727 18.5V16C21.1727 15.5858 20.837 15.25 20.4227 15.25C20.0085 15.25 19.6727 15.5858 19.6727 16V18.5C19.6727 18.9142 19.337 19.25 18.9227 19.25H5.92188C5.50766 19.25 5.17188 18.9142 5.17188 18.5V16Z" fill="#323544"/>
</svg>
