<svg width="24" height="25" viewBox="0 0 24 25" fill="none" xmlns="http://www.w3.org/2000/svg">
<path d="M16.693 8.33833C16.809 8.61864 16.7448 8.94127 16.5302 9.15573L12.5605 13.1229C12.4231 13.2773 12.2229 13.3745 12 13.3745C11.776 13.3745 11.575 13.2763 11.4376 13.1207L7.46988 9.15575C7.25527 8.94129 7.19101 8.61866 7.30706 8.33834C7.42312 8.05802 7.69663 7.87523 8.00002 7.87523H11.25L11.25 4.87451C11.25 4.4603 11.5858 4.12451 12 4.12451C12.4142 4.12451 12.75 4.4603 12.75 4.87451L12.75 7.87523H16C16.3034 7.87523 16.5769 8.05801 16.693 8.33833Z" fill="#323544"/>
<path d="M4.25 9.87451H6.12857C6.20974 9.99606 6.30353 10.1108 6.40957 10.2168L10.3528 14.1573C10.7636 14.5985 11.3496 14.8745 12 14.8745C12.6486 14.8745 13.233 14.6001 13.6436 14.1611L17.5905 10.2167C17.6965 10.1108 17.7903 9.99604 17.8714 9.87451H19.75C20.9926 9.87451 22 10.8819 22 12.1245V18.1245C22 19.3672 20.9926 20.3745 19.75 20.3745H4.25C3.00736 20.3745 2 19.3672 2 18.1245V12.1245C2 10.8819 3.00736 9.87451 4.25 9.87451Z" fill="#323544"/>
</svg>
