<svg width="24" height="25" viewBox="0 0 24 25" fill="none" xmlns="http://www.w3.org/2000/svg">
<path d="M11.25 2.62451C10.0074 2.62451 9 3.63187 9 4.87451V6.75308C9.12153 6.83423 9.23627 6.92802 9.34221 7.03403L13.2866 10.9809C13.7256 11.3915 14 11.976 14 12.6245C14 13.2749 13.724 13.8609 13.2828 14.2717L9.34227 18.2149C9.23631 18.321 9.12155 18.4148 9 18.4959V20.3745C9 21.6172 10.0074 22.6245 11.25 22.6245H17.25C18.4926 22.6245 19.5 21.6172 19.5 20.3745V4.87451C19.5 3.63187 18.4926 2.62451 17.25 2.62451H11.25Z" fill="#323544"/>
<path d="M7.46382 7.93158C7.74413 7.81552 8.06676 7.87978 8.28122 8.09437L12.2484 12.0641C12.4028 12.2015 12.5 12.4016 12.5 12.6245C12.5 12.8485 12.4018 13.0495 12.2462 13.187L8.28123 17.1547C8.06678 17.3693 7.74415 17.4335 7.46383 17.3175C7.18351 17.2014 7.00072 16.9279 7.00072 16.6245L7.00072 13.3745L4 13.3745C3.58579 13.3745 3.25 13.0387 3.25 12.6245C3.25 12.2103 3.58579 11.8745 4 11.8745L7.00072 11.8745L7.00072 8.62453C7.00072 8.32114 7.1835 8.04764 7.46382 7.93158Z" fill="#323544"/>
</svg>
