<svg width="24" height="25" viewBox="0 0 24 25" fill="none" xmlns="http://www.w3.org/2000/svg">
<path d="M16.693 9.1607C16.5769 9.44101 16.3034 9.62379 16 9.62379L12.75 9.62379L12.75 12.6245C12.75 13.0387 12.4142 13.3745 12 13.3745C11.5858 13.3745 11.25 13.0387 11.25 12.6245L11.25 9.62379H8.00002C7.69663 9.62379 7.42312 9.44101 7.30706 9.16068C7.19101 8.88036 7.25527 8.55773 7.46988 8.34328L11.4376 4.37836C11.575 4.22269 11.776 4.12451 12 4.12451C12.2229 4.12451 12.4231 4.22174 12.5605 4.3761L16.5302 8.3433C16.7448 8.55776 16.809 8.88038 16.693 9.1607Z" fill="#323544"/>
<path d="M4.25 9.87451H5.98476C6.36253 10.6358 7.14137 11.1238 8 11.1238L9.75 11.1238L9.75 12.6245C9.75 13.8672 10.7574 14.8745 12 14.8745C13.2426 14.8745 14.25 13.8672 14.25 12.6245L14.25 11.1238H16C16.8586 11.1238 17.6375 10.6358 18.0152 9.87451H19.75C20.9926 9.87451 22 10.8819 22 12.1245V18.1245C22 19.3672 20.9926 20.3745 19.75 20.3745H4.25C3.00736 20.3745 2 19.3672 2 18.1245V12.1245C2 10.8819 3.00736 9.87451 4.25 9.87451Z" fill="#323544"/>
</svg>
