<svg width="24" height="24" viewBox="0 0 24 24" fill="none" xmlns="http://www.w3.org/2000/svg">
<path d="M20.75 3.99951C20.75 3.5853 20.4142 3.24951 20 3.24951C19.5858 3.24951 19.25 3.5853 19.25 3.99951L19.25 20.0004C19.25 20.4146 19.5858 20.7504 20 20.7504C20.4142 20.7504 20.75 20.4146 20.75 20.0004V3.99951Z" fill="#323544"/>
<path d="M11.9059 6.84523C11.6915 6.63063 11.3688 6.56636 11.0885 6.68242C10.8082 6.79847 10.6254 7.07198 10.6254 7.37538V11.2484L4 11.2484C3.58579 11.2484 3.25 11.5842 3.25 11.9984C3.25 12.4126 3.58579 12.7484 4 12.7484L10.6254 12.7484V16.6254C10.6254 16.9288 10.8082 17.2023 11.0885 17.3183C11.3688 17.4344 11.6914 17.3701 11.9059 17.1555L16.5126 12.5459C16.6587 12.4091 16.75 12.2144 16.75 11.9984C16.75 11.7657 16.644 11.5577 16.4776 11.4202L11.9059 6.84523Z" fill="#323544"/>
</svg>
