<svg width="24" height="24" viewBox="0 0 24 24" fill="none" xmlns="http://www.w3.org/2000/svg">
<path d="M4.75 3.99951C4.75 3.5853 4.41421 3.24951 4 3.24951C3.58579 3.24951 3.25 3.5853 3.25 3.99951V20.0004C3.25 20.4146 3.58579 20.7504 4 20.7504C4.41421 20.7504 4.75 20.4146 4.75 20.0004V3.99951Z" fill="#323544"/>
<path d="M13.3746 7.37451C13.3746 7.07112 13.1918 6.79762 12.9115 6.68156C12.6312 6.5655 12.3086 6.62975 12.0941 6.84435L7.48746 11.4539C7.34132 11.5908 7.25 11.7854 7.25 12.0015C7.25 12.2342 7.356 12.4422 7.52235 12.5797L12.0941 17.1547C12.3085 17.3693 12.6312 17.4335 12.9115 17.3175C13.1918 17.2014 13.3746 16.9279 13.3746 16.6245V12.7515L20 12.7515C20.4142 12.7515 20.75 12.4157 20.75 12.0015C20.75 11.5873 20.4142 11.2515 20 11.2515L13.3746 11.2515L13.3746 7.37451Z" fill="#323544"/>
</svg>
