<svg width="25" height="24" viewBox="0 0 25 24" fill="none" xmlns="http://www.w3.org/2000/svg">
<path fill-rule="evenodd" clip-rule="evenodd" d="M12.4214 21.9991C17.9437 21.9991 22.421 17.5224 22.421 12C22.421 6.47766 17.9437 2.00098 12.4214 2.00098C6.89916 2.00098 2.42188 6.47766 2.42188 12C2.42188 17.5224 6.89916 21.9991 12.4214 21.9991ZM12.4209 16.1902C12.0067 16.1902 11.6709 15.8544 11.6709 15.4402L11.6709 11.9612L9.77013 11.9612C9.46674 11.9612 9.19323 11.7784 9.07717 11.4981C8.96112 11.2178 9.02538 10.8952 9.23999 10.6807L11.8539 8.06865C11.9914 7.90994 12.1944 7.80955 12.4209 7.80955C12.6347 7.80955 12.8276 7.89902 12.9643 8.04256L15.6041 10.6807C15.8187 10.8952 15.883 11.2178 15.7669 11.4981C15.6509 11.7784 15.3773 11.9612 15.074 11.9612H13.1709L13.1709 15.4402C13.1709 15.8544 12.8351 16.1902 12.4209 16.1902Z" fill="#323544"/>
</svg>
