<svg width="24" height="24" viewBox="0 0 24 24" fill="none" xmlns="http://www.w3.org/2000/svg">
<path d="M6.84487 8.0941L11.4545 3.48744C11.5913 3.34131 11.786 3.25 12.002 3.25C12.2347 3.25 12.4427 3.356 12.5802 3.52235L17.1552 8.09408C17.3698 8.30854 17.434 8.63117 17.318 8.91149C17.2019 9.19181 16.9284 9.3746 16.625 9.3746H12.752L12.752 16C12.752 16.4142 12.4162 16.75 12.002 16.75C11.5878 16.75 11.252 16.4142 11.252 16L11.252 9.3746L7.37503 9.3746C7.07164 9.3746 6.79813 9.19181 6.68208 8.9115C6.56602 8.63119 6.63027 8.30856 6.84487 8.0941Z" fill="#323544"/>
<path d="M4.75 16C4.75 15.5858 4.41421 15.25 4 15.25C3.58579 15.25 3.25 15.5858 3.25 16V18.5C3.25 19.7426 4.25736 20.75 5.5 20.75H18.5009C19.7435 20.75 20.7509 19.7426 20.7509 18.5V16C20.7509 15.5858 20.4151 15.25 20.0009 15.25C19.5867 15.25 19.2509 15.5858 19.2509 16V18.5C19.2509 18.9142 18.9151 19.25 18.5009 19.25H5.5C5.08579 19.25 4.75 18.9142 4.75 18.5V16Z" fill="#323544"/>
</svg>
