<svg width="24" height="24" viewBox="0 0 24 24" fill="none" xmlns="http://www.w3.org/2000/svg">
<path d="M8.61288 2.15759C10.4745 1.68444 12.3561 2.30712 13.5784 3.61827C14.5156 3.15767 15.6338 3.06578 16.6928 3.45537C18.4831 4.11402 19.5117 5.92951 19.2442 7.74502C20.4227 8.53784 21.1997 9.88466 21.1997 11.414C21.1997 13.8546 19.2212 15.8331 16.7806 15.8331H16.4983H14.9983H12.7483H11.2483H8.99829H7.49829H7.21593C4.77535 15.8331 2.79688 13.8546 2.79688 11.414C2.79688 9.85313 3.60618 8.48241 4.82582 7.69667C4.51439 5.19526 6.10638 2.79463 8.61288 2.15759Z" fill="#323544"/>
<g opacity="0.4">
<path d="M7.49805 15.833V18.2489C7.49805 18.6631 7.16226 18.9989 6.74805 18.9989H6.25796C6.02989 18.6954 5.66689 18.4991 5.25805 18.4991H5.24805C4.55769 18.4991 3.99805 19.0588 3.99805 19.7491C3.99805 20.4395 4.55769 20.9991 5.24805 20.9991H5.25805C5.66711 20.9991 6.03028 20.8026 6.25832 20.4989H6.74805C7.99069 20.4989 8.99805 19.4915 8.99805 18.2489V15.833H7.49805Z" fill="#323544"/>
<path d="M11.248 15.833V19.749C10.9444 19.9771 10.748 20.3402 10.748 20.7491C10.748 21.4395 11.3077 21.9991 11.998 21.9991H12.008C12.6984 21.9991 13.258 21.4395 13.258 20.7491C13.258 20.3357 13.0573 19.9691 12.748 19.7416V15.833H11.248Z" fill="#323544"/>
<path d="M14.998 15.833V18.2489C14.998 19.4915 16.0054 20.4989 17.248 20.4989H17.738C17.966 20.8026 18.3292 20.9991 18.7383 20.9991H18.7483C19.4386 20.9991 19.9983 20.4395 19.9983 19.7491C19.9983 19.0588 19.4386 18.4991 18.7483 18.4991H18.7383C18.3294 18.4991 17.9664 18.6954 17.7384 18.9989H17.248C16.8338 18.9989 16.498 18.6631 16.498 18.2489V15.833H14.998Z" fill="#323544"/>
</g>
</svg>
