<svg width="24" height="24" viewBox="0 0 24 24" fill="none" xmlns="http://www.w3.org/2000/svg">
<path opacity="0.4" d="M6.38688 7.48329C6.45702 4.44302 8.94354 2 12.0007 2C15.0578 2 17.5444 4.44307 17.6144 7.48338C20.0688 7.67706 22.0001 9.7301 22.0001 12.2342C22.0001 12.2685 21.9997 12.3027 21.999 12.3368C20.7393 10.7601 18.8001 9.75 16.625 9.75C12.828 9.75 9.75 12.828 9.75 16.625C9.75 16.7508 9.75338 16.8758 9.76005 17H6.76577C4.13371 17 2 14.8663 2 12.2342C2 9.72969 3.93195 7.67638 6.38688 7.48329Z" fill="#323544"/>
<path d="M16.1126 12.7841C16.9239 12.6758 17.7486 12.8271 18.4686 13.2164C18.7959 13.3934 19.094 13.6154 19.355 13.8744H19.064C18.6497 13.8744 18.314 14.2101 18.314 14.6244C18.314 15.0386 18.6497 15.3744 19.064 15.3744H20.7337C20.8625 15.3854 20.9959 15.3632 21.1209 15.3033C21.4064 15.1665 21.5659 14.8725 21.5452 14.5748C21.5378 14.4606 21.5047 14.3533 21.4518 14.2587C20.9595 13.2549 20.1662 12.4291 19.182 11.8969C18.1834 11.357 17.0395 11.1471 15.9142 11.2972C14.789 11.4474 13.7401 11.9499 12.9181 12.7328C12.3154 13.3068 11.8572 14.0099 11.5749 14.7842C11.433 15.1733 11.6334 15.6038 12.0226 15.7457C12.4117 15.8876 12.8422 15.6872 12.9841 15.298C13.1877 14.7397 13.518 14.2329 13.9525 13.8191C14.5452 13.2546 15.3014 12.8923 16.1126 12.7841ZM21.2278 17.5036C20.8385 17.3619 20.4081 17.5625 20.2664 17.9518C20.0629 18.5108 19.7324 19.0183 19.2974 19.4325C18.7047 19.9969 17.9485 20.3593 17.1373 20.4675C16.326 20.5758 15.5013 20.4244 14.7813 20.0352C14.4522 19.8573 14.1528 19.6338 13.8908 19.3731H14.1854C14.5996 19.3731 14.9354 19.0373 14.9354 18.6231C14.9354 18.2089 14.5996 17.8731 14.1854 17.8731H12.4531C12.0553 17.8731 11.7298 18.1829 11.7046 18.5743C11.6961 18.6992 11.7188 18.8279 11.7767 18.9488C12.2672 19.9725 13.0693 20.8147 14.0679 21.3547C15.0665 21.8946 16.2104 22.1045 17.3357 21.9543C18.4609 21.8042 19.5098 21.3016 20.3318 20.5187C20.9352 19.9442 21.3937 19.2402 21.6759 18.4649C21.8176 18.0757 21.617 17.6453 21.2278 17.5036Z" fill="#323544"/>
</svg>
