<svg width="24" height="24" viewBox="0 0 24 24" fill="none" xmlns="http://www.w3.org/2000/svg">
<path opacity="0.4" d="M6.38688 7.48329C6.45702 4.44302 8.94354 2 12.0007 2C15.0578 2 17.5444 4.44307 17.6144 7.48338C20.0688 7.67706 22.0001 9.7301 22.0001 12.2342C22.0001 13.4231 21.5648 14.5103 20.8449 15.3451C20.7404 15.1404 20.6026 14.9483 20.4314 14.777C20.0001 14.3454 19.4371 14.1256 18.8716 14.1176V12.3301C18.8716 11.0874 17.8643 10.0801 16.6216 10.0801C15.379 10.0801 14.3716 11.0874 14.3716 12.3301V14.1176C13.8063 14.1256 13.2433 14.3454 12.8121 14.7769C12.2105 15.3789 12.0211 16.2369 12.2439 17H6.76577C4.13371 17 2 14.8663 2 12.2342C2 9.72969 3.93195 7.67638 6.38688 7.48329Z" fill="#323544"/>
<path d="M16.6216 11.5801C17.0358 11.5801 17.3716 11.9159 17.3716 12.3301V15.6174H18.8398C19.1432 15.6174 19.4167 15.8002 19.5328 16.0805C19.6489 16.3608 19.5846 16.6835 19.37 16.8979L17.1518 19.1146C16.8589 19.4072 16.3843 19.4072 16.0915 19.1146L13.8734 16.8979C13.6588 16.6835 13.5946 16.3608 13.7106 16.0805C13.8267 15.8002 14.1002 15.6174 14.4036 15.6174H15.8716V12.3301C15.8716 11.9159 16.2074 11.5801 16.6216 11.5801ZM12.5938 21.5806C12.5938 21.1664 12.9295 20.8306 13.3438 20.8306H19.9047C20.3189 20.8306 20.6547 21.1664 20.6547 21.5806C20.6547 21.9948 20.3189 22.3306 19.9047 22.3306H13.3438C12.9295 22.3306 12.5938 21.9948 12.5938 21.5806Z" fill="#323544"/>
</svg>
