<svg width="24" height="24" viewBox="0 0 24 24" fill="none" xmlns="http://www.w3.org/2000/svg">
<path opacity="0.4" d="M6.38688 7.48329C6.45702 4.44302 8.94354 2 12.0007 2C15.0578 2 17.5444 4.44307 17.6144 7.48338C20.0688 7.67706 22.0001 9.7301 22.0001 12.2342C22.0001 12.2685 21.9997 12.3027 21.999 12.3368C20.7393 10.7601 18.8001 9.75 16.625 9.75C12.828 9.75 9.75 12.828 9.75 16.625C9.75 16.7508 9.75338 16.8758 9.76005 17H6.76577C4.13371 17 2 14.8663 2 12.2342C2 9.72969 3.93195 7.67638 6.38688 7.48329Z" fill="#323544"/>
<path d="M16.625 11.25C13.6565 11.25 11.25 13.6565 11.25 16.625C11.25 19.5935 13.6565 22 16.625 22C19.5935 22 22 19.5935 22 16.625C22 13.6565 19.5935 11.25 16.625 11.25ZM18.6553 16.2015L16.7477 18.1091C16.607 18.2498 16.4162 18.3288 16.2173 18.3288C16.0184 18.3288 15.8277 18.2498 15.687 18.1091L14.5947 17.0168C14.3018 16.7239 14.3018 16.249 14.5947 15.9562C14.8876 15.6633 15.3624 15.6633 15.6553 15.9562L16.2173 16.5182L17.5947 15.1408C17.8876 14.8479 18.3624 14.8479 18.6553 15.1408C18.9482 15.4337 18.9482 15.9086 18.6553 16.2015Z" fill="#323544"/>
</svg>
