<svg width="24" height="24" viewBox="0 0 24 24" fill="none" xmlns="http://www.w3.org/2000/svg">
<path opacity="0.4" d="M6.38688 7.48329C6.45702 4.44302 8.94354 2 12.0007 2C15.0578 2 17.5444 4.44307 17.6144 7.48338C19.7589 7.6526 21.504 9.24124 21.9106 11.31C21.5387 10.5798 20.7799 10.0796 19.9043 10.0796L13.3434 10.0796C12.1007 10.0796 11.0934 11.0869 11.0934 12.3296C11.0934 13.5722 12.1007 14.5796 13.3434 14.5796H14.1903L12.8178 15.9512C12.5173 16.2515 12.3194 16.6156 12.2243 17H6.76577C4.13371 17 2 14.8663 2 12.2342C2 9.72969 3.93195 7.67638 6.38688 7.48329Z" fill="#323544"/>
<path d="M16.6268 22.3306C16.2126 22.3306 15.8768 21.9948 15.8768 21.5806V18.2932H14.4086C14.1052 18.2932 13.8317 18.1104 13.7156 17.8301C13.5996 17.5498 13.6638 17.2272 13.8785 17.0127L16.0967 14.7961C16.3895 14.5034 16.8641 14.5034 17.157 14.7961L19.375 17.0127C19.5896 17.2272 19.6539 17.5498 19.5378 17.8301C19.4218 18.1104 19.1483 18.2932 18.8449 18.2932H17.3768V21.5806C17.3768 21.9948 17.041 22.3306 16.6268 22.3306ZM20.6547 12.3301C20.6547 12.7443 20.3189 13.0801 19.9047 13.0801L13.3438 13.0801C12.9295 13.0801 12.5937 12.7443 12.5938 12.3301C12.5938 11.9159 12.9295 11.5801 13.3438 11.5801L19.9047 11.5801C20.3189 11.5801 20.6547 11.9159 20.6547 12.3301Z" fill="#323544"/>
</svg>
