<svg width="24" height="24" viewBox="0 0 24 24" fill="none" xmlns="http://www.w3.org/2000/svg">
<path opacity="0.4" d="M4.5 5.25C4.5 5.89042 4.853 6.40788 5.28636 6.78736C5.7212 7.16813 6.30718 7.47687 6.96654 7.72108C8.29107 8.21164 10.0708 8.5 12 8.5C13.9292 8.5 15.7089 8.21164 17.0335 7.72108C17.6928 7.47687 18.2788 7.16813 18.7136 6.78736C19.147 6.40788 19.5 5.89042 19.5 5.25C19.5 4.60958 19.147 4.09212 18.7136 3.71264C18.2788 3.33187 17.6928 3.02313 17.0335 2.77892C15.7089 2.28836 13.9292 2 12 2C10.0708 2 8.29107 2.28836 6.96654 2.77892C6.30718 3.02313 5.7212 3.33187 5.28636 3.71264C4.853 4.09212 4.5 4.60958 4.5 5.25Z" fill="#323544"/>
<path d="M19.5 18.7498C19.5 19.3902 19.147 19.9077 18.7136 20.2872C18.2788 20.6679 17.6928 20.9767 17.0335 21.2209C15.7089 21.7114 13.9292 21.9998 12 21.9998C10.0708 21.9998 8.29107 21.7114 6.96654 21.2209C6.30718 20.9767 5.7212 20.6679 5.28636 20.2872C4.853 19.9077 4.5 19.3902 4.5 18.7498V16.4229C4.54246 16.4634 4.58508 16.5023 4.62758 16.5395C5.18674 17.0291 5.895 17.3904 6.61923 17.6586C8.08111 18.2001 9.98384 18.4998 12 18.4998C14.0162 18.4998 15.9189 18.2001 17.3808 17.6586C18.105 17.3904 18.8133 17.0291 19.3724 16.5395C19.4149 16.5023 19.4575 16.4634 19.5 16.4229V18.7498Z" fill="#323544"/>
<path d="M19.5 14.2498V11.9229C19.4575 11.9634 19.4149 12.0023 19.3724 12.0395C18.8133 12.5291 18.105 12.8904 17.3808 13.1586C15.9189 13.7001 14.0162 13.9998 12 13.9998C9.98384 13.9998 8.08111 13.7001 6.61923 13.1586C5.895 12.8904 5.18674 12.5291 4.62758 12.0395C4.58508 12.0023 4.54246 11.9634 4.5 11.9229V14.2498C4.5 14.8902 4.853 15.4077 5.28636 15.7872C5.7212 16.1679 6.30718 16.4767 6.96654 16.7209C8.29107 17.2114 10.0708 17.4998 12 17.4998C13.9292 17.4998 15.7089 17.2114 17.0335 16.7209C17.6928 16.4767 18.2788 16.1679 18.7136 15.7872C19.147 15.4077 19.5 14.8902 19.5 14.2498Z" fill="#323544"/>
<path d="M4.5 9.7498C4.5 10.3902 4.853 10.9077 5.28636 11.2872C5.7212 11.6679 6.30718 11.9767 6.96654 12.2209C8.29107 12.7114 10.0708 12.9998 12 12.9998C13.9292 12.9998 15.7089 12.7114 17.0335 12.2209C17.6928 11.9767 18.2788 11.6679 18.7136 11.2872C19.147 10.9077 19.5 10.3902 19.5 9.7498V7.42285C19.4575 7.4634 19.4149 7.50229 19.3724 7.5395C18.8133 8.02914 18.105 8.3904 17.3808 8.65863C15.9189 9.20007 14.0162 9.4998 12 9.4998C9.98384 9.4998 8.08111 9.20007 6.61923 8.65863C5.895 8.3904 5.18674 8.02914 4.62758 7.5395C4.58508 7.50229 4.54246 7.4634 4.5 7.42285V9.7498Z" fill="#323544"/>
</svg>
