<svg width="24" height="24" viewBox="0 0 24 24" fill="none" xmlns="http://www.w3.org/2000/svg">
<path opacity="0.4" d="M12 2C6.47715 2 2 6.47715 2 12C2 17.5228 6.47715 22 12 22C17.5228 22 22 17.5228 22 12C22 6.47715 17.5228 2 12 2ZM3.5 12C3.5 7.30558 7.30558 3.5 12 3.5C16.6944 3.5 20.5 7.30558 20.5 12C20.5 16.6944 16.6944 20.5 12 20.5C7.30558 20.5 3.5 16.6944 3.5 12Z" fill="#323544"/>
<path d="M15.507 10.5245C15.7999 10.2316 15.7999 9.7567 15.507 9.46381C15.2141 9.17092 14.7392 9.17092 14.4464 9.46381L10.9648 12.9453L9.55352 11.534C9.26063 11.2412 8.78575 11.2412 8.49286 11.5341C8.19997 11.8269 8.19997 12.3018 8.49287 12.5947L10.4345 14.5363C10.7274 14.8292 11.2023 14.8292 11.4952 14.5363L15.507 10.5245Z" fill="#323544"/>
</svg>
