<svg width="24" height="24" viewBox="0 0 24 24" fill="none" xmlns="http://www.w3.org/2000/svg">
<path opacity="0.4" d="M20.75 18.5V8.67794L19.25 10.1779V18.5C19.25 18.9142 18.9142 19.25 18.5 19.25H5.5C5.08579 19.25 4.75 18.9142 4.75 18.5V5.5C4.75 5.08579 5.08579 4.75 5.5 4.75H18.314L19.2936 3.77034C19.3842 3.67974 19.4806 3.59848 19.5816 3.52657C19.2607 3.35027 18.8921 3.25 18.5 3.25H5.5C4.25736 3.25 3.25 4.25736 3.25 5.5V18.5C3.25 19.7426 4.25736 20.75 5.5 20.75H18.5C19.7426 20.75 20.75 19.7426 20.75 18.5Z" fill="#323544"/>
<path d="M20.4839 6.51861C20.7768 6.22572 20.7768 5.75084 20.4839 5.45795C20.191 5.16506 19.7162 5.16506 19.4233 5.45795L11.9299 12.9513L8.57696 9.59843C8.28406 9.30553 7.80919 9.30554 7.5163 9.59843C7.22341 9.89133 7.22341 10.3662 7.5163 10.6591L11.3996 14.5423C11.6925 14.8352 12.1673 14.8352 12.4602 14.5423L20.4839 6.51861Z" fill="#323544"/>
</svg>
