<svg width="24" height="25" viewBox="0 0 24 25" fill="none" xmlns="http://www.w3.org/2000/svg">
<path d="M11.6406 15.1109C11.6406 13.4181 13.0129 12.0459 14.7056 12.0459C16.3984 12.0459 17.7706 13.4181 17.7706 15.1109C17.7706 16.8037 16.3984 18.1759 14.7056 18.1759C13.0129 18.1759 11.6406 16.8037 11.6406 15.1109ZM14.7056 13.5459C13.8413 13.5459 13.1406 14.2466 13.1406 15.1109C13.1406 15.9752 13.8413 16.6759 14.7056 16.6759C15.57 16.6759 16.2706 15.9752 16.2706 15.1109C16.2706 14.2466 15.57 13.5459 14.7056 13.5459Z" fill="#323544"/>
<path d="M7.65797 17.9028C7.15164 17.0258 7.45257 15.9046 8.32916 15.3985C8.55144 15.2702 8.55094 14.9498 8.32953 14.822C7.45293 14.3159 7.15258 13.1949 7.65869 12.3183L8.76495 10.4022C9.27102 9.52571 10.3919 9.22553 11.2683 9.73154C11.49 9.85956 11.767 9.69946 11.767 9.44373C11.767 8.43172 12.5874 7.61133 13.5994 7.61133H15.8121C16.8245 7.61133 17.6448 8.43217 17.6448 9.44416C17.6448 9.70038 17.9221 9.86006 18.1434 9.73231C19.0198 9.22631 20.1404 9.52659 20.6464 10.403L21.7531 12.3198C22.259 13.1961 21.9588 14.3166 21.0825 14.8225C20.8615 14.9501 20.861 15.2699 21.0829 15.398C21.9591 15.9039 22.26 17.0247 21.7538 17.9014L20.6475 19.8175C20.1414 20.6941 19.0205 20.9944 18.1439 20.4883C17.9222 20.3603 17.6448 20.5203 17.6448 20.7766C17.6448 21.7888 16.8243 22.6096 15.8119 22.6096H13.5996C12.5875 22.6096 11.767 21.7891 11.767 20.7769C11.767 20.5212 11.4899 20.3608 11.2678 20.489C10.3913 20.9951 9.27006 20.695 8.76384 19.8182L7.65797 17.9028ZM9.07916 16.6976C8.91962 16.7897 8.86512 16.9936 8.957 17.1528L10.0629 19.0682C10.1547 19.2273 10.3584 19.282 10.5178 19.19C11.7392 18.4848 13.267 19.3658 13.267 20.7769C13.267 20.9606 13.4159 21.1096 13.5996 21.1096H15.8119C15.9957 21.1096 16.1448 20.9605 16.1448 20.7766C16.1448 19.3659 17.672 18.4838 18.8939 19.1893C19.0531 19.2812 19.2566 19.2266 19.3485 19.0675L20.4548 17.1514C20.5465 16.9925 20.4921 16.789 20.3329 16.697C19.1119 15.9921 19.1106 14.2289 20.3325 13.5235C20.4913 13.4318 20.5458 13.2286 20.4541 13.0698L19.3474 11.153C19.2556 10.994 19.0523 10.9396 18.8934 11.0313C17.6715 11.7368 16.1448 10.8544 16.1448 9.44416C16.1448 9.26028 15.9957 9.11133 15.8121 9.11133L13.5994 9.11133C13.4158 9.11133 13.267 9.26015 13.267 9.44373C13.267 10.8545 11.7397 11.7358 10.5183 11.0306C10.3592 10.9387 10.1558 10.9933 10.064 11.1522L8.95773 13.0683C8.86583 13.2275 8.92037 13.431 9.07953 13.5229C10.3018 14.2286 10.3006 15.9924 9.07916 16.6976Z" fill="#323544"/>
<g opacity="0.4">
<path d="M4.25315 5.39728C5.24418 5.9627 6.47801 5.25034 6.48385 4.10938L7.98373 4.10938C7.98956 5.25038 9.22343 5.96275 10.2145 5.3973L10.9635 6.6946C11.3812 6.46162 11.8798 6.30786 12.3876 6.21697C12.3568 6.12702 12.3169 6.03871 12.2675 5.95326L11.5095 4.64028C11.0998 3.93076 10.1954 3.68503 9.48364 4.0873C9.47615 3.26978 8.81111 2.60938 7.99183 2.60938H6.47573C5.65647 2.60938 4.99145 3.26976 4.98393 4.08724C4.27222 3.68501 3.3678 3.93074 2.95817 4.64024L2.20012 5.95323C1.79048 6.66275 2.0299 7.56889 2.73413 7.98413C2.0299 8.39938 1.7905 9.30551 2.20013 10.015L2.95819 11.328C3.36782 12.0375 4.27222 12.2832 4.98394 11.881C4.98962 12.4994 5.37154 13.0279 5.91185 13.2486C5.909 12.6779 6.05286 12.0988 6.35883 11.5689L6.4266 11.4515C6.17233 10.5593 5.11989 10.0765 4.25316 10.571L3.50323 9.27204C4.48844 8.69649 4.48842 7.27175 3.50321 6.69621L4.25315 5.39728Z" fill="#323544"/>
<path d="M7.23401 9.48438C8.06244 9.48438 8.73401 8.8128 8.73401 7.98438C8.73401 7.15595 8.06244 6.48438 7.23401 6.48438C6.40558 6.48438 5.73401 7.15595 5.73401 7.98438C5.73401 8.8128 6.40558 9.48438 7.23401 9.48438Z" fill="#323544"/>
</g>
</svg>
