<svg width="24" height="24" viewBox="0 0 24 24" fill="none" xmlns="http://www.w3.org/2000/svg">
<path opacity="0.4" d="M12 2C6.47715 2 2 6.47715 2 12C2 17.5228 6.47715 22 12 22C17.5228 22 22 17.5228 22 12C22 6.47715 17.5228 2 12 2ZM3.5 12C3.5 7.30558 7.30558 3.5 12 3.5C16.6944 3.5 20.5 7.30558 20.5 12C20.5 16.6944 16.6944 20.5 12 20.5C7.30558 20.5 3.5 16.6944 3.5 12Z" fill="#323544"/>
<path d="M10.9202 10.4374C10.9202 9.84093 11.4037 9.35742 12.0001 9.35742C12.5966 9.35742 13.0801 9.84093 13.0801 10.4374C13.0801 10.803 12.899 11.1265 12.6183 11.3231C12.3476 11.5126 12.0205 11.7657 11.7573 12.0836C11.4911 12.405 11.2501 12.8421 11.2501 13.3836C11.2501 13.7978 11.5859 14.1336 12.0001 14.1336C12.4143 14.1336 12.7501 13.7978 12.7501 13.3836C12.7501 13.3086 12.7808 13.1994 12.9126 13.0403C13.0472 12.8777 13.2443 12.7159 13.4787 12.5518C14.1431 12.0866 14.5801 11.3131 14.5801 10.4374C14.5801 9.01251 13.425 7.85742 12.0001 7.85742C10.5753 7.85742 9.42017 9.01251 9.42017 10.4374C9.42017 10.8516 9.75595 11.1874 10.1702 11.1874C10.5844 11.1874 10.9202 10.8516 10.9202 10.4374Z" fill="#323544"/>
<path d="M11.9994 14.6416C11.5852 14.6416 11.2494 14.9774 11.2494 15.3916C11.2494 15.8058 11.5852 16.1416 11.9994 16.1416C12.4136 16.1416 12.7501 15.8058 12.7501 15.3916C12.7501 14.9774 12.4136 14.6416 11.9994 14.6416Z" fill="#323544"/>
</svg>
