<svg width="24" height="24" viewBox="0 0 24 24" fill="none" xmlns="http://www.w3.org/2000/svg">
<path d="M19.248 7.25C19.248 6.83579 18.9123 6.5 18.498 6.5H5.5C5.08579 6.5 4.75 6.83579 4.75 7.25C4.75 7.66421 5.08579 8 5.5 8H18.498C18.9123 8 19.248 7.66421 19.248 7.25ZM7.03809 19.7949L7.06055 19.9385C7.14453 20.2632 7.43977 20.5 7.78711 20.5H16.2109C16.6077 20.5 16.9362 20.191 16.96 19.7949L17.5771 9.5H6.4209L7.03809 19.7949ZM14.499 4.25C14.499 3.83579 14.1632 3.5 13.749 3.5H10.249C9.83481 3.5 9.49902 3.83579 9.49902 4.25V5H14.499V4.25ZM15.999 5H18.498C19.7407 5 20.748 6.00736 20.748 7.25C20.748 8.28926 20.0425 9.16046 19.085 9.41895L18.457 19.8848C18.3857 21.0729 17.4012 22 16.2109 22H7.78711C6.67125 22 5.73576 21.1853 5.56445 20.1045L5.54102 19.8848L4.91211 9.41895C3.95502 9.16016 3.25 8.28893 3.25 7.25C3.25 6.00736 4.25736 5 5.5 5H7.99902V4.25C7.99902 3.00736 9.00638 2 10.249 2H13.749C14.9917 2 15.999 3.00736 15.999 4.25V5Z" fill="#323544"/>
<g opacity="0.4">
<path d="M9.98779 11.9716C10.3756 11.9525 10.7091 12.2316 10.7661 12.6074L10.7739 12.6835L10.9985 17.2402V17.3173C10.9787 17.6969 10.6735 18.0072 10.2856 18.0263C9.8979 18.0453 9.56425 17.7663 9.50732 17.3906L9.49951 17.3144L9.27588 12.7578V12.6806C9.29571 12.3011 9.6001 11.9908 9.98779 11.9716Z" fill="#323544"/>
<path d="M14.4985 17.3144C14.4781 17.7279 14.126 18.0466 13.7124 18.0263C13.2987 18.006 12.9792 17.6539 12.9995 17.2402L13.2241 12.6835L13.2319 12.6074C13.2889 12.2315 13.6224 11.9525 14.0103 11.9716C14.398 11.9908 14.7023 12.3011 14.7222 12.6806V12.7578L14.4985 17.3144Z" fill="#323544"/>
</g>
</svg>
