<svg width="24" height="24" viewBox="0 0 24 24" fill="none" xmlns="http://www.w3.org/2000/svg">
<path d="M3.28033 2.21967C2.98744 1.92678 2.51256 1.92678 2.21967 2.21967C1.92678 2.51256 1.92678 2.98744 2.21967 3.28033L8.134 9.19466L2.84575 9.19466C2.52083 9.19466 2.23287 9.40388 2.13246 9.71289C2.03206 10.0219 2.14205 10.3604 2.40492 10.5514L7.62151 14.3415L5.62895 20.474C5.52854 20.783 5.63854 21.1215 5.9014 21.3125C6.16427 21.5035 6.52021 21.5035 6.78308 21.3125L11.9997 17.5224L17.2163 21.3125C17.4791 21.5035 17.8351 21.5035 18.0979 21.3125C18.3608 21.1215 18.4708 20.783 18.3704 20.474L17.8684 18.9291L20.7187 21.7794C21.0116 22.0722 21.4865 22.0722 21.7794 21.7794C22.0722 21.4865 22.0722 21.0116 21.7794 20.7187L3.28033 2.21967Z" fill="#323544"/>
<path d="M21.5944 10.5514L16.9871 13.8989L10.0268 6.93866L11.2864 3.06218C11.3868 2.75317 11.6748 2.54395 11.9997 2.54395C12.3246 2.54395 12.6126 2.75317 12.713 3.06218L14.7055 9.19466L21.1536 9.19466C21.4785 9.19466 21.7665 9.40388 21.8669 9.71289C21.9673 10.0219 21.8573 10.3604 21.5944 10.5514Z" fill="#323544"/>
</svg>
