<svg width="25" height="24" viewBox="0 0 25 24" fill="none" xmlns="http://www.w3.org/2000/svg">
<path d="M13.0817 2.37507C13.0817 2.02651 12.8415 1.72389 12.5021 1.64469C12.1627 1.56549 11.8134 1.73058 11.6591 2.04315L9.00491 7.42117L3.06991 8.28358C2.78739 8.32463 2.55268 8.52251 2.46446 8.79402C2.37625 9.06553 2.44982 9.36358 2.65425 9.56285L6.94886 13.7491L5.93504 19.6601C5.88678 19.9415 6.00244 20.2258 6.2334 20.3936C6.46436 20.5614 6.77056 20.5836 7.02325 20.4507L12.6807 17.4764C12.9273 17.3468 13.0817 17.0912 13.0817 16.8126V2.37507Z" fill="#323544"/>
<path d="M17.6405 20.4509L14.5993 18.852V17.1574L16.9934 18.416L16.1698 13.6142C16.1281 13.3709 16.2087 13.1226 16.3855 12.9503L19.8742 9.54963L15.0529 8.84905C14.8754 8.82326 14.7154 8.73521 14.5993 8.60409V5.27449L15.6588 7.42134L21.5938 8.28374C21.8763 8.3248 22.111 8.52268 22.1992 8.79419C22.2875 9.0657 22.2139 9.36375 22.0095 9.56301L17.7149 13.7492L18.7287 19.6602C18.7769 19.9416 18.6613 20.226 18.4303 20.3938C18.1993 20.5616 17.8931 20.5837 17.6405 20.4509Z" fill="#323544"/>
</svg>
