<svg width="25" height="25" viewBox="0 0 25 25" fill="none" xmlns="http://www.w3.org/2000/svg">
<path d="M4.82924 13.3713C5.444 9.69032 8.6442 6.88477 12.4997 6.88477C16.3552 6.88477 19.5554 9.69032 20.1701 13.3713H22.5C22.8906 13.3713 23.2114 13.6698 23.2468 14.0511C23.2791 14.3912 23.0763 14.7137 22.7497 14.8289L22.2946 14.9895C21.371 15.3155 20.6646 16.0722 20.4024 17.016L20.2493 17.5661C20.1488 17.9273 19.7968 18.1588 19.4253 18.108C19.0537 18.0573 18.7768 17.7399 18.7768 17.3649V14.8717H6.22273V17.3649C6.22273 17.7401 5.94554 18.0575 5.57382 18.1081C5.2021 18.1587 4.85019 17.9268 4.74998 17.5653L4.5976 17.0156C4.33546 16.0719 3.62913 15.3155 2.70551 14.9895L2.25046 14.8289C2.0677 14.7644 1.92371 14.6351 1.83798 14.474C1.79771 14.3986 1.76994 14.3155 1.75746 14.2275C1.75251 14.1927 1.74998 14.1574 1.75 14.1217C1.75 14.1216 1.75 14.1219 1.75 14.1217C1.75 13.7075 2.08579 13.3713 2.5 13.3713H4.82924ZM8.50586 13.3713H10.0059V8.89968C9.46154 9.13558 8.95721 9.44635 8.50586 9.819V13.3713ZM11.7499 13.3713H13.2499L13.2498 8.42912C13.0038 8.39983 12.7535 8.38477 12.4997 8.38477C12.2459 8.38477 11.9957 8.39982 11.7498 8.4291L11.7499 13.3713ZM14.9941 8.89995V13.3713H16.4941V9.81952C16.0428 9.44678 15.5385 9.13593 14.9941 8.89995Z" fill="#323544"/>
</svg>
