<svg width="25" height="25" viewBox="0 0 25 25" fill="none" xmlns="http://www.w3.org/2000/svg">
<path d="M11.15 4.20391C11.95 3.60391 13.05 3.60391 13.85 4.20391L20.35 9.07891C20.9166 9.50383 21.25 10.1707 21.25 10.8789V19.0003C21.25 20.243 20.2426 21.2503 19 21.2503H6C4.75736 21.2503 3.75 20.243 3.75 19.0003V10.8789C3.75 10.1707 4.08344 9.50383 4.65 9.07891L11.15 4.20391ZM11.4192 10.9189C11.4191 10.5047 11.0833 10.1689 10.6691 10.1689C10.2549 10.169 9.91915 10.5048 9.91919 10.919V16.0815C9.91915 16.4957 10.2549 16.8316 10.6691 16.8316C11.0833 16.8316 11.4191 16.4959 11.4192 16.0817L11.4194 14.2503H13.5806L13.5806 16.0816C13.5806 16.4958 13.9164 16.8316 14.3306 16.8316C14.7448 16.8316 15.0806 16.4958 15.0806 16.0816L15.0806 10.9189C15.0806 10.5047 14.7448 10.1689 14.3306 10.1689C13.9164 10.1689 13.5806 10.5047 13.5806 10.9189V12.7503H11.4194L11.4192 10.9189Z" fill="#323544"/>
</svg>
