<svg width="24" height="24" viewBox="0 0 24 24" fill="none" xmlns="http://www.w3.org/2000/svg">
<path opacity="0.4" d="M5.25 19.75V9C5.25 8.58579 5.58579 8.25 6 8.25C6.41421 8.25 6.75 8.58579 6.75 9V19.75C6.75 20.1642 7.08579 20.5 7.5 20.5H16.5C16.9142 20.5 17.25 20.1642 17.25 19.75V9C17.25 8.58579 17.5858 8.25 18 8.25C18.4142 8.25 18.75 8.58579 18.75 9V19.75C18.75 20.9926 17.7426 22 16.5 22H7.5C6.25736 22 5.25 20.9926 5.25 19.75Z" fill="#323544"/>
<path d="M9.04086 2L9.17562 2.01172C9.48183 2.06723 9.72805 2.30978 9.78109 2.62598L9.82308 2.82227C10.076 3.78765 10.9554 4.5 11.9998 4.5C13.1139 4.5 14.0401 3.68951 14.2186 2.62598L14.2528 2.49512C14.3583 2.2025 14.6383 2 14.9588 2H16.6932C17.2319 2.00005 17.7527 2.19343 18.161 2.54492L22.2391 6.05664C22.507 6.28732 22.5773 6.67402 22.408 6.98438L20.533 10.4219C20.4368 10.5982 20.274 10.729 20.0809 10.7842C19.8876 10.8393 19.6796 10.8139 19.5047 10.7148L17.6297 9.65234L17.5653 9.61133C17.2552 9.39146 17.1561 8.96773 17.3475 8.62988C17.539 8.29233 17.9528 8.16059 18.3006 8.31348L18.37 8.34766L19.5809 9.03418L20.8006 6.79785L17.1825 3.68164C17.0464 3.56447 16.8728 3.50005 16.6932 3.5H15.536C15.021 4.95652 13.633 6 11.9998 6C10.3667 6 8.97865 4.95652 8.46371 3.5H7.30648C7.17181 3.50003 7.04027 3.53594 6.92562 3.60352L6.81723 3.68164L3.19809 6.79785L4.41781 9.03418L5.62973 8.34766C5.98999 8.14351 6.44788 8.26977 6.65219 8.62988C6.85633 8.99014 6.73007 9.44803 6.36996 9.65234L4.49496 10.7148C4.32007 10.8139 4.11209 10.8393 3.91879 10.7842C3.72564 10.729 3.5629 10.5982 3.46664 10.4219L1.59164 6.98438C1.42236 6.67402 1.4927 6.28732 1.76059 6.05664L5.83871 2.54492L5.99691 2.4209C6.3775 2.14836 6.83505 2.00004 7.30648 2H9.04086Z" fill="#323544"/>
</svg>
