<svg width="24" height="25" viewBox="0 0 24 25" fill="none" xmlns="http://www.w3.org/2000/svg">
<path d="M17.0005 3.83953C13.9513 2.07912 10.0525 3.12382 8.29205 6.17294L2.60455 16.024C1.98323 17.1001 2.35195 18.4762 3.42811 19.0975C4.50427 19.7189 5.88035 19.3501 6.50167 18.274L12.1892 8.42294C12.7069 7.52614 13.8537 7.21887 14.7505 7.73664C15.6473 8.25441 15.9545 9.40114 15.4368 10.2979L13.4993 13.6538C12.8779 14.7299 13.2467 16.106 14.3228 16.7273C15.399 17.3487 16.7751 16.9799 17.3964 15.9038L19.3339 12.5479C21.0943 9.49882 20.0496 5.59994 17.0005 3.83953Z" fill="#323544"/>
</svg>
