<svg width="24" height="25" viewBox="0 0 24 25" fill="none" xmlns="http://www.w3.org/2000/svg">
<path d="M12.0008 5.75C9.18601 5.75 6.77381 7.47349 5.76117 9.92246L3.17691 8.13336C2.94755 7.97457 2.64902 7.9562 2.40192 8.08566C2.15483 8.21513 2 8.47104 2 8.75V16.25C2 16.529 2.15482 16.7849 2.40192 16.9143C2.64902 17.0438 2.94755 17.0254 3.17691 16.8666L5.76117 15.0775C6.77381 17.5265 9.18601 19.25 12.0008 19.25C14.8152 19.25 17.2272 17.5269 18.24 15.0784L20.8231 16.8666C21.0525 17.0254 21.351 17.0438 21.5981 16.9143C21.8452 16.7849 22 16.529 22 16.25V8.75C22 8.47104 21.8452 8.21513 21.5981 8.08566C21.351 7.9562 21.0525 7.97457 20.8231 8.13336L18.24 9.92162C17.2272 7.47309 14.8152 5.75 12.0008 5.75Z" fill="#323544"/>
</svg>
