<svg width="24" height="24" viewBox="0 0 24 24" fill="none" xmlns="http://www.w3.org/2000/svg">
<path d="M17.8209 2.75813C19.1906 2.65761 20.3301 3.79704 20.2296 5.16678L19.7713 11.4115C19.7498 11.7041 19.5597 11.9573 19.2847 12.0596C19.0097 12.1619 18.7004 12.0944 18.4929 11.887L17.5466 10.9406L16.9068 11.5805L10.0368 7.45845L12.0506 5.44465L11.1007 4.49475C10.8933 4.2873 10.8258 3.97795 10.9281 3.70297C11.0303 3.428 11.2835 3.2379 11.5761 3.21643L17.8209 2.75813Z" fill="#323544"/>
<path d="M8.94351 8.55174L7.81891 9.67634L14.6889 13.7984L15.8135 12.6738L8.94351 8.55174Z" fill="#323544"/>
<path d="M13.5956 14.8917L6.72561 10.7696L5.55595 11.9393C5.26306 12.2322 5.26306 12.7071 5.55595 13L6.41107 13.8551L3.98529 16.2809C3.6924 16.5737 3.6924 17.0486 3.98529 17.3415C4.27819 17.6344 4.75306 17.6344 5.04596 17.3415L7.47173 14.9157L8.07425 15.5182L7.08053 16.512C5.99663 17.5959 5.99663 19.3532 7.08053 20.4371C8.16443 21.521 9.92178 21.521 11.0057 20.4371C11.2986 20.1442 11.2986 19.6694 11.0057 19.3765C10.7128 19.0836 10.2379 19.0836 9.94502 19.3765C9.4469 19.8746 8.6393 19.8746 8.14119 19.3765C7.64307 18.8783 7.64307 18.0707 8.14119 17.5726L9.13491 16.5789L9.99129 17.4353C10.2842 17.7282 10.7591 17.7282 11.052 17.4353L13.5956 14.8917Z" fill="#323544"/>
</svg>
