<svg width="24" height="25" viewBox="0 0 24 25" fill="none" xmlns="http://www.w3.org/2000/svg">
<path d="M21.7505 8.70315C21.5294 8.50502 21.2122 8.45599 20.9416 8.57809L20.9389 8.57929L20.9228 8.58635C20.9076 8.59297 20.8835 8.60338 20.8506 8.61715C20.785 8.64468 20.6846 8.68567 20.5518 8.73684C20.286 8.8392 19.8905 8.98216 19.3825 9.13965C18.3809 9.4501 16.9458 9.81584 15.2076 10.0393C15.1781 10.0397 15.1484 10.0418 15.1189 10.0457C15.0925 10.0491 15.0664 10.054 15.0408 10.0602C14.1046 10.1743 13.0845 10.2461 12 10.2461C10.9118 10.2461 9.88838 10.1738 8.94951 10.059C8.92704 10.0539 8.90425 10.0498 8.88119 10.0468C8.85499 10.0433 8.82876 10.0413 8.8026 10.0406C7.06005 9.81728 5.62136 9.45078 4.61788 9.13974C4.10973 8.98224 3.71416 8.83926 3.44835 8.73687C3.31548 8.6857 3.21512 8.6447 3.14944 8.61715C3.11661 8.60338 3.09245 8.59298 3.07724 8.58635L3.06117 8.57929L3.05842 8.57807C2.78783 8.45601 2.4707 8.50503 2.24959 8.70311C2.02839 8.90127 1.94495 9.21128 2.0368 9.49369L3.78704 14.8754C3.86556 15.1168 4.06088 15.3021 4.3061 15.3678C4.55131 15.4336 4.81313 15.3708 5.00187 15.201L8.63268 11.9347L11.3709 16.1471C11.5092 16.3599 11.7459 16.4883 11.9997 16.4883C12.2536 16.4883 12.4902 16.3599 12.6285 16.1471L15.3674 11.9336L18.9977 15.1994C19.1864 15.3691 19.4482 15.4319 19.6934 15.3662C19.9386 15.3005 20.1339 15.1153 20.2125 14.8739L21.9632 9.49381C22.0551 9.21139 21.9717 8.90134 21.7505 8.70315Z" fill="#323544"/>
</svg>
