<svg width="24" height="24" viewBox="0 0 24 24" fill="none" xmlns="http://www.w3.org/2000/svg">
<path d="M8.52401 2.2345C8.57998 2.14678 8.66157 2.07839 8.75771 2.03859C8.85386 1.99879 8.95992 1.98951 9.06151 2.012L20.05 4.44203L20.1809 4.47037L20.2142 4.4787L20.2225 4.47953C20.2231 4.4798 20.2236 4.48007 20.2242 4.48037L20.2742 4.4937C20.3905 4.53213 20.489 4.61135 20.5515 4.71673C20.614 4.8221 20.6363 4.94653 20.6142 5.06704L17.5891 21.584C17.5732 21.6712 17.5346 21.7527 17.4773 21.8204C17.4201 21.888 17.3461 21.9395 17.2627 21.9697C17.1793 21.9999 17.0895 22.0077 17.0022 21.9924C16.9149 21.977 16.8331 21.9391 16.765 21.8823L3.55976 10.838C3.46528 10.7589 3.40277 10.6482 3.38391 10.5264C3.36505 10.4047 3.39112 10.2802 3.45726 10.1763L8.52401 2.2345ZM4.91145 10.6455L15.8433 19.7881L11.0432 8.62626L4.91145 10.6455ZM12.0107 8.30793L16.9058 19.6906L19.4367 5.86289L12.0107 8.30793ZM5.07729 9.52211L10.6399 7.69125L8.87068 3.57702L5.07729 9.52211ZM11.6074 7.37208L18.4367 5.12371L9.82153 3.21868L11.6074 7.37208Z" fill="#323544"/>
</svg>
