<svg width="24" height="24" viewBox="0 0 24 24" fill="none" xmlns="http://www.w3.org/2000/svg">
<path d="M9.99582 9.8047H5.99833V6.00223H9.2149C9.64428 6.00223 9.99498 5.65069 9.99498 5.22215V2.00391H13.7983V6.00223C13.7984 6.50168 13.7001 6.99626 13.509 7.4577C13.3179 7.91914 13.0377 8.3384 12.6845 8.69152C12.3313 9.04465 11.912 9.32472 11.4505 9.51572C10.989 9.70672 10.4953 9.80492 9.99582 9.8047ZM5.99833 10.1956H2V13.998H5.21825C5.64679 13.998 5.99833 14.3496 5.99833 14.7781V17.9964H9.8008V13.998C9.80091 13.4987 9.70263 13.0042 9.51157 12.5428C9.32052 12.0814 9.04044 11.6622 8.68732 11.3091C8.33421 10.9559 7.91498 10.6759 7.4536 10.4848C6.99221 10.2937 6.4977 10.1955 5.99833 10.1956ZM18.7818 9.99888C18.5751 9.99822 18.377 9.91582 18.2309 9.76967C18.0847 9.62352 18.0023 9.42549 18.0017 9.21881V6.00223H14.1992V9.99888C14.199 10.4983 14.2972 10.9929 14.4882 11.4544C14.6792 11.9159 14.9593 12.3352 15.3124 12.6884C15.6655 13.0416 16.0848 13.3218 16.5462 13.5129C17.0076 13.704 17.5022 13.8023 18.0017 13.8022H22V10.0006H18.7818V9.99888ZM10.1917 17.9972V21.9955H13.995V18.7773C13.995 18.3479 14.3465 17.9972 14.7751 17.9972H17.9933V14.1922H13.9941C13.4946 14.192 13 14.2902 12.5384 14.4813C12.0769 14.6723 11.6575 14.9525 11.3043 15.3057C10.9511 15.6589 10.671 16.0783 10.4799 16.5398C10.2888 17.0014 10.1906 17.496 10.1908 17.9955L10.1917 17.9972Z" fill="#323544"/>
</svg>
