<svg width="24" height="24" viewBox="0 0 24 24" fill="none" xmlns="http://www.w3.org/2000/svg">
<path d="M7.1887 16.7845L6.83765 15.6472H3.59983L3.24783 16.7845H1L4.25026 7.42113H6.18817L9.47861 16.7845H7.1887ZM5.22591 10.0956L4.10678 13.9484H6.31826L5.22591 10.0956ZM9.72826 7.42113H11.8613V16.7845H9.72826V7.42113ZM12.4352 14.8715C12.5309 14.4095 12.7002 13.9666 12.9364 13.561C13.1411 13.2177 13.3975 12.9106 13.6969 12.6514C14.003 12.3903 14.3263 12.154 14.6658 11.9426C14.9337 11.7819 15.1823 11.627 15.4129 11.4806C15.6252 11.3467 15.827 11.1975 16.0174 11.033C16.1819 10.8914 16.3206 10.7221 16.4268 10.5308C16.5291 10.3404 16.5798 10.1262 16.577 9.90904C16.577 9.53409 16.4775 9.26435 16.2776 9.09983C16.068 8.93129 15.805 8.8434 15.5363 8.85209C15.2303 8.8434 14.9333 8.95659 14.7108 9.16678C14.4898 9.37626 14.3789 9.72635 14.3789 10.217H12.287C12.283 9.81015 12.3556 9.40615 12.5012 9.02617C12.6409 8.66557 12.8561 8.3413 13.1325 8.07635C13.4252 7.79896 13.7705 7.5847 14.1464 7.44791C14.5876 7.28882 15.054 7.21136 15.5229 7.2193C15.9246 7.21739 16.3263 7.27383 16.7128 7.3867C17.0724 7.48904 17.411 7.66122 17.7076 7.89461C17.9993 8.12991 18.2337 8.43217 18.3905 8.77748C18.5675 9.17826 18.6536 9.61443 18.644 10.0544C18.6488 10.4275 18.5637 10.7948 18.3963 11.1257C18.2365 11.4395 18.0328 11.7283 17.7917 11.9809C17.5564 12.2286 17.2972 12.4496 17.0189 12.6437C16.7415 12.835 16.489 12.9977 16.2642 13.1316C15.9523 13.3458 15.6941 13.5304 15.4903 13.6863C15.3152 13.8168 15.152 13.9624 15.0025 14.1216C14.89 14.2408 14.8037 14.3822 14.749 14.5367C14.6991 14.6967 14.6752 14.8636 14.6783 15.0312H18.579V16.7845H12.2602C12.2488 16.1424 12.3075 15.5009 12.4352 14.8715ZM18.9826 9.06539C19.3471 9.07299 19.7113 9.0393 20.0683 8.96496C20.3074 8.91809 20.5312 8.81574 20.7244 8.66461C20.8803 8.53165 20.9923 8.3547 21.0497 8.15574C21.1147 7.91661 21.1453 7.66791 21.1405 7.41922H23V16.7845H20.8545V10.591H18.9826V9.06539Z" fill="#323544"/>
</svg>
