<svg width="24" height="24" viewBox="0 0 24 24" fill="none" xmlns="http://www.w3.org/2000/svg">
<path opacity="0.5" d="M18.2585 5.61328C19.4183 6.4522 20.3623 7.55449 21.0129 8.82949C21.6636 10.1045 22.0022 11.5157 22.0009 12.9471C22.0009 17.9457 17.9562 21.9984 12.9665 21.9984C11.5636 21.9992 10.1798 21.6725 8.92529 21.0444C7.67079 20.4163 6.58018 19.5041 5.74023 18.3804C7.27844 19.4998 9.13241 20.1019 11.0348 20.0996C16.0245 20.0996 20.0692 16.046 20.0692 11.0483C20.0692 9.00819 19.3945 7.12717 18.2585 5.61328Z" fill="#323544"/>
<path d="M11.0108 5.95584C12.0384 5.95584 12.8749 6.79501 12.8749 7.82263C12.8749 8.13732 12.7949 8.4449 12.6456 8.71692C12.58 8.83853 12.565 8.98107 12.6038 9.11367C12.6425 9.24628 12.732 9.35828 12.8527 9.42541C13.0438 9.52942 13.2705 9.50009 13.4279 9.3703C13.7612 9.16406 14.1488 9.06983 14.54 9.09917C15.0324 9.13711 15.4896 9.36881 15.8114 9.74344C16.1332 10.1181 16.2933 10.605 16.2565 11.0975C16.2387 11.3417 16.173 11.58 16.0631 11.7987C15.9532 12.0175 15.8014 12.2125 15.6161 12.3725C15.4309 12.5326 15.2159 12.6546 14.9835 12.7316C14.7512 12.8086 14.5059 12.839 14.2617 12.8212C13.85 12.7912 13.4601 12.6244 13.1541 12.3474C13.1372 12.3261 13.1221 12.3056 13.1043 12.2852C13.0752 12.251 13.0421 12.2206 13.0056 12.1945C12.9624 12.1454 12.9217 12.0941 12.8838 12.0407C12.8444 11.9854 12.7945 11.9385 12.737 11.9025C12.6794 11.8665 12.6154 11.8422 12.5484 11.831C12.4815 11.8197 12.413 11.8218 12.3468 11.837C12.2807 11.8523 12.2182 11.8804 12.1629 11.9198C12.1076 11.9592 12.0606 12.0091 12.0247 12.0667C11.9887 12.1242 11.9644 12.1883 11.9531 12.2552C11.9419 12.3222 11.944 12.3907 11.9592 12.4568C11.9745 12.523 12.0026 12.5855 12.042 12.6408C12.1469 12.7892 12.2616 12.9279 12.3887 13.0514C12.5843 13.3101 12.7087 13.6177 12.7487 13.9448C12.7798 14.1875 12.7624 14.434 12.6976 14.6699C12.6327 14.9058 12.5217 15.1265 12.3709 15.3192C12.2205 15.5128 12.0333 15.6747 11.82 15.7955C11.6067 15.9164 11.3715 15.9937 11.1282 16.0232C10.8852 16.0532 10.6387 16.0349 10.4028 15.9694C10.1669 15.904 9.9462 15.7926 9.75339 15.6418C9.56058 15.4909 9.39942 15.3035 9.27914 15.0902C9.15886 14.877 9.08183 14.6421 9.05245 14.3991C9.00159 13.9975 9.08371 13.5904 9.28625 13.2399V13.2444C9.62382 12.9716 9.89609 12.6268 10.0831 12.2352C10.2702 11.8436 10.3672 11.4151 10.3672 10.9811C10.3672 10.1632 10.0267 9.42986 9.48449 8.90093L9.45782 8.85204C9.27235 8.57093 9.16635 8.24489 9.15103 7.90846C9.13572 7.57203 9.21165 7.23771 9.3708 6.94091C9.52996 6.6441 9.7664 6.39585 10.0551 6.22244C10.3438 6.04903 10.674 5.95691 11.0108 5.95584Z" fill="#323544"/>
<path d="M7.46745 9.11339C7.96268 9.11339 8.43762 9.31012 8.7878 9.6603C9.13797 10.0105 9.3347 10.4854 9.3347 10.9806C9.3347 11.4759 9.13797 11.9508 8.7878 12.301C8.43762 12.6512 7.96268 12.8479 7.46745 12.8479C6.97352 12.8465 6.50033 12.6491 6.15182 12.2991C5.8033 11.949 5.60795 11.475 5.60866 10.9811C5.60866 9.95078 6.4416 9.11339 7.46745 9.11339Z" fill="#323544"/>
<path d="M11.0348 2C16.0245 2 20.0692 6.05273 20.0692 11.0513C20.0692 16.0499 16.0245 20.1026 11.0348 20.1026C6.04513 20.1026 1.99951 16.0499 1.99951 11.0513C1.99951 6.05184 6.04513 2 11.0348 2ZM11.0161 4.91843C10.6073 4.91921 10.2032 5.00623 9.83022 5.17382C9.45727 5.34141 9.12387 5.58579 8.85179 5.891C8.57972 6.19622 8.3751 6.55539 8.25129 6.94507C8.12748 7.33475 8.08726 7.74616 8.13328 8.15244C7.70746 8.05407 7.26493 8.05298 6.83863 8.14926C6.41233 8.24554 6.01323 8.4367 5.67101 8.70853C5.32879 8.98035 5.05227 9.32585 4.86202 9.7193C4.67177 10.1128 4.57269 10.544 4.57214 10.9811C4.57214 12.5812 5.87356 13.8808 7.4719 13.8808C7.65947 13.8808 7.84259 13.8666 8.02127 13.8319C7.9946 14.0613 7.99638 14.2906 8.02572 14.5253C8.07105 14.9043 8.19103 15.2705 8.3787 15.6028C8.56637 15.9351 8.81803 16.227 9.11913 16.4615C9.4188 16.6969 9.76229 16.8704 10.1296 16.9719C10.497 17.0734 10.8808 17.1008 11.2588 17.0526C11.6375 17.0069 12.0032 16.8864 12.3348 16.6981C12.6665 16.5098 12.9573 16.2574 13.1905 15.9557C13.6661 15.3432 13.875 14.5822 13.7799 13.8133C13.7799 13.8079 13.7755 13.8017 13.7755 13.7955C13.9097 13.8248 14.0501 13.8444 14.1897 13.8542C14.5687 13.8834 14.9496 13.8371 15.3105 13.718C15.6715 13.5988 16.0051 13.4091 16.2921 13.1599C16.7261 12.7848 17.0393 12.2897 17.1925 11.7369C17.3457 11.1841 17.3318 10.5983 17.1528 10.0533C16.9737 9.50838 16.6374 9.02857 16.1863 8.67434C15.7351 8.3201 15.1892 8.10728 14.6173 8.06265C14.3767 8.04495 14.1349 8.05689 13.8972 8.09821C13.9357 7.69622 13.8899 7.29064 13.7627 6.90736C13.6355 6.52409 13.4298 6.17157 13.1586 5.87231C12.8875 5.57306 12.5569 5.33366 12.188 5.16941C11.8191 5.00517 11.42 4.91968 11.0161 4.91843Z" fill="#323544"/>
</svg>
