<svg width="24" height="24" viewBox="0 0 24 24" fill="none" xmlns="http://www.w3.org/2000/svg">
<path d="M12 2.00001H12.015C13.2425 1.99834 14.415 2.21751 15.4975 2.62834C19.2958 4.04668 22 7.70834 22 12C22 17.5225 17.5225 22 12 22C6.4775 22 2 17.5225 2 12C2 6.47751 6.4775 2.00001 12 2.00001ZM19.17 17.8058C20.5026 16.1647 21.2284 14.1141 21.225 12C21.225 10.5692 20.9 9.21334 20.3175 8.00501C19.9988 8.38631 19.5583 8.64594 19.0703 8.74007C18.5823 8.8342 18.0768 8.75706 17.6392 8.52167C17.2339 8.29655 16.8603 8.01856 16.5283 7.69501C15.5692 6.77501 14.5908 5.88334 13.4133 5.25001C10.7375 3.80918 7.72583 3.99918 5.33417 5.62251C3.68888 7.33766 2.77169 9.6233 2.775 12C2.775 13.3858 3.08083 14.7008 3.62833 15.8808C4.25333 15.07 5.40417 14.7592 6.32166 15.2892C6.8775 15.6092 7.36916 16.0558 7.8525 16.495L7.99916 16.6283C9.13666 17.6567 10.3275 18.5908 11.7975 19.0992C14.3417 19.9767 17.0942 19.4633 19.17 17.8058Z" fill="#323544"/>
<path d="M6.7025 10.5933C6.01083 10.685 5.535 11.2317 5.52917 11.9417C5.52403 12.2861 5.64346 12.6208 5.86548 12.8841C6.0875 13.1475 6.39717 13.3218 6.7375 13.375C7.40833 13.4817 8.10416 13.02 8.29583 12.325C8.33416 12.1858 8.35916 12.0433 8.38416 11.9C8.405 11.7833 8.42583 11.665 8.45416 11.55C8.71916 10.4525 9.485 9.925 10.7775 9.94166C11.6825 9.9525 11.8758 10.1675 12.1775 11.4875C12.1917 11.5508 12.2133 11.6133 12.2358 11.6758C12.4525 12.2708 13.0492 12.6508 13.6275 12.5633C13.9238 12.5167 14.1966 12.3743 14.4043 12.1579C14.612 11.9414 14.7431 11.663 14.7775 11.365C14.8467 10.7575 14.4875 10.3117 13.8425 10.0525C13.5592 9.93916 13.2892 9.92083 13.0133 9.935C12.4083 9.96583 12.0792 9.635 11.8975 9.12083C11.8425 8.9444 11.8051 8.76296 11.7858 8.57916C11.7742 8.50166 11.7633 8.42416 11.75 8.3475C11.62 7.60833 11.0542 7.08916 10.3592 7.07083C9.7 7.05416 9.13916 7.53 8.97166 8.2525L8.92166 8.4775L8.90083 8.575C8.605 9.93833 8.08916 10.4125 6.7025 10.5933Z" fill="#323544"/>
<path d="M17.0492 13.37C17.8733 13.1983 18.3633 12.6717 18.3758 11.9558C18.3883 11.2642 17.8558 10.6375 17.1592 10.5192C16.5175 10.4108 15.8267 10.8383 15.6225 11.5025C15.565 11.6858 15.525 11.8758 15.485 12.0658C15.435 12.3075 15.3833 12.5492 15.2975 12.7775C14.9917 13.5992 13.97 14.0658 12.8592 13.9392C12.1725 13.86 11.9375 13.5675 11.7408 12.5442C11.5908 11.7625 11.0208 11.265 10.34 11.3217C9.63166 11.38 9.0775 12.0125 9.11666 12.7158C9.15833 13.4592 9.68166 13.9158 10.5375 13.9567C11.6833 14.01 11.9958 14.2867 12.1425 15.4458C12.1983 15.8883 12.365 16.2517 12.7133 16.5192C13.5633 17.1717 14.7192 16.6925 14.93 15.5958L14.9483 15.5008C15.075 14.8375 15.1983 14.1867 15.815 13.75C16.115 13.5375 16.4492 13.4783 16.7867 13.4192C16.8742 13.4033 16.9617 13.3892 17.0492 13.37Z" fill="#323544"/>
<path d="M13.525 8.63416C13.525 8.80103 13.4587 8.96106 13.3407 9.07905C13.2227 9.19704 13.0627 9.26333 12.8958 9.26333C12.729 9.26333 12.5689 9.19704 12.4509 9.07905C12.3329 8.96106 12.2667 8.80103 12.2667 8.63416C12.2667 8.4673 12.3329 8.30727 12.4509 8.18928C12.5689 8.07128 12.729 8.005 12.8958 8.005C13.0627 8.005 13.2227 8.07128 13.3407 8.18928C13.4587 8.30727 13.525 8.4673 13.525 8.63416Z" fill="#323544"/>
<path d="M11.0075 15.8983C11.1745 15.8983 11.3346 15.832 11.4527 15.7139C11.5707 15.5959 11.6371 15.4357 11.6371 15.2687C11.6371 15.1018 11.5707 14.9416 11.4527 14.8236C11.3346 14.7055 11.1745 14.6392 11.0075 14.6392C10.8406 14.6392 10.6806 14.7054 10.5626 14.8234C10.4446 14.9414 10.3783 15.1015 10.3783 15.2683C10.3783 15.4352 10.4446 15.5952 10.5626 15.7132C10.6806 15.8312 10.8406 15.8983 11.0075 15.8983Z" fill="#323544"/>
</svg>
