<svg width="24" height="24" viewBox="0 0 24 24" fill="none" xmlns="http://www.w3.org/2000/svg">
<path d="M22 12C22 17.5225 17.5225 22 12 22C6.4775 22 2 17.5225 2 12C2 6.4775 6.4775 2 12 2C17.5225 2 22 6.4775 22 12ZM11.8867 6.9275C11.6183 7.76917 11.445 8.4575 11.3675 8.99417C11.3075 9.3875 11.3075 9.8875 11.3675 10.4942C11.4275 11.1033 11.4275 11.6075 11.3675 12.0058C11.2884 12.5723 11.0033 13.0897 10.5667 13.4592C10.1335 13.8451 9.57183 14.0555 8.99167 14.0492C8.67637 14.054 8.36341 13.9944 8.07195 13.874C7.7805 13.7537 7.51668 13.5751 7.29667 13.3492C7.07106 13.1303 6.89213 12.8681 6.77068 12.5782C6.64922 12.2883 6.58776 11.9768 6.59 11.6625C6.5875 11.0792 6.5275 10.4358 6.41 9.7325C6.35333 9.38083 6.29417 9.08667 6.235 8.84917L6.15667 8.52917L6.015 8.82583C5.61375 9.67148 5.39836 10.5933 5.38333 11.5292V11.6625C5.38039 12.5469 5.55701 13.4226 5.9025 14.2367C6.57386 15.8247 7.83775 17.0886 9.42583 17.76C10.2402 18.1056 11.1162 18.2822 12.0008 18.2792C12.8849 18.282 13.7603 18.1054 14.5742 17.76C16.1622 17.0886 17.4261 15.8247 18.0975 14.2367C18.4434 13.4224 18.6203 12.5464 18.6175 11.6617V11.5292C18.6019 10.5932 18.386 9.67135 17.9842 8.82583L17.8442 8.52917L17.7658 8.85C17.7058 9.08667 17.6475 9.38083 17.59 9.7325C17.4733 10.4358 17.4133 11.0792 17.41 11.6625C17.4122 11.9768 17.3507 12.2883 17.2293 12.5781C17.1078 12.868 16.9289 13.1303 16.7033 13.3492C16.4833 13.5751 16.2195 13.7537 15.928 13.874C15.6366 13.9944 15.3236 14.054 15.0083 14.0492C14.4282 14.0555 13.8665 13.8451 13.4333 13.4592C12.997 13.0896 12.7122 12.5722 12.6333 12.0058C12.5733 11.6075 12.5733 11.1033 12.6333 10.4942C12.6925 9.8875 12.6925 9.3875 12.6333 8.99417C12.555 8.4575 12.3817 7.76917 12.1133 6.9275L12 6.58L11.8867 6.9275ZM14.57 16.4242C13.7817 16.8535 12.8976 17.0766 12 17.0725C11.1024 17.0766 10.2183 16.8535 9.43 16.4242C8.87268 16.1263 8.37292 15.7316 7.95417 15.2583C7.90167 15.2 7.9625 15.11 8.03917 15.1308C8.34667 15.2142 8.66417 15.2558 8.9925 15.2558C9.64333 15.2558 10.2492 15.0917 10.8092 14.7642C11.2539 14.5072 11.6375 14.1566 11.9333 13.7367C11.941 13.7262 11.951 13.7176 11.9626 13.7117C11.9742 13.7058 11.987 13.7028 12 13.7028C12.013 13.7028 12.0258 13.7058 12.0374 13.7117C12.049 13.7176 12.059 13.7262 12.0667 13.7367C12.3642 14.1575 12.7392 14.5 13.1917 14.7633C13.7517 15.0917 14.3567 15.2558 15.0083 15.2558C15.3358 15.2558 15.6542 15.2142 15.9617 15.1308C16.0367 15.11 16.0983 15.2 16.0467 15.2583C15.6279 15.7316 15.1273 16.1264 14.57 16.4242Z" fill="#323544"/>
</svg>
