<svg width="24" height="24" viewBox="0 0 24 24" fill="none" xmlns="http://www.w3.org/2000/svg">
<path d="M8.85802 17.4078C9.01402 16.9938 8.92302 17.1348 9.35302 17.5058C11.426 19.2978 19.687 15.6508 18.388 13.5188C16.783 11.2958 10.464 12.7988 6.88901 13.4708C7.45901 13.2118 9.72402 12.4728 10.575 12.2578C11.744 11.9618 12.225 11.8658 13.313 11.6068C10.863 11.8568 7.09701 13.0998 3.62601 14.4038C5.31801 13.0578 8.70302 11.8658 9.48002 11.5028C7.87402 11.8658 4.88401 13.2108 2.63501 14.3478C1.358 14.9928 0.932002 15.2328 0 15.7508C0.696001 15.1558 1.53 14.3678 2.95101 13.5348C4.66501 12.5318 4.76601 12.4868 5.28401 12.1758C4.04001 12.6938 2.90101 13.2128 2.124 13.4718C2.89701 12.9378 4.35101 12.1248 4.92101 11.8658C4.74801 11.8808 4.40301 12.0208 4.19601 12.0728C5.23201 11.5028 5.99501 11.2428 6.43001 11.1028C13.85 8.66076 22.429 8.92076 23.75 11.6308C25.0721 14.3408 20.984 18.1168 15.403 19.3398C14.437 19.5518 13.582 19.6678 12.777 19.6978C11.941 19.7288 11.329 19.6928 10.74 19.5778C9.17702 19.2728 8.50302 18.3458 8.85802 17.4078Z" fill="#323544"/>
<path d="M11.5 6.47776C12.173 6.58176 12.484 6.63376 12.847 6.63376C12.277 6.27076 12.145 6.22876 10.827 5.49375C12.121 5.39075 12.733 5.46975 14.193 5.44175C13.572 5.07975 13.261 5.07975 12.588 4.76875C13.5185 4.69569 14.4517 4.66099 15.385 4.66475C15.2741 4.51583 15.1326 4.3924 14.97 4.30275C16.42 4.25075 18.48 4.39875 19.655 4.92275C21.947 5.94976 21.65 7.54176 19.085 7.98576C18.614 8.06676 17.77 8.13376 17.211 8.13576C16.4936 8.12641 15.7783 8.05548 15.073 7.92376C13.202 7.56576 11.759 6.94376 11.5 6.47776Z" fill="#323544"/>
</svg>
