<svg width="24" height="24" viewBox="0 0 24 24" fill="none" xmlns="http://www.w3.org/2000/svg">
<path d="M8.9949 2.80278C9.02657 2.81611 9.04824 2.81111 9.05824 2.78944C9.07213 2.78081 9.08549 2.77135 9.09824 2.76111L9.37574 2.54945C9.73772 2.27296 10.1717 2.10661 10.6257 2.07028C10.6907 2.06445 10.7491 2.06445 10.8016 2.07028C10.9016 2.07862 10.9599 2.08362 10.9766 2.08362C10.9849 2.08362 10.9932 2.08362 11.0007 2.08695C11.0404 2.10018 11.0822 2.10611 11.1241 2.10445C11.1374 2.10445 11.1499 2.10612 11.1624 2.10945C11.2023 2.12408 11.2453 2.12838 11.2874 2.12195C11.5707 2.05112 11.7982 2.01112 11.9707 2.00195C12.1299 1.99362 12.3207 2.01195 12.544 2.05778C12.9224 2.13445 13.264 2.29778 13.569 2.54778C13.609 2.58111 13.6774 2.64278 13.7765 2.73361C13.7824 2.73861 13.789 2.74195 13.7965 2.74278C13.8274 2.74778 13.8549 2.74361 13.879 2.73028C14.06 2.62775 14.2712 2.59234 14.4757 2.63028L14.7815 2.64861C14.9774 2.66778 15.1532 2.71778 15.3082 2.79861C15.3882 2.83861 15.494 2.90528 15.6274 2.99694C15.6335 3.00128 15.6407 3.00387 15.6482 3.00444C15.6874 3.00694 15.724 2.97528 15.7524 2.97944C15.7799 2.98278 15.809 2.96278 15.8407 2.95944C16.0663 2.93277 16.2943 2.93277 16.5199 2.95944C16.6324 2.97194 16.7399 2.99861 16.8415 3.04028C17.0965 3.14611 17.3273 3.28694 17.5332 3.46277C17.7832 3.67527 18.0082 3.9211 18.1707 4.21277C18.2815 4.41193 18.354 4.59193 18.3898 4.75443C18.4073 4.83776 18.4282 4.9411 18.4507 5.06443C18.4523 5.07276 18.4548 5.07943 18.4582 5.08776C18.5165 5.2311 18.5973 5.36693 18.6498 5.51109C18.6832 5.60526 18.7082 5.68443 18.7223 5.74943C18.7423 5.83942 18.7615 5.94859 18.7798 6.07776C18.7848 6.12026 18.7948 6.16776 18.8082 6.21942C18.8143 6.24319 18.8277 6.26444 18.8465 6.28026C19.074 6.47442 19.2548 6.70859 19.3607 6.98108C19.3915 7.06025 19.4107 7.15358 19.4173 7.26192C19.4282 7.42775 19.434 7.60358 19.3823 7.76025C19.344 7.87941 19.319 7.95191 19.3082 7.97691C19.3031 7.98931 19.3017 8.00289 19.304 8.01608C19.3173 8.10358 19.3232 8.16608 19.3207 8.20358C19.3098 8.33024 19.3032 8.42441 19.299 8.48691C19.2894 8.61183 19.2551 8.73361 19.1982 8.84524C18.9923 9.2619 18.6148 9.4894 18.1565 9.54857C18.1296 9.55378 18.104 9.56456 18.0815 9.58023C18.0665 9.58857 18.0648 9.60857 18.0757 9.63857C18.0777 9.64474 18.0786 9.65124 18.0782 9.65773C18.071 9.78779 18.052 9.91693 18.0215 10.0436C17.9648 10.2936 17.8507 10.5019 17.6798 10.6669C17.5063 10.8318 17.2934 10.9494 17.0615 11.0086C17.0315 11.0169 16.9649 11.0269 16.8615 11.0369C16.8564 11.0375 16.8516 11.0396 16.8477 11.0428C16.8437 11.0461 16.8407 11.0504 16.839 11.0552C16.8307 11.0827 16.839 11.1361 16.8249 11.1802C16.8057 11.2377 16.8199 11.3219 16.8032 11.3794C16.7865 11.4336 16.7907 11.4911 16.7832 11.5586C16.7782 11.5952 16.764 11.6944 16.739 11.8561C16.5427 13.1468 16.109 14.39 15.4599 15.5227C15.3724 15.676 15.2682 15.8277 15.1574 15.9927C15.149 16.0055 15.146 16.021 15.149 16.036C15.2232 16.441 15.3032 16.8327 15.4157 17.216C15.4824 17.4427 15.5674 17.6518 15.7349 17.8118C15.7824 17.8568 15.864 17.9127 15.9815 17.981C16.5065 18.2868 17.0457 18.5277 17.6357 18.7835C17.6379 18.7844 17.6399 18.7859 17.6415 18.7877C17.6431 18.7896 17.6443 18.7919 17.6448 18.7943C17.6454 18.7968 17.6454 18.7994 17.6448 18.8018C17.61 18.8527 17.5725 18.9017 17.5323 18.9485C16.9015 19.6777 16.2415 20.3143 15.4924 20.846C14.8256 21.3207 14.077 21.6682 13.284 21.871C13.2604 21.8783 13.2361 21.883 13.2115 21.8852C13.2032 21.8852 13.1957 21.8868 13.189 21.8918C13.1557 21.9143 13.1124 21.9002 13.074 21.9227C13.0657 21.9273 13.0561 21.9297 13.0465 21.9293C13.0124 21.9273 12.9782 21.933 12.9465 21.946C12.9392 21.9493 12.9313 21.9513 12.9232 21.9518C12.8065 21.9552 12.7074 21.976 12.6007 21.9777C12.3282 21.9835 12.0291 22.006 11.7507 21.9985C11.5709 21.9953 11.3914 21.9851 11.2124 21.9677C11.0402 21.9411 10.8697 21.9049 10.7016 21.8593C10.1832 21.7333 9.6874 21.5281 9.23157 21.251C8.84465 21.0106 8.50584 20.7003 8.23241 20.336C8.11054 20.1861 8.03111 20.0062 8.00241 19.8152C7.9995 19.7691 7.9914 19.7236 7.97824 19.6793C7.97979 19.6254 7.97362 19.5715 7.95991 19.5193C7.95658 19.5071 7.95489 19.4945 7.95491 19.4818C7.95617 19.4464 7.95393 19.411 7.94824 19.376C7.92741 19.2827 7.93158 19.226 7.91741 19.1177C7.87685 18.8149 7.82878 18.5131 7.77325 18.2127C7.76765 18.1841 7.7643 18.1551 7.76325 18.126C7.76158 18.0818 7.74075 18.0543 7.74158 18.0093C7.74378 17.9725 7.73721 17.9357 7.72241 17.9018C7.71899 17.8949 7.71755 17.8871 7.71825 17.8793C7.72092 17.8416 7.7164 17.8037 7.70491 17.7677C7.68575 17.7177 7.69825 17.6652 7.67491 17.6027C7.67142 17.5931 7.66973 17.5829 7.66991 17.5727C7.67225 17.5404 7.66886 17.508 7.65991 17.4768C7.63825 17.4193 7.65325 17.3635 7.62658 17.3035C7.62384 17.2963 7.6227 17.2887 7.62325 17.281C7.62518 17.2461 7.62095 17.2111 7.61075 17.1777C7.59158 17.1244 7.60575 17.0777 7.58575 17.0277C7.56825 16.9844 7.58241 16.9285 7.56241 16.886C7.54158 16.8402 7.55575 16.7819 7.53575 16.7302C7.51991 16.691 7.53325 16.6527 7.51658 16.6069C7.49991 16.5569 7.50991 16.4985 7.48991 16.4535C7.47658 16.4235 7.48158 16.3877 7.47408 16.3494L7.43241 16.1269C7.424 16.0583 7.40691 15.9911 7.38158 15.9269C7.38027 15.9235 7.37798 15.9206 7.37502 15.9185C7.37205 15.9164 7.36853 15.9153 7.36492 15.9152C7.34486 15.9125 7.32525 15.9072 7.30658 15.8994C7.09672 15.8242 6.90199 15.7122 6.73159 15.5685C6.54869 15.4149 6.41053 15.2148 6.33159 14.9894C6.29313 14.881 6.26413 14.7694 6.24492 14.656C6.21992 14.5144 6.12242 14.4035 6.06409 14.2977C6.01019 14.197 5.97037 14.0893 5.94576 13.9777C5.93742 13.9435 5.94242 13.8819 5.92242 13.8552L5.92007 13.8501L5.91988 13.8445L5.92188 13.8393L5.92576 13.8352C5.94076 13.8244 5.94576 13.7985 5.93909 13.7585C5.93409 13.7277 5.91909 13.7127 5.89492 13.7135C5.89124 13.7138 5.88754 13.7132 5.88409 13.7119C5.88087 13.7103 5.87802 13.708 5.87576 13.7052C5.65909 13.4485 5.49576 13.2435 5.42159 12.9577C5.38518 12.8261 5.36119 12.6913 5.34993 12.5552C5.34648 12.4776 5.34064 12.4 5.33243 12.3227C5.32959 12.3195 5.3281 12.3153 5.32826 12.311C5.35066 12.2631 5.36367 12.2114 5.36659 12.1585C5.37355 12.1223 5.373 12.0851 5.36498 12.0491C5.35695 12.0131 5.34162 11.9792 5.31993 11.9494C5.31024 11.9366 5.30368 11.9218 5.30076 11.9061L5.23576 11.5777C5.23353 11.5676 5.23297 11.5572 5.2341 11.5469C5.24826 11.4227 5.25743 11.3494 5.26243 11.3269C5.29993 11.1502 5.36743 10.9886 5.46576 10.8411C5.46874 10.8367 5.46993 10.8313 5.46909 10.8261C5.4679 10.821 5.46494 10.8166 5.46076 10.8136C5.09918 10.5194 4.83082 10.1265 4.68827 9.68273C4.61167 9.45164 4.57366 9.20952 4.57577 8.96607C4.5766 8.84274 4.58243 8.73274 4.59243 8.63524C4.63389 8.19595 4.8272 7.78486 5.1391 7.47275C5.27743 7.33275 5.43576 7.20775 5.61576 7.09608C5.64659 7.07775 5.65993 7.05192 5.65743 7.01942C5.65443 6.99007 5.64771 6.96123 5.63743 6.93358C5.6346 6.92613 5.63319 6.91822 5.63326 6.91025C5.62601 6.60334 5.62712 6.29628 5.63659 5.98942C5.64159 5.88442 5.66826 5.75609 5.71659 5.60443C5.86242 5.1411 6.08159 4.7586 6.37492 4.45527C6.55409 4.27027 6.74909 4.12194 6.95825 4.00944C7.09325 3.93694 7.21992 3.8911 7.28825 3.79944C7.43241 3.60527 7.59908 3.42444 7.78825 3.25777C8.04824 3.02944 8.35491 2.88528 8.70741 2.82528C8.79407 2.81111 8.89824 2.81694 8.9949 2.80278ZM9.08324 3.06944L8.88324 3.03028C8.71439 3.02677 8.54675 3.05945 8.39158 3.12611C7.82991 3.37277 7.37075 3.89027 7.21325 4.47277C7.17575 4.61443 7.16908 4.72693 7.15075 4.89776C7.14958 4.90765 7.14639 4.9172 7.14137 4.9258C7.13635 4.9344 7.12962 4.94188 7.12158 4.94776C7.02742 5.01776 6.90492 5.10276 6.81909 5.19943C6.69979 5.33169 6.60016 5.48044 6.52325 5.64109C6.45657 5.78511 6.41891 5.94085 6.41242 6.09942C6.39498 6.17656 6.39243 6.25633 6.40492 6.33442L6.41825 6.53442L6.41757 6.53959L6.41495 6.5441L6.4108 6.54726L6.40575 6.54859C6.3666 6.5514 6.32891 6.56463 6.29659 6.58692C6.04242 6.75692 5.86993 7.02025 5.77076 7.30525C5.73576 7.40525 5.67243 7.57691 5.70576 7.66858C5.70846 7.67573 5.71342 7.68179 5.71989 7.68586C5.72636 7.68992 5.73398 7.69175 5.74159 7.69108C5.74684 7.69081 5.75196 7.68938 5.75659 7.68691C5.82147 7.65133 5.8769 7.60076 5.91826 7.53941C6.11576 7.27692 6.32576 7.04525 6.63492 6.90775C6.9157 6.78069 7.22894 6.74372 7.53158 6.80192C7.67656 6.82843 7.82054 6.86011 7.96324 6.89692L7.9667 6.89481L7.96904 6.89151L7.96988 6.88755L7.96908 6.88358C7.91068 6.75126 7.87302 6.61072 7.85741 6.46692C7.85402 6.42755 7.85402 6.38796 7.85741 6.34859L7.86991 6.24192C7.89683 6.64673 8.07892 7.02555 8.37824 7.29942C8.58991 7.49191 8.84241 7.58108 9.12657 7.61191C9.32407 7.63358 9.5099 7.63525 9.68573 7.61691C9.72042 7.60724 9.7567 7.60469 9.7924 7.60941C9.99247 7.59132 10.1866 7.53174 10.3623 7.43446C10.5381 7.33718 10.6917 7.20434 10.8132 7.04442V7.03942C10.8124 7.03736 10.8109 7.03562 10.8091 7.03442L10.8041 7.03275L10.4424 6.99275C10.3416 6.94931 10.239 6.91011 10.1349 6.87525C10.0199 6.83692 9.90906 6.83358 9.79323 6.81858C9.41573 6.77025 9.10074 6.50942 9.03157 6.11776C9.00824 5.85276 9.05324 5.59859 9.2349 5.39693C9.28907 5.33693 9.35407 5.27359 9.42907 5.20776C9.44091 5.19858 9.44965 5.18599 9.45412 5.17169C9.45859 5.15738 9.45857 5.14205 9.45407 5.12776C9.45209 5.12071 9.45181 5.11328 9.45323 5.1061L9.50907 4.8461L9.65407 4.57527C9.65496 4.5734 9.65535 4.57133 9.65518 4.56926C9.65501 4.5672 9.6543 4.56522 9.65311 4.56352C9.65192 4.56182 9.6503 4.56047 9.64842 4.55961C9.64654 4.55874 9.64446 4.5584 9.6424 4.5586C9.49077 4.58304 9.3465 4.64098 9.22008 4.72819C9.09366 4.8154 8.98827 4.9297 8.91157 5.06276C8.75657 5.32026 8.69157 5.63776 8.78491 5.92109L8.78488 5.9235L8.78324 5.92526H8.78074L8.77907 5.92359C8.59407 5.57526 8.57324 5.16443 8.80407 4.83276C9.0149 4.53277 9.4499 4.23944 9.84323 4.27444C9.84698 4.27464 9.85072 4.27399 9.85418 4.27255C9.85764 4.2711 9.86074 4.2689 9.86323 4.2661L10.0324 4.08777C10.1428 3.97504 10.2668 3.87651 10.4016 3.79444C10.4949 3.73777 10.6174 3.68777 10.7174 3.63277C10.7193 3.63164 10.721 3.63004 10.7221 3.62811C10.7233 3.62618 10.7239 3.624 10.724 3.62175C10.7241 3.61951 10.7236 3.61728 10.7226 3.61527C10.7216 3.61326 10.7201 3.61155 10.7182 3.61027C10.6509 3.56385 10.5754 3.5305 10.4957 3.51194C10.2804 3.45978 10.0574 3.4468 9.8374 3.47361C9.4624 3.51861 9.05157 3.72694 8.75241 3.97027L8.74724 3.97272L8.74157 3.97194L8.73714 3.96865L8.73491 3.9636C8.73491 3.95527 8.73574 3.9486 8.73907 3.9436C8.87241 3.75111 9.02407 3.59444 9.19407 3.47527C9.61657 3.17778 10.1882 3.14194 10.6674 3.30527C10.7741 3.35611 10.8757 3.41611 10.9732 3.48444C10.9914 3.49845 11.012 3.50891 11.0341 3.51527C11.1172 3.52088 11.2003 3.50236 11.2732 3.46194C11.3151 3.43957 11.351 3.40758 11.3781 3.36861C11.4052 3.32964 11.4227 3.2848 11.4291 3.23778C11.4381 3.20262 11.4369 3.16563 11.4257 3.13111C11.4227 3.12383 11.4182 3.11729 11.4124 3.11194C11.3649 3.07028 11.3416 3.02361 11.3416 2.97194C11.3416 2.87194 11.4041 2.80528 11.5074 2.82444C11.5577 2.83627 11.6053 2.85778 11.6474 2.88778C11.7233 2.99239 11.7561 3.12216 11.7391 3.25028L11.7424 3.25361L11.7467 3.25569L11.7516 3.25528C11.9299 3.18194 12.0541 3.18944 12.2857 3.17944C12.2878 3.17932 12.29 3.17962 12.292 3.18034C12.294 3.18105 12.2958 3.18217 12.2974 3.18361C12.3001 3.18656 12.3016 3.19043 12.3015 3.19444V3.36944C12.3016 3.37173 12.3007 3.37395 12.2992 3.37564C12.2976 3.37734 12.2955 3.3784 12.2932 3.37861C12.0932 3.40027 11.9616 3.42277 11.8974 3.44527C11.4324 3.61277 11.1224 3.9311 10.9699 4.3986C10.8824 4.71527 10.8991 5.02526 11.0199 5.32609C11.1249 5.57693 11.2866 5.78442 11.5016 5.94692C11.8699 6.22359 12.3474 6.28359 12.7949 6.18942C12.8874 6.17026 12.969 6.13109 13.0449 6.09776L13.046 6.0967L13.0465 6.09526L13.0474 6.09276L13.0465 6.09026L13.0432 6.08942C12.7768 6.09923 12.517 6.00545 12.3182 5.82776C12.2532 5.76807 12.1937 5.70251 12.1407 5.63193C12.2691 5.73491 12.4315 5.78604 12.5957 5.77526C12.784 5.76693 12.9857 5.69026 13.0957 5.52776C13.0973 5.52533 13.0984 5.52258 13.0988 5.5197C13.0992 5.51682 13.099 5.51389 13.0982 5.51109C13.0974 5.50833 13.0959 5.50578 13.094 5.50359C13.0922 5.50149 13.0899 5.49979 13.0874 5.49859C12.6732 5.29109 12.5057 4.8936 12.5424 4.44193C12.5476 4.42503 12.5567 4.40961 12.569 4.39693C12.5707 4.39556 12.5726 4.39465 12.5747 4.3943C12.5768 4.39395 12.5789 4.39417 12.5809 4.39494C12.5828 4.39571 12.5846 4.397 12.5859 4.39867C12.5872 4.40034 12.588 4.40234 12.5882 4.40443L12.5907 4.4361C12.5955 4.49115 12.6105 4.54484 12.6349 4.59443C12.7574 4.85776 12.944 5.04943 13.1932 5.1661C13.5849 5.35026 14.1282 5.32276 14.4857 5.0711C14.582 5.00528 14.6568 4.91252 14.7007 4.80443C14.7248 4.74926 14.7342 4.68876 14.728 4.62886C14.7217 4.56897 14.6999 4.51173 14.6649 4.46277C14.5632 4.33527 14.4399 4.3011 14.2982 4.36027C14.2007 4.40027 14.1424 4.4711 14.0515 4.49693C13.5932 4.62943 13.1157 4.15194 13.2957 3.69694C13.324 3.64071 13.3647 3.59158 13.4146 3.55321C13.4645 3.51483 13.5224 3.48819 13.584 3.47527L13.6674 3.47861C13.618 3.53977 13.577 3.60732 13.5457 3.67944C13.4599 3.8711 13.5074 4.08944 13.6907 4.1961C13.7907 4.24444 13.8865 4.2461 13.9757 4.19944C14.0549 4.15777 14.0965 4.08194 14.1532 4.0161C14.1814 3.98243 14.2161 3.95476 14.2551 3.93472C14.2942 3.91468 14.3369 3.90268 14.3807 3.89944C14.7857 3.8611 15.1174 4.1886 15.2657 4.5411C15.3165 4.7086 15.3407 4.87276 15.3357 5.0336L15.3049 5.26526L15.2849 5.35359C15.2182 5.45193 15.1699 5.56526 15.1374 5.69193C15.079 5.92526 15.1749 6.09359 15.3415 6.24359L15.3457 6.24505L15.3499 6.24359L15.3521 6.24062L15.3524 6.23692C15.315 6.0928 15.3179 5.94119 15.3607 5.79859L15.4524 5.59693C15.5749 5.43193 15.7315 5.32443 15.9215 5.27443C16.0338 5.24666 16.1492 5.23349 16.2649 5.23526L16.2682 5.23276L16.2707 5.2286V5.22443C16.2299 5.00776 16.2457 4.82193 16.3157 4.66693C16.5357 4.18527 17.0357 4.1186 17.4898 4.27527C17.7082 4.3511 17.8848 4.4811 18.0723 4.59443L18.0773 4.59592L18.0823 4.59443L18.0857 4.59027C18.081 4.54287 18.0674 4.49679 18.0457 4.45443C17.9602 4.2448 17.8332 4.05459 17.6724 3.89522C17.5116 3.73584 17.3202 3.61058 17.1099 3.52694C16.9597 3.47675 16.8031 3.44813 16.6449 3.44194C16.6674 3.40102 16.7008 3.3671 16.7414 3.34388C16.782 3.32066 16.8281 3.30904 16.8749 3.31027L16.8799 3.30861L16.8824 3.30361L16.8809 3.29845L16.8765 3.29527C16.8229 3.27998 16.7701 3.26218 16.7182 3.24194C16.4364 3.13124 16.1268 3.11315 15.834 3.19028C15.8298 3.1913 15.8258 3.19334 15.8225 3.19621C15.8191 3.19909 15.8166 3.20272 15.8149 3.2068C15.8133 3.21088 15.8127 3.21529 15.8131 3.21967C15.8135 3.22404 15.815 3.22825 15.8174 3.23194L15.8899 3.35861C15.8938 3.36543 15.8998 3.37081 15.907 3.37396C15.9142 3.37711 15.9222 3.37786 15.9299 3.37611C15.9774 3.36611 16.0424 3.35944 16.1257 3.35527C16.2476 3.34801 16.3686 3.37952 16.4715 3.44527C16.2481 3.46386 16.0318 3.53255 15.8386 3.64623C15.6455 3.75992 15.4804 3.91568 15.3557 4.10194C15.3489 4.09148 15.3433 4.0803 15.339 4.0686C15.3265 4.04027 15.3049 4.02694 15.294 4.00194C15.2757 3.9586 15.3182 3.87194 15.3424 3.83527C15.4315 3.70194 15.5465 3.58777 15.6857 3.49361C15.6894 3.49135 15.6921 3.4878 15.6934 3.48364C15.6946 3.47948 15.6942 3.47502 15.6924 3.47111C15.6573 3.39251 15.6062 3.32211 15.5424 3.26444C15.3903 3.08887 15.1892 2.9629 14.9649 2.90278C14.5382 2.78361 14.0982 2.84694 13.7507 3.11611C13.6751 3.17608 13.6006 3.23748 13.5274 3.30027C13.489 3.33361 13.4499 3.34444 13.4107 3.33361C13.2687 3.28979 13.1162 3.29478 12.9774 3.34777C12.7215 3.44777 12.524 3.65694 12.4832 3.93944C12.4799 3.96444 12.4815 3.99777 12.4782 4.0261C12.4776 4.0305 12.4757 4.03461 12.4728 4.03789C12.4698 4.04117 12.4659 4.04345 12.4615 4.04444C12.3596 4.07292 12.2622 4.11585 12.1724 4.17194C11.9157 4.31693 11.8041 4.53943 11.8366 4.8386C11.8449 4.90776 11.8666 4.97943 11.9024 5.05443L11.8591 5.23443C11.8057 5.16526 11.7449 5.0936 11.7091 5.02193C11.6562 4.91744 11.6263 4.80288 11.6213 4.68591C11.6163 4.56894 11.6362 4.45224 11.6799 4.3436C11.7466 4.16527 11.9166 3.97694 12.1249 4.0186C12.1453 4.02165 12.1648 4.02922 12.182 4.04075C12.1991 4.05228 12.2135 4.06749 12.2241 4.08527C12.2262 4.08873 12.2293 4.09151 12.233 4.09328C12.2367 4.09505 12.2408 4.09574 12.2449 4.09527C12.2489 4.09456 12.2526 4.09267 12.2556 4.08986C12.2586 4.08704 12.2606 4.08342 12.2615 4.07944C12.2699 4.04944 12.2782 4.0111 12.2832 3.96444C12.3449 3.49944 12.7282 3.07944 13.2299 3.06694C13.2624 3.06694 13.294 3.05694 13.3215 3.03861L13.5582 2.88694L13.561 2.88404L13.5624 2.88028V2.87611C13.2794 2.57034 12.9109 2.3569 12.5049 2.26361C12.0957 2.17869 11.6707 2.21223 11.2799 2.36028C11.2585 2.368 11.2352 2.36887 11.2132 2.36278C10.9558 2.28944 10.6858 2.27188 10.4211 2.31125C10.1564 2.35063 9.90312 2.44604 9.67823 2.59111C9.6086 2.63248 9.54179 2.67841 9.47823 2.72861C9.3474 2.84361 9.2149 2.95611 9.08324 3.06944ZM9.8874 4.89943C9.77143 4.93068 9.66195 4.98232 9.56407 5.05193C9.52786 5.07682 9.49627 5.10784 9.47073 5.1436C9.46633 5.14978 9.46348 5.15692 9.4624 5.16443C9.41157 5.48859 9.42907 5.85192 9.6374 6.12442C10.0166 6.62442 10.6807 6.72025 11.2507 6.52025C11.3516 6.48525 11.4557 6.41692 11.5474 6.37525L11.5516 6.37192C11.5525 6.37012 11.5528 6.36807 11.5524 6.36609L11.5504 6.36085L11.5457 6.35775C11.2433 6.25896 10.9812 6.06445 10.7991 5.80359C10.7016 5.6756 10.6308 5.5294 10.5907 5.37359C10.5124 5.00693 10.5574 4.6411 10.7274 4.2761C10.7974 4.13777 10.8807 4.00694 10.9791 3.88444C10.9899 3.87145 10.9992 3.85718 11.0066 3.84194V3.83694L11.0054 3.83197L11.0016 3.8286C10.8502 3.84637 10.7039 3.89365 10.5707 3.96777C10.2207 4.1661 9.9399 4.49943 9.8874 4.89943ZM5.88742 6.60275C5.96076 6.50275 6.04076 6.41609 6.12492 6.34442C6.14654 6.32618 6.16003 6.3001 6.16242 6.27192L6.18742 5.98276C6.25659 5.60359 6.42742 5.28276 6.69825 5.02276C6.7748 4.95429 6.8593 4.89526 6.94992 4.84693C6.95426 4.84444 6.95782 4.84077 6.96018 4.83635C6.96254 4.83193 6.9636 4.82693 6.96325 4.82193C6.95685 4.61913 6.99113 4.4171 7.06408 4.22777C7.06499 4.22554 7.06524 4.2231 7.0648 4.22073C7.06436 4.21837 7.06324 4.21618 7.06158 4.21444C7.05984 4.21278 7.05765 4.21166 7.05529 4.21122C7.05292 4.21078 7.05048 4.21102 7.04825 4.21194C7.02643 4.22069 7.00526 4.23099 6.98492 4.24277C6.71318 4.39883 6.4786 4.61208 6.29742 4.86776C6.08266 5.17435 5.9324 5.52136 5.85576 5.88776C5.80345 6.14749 5.79332 6.41396 5.82576 6.67692L5.8273 6.67863L5.82951 6.67927L5.83172 6.67863L5.83326 6.67692L5.88742 6.60275ZM16.8399 5.81776C16.7265 5.87526 16.6049 5.90609 16.4749 5.90942C16.2199 5.91776 16.0182 5.83442 15.8915 5.61193C15.8904 5.61004 15.889 5.60841 15.8872 5.60715C15.8854 5.60589 15.8834 5.60503 15.8812 5.60463C15.8791 5.60424 15.8769 5.60431 15.8748 5.60485C15.8727 5.60539 15.8707 5.60638 15.869 5.60776L15.7982 5.66693C15.5299 5.87526 15.5582 6.16942 15.7649 6.41109C15.9049 6.57609 16.0815 6.68275 16.2932 6.73109C16.6665 6.81525 17.0432 6.74275 17.3282 6.48525C17.5223 6.31026 17.6365 6.09359 17.6698 5.83359C17.6782 5.77442 17.6865 5.70193 17.6932 5.61693C17.6944 5.60291 17.7002 5.58969 17.7097 5.5793C17.7192 5.56891 17.7318 5.56193 17.7457 5.55943C17.7766 5.55622 17.8078 5.55963 17.8373 5.56943C18.1998 5.66859 18.394 6.05276 18.479 6.38942C18.4815 6.40275 18.479 6.40942 18.4707 6.41025C18.3698 6.41442 18.2623 6.42442 18.149 6.43942C18.1463 6.43989 18.1438 6.44119 18.1419 6.44313C18.1399 6.44507 18.1386 6.44755 18.1382 6.45025L18.139 6.45859C18.1404 6.46079 18.1425 6.46253 18.1448 6.46359C18.264 6.52692 18.3732 6.69942 18.3598 6.83442C18.3465 6.97025 18.3315 7.10858 18.3157 7.25108C18.3032 7.36691 18.3073 7.45858 18.3082 7.60275C18.3082 7.61108 18.3098 7.61941 18.3132 7.62775C18.3465 7.72275 18.3815 7.79108 18.494 7.78608C18.5023 7.78608 18.509 7.78358 18.5165 7.78024C18.6548 7.72275 18.7182 7.58025 18.7548 7.44441C18.8215 7.20942 18.8123 6.98275 18.7257 6.76442C18.6984 6.70412 18.6672 6.64567 18.6323 6.58942C18.5988 6.53269 18.5687 6.47397 18.5423 6.41359C18.5792 6.20796 18.5736 5.99694 18.5257 5.79359C18.3923 5.23776 17.8623 4.60277 17.2298 4.81443C17.0843 4.86105 16.9589 4.95568 16.8741 5.08283C16.7894 5.20999 16.7502 5.36215 16.7632 5.51443C16.774 5.60693 16.8132 5.71693 16.8399 5.81776ZM14.6732 6.22609C14.5721 6.36303 14.4517 6.48457 14.3157 6.58692C14.0732 6.76775 13.8032 6.87775 13.5074 6.91525C13.3765 6.93192 13.2282 6.92358 13.1074 6.92692C13.0131 6.93283 12.9223 6.96454 12.8449 7.01858C12.7099 7.10525 12.5532 7.21025 12.4032 7.28192C12.114 7.42025 11.8116 7.49025 11.4949 7.49025C11.3824 7.49089 11.2698 7.48895 11.1574 7.48441C11.118 7.48148 11.0784 7.48788 11.0419 7.50308C11.0055 7.51828 10.9731 7.54186 10.9474 7.57191C10.8381 7.69581 10.7278 7.81887 10.6166 7.94108L10.3482 8.12024L10.0824 8.25358C9.89656 8.34857 9.74907 8.47774 9.64073 8.64191C9.54157 8.7919 9.49907 8.94357 9.42407 9.16357C9.35981 9.34703 9.253 9.51266 9.1124 9.6469L8.83157 9.8119C8.82886 9.81361 8.8268 9.81618 8.82574 9.81921C8.82468 9.82224 8.82468 9.82554 8.82574 9.82857C8.83574 9.85607 8.85241 9.89357 8.87407 9.9419C8.96574 10.1419 8.98657 10.3511 8.93824 10.5719C8.90639 10.6997 8.84438 10.818 8.75741 10.9169C8.65887 11.0115 8.53496 11.0755 8.40074 11.1011C8.02074 11.1586 7.74408 10.8886 7.58575 10.5769L7.58408 10.5752H7.58158L7.57991 10.5769L7.57908 10.5794L7.63491 10.8427C7.65825 10.9519 7.71408 11.0902 7.77658 11.2052C7.82158 11.2852 7.86325 11.3636 7.90158 11.4411C7.89075 11.5419 7.84908 11.6077 7.77658 11.6394C7.69325 11.6752 7.57825 11.6352 7.49491 11.5994C7.37182 11.5458 7.24959 11.4902 7.12825 11.4327C7.08948 11.4168 7.05434 11.3931 7.02498 11.3631C6.99562 11.3332 6.97263 11.2976 6.95742 11.2586C6.90908 11.1211 6.86825 10.9594 6.81325 10.8469C6.71468 10.6402 6.53864 10.4806 6.32326 10.4027C6.29105 10.3903 6.25693 10.3835 6.22242 10.3827C6.21576 10.3719 6.21409 10.3686 6.21909 10.3727L6.19409 9.96856C6.17409 9.7019 6.21409 9.43523 6.50242 9.33857C6.90242 9.29107 6.94242 9.76773 7.16075 9.94023C7.16258 9.94152 7.16476 9.94222 7.167 9.94222C7.16924 9.94222 7.17142 9.94152 7.17325 9.94023L7.17728 9.936L7.17825 9.93023C7.14158 9.67523 7.10325 9.44023 6.93158 9.24857C6.88448 9.19359 6.8243 9.15134 6.75658 9.12571C6.68887 9.10008 6.61579 9.09189 6.54409 9.1019C6.19742 9.14107 6.06076 9.42357 6.02576 9.7369C6.00826 9.89773 6.00576 10.0461 6.01826 10.1827C6.03742 10.4794 6.11826 10.8461 6.15409 11.0211C6.19326 11.2152 6.24576 11.4002 6.31076 11.5752C6.36909 11.7336 6.48742 11.9302 6.55992 12.0369C6.66825 12.1985 6.81075 12.3385 6.98492 12.4569C7.28992 12.6619 7.61825 12.7044 7.97324 12.5844C8.02158 12.9435 8.09574 13.301 8.19491 13.6594C8.21658 13.736 8.24241 13.8069 8.27241 13.8702C8.42741 14.3019 8.67074 14.6869 9.0024 15.0235C9.2149 15.2402 9.43157 15.4235 9.6524 15.5769C9.65823 15.5869 9.6799 15.6019 9.71657 15.6185C9.74281 15.648 9.77246 15.6743 9.8049 15.6969C10.2082 15.971 10.6416 16.2077 11.1049 16.4069L11.3041 16.4927C11.4682 16.5652 11.6041 16.6177 11.7082 16.6519C11.9541 16.7302 12.0932 16.7735 12.1266 16.7835C12.4515 16.8777 12.7849 16.9269 13.1265 16.9294C13.3865 16.9327 13.6249 16.8885 13.8507 16.776C14.0232 16.6885 14.204 16.5094 14.2715 16.3152C14.4065 15.9252 14.2199 15.5235 13.8799 15.3035C13.7168 15.1809 13.5268 15.0989 13.3257 15.0644C13.1907 15.0381 13.0528 15.0299 12.9157 15.0402C12.974 14.9485 13.0115 14.8919 13.0282 14.8702C13.139 14.7244 13.349 14.696 13.5149 14.7227C13.654 14.746 13.7724 14.7669 13.8699 14.7869C14.0557 14.8244 14.2007 14.7335 14.1632 14.526C14.1578 14.4792 14.1414 14.4343 14.1155 14.395C14.0896 14.3556 14.0549 14.3229 14.014 14.2994C13.8452 14.2075 13.6621 14.1447 13.4724 14.1135C13.3991 14.0974 13.3239 14.0917 13.249 14.0969C13.0657 14.1202 12.9199 14.1385 12.8124 14.1494C12.7212 14.1649 12.6373 14.2093 12.5732 14.276C12.5301 14.2673 12.4891 14.2503 12.4524 14.226C12.4265 14.2021 12.4083 14.1711 12.3999 14.1369C12.4415 13.9935 12.534 13.9169 12.6799 13.9077C12.6906 13.9073 12.7012 13.909 12.7112 13.9127C12.7212 13.9164 12.7304 13.9221 12.7382 13.9294C12.8732 14.056 13.0399 14.0052 13.2024 13.9494C13.3951 13.8778 13.6076 13.8808 13.7982 13.9577C13.8707 13.986 14.0465 14.0619 14.1482 14.051C14.2665 14.0377 14.3265 13.9677 14.3274 13.8419C14.3275 13.8328 14.3253 13.8239 14.3209 13.816C14.3165 13.8081 14.3101 13.8015 14.3024 13.7969C14.2618 13.7699 14.2218 13.7421 14.1824 13.7135C14.1715 13.7052 14.1622 13.6951 14.1549 13.6835C14.1153 13.6243 14.0778 13.5637 14.0424 13.5019C13.9715 13.3794 13.844 13.3419 13.7115 13.3102C13.6321 13.2884 13.5609 13.2438 13.5065 13.1819C13.5899 13.0185 13.7332 12.921 13.9357 12.891C14.0257 12.8767 14.118 12.8873 14.2024 12.9219C14.4265 13.0135 14.5857 13.0769 14.6815 13.111C14.9415 13.2027 15.2224 13.2069 15.3632 12.9335C15.4065 12.8619 15.4312 12.7805 15.4349 12.6969C15.4515 12.2735 15.4765 11.5744 15.5115 10.5994L15.544 9.7594C15.5524 9.5319 15.614 9.33024 15.8132 9.20274C15.9715 9.11107 16.174 9.1219 16.3507 9.1094C16.7074 9.0844 16.7549 8.74607 16.6907 8.46774C16.6374 8.17108 16.4232 7.91191 16.1624 7.76941C16.0221 7.69477 15.8736 7.63687 15.7199 7.59691C15.6183 7.56175 15.519 7.52057 15.4224 7.47358C15.316 7.41167 15.2167 7.33817 15.1265 7.25442V7.25108L15.1299 7.24942H15.1332L15.3015 7.32525C15.4157 7.37191 15.5349 7.38858 15.6582 7.37525C15.9157 7.34858 16.0624 7.10025 15.8982 6.87525C15.7899 6.72525 15.5949 6.60525 15.4565 6.50942C15.3308 6.42016 15.2174 6.31482 15.119 6.19609C15.0133 6.06873 14.9319 5.92296 14.879 5.76609L14.8769 5.76536L14.8749 5.76609L14.874 5.76776C14.8396 5.9328 14.7712 6.08888 14.6732 6.22609ZM17.9348 6.59692C17.9257 6.61359 17.9198 6.65025 17.909 6.66525C17.7565 6.86442 17.634 6.94692 17.4132 7.10858C17.3198 7.17694 17.2459 7.2686 17.199 7.37441C17.199 7.37649 17.1998 7.37849 17.2012 7.38003C17.2025 7.38157 17.2045 7.38254 17.2065 7.38275C17.294 7.38941 17.3832 7.38441 17.4748 7.36775C17.8923 7.29025 17.9832 6.96858 17.9473 6.60025L17.9457 6.59609L17.9422 6.59406L17.9382 6.59442L17.9348 6.59692ZM4.79743 8.57524C4.75743 8.82107 4.76243 9.0694 4.81243 9.3194C4.88743 9.7419 5.0716 10.1586 5.38493 10.4577C5.42493 10.4961 5.47326 10.5327 5.53076 10.5661C5.54243 10.5777 5.55409 10.5811 5.56576 10.5752C5.65493 10.5336 5.75159 10.4711 5.85743 10.3894C5.86059 10.3869 5.86315 10.3838 5.86488 10.3802C5.86662 10.3765 5.86749 10.3726 5.86743 10.3686V10.2936C5.86725 10.2787 5.8615 10.2645 5.85131 10.2537C5.84112 10.2429 5.82724 10.2363 5.81243 10.2352C5.67473 10.2247 5.54331 10.1733 5.43493 10.0877C5.29386 9.97685 5.1903 9.82528 5.13826 9.65357C5.11982 9.59684 5.10037 9.54044 5.07993 9.4844L5.0941 9.36357L5.09593 9.35915L5.10035 9.35732L5.10477 9.35915L5.1066 9.36357C5.1366 9.55523 5.2541 9.80273 5.43576 9.8919C5.47626 9.91314 5.52195 9.92246 5.56753 9.91878C5.61311 9.91509 5.65671 9.89854 5.69326 9.87106C5.76529 9.78766 5.81491 9.68728 5.83743 9.5794C5.84008 9.56677 5.83897 9.55364 5.83423 9.54164C5.82949 9.52964 5.82133 9.5193 5.81076 9.5119C5.51493 9.3119 5.48993 9.0119 5.74576 8.77857C6.04409 8.50774 6.46909 8.48524 6.80659 8.67441C6.83492 8.69024 6.87909 8.71857 6.93742 8.76107C6.97908 8.79107 7.02242 8.82107 7.06658 8.85024C7.12908 8.9119 7.20825 8.9819 7.30408 9.05857C7.47075 9.1944 7.64408 9.25857 7.86241 9.2669C8.20491 9.28107 8.48574 9.16107 8.70407 8.9069C8.80991 8.7844 8.85991 8.66191 8.9474 8.48024C8.99489 8.37561 9.06532 8.28301 9.15345 8.2093C9.24159 8.13558 9.34519 8.08265 9.45657 8.05441L9.45726 8.05197L9.45686 8.04946L9.45542 8.04737L9.45323 8.04608L9.18824 7.98858C9.09034 7.96586 8.99037 7.95329 8.88991 7.95108C8.7382 7.93318 8.58448 7.9565 8.44491 8.01858C8.28158 8.09358 8.14741 8.25191 7.98241 8.29691C7.75991 8.35774 7.58991 8.29274 7.47325 8.10274C7.45336 8.06177 7.44364 8.0166 7.44491 7.97108L7.45241 7.96524C7.62991 8.19524 7.87741 8.06608 7.91741 7.81691C7.93903 7.67908 7.90745 7.53818 7.82908 7.42275C7.65158 7.15942 7.39741 7.03692 7.06575 7.05525C6.73492 7.07358 6.42159 7.26191 6.21409 7.51191C6.05409 7.70525 5.87909 7.96774 5.62326 7.89358C5.43493 7.83858 5.42743 7.66191 5.46493 7.49608L5.46428 7.49151L5.4613 7.48798L5.4569 7.48659L5.45243 7.48775C5.37743 7.53441 5.31493 7.58358 5.26576 7.63441C5.01663 7.89241 4.8531 8.22094 4.79743 8.57524ZM7.48158 9.93106C7.51136 10.0331 7.5606 10.1285 7.62658 10.2119C7.67158 10.2686 7.72241 10.3219 7.77741 10.3727C7.84408 10.5036 7.92575 10.5927 8.02158 10.6402C8.23824 10.7486 8.48324 10.6602 8.56991 10.4311C8.63491 10.2336 8.60907 10.0611 8.49324 9.9144C8.44959 9.85824 8.39491 9.8116 8.33257 9.77735C8.27024 9.7431 8.20155 9.72196 8.13074 9.71523C7.98423 9.70692 7.83726 9.71167 7.69158 9.7294L7.39991 9.5544L7.39533 9.55303L7.39075 9.5544L7.38712 9.55828L7.38658 9.56357C7.39991 9.6969 7.43158 9.82023 7.48158 9.93106ZM5.60076 11.0494C5.57612 11.0845 5.55385 11.1213 5.53409 11.1594C5.47243 11.2911 5.44326 11.4286 5.44909 11.5719C5.45743 11.7886 5.61243 12.1319 5.88909 12.0719C5.93477 12.0628 5.97756 12.0428 6.01372 12.0135C6.04988 11.9841 6.07833 11.9464 6.09659 11.9036C6.11906 11.8657 6.13113 11.8226 6.13159 11.7786C6.12207 11.6643 6.09596 11.552 6.05409 11.4452C5.98082 11.2429 5.93595 11.0315 5.92076 10.8169C5.92013 10.8111 5.91781 10.8056 5.91409 10.8011C5.91199 10.7985 5.90904 10.7967 5.90576 10.7961C5.90243 10.7952 5.89909 10.7961 5.89576 10.7977C5.78619 10.8675 5.6869 10.9522 5.60076 11.0494ZM5.69159 13.091C5.76533 13.2333 5.85999 13.3636 5.97242 13.4777L5.97659 13.4785L5.98112 13.4778L5.98492 13.4752L6.05159 13.3952C6.21289 13.3182 6.39178 13.2854 6.56992 13.3002C6.59492 13.3027 6.61992 13.3044 6.64575 13.3035L6.77075 13.3719C6.84075 13.4194 6.91242 13.4677 6.98492 13.5185C7.06671 13.5836 7.14256 13.6559 7.21158 13.7344H7.21408L7.21575 13.7327V13.7302C7.2072 13.5517 7.16977 13.3759 7.10492 13.2094C7.05576 13.0932 6.9835 12.9883 6.89254 12.9009C6.80157 12.8135 6.6938 12.7455 6.57575 12.701C6.49984 12.6214 6.42345 12.5423 6.34659 12.4635C6.3034 12.4166 6.24965 12.3807 6.18981 12.3586C6.12996 12.3366 6.06573 12.3292 6.00242 12.3369C5.85672 12.3693 5.70424 12.3486 5.57243 12.2785L5.5687 12.2794L5.56576 12.2819C5.5314 12.5581 5.57499 12.8383 5.69159 13.091ZM7.47241 14.676C7.47741 14.6969 7.47741 14.7069 7.47741 14.7069C7.49658 14.9627 7.52575 15.2085 7.56575 15.446C7.60325 15.8152 7.64241 16.121 7.68241 16.3627L8.03158 18.476C8.10824 18.936 8.13658 19.2027 8.18574 19.6902C8.20408 19.8685 8.26491 20.0293 8.36741 20.1718C8.53657 20.4077 8.73241 20.6135 8.95491 20.7918C9.3374 21.0977 9.76323 21.3302 10.2332 21.4902C10.6032 21.6302 10.9882 21.7235 11.3874 21.7727C11.7841 21.8177 12.1899 21.8168 12.6049 21.7693C12.934 21.7377 13.2665 21.6693 13.6015 21.5652C13.7007 21.5335 13.8549 21.4785 14.0632 21.3985C14.096 21.3841 14.1278 21.3674 14.1582 21.3485C14.1951 21.3399 14.2309 21.327 14.2649 21.3102C14.524 21.1852 14.7757 21.0535 15.019 20.916C15.0991 20.8699 15.176 20.8184 15.249 20.7618V20.756C15.2481 20.7542 15.2466 20.7528 15.2449 20.7518C15.2432 20.7506 15.2411 20.75 15.239 20.7502C14.6424 20.8043 14.0957 20.6943 13.5432 20.431C13.0649 20.2035 12.6365 19.8327 12.2499 19.4227C11.8768 19.0306 11.5185 18.6248 11.1757 18.206L9.27074 15.9052C9.04293 15.6352 8.83331 15.3504 8.64324 15.0527C8.42452 14.7079 8.2622 14.3303 8.16241 13.9344L8.03991 13.426C8.03912 13.4225 8.03708 13.4194 8.03417 13.4173C8.03126 13.4151 8.02768 13.4141 8.02408 13.4144C7.64908 13.446 7.45741 13.886 7.45075 14.2127C7.44437 14.3675 7.45162 14.5225 7.47241 14.676ZM6.24742 13.6644C6.19965 13.7305 6.17209 13.8091 6.1681 13.8906C6.1641 13.9721 6.18384 14.053 6.22492 14.1235C6.26891 14.2094 6.33546 14.2817 6.41742 14.3327C6.42824 14.3395 6.4404 14.3438 6.45307 14.3454C6.46574 14.347 6.4786 14.3458 6.49075 14.3419C6.74242 14.2627 6.97408 14.2185 7.22992 14.3135H7.23325L7.23658 14.3119L7.23806 14.3087L7.23742 14.3052C7.17356 14.1615 7.08875 14.0281 6.98575 13.9094C6.89031 13.7838 6.7671 13.6819 6.62575 13.6119C6.57182 13.5819 6.51222 13.5634 6.45075 13.5577C6.36909 13.5552 6.30076 13.591 6.24742 13.6644ZM7.04742 15.5435C7.11092 15.5771 7.17968 15.5997 7.25075 15.6102L7.36741 15.6235C7.37271 15.6238 7.37796 15.6225 7.38255 15.6198C7.38713 15.6172 7.39085 15.6132 7.39325 15.6085C7.41343 15.3849 7.39367 15.1594 7.33492 14.9427C7.33389 14.9394 7.33185 14.9365 7.32908 14.9344C7.32623 14.9321 7.3227 14.931 7.31908 14.931C7.16992 14.9377 7.02242 14.9585 6.87492 14.9927C6.86742 14.9844 6.85575 14.9794 6.83909 14.9777C6.69967 14.8907 6.5885 14.765 6.51909 14.616L6.51458 14.6151L6.51012 14.6162L6.50666 14.6193L6.50492 14.6235C6.44742 15.0019 6.73659 15.3669 7.04742 15.5435Z" fill="#323544"/>
<path d="M8.01408 5.0811C7.93375 5.37233 7.92916 5.67925 8.00074 5.97276L7.92491 5.95359C7.66658 5.77442 7.34492 5.83776 7.11992 6.02859C7.11794 6.03045 7.11555 6.03181 7.11293 6.03253C7.11032 6.03326 7.10757 6.03334 7.10492 6.03276C7.02469 6.01402 6.94208 6.00756 6.85992 6.01359C6.98492 5.82192 7.15325 5.69443 7.36325 5.63276C7.43241 5.61276 7.51908 5.59609 7.62158 5.58443C7.62497 5.58388 7.62815 5.58243 7.63079 5.58023C7.63343 5.57803 7.63543 5.57516 7.63658 5.57193C7.71241 5.37193 7.83825 5.20943 8.01408 5.0811ZM13.8982 8.67441C14.244 8.82524 14.4774 9.0969 14.5015 9.48273C14.5019 9.49039 14.4992 9.49788 14.494 9.50357L14.479 9.52107C14.2782 9.7144 14.0932 9.90606 13.8665 10.0711C13.6749 10.2086 13.3999 10.3336 13.159 10.3186C13.1211 10.3174 13.0838 10.3085 13.0494 10.2925C13.015 10.2765 12.9843 10.2536 12.959 10.2252C12.9287 10.1255 12.9179 10.0208 12.9274 9.9169C12.9283 9.90752 12.9255 9.89814 12.9196 9.89081C12.9137 9.88348 12.9051 9.87878 12.8957 9.87773C12.8527 9.87248 12.811 9.85979 12.7724 9.84023C12.8224 9.72857 12.8507 9.63107 12.8574 9.5469C12.8815 9.2744 12.659 9.13024 12.4157 9.09857C12.2191 9.07304 12.0193 9.09417 11.8324 9.16024C11.7491 9.18524 11.6716 9.22107 11.5999 9.26524C11.549 9.29739 11.503 9.33668 11.4632 9.3819C11.4227 9.42697 11.3827 9.47253 11.3432 9.51857C11.3411 9.52145 11.3399 9.52496 11.3399 9.52857C11.3399 9.53273 11.3416 9.5369 11.3441 9.5394C11.3566 9.55273 11.3624 9.56523 11.3616 9.57773L11.2132 9.6394L11.0699 9.61357C10.8626 9.56205 10.6526 9.52254 10.4407 9.49523C10.3095 9.47187 10.18 9.43957 10.0532 9.39857C10.2324 9.4069 10.3899 9.39857 10.5241 9.37107C10.6674 9.3416 10.8076 9.29806 10.9424 9.24107C11.4124 9.0444 11.7682 8.88274 12.2241 8.82774C12.2311 8.82686 12.2377 8.82383 12.2429 8.81905C12.2481 8.81427 12.2517 8.80799 12.2532 8.80107C12.2924 8.62524 12.4115 8.56357 12.584 8.52857C12.699 8.50441 12.8449 8.49941 13.0224 8.51191C13.3374 8.53524 13.6182 8.56691 13.8974 8.67524L13.8982 8.67441Z" fill="#323544"/>
</svg>
