<svg width="24" height="24" viewBox="0 0 24 24" fill="none" xmlns="http://www.w3.org/2000/svg">
<path d="M9.64624 6.34328H6.78341C6.21194 6.34328 5.66385 6.57024 5.25968 6.97426C4.85551 7.37829 4.62834 7.92629 4.62813 8.49776V17.5507C4.62813 18.1224 4.8552 18.6706 5.2594 19.0748C5.66359 19.479 6.2118 19.706 6.78341 19.706H15.8372C16.4088 19.706 16.957 19.479 17.3612 19.0748C17.7654 18.6706 17.9925 18.1224 17.9925 17.5507V13.7613L19.2857 12.8745V17.5515C19.2854 18.4661 18.9221 19.3431 18.2754 19.9897C17.6287 20.6364 16.7517 20.9998 15.8372 21H6.78341C5.86889 20.9998 4.99189 20.6364 4.34522 19.9897C3.69856 19.3431 3.33517 18.4661 3.33496 17.5515V8.49856C3.33486 8.04564 3.42398 7.59713 3.59723 7.17865C3.77048 6.76017 4.02448 6.37992 4.34471 6.05962C4.66494 5.73932 5.04513 5.48524 5.46356 5.31189C5.882 5.13854 6.33049 5.04931 6.78341 5.04931H10.4048L9.64624 6.34328Z" fill="#323544"/>
<path d="M15.94 3C16.0555 3 16.1535 3.08286 16.1782 3.19601C16.4045 4.24799 16.9303 5.21206 17.6921 5.97198C18.4521 6.73425 19.4165 7.2603 20.4689 7.48665C20.582 7.51135 20.6649 7.60936 20.6649 7.72569C20.6642 7.78169 20.6444 7.83578 20.6087 7.87897C20.5731 7.92216 20.5237 7.95186 20.4689 7.96313C19.4168 8.18963 18.4527 8.71567 17.6929 9.4778C16.9207 10.2476 16.391 11.2268 16.1695 12.2944C16.1587 12.3475 16.13 12.3953 16.0883 12.4298C16.0465 12.4643 15.9942 12.4835 15.94 12.484C15.8858 12.4835 15.8335 12.4643 15.7917 12.4298C15.7499 12.3953 15.7213 12.3475 15.7105 12.2944C15.4889 11.2268 14.9593 10.2476 14.1871 9.4778C13.4173 8.70559 12.4381 8.17595 11.3705 7.95436C11.3174 7.9436 11.2696 7.91495 11.235 7.87318C11.2005 7.83141 11.1814 7.77907 11.1808 7.72489C11.1808 7.61334 11.2605 7.51773 11.3705 7.49542C12.4381 7.27384 13.4173 6.74419 14.1871 5.97198C14.9492 5.21214 15.4752 4.24807 15.7017 3.19601C15.713 3.14101 15.7429 3.09156 15.7862 3.05589C15.8296 3.02022 15.8838 3.00049 15.94 3Z" fill="#323544"/>
</svg>
