<svg width="24" height="24" viewBox="0 0 24 24" fill="none" xmlns="http://www.w3.org/2000/svg">
<path d="M3.67102 5.58417L2.52686 8.38583C3.01785 8.57891 3.46379 8.8711 3.83686 9.24416C4.20992 9.61723 4.50211 10.0632 4.69519 10.5542C5.50852 12.5725 4.54519 14.8617 2.55686 15.675L3.70186 18.475C5.44852 17.7525 6.80436 16.3967 7.49686 14.65C7.84147 13.8036 8.01589 12.8975 8.01015 11.9836C8.0044 11.0698 7.8186 10.166 7.46337 9.32396C7.10814 8.48193 6.59044 7.71816 5.93987 7.07632C5.2893 6.43448 4.51861 5.92715 3.67186 5.58333L3.67102 5.58417ZM6.62352 19.56L8.43019 22C9.30435 21.3675 10.0869 20.5842 10.7494 19.7417L8.40019 17.8733C7.88377 18.5104 7.28652 19.0774 6.62352 19.56ZM13.491 12.03C13.491 8.11417 11.5935 4.41 8.43019 2.09L6.62352 4.53C9.03269 6.27667 10.4485 9.07833 10.4785 12.06C10.4789 13.9952 10.9344 15.9031 11.8082 17.6298C12.6819 19.3565 13.9495 20.8535 15.5085 22L17.286 19.56C14.906 17.7833 13.491 15.0117 13.491 12.03ZM17.3769 4.47L15.6285 2C14.699 2.66353 13.8675 3.45463 13.1585 4.35L15.5085 6.21667C16.0481 5.55199 16.6762 4.96431 17.3752 4.47H17.3769ZM19.4244 13.7167C18.491 11.6992 19.3944 9.28917 21.4127 8.35583L20.1477 5.61417C18.5889 6.33374 17.3465 7.59756 16.6535 9.16833C15.0569 12.7225 16.6535 16.91 20.2377 18.4767L21.4727 15.735C20.5661 15.3353 19.8374 14.6173 19.4244 13.7167Z" fill="#323544"/>
</svg>
