<svg width="24" height="24" viewBox="0 0 24 24" fill="none" xmlns="http://www.w3.org/2000/svg">
<path d="M18.6883 5.69531C20.5349 5.69531 21.9999 7.22447 21.9999 9.07112V14.9952C22.003 15.431 21.9195 15.8631 21.7542 16.2663C21.5889 16.6696 21.3451 17.0359 21.0369 17.3441C20.7288 17.6523 20.3625 17.8962 19.9593 18.0616C19.5561 18.2271 19.1241 18.3107 18.6883 18.3077H14.2933L15.3758 16.7786L18.5608 15.7602C19.1341 15.5686 19.5158 14.9952 19.5158 14.4227V9.58111C19.5158 9.00862 19.1341 8.43529 18.5608 8.24362L15.375 7.22447L14.2916 5.69531H18.6883ZM4.4834 14.4211C4.4834 14.9944 4.86673 15.5677 5.43922 15.7594L8.6242 16.7144L9.70752 18.2435H5.31172C4.87593 18.2465 4.44388 18.1629 4.04069 17.9975C3.6375 17.8321 3.2712 17.5882 2.96307 17.28C2.65495 16.9718 2.41115 16.6054 2.24583 16.2022C2.08052 15.7989 1.99698 15.3669 2.00008 14.9311V9.07028C2.00008 7.22363 3.46507 5.69531 5.31256 5.69531H9.70669L8.62503 7.22363L5.43922 8.24279C4.86589 8.43446 4.48423 9.00779 4.48423 9.58111L4.4834 14.4211Z" fill="#323544"/>
<path d="M15.3758 11.1728H8.68753V12.7019H15.3758V11.1728Z" fill="#323544"/>
</svg>
