<svg width="24" height="24" viewBox="0 0 24 24" fill="none" xmlns="http://www.w3.org/2000/svg">
<path d="M19.3199 18.4639C11.0651 22.3925 5.94201 19.1056 2.66258 17.1091C2.45965 16.9833 2.11474 17.1385 2.414 17.4823C3.50654 18.807 7.08703 22 11.7606 22C16.4374 22 19.2197 19.4481 19.5677 19.003C19.9134 18.5616 19.6692 18.3181 19.3198 18.4639H19.3199ZM21.6383 17.1836C21.4166 16.8949 20.2903 16.8411 19.5815 16.9282C18.8716 17.0127 17.8061 17.4466 17.8987 17.7071C17.9462 17.8047 18.0433 17.7609 18.531 17.7171C19.02 17.6683 20.3899 17.4954 20.6753 17.8685C20.9621 18.2443 20.2384 20.0342 20.1062 20.3228C19.9785 20.6115 20.155 20.6859 20.3949 20.4937C20.6315 20.3015 21.0598 19.8038 21.3472 19.0994C21.6326 18.3913 21.8068 17.4034 21.6383 17.1836Z" fill="#323544"/>
<path fill-rule="evenodd" clip-rule="evenodd" d="M13.7694 10.4476C13.7694 11.4784 13.7955 12.338 13.2745 13.2535C12.8539 13.9978 12.1878 14.4555 11.4436 14.4555C10.4276 14.4555 9.83588 13.6814 9.83588 12.539C9.83588 10.2838 11.8566 9.87449 13.7694 9.87449V10.4476ZM16.4376 16.8968C16.2627 17.053 16.0097 17.0643 15.8125 16.96C14.9342 16.2307 14.7779 15.892 14.2941 15.1961C12.8428 16.6772 11.8157 17.12 9.93268 17.12C7.70728 17.12 5.97308 15.7468 5.97308 12.9967C5.97308 10.8495 7.13794 9.38697 8.79386 8.67252C10.2304 8.03981 12.2362 7.92819 13.7694 7.75334V7.41094C13.7694 6.78199 13.8178 6.03773 13.4494 5.49444C13.1256 5.00692 12.5079 4.80595 11.9645 4.80595C10.956 4.80595 10.0554 5.3232 9.83588 6.39496C9.79117 6.63318 9.61632 6.86765 9.37817 6.87879L6.81037 6.60346C6.59457 6.55498 6.35642 6.38013 6.41596 6.04887C7.00765 2.93785 9.81721 2 12.3329 2C13.6205 2 15.3025 2.3424 16.3185 3.31744C17.6061 4.5194 17.4833 6.12331 17.4833 7.86865V11.992C17.4833 13.2312 17.9968 13.7745 18.4806 14.4444C18.6518 14.6825 18.689 14.9692 18.4731 15.1477C17.9335 15.5979 16.9734 16.4353 16.445 16.9042L16.4376 16.8968" fill="#323544"/>
<path d="M19.3199 18.4639C11.0651 22.3925 5.94201 19.1056 2.66258 17.1091C2.45965 16.9833 2.11474 17.1385 2.414 17.4823C3.50654 18.807 7.08703 22 11.7606 22C16.4374 22 19.2197 19.4481 19.5677 19.003C19.9134 18.5616 19.6692 18.3181 19.3198 18.4639H19.3199ZM21.6383 17.1836C21.4166 16.8949 20.2903 16.8411 19.5815 16.9282C18.8716 17.0127 17.8061 17.4466 17.8987 17.7071C17.9462 17.8047 18.0433 17.7609 18.531 17.7171C19.02 17.6683 20.3899 17.4954 20.6753 17.8685C20.9621 18.2443 20.2384 20.0342 20.1062 20.3228C19.9785 20.6115 20.155 20.6859 20.3949 20.4937C20.6315 20.3015 21.0598 19.8038 21.3472 19.0994C21.6326 18.3913 21.8068 17.4034 21.6383 17.1836Z" fill="#323544"/>
<path fill-rule="evenodd" clip-rule="evenodd" d="M13.7694 10.4476C13.7694 11.4784 13.7955 12.338 13.2745 13.2535C12.8539 13.9978 12.1878 14.4555 11.4436 14.4555C10.4276 14.4555 9.83588 13.6814 9.83588 12.539C9.83588 10.2838 11.8566 9.87449 13.7694 9.87449V10.4476ZM16.4376 16.8968C16.2627 17.053 16.0097 17.0643 15.8125 16.96C14.9342 16.2307 14.7779 15.892 14.2941 15.1961C12.8428 16.6772 11.8157 17.12 9.93268 17.12C7.70728 17.12 5.97308 15.7468 5.97308 12.9967C5.97308 10.8495 7.13794 9.38697 8.79386 8.67252C10.2304 8.03981 12.2362 7.92819 13.7694 7.75334V7.41094C13.7694 6.78199 13.8178 6.03773 13.4494 5.49444C13.1256 5.00692 12.5079 4.80595 11.9645 4.80595C10.956 4.80595 10.0554 5.3232 9.83588 6.39496C9.79117 6.63318 9.61632 6.86765 9.37817 6.87879L6.81037 6.60346C6.59457 6.55498 6.35642 6.38013 6.41596 6.04887C7.00765 2.93785 9.81721 2 12.3329 2C13.6205 2 15.3025 2.3424 16.3185 3.31744C17.6061 4.5194 17.4833 6.12331 17.4833 7.86865V11.992C17.4833 13.2312 17.9968 13.7745 18.4806 14.4444C18.6518 14.6825 18.689 14.9692 18.4731 15.1477C17.9335 15.5979 16.9734 16.4353 16.445 16.9042L16.4376 16.8968" fill="#323544"/>
</svg>
