<svg width="24" height="24" viewBox="0 0 24 24" fill="none" xmlns="http://www.w3.org/2000/svg">
<path d="M3.90447 14.0241H4.84308L5.13438 13.0801H6.91451L7.2058 14.0241H8.98593V10.8991L10.1187 14.0241H10.9603L12.0931 10.9967V14.0241H12.9022V9.85742H11.5752L10.5395 12.6569L9.5038 9.85742H8.04732V13.8288L6.59087 9.85742H5.45803L3.90447 14.0241ZM19.9997 14.0241L18.4461 11.9407L19.9997 9.85742H18.8669L17.8312 11.0944L16.9897 9.85742H13.5912V14.0241H16.8926L17.9283 12.6569L18.964 14.0241H19.9997ZM5.9759 10.7038L6.49374 12.1361H5.45803L5.9759 10.7038ZM14.4004 10.8014H16.4718L17.3133 11.9407L16.3747 13.1777H14.4004V12.3639H16.2776V11.5176H14.4004V10.8014Z" fill="#323544"/>
<path fill-rule="evenodd" clip-rule="evenodd" d="M19.381 6.04791H4.61905C3.83007 6.04791 3.19048 6.68749 3.19048 7.47645V16.5241C3.19048 17.3131 3.83007 17.9526 4.61905 17.9526H19.381C20.1699 17.9526 20.8095 17.3131 20.8095 16.5241V7.47645C20.8095 6.68749 20.1699 6.04791 19.381 6.04791ZM4.61905 4.85742C3.17259 4.85742 2 6.03 2 7.47645V16.5241C2 17.9706 3.17259 19.1431 4.61905 19.1431H19.381C20.8274 19.1431 22 17.9706 22 16.5241V7.47645C22 6.03 20.8274 4.85742 19.381 4.85742H4.61905Z" fill="#323544"/>
</svg>
