<svg width="24" height="24" viewBox="0 0 24 24" fill="none" xmlns="http://www.w3.org/2000/svg">
<path d="M16.6662 2.3198C16.4189 2.88586 15.829 3.19228 15.3928 3.60656C14.7227 4.24517 14.4401 5.25415 14.2301 6.16672C17.447 6.90652 19.9528 9.53827 20.4215 12.8726C20.9617 16.7061 18.6555 20.3746 14.9384 21.5916C11.2213 22.8097 7.15578 21.2289 5.27241 17.8354C4.32801 16.1326 4.04049 14.1427 4.46425 12.2422C4.888 10.3418 5.99364 8.66251 7.57197 7.52221C7.4463 7.2699 7.32663 7.01464 7.21305 6.75665L7.04696 6.36718C6.77512 5.76082 6.57706 5.12402 6.45703 4.47045C6.43788 4.35314 6.42165 4.23537 6.40835 4.11726C6.39575 4.00948 6.38811 3.90118 6.38544 3.79271C6.3779 3.50998 6.42056 3.22815 6.51144 2.96032C6.57698 2.74019 6.70418 2.54343 6.878 2.3933C7.04081 2.26322 7.24778 2.20146 7.45526 2.22105C7.66273 2.24064 7.85449 2.34005 7.99007 2.49831C8.65254 3.28105 8.15139 4.48191 8.12562 5.38111C8.13421 5.92999 8.23158 6.47314 8.41295 6.98861L8.31463 7.03825C8.75615 6.82583 9.17729 6.5734 9.57275 6.28414C9.84003 6.05218 10.0023 5.57584 10.3183 5.45939C10.6333 5.34388 10.9693 5.59875 11.2213 5.74289C11.4867 5.88131 11.7816 5.95195 12.0814 5.94717L12.5224 5.95385C12.5949 5.95576 12.6675 5.95863 12.7381 5.96435C12.9405 5.9739 13.1409 5.98917 13.3395 6.01208L13.5266 4.98115C13.5648 4.77496 13.6049 4.57068 13.6469 4.36545L13.7815 3.75357C13.9151 3.08537 14.1824 2.44867 14.5671 1.88261C14.8582 1.47119 15.283 1.1705 15.7717 1.03304C16.6089 0.825898 16.9554 1.63346 16.6662 2.3198ZM14.5241 7.51267C11.8122 7.51458 9.84862 9.92964 10.1064 12.8965C10.3641 15.8652 12.761 18.2821 15.4644 18.3051C18.1677 18.328 20.1723 15.9072 19.9108 12.9175C19.6502 9.92678 17.236 7.50981 14.5241 7.51267ZM14.8649 8.05677C15.4555 8.0681 16.038 8.19575 16.5792 8.43244C17.1204 8.66912 17.6096 9.01019 18.0188 9.43613C18.9127 10.3307 19.4672 11.5086 19.5872 12.7676C19.6591 13.4003 19.5995 14.0411 19.4121 14.6497C19.2246 15.2583 18.9134 15.8216 18.498 16.3043V16.3186C18.1589 16.6969 17.7465 17.0022 17.2856 17.2161C16.8248 17.4299 16.3253 17.5477 15.8176 17.5624C15.2204 17.5685 14.6281 17.4545 14.076 17.227C13.5238 16.9996 13.0231 16.6634 12.6035 16.2384C11.6788 15.3477 11.1004 14.1576 10.9712 12.8802C10.8921 12.2402 10.948 11.5907 11.1354 10.9736C11.3229 10.3565 11.6377 9.7856 12.0594 9.29772C12.3993 8.91937 12.8126 8.61422 13.2743 8.40087C13.7359 8.18752 14.2362 8.07044 14.7446 8.05677H14.8649Z" fill="#323544"/>
</svg>
