<svg width="24" height="24" viewBox="0 0 24 24" fill="none" xmlns="http://www.w3.org/2000/svg">
<path d="M16.1962 12.3127L13.4898 17H18.9389C19.1389 17 19.3244 16.8936 19.4253 16.72L21.9698 12.3127H16.1962ZM21.9698 11.6873L19.4253 7.28C19.376 7.19467 19.3051 7.12384 19.2197 7.07468C19.1343 7.02552 19.0375 6.99976 18.9389 7H13.4898L16.1962 11.6873H21.9698ZM8.07801 7H13.4898L10.7653 2.28091C10.7161 2.19541 10.6453 2.1244 10.5599 2.07507C10.4745 2.02575 10.3775 1.99985 10.2789 2H5.18983L8.07801 7ZM4.64892 2.31182L2.10528 6.71909C2.05614 6.80439 2.03027 6.9011 2.03027 6.99955C2.03027 7.09799 2.05614 7.1947 2.10528 7.28L4.82983 11.9991L7.53528 7.31182L4.64892 2.31182ZM7.53619 16.6864L4.83073 12L2.10528 16.72C2.05614 16.8053 2.03027 16.902 2.03027 17.0005C2.03027 17.0989 2.05614 17.1956 2.10528 17.2809L4.64892 21.6882L7.53528 16.6882L7.53619 16.6864ZM5.18983 22H10.2789C10.4789 22 10.6644 21.8936 10.7653 21.72L13.4898 17H8.07801L5.18983 22Z" fill="#323544"/>
</svg>
