<svg width="24" height="24" viewBox="0 0 24 24" fill="none" xmlns="http://www.w3.org/2000/svg">
<path d="M9.69436 4.53906C10.0999 4.53854 10.4976 4.65472 10.8385 4.87434C11.1794 5.09395 11.4494 5.40744 11.6165 5.77681L12.7054 8.57782H12.7037C12.6443 8.42959 12.5422 8.30193 12.41 8.21243C12.2777 8.12295 12.1213 8.07492 11.9616 8.07491C11.8018 8.07491 11.6455 8.12294 11.5132 8.21243C11.3808 8.30193 11.2789 8.42955 11.2194 8.57782H11.217L6.52629 20.6485H2L7.77871 5.77519C7.94513 5.40819 8.21355 5.09679 8.5518 4.87759C8.89209 4.65714 9.2889 4.53964 9.69436 4.53906Z" fill="#323544"/>
<path d="M7.95921 5.31009C8.17478 4.75635 8.54597 4.27682 9.02801 3.92935C9.51005 3.58187 10.0823 3.3813 10.6758 3.35182L10.6742 3.34766H13.1708C14.4408 3.34766 15.5816 4.12763 16.0407 5.31009L21.9998 20.647H17.3957L11.6166 5.77507C11.4494 5.4056 11.1791 5.09224 10.8382 4.87263C10.4973 4.65301 10.1002 4.53647 9.69465 4.537C9.2891 4.53752 8.89232 4.6551 8.55196 4.8756C8.2116 5.09611 7.94212 5.41016 7.77588 5.78007L7.95921 5.31009Z" fill="#323544"/>
</svg>
