<svg width="24" height="24" viewBox="0 0 24 24" fill="none" xmlns="http://www.w3.org/2000/svg">
<path d="M17.9607 2.10962C17.9074 2.02129 17.7841 1.96796 17.6774 2.02129L15.6858 3.1321C14.6808 3.69709 14.0458 4.29624 13.6575 5.44205C13.4859 5.95358 13.4225 6.49516 13.4711 7.03249C13.5197 7.56983 13.6794 8.09121 13.94 8.56364C13.9925 8.65197 14.1166 8.7053 14.2216 8.65197L16.2149 7.54116C17.2199 6.97618 17.8549 6.37702 18.2424 5.23122C18.4142 4.71962 18.4778 4.17792 18.4294 3.64043C18.3809 3.10294 18.2213 2.58222 17.9607 2.10962ZM3.67772 6.51785C3.6079 6.51934 3.54136 6.54774 3.49199 6.59712C3.44261 6.64649 3.41421 6.71303 3.41272 6.78285C3.41272 8.21115 4.02938 9.49779 5.00019 10.3794C6.12849 11.4027 7.18597 11.6669 8.6326 11.6669H11.4892C11.63 11.6669 11.7534 11.5436 11.7534 11.4027C11.7534 9.97444 11.1367 8.68614 10.1667 7.80532C9.03759 6.78285 7.98012 6.51702 6.53349 6.51702H3.67855L3.67772 6.51785ZM21.9273 10.7853C21.9256 10.7157 21.8972 10.6495 21.8481 10.6003C21.7989 10.5512 21.7327 10.5228 21.6631 10.5211V10.5378H18.7715C17.3074 10.5378 16.2324 10.8211 15.0858 11.8436C14.0983 12.7069 13.4642 14.0293 13.4642 15.476C13.4642 15.6168 13.5875 15.7401 13.7283 15.7401H16.6199C18.0841 15.7401 19.159 15.4576 20.3057 14.4352C20.8167 13.9744 21.2253 13.4114 21.5048 12.7826C21.7843 12.1539 21.9277 11.4734 21.9273 10.7853ZM2.07275 15.1585C2.07275 14.9643 2.23108 14.7877 2.44275 14.7877H6.44599C8.47344 14.7877 9.95424 15.176 11.5417 16.6043C12.9 17.8209 13.7458 19.6376 13.7633 21.6292C13.7633 21.8233 13.605 22 13.3933 22H9.39092C7.36263 22 5.88183 21.63 4.29437 20.2017C2.93607 18.9667 2.09025 17.1501 2.07275 15.1585Z" fill="#323544"/>
</svg>
