<svg width="24" height="24" viewBox="0 0 24 24" fill="none" xmlns="http://www.w3.org/2000/svg">
<path d="M9.27179 10.0444C9.75897 10.0445 10.1541 10.4397 10.1543 10.9268V12.1798C10.1541 12.667 9.75901 13.0621 9.27179 13.0622C8.78446 13.0622 8.38891 12.6671 8.38879 12.1798V10.9268C8.38895 10.4396 8.78451 10.0444 9.27179 10.0444Z" fill="#323544"/>
<path d="M14.8229 10.0444C15.3102 10.0444 15.7052 10.4397 15.7054 10.9268V12.1798C15.7053 12.667 15.3101 13.0621 14.8229 13.0622C14.3356 13.0622 13.9406 12.6671 13.9404 12.1798V10.9268C13.9406 10.4396 14.3356 10.0444 14.8229 10.0444Z" fill="#323544"/>
<path fill-rule="evenodd" clip-rule="evenodd" d="M12.0003 3.375C17.7992 3.37508 22.4999 7.53687 22.5 12.6707C22.5 17.8047 17.7993 20.6182 12.0003 20.6183C6.20124 20.6183 1.5 17.8048 1.5 12.6707C1.50014 7.53682 6.20132 3.375 12.0003 3.375ZM12.0471 5.10522C7.87094 5.10531 4.4855 8.10434 4.48527 11.804C4.48527 15.5039 7.87083 17.5314 12.0471 17.5315C14.399 17.5314 16.5002 16.8887 17.8871 15.666L19.1927 16.5553C19.3682 16.6748 19.6057 16.5492 19.6058 16.3369V11.9856C19.6075 11.9256 19.6089 11.8649 19.6089 11.804C19.6089 10.578 19.2367 9.4289 18.5875 8.44043C18.293 8.66314 18.0643 8.96721 17.9334 9.3208C17.5875 10.2555 16.2655 10.2555 15.9196 9.3208C15.7217 8.78594 15.2994 8.3647 14.7645 8.16679C13.8301 7.8208 13.8302 6.49846 14.7645 6.15241C14.9912 6.0685 15.1973 5.94363 15.3749 5.78773C14.3707 5.35096 13.2413 5.10526 12.0471 5.10522ZM17.1209 5.29887C17.0543 5.1193 16.8003 5.11927 16.7336 5.29887C16.4479 6.07108 15.8387 6.68021 15.0666 6.96595C14.887 7.03261 14.887 7.28655 15.0666 7.35325C15.8387 7.63899 16.4479 8.24812 16.7336 9.02033C16.8003 9.20016 17.0543 9.20013 17.1209 9.02033C17.4067 8.24812 18.0158 7.63899 18.788 7.35325C18.9678 7.28663 18.9678 7.03253 18.788 6.96595C18.0158 6.68021 17.4067 6.07108 17.1209 5.29887Z" fill="#323544"/>
</svg>
