<svg width="24" height="24" viewBox="0 0 24 24" fill="none" xmlns="http://www.w3.org/2000/svg">
<path opacity="0.5" d="M8.67027 2.57031C8.2654 2.57031 7.90637 2.82834 7.7765 3.21199L2.04977 20.1808C2.00176 20.3226 1.98822 20.4738 2.0103 20.6219C2.03237 20.77 2.08941 20.9107 2.17669 21.0323C2.26398 21.1539 2.37899 21.253 2.5122 21.3213C2.64541 21.3897 2.79298 21.4252 2.94269 21.4252H7.55158C7.95645 21.4252 8.31548 21.1671 8.44534 20.7843L9.58356 17.4104L7.61608 15.5745C7.55287 15.5152 7.50891 15.4383 7.48988 15.3538C7.47086 15.2692 7.47765 15.1809 7.50938 15.1003C7.54111 15.0196 7.59631 14.9504 7.66784 14.9014C7.73938 14.8525 7.82395 14.8262 7.91061 14.8259H10.457L14.5914 2.57031H8.67027Z" fill="#323544"/>
<path d="M16.2226 3.21199C16.1597 3.02502 16.0397 2.8625 15.8795 2.74738C15.7193 2.63225 15.527 2.57032 15.3297 2.57031H8.70068H8.73039C9.13526 2.57031 9.49429 2.82834 9.62331 3.21199L15.3509 20.1808C15.3989 20.3226 15.4124 20.4738 15.3904 20.6219C15.3683 20.77 15.3113 20.9107 15.224 21.0323C15.1367 21.1539 15.0217 21.253 14.8885 21.3213C14.7553 21.3897 14.6077 21.4252 14.458 21.4252H14.3561H21.0573C21.207 21.4252 21.3545 21.3897 21.4877 21.3213C21.621 21.253 21.736 21.1539 21.8233 21.0323C21.9105 20.9107 21.9676 20.77 21.9896 20.6219C22.0117 20.4738 21.9982 20.3226 21.9502 20.1808L16.2226 3.21199Z" fill="#323544"/>
<path opacity="0.75" d="M13.5444 14.8281L15.3514 20.1811C15.3993 20.3228 15.4124 20.474 15.3903 20.6221C15.3683 20.77 15.3117 20.9108 15.2245 21.0324C15.1373 21.154 15.022 21.2533 14.8888 21.3216C14.7556 21.39 14.6075 21.4253 14.4578 21.4253L14.2572 21.4277C14.0187 21.4277 13.7889 21.3371 13.614 21.1741L7.61617 15.5766C7.55304 15.5174 7.50921 15.4406 7.49018 15.3561C7.47116 15.2716 7.47754 15.1831 7.50924 15.1025C7.54097 15.0218 7.59685 14.9525 7.66839 14.9036C7.73976 14.8548 7.82401 14.8285 7.91042 14.8281H13.5444Z" fill="#323544"/>
</svg>
