<svg width="24" height="24" viewBox="0 0 24 24" fill="none" xmlns="http://www.w3.org/2000/svg">
<path d="M21.291 8.22501C21.291 7.94168 21.0618 7.72501 20.791 7.72501H18.4285C17.6298 7.72568 16.864 8.0433 16.2994 8.60813C15.7347 9.17297 15.4173 9.93882 15.4168 10.7375V15.7342H18.2802C19.0786 15.7333 19.844 15.4157 20.4085 14.851C20.9729 14.2864 21.2903 13.5209 21.291 12.7225V8.22501Z" fill="#323544"/>
<path d="M15.4035 2.00002C15.2951 1.99925 15.1875 2.02003 15.0872 2.06118C14.9868 2.10232 14.8957 2.163 14.819 2.23968C14.7423 2.31637 14.6816 2.40753 14.6405 2.50788C14.5993 2.60822 14.5786 2.71574 14.5793 2.82419L14.4985 17.9892C14.4983 19.0528 14.0756 20.0729 13.3235 20.825C12.5714 21.5771 11.5513 21.9998 10.4877 22H3.20935C3.12967 22.0005 3.05104 21.9818 2.98009 21.9455C2.90913 21.9092 2.84793 21.8565 2.80162 21.7916C2.75531 21.7268 2.72526 21.6517 2.71399 21.5729C2.70272 21.494 2.71056 21.4135 2.73685 21.3383L8.57018 4.68752C8.84498 3.9035 9.35617 3.224 10.0333 2.74267C10.7105 2.26134 11.5202 2.00187 12.351 2.00002H15.4168H15.4035Z" fill="#323544"/>
<path opacity="0.5" d="M15.4035 2.00002C15.9976 2.00002 16.5245 2.45927 16.7137 3.1076C16.8972 3.73655 17.9442 7.52833 18.0068 7.75522C17.3642 7.84665 16.7637 8.14371 16.2995 8.60808C15.7349 9.1729 15.4178 9.93917 15.4173 10.7378V15.7345H14.5107L14.5799 2.8244C14.5791 2.71595 14.5998 2.60817 14.641 2.50783C14.682 2.40765 14.7427 2.31669 14.8192 2.24009C14.8959 2.1634 14.9874 2.1022 15.0877 2.06105C15.1879 2.02001 15.2952 1.9993 15.4035 2.00002Z" fill="#323544"/>
</svg>
