<svg width="24" height="24" viewBox="0 0 24 24" fill="none" xmlns="http://www.w3.org/2000/svg">
<path d="M2.5 6.205L9.31625 2.5L12.1528 4.0865L14.607 2.71296L21.5 6.56917V13.4575L18.6642 15.044V17.7902L12.0301 21.5L5.31517 17.9217V14.8761L2.5 13.5042V6.205ZM3.5165 7.37033V9.69308L9.79917 12.9373L9.77383 14.0607L3.5165 10.8307V12.935L11.4672 17.1332V11.8179L3.5165 7.37033ZM12.0198 10.9582L19.771 6.73858L17.6889 5.57483L11.8322 8.84996L10.8418 8.26729L16.6732 5.00563L14.607 3.84979L6.84387 8.07729L12.0198 10.9582ZM5.825 7.50967L11.1363 4.65492L9.31625 3.63683L4.001 6.49475L5.825 7.50967ZM14.565 18.9445L14.5658 18.9461V12.3935L15.5815 11.8535V18.3777L17.6478 17.2218V9.06925L12.4924 11.9525V20.1043L14.565 18.9445ZM6.33167 15.4453V17.354L11.4672 20.0354V18.27L6.33167 15.4453ZM20.4835 7.48117L18.6642 8.50083V13.9071L20.4835 12.889V7.48117Z" fill="#323544"/>
</svg>
