<svg width="24" height="24" viewBox="0 0 24 24" fill="none" xmlns="http://www.w3.org/2000/svg">
<path d="M19.6894 6.94125L16.5362 8.77C16.4281 8.83172 16.3059 8.86418 16.1815 8.86418C16.0571 8.86418 15.9348 8.83172 15.8268 8.77L12.3467 6.76233C12.2385 6.70047 12.1161 6.66792 11.9916 6.66792C11.867 6.66792 11.7446 6.70047 11.6365 6.76233L8.16349 8.77C8.05547 8.83172 7.93322 8.86418 7.80882 8.86418C7.68442 8.86418 7.56217 8.83172 7.45415 8.77L4.30015 6.94679L11.9999 2.5L19.6894 6.94125Z" fill="#323544"/>
<path d="M17.2558 9.99471C17.1498 10.0572 17.062 10.1463 17.0012 10.2533C16.9403 10.3602 16.9086 10.4813 16.909 10.6043V14.6196C16.9084 14.7431 16.8756 14.8643 16.8139 14.9712C16.7521 15.0781 16.6634 15.1671 16.5567 15.2292L13.0512 17.2163C12.9431 17.2782 12.8534 17.3678 12.7914 17.476C12.7295 17.5841 12.6976 17.7068 12.6989 17.8314V21.4786L20.409 17.0588V8.16596L17.2558 9.99471Z" fill="#323544"/>
<path d="M11.1908 17.495C11.1351 17.3832 11.052 17.2874 10.9494 17.2163L7.44307 15.2245C7.33948 15.1609 7.25379 15.0721 7.19409 14.9663C7.13439 14.8604 7.10265 14.7411 7.10186 14.6196V10.5995C7.09941 10.4772 7.06512 10.3576 7.00237 10.2525C6.93962 10.1474 6.85059 10.0605 6.74403 10.0003L6.38699 9.79442L3.59082 8.16675V17.0588L7.79536 19.471L11.3064 21.5V17.852C11.3011 17.7249 11.2611 17.601 11.1908 17.495Z" fill="#323544"/>
</svg>
