<svg width="24" height="24" viewBox="0 0 24 24" fill="none" xmlns="http://www.w3.org/2000/svg">
<path d="M9.28732 11.7711C10.1656 10.2943 12.7928 9.10855 14.6436 12.0181C16.0073 13.9907 18.3434 15.8156 18.3434 15.8156C18.3434 15.8156 20.094 17.1982 18.9739 19.8608C17.903 22.4137 14.103 21.2487 13.7877 21.1476L13.767 21.1399C13.767 21.1399 12.2591 20.6493 10.5059 21.0431C8.75619 21.4387 7.24741 21.2901 7.24741 21.2901L7.20855 21.2893C6.92527 21.2806 5.15309 21.1278 4.61677 18.726C4.03382 16.1109 6.65927 14.6781 6.85532 14.4355C7.0505 14.1867 8.41159 13.2523 9.28732 11.7711ZM10.1389 13.2721V15.0271H8.7225C8.7225 15.0271 7.30614 15.1462 6.81127 16.7664C6.63855 17.8477 6.96414 18.4851 7.02027 18.6215C7.07814 18.7571 7.535 19.5482 8.6845 19.7805H11.3428V13.2911L10.1389 13.2721ZM13.2376 15.1644L11.994 15.1851V18.6016C11.994 18.6016 12.0492 19.4523 13.2376 19.7624H16.2957V15.1851H14.9761V18.6215H13.7152C13.7152 18.6215 13.3127 18.5628 13.2376 18.2355V15.1644ZM10.1173 16.0721V18.7148H9.04637C9.04637 18.7148 8.30105 18.6759 8.07391 17.8088C7.95646 17.4245 8.09118 16.9806 8.14991 16.807C8.20432 16.6317 8.45477 16.2275 8.97123 16.0729L10.1173 16.0721ZM18.3434 8.26823C20.145 8.26823 20.6286 10.0473 20.6286 10.6363C20.6286 11.2305 20.8739 13.7428 18.6345 13.7929C16.3933 13.8421 16.2992 12.2643 16.2992 11.1329C16.2992 9.94628 16.5384 8.26823 18.3434 8.26823ZM5.29818 6.88727C6.6135 6.77068 7.5825 8.22591 7.68355 9.05759C7.744 9.59737 8.02296 12.0682 5.97786 12.5121C3.93623 12.9569 3.17623 10.5698 3.40077 9.45141C3.40077 9.45141 3.64259 7.03582 5.29818 6.88727ZM12.9388 5.6065C13.0597 4.47514 14.3983 2.74268 15.4701 2.99141C16.5376 3.23755 17.5143 4.67032 17.3157 5.90187C17.1222 7.13514 16.1541 8.76309 14.6427 8.56359C13.1331 8.36841 12.792 6.98918 12.9388 5.6065ZM9.77614 2.5C10.9049 2.5 11.8178 3.81186 11.8178 5.43464C11.8178 7.05741 10.9049 8.371 9.77614 8.371C8.64737 8.371 7.73191 7.05741 7.73191 5.43464C7.73191 3.811 8.64737 2.5 9.77614 2.5Z" fill="#323544"/>
</svg>
