<svg width="24" height="24" viewBox="0 0 24 24" fill="none" xmlns="http://www.w3.org/2000/svg">
<path opacity="0.4" d="M7.77539 9.5625V14.4397L11.9994 11.9995L7.77618 9.56329L7.77539 9.5625Z" fill="#323544"/>
<g opacity="0.8">
<path d="M19.6975 6.68923C19.6975 6.68923 19.6928 6.68448 19.6896 6.68448L16.2265 4.68359L7.77539 9.56393L11.9994 12.0033L19.6801 7.57095L19.6928 7.56304C19.7695 7.51935 19.8333 7.45625 19.8779 7.38007C19.9224 7.3039 19.9461 7.21734 19.9466 7.12909C19.9471 7.04085 19.9243 6.95403 19.8806 6.87737C19.8369 6.80071 19.7737 6.73692 19.6975 6.6924V6.68923Z" fill="#323544"/>
<path d="M20.2248 16.7475L16.2265 14.4403L7.77856 19.3167L11.1593 21.2677C11.1593 21.2677 11.172 21.2725 11.1767 21.2772C11.4289 21.4219 11.7146 21.4981 12.0053 21.4981C12.296 21.4981 12.5817 21.4219 12.8339 21.2772C12.8386 21.2748 12.8465 21.2725 12.8513 21.2677L19.6112 17.3657C19.6136 17.3657 19.616 17.3633 19.6191 17.3609C19.8733 17.2161 20.0855 17.0047 20.2327 16.7499H20.228L20.2248 16.7475Z" fill="#323544"/>
</g>
<path d="M19.9464 12.3657C19.8585 12.3653 19.7721 12.3886 19.6962 12.433C19.6962 12.433 19.6914 12.433 19.6891 12.4354L16.2252 14.4363L20.2235 16.7435H20.2282C20.3739 16.4936 20.4504 16.2095 20.4499 15.9203V12.8691C20.4497 12.7357 20.3966 12.6077 20.3022 12.5134C20.2078 12.419 20.0799 12.3659 19.9464 12.3657Z" fill="#323544"/>
<path d="M11.9988 11.9961L7.77407 14.4363L6.63079 15.0948L3.77654 16.7435H3.771C3.90797 16.9833 4.10036 17.1827 4.33234 17.3276L4.3941 17.3624L4.40677 17.3703L4.4226 17.3798L7.77328 19.3126L16.222 14.4363L11.998 11.9969L11.9988 11.9961Z" fill="#323544"/>
<path opacity="0.6" d="M12.8446 2.72953C12.7654 2.68204 12.6799 2.64484 12.5952 2.61239C12.5794 2.60764 12.5651 2.59973 12.5501 2.59498C12.372 2.5324 12.1846 2.50029 11.9958 2.5C11.8114 2.5 11.634 2.53008 11.467 2.58706L11.4424 2.59498C11.3403 2.63057 11.2417 2.67562 11.1479 2.72953L4.39508 6.63317C4.39508 6.63317 4.3927 6.63317 4.39033 6.63554C4.1338 6.78039 3.92161 6.9925 3.77197 7.24736H3.77672L7.77425 9.55694L16.2254 4.68293L12.8446 2.72953Z" fill="#323544"/>
<path opacity="0.3" d="M3.77704 7.25H3.7715C3.62589 7.49988 3.54937 7.78397 3.54981 8.07315V15.9208C3.54981 16.22 3.62898 16.5025 3.7715 16.7463H3.77704L7.77457 14.4367V9.55957L3.77704 7.25Z" fill="#323544"/>
</svg>
