<svg width="24" height="24" viewBox="0 0 24 24" fill="none" xmlns="http://www.w3.org/2000/svg">
<path d="M3.93032 6.00001H16.1652V9.99996H8.09194C8.05862 9.9993 8.02549 10.0053 7.99449 10.0175C7.96348 10.0298 7.93522 10.048 7.91134 10.0713C7.88746 10.0946 7.86844 10.1223 7.85538 10.153C7.84233 10.1837 7.83549 10.2166 7.83528 10.25V13.7499C7.83528 13.8924 7.95194 13.9999 8.09194 13.9999H16.1652V17.9999H12.2602C12.2269 17.9992 12.1938 18.0052 12.1628 18.0174C12.1318 18.0297 12.1035 18.048 12.0796 18.0712C12.0557 18.0945 12.0367 18.1222 12.0237 18.1529C12.0106 18.1836 12.0038 18.2165 12.0036 18.2499V21.7498C12.0036 21.8923 12.1211 21.9998 12.2602 21.9998H15.9085C15.942 22.0011 15.9754 21.9955 16.0066 21.9835C16.0379 21.9714 16.0664 21.9532 16.0904 21.9298C16.1144 21.9064 16.1334 21.8784 16.1463 21.8475C16.1591 21.8166 16.1655 21.7833 16.1652 21.7498V17.9999H20.0768C20.1101 18.0005 20.1433 17.9946 20.1743 17.9823C20.2053 17.9701 20.2335 17.9518 20.2574 17.9285C20.2813 17.9053 20.3003 17.8775 20.3134 17.8468C20.3264 17.8162 20.3333 17.7832 20.3335 17.7499V14.2499C20.3335 14.1074 20.2168 13.9999 20.0768 13.9999H16.1652V9.99996H20.0768C20.1101 10.0006 20.1433 9.99466 20.1743 9.98242C20.2053 9.97017 20.2335 9.95189 20.2574 9.92863C20.2813 9.90537 20.3003 9.8776 20.3134 9.84693C20.3264 9.81626 20.3333 9.7833 20.3335 9.74997V6.25C20.3335 6.10751 20.2168 6.00001 20.0768 6.00001H16.1652V2.25005C16.1652 2.10755 16.0485 2.00005 15.9085 2.00005H3.93032C3.86237 1.9987 3.79662 2.02419 3.74733 2.07098C3.69804 2.11778 3.66917 2.18212 3.66699 2.25005V5.75001C3.66699 5.89251 3.78366 6.00001 3.93032 6.00001Z" fill="#323544"/>
</svg>
