<svg width="24" height="24" viewBox="0 0 24 24" fill="none" xmlns="http://www.w3.org/2000/svg">
<path d="M12.4997 15.194H15.2997C15.4943 15.194 15.6533 15.3549 15.6533 15.5521V17.2067C15.9906 17.2899 16.2901 17.484 16.5038 17.7578C16.7174 18.0317 16.8329 18.3694 16.8315 18.7167C16.8315 19.574 16.1452 20.2695 15.2997 20.2695C14.4533 20.2695 13.767 19.574 13.767 18.7167C13.767 17.9831 14.2706 17.3676 14.9461 17.2058V15.9103H12.5006V20.1495C12.5008 20.211 12.4852 20.2716 12.4553 20.3255C12.4254 20.3793 12.3821 20.4245 12.3297 20.4567L9.88419 21.9486C9.82871 21.9825 9.76487 22.0003 9.69984 22C9.6348 21.9997 9.57115 21.9812 9.516 21.9468L5.03777 19.1413C4.98609 19.1088 4.94354 19.0638 4.91411 19.0103C4.88469 18.9569 4.86936 18.8968 4.86958 18.8358V15.9094L2.63229 14.6094C2.58141 14.5799 2.53855 14.5384 2.50748 14.4884C2.47641 14.4385 2.45808 14.3817 2.4541 14.323V9.64207C2.4541 9.5148 2.52047 9.39661 2.62865 9.33297L4.86958 8.00387V5.13474C4.86958 5.01747 4.92595 4.90838 5.01959 4.84201L5.03868 4.82929L9.51782 2.05289C9.57334 2.01832 9.63743 2 9.70282 2C9.76822 2 9.83231 2.01832 9.88783 2.05289L12.3333 3.57563C12.385 3.60807 12.4275 3.65314 12.457 3.70658C12.4864 3.76002 12.5017 3.82008 12.5015 3.88109V8.00023H16.007V6.25748C15.6696 6.17428 15.37 5.98005 15.1563 5.70602C14.9426 5.43198 14.8273 5.09406 14.8288 4.74656C14.8288 3.88927 15.5152 3.19381 16.3606 3.19381C17.207 3.19381 17.8925 3.88927 17.8925 4.74656C17.8925 5.4802 17.3897 6.09566 16.7143 6.25748V8.35842C16.7146 8.40517 16.7058 8.45154 16.6882 8.49486C16.6706 8.53819 16.6446 8.57761 16.6118 8.61089C16.5789 8.64416 16.5398 8.67063 16.4967 8.68877C16.4536 8.70691 16.4074 8.71637 16.3606 8.7166H12.5015V10.3584H18.5234C18.6007 10.0204 18.7901 9.71852 19.0608 9.5018C19.3315 9.28509 19.6676 9.16631 20.0143 9.16479C20.8598 9.16479 21.5461 9.85935 21.5461 10.7166C21.5461 11.5739 20.8607 12.2694 20.0143 12.2694C19.6674 12.2678 19.3313 12.1489 19.0606 11.932C18.7899 11.7151 18.6006 11.413 18.5234 11.0748H12.4997V12.8357H17.0025L17.8343 13.9085C18.066 13.773 18.3296 13.7018 18.5979 13.7021C19.4443 13.7021 20.1298 14.3967 20.1298 15.254C20.1298 16.1112 19.4443 16.8067 18.5979 16.8067C17.7525 16.8067 17.0661 16.1112 17.0661 15.254C17.0661 14.9394 17.1588 14.6467 17.317 14.4021L16.6588 13.5521H12.4997V15.194ZM9.70237 2.77835L7.84507 3.92928V6.62749H7.13779V4.36746L5.57687 5.33566V8.01296L7.49507 9.24934L9.46509 8.00932V5.94021H10.1724V8.20933C10.1724 8.33296 10.1087 8.44842 10.0051 8.51388L7.87507 9.85298V11.7448L9.16782 12.6621L8.76236 13.2494L7.48416 12.3421L6.09324 13.2557L5.70869 12.6557L7.16779 11.6966V9.88753L5.21595 8.62751L3.16138 9.84571V11.3694L4.95413 10.2884L5.31595 10.9039L3.16138 12.203V14.0912L5.1305 15.2349L7.19416 13.9912L7.55507 14.6067L5.57687 15.7985V18.6367L7.28234 19.7049L9.43237 18.4085L9.79419 19.0249L7.96053 20.1304L9.70419 21.2222L11.7933 19.9467V14.6921L7.4678 17.3222L7.10416 16.7085L11.7933 13.8576V4.0811L9.70237 2.77835ZM15.2997 17.8822C15.1906 17.8828 15.0826 17.9049 14.982 17.9473C14.8814 17.9896 14.7902 18.0514 14.7135 18.1291C14.6368 18.2068 14.5762 18.2989 14.5352 18.4C14.4941 18.5011 14.4734 18.6094 14.4742 18.7185C14.4742 19.1795 14.8433 19.5531 15.2997 19.5531C15.4087 19.5524 15.5165 19.5302 15.6169 19.4878C15.7174 19.4455 15.8085 19.3837 15.885 19.3061C15.9616 19.2286 16.0221 19.1367 16.0632 19.0357C16.1042 18.9347 16.125 18.8266 16.1243 18.7176C16.1251 18.6086 16.1044 18.5004 16.0634 18.3993C16.0224 18.2982 15.9619 18.2062 15.8853 18.1285C15.8088 18.0509 15.7176 17.989 15.6171 17.9466C15.5166 17.9042 15.4088 17.8829 15.2997 17.8822ZM18.5997 14.4185C18.4906 14.4191 18.3826 14.4412 18.282 14.4836C18.1814 14.526 18.0902 14.5878 18.0135 14.6654C17.9368 14.7431 17.8762 14.8352 17.8352 14.9363C17.7941 15.0375 17.7734 15.1457 17.7743 15.2549C17.7743 15.7167 18.1434 16.0912 18.5988 16.0912C18.708 16.0906 18.816 16.0685 18.9165 16.0261C19.0171 15.9838 19.1084 15.922 19.1851 15.8443C19.2617 15.7666 19.3223 15.6745 19.3634 15.5734C19.4044 15.4723 19.4251 15.364 19.4243 15.2549C19.4251 15.1457 19.4044 15.0375 19.3634 14.9363C19.3223 14.8352 19.2617 14.7431 19.1851 14.6654C19.1084 14.5878 19.0171 14.526 18.9165 14.4836C18.816 14.4412 18.7089 14.4191 18.5997 14.4185ZM20.0134 9.88207C19.9042 9.88267 19.7963 9.90479 19.6957 9.94716C19.5951 9.98954 19.5039 10.0513 19.4272 10.129C19.3505 10.2067 19.2899 10.2988 19.2488 10.3999C19.2078 10.501 19.1871 10.6093 19.1879 10.7184C19.1879 11.1794 19.5579 11.553 20.0134 11.553C20.1224 11.5523 20.2302 11.5301 20.3306 11.4877C20.431 11.4454 20.5221 11.3836 20.5987 11.306C20.6753 11.2285 20.7358 11.1366 20.7769 11.0356C20.8179 10.9346 20.8387 10.8265 20.838 10.7175C20.8388 10.6085 20.8181 10.5003 20.7771 10.3992C20.7361 10.2981 20.6756 10.2061 20.599 10.1284C20.5225 10.0508 20.4313 9.98894 20.3308 9.94651C20.2303 9.90408 20.1225 9.88279 20.0134 9.88207ZM16.3597 3.90928C16.2506 3.90999 16.1428 3.9322 16.0423 3.97462C15.9418 4.01705 15.8507 4.07888 15.7741 4.15655C15.6975 4.23423 15.637 4.32624 15.596 4.42732C15.555 4.5284 15.5343 4.63657 15.5352 4.74565C15.5352 5.20747 15.9043 5.58202 16.3597 5.58202C16.4689 5.58143 16.5768 5.55931 16.6774 5.51693C16.778 5.47456 16.8693 5.41275 16.9459 5.33506C17.0226 5.25738 17.0832 5.16533 17.1243 5.06419C17.1653 4.96304 17.186 4.8548 17.1852 4.74565C17.186 4.6365 17.1653 4.52825 17.1243 4.42711C17.0832 4.32597 17.0226 4.23392 16.9459 4.15623C16.8693 4.07854 16.778 4.01674 16.6774 3.97436C16.5768 3.93199 16.4689 3.90987 16.3597 3.90928Z" fill="#323544"/>
</svg>
