<svg width="24" height="24" viewBox="0 0 24 24" fill="none" xmlns="http://www.w3.org/2000/svg">
<path d="M6.34194 6.19677C6.22258 6.09677 6.03548 6.09355 5.95161 6.19032L5.23871 7.04194L5.68065 7.4129L6.38387 6.57097C6.47419 6.46452 6.47419 6.30968 6.34194 6.19677ZM7.14839 6.76129C7.01935 6.65484 6.83226 6.68387 6.74839 6.78387L5.99677 7.68065L6.46452 8.07097L7.20645 7.18387C7.30645 7.06452 7.29355 6.88387 7.14839 6.76129ZM7.14839 6.76129C7.01935 6.65484 6.83226 6.68387 6.74839 6.78387L5.99677 7.68065L6.46452 8.07097L7.20645 7.18387C7.30645 7.06452 7.29355 6.88387 7.14839 6.76129ZM6.34194 6.19677C6.22258 6.09677 6.03548 6.09355 5.95161 6.19032L5.23871 7.04194L5.68065 7.4129L6.38387 6.57097C6.47419 6.46452 6.47419 6.30968 6.34194 6.19677ZM6.34194 6.19677C6.22258 6.09677 6.03548 6.09355 5.95161 6.19032L5.23871 7.04194L5.68065 7.4129L6.38387 6.57097C6.47419 6.46452 6.47419 6.30968 6.34194 6.19677ZM7.14839 6.76129C7.01935 6.65484 6.83226 6.68387 6.74839 6.78387L5.99677 7.68065L6.46452 8.07097L7.20645 7.18387C7.30645 7.06452 7.29355 6.88387 7.14839 6.76129ZM6.46774 12H12V6.46774C8.94516 6.46774 6.46774 8.94516 6.46774 12ZM12 12V17.5323C15.0548 17.5323 17.5323 15.0548 17.5323 12H12ZM12 12V17.5323C15.0548 17.5323 17.5323 15.0548 17.5323 12H12ZM6.46774 12H12V6.46774C8.94516 6.46774 6.46774 8.94516 6.46774 12ZM7.14839 6.76129C7.01935 6.65484 6.83226 6.68387 6.74839 6.78387L5.99677 7.68065L6.46452 8.07097L7.20645 7.18387C7.30645 7.06452 7.29355 6.88387 7.14839 6.76129ZM6.34194 6.19677C6.22258 6.09677 6.03548 6.09355 5.95161 6.19032L5.23871 7.04194L5.68065 7.4129L6.38387 6.57097C6.47419 6.46452 6.47419 6.30968 6.34194 6.19677ZM12 2.74516C6.8871 2.74516 2.74516 6.8871 2.74516 12C2.74516 17.1129 6.8871 21.2548 12 21.2548C17.1129 21.2548 21.2548 17.1129 21.2548 12C21.2548 6.8871 17.1129 2.74516 12 2.74516ZM10.6484 3.24839H11.3806L12.0419 4.98387L12.7065 3.24839H13.4387V5.6871H12.9516V3.98387L12.3097 5.6871H11.7774L11.1355 3.98387V5.6871H10.6484V3.24839ZM4.50323 7.25806L5.69032 5.84194C5.93871 5.54839 6.28065 5.3129 6.60968 5.5871C6.70968 5.67097 6.75161 5.7 6.87419 5.92258C6.90323 6.00323 6.92581 6.14516 6.87097 6.2871C7.15484 6.10968 7.45806 6.16774 7.65484 6.35806C7.95484 6.65161 7.9129 6.99032 7.62581 7.33226L6.37097 8.82581L4.50323 7.25806ZM12 17.9129C8.73548 17.9129 6.0871 15.2645 6.0871 12C6.0871 8.73548 8.73548 6.0871 12 6.0871C15.2645 6.0871 17.9129 8.73548 17.9129 12C17.9129 15.2645 15.2645 17.9129 12 17.9129ZM17.5097 8.87419L17.0677 8.32581L17.9484 7.03548L17.9419 7.02903L16.5 7.62258L16.0516 7.07742L17.5806 5.10968L17.9581 5.57419L17 6.82903L18.4645 6.2L18.8677 6.7L17.9484 8L19.3742 7.32258L19.7516 7.79032L17.5097 8.87419ZM12 17.5323C15.0548 17.5323 17.5323 15.0548 17.5323 12H12V17.5323ZM6.46774 12H12V6.46774C8.94516 6.46774 6.46774 8.94516 6.46774 12ZM7.20645 7.18387C7.30645 7.06452 7.29355 6.88387 7.14839 6.76129C7.01935 6.65484 6.83226 6.68387 6.74839 6.78387L5.99677 7.68065L6.46452 8.07097L7.20645 7.18387ZM6.34194 6.19677C6.22258 6.09677 6.03548 6.09355 5.95161 6.19032L5.23871 7.04194L5.68065 7.4129L6.38387 6.57097C6.47419 6.46452 6.47419 6.30968 6.34194 6.19677ZM6.34194 6.19677C6.22258 6.09677 6.03548 6.09355 5.95161 6.19032L5.23871 7.04194L5.68065 7.4129L6.38387 6.57097C6.47419 6.46452 6.47419 6.30968 6.34194 6.19677ZM7.14839 6.76129C7.01935 6.65484 6.83226 6.68387 6.74839 6.78387L5.99677 7.68065L6.46452 8.07097L7.20645 7.18387C7.30645 7.06452 7.29355 6.88387 7.14839 6.76129ZM6.46774 12H12V6.46774C8.94516 6.46774 6.46774 8.94516 6.46774 12ZM12 12V17.5323C15.0548 17.5323 17.5323 15.0548 17.5323 12H12ZM12 12V17.5323C15.0548 17.5323 17.5323 15.0548 17.5323 12H12ZM6.46774 12H12V6.46774C8.94516 6.46774 6.46774 8.94516 6.46774 12ZM7.14839 6.76129C7.01935 6.65484 6.83226 6.68387 6.74839 6.78387L5.99677 7.68065L6.46452 8.07097L7.20645 7.18387C7.30645 7.06452 7.29355 6.88387 7.14839 6.76129ZM6.34194 6.19677C6.22258 6.09677 6.03548 6.09355 5.95161 6.19032L5.23871 7.04194L5.68065 7.4129L6.38387 6.57097C6.47419 6.46452 6.47419 6.30968 6.34194 6.19677ZM6.34194 6.19677C6.22258 6.09677 6.03548 6.09355 5.95161 6.19032L5.23871 7.04194L5.68065 7.4129L6.38387 6.57097C6.47419 6.46452 6.47419 6.30968 6.34194 6.19677ZM7.14839 6.76129C7.01935 6.65484 6.83226 6.68387 6.74839 6.78387L5.99677 7.68065L6.46452 8.07097L7.20645 7.18387C7.30645 7.06452 7.29355 6.88387 7.14839 6.76129ZM6.46774 12H12V6.46774C8.94516 6.46774 6.46774 8.94516 6.46774 12ZM12 12V17.5323C15.0548 17.5323 17.5323 15.0548 17.5323 12H12ZM12 12V17.5323C15.0548 17.5323 17.5323 15.0548 17.5323 12H12ZM6.46774 12H12V6.46774C8.94516 6.46774 6.46774 8.94516 6.46774 12ZM7.14839 6.76129C7.01935 6.65484 6.83226 6.68387 6.74839 6.78387L5.99677 7.68065L6.46452 8.07097L7.20645 7.18387C7.30645 7.06452 7.29355 6.88387 7.14839 6.76129ZM6.34194 6.19677C6.22258 6.09677 6.03548 6.09355 5.95161 6.19032L5.23871 7.04194L5.68065 7.4129L6.38387 6.57097C6.47419 6.46452 6.47419 6.30968 6.34194 6.19677ZM12 2.74516C6.8871 2.74516 2.74516 6.8871 2.74516 12C2.74516 17.1129 6.8871 21.2548 12 21.2548C17.1129 21.2548 21.2548 17.1129 21.2548 12C21.2548 6.8871 17.1129 2.74516 12 2.74516ZM10.6484 3.24839H11.3806L12.0419 4.98387L12.7065 3.24839H13.4387V5.6871H12.9516V3.98387L12.3097 5.6871H11.7774L11.1355 3.98387V5.6871H10.6484V3.24839ZM4.50323 7.25806L5.69032 5.84194C5.93871 5.54839 6.28065 5.3129 6.60968 5.5871C6.70968 5.67097 6.75161 5.7 6.87419 5.92258C6.90323 6.00323 6.92581 6.14516 6.87097 6.2871C7.15484 6.10968 7.45806 6.16774 7.65484 6.35806C7.95484 6.65161 7.9129 6.99032 7.62581 7.33226L6.37097 8.82581L4.50323 7.25806ZM12 17.9129C8.73548 17.9129 6.0871 15.2645 6.0871 12C6.0871 8.73548 8.73548 6.0871 12 6.0871C15.2645 6.0871 17.9129 8.73548 17.9129 12C17.9129 15.2645 15.2645 17.9129 12 17.9129ZM17.5097 8.87419L17.0677 8.32581L17.9484 7.03548L17.9419 7.02903L16.5 7.62258L16.0516 7.07742L17.5806 5.10968L17.9581 5.57419L17 6.82903L18.4645 6.2L18.8677 6.7L17.9484 8L19.3742 7.32258L19.7516 7.79032L17.5097 8.87419ZM12 17.5323C15.0548 17.5323 17.5323 15.0548 17.5323 12H12V17.5323ZM6.46774 12H12V6.46774C8.94516 6.46774 6.46774 8.94516 6.46774 12ZM7.20645 7.18387C7.30645 7.06452 7.29355 6.88387 7.14839 6.76129C7.01935 6.65484 6.83226 6.68387 6.74839 6.78387L5.99677 7.68065L6.46452 8.07097L7.20645 7.18387ZM6.34194 6.19677C6.22258 6.09677 6.03548 6.09355 5.95161 6.19032L5.23871 7.04194L5.68065 7.4129L6.38387 6.57097C6.47419 6.46452 6.47419 6.30968 6.34194 6.19677ZM6.34194 6.19677C6.22258 6.09677 6.03548 6.09355 5.95161 6.19032L5.23871 7.04194L5.68065 7.4129L6.38387 6.57097C6.47419 6.46452 6.47419 6.30968 6.34194 6.19677ZM7.14839 6.76129C7.01935 6.65484 6.83226 6.68387 6.74839 6.78387L5.99677 7.68065L6.46452 8.07097L7.20645 7.18387C7.30645 7.06452 7.29355 6.88387 7.14839 6.76129ZM6.46774 12H12V6.46774C8.94516 6.46774 6.46774 8.94516 6.46774 12ZM12 12V17.5323C15.0548 17.5323 17.5323 15.0548 17.5323 12H12ZM12 12V17.5323C15.0548 17.5323 17.5323 15.0548 17.5323 12H12ZM6.46774 12H12V6.46774C8.94516 6.46774 6.46774 8.94516 6.46774 12ZM7.14839 6.76129C7.01935 6.65484 6.83226 6.68387 6.74839 6.78387L5.99677 7.68065L6.46452 8.07097L7.20645 7.18387C7.30645 7.06452 7.29355 6.88387 7.14839 6.76129ZM6.34194 6.19677C6.22258 6.09677 6.03548 6.09355 5.95161 6.19032L5.23871 7.04194L5.68065 7.4129L6.38387 6.57097C6.47419 6.46452 6.47419 6.30968 6.34194 6.19677ZM6.34194 6.19677C6.22258 6.09677 6.03548 6.09355 5.95161 6.19032L5.23871 7.04194L5.68065 7.4129L6.38387 6.57097C6.47419 6.46452 6.47419 6.30968 6.34194 6.19677ZM7.14839 6.76129C7.01935 6.65484 6.83226 6.68387 6.74839 6.78387L5.99677 7.68065L6.46452 8.07097L7.20645 7.18387C7.30645 7.06452 7.29355 6.88387 7.14839 6.76129ZM6.46774 12H12V6.46774C8.94516 6.46774 6.46774 8.94516 6.46774 12ZM12 12V17.5323C15.0548 17.5323 17.5323 15.0548 17.5323 12H12ZM12 12V17.5323C15.0548 17.5323 17.5323 15.0548 17.5323 12H12ZM6.46774 12H12V6.46774C8.94516 6.46774 6.46774 8.94516 6.46774 12ZM7.14839 6.76129C7.01935 6.65484 6.83226 6.68387 6.74839 6.78387L5.99677 7.68065L6.46452 8.07097L7.20645 7.18387C7.30645 7.06452 7.29355 6.88387 7.14839 6.76129ZM6.34194 6.19677C6.22258 6.09677 6.03548 6.09355 5.95161 6.19032L5.23871 7.04194L5.68065 7.4129L6.38387 6.57097C6.47419 6.46452 6.47419 6.30968 6.34194 6.19677ZM12 2.74516C6.8871 2.74516 2.74516 6.8871 2.74516 12C2.74516 17.1129 6.8871 21.2548 12 21.2548C17.1129 21.2548 21.2548 17.1129 21.2548 12C21.2548 6.8871 17.1129 2.74516 12 2.74516ZM10.6484 3.24839H11.3806L12.0419 4.98387L12.7065 3.24839H13.4387V5.6871H12.9516V3.98387L12.3097 5.6871H11.7774L11.1355 3.98387V5.6871H10.6484V3.24839ZM4.50323 7.25806L5.69032 5.84194C5.93871 5.54839 6.28065 5.3129 6.60968 5.5871C6.70968 5.67097 6.75161 5.7 6.87419 5.92258C6.90323 6.00323 6.92581 6.14516 6.87097 6.2871C7.15484 6.10968 7.45806 6.16774 7.65484 6.35806C7.95484 6.65161 7.9129 6.99032 7.62581 7.33226L6.37097 8.82581L4.50323 7.25806ZM12 17.9129C8.73548 17.9129 6.0871 15.2645 6.0871 12C6.0871 8.73548 8.73548 6.0871 12 6.0871C15.2645 6.0871 17.9129 8.73548 17.9129 12C17.9129 15.2645 15.2645 17.9129 12 17.9129ZM17.5097 8.87419L17.0677 8.32581L17.9484 7.03548L17.9419 7.02903L16.5 7.62258L16.0516 7.07742L17.5806 5.10968L17.9581 5.57419L17 6.82903L18.4645 6.2L18.8677 6.7L17.9484 8L19.3742 7.32258L19.7516 7.79032L17.5097 8.87419ZM12 17.5323C15.0548 17.5323 17.5323 15.0548 17.5323 12H12V17.5323ZM6.46774 12H12V6.46774C8.94516 6.46774 6.46774 8.94516 6.46774 12ZM7.20645 7.18387C7.30645 7.06452 7.29355 6.88387 7.14839 6.76129C7.01935 6.65484 6.83226 6.68387 6.74839 6.78387L5.99677 7.68065L6.46452 8.07097L7.20645 7.18387ZM6.34194 6.19677C6.22258 6.09677 6.03548 6.09355 5.95161 6.19032L5.23871 7.04194L5.68065 7.4129L6.38387 6.57097C6.47419 6.46452 6.47419 6.30968 6.34194 6.19677ZM12 2.74516C6.8871 2.74516 2.74516 6.8871 2.74516 12C2.74516 17.1129 6.8871 21.2548 12 21.2548C17.1129 21.2548 21.2548 17.1129 21.2548 12C21.2548 6.8871 17.1129 2.74516 12 2.74516ZM10.6484 3.24839H11.3806L12.0419 4.98387L12.7065 3.24839H13.4387V5.6871H12.9516V3.98387L12.3097 5.6871H11.7774L11.1355 3.98387V5.6871H10.6484V3.24839ZM4.50323 7.25806L5.69032 5.84194C5.93871 5.54839 6.28065 5.3129 6.60968 5.5871C6.70968 5.67097 6.75161 5.7 6.87419 5.92258C6.90323 6.00323 6.92581 6.14516 6.87097 6.2871C7.15484 6.10968 7.45806 6.16774 7.65484 6.35806C7.95484 6.65161 7.9129 6.99032 7.62581 7.33226L6.37097 8.82581L4.50323 7.25806ZM12 17.9129C8.73548 17.9129 6.0871 15.2645 6.0871 12C6.0871 8.73548 8.73548 6.0871 12 6.0871C15.2645 6.0871 17.9129 8.73548 17.9129 12C17.9129 15.2645 15.2645 17.9129 12 17.9129ZM17.5097 8.87419L17.0677 8.32581L17.9484 7.03548L17.9419 7.02903L16.5 7.62258L16.0516 7.07742L17.5806 5.10968L17.9581 5.57419L17 6.82903L18.4645 6.2L18.8677 6.7L17.9484 8L19.3742 7.32258L19.7516 7.79032L17.5097 8.87419ZM12 17.5323C15.0548 17.5323 17.5323 15.0548 17.5323 12H12V17.5323ZM6.46774 12H12V6.46774C8.94516 6.46774 6.46774 8.94516 6.46774 12ZM7.20645 7.18387C7.30645 7.06452 7.29355 6.88387 7.14839 6.76129C7.01935 6.65484 6.83226 6.68387 6.74839 6.78387L5.99677 7.68065L6.46452 8.07097L7.20645 7.18387ZM6.34194 6.19677C6.22258 6.09677 6.03548 6.09355 5.95161 6.19032L5.23871 7.04194L5.68065 7.4129L6.38387 6.57097C6.47419 6.46452 6.47419 6.30968 6.34194 6.19677ZM19.071 4.92903C17.1806 3.03871 14.671 2 12 2C6.4871 2 2 6.4871 2 12C2 14.671 3.03871 17.1839 4.92903 19.071C6.81935 20.9613 9.32903 22 12 22C14.671 22 17.1806 20.9613 19.071 19.071C20.9613 17.1839 22 14.671 22 12C22 9.32903 20.9613 6.81935 19.071 4.92903ZM12 21.6548C9.42258 21.6548 6.99677 20.6484 5.17419 18.8258C3.35161 17.0032 2.34516 14.5774 2.34516 12C2.34516 9.42258 3.35161 6.99677 5.17419 5.17419C6.99677 3.35161 9.42258 2.34516 12 2.34516C14.5774 2.34516 17.0032 3.35161 18.8258 5.17419C20.6484 6.99677 21.6548 9.42258 21.6548 12C21.6548 17.3226 17.3226 21.6548 12 21.6548ZM12 2.74516C6.8871 2.74516 2.74516 6.8871 2.74516 12C2.74516 17.1129 6.8871 21.2548 12 21.2548C17.1129 21.2548 21.2548 17.1129 21.2548 12C21.2548 6.8871 17.1129 2.74516 12 2.74516ZM10.6484 3.24839H11.3806L12.0419 4.98387L12.7065 3.24839H13.4387V5.6871H12.9516V3.98387L12.3097 5.6871H11.7774L11.1355 3.98387V5.6871H10.6484V3.24839ZM4.50323 7.25806L5.69032 5.84194C5.93871 5.54839 6.28065 5.3129 6.60968 5.5871C6.70968 5.67097 6.75161 5.7 6.87419 5.92258C6.90323 6.00323 6.92581 6.14516 6.87097 6.2871C7.15484 6.10968 7.45806 6.16774 7.65484 6.35806C7.95484 6.65161 7.9129 6.99032 7.62581 7.33226L6.37097 8.82581L4.50323 7.25806ZM12 17.9129C8.73548 17.9129 6.0871 15.2645 6.0871 12C6.0871 8.73548 8.73548 6.0871 12 6.0871C15.2645 6.0871 17.9129 8.73548 17.9129 12C17.9129 15.2645 15.2645 17.9129 12 17.9129ZM17.5097 8.87419L17.0677 8.32581L17.9484 7.03548L17.9419 7.02903L16.5 7.62258L16.0516 7.07742L17.5806 5.10968L17.9581 5.57419L17 6.82903L18.4645 6.2L18.8677 6.7L17.9484 8L19.3742 7.32258L19.7516 7.79032L17.5097 8.87419ZM12 17.5323C15.0548 17.5323 17.5323 15.0548 17.5323 12H12V17.5323ZM6.46774 12H12V6.46774C8.94516 6.46774 6.46774 8.94516 6.46774 12ZM7.20645 7.18387C7.30645 7.06452 7.29355 6.88387 7.14839 6.76129C7.01935 6.65484 6.83226 6.68387 6.74839 6.78387L5.99677 7.68065L6.46452 8.07097L7.20645 7.18387ZM6.34194 6.19677C6.22258 6.09677 6.03548 6.09355 5.95161 6.19032L5.23871 7.04194L5.68065 7.4129L6.38387 6.57097C6.47419 6.46452 6.47419 6.30968 6.34194 6.19677ZM6.34194 6.19677C6.22258 6.09677 6.03548 6.09355 5.95161 6.19032L5.23871 7.04194L5.68065 7.4129L6.38387 6.57097C6.47419 6.46452 6.47419 6.30968 6.34194 6.19677ZM7.14839 6.76129C7.01935 6.65484 6.83226 6.68387 6.74839 6.78387L5.99677 7.68065L6.46452 8.07097L7.20645 7.18387C7.30645 7.06452 7.29355 6.88387 7.14839 6.76129ZM6.46774 12H12V6.46774C8.94516 6.46774 6.46774 8.94516 6.46774 12ZM12 12V17.5323C15.0548 17.5323 17.5323 15.0548 17.5323 12H12ZM12 12V17.5323C15.0548 17.5323 17.5323 15.0548 17.5323 12H12ZM6.46774 12H12V6.46774C8.94516 6.46774 6.46774 8.94516 6.46774 12ZM7.14839 6.76129C7.01935 6.65484 6.83226 6.68387 6.74839 6.78387L5.99677 7.68065L6.46452 8.07097L7.20645 7.18387C7.30645 7.06452 7.29355 6.88387 7.14839 6.76129ZM6.34194 6.19677C6.22258 6.09677 6.03548 6.09355 5.95161 6.19032L5.23871 7.04194L5.68065 7.4129L6.38387 6.57097C6.47419 6.46452 6.47419 6.30968 6.34194 6.19677ZM12 2.74516C6.8871 2.74516 2.74516 6.8871 2.74516 12C2.74516 17.1129 6.8871 21.2548 12 21.2548C17.1129 21.2548 21.2548 17.1129 21.2548 12C21.2548 6.8871 17.1129 2.74516 12 2.74516ZM10.6484 3.24839H11.3806L12.0419 4.98387L12.7065 3.24839H13.4387V5.6871H12.9516V3.98387L12.3097 5.6871H11.7774L11.1355 3.98387V5.6871H10.6484V3.24839ZM4.50323 7.25806L5.69032 5.84194C5.93871 5.54839 6.28065 5.3129 6.60968 5.5871C6.70968 5.67097 6.75161 5.7 6.87419 5.92258C6.90323 6.00323 6.92581 6.14516 6.87097 6.2871C7.15484 6.10968 7.45806 6.16774 7.65484 6.35806C7.95484 6.65161 7.9129 6.99032 7.62581 7.33226L6.37097 8.82581L4.50323 7.25806ZM12 17.9129C8.73548 17.9129 6.0871 15.2645 6.0871 12C6.0871 8.73548 8.73548 6.0871 12 6.0871C15.2645 6.0871 17.9129 8.73548 17.9129 12C17.9129 15.2645 15.2645 17.9129 12 17.9129ZM17.5097 8.87419L17.0677 8.32581L17.9484 7.03548L17.9419 7.02903L16.5 7.62258L16.0516 7.07742L17.5806 5.10968L17.9581 5.57419L17 6.82903L18.4645 6.2L18.8677 6.7L17.9484 8L19.3742 7.32258L19.7516 7.79032L17.5097 8.87419ZM12 17.5323C15.0548 17.5323 17.5323 15.0548 17.5323 12H12V17.5323ZM6.46774 12H12V6.46774C8.94516 6.46774 6.46774 8.94516 6.46774 12ZM7.20645 7.18387C7.30645 7.06452 7.29355 6.88387 7.14839 6.76129C7.01935 6.65484 6.83226 6.68387 6.74839 6.78387L5.99677 7.68065L6.46452 8.07097L7.20645 7.18387ZM6.34194 6.19677C6.22258 6.09677 6.03548 6.09355 5.95161 6.19032L5.23871 7.04194L5.68065 7.4129L6.38387 6.57097C6.47419 6.46452 6.47419 6.30968 6.34194 6.19677ZM6.34194 6.19677C6.22258 6.09677 6.03548 6.09355 5.95161 6.19032L5.23871 7.04194L5.68065 7.4129L6.38387 6.57097C6.47419 6.46452 6.47419 6.30968 6.34194 6.19677ZM7.14839 6.76129C7.01935 6.65484 6.83226 6.68387 6.74839 6.78387L5.99677 7.68065L6.46452 8.07097L7.20645 7.18387C7.30645 7.06452 7.29355 6.88387 7.14839 6.76129ZM6.46774 12H12V6.46774C8.94516 6.46774 6.46774 8.94516 6.46774 12ZM12 12V17.5323C15.0548 17.5323 17.5323 15.0548 17.5323 12H12ZM12 12V17.5323C15.0548 17.5323 17.5323 15.0548 17.5323 12H12ZM6.46774 12H12V6.46774C8.94516 6.46774 6.46774 8.94516 6.46774 12ZM7.14839 6.76129C7.01935 6.65484 6.83226 6.68387 6.74839 6.78387L5.99677 7.68065L6.46452 8.07097L7.20645 7.18387C7.30645 7.06452 7.29355 6.88387 7.14839 6.76129ZM6.34194 6.19677C6.22258 6.09677 6.03548 6.09355 5.95161 6.19032L5.23871 7.04194L5.68065 7.4129L6.38387 6.57097C6.47419 6.46452 6.47419 6.30968 6.34194 6.19677ZM12 2.74516C6.8871 2.74516 2.74516 6.8871 2.74516 12C2.74516 17.1129 6.8871 21.2548 12 21.2548C17.1129 21.2548 21.2548 17.1129 21.2548 12C21.2548 6.8871 17.1129 2.74516 12 2.74516ZM10.6484 3.24839H11.3806L12.0419 4.98387L12.7065 3.24839H13.4387V5.6871H12.9516V3.98387L12.3097 5.6871H11.7774L11.1355 3.98387V5.6871H10.6484V3.24839ZM4.50323 7.25806L5.69032 5.84194C5.93871 5.54839 6.28065 5.3129 6.60968 5.5871C6.70968 5.67097 6.75161 5.7 6.87419 5.92258C6.90323 6.00323 6.92581 6.14516 6.87097 6.2871C7.15484 6.10968 7.45806 6.16774 7.65484 6.35806C7.95484 6.65161 7.9129 6.99032 7.62581 7.33226L6.37097 8.82581L4.50323 7.25806ZM12 17.9129C8.73548 17.9129 6.0871 15.2645 6.0871 12C6.0871 8.73548 8.73548 6.0871 12 6.0871C15.2645 6.0871 17.9129 8.73548 17.9129 12C17.9129 15.2645 15.2645 17.9129 12 17.9129ZM17.5097 8.87419L17.0677 8.32581L17.9484 7.03548L17.9419 7.02903L16.5 7.62258L16.0516 7.07742L17.5806 5.10968L17.9581 5.57419L17 6.82903L18.4645 6.2L18.8677 6.7L17.9484 8L19.3742 7.32258L19.7516 7.79032L17.5097 8.87419ZM12 17.5323C15.0548 17.5323 17.5323 15.0548 17.5323 12H12V17.5323ZM6.46774 12H12V6.46774C8.94516 6.46774 6.46774 8.94516 6.46774 12ZM7.20645 7.18387C7.30645 7.06452 7.29355 6.88387 7.14839 6.76129C7.01935 6.65484 6.83226 6.68387 6.74839 6.78387L5.99677 7.68065L6.46452 8.07097L7.20645 7.18387ZM6.34194 6.19677C6.22258 6.09677 6.03548 6.09355 5.95161 6.19032L5.23871 7.04194L5.68065 7.4129L6.38387 6.57097C6.47419 6.46452 6.47419 6.30968 6.34194 6.19677ZM6.34194 6.19677C6.22258 6.09677 6.03548 6.09355 5.95161 6.19032L5.23871 7.04194L5.68065 7.4129L6.38387 6.57097C6.47419 6.46452 6.47419 6.30968 6.34194 6.19677ZM7.14839 6.76129C7.01935 6.65484 6.83226 6.68387 6.74839 6.78387L5.99677 7.68065L6.46452 8.07097L7.20645 7.18387C7.30645 7.06452 7.29355 6.88387 7.14839 6.76129ZM6.46774 12H12V6.46774C8.94516 6.46774 6.46774 8.94516 6.46774 12ZM12 12V17.5323C15.0548 17.5323 17.5323 15.0548 17.5323 12H12ZM12 12V17.5323C15.0548 17.5323 17.5323 15.0548 17.5323 12H12ZM6.46774 12H12V6.46774C8.94516 6.46774 6.46774 8.94516 6.46774 12ZM7.14839 6.76129C7.01935 6.65484 6.83226 6.68387 6.74839 6.78387L5.99677 7.68065L6.46452 8.07097L7.20645 7.18387C7.30645 7.06452 7.29355 6.88387 7.14839 6.76129ZM6.34194 6.19677C6.22258 6.09677 6.03548 6.09355 5.95161 6.19032L5.23871 7.04194L5.68065 7.4129L6.38387 6.57097C6.47419 6.46452 6.47419 6.30968 6.34194 6.19677ZM6.34194 6.19677C6.22258 6.09677 6.03548 6.09355 5.95161 6.19032L5.23871 7.04194L5.68065 7.4129L6.38387 6.57097C6.47419 6.46452 6.47419 6.30968 6.34194 6.19677ZM7.14839 6.76129C7.01935 6.65484 6.83226 6.68387 6.74839 6.78387L5.99677 7.68065L6.46452 8.07097L7.20645 7.18387C7.30645 7.06452 7.29355 6.88387 7.14839 6.76129ZM7.14839 6.76129C7.01935 6.65484 6.83226 6.68387 6.74839 6.78387L5.99677 7.68065L6.46452 8.07097L7.20645 7.18387C7.30645 7.06452 7.29355 6.88387 7.14839 6.76129ZM6.34194 6.19677C6.22258 6.09677 6.03548 6.09355 5.95161 6.19032L5.23871 7.04194L5.68065 7.4129L6.38387 6.57097C6.47419 6.46452 6.47419 6.30968 6.34194 6.19677Z" fill="#323544"/>
</svg>
