<svg width="24" height="24" viewBox="0 0 24 24" fill="none" xmlns="http://www.w3.org/2000/svg">
<path d="M17.4078 14.0571L19.8648 15.4856C20.0095 15.5662 20.1297 15.6844 20.2127 15.8278C20.2956 15.9711 20.3382 16.1342 20.336 16.2998V19.1286C20.3382 19.2942 20.2956 19.4573 20.2127 19.6007C20.1297 19.744 20.0095 19.8623 19.8648 19.9428L17.4078 21.3713C17.2649 21.4556 17.1021 21.5 16.9363 21.5C16.7705 21.5 16.6077 21.4556 16.4648 21.3713L14.0083 19.9423C13.8636 19.8617 13.7434 19.7435 13.6605 19.6002C13.5775 19.4568 13.5349 19.2937 13.5371 19.1281V16.4711L7.80827 13.1567L8.9363 14.8283L7.52729 15.643C7.38446 15.7273 7.22166 15.7717 7.05583 15.7717C6.89 15.7717 6.7272 15.7273 6.58437 15.643L4.12168 14.215C3.97698 14.1345 3.85678 14.0162 3.77382 13.8729C3.69087 13.7295 3.64824 13.5664 3.65047 13.4008V10.572C3.64824 10.4064 3.69087 10.2433 3.77382 10.0999C3.85678 9.9566 3.97698 9.83837 4.12168 9.75779L6.57872 8.3293C6.72156 8.24506 6.88436 8.20063 7.05019 8.20063C7.21602 8.20063 7.37882 8.24506 7.52165 8.3293L8.75017 9.04355L9.83615 9.67217L13.5504 7.52892V4.87139C13.5482 4.70579 13.5908 4.54266 13.6738 4.39932C13.7567 4.25597 13.8769 4.13774 14.0216 4.05716L16.4787 2.62867C16.6215 2.54443 16.7843 2.5 16.9501 2.5C17.116 2.5 17.2788 2.54443 17.4216 2.62867L19.8787 4.05716C20.0234 4.13774 20.1436 4.25597 20.2265 4.39932C20.3095 4.54266 20.3521 4.70579 20.3499 4.87139V7.69146C20.3521 7.85706 20.3095 8.02019 20.2265 8.16353C20.1436 8.30688 20.0234 8.42511 19.8787 8.50569L17.4232 9.92854C17.2803 10.0128 17.1175 10.0572 16.9517 10.0572C16.7859 10.0572 16.6231 10.0128 16.4802 9.92854L15.2517 9.21429L15.1799 9.17122L16.4659 7.25665L10.4514 10.7279V13.228L14.1657 15.3713L15.2517 14.7426L16.4802 14.0284C16.7802 13.8848 17.1232 13.8848 17.4032 14.0571H17.4078Z" fill="#323544"/>
</svg>
