<svg width="24" height="24" viewBox="0 0 24 24" fill="none" xmlns="http://www.w3.org/2000/svg">
<path d="M17.1786 9.27288C16.8214 8.73717 16.4048 8.17169 15.9286 7.57645C15.9286 7.57645 14.3214 5.70145 14.5893 2.93359C14.5893 2.93359 8.42857 5.34431 8.33929 10.255C8.33929 10.255 7.44643 8.82645 7.625 6.14788C7.625 6.14788 5.66071 8.02288 5.39286 11.0586C3.51786 11.6836 2 13.2907 2 14.8979C2 17.13 4.41071 19.005 7.26786 19.005C5.125 18.6479 3.51786 17.2193 3.51786 15.4336C3.51786 14.1836 4.23214 13.2015 5.30357 12.4872C5.3631 13.1419 5.5119 13.8562 5.75 14.63C5.75 14.63 6.82143 18.0229 10.5714 18.9157C11.6429 19.1836 12.8036 19.0943 13.875 18.6479C15.0357 18.1122 16.375 17.0407 16.375 14.63C16.375 14.63 16.4643 12.2193 15.0357 10.9693C15.0357 10.9693 16.9107 15.4336 13.4286 16.7729C12.2679 17.2193 11.1071 17.2193 9.94643 16.7729C8.42857 16.1479 6.55357 14.5407 6.82143 10.3443C6.82143 10.3443 7.71428 13.38 9.67857 14.5407C9.67857 14.5407 7.89286 9.36216 13.1607 5.79074C13.1607 5.79074 13.6071 7.66574 14.8571 8.73716C15.2143 9.09431 18.4286 11.5943 17.8036 15.88C18.4286 15.0765 18.9643 13.1122 18.4286 11.5943C18.4286 11.5943 18.3393 11.2372 18.0714 10.7907C19.4107 11.0586 20.4821 12.13 20.5714 14.5407C20.6607 16.5943 19.1429 18.2907 17.1786 19.005C19.8571 18.6479 22 16.5943 22 14.005C22 11.505 20.0357 9.45145 17.1786 9.27288Z" fill="#323544"/>
</svg>
