<svg width="24" height="24" viewBox="0 0 24 24" fill="none" xmlns="http://www.w3.org/2000/svg">
<path d="M14.6764 17.5333L13.1273 17.1287V9.73598L14.7855 9.31598C15.6945 9.08507 16.4582 8.89689 16.4945 8.90416C16.5236 8.90416 16.5455 10.936 16.5455 13.4242V17.9451L16.3855 17.9378C16.2909 17.9378 15.52 17.7505 14.6764 17.5333Z" fill="#323544"/>
<path d="M7.45455 15.6742C7.45455 13.1869 7.47636 11.1469 7.51273 11.1469C7.54182 11.1396 8.30545 11.3287 9.22182 11.5596L10.8727 11.9787L10.8582 15.6605L10.8364 19.3414L9.35273 19.7251C8.53818 19.9342 7.77455 20.1296 7.66545 20.1514L7.45455 20.2023V15.6742Z" fill="#323544"/>
<path d="M18.5818 11.9787C18.5818 3.76962 18.5891 3.32871 18.7127 3.36507C18.7782 3.38689 19.4255 3.55325 20.1455 3.73416C20.8655 3.92234 21.5782 4.10234 21.7309 4.13871L22 4.21143L21.9636 19.7823L20.4873 20.1587C19.68 20.3678 18.9164 20.556 18.8 20.586L18.5818 20.636V11.9787Z" fill="#323544"/>
<path d="M2 12.0078C2 7.75507 2.02182 4.27598 2.05818 4.27598C2.08727 4.27598 2.85091 4.46416 3.76 4.68871L5.41818 5.1078V12.0005C5.41818 15.7823 5.40364 18.886 5.38909 18.886C5.36727 18.886 4.59636 19.0814 3.68 19.3133L2 19.7387V12.0078Z" fill="#323544"/>
</svg>
