<svg width="24" height="24" viewBox="0 0 24 24" fill="none" xmlns="http://www.w3.org/2000/svg">
<path d="M21.9992 7.40456V4.28674L18.2497 6.25697V6.13792C18.2513 4.8936 17.3584 4.14453 16.0686 4.14453H4.18272C2.821 4.14536 2 4.89525 2 6.13792V9.28798L7.25341 11.9998L2 14.7415V17.8833C2 19.1061 2.82679 19.8543 4.18272 19.8543H16.0661C17.3559 19.8543 18.248 19.1044 18.248 17.8849V17.722L21.9983 19.7138V16.5488L13.2774 11.9998L22 7.40538L21.9992 7.40456ZM10.253 13.5484L16.6995 16.9242H3.78338L10.253 13.5484ZM16.6532 7.07632L10.2522 10.4306L3.78255 7.07632H16.6532Z" fill="#323544"/>
</svg>
