<svg width="24" height="24" viewBox="0 0 24 24" fill="none" xmlns="http://www.w3.org/2000/svg">
<path d="M12.7681 4.85751C14.5297 4.85751 16.1489 5.50001 17.3872 6.55917L19.2322 4.38084C17.4306 2.84145 15.1378 1.99701 12.7681 2.00001C7.2564 2.00001 2.76807 6.48834 2.76807 12C2.76807 17.5117 7.2564 22 12.7681 22C15.2322 22 17.4822 21.1075 19.2322 19.6308L17.5956 17.4525C16.3456 18.5117 14.5297 19.1425 12.7681 19.1425C8.82723 19.1425 5.62557 15.9408 5.62557 12C5.62557 8.05917 8.82723 4.85751 12.7681 4.85751Z" fill="#323544"/>
<path d="M10.7856 15.5592C11.3689 15.9167 12.0356 16.095 12.7739 16.095H12.7856C13.4406 16.095 14.0597 15.9525 14.6547 15.6783C14.994 15.5238 15.3105 15.3236 15.5956 15.0833L14.5597 13.8567C14.5239 13.8925 14.4764 13.9283 14.4289 13.9642C14.2147 14.1308 13.9881 14.25 13.7381 14.3333C13.4988 14.4248 13.2442 14.4692 12.9881 14.4642C12.5597 14.4642 12.1664 14.345 11.8214 14.1308C11.4693 13.9178 11.1813 13.6134 10.9881 13.25C10.7802 12.8665 10.6738 12.4362 10.6789 12C10.6789 11.5358 10.7739 11.1067 10.9764 10.7375C11.1664 10.3692 11.4406 10.0708 11.7856 9.85667C12.1402 9.63992 12.5492 9.52864 12.9647 9.53584C13.2147 9.53584 13.4764 9.59501 13.7381 9.69C13.9881 9.78584 14.2381 9.92834 14.4647 10.095C14.4881 10.1067 14.5481 10.1542 14.5481 10.1542L15.6072 8.90417C15.3361 8.66284 15.0313 8.46239 14.7022 8.30917C14.1189 8.03584 13.5122 7.90417 12.7739 7.90417C12.0356 7.90417 11.3689 8.08334 10.7856 8.44001C10.1906 8.79751 9.73806 9.28584 9.39306 9.90417C9.04806 10.5233 8.8814 11.2142 8.8814 12C8.8814 12.7858 9.04806 13.4758 9.39306 14.095C9.7214 14.6963 10.2015 15.2011 10.7856 15.5592Z" fill="#323544"/>
</svg>
