<svg width="24" height="24" viewBox="0 0 24 24" fill="none" xmlns="http://www.w3.org/2000/svg">
<path d="M14.3584 3.31022C12.0536 3.31022 9.84322 4.2258 8.21349 5.85553C6.58375 7.48527 5.66817 9.69567 5.66817 12.0005C5.66817 14.3053 6.58375 16.5157 8.21349 18.1454C9.84322 19.7751 12.0536 20.6907 14.3584 20.6907V22C8.83531 22 4.35889 17.5226 4.35889 11.9995C4.35889 6.47643 8.83438 2 14.3575 2V3.30928L14.3584 3.31022ZM18.7993 6.74651C18.1089 6.16038 17.3094 5.71654 16.4468 5.44048C15.5842 5.16443 14.6755 5.06162 13.7731 5.13796C12.8706 5.2143 11.9921 5.46829 11.1882 5.88533C10.3842 6.30236 9.67062 6.87421 9.08844 7.56799C8.50626 8.26177 8.06696 9.0638 7.79582 9.92794C7.52468 10.7921 7.42704 11.7013 7.50852 12.6033C7.59 13.5053 7.84898 14.3824 8.27058 15.1839C8.69218 15.9855 9.26809 16.6958 9.96517 17.2741L9.12315 18.2777C8.29995 17.5872 7.62083 16.7413 7.12458 15.7883C6.62833 14.8353 6.32468 13.7939 6.23095 12.7235C6.13723 11.6532 6.25527 10.5748 6.57834 9.55006C6.90141 8.52532 7.42318 7.57425 8.11385 6.75118C8.80445 5.92795 9.65044 5.24881 10.6035 4.75255C11.5566 4.25629 12.5981 3.95263 13.6685 3.8589C14.739 3.76518 15.8174 3.88323 16.8422 4.20631C17.8671 4.5294 18.8182 5.05118 19.6413 5.74188L18.7993 6.74651ZM16.692 7.53526C15.5082 6.92384 14.1309 6.80468 12.8597 7.20372C11.5885 7.60276 10.5264 8.48769 9.90443 9.66594C9.28246 10.8442 9.15102 12.2204 9.53869 13.4951C9.92636 14.7698 10.8018 15.8398 11.9744 16.4722L11.3614 17.631C9.89665 16.8279 8.80644 15.4811 8.32598 13.8812C7.84553 12.2813 8.01335 10.5567 8.79324 9.07946C9.57313 7.60224 10.9025 6.49086 12.4946 5.98516C14.0867 5.47947 15.8138 5.62 17.3031 6.37643L16.692 7.53526ZM14.3575 8.76604C13.4997 8.76604 12.677 9.10681 12.0704 9.71338C11.4638 10.32 11.1231 11.1426 11.1231 12.0005C11.1231 12.8583 11.4638 13.681 12.0704 14.2876C12.677 14.8941 13.4997 15.2349 14.3575 15.2349V16.5451C13.1522 16.5451 11.9962 16.0663 11.1439 15.214C10.2916 14.3617 9.81284 13.2058 9.81284 12.0005C9.81284 10.7952 10.2916 9.6392 11.1439 8.78692C11.9962 7.93463 13.1522 7.45582 14.3575 7.45582V8.76604Z" fill="#323544"/>
<path d="M15.5602 10.9127C15.4209 10.7626 15.2603 10.6339 15.0836 10.5304C14.9297 10.439 14.7543 10.39 14.5752 10.3884C14.3369 10.3884 14.1238 10.4323 13.936 10.5192C13.7545 10.601 13.5913 10.7187 13.4564 10.8652C13.3215 11.0116 13.2176 11.1839 13.151 11.3715C13.0818 11.5612 13.0482 11.7603 13.0482 11.9612C13.0482 12.1649 13.0818 12.3631 13.151 12.5509C13.2182 12.7384 13.3223 12.9105 13.4571 13.057C13.5919 13.2036 13.7548 13.3216 13.936 13.4041C14.1229 13.4911 14.3379 13.535 14.5752 13.535C14.7771 13.535 14.9649 13.492 15.1378 13.4088C15.3135 13.3247 15.4649 13.1985 15.5817 13.0425L16.449 13.9826C16.3181 14.1135 16.1686 14.2265 15.9985 14.3219C15.684 14.4973 15.3416 14.6174 14.9864 14.677C14.8276 14.7013 14.6902 14.7144 14.5752 14.7144C14.1981 14.7167 13.8238 14.6502 13.4706 14.5181C13.1367 14.3946 12.8312 14.2048 12.5725 13.9602C12.3153 13.7144 12.1106 13.4191 11.9707 13.092C11.8187 12.7346 11.7429 12.3495 11.7483 11.9612C11.7483 11.5463 11.823 11.1697 11.9707 10.8304C12.1109 10.5033 12.3146 10.208 12.5716 9.96224C12.8314 9.71833 13.137 9.52862 13.4706 9.40526C13.8238 9.27316 14.1981 9.20665 14.5752 9.20901C14.907 9.20901 15.2406 9.27256 15.5771 9.39965C15.9144 9.52862 16.2172 9.73609 16.4593 10.0062L15.5602 10.9127Z" fill="#323544"/>
</svg>
