<svg width="24" height="24" viewBox="0 0 24 24" fill="none" xmlns="http://www.w3.org/2000/svg">
<path d="M11.0907 2.83203C15.5879 2.83203 20.4206 6.45015 19.2766 12.5305C19.2638 12.5946 19.2427 12.6588 19.2243 12.723L19.2216 12.469C19.1455 9.71902 17.8154 4.27946 11.0907 4.27946C7.98039 4.27946 3.63168 7.07899 3.82144 11.7577C3.78477 16.1376 7.08022 19.4578 11.109 19.3954L11.1759 19.3945C12.2759 19.3643 13.7087 19.0013 14.0176 17.8756C14.0754 17.8472 14.256 18.3651 14.2633 18.4238C14.3073 18.6584 14.366 18.762 14.4393 18.7354C15.3386 18.4164 16.5348 17.6153 16.2286 16.5538C16.0673 15.9946 14.6015 16.419 14.4677 16.2357C14.8509 15.3382 16.5156 15.3868 17.358 15.5793C17.7641 15.6728 17.9602 15.9277 18.2857 15.9845C18.5515 16.0322 19.1849 15.8012 19.1657 16.2063C17.7907 18.9949 14.6804 21.1655 11.0916 21.1655C5.34953 21.1655 2 16.1917 2 11.7577C2 6.45015 6.5458 2.83203 11.0907 2.83203ZM11.0751 5.85706C11.5188 5.85706 12.1064 6.06331 12.3401 6.39332C15.7034 6.52624 16.2937 8.85551 16.643 11.3837C16.8767 13.0686 16.9317 13.4921 16.8098 12.6551L16.8859 13.196C16.9482 13.6066 17.3937 13.8716 17.7861 13.669C17.9181 13.6002 18.0189 13.4572 18.0867 13.2381C18.094 13.2145 18.1059 13.1925 18.1219 13.1736C18.1378 13.1547 18.1575 13.1392 18.1796 13.1281C18.2017 13.1169 18.2258 13.1104 18.2505 13.1088C18.2752 13.1073 18.2999 13.1107 18.3232 13.119L18.8962 13.3206C18.9388 13.3364 18.974 13.3675 18.995 13.4078C19.016 13.4481 19.0213 13.4948 19.0098 13.5388C18.9255 13.854 18.7649 14.1436 18.5423 14.3821C17.7375 15.2227 16.0151 14.9908 15.719 13.8138C15.5906 13.306 15.6686 13.24 15.4027 12.6753C15.135 12.106 14.2679 12.0254 13.8535 12.4049C13.5373 12.6936 13.4804 13.1428 13.4814 13.5801L13.5501 15.5738C13.5501 15.7926 13.4632 16.0025 13.3085 16.1572C13.1538 16.3119 12.9439 16.3988 12.7251 16.3988H11.4418C11.3334 16.3988 11.2261 16.3775 11.126 16.336C11.0259 16.2946 10.935 16.2338 10.8584 16.1572C10.7818 16.0806 10.721 15.9896 10.6796 15.8895C10.6381 15.7894 10.6168 15.6822 10.6168 15.5738V14.978C10.6168 14.8396 10.5895 14.7025 10.5365 14.5746C10.4835 14.4467 10.4059 14.3305 10.308 14.2326C10.2101 14.1347 10.0939 14.057 9.96599 14.0041C9.83809 13.9511 9.70101 13.9238 9.56258 13.9238C9.42414 13.9238 9.28706 13.9511 9.15916 14.0041C9.03126 14.057 8.91505 14.1347 8.81716 14.2326C8.71927 14.3305 8.64162 14.4467 8.58864 14.5746C8.53567 14.7025 8.5084 14.8396 8.5084 14.978V15.5738C8.5084 15.7926 8.42148 16.0025 8.26676 16.1572C8.11204 16.3119 7.9022 16.3988 7.68339 16.3988H6.40004C6.18124 16.3988 5.97139 16.3119 5.81668 16.1572C5.66196 16.0025 5.57504 15.7926 5.57504 15.5738L5.60712 12.6047C5.61812 10.8777 5.93346 9.25151 7.87131 8.81518C8.05464 8.77392 8.10231 8.93434 8.13715 9.12868C8.16006 9.26985 8.17656 9.35968 8.18573 9.39818C8.82832 12.2014 9.78991 13.339 11.0678 12.81L11.6728 12.5066L11.9056 12.3875C12.0504 12.3123 12.1348 12.2674 12.1586 12.25C12.1696 12.2408 12.0074 12.0611 11.7855 11.8246L10.8578 10.8465C10.796 10.7815 10.7351 10.7155 10.6754 10.6485C10.6323 10.6174 10.5691 10.7109 10.4848 10.929C10.4169 11.0729 10.2547 11.16 10.2354 11.2279C10.2235 11.281 10.3344 11.501 10.5673 11.8879C10.7176 12.1519 10.7689 12.3535 10.2831 12.2023C9.32974 11.469 8.89157 10.1187 8.7394 8.78767C8.73573 8.75559 8.5909 7.03407 8.5909 7.03407C8.57049 6.74306 8.66651 6.45587 8.85785 6.23565C9.04918 6.01544 9.32015 5.88025 9.61116 5.85981L11.0751 5.85706ZM22.9864 13.8138C23.0203 14.4527 22.617 14.4591 21.8745 14.3556L20.24 14.1026C19.9971 14.054 19.8871 14.0118 19.9531 13.9678C20.3839 13.6791 22.9479 13.1153 22.9864 13.8138ZM22.1476 13.7377L21.2988 13.7762C20.5196 13.8468 19.9678 13.9962 21.6086 14.0842L21.703 14.087C22.4501 14.098 22.8617 13.7579 22.1476 13.7377ZM23.6757 10.4368H23.6849C24.4091 10.8016 23.7463 11.381 23.089 11.7137C22.9607 11.7779 22.639 11.875 22.1247 12.0025C21.9038 12.0391 21.7058 12.0868 21.8195 12.1491L21.8286 12.1537C23.618 13.0319 18.9658 13.5599 19.5415 13.3316L19.8898 13.196C20.5132 12.9521 21.3694 12.5708 21.417 11.9704C21.4519 11.5304 22.5656 11.5652 22.7856 11.083C22.8296 10.9859 22.7856 10.8667 22.6536 10.7264C22.6078 10.6834 22.5675 10.6403 22.5555 10.5908C22.4886 10.3112 23.1972 10.1957 23.6757 10.4368ZM21.3217 10.0023C21.1979 11.1004 19.0493 13.845 19.5351 12.6267L19.5507 12.5882C19.8238 11.931 19.8953 10.5523 20.7763 9.6356C21.0054 9.39726 21.3593 9.66768 21.3217 10.0023ZM14.0103 9.77035C14.0286 9.13418 14.9288 8.88301 15.2441 9.45226C15.2533 8.28442 13.4649 8.74826 14.0103 9.77035Z" fill="#323544"/>
</svg>
