<svg width="24" height="24" viewBox="0 0 24 24" fill="none" xmlns="http://www.w3.org/2000/svg">
<path d="M11.9989 5.59341L12.6207 4.50922L12.6229 4.50704C13.5021 2.97563 15.4461 2.45208 16.9689 3.33558C18.4918 4.21908 19.0132 6.17804 18.134 7.70947L17.5122 8.79367H18.819C20.5753 8.79367 22 10.2269 22 11.9961C22 13.7652 20.5753 15.1985 18.819 15.1985H17.5122L18.134 16.2827C19.011 17.8141 18.4918 19.7731 16.9689 20.6566C15.4461 21.5401 13.4999 21.0165 12.6207 19.4873L11.9989 18.4031L11.3771 19.4873C10.4979 21.0187 8.55396 21.5422 7.03109 20.6587C5.50825 19.7752 4.98679 17.8163 5.86603 16.2849L6.48785 15.2007H5.18097C3.42468 15.2007 2 13.7674 2 11.9982C2 10.2291 3.42468 8.79585 5.18097 8.79585H6.48785L5.86603 7.71162C4.98897 6.18022 5.50825 4.22126 7.03109 3.33776C8.55175 2.45208 10.4979 2.97782 11.3771 4.50922L11.9989 5.59341ZM11.4908 8.67673L10.7651 9.99905C10.5877 10.3296 10.3136 10.5957 9.98299 10.7812L8.66067 11.5068C8.25754 11.7245 8.25754 12.297 8.66067 12.5147L9.98299 13.2403C10.3136 13.4177 10.5796 13.6918 10.7651 14.0224L11.4908 15.3447C11.7084 15.7479 12.2809 15.7479 12.4986 15.3447L13.2243 14.0224C13.4017 13.6918 13.6758 13.4258 14.0064 13.2403L15.3287 12.5147C15.7318 12.297 15.7318 11.7245 15.3287 11.5068L14.0064 10.7812C13.6758 10.6038 13.4097 10.3296 13.2243 9.99905L12.4986 8.67673C12.2809 8.27357 11.7084 8.27357 11.4908 8.67673Z" fill="#323544"/>
</svg>
