<svg width="24" height="24" viewBox="0 0 24 24" fill="none" xmlns="http://www.w3.org/2000/svg">
<path d="M12.014 2.5C12.5973 2.5 13.1569 2.73162 13.5694 3.14398C13.982 3.55655 14.2142 4.11672 14.2142 4.70019C14.2141 5.03638 14.1349 5.36359 13.9908 5.66035H15.9575C18.1344 5.66036 19.9002 7.43359 19.9002 9.62084V10.9405L21.0474 13.2334C21.1033 13.3451 21.1327 13.4681 21.1325 13.5929C21.1322 13.7178 21.1023 13.841 21.0459 13.9524L19.9002 16.2199V17.5403C19.9002 19.7268 18.1345 21.5 15.9575 21.5H8.07206C5.89427 21.5 4.12935 19.7268 4.12935 17.5403V16.2199L2.95813 13.9601C2.89917 13.8469 2.86809 13.7206 2.86768 13.5929C2.86731 13.4654 2.89763 13.3393 2.95581 13.2257L4.12857 10.9405V9.62084C4.1286 7.43358 5.89431 5.66035 8.07128 5.66035H10.038C9.89376 5.36354 9.81462 5.03645 9.81458 4.70019C9.81458 4.11672 10.046 3.55655 10.4586 3.14398C10.8711 2.73156 11.4307 2.50004 12.014 2.5ZM14.8141 10.1009C14.3367 10.101 13.8791 10.2906 13.5416 10.6282C13.2041 10.9657 13.0144 11.4233 13.0144 11.9007V15.1004C13.0144 15.5779 13.204 16.0361 13.5416 16.3737C13.8791 16.7111 14.3368 16.9009 14.8141 16.9009C15.2915 16.9009 15.7498 16.7113 16.0874 16.3737C16.425 16.0361 16.6146 15.5779 16.6146 15.1004V11.9007C16.6146 11.6643 16.5682 11.4302 16.4778 11.2118C16.3873 10.9934 16.2546 10.7946 16.0874 10.6274C15.9202 10.4603 15.7213 10.3282 15.5029 10.2378C15.2844 10.1473 15.0506 10.1008 14.8141 10.1009ZM9.01522 10.1009C8.53778 10.1009 8.07955 10.2906 7.74195 10.6282C7.40446 10.9657 7.21475 11.4233 7.21471 11.9007V15.1004C7.22459 15.5712 7.41864 16.0195 7.75509 16.349C8.09154 16.6784 8.54356 16.8631 9.01444 16.8631C9.48532 16.8631 9.93735 16.6784 10.2738 16.349C10.6102 16.0195 10.8043 15.5712 10.8142 15.1004V11.9007C10.8141 11.4234 10.6243 10.9657 10.2869 10.6282C9.94961 10.2908 9.4923 10.1012 9.01522 10.1009Z" fill="#323544"/>
</svg>
