<svg width="24" height="24" viewBox="0 0 24 24" fill="none" xmlns="http://www.w3.org/2000/svg">
<path d="M3 8.09973C3 5.28355 5.23364 3 7.98927 3H9.35891C9.89891 3 10.3366 3.44755 10.3366 3.99982V4.89982C10.3366 5.45209 9.89891 5.89964 9.35891 5.89964H7.98927C6.85445 5.89964 5.64109 6.94036 5.64109 8.10055V9.49964C5.64109 10.0519 5.20336 10.5003 4.66336 10.5003H3.97855C3.43855 10.5003 3 10.0519 3 9.49964V8.09973ZM21 15.9003C21 18.7165 18.7664 21 16.0107 21H14.6411C14.1011 21 13.6634 20.5525 13.6634 20.0002V19.1002C13.6634 18.5479 14.1011 18.0995 14.6411 18.0995H16.0107C17.1455 18.0995 18.3589 17.0605 18.3589 15.9003V14.5004C18.3589 13.9481 18.7966 13.4997 19.3366 13.4997H20.0215C20.5615 13.4997 21 13.9473 21 14.5004V15.9003ZM16.0107 3C18.7664 3 21 5.28273 21 8.09973V9.49964C21 10.0519 20.5623 10.5003 20.0215 10.5003H19.1411C18.6011 10.5003 18.1634 10.0519 18.1634 9.49964V8.10055C18.1634 6.94036 17.1455 5.7 16.0115 5.7H14.6411C14.1011 5.7 13.6634 5.25245 13.6634 4.70018V3.99982C13.6634 3.44755 14.1011 3 14.6411 3H16.0107ZM7.98927 21C5.23364 21 3 18.7173 3 15.9003V14.5004C3 13.9481 3.43773 13.4997 3.97855 13.4997H4.85891C5.39891 13.4997 5.83664 13.9473 5.83664 14.5004V15.8995C5.83664 17.0596 6.85445 18.3 7.98845 18.3H9.35891C9.89891 18.3 10.3366 18.7475 10.3366 19.2998V20.0002C10.3366 20.5525 9.89891 21 9.35891 21H7.98927Z" fill="#323544"/>
</svg>
