<svg width="24" height="24" viewBox="0 0 24 24" fill="none" xmlns="http://www.w3.org/2000/svg">
<path d="M13.2636 12.3532C13.9494 12.3532 14.2844 13.1798 13.8128 13.6698L9.33209 18.1722C9.26038 18.2448 9.17495 18.3026 9.08075 18.342C8.98655 18.3813 8.88546 18.4016 8.78336 18.4016C8.68125 18.4016 8.58017 18.3813 8.48597 18.342C8.39177 18.3026 8.30633 18.2448 8.23463 18.1722L2.22816 12.1082C2.08206 11.9619 2 11.7637 2 11.557C2 11.3502 2.08206 11.152 2.22816 11.0057L7.27382 5.93672C7.4746 5.73815 7.74559 5.62678 8.02797 5.62678C8.31035 5.62678 8.58133 5.73815 8.78211 5.93672C8.97976 6.13949 9.09037 6.41145 9.09037 6.69461C9.09037 6.97777 8.97976 7.24973 8.78211 7.4525L5.24639 11.0207C5.1003 11.167 5.01823 11.3652 5.01823 11.572C5.01823 11.7787 5.1003 11.9769 5.24639 12.1232L8.24963 15.1398C8.32133 15.2124 8.40677 15.2702 8.50097 15.3096C8.59517 15.3489 8.69625 15.3692 8.79836 15.3692C8.90046 15.3692 9.00155 15.3489 9.09575 15.3096C9.18995 15.2702 9.27538 15.2124 9.34709 15.1398L9.74291 14.7423C9.81651 14.6707 9.87473 14.5849 9.91399 14.49C9.95325 14.3951 9.97273 14.2933 9.97124 14.1906V13.409C9.97124 13.3015 9.97124 13.1948 9.98707 13.0873C10.0003 12.8907 10.0881 12.7066 10.2327 12.5728C10.3772 12.4389 10.5675 12.3654 10.7645 12.3673H13.2636V12.3532Z" fill="#323544"/>
<path d="M21.7825 12.9965L16.7243 18.0813C16.5236 18.2799 16.2526 18.3913 15.9702 18.3913C15.6878 18.3913 15.4168 18.2799 15.2161 18.0813C15.0182 17.8785 14.9074 17.6064 14.9074 17.323C14.9074 17.0397 15.0182 16.7675 15.2161 16.5647L18.7659 12.9965C18.912 12.8502 18.9941 12.652 18.9941 12.4453C18.9941 12.2385 18.912 12.0403 18.7659 11.894L15.7494 8.87746C15.6777 8.80477 15.5922 8.74705 15.498 8.70766C15.4038 8.66827 15.3028 8.64798 15.2007 8.64798C15.0985 8.64798 14.9975 8.66827 14.9033 8.70766C14.8091 8.74705 14.7236 8.80477 14.6519 8.87746L14.2561 9.27494C14.1106 9.42214 14.0287 9.62048 14.0278 9.82743V10.6082C14.0278 10.7166 14.0278 10.8224 14.0119 10.9299C13.9988 11.1265 13.9109 11.3106 13.7663 11.4444C13.6218 11.5783 13.4315 11.6518 13.2345 11.6499H10.7354C10.0496 11.6499 9.71375 10.8232 10.1862 10.3332L13.5845 6.91669L14.0261 6.45587L14.6511 5.82756C14.7228 5.75474 14.8083 5.69692 14.9026 5.65745C14.9968 5.61798 15.098 5.59766 15.2002 5.59766C15.3024 5.59766 15.4036 5.61798 15.4979 5.65745C15.5922 5.69692 15.6777 5.75474 15.7494 5.82756L21.77 11.8774C21.9149 12.0266 21.9971 12.2256 21.9999 12.4335C22.0027 12.6415 21.9258 12.8426 21.785 12.9957L21.7842 12.9965H21.7825Z" fill="#323544"/>
</svg>
