<svg width="24" height="24" viewBox="0 0 24 24" fill="none" xmlns="http://www.w3.org/2000/svg">
<path d="M8.83133 13.7188C9.31576 13.7188 10.2797 13.6918 11.6119 13.1436C13.1642 12.5045 16.2533 11.3433 18.4815 10.1519C20.0403 9.31886 20.7236 8.2158 20.7236 6.73142C20.7236 6.24133 20.627 5.75605 20.4395 5.30328C20.2519 4.85051 19.977 4.43912 19.6304 4.09262C19.2838 3.74611 18.8724 3.47128 18.4196 3.2838C17.9667 3.09633 17.4814 2.99989 16.9914 3H8.35754C6.93617 3.00022 5.57309 3.56501 4.5681 4.57014C3.56312 5.57528 2.99854 6.93845 2.99854 8.35982C2.99854 11.3196 5.24475 13.7188 8.83133 13.7188Z" fill="#323544"/>
<path d="M10.2912 17.4101C10.2911 16.7006 10.5014 16.0069 10.8953 15.4168C11.2893 14.8266 11.8493 14.3665 12.5046 14.0944L15.2238 12.9652C17.9741 11.8245 21.001 13.8457 21.001 16.8234C21.001 17.372 20.8929 17.9151 20.683 18.4219C20.473 18.9287 20.1653 19.3892 19.7774 19.777C19.3895 20.1648 18.929 20.4725 18.4222 20.6823C17.9153 20.8922 17.3721 21.0001 16.8236 21L13.8802 20.9992C13.4088 20.9992 12.942 20.9063 12.5065 20.7259C12.0711 20.5455 11.6754 20.281 11.3421 19.9477C11.0088 19.6143 10.7444 19.2186 10.5641 18.783C10.3838 18.3475 10.2911 17.8815 10.2912 17.4101Z" fill="#323544"/>
<path d="M6.08841 14.425C5.68261 14.4249 5.28077 14.5048 4.90584 14.66C4.53091 14.8152 4.19024 15.0428 3.9033 15.3298C3.61636 15.6167 3.38876 15.9574 3.23352 16.3323C3.07828 16.7072 2.99843 17.1091 2.99854 17.5149V17.915C3.01173 18.7257 3.34303 19.4987 3.92098 20.0673C4.49893 20.636 5.27722 20.9546 6.088 20.9546C6.89878 20.9546 7.67707 20.636 8.25502 20.0673C8.83298 19.4987 9.16427 18.7257 9.17747 17.915V17.5141C9.17747 17.1084 9.09757 16.7067 8.94233 16.3319C8.78709 15.9572 8.55955 15.6166 8.2727 15.3298C7.98586 15.0429 7.64532 14.8154 7.27054 14.6602C6.89576 14.5049 6.49407 14.425 6.08841 14.425Z" fill="#323544"/>
</svg>
