<svg width="24" height="24" viewBox="0 0 24 24" fill="none" xmlns="http://www.w3.org/2000/svg">
<path d="M11.3186 6.8212L11.414 6.89433L9.81518 9.63369C9.18553 9.01503 8.33812 8.66838 7.4554 8.66838C6.57268 8.66838 5.72526 9.01503 5.09561 9.63369C4.52142 10.2149 4.17738 10.9845 4.12725 11.8L4.1217 12.0055C4.1217 12.8933 4.47257 13.746 5.09746 14.3755L5.08543 14.3884C5.71727 15.0087 6.56801 15.3552 7.45343 15.3527C8.33885 15.3503 9.18768 14.9992 9.81611 14.3755L11.4492 17.1102L11.3409 17.188C10.095 18.1198 8.55505 18.5714 7.00324 18.4603C5.45143 18.3491 3.99165 17.6824 2.89135 16.5825C1.68052 15.3677 1.00042 13.7226 1 12.0074C0.998691 10.4245 1.57879 8.89634 2.63012 7.71309C3.68144 6.52983 5.13075 5.77394 6.70274 5.589L6.99159 5.56122C8.53833 5.449 10.0739 5.89614 11.3186 6.8212ZM16.6603 5.51956C18.3762 5.52529 20.0195 6.21227 21.229 7.42943L21.2151 7.44609L21.3947 7.64143C22.3816 8.76704 22.9477 10.2001 22.9963 11.6963L23 11.9787C22.9863 13.24 22.6042 14.4698 21.9006 15.5168C21.1971 16.5638 20.2028 17.3823 19.0401 17.8715C17.8774 18.3607 16.597 18.4993 15.3566 18.2703C14.1161 18.0413 12.9697 17.4546 12.0583 16.5825C10.8474 15.3678 10.1673 13.7226 10.167 12.0074C10.167 10.2928 10.8483 8.64774 12.0602 7.43406V7.41924L12.0796 7.40073C12.6822 6.80168 13.3969 6.32721 14.1828 6.00444C14.9688 5.68166 15.8107 5.5169 16.6603 5.51956ZM16.9427 8.90973L16.7381 8.91529C16.1223 8.95191 15.5284 9.157 15.0212 9.50817C14.5141 9.85934 14.1131 10.3431 13.8621 10.9066C13.6112 11.4702 13.5199 12.0918 13.5982 12.7037C13.6765 13.3156 13.9213 13.8942 14.3061 14.3764C14.9548 14.8879 15.7688 15.1432 16.5934 15.0935C17.418 15.0438 18.1956 14.6928 18.7782 14.1071C19.3607 13.5214 19.7077 12.742 19.753 11.9172C19.7983 11.0923 19.5388 10.2796 19.0238 9.63369C18.4864 9.20885 17.832 8.9585 17.1482 8.91621L16.9445 8.90973H16.9427Z" fill="#323544"/>
</svg>
