<svg width="24" height="24" viewBox="0 0 24 24" fill="none" xmlns="http://www.w3.org/2000/svg">
<path d="M7.14088 21.4992C6.68204 21.4992 6.31205 21.332 6.07051 21.0161C5.82251 20.6914 5.75789 20.2374 5.89279 19.7721L6.43565 17.902C6.45701 17.8285 6.46083 17.751 6.4468 17.6758C6.43277 17.6006 6.40128 17.5298 6.35487 17.469C6.30788 17.4078 6.24744 17.3583 6.17824 17.3243C6.10903 17.2902 6.03292 17.2726 5.9558 17.2727H4.39428C3.93544 17.2727 3.56546 17.1054 3.32392 16.7896C3.07591 16.464 3.01129 16.0108 3.14619 15.5455L5.01227 9.15L5.21826 8.44719C5.49534 7.49396 6.50432 6.71845 7.46886 6.71845H9.33735C9.56031 6.71845 9.75661 6.57304 9.81801 6.36139L10.4352 4.2344C10.7123 3.28117 11.7212 2.50646 12.6866 2.50646L16.6813 2.5H19.6056C20.0644 2.5 20.4352 2.66641 20.676 2.98227C20.924 3.30702 20.9886 3.76101 20.8537 4.22632L20.0176 7.10702C19.7405 8.05863 18.7307 8.83333 17.7662 8.83333L13.7626 8.84141H11.8949C11.7872 8.84108 11.6823 8.8756 11.5958 8.9398C11.5093 9.00401 11.4459 9.09446 11.4151 9.19766L9.85759 14.5325C9.83609 14.6061 9.8322 14.6837 9.84624 14.7591C9.86027 14.8344 9.89183 14.9054 9.93837 14.9663C10.0337 15.0899 10.1807 15.1626 10.3382 15.1626L12.9839 15.1578H15.9001C16.3589 15.1578 16.7289 15.3242 16.9705 15.6409C17.2185 15.9656 17.2831 16.4196 17.1482 16.8849L16.3113 19.7648C16.035 20.7172 15.0252 21.4919 14.0607 21.4919L10.0563 21.5H7.14007L7.14088 21.4992Z" fill="#323544"/>
</svg>
