<svg width="24" height="24" viewBox="0 0 24 24" fill="none" xmlns="http://www.w3.org/2000/svg">
<path d="M6.13546 14.9398C5.89181 15.0421 5.62964 15.0928 5.36546 15.0887C5.07311 15.0936 4.78481 15.0198 4.53073 14.875C4.28584 14.7335 4.0844 14.5275 3.94821 14.2794C3.8026 14.0115 3.72903 13.7103 3.73469 13.4053C3.72705 13.1001 3.80074 12.7984 3.94821 12.5312C4.08773 12.2889 4.28866 12.0878 4.53073 11.9482C4.78504 11.8041 5.07324 11.7306 5.36546 11.7354C5.62455 11.7322 5.88168 11.7806 6.122 11.8775C6.34643 11.97 6.54745 12.1114 6.71042 12.2915L7.79733 11.1911C7.49947 10.8574 7.13296 10.5922 6.72302 10.4137C6.29402 10.2296 5.83136 10.137 5.36459 10.142C4.76493 10.1343 4.17371 10.284 3.64978 10.5761C3.14186 10.8542 2.7197 11.2661 2.42898 11.7672C2.13827 12.2683 1.99007 12.8394 2.00052 13.4188C1.99189 13.9944 2.14042 14.5614 2.43 15.0588C2.71959 15.5562 3.1393 15.965 3.6439 16.2413C4.17063 16.5309 4.76367 16.6783 5.36459 16.6687C5.83136 16.6736 6.29402 16.5811 6.72302 16.397C7.14059 16.2128 7.5153 15.9439 7.82335 15.607L6.72302 14.5057C6.56276 14.6933 6.36179 14.8418 6.13546 14.9398ZM10.1081 14.5192C9.96607 14.5141 9.82461 14.5392 9.69287 14.5927C9.56127 14.6462 9.44227 14.7269 9.34394 14.8296C9.15264 15.0381 9.04651 15.3108 9.04651 15.594C9.04651 15.877 9.15264 16.1498 9.34394 16.3583C9.44227 16.461 9.56127 16.5416 9.69287 16.5952C9.82461 16.6487 9.96607 16.6738 10.1081 16.6687C10.2479 16.6725 10.3869 16.6469 10.5162 16.5935C10.6453 16.54 10.7618 16.4599 10.858 16.3583C11.0493 16.1498 11.1554 15.877 11.1554 15.594C11.1554 15.3108 11.0493 15.0381 10.858 14.8296C10.7618 14.728 10.6453 14.6479 10.5162 14.5944C10.3869 14.5409 10.2479 14.5153 10.1081 14.5192ZM16.3991 10.4272C16.6265 10.5423 16.8321 10.696 17.0069 10.8814L17.0044 10.285H18.6856V16.5416H17.0044V15.9359C16.8283 16.1207 16.623 16.275 16.3967 16.3928C16.0242 16.5828 15.6109 16.6784 15.193 16.6712C14.6493 16.6786 14.1151 16.5303 13.6529 16.2438C13.1965 15.9596 12.8255 15.557 12.5795 15.0787C12.3241 14.5612 12.1911 13.9918 12.1911 13.4146C12.1911 12.8374 12.3241 12.268 12.5795 11.7505C12.8254 11.272 13.1964 10.8693 13.6529 10.5853C14.1155 10.2976 14.6508 10.1484 15.1954 10.1554C15.6127 10.148 16.0256 10.2412 16.3991 10.4272ZM15.5056 15.1022C15.9797 15.1017 16.3635 14.9441 16.6573 14.6294H16.6547C16.9484 14.3142 17.096 13.9062 17.0977 13.4053C17.1034 13.1019 17.0344 12.8017 16.8968 12.5312C16.7704 12.2846 16.5777 12.0783 16.3403 11.9356C16.0869 11.7892 15.7981 11.7152 15.5056 11.7219C15.2175 11.7162 14.9333 11.7902 14.6844 11.9356C14.4471 12.0783 14.2542 12.2846 14.1278 12.5312C13.9906 12.8018 13.9219 13.1019 13.9278 13.4053C13.9211 13.7131 13.9897 14.0178 14.1278 14.2929C14.2545 14.5393 14.4472 14.7455 14.6844 14.8885C14.9333 15.0339 15.2175 15.1078 15.5056 15.1022ZM21.8958 10.2841H20.1878V16.5392H21.8958V10.2841ZM21.4179 9.20952C21.2985 9.25752 21.1703 9.27969 21.0419 9.27459C20.9145 9.27841 20.7878 9.25561 20.6699 9.20767C20.5519 9.15971 20.4453 9.08767 20.3567 8.99612C20.182 8.80912 20.0849 8.56268 20.0849 8.30668C20.0849 8.05068 20.182 7.80424 20.3567 7.61725C20.5396 7.43461 20.7873 7.33203 21.0455 7.33203C21.304 7.33203 21.5517 7.43461 21.7345 7.61725C21.9054 7.80615 22 8.05186 22 8.30668C22 8.5615 21.9054 8.80723 21.7345 8.99612C21.6452 9.0888 21.5373 9.16152 21.4179 9.20952Z" fill="#323544"/>
</svg>
