<svg width="24" height="24" viewBox="0 0 24 24" fill="none" xmlns="http://www.w3.org/2000/svg">
<path d="M14.073 13.376C14.2589 13.376 14.4374 13.4497 14.5689 13.5811C14.7003 13.7126 14.7746 13.891 14.7747 14.077C14.7747 14.2629 14.7004 14.4413 14.5689 14.5728C14.4374 14.7043 14.259 14.7786 14.073 14.7786C13.8871 14.7785 13.7087 14.7042 13.5772 14.5728C13.4458 14.4413 13.3721 14.2628 13.3721 14.077C13.3722 13.891 13.4458 13.7126 13.5772 13.5811C13.7087 13.4497 13.8871 13.3761 14.073 13.376Z" fill="#323544"/>
<path d="M9.92038 13.3775C10.0142 13.3744 10.1081 13.3899 10.1958 13.4237C10.2834 13.4575 10.3634 13.5092 10.4309 13.5745C10.4982 13.6398 10.5517 13.7181 10.5883 13.8045C10.6249 13.8909 10.644 13.9838 10.644 14.0777C10.644 14.1715 10.6249 14.2644 10.5883 14.3509C10.5517 14.4373 10.4983 14.5156 10.4309 14.5808C10.3634 14.6461 10.2833 14.6972 10.1958 14.731C10.1081 14.7648 10.0142 14.7809 9.92038 14.7779C9.73876 14.7718 9.56631 14.6953 9.43993 14.5647C9.31359 14.4341 9.24296 14.2594 9.24291 14.0777C9.24291 13.896 9.31366 13.7213 9.43993 13.5906C9.56631 13.4601 9.73876 13.3835 9.92038 13.3775Z" fill="#323544"/>
<path d="M7.49836 5.06925C8.14336 5.06929 8.76193 5.32578 9.21801 5.78187C9.67405 6.23798 9.93063 6.85654 9.93063 7.50153C9.9306 8.14653 9.6741 8.7651 9.21801 9.22119C8.76193 9.67728 8.14336 9.93377 7.49836 9.9338C6.85337 9.9338 6.2348 9.67723 5.7787 9.22119C5.32261 8.7651 5.06611 8.14653 5.06608 7.50153C5.06608 6.85648 5.32258 6.23799 5.7787 5.78187C6.23481 5.32575 6.85331 5.06925 7.49836 5.06925Z" fill="#323544"/>
<path d="M16.4958 5.06925C17.1408 5.0693 17.7594 5.3258 18.2155 5.78187C18.6715 6.23797 18.9281 6.85655 18.9281 7.50153C18.928 8.14652 18.6715 8.7651 18.2155 9.22119C17.7594 9.67726 17.1408 9.93376 16.4958 9.9338C15.8508 9.9338 15.2322 9.67721 14.7761 9.22119C14.3201 8.7651 14.0636 8.14653 14.0635 7.50153C14.0635 6.85648 14.32 6.23799 14.7761 5.78187C15.2323 5.32577 15.8508 5.06925 16.4958 5.06925Z" fill="#323544"/>
<path d="M7.51007 3.00391C8.82252 3.1854 9.83414 3.81647 10.5451 4.89568C10.6643 5.07556 10.7746 5.32567 10.8571 5.47866C10.8624 5.48846 10.8707 5.49677 10.8805 5.5021C10.8904 5.5074 10.9017 5.50958 10.9128 5.50869C11.6439 5.4412 12.3647 5.44122 13.0741 5.50869C13.0852 5.5097 13.0965 5.50735 13.1063 5.5021C13.1162 5.49676 13.1245 5.48857 13.1297 5.47866C13.2317 5.29121 13.3504 5.0267 13.501 4.80925C14.2135 3.78184 15.2057 3.18093 16.4753 3.00391H17.338C17.752 3.08114 18.0123 3.13713 18.118 3.17162C19.0007 3.46112 19.7052 3.97464 20.2325 4.71185C20.7578 5.43652 21.0273 6.31548 20.9978 7.21004C20.9783 8.10464 20.6697 8.93105 20.0721 9.68919C20.0616 9.70237 20.0551 9.71855 20.0538 9.73533C20.0525 9.75212 20.0565 9.76899 20.0647 9.78366C20.5123 10.5582 20.8088 11.4107 20.9385 12.2958C20.9707 12.5132 20.9889 12.7632 20.9927 13.0428C20.9979 13.434 20.9951 13.6846 20.9846 13.7942C20.6292 17.4097 17.6906 19.981 14.2979 20.7498C13.8052 20.8615 13.2657 20.9441 12.68 20.9973H11.317C11.0374 20.9647 10.758 20.9286 10.4792 20.8897C9.95169 20.8165 9.43117 20.6999 8.92286 20.541C6.8643 19.8976 5.0124 18.5606 3.92867 16.6799C3.50869 15.9509 3.23301 15.217 3.10327 14.479C3.06591 14.2471 3.03161 14.0146 3 13.7818V12.6898C3.10005 11.6626 3.41699 10.6685 3.92941 9.77268C3.93724 9.75903 3.94027 9.74295 3.93893 9.72727C3.93757 9.71162 3.93137 9.69689 3.92135 9.68479C3.49799 9.1771 3.20973 8.57052 3.08203 7.92192C3.05655 7.79082 3.02847 7.65978 3 7.52643V6.66001C3.06824 6.2086 3.16622 5.83281 3.29369 5.53359C3.80663 4.32774 4.86496 3.38637 6.17126 3.10205C6.33025 3.06755 6.49048 3.03466 6.65098 3.00391H7.51007ZM4.21797 15.3315C4.21574 15.3333 4.21446 15.3362 4.21357 15.3389C4.21265 15.3417 4.21262 15.3448 4.21357 15.3477C5.22229 17.8443 7.53164 19.4812 10.143 19.9852C10.8154 20.1156 11.3619 20.1646 11.996 20.1646C12.6311 20.1646 13.1778 20.1156 13.8504 19.9859C16.4618 19.4819 18.7711 17.845 19.7806 15.3484C19.7813 15.3463 19.7816 15.344 19.7813 15.3418C19.781 15.3397 19.7803 15.3377 19.7791 15.3359C19.7779 15.3341 19.7759 15.3326 19.774 15.3315C19.7722 15.3305 19.7702 15.3295 19.7681 15.3293C19.7651 15.3293 19.7616 15.3315 19.7601 15.333C19.4378 15.5788 19.0869 15.7967 18.7069 15.9848C17.3563 16.6575 15.8097 17.0252 14.2994 17.1962C13.5547 17.281 12.7707 17.331 11.9967 17.331C11.2227 17.331 10.4395 17.281 9.6948 17.1962C8.18442 17.0237 6.6379 16.6575 5.28726 15.9848C4.91609 15.8014 4.56377 15.5822 4.23481 15.3308C4.23234 15.3293 4.22894 15.3285 4.22603 15.3286C4.22322 15.3288 4.2202 15.3298 4.21797 15.3315ZM11.996 6.29528C11.6225 6.29528 11.3454 6.30581 11.1669 6.32531C11.1547 6.32647 11.1433 6.33276 11.1354 6.34215C11.1317 6.34693 11.1289 6.35242 11.1274 6.35826C11.1258 6.3642 11.1257 6.37051 11.1266 6.37657C11.1881 6.79504 11.2216 7.13275 11.1691 7.52497C10.9966 8.82078 10.3816 9.81998 9.32421 10.5226C8.6359 10.9792 7.85686 11.2004 6.98641 11.1869C6.16145 11.1742 5.36591 10.8978 4.60394 10.3593C4.60087 10.3572 4.59735 10.3557 4.59369 10.3549C4.58991 10.3542 4.58573 10.3541 4.58197 10.3549C4.57837 10.3558 4.57468 10.3579 4.57171 10.3601C4.56883 10.3622 4.5662 10.365 4.56439 10.3681C4.15198 11.094 3.90844 11.9407 3.8342 12.9088C3.80796 13.2432 3.843 13.5175 3.93893 13.732C4.40991 14.7887 5.94922 15.4609 6.98568 15.7856C7.87428 16.0631 8.77487 16.2534 9.68821 16.3562C10.3248 16.4289 10.9742 16.4751 11.6378 16.4953C11.7503 16.4983 11.8693 16.4997 11.9938 16.4997C12.1174 16.4997 12.2358 16.4983 12.3483 16.4953C12.9998 16.4764 13.6508 16.4301 14.2986 16.3576C15.212 16.2549 16.1133 16.0653 17.0011 15.7886C18.0384 15.4653 19.5776 14.7931 20.0494 13.7371C20.1452 13.5234 20.1803 13.2489 20.1556 12.9146C20.0813 11.9466 19.8385 11.0999 19.4261 10.3725C19.4233 10.3677 19.4187 10.3638 19.4137 10.3615C19.4085 10.3593 19.4023 10.3581 19.3968 10.3593C19.393 10.3603 19.3889 10.3627 19.3858 10.3652C18.6232 10.9028 17.8289 11.1779 17.0033 11.1899C16.1334 11.2033 15.3532 10.9823 14.6663 10.5248C13.6089 9.82141 12.9939 8.82228 12.8228 7.5257C12.7704 7.13347 12.8045 6.79579 12.8668 6.37731C12.8678 6.37125 12.8676 6.36494 12.8661 6.359C12.8645 6.35305 12.8611 6.34767 12.8573 6.34288C12.8535 6.33804 12.8487 6.33411 12.8434 6.33117C12.838 6.32823 12.8319 6.32586 12.8258 6.32531C12.6465 6.30583 12.3699 6.29528 11.996 6.29528ZM7.08748 3.78024C6.65557 3.78027 6.22764 3.86612 5.82923 4.03292C5.43087 4.19974 5.0696 4.44443 4.76653 4.75213C4.46346 5.05987 4.2249 5.42492 4.06417 5.82581C3.90341 6.22677 3.82398 6.6558 3.83053 7.08773C3.8306 7.9516 4.17331 8.78021 4.78411 9.3911C5.39508 10.0021 6.22417 10.3454 7.08822 10.3454C7.95219 10.3454 8.78066 10.002 9.39159 9.3911C10.0025 8.78019 10.3458 7.95168 10.3459 7.08773C10.3525 6.65583 10.2723 6.22674 10.1115 5.82581C9.95077 5.42485 9.71157 5.0599 9.40844 4.75213C9.10532 4.44439 8.74417 4.19973 8.34573 4.03292C7.94729 3.86612 7.51943 3.78024 7.08748 3.78024ZM16.9059 3.82931C16.4782 3.82931 16.0546 3.91392 15.6594 4.07759C15.2642 4.24127 14.905 4.48121 14.6026 4.78362C14.3001 5.0861 14.0595 5.44526 13.8958 5.84046C13.7321 6.23573 13.6483 6.6599 13.6483 7.08773C13.6483 7.95168 13.9916 8.78019 14.6026 9.3911C15.2135 10.002 16.042 10.3454 16.9059 10.3454C17.7699 10.3454 18.5984 10.002 19.2093 9.3911C19.8202 8.78019 20.1636 7.95168 20.1636 7.08773C20.1636 6.6599 20.0798 6.23573 19.9161 5.84046C19.7523 5.44527 19.5118 5.0861 19.2093 4.78362C18.9068 4.48122 18.5476 4.24127 18.1525 4.07759C17.7573 3.91392 17.3337 3.82931 16.9059 3.82931Z" fill="#323544"/>
</svg>
