<svg width="24" height="24" viewBox="0 0 24 24" fill="none" xmlns="http://www.w3.org/2000/svg">
<path d="M5.25667 9.81688C5.25623 8.9312 5.43027 8.05412 5.76885 7.23572C6.10743 6.41731 6.60391 5.67363 7.22995 5.04713C7.85598 4.42063 8.5993 3.92359 9.41745 3.58441C10.2356 3.24522 11.1126 3.07053 11.9982 3.07031H12.0032C15.7265 3.07031 18.7448 6.0936 18.7448 9.81688V12.6435H20.3631C22.2214 12.6435 22.6397 15.2485 20.8756 15.8335L18.7456 16.5418V17.7634C18.7457 18.0401 18.6751 18.3121 18.5404 18.5538C18.4058 18.7954 18.2116 18.9986 17.9763 19.1441C17.741 19.2895 17.4724 19.3724 17.196 19.3848C16.9197 19.3973 16.6447 19.3388 16.3973 19.2151L15.214 18.6259C15.1582 18.6009 15.0899 18.6259 15.0724 18.6851C14.1165 21.6742 9.88493 21.6742 8.92828 18.6851C8.92349 18.6715 8.9159 18.6591 8.90601 18.6487C8.89612 18.6383 8.88414 18.63 8.87086 18.6245C8.85758 18.619 8.84329 18.6164 8.82892 18.6168C8.81455 18.6171 8.80042 18.6205 8.78745 18.6267L7.60413 19.2151C6.52915 19.7567 5.25667 18.9717 5.25667 17.7634V16.5418L3.12587 15.8335C1.35756 15.2526 1.78089 12.6435 3.63836 12.6435H5.25667V9.81688ZM9.06578 11.9943C8.8925 11.9943 8.72633 12.0632 8.60381 12.1857C8.48129 12.3082 8.41245 12.4744 8.41245 12.6477V13.9543C8.41245 14.1276 8.48129 14.2938 8.60381 14.4163C8.72633 14.5388 8.8925 14.6076 9.06578 14.6076C9.23905 14.6076 9.40522 14.5388 9.52775 14.4163C9.65027 14.2938 9.7191 14.1276 9.7191 13.9543V12.6477C9.7191 12.4744 9.65027 12.3082 9.52775 12.1857C9.40522 12.0632 9.23905 11.9943 9.06578 11.9943ZM14.9365 12.6435C14.7632 12.6435 14.5971 12.7123 14.4746 12.8349C14.352 12.9574 14.2832 13.1236 14.2832 13.2968C14.2832 13.4701 14.352 13.6363 14.4746 13.7588C14.5971 13.8813 14.7632 13.9501 14.9365 13.9501C15.1098 13.9501 15.276 13.8813 15.3985 13.7588C15.521 13.6363 15.5898 13.4701 15.5898 13.2968C15.5898 13.1236 15.521 12.9574 15.3985 12.8349C15.276 12.7123 15.1098 12.6435 14.9365 12.6435ZM9.7816 15.4893C9.8144 15.5685 9.86255 15.6404 9.92326 15.701C10.1955 15.9739 10.5189 16.1904 10.875 16.3382C11.231 16.4859 11.6127 16.562 11.9982 16.562C12.3837 16.562 12.7654 16.4859 13.1215 16.3382C13.4775 16.1904 13.801 15.9739 14.0732 15.701C14.1338 15.6404 14.1818 15.5686 14.2146 15.4895C14.2474 15.4104 14.2643 15.3256 14.2644 15.24C14.2644 15.1544 14.2476 15.0696 14.2149 14.9905C14.1821 14.9114 14.1341 14.8395 14.0736 14.7789C14.0131 14.7183 13.9412 14.6703 13.8622 14.6375C13.7831 14.6047 13.6983 14.5877 13.6127 14.5877C13.527 14.5877 13.4423 14.6045 13.3631 14.6372C13.284 14.67 13.2121 14.718 13.1515 14.7785C12.8456 15.0839 12.431 15.2555 11.9986 15.2555C11.5663 15.2555 11.1517 15.0839 10.8457 14.7785C10.7702 14.702 10.6768 14.6455 10.574 14.614C10.4712 14.5825 10.3622 14.577 10.2567 14.5979C10.1513 14.6189 10.0527 14.6657 9.96974 14.7342C9.88682 14.8026 9.82218 14.8906 9.7816 14.9901C9.74859 15.0693 9.7316 15.1543 9.7316 15.2401C9.7316 15.3259 9.74859 15.4101 9.7816 15.4893Z" fill="#323544"/>
</svg>
