<svg width="24" height="24" viewBox="0 0 24 24" fill="none" xmlns="http://www.w3.org/2000/svg">
<path d="M17.4362 13.7143C17.1028 14.1468 16.7453 14.5585 16.3445 14.9385C15.8995 15.3235 15.4337 15.6826 14.9487 16.016C13.677 16.8201 12.1862 17.2059 10.6854 17.1226C10.2938 17.1047 9.92018 16.9531 9.62688 16.693C9.33359 16.4329 9.13835 16.0801 9.07374 15.6935C8.95664 15.084 8.93695 14.4599 9.01541 13.8443C9.09404 13.0433 9.32483 12.2646 9.6954 11.5502C10.2868 10.3083 11.0188 9.13839 11.877 8.06353C12.2865 7.57196 12.7175 7.09873 13.1687 6.64521L13.2229 6.59104C13.4895 6.29957 13.8381 6.09563 14.2229 6.00604C14.2755 6.03455 14.3219 6.07343 14.3592 6.12033C14.3965 6.16722 14.4239 6.22118 14.4398 6.27894C14.4556 6.33671 14.4597 6.39709 14.4516 6.45645C14.4436 6.51582 14.4236 6.57293 14.3929 6.62437L14.3762 6.66354C14.2731 6.897 14.1703 7.13061 14.0679 7.36437L14.0429 7.41853C13.8295 7.90519 13.6187 8.39352 13.4254 8.88852L13.4087 8.93352C13.117 9.56435 13.0045 10.2635 13.0837 10.9552C13.1917 11.4372 13.4242 11.8824 13.7581 12.2465C14.0919 12.6106 14.5153 12.8808 14.9862 13.0301C15.1449 13.0856 15.3191 13.0759 15.4706 13.0031C15.6221 12.9303 15.7386 12.8004 15.7945 12.6418C16.0678 12.0485 16.3353 11.4543 16.6028 10.8602L16.7887 10.446C17.1483 9.73852 17.4251 8.99193 17.6137 8.22102C17.7987 7.5152 17.7045 6.76437 17.352 6.12604C16.9678 5.49948 16.4548 4.96176 15.847 4.54856C14.9745 3.94356 14.0354 3.5669 12.9462 3.77106C12.1052 3.93153 11.3036 4.2545 10.5862 4.72189C9.61436 5.35011 8.74619 6.12578 8.01292 7.02104C7.30512 7.88586 6.68747 8.8207 6.1696 9.81101C5.5179 10.9931 5.08326 12.2823 4.88628 13.6176C4.75978 14.4708 4.78376 15.3394 4.95711 16.1843C5.1742 17.3268 5.78487 18.3571 6.68293 19.0959C7.59419 19.8235 8.71506 20.2392 9.8804 20.2817C10.5087 20.2984 11.1379 20.2659 11.7612 20.1851C12.6778 20.0679 13.5673 19.7934 14.3904 19.3734C14.762 19.1976 15.1204 18.9909 15.4762 18.7851C16.0062 18.4784 16.4778 18.1051 16.9545 17.6968C17.9406 16.849 18.6548 15.7292 19.0078 14.4776L19.0411 14.351L19.1545 13.916C19.1948 13.7617 19.2039 13.601 19.1813 13.4431C19.1587 13.2853 19.1048 13.1336 19.0228 12.9968C18.9685 12.908 18.8928 12.8342 18.8026 12.7822C18.7124 12.7302 18.6106 12.7016 18.5065 12.699C18.4024 12.6965 18.2994 12.72 18.2067 12.7675C18.1141 12.815 18.0348 12.885 17.9762 12.971C17.8503 13.1526 17.7228 13.3318 17.5912 13.5085L17.4812 13.6551L17.4362 13.7143ZM18.4345 10.986C18.8475 10.9714 19.2567 11.0686 19.619 11.2673C19.9813 11.4661 20.2832 11.759 20.4928 12.1152C20.8953 12.7868 21.0111 13.5918 20.8136 14.3485L20.7003 14.7835C20.2729 16.4233 19.3554 17.8937 18.0703 18.9984C17.5662 19.4293 17.0012 19.8834 16.3345 20.2684L16.3112 20.2826C15.9762 20.4759 15.5745 20.7084 15.1462 20.9126C14.1545 21.4142 13.0837 21.7434 11.9812 21.8851C11.2696 21.9776 10.5512 22.0142 9.83373 21.9951H9.81873C8.28633 21.9395 6.81228 21.3933 5.61377 20.4367L5.59377 20.4201C4.38944 19.4292 3.56938 18.0484 3.27546 16.5168C3.06419 15.48 3.03543 14.4143 3.19046 13.3676C3.41632 11.8361 3.91355 10.3571 4.65878 9.00018C5.2288 7.91253 5.90783 6.88561 6.68543 5.93521C7.53083 4.90285 8.53167 4.00827 9.65207 3.28357C10.556 2.69526 11.5659 2.28879 12.6254 2.08691H12.6287L12.6312 2.08525C14.3454 1.76525 15.7503 2.39691 16.8178 3.13524C17.6236 3.68442 18.3038 4.39815 18.8137 5.22939L18.8337 5.26272L18.8528 5.29772C19.4155 6.31726 19.567 7.5134 19.2761 8.64102C19.077 9.44935 18.7953 10.236 18.4345 10.986Z" fill="#323544"/>
</svg>
