<svg width="24" height="24" viewBox="0 0 24 24" fill="none" xmlns="http://www.w3.org/2000/svg">
<path d="M20.1843 10.245L12.0093 14.9075L3.25433 9.92583L2.8335 10.1558V13.7725L12.0085 18.9858L20.1843 14.3408V16.255L12.0093 20.9183L3.25433 15.9358L2.8335 16.1667V16.7875L12.0085 22L21.1668 16.7875V13.1708L20.746 12.94L12.0093 17.9042L3.816 13.2592V11.3442L12.0093 15.9892L21.1668 10.7767V7.2125L20.711 6.94667L12.0093 11.8933L4.23683 7.49667L12.0093 3.08167L18.3952 6.71667L18.956 6.3975V5.95417L12.0093 2L2.8335 7.2125V7.78L12.0085 12.9925L20.1843 8.33V10.245Z" fill="#323544"/>
</svg>
