<svg width="24" height="24" viewBox="0 0 24 24" fill="none" xmlns="http://www.w3.org/2000/svg">
<path d="M15.1482 12.2332C14.3889 12.2332 13.7737 11.6181 13.7737 10.8587C13.7737 10.7786 13.7805 10.7002 13.7941 10.6239L10.5069 8.73107C10.2677 8.93305 9.9585 9.05495 9.62105 9.05495C8.8617 9.05495 8.24624 8.43949 8.24624 7.68042C8.24624 6.92134 8.8617 6.30588 9.62105 6.30588C10.3804 6.30588 10.9959 6.92134 10.9959 7.68042C10.9959 7.76783 10.9869 7.85335 10.9711 7.93643L14.2464 9.82217C14.4877 9.61177 14.8032 9.48417 15.1482 9.48417C15.907 9.48417 16.5225 10.0996 16.5225 10.8587C16.5225 11.6181 15.907 12.2332 15.1482 12.2332ZM10.979 14.0587C10.979 14.8178 10.3638 15.4333 9.60449 15.4333C8.84568 15.4333 8.23022 14.8178 8.23022 14.0587C8.23022 13.2994 8.84568 12.6839 9.60449 12.6839C9.94575 12.6839 10.2574 12.8085 10.4977 13.0143L12.8941 11.6371C12.9964 11.9327 13.1555 12.202 13.3578 12.4322L10.957 13.8122C10.9711 13.8923 10.979 13.9746 10.979 14.0587ZM19.2442 5.67006L12.7171 1.94038C12.2727 1.68654 11.727 1.68654 11.2825 1.94038L4.75601 5.67006C4.30535 5.92743 4.02734 6.40687 4.02734 6.92541V14.5124C4.02734 15.0287 4.3029 15.5063 4.75031 15.7645L15.9863 22.25L15.9882 17.6434L19.2488 15.7645C19.6967 15.5063 19.9725 15.0287 19.9725 14.5118V6.92541C19.9725 6.40687 19.6945 5.92743 19.2442 5.67006Z" fill="#323544"/>
</svg>
