<svg width="24" height="24" viewBox="0 0 24 24" fill="none" xmlns="http://www.w3.org/2000/svg">
<path d="M21.7902 5.87592C21.5783 5.77212 21.4871 5.96994 21.3632 6.07043C21.3208 6.10285 21.285 6.14498 21.2491 6.18388C20.9395 6.51454 20.5777 6.73183 20.1051 6.70585C19.4142 6.66692 18.8242 6.8842 18.3027 7.41269C18.1919 6.76101 17.8236 6.37188 17.263 6.12228C16.9697 5.99257 16.6731 5.86286 16.4677 5.58077C16.3243 5.37982 16.2852 5.15609 16.2135 4.93561C16.1679 4.80269 16.1222 4.66647 15.969 4.64377C15.8028 4.61786 15.7376 4.75721 15.6724 4.87401C15.4117 5.35064 15.3107 5.87589 15.3204 6.40761C15.3432 7.60403 15.8484 8.55719 16.8523 9.23485C16.9664 9.31267 16.9957 9.39043 16.9599 9.50398C16.8914 9.73743 16.8099 9.96435 16.7382 10.1978C16.6926 10.347 16.6241 10.3794 16.4644 10.3145C15.9136 10.0844 15.4377 9.74387 15.0173 9.33214C14.3035 8.64153 13.6581 7.87961 12.8531 7.28301C12.6641 7.14359 12.475 7.01395 12.2794 6.89068C11.4581 6.09314 12.387 5.43815 12.6021 5.36039C12.827 5.27933 12.6804 5.00044 11.9535 5.00375C11.2267 5.00695 10.5618 5.25015 9.7144 5.57437C9.59056 5.62301 9.46014 5.65863 9.32652 5.68782C8.55733 5.54195 7.75879 5.50946 6.92441 5.60355C5.35341 5.77859 4.09863 6.52109 3.17625 7.78883C2.06811 9.31267 1.80738 11.044 2.12679 12.85C2.46251 14.7531 3.43375 16.3288 4.92653 17.561C6.47472 18.8383 8.25756 19.4641 10.2913 19.3442C11.5266 19.2728 12.9021 19.1075 14.4535 17.7944C14.8446 17.989 15.2553 18.0667 15.9365 18.1251C16.4612 18.1737 16.9664 18.0992 17.3575 18.0181C17.9703 17.8884 17.9279 17.321 17.7063 17.2173C15.9104 16.3808 16.3048 16.7212 15.9463 16.4456C16.8589 15.366 18.2343 14.2441 18.7721 10.6095C18.8144 10.321 18.7786 10.1394 18.7721 9.90596C18.7688 9.76333 18.8014 9.70825 18.9644 9.69198C19.4142 9.6401 19.8509 9.51694 20.2518 9.29645C21.4154 8.661 21.8847 7.61698 21.9955 6.36547C22.0118 6.17416 21.9923 5.97634 21.7902 5.87592ZM11.6505 17.1394C9.91001 15.7713 9.06589 15.3205 8.71711 15.34C8.39118 15.3595 8.44986 15.7323 8.52153 15.9755C8.59651 16.2154 8.6943 16.3808 8.83116 16.5915C8.92568 16.7309 8.99091 16.9384 8.73668 17.0941C8.17607 17.441 7.20152 16.9773 7.15586 16.9547C6.02168 16.2867 5.07321 15.4048 4.40502 14.1988C3.75968 13.038 3.38489 11.793 3.32293 10.4637C3.30664 10.1427 3.40115 10.0292 3.72057 9.97087C4.14101 9.89304 4.57452 9.87678 4.99496 9.93838C6.77132 10.1978 8.28361 10.9921 9.55145 12.2501C10.275 12.9666 10.8226 13.8227 11.3865 14.6591C11.9862 15.5475 12.6315 16.3938 13.4528 17.0876C13.7429 17.3307 13.9743 17.5155 14.1959 17.6517C13.5278 17.7263 12.4131 17.7426 11.6505 17.1394ZM12.4848 11.7735C12.4848 11.6309 12.5989 11.5174 12.7424 11.5174C12.775 11.5174 12.8043 11.5238 12.8304 11.5335C12.8663 11.5466 12.8989 11.566 12.9249 11.5951C12.9706 11.6406 12.9966 11.7054 12.9966 11.7735C12.9966 11.9162 12.8826 12.0296 12.7392 12.0296C12.5958 12.0296 12.4848 11.9162 12.4848 11.7735ZM15.076 13.1029C14.9098 13.171 14.7436 13.2293 14.5839 13.2358C14.3362 13.2487 14.0656 13.1482 13.919 13.025C13.6908 12.8337 13.5279 12.7268 13.4594 12.3928C13.4301 12.2501 13.4464 12.0296 13.4725 11.9032C13.5311 11.6309 13.4659 11.4558 13.2737 11.2969C13.1172 11.1672 12.9184 11.1316 12.7 11.1316C12.6185 11.1316 12.5436 11.0959 12.4882 11.0667C12.3969 11.0213 12.322 10.9078 12.3936 10.7684C12.4165 10.7231 12.5273 10.6128 12.5534 10.5934C12.85 10.4247 13.1922 10.4799 13.5084 10.6063C13.8017 10.7263 14.0234 10.9468 14.3427 11.258C14.6687 11.6341 14.7273 11.7379 14.9131 12.0199C15.0598 12.2404 15.1934 12.4673 15.2847 12.7268C15.3401 12.8889 15.2683 13.0218 15.076 13.1029Z" fill="#323544"/>
</svg>
