<svg width="24" height="24" viewBox="0 0 24 24" fill="none" xmlns="http://www.w3.org/2000/svg">
<path d="M5.09489 8.69163C4.61343 8.691 4.15187 8.49946 3.81142 8.15901C3.47098 7.81857 3.27944 7.357 3.27881 6.87554C3.27923 6.39394 3.47067 5.93218 3.81114 5.59156C4.15161 5.25094 4.61329 5.0593 5.09489 5.05867C5.57677 5.05888 6.03885 5.25034 6.37967 5.591C6.72048 5.93166 6.91214 6.39367 6.91256 6.87554C6.91172 7.35714 6.71987 7.81874 6.37911 8.15906C6.03834 8.49938 5.57649 8.69142 5.09489 8.69163ZM5.09489 5.77196C4.80923 5.78278 4.53887 5.90386 4.3406 6.10979C4.14232 6.31572 4.03155 6.59047 4.03155 6.87633C4.03155 7.1622 4.14232 7.43695 4.3406 7.64287C4.53887 7.8488 4.80923 7.96989 5.09489 7.98071C5.38055 7.96989 5.65091 7.8488 5.84919 7.64287C6.04747 7.43695 6.15824 7.1622 6.15824 6.87633C6.15824 6.59047 6.04747 6.31572 5.84919 6.10979C5.65091 5.90386 5.38055 5.78278 5.09489 5.77196ZM5.09489 13.8153C4.61329 13.8147 4.15161 13.623 3.81114 13.2824C3.47067 12.9418 3.27923 12.48 3.27881 11.9984C3.27944 11.517 3.47098 11.0554 3.81142 10.7149C4.15187 10.3745 4.61343 10.183 5.09489 10.1823C5.57649 10.1828 6.03826 10.3742 6.37887 10.7147C6.71949 11.0551 6.91114 11.5168 6.91177 11.9984C6.91135 12.4802 6.71979 12.942 6.37915 13.2827C6.03851 13.6233 5.57663 13.8149 5.09489 13.8153ZM5.09489 10.8956C4.80944 10.9064 4.53928 11.0274 4.34115 11.2332C4.14301 11.439 4.03233 11.7135 4.03233 11.9992C4.03233 12.2849 4.14301 12.5594 4.34115 12.7652C4.53928 12.971 4.80944 13.092 5.09489 13.1028C5.24333 13.1084 5.39138 13.084 5.53018 13.0311C5.66898 12.9782 5.79568 12.8978 5.90269 12.7948C6.0097 12.6917 6.09482 12.5682 6.15296 12.4315C6.21111 12.2948 6.24108 12.1478 6.24108 11.9992C6.24108 11.8507 6.21111 11.7036 6.15296 11.5669C6.09482 11.4302 6.0097 11.3067 5.90269 11.2037C5.79568 11.1006 5.66898 11.0202 5.53018 10.9673C5.39138 10.9144 5.24333 10.89 5.09489 10.8956ZM5.09489 18.9358C4.61343 18.9352 4.15187 18.7436 3.81142 18.4032C3.47098 18.0627 3.27944 17.6012 3.27881 17.1197C3.27923 16.6381 3.47067 16.1763 3.81114 15.8357C4.15161 15.4951 4.61329 15.3035 5.09489 15.3028C5.57663 15.3033 6.03851 15.4948 6.37915 15.8354C6.71979 16.1761 6.91135 16.638 6.91177 17.1197C6.91114 17.6013 6.71949 18.063 6.37887 18.4035C6.03826 18.7439 5.57649 18.9354 5.09489 18.9358ZM5.09489 16.0161C4.80923 16.0269 4.53887 16.148 4.3406 16.354C4.14232 16.5599 4.03155 16.8346 4.03155 17.1205C4.03155 17.4064 4.14232 17.6811 4.3406 17.887C4.53887 18.093 4.80923 18.2141 5.09489 18.2249C5.38055 18.2141 5.65091 18.093 5.84919 17.887C6.04747 17.6811 6.15824 17.4064 6.15824 17.1205C6.15824 16.8346 6.04747 16.5599 5.84919 16.354C5.65091 16.148 5.38055 16.0269 5.09489 16.0161ZM18.9047 8.69163C18.4231 8.69121 17.9614 8.49976 17.6207 8.15929C17.2801 7.81882 17.0885 7.35714 17.0879 6.87554C17.0883 6.39394 17.2797 5.93218 17.6202 5.59156C17.9607 5.25094 18.4223 5.0593 18.9039 5.05867C19.3857 5.05909 19.8476 5.25064 20.1882 5.59128C20.5288 5.93192 20.7204 6.39381 20.7208 6.87554C20.7202 7.357 20.5286 7.81857 20.1882 8.15901C19.8477 8.49946 19.3862 8.691 18.9047 8.69163ZM18.9047 5.77196C18.6861 5.7718 18.4723 5.83651 18.2904 5.95788C18.1086 6.07926 17.9668 6.25186 17.883 6.45383C17.7993 6.65581 17.7773 6.87808 17.82 7.09254C17.8626 7.30699 17.9679 7.50399 18.1225 7.6586C18.2771 7.8132 18.4741 7.91848 18.6885 7.96109C18.903 8.00371 19.1253 7.98176 19.3272 7.89801C19.5292 7.81427 19.7018 7.67249 19.8232 7.49063C19.9446 7.30876 20.0093 7.09498 20.0091 6.87633C20.0091 6.26675 19.5135 5.77196 18.9047 5.77196ZM18.9047 13.8153C18.423 13.8149 17.9611 13.6233 17.6205 13.2827C17.2798 12.942 17.0883 12.4802 17.0879 11.9984C17.0885 11.517 17.28 11.0554 17.6205 10.7149C17.9609 10.3745 18.4225 10.183 18.9039 10.1823C19.3855 10.1828 19.8473 10.3742 20.1879 10.7147C20.5285 11.0551 20.7202 11.5168 20.7208 11.9984C20.7204 12.48 20.5289 12.9418 20.1885 13.2824C19.848 13.623 19.3863 13.8147 18.9047 13.8153ZM18.9047 10.8956C18.2959 10.8956 17.8004 11.3904 17.8004 11.9984C17.8112 12.2841 17.9323 12.5544 18.1382 12.7527C18.3441 12.951 18.6189 13.0618 18.9047 13.0618C19.1906 13.0618 19.4653 12.951 19.6713 12.7527C19.8772 12.5544 19.9983 12.2841 20.0091 11.9984C20.0091 11.3888 19.5135 10.8956 18.9047 10.8956ZM18.9047 18.9358C18.4231 18.9354 17.9614 18.7439 17.6207 18.4035C17.2801 18.063 17.0885 17.6013 17.0879 17.1197C17.0883 16.6381 17.2797 16.1763 17.6202 15.8357C17.9607 15.4951 18.4223 15.3035 18.9039 15.3028C19.3857 15.3033 19.8476 15.4948 20.1882 15.8354C20.5288 16.1761 20.7204 16.638 20.7208 17.1197C20.7202 17.6012 20.5286 18.0627 20.1882 18.4032C19.8477 18.7436 19.3862 18.9352 18.9047 18.9358ZM18.9047 16.0161C18.6861 16.016 18.4723 16.0807 18.2904 16.202C18.1086 16.3234 17.9668 16.496 17.883 16.698C17.7993 16.9 17.7773 17.1222 17.82 17.3367C17.8626 17.5512 17.9679 17.7482 18.1225 17.9028C18.2771 18.0574 18.4741 18.1626 18.6885 18.2053C18.903 18.2479 19.1253 18.2259 19.3272 18.1422C19.5292 18.0584 19.7018 17.9167 19.8232 17.7348C19.9446 17.5529 20.0093 17.3391 20.0091 17.1205C20.0091 16.5109 19.5135 16.0161 18.9047 16.0161ZM11.9998 11.2535C11.5183 11.2528 11.0568 11.0613 10.7163 10.7208C10.3759 10.3804 10.1844 9.91884 10.1837 9.43737C10.1841 8.95577 10.3756 8.49401 10.7161 8.15339C11.0565 7.81278 11.5182 7.62113 11.9998 7.6205C12.4815 7.62092 12.9434 7.81247 13.2841 8.15311C13.6247 8.49375 13.8163 8.95564 13.8167 9.43737C13.8161 9.91897 13.6244 10.3807 13.2838 10.7211C12.9432 11.0616 12.4814 11.253 11.9998 11.2535ZM11.9998 8.33379C11.7812 8.33363 11.5674 8.39834 11.3855 8.51972C11.2036 8.64109 11.0619 8.81369 10.9781 9.01566C10.8944 9.21764 10.8724 9.43992 10.915 9.65437C10.9577 9.86883 11.0629 10.0658 11.2175 10.2204C11.3722 10.375 11.5691 10.4803 11.7836 10.5229C11.9981 10.5655 12.2203 10.5436 12.4223 10.4598C12.6243 10.3761 12.7969 10.2343 12.9183 10.0525C13.0396 9.8706 13.1043 9.65682 13.1042 9.43817C13.1042 8.82858 12.6094 8.33379 11.9998 8.33379ZM12.0006 6.13296C11.5189 6.13254 11.057 5.94098 10.7163 5.60034C10.3757 5.25971 10.1841 4.79782 10.1837 4.31608C10.1844 3.83448 10.376 3.3728 10.7166 3.03233C11.0572 2.69187 11.519 2.50042 12.0006 2.5C12.4821 2.50063 12.9436 2.69217 13.2841 3.03261C13.6245 3.37306 13.8161 3.83462 13.8167 4.31608C13.8163 4.79768 13.6248 5.25945 13.2844 5.60007C12.9439 5.94068 12.4822 6.13233 12.0006 6.13296ZM12.0006 3.21329C11.782 3.21314 11.5682 3.27784 11.3863 3.39922C11.2044 3.52059 11.0627 3.69319 10.9789 3.89516C10.8952 4.09714 10.8732 4.31942 10.9158 4.53387C10.9585 4.74833 11.0637 4.94532 11.2183 5.09993C11.3729 5.25454 11.5699 5.35981 11.7844 5.40243C11.9988 5.44505 12.2211 5.42309 12.4231 5.33935C12.6251 5.2556 12.7977 5.11383 12.9191 4.93196C13.0404 4.7501 13.1051 4.53632 13.105 4.31767C13.105 3.70808 12.6094 3.21329 12.0006 3.21329ZM12.0006 16.3771C11.5189 16.3767 11.057 16.1852 10.7163 15.8445C10.3757 15.5039 10.1841 15.042 10.1837 14.5603C10.1844 14.0787 10.376 13.617 10.7166 13.2765C11.0572 12.936 11.519 12.7446 12.0006 12.7442C12.4821 12.7448 12.9436 12.9363 13.2841 13.2768C13.6245 13.6172 13.8161 14.0788 13.8167 14.5603C13.8163 15.0419 13.6248 15.5036 13.2844 15.8442C12.9439 16.1848 12.4822 16.3765 12.0006 16.3771ZM12.0006 13.4575C11.782 13.4573 11.5682 13.522 11.3863 13.6434C11.2044 13.7648 11.0627 13.9374 10.9789 14.1393C10.8952 14.3413 10.8732 14.5636 10.9158 14.778C10.9585 14.9925 11.0637 15.1895 11.2183 15.3441C11.3729 15.4987 11.5699 15.604 11.7844 15.6466C11.9988 15.6892 12.2211 15.6673 12.4231 15.5835C12.6251 15.4998 12.7977 15.358 12.9191 15.1761C13.0404 14.9943 13.1051 14.7805 13.105 14.5618C13.105 13.9522 12.6094 13.4575 12.0006 13.4575ZM11.9998 21.5C11.5182 21.4994 11.0565 21.3077 10.7161 20.9671C10.3756 20.6265 10.1841 20.1647 10.1837 19.6831C10.1844 19.2017 10.3759 18.7401 10.7163 18.3997C11.0568 18.0592 11.5183 17.8677 11.9998 17.867C12.4814 17.8675 12.9432 18.0589 13.2838 18.3994C13.6244 18.7398 13.8161 19.2015 13.8167 19.6831C13.8163 20.1649 13.6247 20.6267 13.2841 20.9674C12.9434 21.308 12.4815 21.4996 11.9998 21.5ZM11.9998 18.5803C11.7812 18.5802 11.5674 18.6449 11.3855 18.7663C11.2036 18.8876 11.0619 19.0602 10.9781 19.2622C10.8944 19.4642 10.8724 19.6865 10.915 19.9009C10.9577 20.1154 11.0629 20.3124 11.2175 20.467C11.3722 20.6216 11.5691 20.7269 11.7836 20.7695C11.9981 20.8121 12.2203 20.7901 12.4223 20.7064C12.6243 20.6226 12.7969 20.4809 12.9183 20.299C13.0396 20.1171 13.1043 19.9034 13.1042 19.6847C13.1042 19.0751 12.6094 18.5803 11.9998 18.5803Z" fill="#323544"/>
<path d="M9.10785 9.00908C9.03274 9.00925 8.9583 8.995 8.88856 8.96712L7.70581 8.49529C7.63114 8.46802 7.5627 8.42603 7.50457 8.37182C7.44643 8.3176 7.39977 8.25227 7.36735 8.17968C7.33494 8.10709 7.31743 8.02874 7.31586 7.94926C7.3143 7.86978 7.32871 7.7908 7.35824 7.71699C7.38778 7.64319 7.43183 7.57606 7.48779 7.5196C7.54375 7.46314 7.61048 7.41849 7.68402 7.3883C7.75756 7.35812 7.83641 7.343 7.9159 7.34386C7.99539 7.34471 8.0739 7.36153 8.14677 7.39329L9.32873 7.86433C9.45663 7.91568 9.56268 8.00993 9.6287 8.13092C9.69473 8.2519 9.7166 8.39208 9.69058 8.52743C9.66456 8.66278 9.59226 8.78486 9.48609 8.87274C9.37991 8.96062 9.24568 9.00882 9.10785 9.00908ZM9.10785 14.0314C9.03274 14.0316 8.95831 14.0173 8.88856 13.9895L7.70581 13.5184C7.55957 13.4599 7.44255 13.3458 7.38049 13.201C7.31843 13.0563 7.31642 12.8928 7.37489 12.7465C7.43337 12.6003 7.54754 12.4833 7.69229 12.4212C7.83705 12.3592 8.00053 12.3572 8.14677 12.4156L9.32873 12.8875C9.45612 12.9391 9.56164 13.0334 9.62728 13.1542C9.69291 13.275 9.71459 13.4148 9.68862 13.5498C9.66265 13.6849 9.59063 13.8067 9.48486 13.8945C9.37909 13.9823 9.24533 14.0307 9.10785 14.0314ZM16.0436 11.5226C15.9685 11.5226 15.894 11.508 15.8244 11.4799L14.6424 11.0088C14.5667 10.9824 14.4971 10.941 14.4379 10.887C14.3787 10.833 14.331 10.7675 14.2977 10.6946C14.2645 10.6217 14.2463 10.5427 14.2444 10.4626C14.2424 10.3825 14.2567 10.3028 14.2864 10.2283C14.3161 10.1538 14.3606 10.0862 14.4171 10.0294C14.4737 9.97254 14.5411 9.92776 14.6154 9.89772C14.6898 9.86768 14.7694 9.85301 14.8495 9.85457C14.9297 9.85614 15.0087 9.87391 15.0818 9.90683L16.2637 10.3779C16.3916 10.4292 16.4977 10.5235 16.5637 10.6445C16.6297 10.7654 16.6516 10.9056 16.6256 11.041C16.5996 11.1763 16.5273 11.2984 16.4211 11.3863C16.3149 11.4742 16.1815 11.5224 16.0436 11.5226ZM16.0436 6.49792C15.9685 6.49779 15.8941 6.48328 15.8244 6.45517L14.6424 5.98333C14.5029 5.92051 14.3931 5.80628 14.3357 5.66446C14.2784 5.52263 14.278 5.36416 14.3347 5.22206C14.3913 5.07997 14.5007 4.96522 14.6398 4.90174C14.779 4.83826 14.9373 4.83095 15.0818 4.88133L16.2637 5.35317C16.3911 5.40484 16.4966 5.49912 16.5623 5.61992C16.6279 5.74072 16.6496 5.88055 16.6236 6.01556C16.5976 6.15056 16.5256 6.27237 16.4199 6.36019C16.3141 6.44801 16.1811 6.4972 16.0436 6.49792ZM16.0436 16.5434C15.9685 16.5435 15.8941 16.5293 15.8244 16.5014L14.6416 16.0296C14.5664 16.0028 14.4973 15.9611 14.4386 15.907C14.3799 15.8529 14.3326 15.7875 14.2998 15.7147C14.2669 15.6419 14.2491 15.5632 14.2473 15.4834C14.2455 15.4036 14.2599 15.3242 14.2895 15.25C14.3191 15.1759 14.3634 15.1085 14.4197 15.0518C14.476 14.9952 14.5431 14.9504 14.6171 14.9203C14.691 14.8902 14.7703 14.8754 14.8502 14.8766C14.93 14.8778 15.0088 14.8952 15.0818 14.9276L16.2637 15.3994C16.3911 15.4511 16.4966 15.5454 16.5623 15.6662C16.6279 15.787 16.6496 15.9268 16.6236 16.0618C16.5976 16.1968 16.5256 16.3186 16.4199 16.4064C16.3141 16.4943 16.1811 16.5427 16.0436 16.5434ZM7.95756 16.7231C7.82001 16.7226 7.68692 16.6743 7.58101 16.5865C7.4751 16.4988 7.40295 16.377 7.37687 16.2419C7.3508 16.1068 7.37242 15.9669 7.43804 15.8461C7.50367 15.7252 7.60922 15.6308 7.73668 15.5791L8.91943 15.1081C9.06557 15.0497 9.2289 15.0518 9.37351 15.1138C9.51812 15.1759 9.63215 15.2929 9.69052 15.439C9.74889 15.5851 9.74681 15.7485 9.68475 15.8931C9.6227 16.0377 9.50573 16.1517 9.3596 16.2101L8.17764 16.6811C8.10789 16.709 8.03266 16.7232 7.95756 16.7231ZM7.95756 11.7308C7.81966 11.7308 7.6861 11.6827 7.57978 11.5949C7.47347 11.507 7.40103 11.385 7.37491 11.2496C7.34878 11.1142 7.3706 10.9739 7.43661 10.8528C7.50262 10.7318 7.60872 10.6375 7.73668 10.5861L8.91943 10.115C9.06412 10.0635 9.22315 10.07 9.36313 10.1332C9.50311 10.1965 9.61314 10.3115 9.67011 10.4541C9.72709 10.5967 9.72657 10.7559 9.66867 10.8982C9.61077 11.0404 9.49999 11.1547 9.3596 11.217L8.17764 11.6881C8.10789 11.7159 8.03346 11.7302 7.95835 11.73L7.95756 11.7308ZM7.95756 6.48446C7.81966 6.48438 7.6861 6.43631 7.57978 6.34849C7.47347 6.26067 7.40103 6.13859 7.37491 6.0032C7.34878 5.8678 7.3706 5.72753 7.43661 5.60647C7.50262 5.4854 7.60872 5.39108 7.73668 5.33971L8.91943 4.86867C9.06412 4.81711 9.22315 4.82363 9.36313 4.88686C9.50311 4.95008 9.61314 5.06509 9.67011 5.20773C9.72709 5.35037 9.72657 5.50954 9.66867 5.6518C9.61077 5.79406 9.49999 5.90835 9.3596 5.97067L8.17764 6.4425C8.10789 6.47034 8.03266 6.48458 7.95756 6.48446ZM9.10785 19.4132C9.03274 19.4133 8.95831 19.3991 8.88856 19.3712L7.70581 18.8994C7.56633 18.8366 7.45648 18.7223 7.39915 18.5805C7.34183 18.4387 7.34145 18.2802 7.39811 18.1381C7.45476 17.996 7.56407 17.8813 7.70325 17.8178C7.84243 17.7543 8.00074 17.747 8.14518 17.7974L9.32793 18.2684C9.45584 18.3198 9.56189 18.414 9.62791 18.535C9.69393 18.656 9.71581 18.7962 9.68979 18.9315C9.66377 19.0669 9.59147 19.1889 9.48529 19.2768C9.37912 19.3647 9.24568 19.4129 9.10785 19.4132ZM14.8609 9.00987C14.7227 9.01007 14.5888 8.96207 14.4822 8.87414C14.3756 8.7862 14.303 8.66385 14.277 8.52815C14.2509 8.39245 14.273 8.25191 14.3394 8.13074C14.4058 8.00957 14.5124 7.91535 14.6408 7.86433L15.8236 7.39329C15.9693 7.33741 16.1312 7.34115 16.2741 7.40371C16.4171 7.46627 16.5297 7.58262 16.5876 7.72757C16.6455 7.87253 16.6439 8.03444 16.5833 8.17826C16.5227 8.32209 16.4079 8.43626 16.2637 8.49608L15.081 8.96712C15.0115 8.99514 14.9374 9.00965 14.8625 9.00987H14.8609ZM14.8609 14.0322C14.7231 14.0319 14.5896 13.9837 14.4834 13.8959C14.3773 13.808 14.305 13.6859 14.279 13.5506C14.2529 13.4152 14.2748 13.275 14.3408 13.154C14.4069 13.0331 14.5129 12.9388 14.6408 12.8875L15.8236 12.4156C15.9699 12.3573 16.1334 12.3594 16.2782 12.4216C16.4229 12.4838 16.5371 12.601 16.5954 12.7473C16.6538 12.8937 16.6516 13.0572 16.5894 13.202C16.5272 13.3467 16.4101 13.4608 16.2637 13.5192L15.081 13.9902C15.0115 14.018 14.9373 14.0323 14.8625 14.0322H14.8609ZM14.8609 19.4124C14.7229 19.4126 14.5891 19.3647 14.4827 19.2769C14.3762 19.1891 14.3037 19.067 14.2776 18.9314C14.2515 18.7959 14.2736 18.6556 14.3398 18.5345C14.4061 18.4135 14.5126 18.3194 14.6408 18.2684L15.8236 17.7974C15.8966 17.7645 15.9756 17.7467 16.0558 17.7451C16.1359 17.7435 16.2156 17.7582 16.2899 17.7883C16.3642 17.8183 16.4317 17.8631 16.4882 17.9199C16.5448 17.9767 16.5892 18.0444 16.6189 18.1189C16.6486 18.1933 16.6629 18.273 16.661 18.3531C16.659 18.4333 16.6409 18.5122 16.6076 18.5851C16.5743 18.6581 16.5267 18.7235 16.4674 18.7775C16.4082 18.8315 16.3386 18.873 16.2629 18.8994L15.0802 19.3704C15.0104 19.3983 14.936 19.4126 14.8609 19.4124Z" fill="#323544"/>
</svg>
