<svg width="24" height="24" viewBox="0 0 24 24" fill="none" xmlns="http://www.w3.org/2000/svg">
<path d="M21.2198 16.2137C21.234 16.1853 21.2482 16.1562 21.2482 16.1278C21.3606 15.8387 21.4731 15.4922 21.5298 15.2031C22.2629 12.6037 22.3196 9.25444 19.6702 5.67361C19.6035 5.60529 19.5577 5.5378 19.5186 5.48198C19.4911 5.44199 19.4686 5.40867 19.4444 5.38451C20.1209 4.86463 20.9666 4.69133 21.5864 4.69133C21.9247 4.69133 22.0938 4.28726 21.868 4.05565C19.6702 1.63038 17.2466 1.68787 15.5553 2.61182C12.7943 1.57206 9.80666 1.91865 8.00291 3.19002C4.90363 5.32702 4.90363 7.75229 6.4816 10.0051C6.19396 10.5505 5.98525 11.1339 5.86174 11.738C5.74843 12.3154 6.42494 12.7195 6.81985 12.3154C7.60883 11.5647 8.6236 10.6408 9.13015 10.2942C10.3707 9.36941 11.1597 9.02283 12.2869 8.85037H12.3427C12.7376 8.79205 13.0759 8.73456 13.47 8.73456C14.986 8.73361 16.4542 9.26512 17.6183 10.2363C18.7825 11.2075 19.5685 12.5567 19.8393 14.0483L19.856 14.1883C19.906 14.594 19.9518 14.9623 19.9518 15.3764V15.6655L19.7827 15.1456C19.1062 13.8175 17.8106 12.8353 16.2318 12.8353C16.2318 13.2402 16.2318 13.7017 16.176 14.1058C15.9502 16.3011 14.6539 18.0341 12.9068 19.0155C12.8501 19.0155 12.8501 19.0738 12.7943 19.0738C12.6252 19.1313 12.3994 19.2463 12.2303 19.3046C12.1849 19.3277 12.1379 19.3472 12.0895 19.3629C12.0478 19.3763 12.0053 19.3913 11.9478 19.4196C11.3749 19.6505 10.7626 19.7682 10.1449 19.7662H9.80666C9.41258 19.7662 8.96102 19.7662 8.56694 19.6504C7.66465 19.4779 6.87567 19.073 6.19916 18.5531C5.80509 18.2648 5.46683 17.9183 5.12858 17.5142C6.5949 19.8245 9.01767 21.4991 11.892 21.9032C12.5253 22.0083 13.1698 22.0279 13.8082 21.9615C14.339 21.8931 14.8657 21.7966 15.3862 21.6724C15.8944 21.5599 16.3869 21.3853 16.8525 21.1525C17.2466 20.9792 17.5848 20.8059 17.9231 20.5751C17.9231 20.5751 17.9423 20.5551 17.9698 20.5385C17.9897 20.5257 18.0127 20.5186 18.0364 20.5177C18.1481 20.401 18.3172 20.3444 18.4305 20.2286C18.6904 20.0153 18.902 19.802 19.1103 19.5895L19.1062 19.5937C19.2753 19.4196 19.3886 19.2463 19.5577 19.073C19.8377 18.7289 20.1176 18.3265 20.3984 17.9249L20.4025 17.9183C20.685 17.3984 20.9666 16.8785 21.1915 16.3011C21.1915 16.272 21.2057 16.242 21.2198 16.2137ZM4.50955 14.1058V16.6469H2.0293V14.1058H4.50955Z" fill="#323544"/>
</svg>
