<svg width="24" height="24" viewBox="0 0 24 24" fill="none" xmlns="http://www.w3.org/2000/svg">
<path d="M3.50586 20.1882C3.50586 21.2941 4.21174 22 5.31762 22H10.5882C13.7412 22 16.3059 20.9412 18.047 19.0824H3.50586V20.1882ZM10.5882 2H5.31762C4.21174 2 3.50586 2.70588 3.50586 3.81176V4.94118H18.047C16.2823 3.05882 13.7176 2 10.5882 2ZM15.1764 14.8471C15.1764 15.7412 15.7412 16.3059 16.6353 16.3059H19.7882C20.1412 15.4118 20.3764 14.4471 20.4941 13.3882H16.6353C15.7412 13.3882 15.1764 13.9765 15.1764 14.8471ZM10.8 9.15294C10.8 10.0471 11.3647 10.6118 12.2588 10.6118H20.4941C20.3764 9.55294 20.1412 8.58824 19.7882 7.69412H12.2588C11.3647 7.69412 10.8 8.28235 10.8 9.15294ZM12.2588 14.8471C12.2588 13.9529 11.6941 13.3882 10.8 13.3882H3.50586V16.3059H10.8C11.6941 16.3059 12.2588 15.7412 12.2588 14.8471ZM7.88233 9.15294C7.88233 8.25882 7.31762 7.69412 6.42351 7.69412H3.50586V10.6118H6.42351C7.31762 10.6118 7.88233 10.0471 7.88233 9.15294Z" fill="#323544"/>
</svg>
