<svg width="24" height="24" viewBox="0 0 24 24" fill="none" xmlns="http://www.w3.org/2000/svg">
<path d="M7.86917 7.05948C9.23167 7.05948 9.73667 6.22365 9.73667 5.19031C9.73667 4.15698 9.23417 3.32031 7.87 3.32031C6.50417 3.32031 6.00083 4.15615 6.00083 5.19031C6.00083 6.22365 6.505 7.05948 7.86917 7.05948Z" fill="#323544"/>
<path d="M14.4025 7.46198V8.66448H11.3367V11.3336H14.4033V18.0103H9.33417V8.66198H2.6675V11.3311H6.40083V18.0078H2V20.677H22V18.0078H17.3333V11.3311H22V8.66198H17.3333V5.99198H22V3.32281H18.5325C17.4358 3.3248 16.3846 3.76168 15.6096 4.53764C14.8346 5.3136 14.399 6.36527 14.3983 7.46198H14.4025Z" fill="#323544"/>
</svg>
