<svg width="24" height="24" viewBox="0 0 24 24" fill="none" xmlns="http://www.w3.org/2000/svg">
<path d="M20.6004 7.56393C20.8817 7.2923 21.1062 6.96735 21.2606 6.60804C21.4151 6.24873 21.4964 5.86226 21.4999 5.47118C21.5034 5.0801 21.4289 4.69225 21.2809 4.33026C21.1328 3.96827 20.9142 3.63939 20.6376 3.36281C20.3611 3.08624 20.0323 2.86751 19.6703 2.71939C19.3084 2.57127 18.9205 2.49673 18.5294 2.50011C18.1384 2.5035 17.7519 2.58474 17.3925 2.7391C17.0332 2.89347 16.7082 3.11786 16.4365 3.39918L13.3579 6.47778C13.0766 6.74947 12.8522 7.07447 12.6978 7.43381C12.5435 7.79315 12.4622 8.17964 12.4588 8.57072C12.4555 8.9618 12.53 9.34964 12.6781 9.7116C12.8262 10.0736 13.045 10.4024 13.3215 10.6789C13.5981 10.9554 13.927 11.1741 14.289 11.3221C14.651 11.4702 15.0388 11.5446 15.4299 11.5412C15.821 11.5377 16.2075 11.4564 16.5668 11.3019C16.9261 11.1475 17.251 10.923 17.5227 10.6416L20.6004 7.56393ZM10.6425 17.5227C10.9203 17.2502 11.1414 16.9253 11.2929 16.5669C11.4444 16.2084 11.5234 15.8235 11.5253 15.4344C11.5272 15.0452 11.4519 14.6596 11.3039 14.2997C11.1558 13.9398 10.9379 13.6128 10.6628 13.3377C10.3876 13.0625 10.0606 12.8446 9.70073 12.6966C9.34085 12.5485 8.95519 12.4732 8.56605 12.4751C8.17691 12.477 7.792 12.556 7.43357 12.7075C7.07513 12.859 6.75028 13.0801 6.47778 13.3579L3.39918 16.4365C3.11786 16.7082 2.89347 17.0332 2.7391 17.3925C2.58474 17.7519 2.5035 18.1384 2.50011 18.5294C2.49673 18.9205 2.57127 19.3084 2.71939 19.6703C2.86751 20.0323 3.08624 20.3611 3.36281 20.6376C3.63939 20.9142 3.96827 21.1328 4.33026 21.2809C4.69225 21.4289 5.0801 21.5034 5.47118 21.4999C5.86226 21.4964 6.24873 21.4151 6.60804 21.2606C6.96735 21.1062 7.2923 20.8817 7.56393 20.6004L10.6425 17.5227Z" fill="#323544"/>
<path opacity="0.5" d="M17.5224 13.3611C17.2499 13.0833 16.9251 12.8622 16.5666 12.7107C16.2082 12.5592 15.8233 12.4802 15.4341 12.4783C15.045 12.4764 14.6593 12.5517 14.2995 12.6997C13.9396 12.8478 13.6126 13.0657 13.3374 13.3408C13.0623 13.616 12.8444 13.943 12.6963 14.3029C12.5483 14.6628 12.473 15.0484 12.4749 15.4375C12.4768 15.8267 12.5557 16.2116 12.7073 16.57C12.8588 16.9285 13.0798 17.2533 13.3576 17.5258L16.4363 20.6044C16.9904 21.1479 17.7366 21.4507 18.5127 21.447C19.2889 21.4432 20.0322 21.1332 20.581 20.5844C21.1298 20.0356 21.4398 19.2923 21.4435 18.5162C21.4473 17.74 21.1445 16.9938 20.601 16.4397L17.5224 13.3611ZM7.56368 3.40234C7.29118 3.12453 6.96633 2.90347 6.60789 2.75195C6.24946 2.60043 5.86455 2.52145 5.47541 2.51957C5.08626 2.51769 4.70061 2.59295 4.34073 2.741C3.98084 2.88905 3.65387 3.10695 3.3787 3.38212C3.10353 3.65729 2.88563 3.98426 2.73758 4.34414C2.58953 4.70403 2.51427 5.08968 2.51615 5.47882C2.51803 5.86797 2.59701 6.25288 2.74853 6.61131C2.90005 6.96975 3.12111 7.2946 3.39892 7.56709L6.47753 10.6448C7.03306 11.1811 7.77697 11.4777 8.54908 11.4709C9.32119 11.464 10.0597 11.1542 10.6057 10.6082C11.1516 10.0621 11.4612 9.32355 11.4679 8.55143C11.4746 7.77932 11.1778 7.03547 10.6414 6.48006L7.56368 3.40234Z" fill="#323544"/>
</svg>
