<svg width="24" height="24" viewBox="0 0 24 24" fill="none" xmlns="http://www.w3.org/2000/svg">
<path d="M11.6513 22H3.00384C2.89959 22.0003 2.79629 21.9801 2.69986 21.9405C2.60343 21.9009 2.51575 21.8426 2.44184 21.7691C2.36793 21.6956 2.30924 21.6082 2.26911 21.512C2.22899 21.4158 2.20823 21.3126 2.20801 21.2083H11.6588C13.2802 21.2174 14.8755 20.8005 16.2851 19.9992C17.6946 19.1979 18.869 18.0403 19.6905 16.6425C21.3572 13.8017 21.3738 10.2925 19.7355 7.43417C18.9273 6.02881 17.7643 4.86036 16.3626 4.04576C14.961 3.23117 13.37 2.799 11.7488 2.7925H2.20801C2.20801 2.35417 2.56384 2 3.00384 2H11.7488C14.4141 2.00173 16.9701 3.05948 18.8572 4.94167C19.7892 5.87107 20.5283 6.97555 21.032 8.1916C21.5357 9.40764 21.794 10.7113 21.7922 12.0275C21.7772 17.5575 17.2022 22 11.6513 22Z" fill="#323544"/>
<path d="M2.20801 19.8667H8.34384C9.1017 19.8695 9.83344 19.5899 10.3963 19.0825H2.20801V19.8667ZM2.20801 17.7333H11.6205C11.8105 17.4783 11.9872 17.2225 12.1513 16.9392H2.20801V17.7333ZM2.20801 15.5975H12.8238C12.9322 15.3389 13.0265 15.0746 13.1063 14.8058H2.20801V15.5975ZM2.20801 13.4642H13.4138C13.453 13.2092 13.4838 12.9375 13.5013 12.6725H2.20801V13.4642ZM2.20801 11.3308H13.4988C13.4805 11.0625 13.4505 10.7975 13.4113 10.5358H2.20801V11.3308ZM2.20801 9.195H13.1063C13.0238 8.92667 12.9288 8.66167 12.8238 8.40333H2.20801V9.195ZM2.20801 7.06167H12.1513C11.9882 6.7888 11.811 6.52456 11.6205 6.27H2.20801V7.06167ZM2.20801 4.13333V4.92833H10.4038C9.84119 4.42047 9.10929 4.14084 8.35134 4.14417L2.20801 4.13333Z" fill="#323544"/>
</svg>
