<svg width="24" height="24" viewBox="0 0 24 24" fill="none" xmlns="http://www.w3.org/2000/svg">
<path d="M20.6891 10.5695C19.6791 9.81865 17.2649 8.5661 14.5249 8.23608C14.7708 11.3962 14.6024 15.5414 12.7749 18.8807C12.2772 19.799 11.6472 20.6392 10.905 21.3741C14.0416 20.1674 16.5266 18.4932 18.0682 17.0248C20.4182 14.7888 20.8624 12.7096 20.869 11.4745C20.8711 11.1643 20.8099 10.8569 20.6891 10.5712V10.5695ZM13.7999 3.5559C12.6766 2.58336 11.2541 2 9.70581 2C8.15749 2 6.78333 2.56419 5.66834 3.50589C4.20668 4.74178 3.23669 6.63102 3.13086 8.77111V16.4389C3.90752 14.2305 5.71167 11.2304 8.42832 9.51614C8.84498 9.25112 9.28248 9.02028 9.73581 8.82527C11.305 8.15775 12.9674 8.04858 14.5241 8.23692C14.3391 5.87849 13.9258 4.06842 13.7991 3.5559H13.7999Z" fill="#323544"/>
<g opacity="0.5">
<path d="M6.30598 15.1293C6.44931 12.0042 7.87513 10.13 8.43013 9.51326C5.71348 11.2283 3.90933 14.2285 3.13184 16.4369V17.3702C3.13184 19.927 5.40265 21.9996 8.20596 21.9996C8.83039 22.0004 9.45039 21.8947 10.0393 21.6871C10.3334 21.5871 10.6226 21.4804 10.9051 21.3721C11.6659 20.6229 12.2801 19.7803 12.7743 18.8786C8.71012 20.9046 6.12931 18.9386 6.30514 15.1285L6.30598 15.1293Z" fill="#323544"/>
<path d="M16.3017 6.13312C16.0006 5.83038 15.7006 5.52648 15.4017 5.22142C15.2334 5.04391 15.0701 4.87224 14.9134 4.70307L13.8026 3.55469C13.9284 4.06721 14.3426 5.87645 14.5267 8.23571C17.2667 8.56489 19.6809 9.81744 20.69 10.5691C19.6017 9.50659 17.7942 7.66319 16.3017 6.13312Z" fill="#323544"/>
</g>
</svg>
