<svg width="24" height="24" viewBox="0 0 24 24" fill="none" xmlns="http://www.w3.org/2000/svg">
<path d="M10.6945 21.9303C7.22457 21.7713 4.76084 20.9954 3.39797 19.6322C1.44639 17.6802 1.53763 14.5925 3.67483 10.2677C5.61212 6.34736 7.79935 3.64343 9.88209 2.59334C10.5153 2.27416 11.3597 2.0625 12 2.0625C12.6403 2.0625 13.4848 2.27417 14.118 2.59334C16.1978 3.64182 18.3812 6.3378 20.312 10.2418C22.0374 13.7304 22.4376 16.4024 21.524 18.3344C20.6675 20.1453 18.7043 21.2587 15.5523 21.7213C14.592 21.8622 13.7301 21.9188 12.3457 21.932C11.6065 21.939 10.8635 21.938 10.6945 21.9303ZM13.421 21.6501C14.3059 21.4991 14.9447 21.2943 15.7635 20.8992C17.543 20.0404 18.8964 18.6874 19.7593 16.9042C20.7491 14.8588 20.8876 12.5907 20.1571 10.3911C19.8868 9.5773 19.2864 8.49685 18.6981 7.76564C17.5299 6.31377 15.7569 5.21558 13.9298 4.81236C13.1747 4.6457 12.9144 4.61862 12.0577 4.61763C10.612 4.61594 9.57657 4.84863 8.31358 5.45903C5.74283 6.70146 4.01469 9.04064 3.54598 11.9123C3.44947 12.5035 3.44884 13.8134 3.54478 14.4276C3.83487 16.2845 4.68024 17.9575 5.98171 19.2506C6.70152 19.9657 7.34822 20.4248 8.27516 20.8786C9.29162 21.3763 9.9995 21.5758 11.3281 21.7389C11.674 21.7813 12.9762 21.7259 13.421 21.6501ZM11.5009 21.3625C9.5918 20.9911 7.61569 18.866 5.85535 15.2912C5.20698 13.9745 4.84379 12.957 4.66275 11.9499C4.56513 11.4069 4.56385 10.4097 4.66024 9.99172C5.06978 8.21571 6.47593 7.16775 9.06241 6.71101C10.008 6.54402 10.622 6.50131 12.0769 6.50131C13.5319 6.50131 14.1458 6.54402 15.0914 6.71101C17.6762 7.16746 19.0843 8.21692 19.4936 9.99172C19.5973 10.4414 19.5894 11.4105 19.4772 12.0111C19.2892 13.0169 18.8962 14.1036 18.2586 15.3807C16.8195 18.2632 15.1933 20.2513 13.6514 21.0129C13.419 21.1277 13.0907 21.2577 12.9217 21.3019C12.5269 21.4051 11.8654 21.4334 11.5009 21.3625ZM12.7884 19.4175C13.2502 19.3601 13.634 19.2769 14.0547 19.143C16.672 18.3098 18.5034 15.8019 18.5085 13.044C18.5118 11.2778 17.8122 9.64023 16.5219 8.39359C14.8063 6.73608 12.3277 6.17175 10.0647 6.92346C9.03427 7.26572 8.21406 7.78456 7.44472 8.58092C5.59677 10.4937 5.12345 13.3516 6.25701 15.7524C7.09628 17.5299 8.64943 18.7945 10.5985 19.2872C11.2126 19.4425 12.143 19.4977 12.7884 19.4175ZM11.3089 17.8578C8.58474 17.6897 7.02543 16.9313 6.54117 15.5387C6.16785 14.4653 6.43351 13.0981 7.37646 11.24C8.17253 9.67127 9.13404 8.37274 10.0395 7.64326C10.4465 7.31544 11.0824 7.00289 11.5187 6.91637C12.5344 6.7149 13.5399 7.13544 14.5923 8.20194C15.3725 8.99266 16.2238 10.2439 16.902 11.5969C17.8364 13.4609 18.0508 14.9113 17.5448 15.9459C17.0022 17.0551 15.6446 17.6799 13.421 17.8436C12.932 17.8796 11.7871 17.8873 11.3089 17.8578Z" fill="#323544"/>
</svg>
