<svg width="24" height="24" viewBox="0 0 24 24" fill="none" xmlns="http://www.w3.org/2000/svg">
<path d="M14.8944 8.9296C16.5045 7.35459 18.1005 5.79707 19.6912 4.23518C19.8365 4.09255 19.9327 4.02168 20.1226 4.19756C21.0974 5.10406 21.807 6.16108 22.0476 7.47096C22.3766 9.25861 21.9601 10.8642 20.7412 12.2511C19.9677 13.1323 19.0017 13.7142 17.8581 14.0187C17.8196 14.0283 17.7846 14.0537 17.7443 14.0738C17.7688 14.2077 17.8878 14.2217 17.9762 14.2575C19.4051 14.8438 20.8349 15.4265 22.2664 16.0058C22.4571 16.0828 22.5595 16.1607 22.4633 16.3917C22.0538 17.3717 21.5226 18.2668 20.6817 18.9581C19.7586 19.7176 18.7042 20.1726 17.4985 20.2846C15.7992 20.4421 14.3134 19.9433 13.0499 18.8391C12.0305 17.9466 11.4294 16.8178 11.2264 15.4895C11.1053 14.7491 11.1438 13.9914 11.3393 13.267C11.3594 13.1918 11.383 13.1051 11.2474 12.9949L4.12046 19.9661C2.38094 18.616 1.48668 16.4748 1.97318 14.3057C2.47894 12.0438 3.96295 10.6569 6.17935 9.96036C6.14348 9.76436 5.98685 9.73986 5.85822 9.68736C4.46958 9.11511 3.08182 8.5411 1.68968 7.97672C1.52343 7.90847 1.45605 7.84634 1.52955 7.66084C2.07731 6.26783 2.92432 5.11806 4.29721 4.40231C5.92822 3.5518 7.60999 3.44855 9.31888 4.15555C11.1599 4.91681 12.2703 6.29058 12.7227 8.17885C12.9187 8.99698 12.8907 9.82474 12.6955 10.6446C12.6667 10.7636 12.6133 10.8774 12.6929 11.0769L14.8944 8.9296Z" fill="#323544"/>
</svg>
