<svg width="24" height="24" viewBox="0 0 24 24" fill="none" xmlns="http://www.w3.org/2000/svg">
<path d="M14.8965 2C15.2424 2 15.5207 2.28167 15.5532 2.62667C15.6989 4.12093 16.359 5.51823 17.4206 6.57977C18.4823 7.64131 19.8797 8.3012 21.374 8.44667C21.7182 8.48 22.0007 8.7575 22.0007 9.10333V14.8967C22.0007 15.2425 21.719 15.52 21.374 15.5533C19.8797 15.6988 18.4823 16.3587 17.4206 17.4202C16.359 18.4818 15.6989 19.8791 15.5532 21.3733C15.5199 21.7183 15.2424 22 14.8965 22H9.10319C8.75652 22 8.47902 21.7183 8.44569 21.3733C8.30004 19.8792 7.64007 18.482 6.57855 17.4205C5.51703 16.3589 4.11983 15.699 2.62569 15.5533C2.28069 15.52 1.99902 15.2425 1.99902 14.8967V9.10333C1.99902 8.7575 2.28069 8.48 2.62569 8.44667C4.11983 8.30102 5.51703 7.64105 6.57855 6.57953C7.64007 5.518 8.30004 4.12081 8.44569 2.62667C8.47902 2.28167 8.75736 2 9.10402 2H14.8965ZM6.01486 11.9833C6.01442 12.7742 6.16977 13.5574 6.47203 14.2882C6.7743 15.019 7.21756 15.6831 7.7765 16.2426C8.33544 16.8021 8.99912 17.246 9.72963 17.5489C10.4601 17.8519 11.2432 18.008 12.034 18.0083C12.8249 18.008 13.6079 17.8519 14.3384 17.5489C15.0689 17.246 15.7326 16.8021 16.2915 16.2426C16.8505 15.6831 17.2937 15.019 17.596 14.2882C17.8983 13.5574 18.0536 12.7742 18.0532 11.9833C18.0532 8.655 15.3582 5.95833 12.034 5.95833C10.4369 5.95922 8.90553 6.59446 7.77674 7.72435C6.64795 8.85423 6.01419 10.3862 6.01486 11.9833Z" fill="#323544"/>
</svg>
