<svg width="24" height="24" viewBox="0 0 24 24" fill="none" xmlns="http://www.w3.org/2000/svg">
<path d="M14.5667 6L11.9991 12.2288L9.42875 6H7.78058L10.5966 12.809C10.7091 13.0859 10.9016 13.323 11.1495 13.49C11.3974 13.657 11.6895 13.7463 11.9884 13.7465C12.2873 13.7467 12.5795 13.6578 12.8276 13.4911C13.0757 13.3245 13.2685 13.0876 13.3814 12.8108L16.2148 6H14.5667ZM15.663 15.4893L20.36 10.6823L19.7192 9.15242L14.5896 14.4132C14.3802 14.6278 14.2386 14.8994 14.1827 15.194C14.1268 15.4886 14.159 15.7931 14.2752 16.0696C14.3893 16.3442 14.5821 16.5789 14.8295 16.7439C15.0768 16.909 15.3675 16.9972 15.6648 16.9972L15.6667 17L23 16.9817L22.3593 15.4517L15.6648 15.4893H15.663ZM3.64 10.6787L4.28075 9.14875L9.41042 14.4095C9.83942 14.8486 9.96317 15.4994 9.72483 16.0659C9.61064 16.3405 9.41774 16.575 9.17044 16.7401C8.92314 16.9052 8.6325 16.9934 8.33517 16.9936L1.00183 16.9771L1 16.9789L1.64075 15.449L8.33517 15.4875L3.64 10.6787Z" fill="#323544"/>
</svg>
