<svg width="24" height="24" viewBox="0 0 24 24" fill="none" xmlns="http://www.w3.org/2000/svg">
<path d="M10.0674 15.508C10.0762 15.5835 10.117 15.6467 10.1773 15.6872C10.1591 15.7134 10.1462 15.7418 10.138 15.7737C10.1222 15.7075 10.0867 15.6516 10.0349 15.6109C10.0524 15.5796 10.0633 15.5453 10.0674 15.508Z" fill="#323544"/>
<path d="M9.54294 15.5621C9.55708 15.606 9.57918 15.6457 9.61187 15.6768C9.60292 15.6898 9.59228 15.7015 9.5855 15.716C9.56873 15.6789 9.54484 15.6465 9.51555 15.619C9.52666 15.6009 9.53616 15.5826 9.54294 15.5621Z" fill="#323544"/>
<path d="M9.00901 15.4877C9.01137 15.5498 9.03556 15.6048 9.07229 15.65C9.06325 15.661 9.05592 15.673 9.04849 15.6853C9.0255 15.6282 8.98344 15.5837 8.93313 15.5494C8.96214 15.533 8.98772 15.5131 9.00901 15.4877Z" fill="#323544"/>
<path d="M9.56477 15.1238C9.56609 15.1818 9.58894 15.2332 9.62388 15.2747C9.58639 15.3067 9.55912 15.3476 9.54338 15.3955C9.52727 15.345 9.49847 15.302 9.45872 15.2687C9.51119 15.2357 9.54866 15.1854 9.56477 15.1238Z" fill="#323544"/>
<path d="M8.73977 14.8926C8.78273 14.9661 8.85913 15.0177 8.95042 15.0177C9.01221 15.0177 9.06702 14.9928 9.11045 14.9553C9.09415 14.9883 9.08313 15.024 9.08313 15.0632C9.08314 15.1312 9.11069 15.1926 9.15505 15.2373C9.12434 15.2536 9.09764 15.2749 9.07522 15.3015C9.06994 15.1528 8.94956 15.0336 8.79968 15.0336C8.76784 15.0336 8.73841 15.0419 8.70996 15.0517C8.73088 15.0125 8.74578 14.97 8.74578 14.9225C8.74577 14.9118 8.7409 14.9029 8.73977 14.8926Z" fill="#323544"/>
<path d="M9.4229 14.8345C9.4349 14.8394 9.44629 14.8455 9.45725 14.8521C9.44521 14.8473 9.43377 14.8413 9.4229 14.8345Z" fill="#323544"/>
<path d="M8.63027 14.5018C8.6738 14.5397 8.72894 14.5647 8.79111 14.5647C8.80541 14.5647 8.81783 14.5589 8.83147 14.5566C8.75582 14.599 8.70249 14.6769 8.70249 14.7698C8.70249 14.7762 8.70575 14.7817 8.70623 14.7881C8.66515 14.7155 8.59429 14.6658 8.50876 14.6526C8.5665 14.6186 8.60974 14.5666 8.63027 14.5018Z" fill="#323544"/>
<path d="M8.98337 12.7026C9.02558 12.7344 9.0755 12.7567 9.13249 12.7567C9.15087 12.7567 9.16689 12.7499 9.18413 12.7463C9.15654 12.7589 9.13223 12.7766 9.11169 12.7987C9.06911 12.7561 9.01077 12.7312 8.9469 12.7271C8.95896 12.7186 8.97282 12.7127 8.98337 12.7026Z" fill="#323544"/>
<path d="M8.90039 12.2529C8.93231 12.266 8.96696 12.2737 9.00359 12.2737C9.01765 12.2737 9.03132 12.2723 9.0446 12.2699C9.0218 12.2795 9.00056 12.2923 8.9811 12.3073C8.95756 12.2849 8.93062 12.266 8.90039 12.2529Z" fill="#323544"/>
<path d="M8.83806 12.2121C8.85633 12.2266 8.87427 12.2417 8.89592 12.2511C8.86842 12.2398 8.83796 12.2349 8.80679 12.2332C8.81799 12.2272 8.82771 12.2193 8.83806 12.2121Z" fill="#323544"/>
<path d="M14.0339 14.599C14.0605 14.6116 14.0894 14.6197 14.1207 14.6198C14.1431 14.6198 14.1636 14.6135 14.1838 14.6069C14.1414 14.6284 14.1076 14.6637 14.0901 14.7083C14.068 14.6883 14.043 14.6724 14.0147 14.6614C14.0245 14.642 14.0293 14.6209 14.0339 14.599Z" fill="#323544"/>
<path d="M13.9011 14.2546C13.9235 14.2622 13.9464 14.2688 13.9714 14.2688C13.973 14.2688 13.9744 14.2678 13.976 14.2678C13.9554 14.2882 13.9401 14.3134 13.9296 14.3409C13.9155 14.3315 13.9032 14.3196 13.8873 14.313C13.8954 14.2949 13.8974 14.2746 13.9011 14.2546Z" fill="#323544"/>
<path d="M13.9042 13.4176C13.938 13.4374 13.9752 13.4518 14.0171 13.4518C14.0298 13.4518 14.0408 13.4465 14.0529 13.4446C14.0262 13.4644 14.004 13.4883 13.9887 13.5183C13.9586 13.4879 13.9187 13.4701 13.8759 13.4599C13.8855 13.4458 13.8975 13.4335 13.9042 13.4176Z" fill="#323544"/>
<path d="M13.7593 10.8079C13.6882 10.8452 13.6394 10.9151 13.6318 10.9991C13.6203 10.9966 13.6095 10.9929 13.5974 10.9921C13.6375 10.9469 13.6638 10.889 13.6638 10.8238C13.6638 10.8221 13.6629 10.8206 13.6628 10.8189C13.6701 10.8195 13.6763 10.8231 13.6836 10.8231C13.7105 10.8231 13.735 10.8156 13.7593 10.8079Z" fill="#323544"/>
<path d="M13.5581 10.3605C13.5228 10.3814 13.4941 10.4101 13.4728 10.4451C13.4755 10.4306 13.4815 10.4172 13.4815 10.4018C13.4815 10.3899 13.4764 10.3798 13.4747 10.3683C13.4825 10.369 13.4892 10.3728 13.4971 10.3728C13.5187 10.3728 13.538 10.3656 13.5581 10.3605Z" fill="#323544"/>
<path d="M13.3873 9.90508C13.3508 9.92335 13.3217 9.95092 13.2984 9.98389C13.2984 9.98257 13.2992 9.98125 13.2992 9.97993C13.2992 9.95714 13.2921 9.9366 13.2861 9.9157C13.2946 9.91645 13.3019 9.92053 13.3105 9.92053C13.3377 9.92053 13.3628 9.91337 13.3873 9.90508Z" fill="#323544"/>
<path d="M13.0689 9.68689C13.0697 9.70667 13.0749 9.72519 13.0802 9.74365C13.0726 9.74289 13.066 9.73911 13.0582 9.73911C13.0403 9.73912 13.0245 9.74571 13.0077 9.74929C13.0322 9.73233 13.0524 9.71176 13.0689 9.68689Z" fill="#323544"/>
<path d="M13.337 9.32764C13.3325 9.3459 13.3257 9.3636 13.3257 9.38337C13.3257 9.40296 13.3325 9.4203 13.3368 9.43838C13.3278 9.43744 13.3198 9.4331 13.3105 9.4331C13.2241 9.43311 13.1518 9.48063 13.1085 9.54846C13.1069 9.51888 13.101 9.49059 13.0893 9.46497C13.0993 9.4661 13.1081 9.47082 13.1184 9.47082C13.2162 9.47083 13.2999 9.41166 13.337 9.32764Z" fill="#323544"/>
<path d="M12.7452 9.36851C12.7325 9.38311 12.7181 9.39617 12.7021 9.4071C12.7148 9.39255 12.7293 9.37953 12.7452 9.36851Z" fill="#323544"/>
<path d="M17.8125 3.22656C19.5729 3.22656 21 4.65365 21 6.41406V17.5891C21 19.3495 19.5729 20.7766 17.8125 20.7766H6.1875C4.42709 20.7766 3 19.3495 3 17.5891V6.41406C3 4.65365 4.42709 3.22656 6.1875 3.22656H17.8125ZM8.89556 11.1568C8.73606 11.1568 8.60669 11.2861 8.60669 11.4457C8.6067 11.5593 8.67397 11.6556 8.76958 11.7027C8.73897 11.6917 8.70713 11.683 8.67275 11.683C8.51081 11.683 8.37949 11.8144 8.37949 11.9764C8.3795 12.084 8.44027 12.1739 8.52656 12.225C8.5015 12.2182 8.47708 12.2095 8.44995 12.2095C8.28555 12.2095 8.15222 12.3427 8.15222 12.5072C8.15223 12.6084 8.20586 12.6931 8.28281 12.747C8.26417 12.7433 8.24692 12.7357 8.22715 12.7357C8.0603 12.7357 7.92502 12.8711 7.92502 13.038C7.92504 13.1328 7.97138 13.214 8.03958 13.2694C8.02752 13.2679 8.01695 13.2622 8.00442 13.2622C7.83504 13.2622 7.69777 13.3994 7.69775 13.5687C7.69775 13.6573 7.73642 13.7355 7.79634 13.7915C7.79116 13.7911 7.7868 13.7885 7.78162 13.7885C7.60979 13.7885 7.47057 13.9277 7.47056 14.0995C7.47056 14.1843 7.5049 14.261 7.55991 14.317C7.38856 14.3234 7.25105 14.4623 7.25105 14.6351C7.25106 14.7549 7.3198 14.8555 7.41738 14.9103C7.30679 14.9636 7.22908 15.0746 7.22908 15.2054C7.22909 15.3772 7.36191 15.5138 7.52959 15.5293C7.48994 15.5848 7.46163 15.6491 7.46162 15.7226C7.46162 15.9098 7.61345 16.0617 7.80073 16.0617C7.83992 16.0617 7.87623 16.0518 7.91118 16.0395C7.90939 16.0537 7.90277 16.0663 7.90276 16.0809C7.90276 16.2697 8.05588 16.4228 8.24458 16.4228C8.3386 16.4228 8.4236 16.3847 8.4854 16.3233C8.53401 16.452 8.65616 16.5445 8.80188 16.5445C8.92661 16.5445 9.0311 16.4742 9.09045 16.3741C9.14971 16.4734 9.25354 16.5432 9.37742 16.5432C9.50535 16.5432 9.61269 16.4695 9.67053 16.3649C9.72762 16.464 9.83031 16.5339 9.95288 16.5339C10.0868 16.5339 10.2009 16.4535 10.2529 16.3389C10.3037 16.441 10.4066 16.513 10.5284 16.513C10.6782 16.513 10.7973 16.4049 10.8263 16.2637C10.8553 16.3934 10.9656 16.4923 11.1039 16.4923C11.264 16.4922 11.3938 16.3624 11.3938 16.2023C11.3938 16.0704 11.3039 15.9636 11.1833 15.9284C11.1937 15.9007 11.2011 15.8715 11.2011 15.8402C11.2011 15.7283 11.1276 15.6359 11.0269 15.602C11.05 15.5655 11.0667 15.5247 11.0667 15.4784C11.0667 15.3862 11.0125 15.3084 10.9354 15.2694C10.9742 15.2302 10.9983 15.1764 10.9983 15.1168C10.9983 15.0479 10.9643 14.9891 10.9143 14.9491C11.013 14.9378 11.0908 14.8568 11.0908 14.755C11.0908 14.6454 11.0018 14.5565 10.8921 14.5565C10.8795 14.5565 10.8685 14.5614 10.8565 14.5636C10.9219 14.535 10.9679 14.4698 10.9679 14.3939C10.9679 14.2914 10.8848 14.2081 10.7822 14.2081C10.6796 14.2081 10.5965 14.2914 10.5965 14.3939C10.5965 14.4964 10.6796 14.5796 10.7822 14.5796C10.793 14.5796 10.8025 14.5753 10.8128 14.5734C10.7427 14.6041 10.6936 14.6736 10.6936 14.755C10.6936 14.8146 10.7212 14.8664 10.7627 14.9028C10.6515 14.9126 10.5632 15.003 10.5632 15.1168C10.5632 15.198 10.6096 15.266 10.6755 15.3035C10.6267 15.3467 10.5945 15.4081 10.5945 15.4784C10.5945 15.5777 10.6558 15.6617 10.7424 15.6968C10.7132 15.7382 10.6924 15.7859 10.6924 15.8402C10.6924 15.8916 10.7114 15.9366 10.7375 15.9766C10.7146 15.9553 10.6886 15.9378 10.66 15.9242C10.6686 15.8974 10.6768 15.8703 10.6768 15.8407C10.6768 15.7377 10.6177 15.6512 10.5339 15.6037C10.5554 15.5664 10.571 15.5253 10.571 15.4792C10.571 15.3946 10.5271 15.3233 10.4636 15.277C10.5032 15.2351 10.5283 15.1796 10.5283 15.1176C10.5283 15.0565 10.5036 15.0019 10.4652 14.9604C10.5666 14.9453 10.6457 14.8617 10.6457 14.756C10.6457 14.6484 10.564 14.5632 10.4601 14.5504C10.5115 14.5165 10.5475 14.4611 10.5475 14.3948C10.5475 14.2903 10.4627 14.2054 10.3581 14.2054C10.2534 14.2054 10.1687 14.2903 10.1687 14.3948C10.1687 14.4892 10.2386 14.5638 10.3287 14.5783C10.2676 14.6152 10.2247 14.6793 10.2247 14.756C10.2247 14.807 10.2452 14.8523 10.2754 14.8886C10.1566 14.8994 10.0625 14.9961 10.0625 15.1176C10.0625 15.1884 10.0959 15.2496 10.1459 15.2924C10.1017 15.3327 10.0744 15.3883 10.0671 15.4509C10.06 15.3859 10.0336 15.3269 9.98899 15.2838C10.0293 15.2401 10.0553 15.1826 10.0553 15.1183C10.0553 15.0614 10.0328 15.0113 10.0003 14.9696C10.109 14.9576 10.1947 14.8686 10.1947 14.7567C10.1946 14.6365 10.0972 14.5391 9.97712 14.5391C9.85692 14.5391 9.75946 14.6365 9.75945 14.7567C9.75945 14.8012 9.77606 14.8402 9.79885 14.8745C9.68957 14.8794 9.60249 14.9554 9.57583 15.0577C9.5738 14.9705 9.52686 14.8946 9.45725 14.8521C9.4825 14.8623 9.51002 14.8681 9.53892 14.8681C9.65959 14.8681 9.75746 14.7703 9.75747 14.6496C9.75747 14.529 9.6596 14.4309 9.53892 14.4309C9.41824 14.4309 9.32036 14.529 9.32036 14.6496C9.32037 14.7276 9.3614 14.7958 9.4229 14.8345C9.39428 14.8228 9.36293 14.8163 9.33003 14.8163C9.26843 14.8163 9.21389 14.8411 9.17065 14.8784C9.18704 14.8453 9.19827 14.8093 9.19827 14.7698C9.19827 14.633 9.08729 14.522 8.95042 14.522C8.936 14.522 8.92345 14.5278 8.90969 14.5302C8.98044 14.4905 9.03154 14.4196 9.03765 14.3347L8.8998 14.0911C8.97489 14.0911 9.03936 14.0547 9.08364 14.001C9.1232 14.0424 9.17818 14.0687 9.23987 14.0687C9.3598 14.0687 9.45703 13.9714 9.45703 13.8514C9.45702 13.7315 9.35979 13.6343 9.23987 13.6343C9.17912 13.6344 9.12455 13.6596 9.08518 13.6997C9.04703 13.6524 8.99303 13.6217 8.92983 13.6134C8.93652 13.6049 8.9422 13.596 8.94785 13.5868C8.9878 13.6177 9.03556 13.6393 9.09001 13.6393C9.15549 13.6393 9.21475 13.6125 9.25752 13.5695C9.29662 13.614 9.35215 13.6434 9.41602 13.6434C9.44087 13.6434 9.46389 13.6369 9.48611 13.6292C9.49195 13.7272 9.57154 13.8056 9.67112 13.8056C9.77455 13.8056 9.85847 13.7217 9.85847 13.6183C9.85847 13.5149 9.77455 13.4308 9.67112 13.4308C9.65557 13.4308 9.64168 13.4361 9.62717 13.4397C9.62737 13.4363 9.62915 13.4335 9.62915 13.4301C9.62915 13.3123 9.53376 13.2168 9.41602 13.2168C9.36354 13.2168 9.31714 13.2379 9.27993 13.2694C9.23904 13.2114 9.17553 13.1716 9.09998 13.1684C9.11241 13.1573 9.1217 13.1442 9.13169 13.131C9.17219 13.1655 9.22293 13.1885 9.2803 13.1885C9.33786 13.1885 9.38887 13.1653 9.42957 13.1307C9.46753 13.1832 9.52629 13.2196 9.59619 13.2197C9.61776 13.2197 9.63754 13.2134 9.65713 13.2073C9.65609 13.2153 9.65244 13.2223 9.65244 13.2306C9.65245 13.3334 9.73601 13.4171 9.83906 13.4171C9.87797 13.4171 9.91208 13.4023 9.94204 13.3818C9.94166 13.3863 9.93948 13.39 9.93948 13.3945C9.93948 13.4851 10.0129 13.5584 10.1035 13.5584C10.194 13.5584 10.2674 13.4851 10.2674 13.3945C10.2674 13.3041 10.194 13.2306 10.1035 13.2306C10.0725 13.2306 10.0451 13.2415 10.0204 13.2563C10.0216 13.2477 10.0256 13.2398 10.0256 13.2306C10.0256 13.1275 9.94203 13.0438 9.83906 13.0438C9.82409 13.0438 9.81089 13.0491 9.79695 13.0523C9.79996 13.0384 9.80544 13.0251 9.80544 13.0103C9.80543 12.8948 9.71178 12.8009 9.59619 12.8009C9.55145 12.8009 9.51223 12.8181 9.47813 12.842C9.43799 12.7729 9.36602 12.7241 9.2803 12.7241C9.26476 12.7241 9.25117 12.7299 9.23657 12.733C9.26633 12.7194 9.29273 12.7005 9.31487 12.677C9.35594 12.7152 9.41017 12.7397 9.47065 12.7397C9.52001 12.7397 9.56317 12.7208 9.60066 12.6943C9.63684 12.7551 9.70043 12.7981 9.77637 12.7981C9.79642 12.7981 9.81448 12.7921 9.83284 12.7868C9.82709 12.8047 9.82156 12.823 9.82156 12.8427C9.82156 12.9451 9.90467 13.0282 10.0071 13.0282C10.044 13.0282 10.0764 13.0146 10.1054 12.996C10.1024 13.0084 10.0978 13.0203 10.0978 13.0336C10.0978 13.1241 10.1712 13.1976 10.2618 13.1976C10.3523 13.1976 10.4257 13.1241 10.4257 13.0336C10.4257 12.943 10.3523 12.8696 10.2618 12.8696C10.2324 12.8696 10.2063 12.8794 10.1825 12.8929C10.1871 12.8767 10.1925 12.8605 10.1925 12.8427C10.1925 12.7403 10.1095 12.6572 10.0071 12.6572C9.99351 12.6572 9.98162 12.6621 9.96899 12.6649C9.97794 12.6417 9.98393 12.6169 9.98394 12.5905C9.98394 12.476 9.89101 12.383 9.77637 12.383C9.73953 12.383 9.70672 12.3953 9.67676 12.4121C9.63983 12.3345 9.56221 12.28 9.47065 12.28C9.41243 12.28 9.36058 12.3035 9.32007 12.3391C9.27391 12.2866 9.20805 12.2517 9.13249 12.2517C9.1201 12.2517 9.10805 12.2529 9.09631 12.2549C9.1223 12.2442 9.14643 12.2297 9.16838 12.2125C9.21257 12.2523 9.26978 12.2783 9.33384 12.2783C9.39582 12.2783 9.45086 12.2534 9.49438 12.2159C9.53603 12.2613 9.59445 12.2909 9.66086 12.2909C9.70192 12.2909 9.73836 12.277 9.77161 12.2581C9.80467 12.3276 9.8744 12.3766 9.95654 12.3766C9.97906 12.3766 9.9997 12.3704 10.02 12.3638C10.0038 12.3911 9.99214 12.4211 9.99214 12.455C9.99214 12.556 10.074 12.6379 10.1751 12.638C10.2115 12.638 10.2433 12.6248 10.2718 12.6063C10.2626 12.6267 10.2571 12.6489 10.2571 12.6726C10.2571 12.7625 10.3301 12.8354 10.4201 12.8354C10.5101 12.8354 10.5831 12.7625 10.5831 12.6726C10.583 12.5826 10.51 12.5097 10.4201 12.5096C10.3893 12.5096 10.3621 12.5206 10.3375 12.5355C10.3496 12.511 10.358 12.4842 10.358 12.455C10.358 12.354 10.2761 12.272 10.1751 12.272C10.1574 12.2721 10.1414 12.2775 10.1253 12.2822C10.1469 12.2496 10.1625 12.2127 10.1625 12.1707C10.1625 12.0571 10.0703 11.9647 9.95654 11.9647C9.92631 11.9647 9.89812 11.9721 9.87231 11.9838C9.83981 11.8977 9.75826 11.8359 9.66086 11.8359C9.61122 11.8359 9.56765 11.8551 9.53035 11.882C9.48485 11.8214 9.4157 11.7793 9.33384 11.7793C9.28504 11.7793 9.24205 11.797 9.20361 11.8213C9.15387 11.7661 9.08356 11.7301 9.00359 11.7301C8.9566 11.7301 8.91461 11.7453 8.876 11.7662C8.85414 11.7451 8.82809 11.7288 8.80049 11.7153C8.83054 11.7258 8.86183 11.7345 8.89556 11.7345C8.94718 11.7345 8.99299 11.7173 9.03501 11.6936C9.08277 11.7379 9.14558 11.7663 9.21584 11.7663C9.2686 11.7663 9.31502 11.7471 9.35647 11.7208C9.4015 11.7688 9.46433 11.7997 9.53525 11.7997C9.58829 11.7997 9.63472 11.7793 9.67485 11.7509C9.71602 11.8049 9.77795 11.842 9.85115 11.842C9.88553 11.842 9.91718 11.833 9.94629 11.8193C9.97465 11.8982 10.0482 11.9553 10.1368 11.9553C10.165 11.9553 10.1917 11.9497 10.216 11.9393C10.1833 11.9721 10.1628 12.0173 10.1628 12.0673C10.1628 12.1667 10.2435 12.2476 10.3431 12.2476C10.3898 12.2476 10.4315 12.2287 10.4635 12.1995C10.4353 12.2285 10.4175 12.2679 10.4175 12.3116C10.4175 12.4003 10.4896 12.4724 10.5784 12.4724C10.6672 12.4723 10.7393 12.4003 10.7393 12.3116C10.7393 12.2227 10.6672 12.1507 10.5784 12.1507C10.5371 12.1507 10.5003 12.1673 10.4719 12.1929C10.5036 12.1605 10.5235 12.1162 10.5235 12.0673C10.5235 11.9676 10.4428 11.8867 10.3431 11.8867C10.3183 11.8867 10.2948 11.8918 10.2733 11.9009C10.3144 11.8634 10.3411 11.8108 10.3411 11.7509C10.3411 11.7417 10.3403 11.7327 10.3391 11.7239C10.3588 11.8005 10.4283 11.8571 10.5112 11.8571C10.6094 11.8571 10.689 11.7776 10.689 11.6794C10.689 11.5811 10.6093 11.5016 10.5112 11.5016C10.413 11.5016 10.3333 11.5811 10.3333 11.6794C10.3333 11.6869 10.3339 11.6942 10.3348 11.7013C10.3126 11.6125 10.2325 11.5467 10.1368 11.5467C10.1113 11.5467 10.0874 11.5527 10.0649 11.5612C10.0396 11.4645 9.95572 11.3918 9.85115 11.3917C9.80998 11.3917 9.77357 11.4057 9.74041 11.4249C9.69679 11.3556 9.62324 11.3069 9.53525 11.3069C9.49465 11.3069 9.45787 11.3192 9.42415 11.3365C9.37506 11.2734 9.30194 11.2302 9.21584 11.2302C9.17733 11.2303 9.14116 11.2391 9.10811 11.2536C9.05525 11.195 8.98062 11.1568 8.89556 11.1568ZM15.5054 16.2114C15.4139 16.2114 15.3398 16.2856 15.3398 16.3772C15.3398 16.4683 15.4139 16.5426 15.5054 16.5426C15.597 16.5426 15.671 16.4683 15.671 16.3772C15.671 16.2856 15.597 16.2114 15.5054 16.2114ZM15.0261 16.1501C14.9366 16.1502 14.864 16.2229 14.864 16.3124C14.864 16.402 14.9366 16.4746 15.0261 16.4746C15.1157 16.4746 15.1883 16.4021 15.1883 16.3124C15.1883 16.2229 15.1157 16.1501 15.0261 16.1501ZM11.3505 14.5676C11.2474 14.5676 11.1639 14.651 11.1639 14.7541C11.1639 14.824 11.204 14.8828 11.261 14.9148C11.1515 14.9173 11.0632 15.0058 11.0632 15.116C11.0632 15.2104 11.1292 15.286 11.2165 15.3084C11.1651 15.3482 11.1297 15.4078 11.1297 15.4779C11.1297 15.5877 11.2125 15.6747 11.3183 15.6896C11.284 15.7301 11.2609 15.7808 11.2609 15.8381C11.2609 15.9496 11.3411 16.0384 11.4457 16.061C11.4285 16.0959 11.4166 16.1337 11.4166 16.1753C11.4166 16.3195 11.5335 16.4363 11.6777 16.4363C11.8218 16.4363 11.9388 16.3195 11.9388 16.1753C11.9388 16.0425 11.8379 15.937 11.7094 15.9206C11.7193 15.8948 11.7261 15.8674 11.7261 15.8381C11.7261 15.7175 11.6333 15.6216 11.5158 15.6099C11.5447 15.573 11.5648 15.5285 11.5648 15.4779C11.5648 15.3738 11.4905 15.2911 11.393 15.2694C11.4376 15.2323 11.4677 15.1786 11.4677 15.116C11.4677 15.0384 11.4225 14.973 11.3583 14.9393C11.4575 14.935 11.5371 14.8543 11.5371 14.7541C11.5371 14.651 11.4535 14.5676 11.3505 14.5676ZM15.9589 16.093C15.8805 16.093 15.8169 16.1567 15.8169 16.2351C15.8169 16.3135 15.8805 16.377 15.9589 16.377C16.0374 16.377 16.1008 16.3135 16.1008 16.2351C16.1008 16.1567 16.0374 16.093 15.9589 16.093ZM13.6097 7.65896C13.4823 7.65898 13.3789 7.76221 13.3789 7.88975C13.3789 7.91292 13.3858 7.93405 13.3921 7.95515C13.3696 7.94818 13.3468 7.94102 13.3219 7.94102C13.1907 7.94102 13.0844 8.04747 13.0844 8.17861C13.0844 8.2114 13.091 8.24267 13.1031 8.27112C13.0862 8.26735 13.0704 8.26094 13.0524 8.26094C12.921 8.26094 12.8145 8.3674 12.8145 8.4989C12.8145 8.54864 12.8332 8.59217 12.8593 8.63022C12.844 8.62721 12.8298 8.621 12.8136 8.621C12.6838 8.621 12.5785 8.72636 12.5785 8.85618C12.5785 8.91496 12.6022 8.96718 12.6379 9.00845C12.6178 9.00242 12.5977 8.99578 12.5755 8.99578C12.4512 8.99578 12.3503 9.09658 12.3503 9.22092C12.3503 9.34528 12.4512 9.44614 12.5755 9.44614C12.6225 9.44614 12.666 9.43169 12.7021 9.4071C12.6661 9.44818 12.6442 9.50184 12.6442 9.56069C12.6442 9.56276 12.6453 9.56448 12.6453 9.56655C12.6095 9.53961 12.5672 9.52071 12.519 9.5207C12.4007 9.5207 12.3048 9.61662 12.3048 9.73494C12.3048 9.85326 12.4007 9.94917 12.519 9.94917C12.5366 9.94917 12.5523 9.94316 12.5687 9.93921C12.5284 9.9801 12.5033 10.0359 12.5033 10.0977C12.5033 10.1408 12.5186 10.1789 12.5395 10.2132C12.5199 10.2068 12.5 10.2008 12.4783 10.2008C12.3675 10.2008 12.2777 10.2907 12.2777 10.4014C12.2778 10.5122 12.3675 10.6019 12.4783 10.6019C12.4851 10.6019 12.491 10.5987 12.4977 10.5979C12.4543 10.6315 12.4257 10.6797 12.4176 10.7364C12.3917 10.679 12.3343 10.6385 12.2672 10.6385C12.1757 10.6385 12.1017 10.7127 12.1017 10.8041C12.1017 10.8954 12.1757 10.9695 12.2672 10.9695C12.3467 10.9695 12.41 10.9122 12.4258 10.8375C12.4533 10.9149 12.5225 10.9699 12.6072 10.9781C12.5881 10.9994 12.5729 11.0236 12.5627 11.0509C12.5302 10.9966 12.4734 10.9584 12.4055 10.9584C12.3028 10.9584 12.2195 11.0417 12.2195 11.1443C12.2195 11.2461 12.3014 11.3284 12.4028 11.3299C12.3604 11.3686 12.3327 11.423 12.3327 11.4848C12.3327 11.5851 12.4039 11.665 12.4974 11.6865C12.4679 11.7258 12.4472 11.7722 12.4472 11.8251C12.4472 11.9248 12.5098 12.009 12.5974 12.0431C12.5771 12.08 12.5624 12.1204 12.5624 12.1656C12.5624 12.2681 12.6233 12.355 12.71 12.3966C12.6952 12.4302 12.6865 12.4669 12.6865 12.5059C12.6865 12.6131 12.7499 12.7039 12.8399 12.7484C12.8283 12.7789 12.8202 12.8115 12.8202 12.8462C12.8202 12.9572 12.8863 13.0512 12.9803 13.0957C12.9701 13.1243 12.962 13.1542 12.962 13.1866C12.962 13.2976 13.0287 13.3922 13.1237 13.4352C13.113 13.464 13.1052 13.4943 13.1052 13.5269C13.1052 13.6375 13.1719 13.7319 13.2672 13.7736C13.256 13.8028 13.2483 13.8341 13.2483 13.8674C13.2483 13.9773 13.3154 14.0713 13.4109 14.1112C13.3988 14.1412 13.3914 14.1734 13.3914 14.2077C13.3914 14.3172 13.4595 14.4099 13.5552 14.4479C13.542 14.4788 13.5346 14.5126 13.5346 14.5482C13.5346 14.6597 13.6072 14.7516 13.707 14.7863C13.6925 14.8176 13.683 14.8517 13.683 14.8885C13.683 15.0013 13.761 15.0923 13.8649 15.1206C13.8472 15.1534 13.8344 15.189 13.8344 15.2289C13.8344 15.3421 13.9173 15.4321 14.0246 15.4522C14.0022 15.4865 13.986 15.5251 13.986 15.5692C13.986 15.69 14.0839 15.788 14.2048 15.788C14.2095 15.788 14.2134 15.7855 14.218 15.7853C14.2018 15.8147 14.19 15.8468 14.19 15.8827C14.19 15.9962 14.2818 16.0881 14.3952 16.0881C14.4332 16.0881 14.4668 16.0749 14.4973 16.0571C14.488 16.0789 14.4829 16.103 14.4829 16.1285C14.4829 16.23 14.5652 16.3124 14.6669 16.3124C14.7684 16.3124 14.8508 16.23 14.8508 16.1285C14.8508 16.0269 14.7684 15.9446 14.6669 15.9446C14.6347 15.9446 14.6059 15.9551 14.5797 15.9696C14.5922 15.943 14.6004 15.914 14.6004 15.8827C14.6004 15.7695 14.5085 15.6776 14.3952 15.6776C14.3934 15.6776 14.3919 15.6785 14.3901 15.6787C14.4072 15.6499 14.4185 15.6184 14.4208 15.5832C14.4489 15.6391 14.5054 15.6787 14.5723 15.6787C14.6666 15.6787 14.7431 15.6022 14.7431 15.508C14.743 15.4136 14.6666 15.3371 14.5723 15.3371C14.4865 15.3371 14.4185 15.4013 14.4064 15.4839C14.3792 15.42 14.3212 15.3755 14.2522 15.3599C14.2708 15.3335 14.2831 15.3039 14.2894 15.2712C14.3225 15.3049 14.3684 15.326 14.4194 15.326C14.5202 15.3259 14.6019 15.2444 14.6019 15.1436C14.6019 15.0428 14.5202 14.961 14.4194 14.961C14.3373 14.961 14.2705 15.0164 14.2476 15.091C14.2189 15.0533 14.1809 15.0256 14.1349 15.0109C14.1485 14.9879 14.1573 14.9632 14.1628 14.9363C14.1939 14.9576 14.2296 14.9729 14.2701 14.9729C14.3773 14.9728 14.4642 14.886 14.4642 14.7788C14.4642 14.6716 14.3773 14.5845 14.2701 14.5845C14.2493 14.5845 14.2303 14.5904 14.2115 14.5964C14.2685 14.5677 14.3078 14.5139 14.3194 14.4492C14.3431 14.5282 14.4133 14.5866 14.4999 14.5866C14.6056 14.5866 14.6913 14.501 14.6913 14.3953C14.6913 14.3744 14.6856 14.3552 14.6794 14.3364C14.7129 14.3675 14.757 14.3874 14.8063 14.3874C14.9103 14.3874 14.9945 14.3032 14.9945 14.1992C14.9945 14.0952 14.9103 14.011 14.8063 14.011C14.7024 14.011 14.6181 14.0952 14.618 14.1992C14.618 14.2195 14.6237 14.238 14.6295 14.2563C14.5954 14.2245 14.5503 14.2041 14.4999 14.2041C14.4068 14.2041 14.3329 14.272 14.3157 14.3601C14.2917 14.2733 14.2156 14.2083 14.1212 14.2083C14.147 14.184 14.1652 14.1536 14.1768 14.1194C14.2136 14.171 14.2709 14.207 14.3391 14.207C14.4508 14.2069 14.5414 14.1163 14.5414 14.0046C14.5414 13.9829 14.5354 13.963 14.5291 13.9434C14.5594 13.9622 14.5932 13.9759 14.6315 13.976C14.732 13.976 14.8118 13.9 14.825 13.8028C14.8585 13.8603 14.9182 13.9007 14.9895 13.9007C15.0944 13.9007 15.1788 13.8169 15.1817 13.7127C15.2023 13.7941 15.2727 13.8559 15.3606 13.8559C15.4644 13.8559 15.5485 13.7717 15.5485 13.6679C15.5485 13.5641 15.4644 13.48 15.3606 13.48C15.2587 13.48 15.1767 13.5614 15.1737 13.6628C15.1531 13.5782 15.0804 13.5143 14.9895 13.5143C14.8923 13.5143 14.8152 13.5873 14.8016 13.6807C14.7674 13.6208 14.7055 13.5785 14.6315 13.5785C14.5218 13.5786 14.4329 13.6675 14.4329 13.7772C14.4329 13.7983 14.4388 13.8173 14.4448 13.8364C14.4136 13.8166 14.3787 13.8022 14.3391 13.8022C14.2534 13.8022 14.1812 13.8557 14.1516 13.9307C14.1174 13.8789 14.0637 13.8437 13.9991 13.8352C14.0151 13.8165 14.0299 13.7971 14.0394 13.7742C14.0769 13.8066 14.1245 13.8282 14.1781 13.8282C14.2965 13.8282 14.3925 13.7323 14.3925 13.614C14.3925 13.591 14.386 13.5699 14.3793 13.549C14.4034 13.5586 14.4293 13.5646 14.4567 13.5646C14.5566 13.5646 14.6363 13.493 14.6572 13.3992C14.694 13.4378 14.7455 13.4623 14.8031 13.4623C14.9022 13.4623 14.981 13.3896 14.9985 13.2952C15.0334 13.3498 15.0917 13.3882 15.1613 13.3883C15.2641 13.3883 15.3459 13.3085 15.3545 13.2079C15.3763 13.2891 15.4471 13.3502 15.5352 13.3502C15.6403 13.3502 15.7256 13.2648 15.7256 13.1597C15.7256 13.0545 15.6403 12.9694 15.5352 12.9694C15.4358 12.9694 15.3567 13.0465 15.3481 13.1435C15.3262 13.0589 15.2527 12.9952 15.1613 12.9952C15.0659 12.9952 14.9901 13.0646 14.9722 13.1546C14.9365 13.0971 14.8756 13.0568 14.803 13.0568C14.7071 13.0569 14.6305 13.1249 14.6094 13.2142C14.5712 13.1727 14.5175 13.146 14.4567 13.146C14.3411 13.146 14.2474 13.2396 14.2474 13.3553C14.2474 13.3768 14.2536 13.3965 14.2596 13.4159C14.2345 13.4056 14.2071 13.3995 14.1781 13.3995C14.1674 13.3995 14.1581 13.4041 14.1478 13.4056C14.2055 13.3642 14.2457 13.2997 14.2457 13.2232C14.2457 13.1953 14.2389 13.1691 14.2297 13.1444C14.247 13.1488 14.2635 13.155 14.2819 13.155C14.3881 13.155 14.4726 13.0789 14.4944 12.9792C14.5293 13.0046 14.5699 13.0227 14.6164 13.0227C14.7157 13.0227 14.7952 12.9526 14.8176 12.8601C14.8546 12.8972 14.9056 12.92 14.9621 12.92C15.0597 12.92 15.1377 12.8497 15.1577 12.758C15.1925 12.8143 15.2521 12.8541 15.3234 12.8541C15.4249 12.8541 15.5055 12.7764 15.5169 12.6779C15.5413 12.7551 15.6107 12.8118 15.6959 12.8118C15.801 12.8118 15.8862 12.7267 15.8862 12.6216C15.8862 12.5164 15.801 12.4311 15.6959 12.4311C15.5985 12.4311 15.5214 12.5053 15.51 12.5997C15.4853 12.5183 15.4127 12.458 15.3234 12.458C15.2295 12.458 15.1547 12.5247 15.1343 12.6123C15.0985 12.553 15.0364 12.5113 14.9621 12.5113C14.8669 12.5113 14.7905 12.5777 14.7677 12.6656C14.7294 12.6259 14.676 12.6007 14.6164 12.6007C14.5178 12.6007 14.4389 12.6696 14.4157 12.761C14.3782 12.7318 14.3332 12.7116 14.2819 12.7116C14.2021 12.7116 14.1353 12.7561 14.0963 12.8194C14.0947 12.7917 14.0903 12.7646 14.0802 12.7401C14.0895 12.7412 14.0976 12.7456 14.1071 12.7456C14.2202 12.7455 14.3102 12.6637 14.332 12.5571C14.3618 12.5722 14.3942 12.5827 14.4299 12.5827C14.5355 12.5827 14.6196 12.5064 14.6401 12.4067C14.675 12.4326 14.716 12.4507 14.7627 12.4507C14.8612 12.4507 14.9403 12.3817 14.9635 12.2904C15.0007 12.3303 15.0527 12.3561 15.1115 12.3561C15.2103 12.3561 15.2888 12.2843 15.3073 12.1908C15.3416 12.2473 15.401 12.2871 15.4719 12.2871C15.58 12.2871 15.6677 12.1995 15.6677 12.0916C15.6677 11.9834 15.5801 11.8958 15.4719 11.8958C15.3781 11.8958 15.3034 11.9633 15.2843 12.0514C15.2489 11.9913 15.1864 11.9489 15.1115 11.9489C15.0177 11.9489 14.942 12.0139 14.9185 12.1002C14.8799 12.0571 14.8252 12.0286 14.7627 12.0286C14.6626 12.0286 14.5828 12.0996 14.5611 12.1931C14.5241 12.1646 14.48 12.1449 14.4298 12.1449C14.3276 12.1449 14.2456 12.2165 14.2216 12.3112C14.1872 12.2914 14.1495 12.2771 14.1071 12.2771C14.0951 12.2771 14.0848 12.2822 14.0733 12.2839C14.1242 12.247 14.1585 12.1925 14.1691 12.1277C14.1926 12.136 14.2171 12.1428 14.2433 12.1428C14.3553 12.1428 14.4442 12.0601 14.4626 11.9534C14.4931 11.9698 14.5263 11.9813 14.5633 11.9813C14.667 11.9813 14.7497 11.9075 14.7717 11.8103C14.8073 11.8387 14.8506 11.8581 14.8997 11.8581C14.9994 11.8581 15.0791 11.7867 15.0999 11.6932C15.1365 11.7345 15.1885 11.7616 15.2481 11.7616C15.3586 11.7616 15.4481 11.6721 15.4481 11.5615C15.4481 11.4511 15.3586 11.3614 15.2481 11.3614C15.154 11.3614 15.0786 11.4279 15.0573 11.5155C15.0188 11.4701 14.9636 11.4398 14.8997 11.4398C14.8021 11.4398 14.7238 11.508 14.7008 11.5984C14.663 11.567 14.6163 11.5458 14.5633 11.5458C14.4578 11.5459 14.3739 11.6224 14.354 11.7222C14.3208 11.703 14.2844 11.6893 14.2433 11.6893C14.1365 11.6893 14.051 11.7646 14.027 11.8639C13.9983 11.8519 13.9668 11.8455 13.9338 11.8453C13.9738 11.8055 13.9969 11.7513 14.003 11.6921C14.0208 11.6964 14.0378 11.703 14.0568 11.703C14.1765 11.703 14.2716 11.612 14.2859 11.4961C14.3104 11.5054 14.3364 11.5119 14.3641 11.5119C14.474 11.5119 14.5613 11.4315 14.5806 11.3271C14.6126 11.3462 14.648 11.3601 14.6879 11.3601C14.792 11.3601 14.8747 11.2843 14.8943 11.1862C14.9299 11.2161 14.9741 11.2361 15.0241 11.2361C15.1371 11.2361 15.2286 11.1445 15.2286 11.0315C15.2286 10.9186 15.137 10.8271 15.0241 10.8271C14.9273 10.8271 14.85 10.8958 14.8288 10.9861C14.7909 10.9527 14.7425 10.9307 14.6879 10.9307C14.5849 10.9307 14.5029 11.0045 14.482 11.1012C14.4473 11.0792 14.4084 11.063 14.3641 11.063C14.2529 11.063 14.1647 11.1455 14.1469 11.2516C14.1191 11.2401 14.0887 11.2335 14.0568 11.2335C13.9401 11.2335 13.8476 11.32 13.8294 11.4315C13.81 11.4257 13.7903 11.4204 13.7692 11.4194C13.8095 11.3761 13.8343 11.3194 13.837 11.2565C13.8483 11.258 13.8584 11.2631 13.8702 11.2631C14.0003 11.2631 14.1045 11.1602 14.1107 11.0317C14.1285 11.036 14.1455 11.0426 14.1647 11.0426C14.2808 11.0426 14.3729 10.9557 14.3895 10.8442C14.416 10.8555 14.4452 10.8621 14.476 10.8621C14.5862 10.8621 14.6734 10.7797 14.6897 10.6744C14.7222 10.6951 14.7587 10.7104 14.8002 10.7104C14.9155 10.7104 15.0091 10.6169 15.0091 10.5016C15.0091 10.3863 14.9155 10.2927 14.8002 10.2927C14.6984 10.2927 14.6173 10.3671 14.5989 10.4638C14.5634 10.4391 14.5225 10.4214 14.476 10.4214C14.3678 10.4214 14.2818 10.5011 14.2634 10.6042C14.2332 10.5899 14.2004 10.5802 14.1647 10.5802C14.0443 10.5802 13.9484 10.6737 13.9376 10.7912C13.9159 10.7848 13.8941 10.7777 13.8702 10.7777C13.8444 10.7777 13.8209 10.7849 13.7976 10.7924C13.8778 10.7506 13.9343 10.6691 13.9343 10.5725C13.9343 10.5706 13.9332 10.5689 13.9332 10.5668C13.9442 10.5685 13.954 10.5734 13.9655 10.5734C14.0913 10.5734 14.1918 10.4747 14.2003 10.3513C14.2209 10.3573 14.2415 10.3641 14.2642 10.3641C14.3803 10.3641 14.4723 10.2753 14.485 10.1627C14.5129 10.176 14.5433 10.1849 14.5762 10.1849C14.694 10.1849 14.7896 10.0894 14.7896 9.97165C14.7896 9.85389 14.694 9.7583 14.5762 9.7583C14.4692 9.75831 14.3843 9.83861 14.3692 9.94148C14.3373 9.92452 14.3028 9.91226 14.2642 9.91226C14.1483 9.91226 14.0563 10.0009 14.0434 10.1132C14.0187 10.1045 13.9931 10.0975 13.9655 10.0975C13.8357 10.0975 13.731 10.2017 13.7284 10.3309C13.7134 10.3281 13.6995 10.3219 13.6836 10.3219C13.6616 10.3219 13.6419 10.3291 13.6215 10.3344C13.6941 10.2912 13.7451 10.2152 13.7451 10.1246C13.7451 10.1148 13.7406 10.1063 13.7395 10.0969C13.7487 10.0978 13.7567 10.1022 13.7662 10.1022C13.9002 10.1022 14.0089 9.99345 14.0089 9.8593C14.0089 9.85856 14.0085 9.858 14.0085 9.85725C14.0232 9.86026 14.0368 9.86611 14.0523 9.86611C14.1764 9.86611 14.2758 9.76792 14.2816 9.64507C14.3041 9.65298 14.3273 9.65942 14.3523 9.65942C14.4725 9.65942 14.57 9.56181 14.57 9.4416C14.57 9.32139 14.4725 9.224 14.3523 9.224C14.2397 9.224 14.1499 9.31082 14.1389 9.42065C14.1121 9.40973 14.083 9.40315 14.0523 9.40315C13.9269 9.40316 13.8259 9.5034 13.8223 9.62793C13.8037 9.62341 13.786 9.61666 13.7662 9.61665C13.6321 9.61665 13.5234 9.72534 13.5234 9.8593C13.5234 9.86759 13.5273 9.87478 13.5281 9.88289C13.5175 9.88156 13.5081 9.87666 13.4971 9.87666C13.4693 9.87666 13.4436 9.88401 13.4186 9.89248C13.4982 9.85234 13.5543 9.77204 13.5543 9.67671C13.5543 9.65656 13.5474 9.63848 13.5428 9.61965C13.5511 9.6206 13.5583 9.62456 13.5669 9.62456C13.7 9.62456 13.808 9.51659 13.808 9.38337C13.808 9.37434 13.8037 9.36662 13.8028 9.35796C13.8156 9.36003 13.8272 9.3655 13.8406 9.3655C13.9701 9.3655 14.075 9.26049 14.075 9.13105C14.075 9.12806 14.0734 9.12562 14.0733 9.12263C14.0914 9.12734 14.109 9.13369 14.1285 9.13369C14.251 9.13368 14.3504 9.03442 14.3504 8.91177C14.3504 8.78911 14.251 8.68964 14.1285 8.68962C14.0065 8.68962 13.9079 8.78815 13.9068 8.90986C13.8854 8.90346 13.864 8.89646 13.8406 8.89646C13.711 8.89646 13.606 9.00143 13.606 9.13105C13.606 9.13801 13.6093 9.14406 13.61 9.15083C13.5955 9.14819 13.5821 9.14219 13.5669 9.14219C13.4683 9.14219 13.3841 9.20176 13.3467 9.28655C13.3511 9.26827 13.3578 9.25092 13.3578 9.23132C13.3578 9.20042 13.3508 9.1714 13.3402 9.14446C13.3481 9.14521 13.3549 9.14899 13.3629 9.149C13.4952 9.149 13.6024 9.04155 13.6024 8.90928C13.6024 8.89064 13.5958 8.87423 13.5918 8.85691C13.6038 8.85879 13.6145 8.86408 13.6271 8.86409C13.7575 8.86409 13.8631 8.75856 13.8631 8.62817C13.8631 8.61763 13.8584 8.60875 13.8571 8.59858C13.8729 8.60216 13.8878 8.60818 13.9045 8.60818C14.0295 8.60818 14.1309 8.50683 14.1309 8.38171C14.1309 8.25661 14.0295 8.15525 13.9045 8.15525C13.7795 8.15526 13.6781 8.25661 13.6781 8.38171C13.6781 8.38944 13.6816 8.3959 13.6824 8.40325C13.6642 8.39873 13.6467 8.39211 13.6271 8.39211C13.4968 8.39212 13.3911 8.49779 13.3911 8.62817C13.3911 8.64569 13.3975 8.66115 13.401 8.67754C13.3881 8.67528 13.3764 8.66985 13.3629 8.66985C13.2306 8.66986 13.1233 8.77703 13.1233 8.90928C13.1233 8.94018 13.1303 8.96945 13.141 8.99658C13.1331 8.99583 13.1264 8.99204 13.1184 8.99204C12.9862 8.99206 12.8791 9.09925 12.8791 9.23132C12.8791 9.26788 12.8885 9.30142 12.9031 9.33232C12.8944 9.33138 12.8867 9.3272 12.8777 9.3272C12.8285 9.3272 12.7829 9.34252 12.7452 9.36851C12.7796 9.32897 12.8006 9.27744 12.8006 9.22092C12.8006 9.16554 12.7783 9.11655 12.7452 9.07737C12.7672 9.08415 12.7893 9.09114 12.8136 9.09114C12.9433 9.09114 13.0485 8.98581 13.0485 8.85618C13.0485 8.80738 13.0302 8.76462 13.0048 8.72712C13.0206 8.73052 13.0356 8.73672 13.0524 8.73672C13.1837 8.73671 13.2903 8.63023 13.2903 8.4989C13.2903 8.46595 13.2835 8.43451 13.2713 8.40588C13.2881 8.40965 13.304 8.41599 13.3219 8.41599C13.453 8.41597 13.5593 8.30974 13.5593 8.17861C13.5593 8.15337 13.5523 8.13037 13.545 8.10757C13.5659 8.11378 13.5867 8.1206 13.6097 8.12061C13.7373 8.12061 13.8406 8.01731 13.8406 7.88975C13.8406 7.7622 13.7373 7.65896 13.6097 7.65896ZM11.8263 15.1958C11.7164 15.1958 11.6273 15.2849 11.6273 15.3947C11.6273 15.5046 11.7164 15.5937 11.8263 15.5937C11.8434 15.5937 11.8588 15.5881 11.8747 15.5839C11.8391 15.6216 11.8164 15.6719 11.8164 15.7278C11.8164 15.8237 11.8817 15.9014 11.9695 15.9271C11.9694 15.9299 11.9678 15.9321 11.9678 15.935C11.9679 16.0604 12.0697 16.1624 12.1953 16.1624C12.3209 16.1624 12.4228 16.0604 12.4228 15.935C12.4228 15.8236 12.3412 15.7352 12.2355 15.7156C12.2288 15.6052 12.1393 15.517 12.0272 15.517C12.0075 15.517 11.9898 15.5233 11.9718 15.5282C12.0042 15.4928 12.0252 15.4465 12.0252 15.3947C12.0252 15.2849 11.9361 15.1958 11.8263 15.1958ZM15.1559 15.8362C15.0746 15.8362 15.0086 15.9022 15.0086 15.9836C15.0087 16.065 15.0747 16.1309 15.1559 16.1309C15.2372 16.1309 15.3031 16.065 15.3031 15.9836C15.3031 15.9022 15.2372 15.8362 15.1559 15.8362ZM15.8169 15.8011C15.7363 15.8011 15.671 15.8665 15.671 15.9471C15.6711 16.0276 15.7363 16.0929 15.8169 16.0929C15.8974 16.0929 15.9628 16.0276 15.9628 15.9471C15.9628 15.8665 15.8974 15.8011 15.8169 15.8011ZM16.3608 15.6873C16.2786 15.6873 16.2119 15.7541 16.2119 15.8362C16.212 15.9185 16.2786 15.9853 16.3608 15.9853C16.4431 15.9853 16.5097 15.9186 16.5097 15.8362C16.5097 15.7541 16.4431 15.6873 16.3608 15.6873ZM15.4827 15.6896C15.4017 15.6896 15.3359 15.7552 15.3359 15.8362C15.3359 15.9172 15.4017 15.9831 15.4827 15.9832C15.5637 15.9832 15.6294 15.9172 15.6294 15.8362C15.6294 15.7552 15.5637 15.6896 15.4827 15.6896ZM14.8259 15.629C14.7381 15.629 14.6669 15.7002 14.6669 15.788C14.6669 15.8758 14.7381 15.947 14.8259 15.947C14.9137 15.947 14.9849 15.8758 14.9849 15.788C14.9849 15.7002 14.9137 15.629 14.8259 15.629ZM16.0962 15.4737C16.0115 15.4737 15.9429 15.5423 15.9428 15.6271C15.9428 15.7116 16.0115 15.7804 16.0962 15.7804C16.181 15.7804 16.2497 15.7117 16.2497 15.6271C16.2497 15.5423 16.181 15.4737 16.0962 15.4737ZM15.0812 15.3812C14.9938 15.3812 14.9229 15.452 14.9229 15.5395C14.9229 15.6269 14.9938 15.6977 15.0812 15.6977C15.1686 15.6977 15.2394 15.6269 15.2394 15.5395C15.2394 15.452 15.1686 15.3812 15.0812 15.3812ZM12.1843 14.8093C12.0931 14.8093 12.0192 14.8832 12.0192 14.9744C12.0192 15.0656 12.0931 15.1394 12.1843 15.1394C12.1942 15.1394 12.2039 15.1384 12.2133 15.1367C12.1575 15.1649 12.1192 15.2227 12.1192 15.2894C12.1192 15.384 12.1958 15.4605 12.2903 15.4605C12.3256 15.4605 12.3566 15.4473 12.3839 15.4289C12.3767 15.4484 12.3713 15.4692 12.3713 15.4912C12.3713 15.5927 12.4537 15.6753 12.5552 15.6753C12.6569 15.6753 12.7393 15.5927 12.7393 15.4912C12.7393 15.3896 12.6569 15.3071 12.5552 15.3071C12.5154 15.3071 12.4804 15.3226 12.4503 15.344C12.4562 15.3267 12.4614 15.3088 12.4614 15.2894C12.4613 15.195 12.3847 15.1183 12.2903 15.1183C12.2796 15.1183 12.2692 15.1194 12.2591 15.1212C12.3125 15.0939 12.3493 15.0386 12.3493 14.9744C12.3493 14.8832 12.2753 14.8093 12.1843 14.8093ZM15.7808 15.3525C15.6951 15.3525 15.6255 15.422 15.6255 15.508C15.6255 15.5937 15.6951 15.6632 15.7808 15.6632C15.8667 15.6632 15.9362 15.5937 15.9362 15.508C15.9362 15.4221 15.8666 15.3525 15.7808 15.3525ZM15.434 15.2923C15.3473 15.2923 15.2768 15.3625 15.2768 15.4494C15.2768 15.536 15.3473 15.6065 15.434 15.6065C15.5208 15.6065 15.5911 15.536 15.5911 15.4494C15.5911 15.3625 15.5208 15.2923 15.434 15.2923ZM16.5982 15.1613C16.5122 15.1613 16.4424 15.231 16.4424 15.3171C16.4424 15.4032 16.5122 15.4729 16.5982 15.4729C16.6842 15.4729 16.754 15.4032 16.754 15.3171C16.754 15.231 16.6842 15.1613 16.5982 15.1613ZM16.3029 15.0396C16.215 15.0396 16.1438 15.1108 16.1438 15.1988C16.1438 15.2866 16.215 15.3578 16.3029 15.3578C16.3908 15.3578 16.462 15.2866 16.4621 15.1988C16.4621 15.1108 16.3908 15.0396 16.3029 15.0396ZM14.8217 15.0076C14.7283 15.0076 14.6526 15.0833 14.6525 15.1769C14.6525 15.2703 14.7283 15.3461 14.8217 15.3462C14.9153 15.3462 14.9911 15.2704 14.9911 15.1769C14.9911 15.0833 14.9153 15.0076 14.8217 15.0076ZM15.9428 14.9405C15.8534 14.9405 15.7808 15.013 15.7808 15.1025C15.7808 15.192 15.8534 15.2646 15.9428 15.2646C16.0323 15.2646 16.1049 15.192 16.1049 15.1025C16.1049 15.013 16.0323 14.9405 15.9428 14.9405ZM15.5492 14.8868C15.4582 14.8868 15.3844 14.9607 15.3844 15.0517C15.3845 15.1426 15.4583 15.2165 15.5492 15.2165C15.6402 15.2165 15.714 15.1427 15.714 15.0517C15.714 14.9607 15.6403 14.8868 15.5492 14.8868ZM15.1559 14.8757C15.0634 14.8757 14.9884 14.9506 14.9884 15.0432C14.9884 15.1357 15.0634 15.2107 15.1559 15.2107C15.2484 15.2107 15.3234 15.1357 15.3234 15.0432C15.3234 14.9507 15.2484 14.8757 15.1559 14.8757ZM11.7686 14.8103C11.6655 14.8103 11.5817 14.8939 11.5817 14.9972C11.5817 15.1004 11.6655 15.1841 11.7686 15.1841C11.8719 15.1841 11.9555 15.1004 11.9555 14.9972C11.9555 14.8939 11.8719 14.8103 11.7686 14.8103ZM12.6904 14.8481C12.6158 14.8481 12.5552 14.9086 12.5552 14.9833C12.5553 15.0579 12.6158 15.1183 12.6904 15.1183C12.765 15.1183 12.8254 15.0578 12.8254 14.9833C12.8254 14.9086 12.765 14.8481 12.6904 14.8481ZM14.6608 14.6058C14.5613 14.6059 14.4806 14.6865 14.4806 14.7862C14.4806 14.8856 14.5613 14.9665 14.6608 14.9665C14.7604 14.9665 14.8411 14.8856 14.8411 14.7862C14.8411 14.6865 14.7604 14.6058 14.6608 14.6058ZM16.5803 14.5839C16.4905 14.5839 16.4176 14.6567 16.4176 14.7466C16.4176 14.8365 16.4905 14.9093 16.5803 14.9094C16.6701 14.9094 16.7431 14.8365 16.7431 14.7466C16.7431 14.6567 16.6701 14.5839 16.5803 14.5839ZM12.3713 14.5653C12.2905 14.5653 12.2252 14.6307 12.2251 14.7113C12.2251 14.7919 12.2905 14.8573 12.3713 14.8573C12.452 14.8573 12.5174 14.7919 12.5174 14.7113C12.5174 14.6307 12.452 14.5653 12.3713 14.5653ZM16.1706 14.5039C16.0785 14.5039 16.0037 14.5787 16.0037 14.671C16.0037 14.7631 16.0785 14.8379 16.1706 14.8379C16.2629 14.8379 16.3377 14.7632 16.3377 14.671C16.3377 14.5787 16.2629 14.5039 16.1706 14.5039ZM14.9812 14.4434C14.8829 14.4434 14.8033 14.5229 14.8033 14.6213C14.8033 14.7194 14.8829 14.7991 14.9812 14.7991C15.0793 14.7991 15.159 14.7194 15.159 14.6213C15.159 14.5229 15.0793 14.4434 14.9812 14.4434ZM11.921 14.4466C11.8246 14.4466 11.7463 14.5248 11.7463 14.6213C11.7463 14.7178 11.8246 14.796 11.921 14.796C12.0175 14.796 12.0958 14.7177 12.0958 14.6213C12.0958 14.5248 12.0175 14.4466 11.921 14.4466ZM15.7592 14.4496C15.6649 14.4496 15.5886 14.5259 15.5886 14.6203C15.5886 14.7145 15.6649 14.7908 15.7592 14.7908C15.8534 14.7908 15.9299 14.7145 15.9299 14.6203C15.9299 14.5259 15.8534 14.4496 15.7592 14.4496ZM15.3626 14.4291C15.2663 14.4291 15.1883 14.5071 15.1883 14.6033C15.1883 14.6996 15.2663 14.7777 15.3626 14.7777C15.4589 14.7777 15.5369 14.6996 15.5369 14.6033C15.5369 14.5071 15.4589 14.4291 15.3626 14.4291ZM12.6308 14.4402C12.5586 14.4402 12.5 14.4988 12.5 14.571C12.5 14.6433 12.5586 14.7019 12.6308 14.7019C12.7031 14.7019 12.7616 14.6433 12.7616 14.571C12.7616 14.4988 12.7031 14.4402 12.6308 14.4402ZM11.2046 14.2169C11.1076 14.2169 11.0287 14.2957 11.0287 14.3927C11.0287 14.4897 11.1076 14.5686 11.2046 14.5686C11.3017 14.5685 11.3804 14.4897 11.3804 14.3927C11.3804 14.2957 11.3017 14.2169 11.2046 14.2169ZM11.6273 14.2335C11.5357 14.2335 11.4615 14.3077 11.4615 14.3993C11.4615 14.4909 11.5357 14.5653 11.6273 14.5653C11.7189 14.5653 11.7932 14.4909 11.7932 14.3993C11.7932 14.3077 11.7189 14.2335 11.6273 14.2335ZM9.94358 14.1484C9.8393 14.1484 9.75478 14.2329 9.75476 14.3371C9.75476 14.4413 9.83929 14.5259 9.94358 14.5259C10.0478 14.5259 10.1323 14.4413 10.1323 14.3371C10.1322 14.2329 10.0478 14.1484 9.94358 14.1484ZM12.1843 14.2097C12.0982 14.2097 12.0283 14.2795 12.0283 14.3657C12.0283 14.452 12.0982 14.5218 12.1843 14.5218C12.2704 14.5217 12.3403 14.452 12.3403 14.3657C12.3403 14.2795 12.2704 14.2098 12.1843 14.2097ZM9.25481 14.0809C9.13356 14.0809 9.03516 14.1793 9.03516 14.3004C9.03517 14.4217 9.13357 14.5199 9.25481 14.5199C9.37604 14.5199 9.47431 14.4217 9.47432 14.3004C9.47432 14.1793 9.37605 14.0809 9.25481 14.0809ZM16.3677 14.0422C16.2739 14.0422 16.1979 14.1182 16.1979 14.2119C16.198 14.3057 16.2739 14.3816 16.3677 14.3816C16.4613 14.3816 16.5372 14.3057 16.5372 14.2119C16.5372 14.1182 16.4613 14.0422 16.3677 14.0422ZM12.4757 14.1123C12.4058 14.1123 12.349 14.1691 12.349 14.239C12.349 14.309 12.4058 14.3657 12.4757 14.3657C12.5457 14.3657 12.6024 14.3091 12.6024 14.239C12.6024 14.1691 12.5457 14.1123 12.4757 14.1123ZM15.9589 13.9925C15.8623 13.9925 15.7841 14.0707 15.7841 14.1672C15.7841 14.2638 15.8623 14.342 15.9589 14.342C16.0554 14.342 16.1336 14.2638 16.1336 14.1672C16.1336 14.0707 16.0554 13.9925 15.9589 13.9925ZM15.1761 13.9718C15.0746 13.9718 14.9923 14.0539 14.9923 14.1555C14.9923 14.257 15.0746 14.3392 15.1761 14.3392C15.2775 14.3392 15.3599 14.257 15.3599 14.1555C15.3599 14.0539 15.2775 13.9718 15.1761 13.9718ZM15.5599 13.9648C15.4609 13.9648 15.3807 14.0451 15.3806 14.144C15.3806 14.2431 15.4609 14.3234 15.5599 14.3234C15.6589 14.3234 15.7392 14.2431 15.7392 14.144C15.7391 14.0451 15.6589 13.9648 15.5599 13.9648ZM11.9441 13.9599C11.8604 13.9599 11.7924 14.0279 11.7924 14.1116C11.7924 14.1954 11.8604 14.2633 11.9441 14.2633C12.0279 14.2633 12.0958 14.1954 12.0958 14.1116C12.0958 14.0279 12.0279 13.9599 11.9441 13.9599ZM9.66621 13.8429C9.56239 13.8429 9.47813 13.9271 9.47813 14.031C9.47813 14.1348 9.56239 14.219 9.66621 14.219C9.77003 14.219 9.85422 14.1348 9.85422 14.031C9.85422 13.9271 9.77003 13.843 9.66621 13.8429ZM10.7677 13.8687C10.6772 13.8687 10.6038 13.9422 10.6038 14.0326C10.6038 14.1231 10.6772 14.1964 10.7677 14.1964C10.8581 14.1964 10.9315 14.1231 10.9315 14.0326C10.9315 13.9422 10.8581 13.8687 10.7677 13.8687ZM11.1623 13.8689C11.0726 13.8689 11 13.9416 11 14.0313C11 14.121 11.0726 14.1936 11.1623 14.1936C11.2519 14.1936 11.3246 14.121 11.3246 14.0313C11.3246 13.9416 11.2518 13.8689 11.1623 13.8689ZM11.5578 13.8787C11.4711 13.8787 11.4008 13.949 11.4008 14.0359C11.4008 14.1225 11.4711 14.1928 11.5578 14.1928C11.6445 14.1928 11.7148 14.1225 11.7148 14.0359C11.7148 13.949 11.6445 13.8787 11.5578 13.8787ZM10.374 13.858C10.2835 13.858 10.2102 13.9313 10.2102 14.0217C10.2102 14.1124 10.2835 14.1856 10.374 14.1856C10.4645 14.1856 10.5379 14.1124 10.5379 14.0217C10.5379 13.9313 10.4645 13.858 10.374 13.858ZM12.2323 13.8429C12.1647 13.8429 12.1098 13.8978 12.1098 13.9654C12.1098 14.033 12.1647 14.0879 12.2323 14.0879C12.2999 14.0879 12.3548 14.033 12.3549 13.9654C12.3549 13.8978 12.3 13.843 12.2323 13.8429ZM10.0835 13.6117C9.99294 13.6117 9.91956 13.685 9.91956 13.7756C9.91956 13.8661 9.99294 13.9396 10.0835 13.9396C10.174 13.9395 10.2474 13.8661 10.2474 13.7756C10.2474 13.685 10.174 13.6117 10.0835 13.6117ZM11.921 13.6541C11.8557 13.6541 11.8027 13.707 11.8027 13.7724C11.8027 13.8378 11.8557 13.8908 11.921 13.8908C11.9863 13.8908 12.0393 13.8378 12.0393 13.7724C12.0393 13.7071 11.9863 13.6541 11.921 13.6541ZM16.1438 13.5052C16.0462 13.5052 15.9672 13.5842 15.9672 13.6818C15.9672 13.7792 16.0462 13.8583 16.1438 13.8583C16.2412 13.8583 16.3203 13.7792 16.3203 13.6818C16.3203 13.5842 16.2412 13.5052 16.1438 13.5052ZM15.747 13.481C15.6462 13.481 15.5644 13.5627 15.5644 13.6635C15.5644 13.7643 15.6462 13.8461 15.747 13.8461C15.8479 13.8461 15.9297 13.7643 15.9297 13.6635C15.9296 13.5627 15.8479 13.481 15.747 13.481ZM11.5674 13.5597C11.5025 13.5597 11.45 13.6123 11.45 13.6771C11.45 13.7421 11.5025 13.7947 11.5674 13.7947C11.6323 13.7947 11.6848 13.7421 11.6848 13.6771C11.6848 13.6123 11.6323 13.5597 11.5674 13.5597ZM10.8323 13.5535C10.7671 13.5535 10.7143 13.6065 10.7143 13.6716C10.7143 13.7368 10.7671 13.7898 10.8323 13.7898C10.8975 13.7898 10.9504 13.7368 10.9504 13.6716C10.9504 13.6064 10.8975 13.5535 10.8323 13.5535ZM11.2 13.5518C11.135 13.5518 11.0822 13.6046 11.0822 13.6696C11.0822 13.7346 11.135 13.7874 11.2 13.7874C11.265 13.7873 11.3177 13.7346 11.3177 13.6696C11.3177 13.6046 11.265 13.5518 11.2 13.5518ZM10.5121 13.4186C10.4467 13.4186 10.3937 13.4717 10.3937 13.5371C10.3937 13.6025 10.4467 13.6554 10.5121 13.6554C10.5775 13.6554 10.6304 13.6025 10.6304 13.5371C10.6304 13.4717 10.5775 13.4186 10.5121 13.4186ZM15.9198 12.9683C15.8185 12.9683 15.7364 13.0504 15.7364 13.1516C15.7364 13.253 15.8185 13.3351 15.9198 13.3351C16.021 13.3351 16.1032 13.253 16.1032 13.1516C16.1032 13.0504 16.0211 12.9683 15.9198 12.9683ZM10.5289 13.0697C10.4633 13.0697 10.4102 13.1228 10.4102 13.1883C10.4102 13.2539 10.4633 13.307 10.5289 13.307C10.5944 13.307 10.6476 13.2539 10.6476 13.1883C10.6476 13.1228 10.5944 13.0697 10.5289 13.0697ZM10.6785 12.7327C10.6122 12.7327 10.5584 12.7865 10.5584 12.8528C10.5584 12.9191 10.6122 12.9728 10.6785 12.9728C10.7447 12.9728 10.7985 12.9191 10.7985 12.8528C10.7985 12.7865 10.7447 12.7327 10.6785 12.7327ZM10.828 12.3932C10.7596 12.3932 10.7041 12.4486 10.7041 12.5172C10.7041 12.5856 10.7596 12.641 10.828 12.641C10.8964 12.641 10.9519 12.5856 10.9519 12.5172C10.9519 12.4486 10.8964 12.3932 10.828 12.3932ZM10.9776 12.0539C10.907 12.0539 10.85 12.111 10.85 12.1814C10.85 12.2521 10.9071 12.3092 10.9776 12.3092C11.0481 12.3092 11.1053 12.2521 11.1053 12.1814C11.1053 12.111 11.0481 12.0539 10.9776 12.0539ZM10.7367 11.7918C10.649 11.7918 10.5779 11.8628 10.5779 11.9506C10.5779 12.0382 10.649 12.1092 10.7367 12.1092C10.8243 12.1092 10.8954 12.0382 10.8954 11.9506C10.8954 11.8628 10.8243 11.7918 10.7367 11.7918ZM11.1272 11.7143C11.0546 11.7143 10.9957 11.7733 10.9957 11.8458C10.9957 11.9186 11.0546 11.9774 11.1272 11.9774C11.1998 11.9774 11.2586 11.9186 11.2586 11.8458C11.2586 11.7733 11.1998 11.7143 11.1272 11.7143ZM10.895 11.433C10.8085 11.433 10.7384 11.5031 10.7384 11.5896C10.7384 11.6761 10.8085 11.7462 10.895 11.7462C10.9815 11.7462 11.0517 11.6761 11.0517 11.5896C11.0517 11.5031 10.9815 11.433 10.895 11.433ZM11.2767 11.375C11.202 11.375 11.1415 11.4355 11.1415 11.5103C11.1415 11.5851 11.202 11.6455 11.2767 11.6455C11.3514 11.6455 11.412 11.5851 11.412 11.5103C11.412 11.4355 11.3514 11.375 11.2767 11.375ZM9.11836 10.6305C8.96132 10.6305 8.83396 10.7577 8.83396 10.9149C8.83397 11.0718 8.96132 11.1992 9.11836 11.1992C9.16027 11.1992 9.19946 11.189 9.23525 11.1726C9.28358 11.225 9.35137 11.2589 9.42825 11.2589C9.47242 11.2589 9.51218 11.2453 9.54873 11.2263C9.59329 11.2826 9.65923 11.3211 9.73667 11.3211C9.78075 11.3211 9.81986 11.3062 9.85547 11.2857C9.89476 11.3488 9.96157 11.3931 10.0414 11.3931C10.0705 11.3931 10.098 11.3867 10.1234 11.3765C10.1445 11.466 10.2212 11.5338 10.317 11.5338C10.4219 11.5338 10.5053 11.4531 10.5158 11.351C10.5403 11.4183 10.6034 11.4669 10.6792 11.4669C10.776 11.4669 10.8546 11.3885 10.8546 11.2915C10.8545 11.1946 10.776 11.1163 10.6792 11.1163C10.5894 11.1163 10.5181 11.1847 10.5077 11.2717C10.482 11.1894 10.4078 11.1285 10.317 11.1285C10.2961 11.1285 10.2771 11.1345 10.2582 11.1404C10.2429 11.0322 10.1537 10.9476 10.0414 10.9476C10.0089 10.9476 9.97842 10.9553 9.95054 10.968C9.91012 10.8898 9.83078 10.8346 9.73667 10.8346C9.70436 10.8346 9.6738 10.8416 9.64563 10.8531C9.59843 10.7809 9.52084 10.7304 9.42825 10.7304C9.39773 10.7304 9.36965 10.7383 9.34233 10.7477C9.29052 10.6784 9.21163 10.6305 9.11836 10.6305ZM11.0533 11.0722C10.967 11.0722 10.8971 11.1423 10.897 11.2286C10.897 11.3149 10.967 11.3848 11.0533 11.3848C11.1396 11.3848 11.2096 11.3149 11.2096 11.2286C11.2096 11.1423 11.1396 11.0722 11.0533 11.0722ZM11.4263 11.0356C11.3494 11.0357 11.2872 11.0978 11.2872 11.1747C11.2872 11.2515 11.3494 11.3137 11.4263 11.3137C11.5031 11.3137 11.5655 11.2515 11.5655 11.1747C11.5654 11.0978 11.5031 11.0356 11.4263 11.0356ZM9.34109 10.1041C9.18658 10.1041 9.06116 10.2294 9.06116 10.3841C9.06116 10.5386 9.18659 10.6639 9.34109 10.6639C9.37472 10.6639 9.406 10.6556 9.43586 10.6448C9.48344 10.7078 9.55543 10.7513 9.6405 10.7513C9.6759 10.7513 9.70961 10.744 9.74041 10.7312C9.78327 10.7967 9.85379 10.8427 9.93801 10.8427C9.97315 10.8427 10.006 10.8342 10.0361 10.8207C10.0722 10.8932 10.1452 10.9442 10.2316 10.9442C10.2559 10.9442 10.2782 10.9376 10.3 10.9305C10.3101 11.0322 10.3929 11.1125 10.4972 11.1125C10.5862 11.1125 10.6591 11.0539 10.6857 10.9738C10.7128 11.0362 10.7748 11.0801 10.8472 11.0801C10.9446 11.0801 11.0235 11.0011 11.0235 10.9037C11.0235 10.8063 10.9446 10.7274 10.8472 10.7274C10.7726 10.7274 10.7095 10.7741 10.6838 10.8396C10.6548 10.7643 10.5828 10.7102 10.4972 10.7102C10.4809 10.7102 10.4663 10.7159 10.4511 10.7195C10.4487 10.6 10.3519 10.5035 10.2316 10.5035C10.2066 10.5035 10.1835 10.5101 10.1611 10.5178C10.1267 10.4272 10.0406 10.3622 9.93801 10.3622C9.91437 10.3622 9.89288 10.3694 9.87122 10.3758C9.82845 10.2905 9.74243 10.2304 9.6405 10.2303C9.61818 10.2303 9.59817 10.2377 9.57744 10.2432C9.52855 10.1614 9.44312 10.1041 9.34109 10.1041ZM11.2116 10.7091C11.1242 10.7091 11.0533 10.7799 11.0533 10.8676C11.0533 10.955 11.1242 11.0258 11.2116 11.0258C11.299 11.0258 11.37 10.955 11.37 10.8676C11.37 10.7799 11.299 10.7091 11.2116 10.7091ZM11.5759 10.6961C11.497 10.6961 11.433 10.7602 11.433 10.8391C11.433 10.9181 11.497 10.982 11.5759 10.982C11.6548 10.982 11.7188 10.9181 11.7188 10.8391C11.7188 10.7602 11.6548 10.6961 11.5759 10.6961ZM9.56389 9.57783C9.41184 9.57783 9.2885 9.70105 9.2885 9.8533C9.2885 10.0054 9.41184 10.1288 9.56389 10.1288C9.58904 10.1288 9.61155 10.1207 9.63472 10.1145C9.67928 10.1904 9.75835 10.2439 9.85283 10.2439C9.87929 10.2439 9.90331 10.2363 9.92732 10.2288C9.96557 10.3083 10.0453 10.3641 10.1394 10.3641C10.1674 10.3641 10.1933 10.3571 10.2183 10.3483C10.2479 10.4334 10.3266 10.4954 10.4219 10.4954C10.4424 10.4954 10.4608 10.489 10.4796 10.4838C10.4794 10.4866 10.478 10.4888 10.478 10.4915C10.478 10.6017 10.5672 10.691 10.6775 10.691C10.7539 10.691 10.8181 10.6466 10.8516 10.5834C10.8781 10.6479 10.9412 10.6932 11.0152 10.6932C11.1131 10.6932 11.1925 10.614 11.1925 10.516C11.1925 10.4182 11.1131 10.3387 11.0152 10.3387C10.9497 10.3387 10.8949 10.376 10.8642 10.4288C10.8376 10.3498 10.7654 10.2921 10.6775 10.2921C10.6625 10.2921 10.6493 10.2974 10.6353 10.3006C10.6362 10.2927 10.64 10.2857 10.64 10.2774C10.64 10.157 10.5423 10.0594 10.4219 10.0594C10.4018 10.0594 10.3837 10.0658 10.3652 10.0709C10.3394 9.96785 10.2505 9.88985 10.1394 9.88984C10.1226 9.88984 10.1077 9.89605 10.0917 9.89944C10.0557 9.80128 9.96343 9.73047 9.85283 9.73047C9.83861 9.73047 9.82626 9.73626 9.8127 9.73852C9.76898 9.64414 9.67477 9.57783 9.56389 9.57783ZM11.37 10.346C11.2813 10.346 11.2096 10.4178 11.2096 10.5065C11.2096 10.5951 11.2813 10.6669 11.37 10.6669C11.4585 10.6669 11.5304 10.5951 11.5304 10.5065C11.5304 10.4178 11.4585 10.346 11.37 10.346ZM11.7464 10.3694C11.6654 10.3694 11.5997 10.4351 11.5997 10.5161C11.5997 10.5972 11.6654 10.6629 11.7464 10.6629C11.8275 10.6629 11.8931 10.5972 11.8931 10.5161C11.8931 10.4351 11.8274 10.3694 11.7464 10.3694ZM12.0873 10.3379C12.0028 10.3379 11.9343 10.4063 11.9343 10.4907C11.9343 10.5753 12.0028 10.6437 12.0873 10.6437C12.1717 10.6437 12.2402 10.5753 12.2402 10.4907C12.2402 10.4063 12.1717 10.3379 12.0873 10.3379ZM11.5495 9.99385C11.4597 9.99385 11.387 10.0666 11.387 10.1563C11.387 10.246 11.4597 10.3187 11.5495 10.3187C11.6392 10.3187 11.7119 10.246 11.7119 10.1563C11.7119 10.0666 11.6392 9.99386 11.5495 9.99385ZM9.78669 9.05159C9.63709 9.05159 9.51577 9.17272 9.51577 9.32251C9.51577 9.47211 9.63709 9.59343 9.78669 9.59343C9.80327 9.59343 9.81768 9.58689 9.8335 9.58406C9.87231 9.67355 9.96118 9.73647 10.0651 9.73647C10.0852 9.73647 10.103 9.7295 10.1216 9.72498C10.1528 9.81768 10.2377 9.88552 10.3408 9.88552C10.3635 9.88552 10.3842 9.87851 10.405 9.87249C10.425 9.97102 10.5079 10.0466 10.6121 10.0466C10.6316 10.0466 10.6492 10.0404 10.6672 10.0355C10.6649 10.0478 10.6598 10.059 10.6598 10.0719C10.6598 10.1809 10.7484 10.2697 10.8577 10.2697C10.9244 10.2697 10.9806 10.2344 11.0164 10.1838C11.04 10.2546 11.1046 10.3064 11.1833 10.3064C11.2816 10.3064 11.3614 10.2265 11.3614 10.1282C11.3614 10.0298 11.2816 9.94998 11.1833 9.94998C11.1262 9.94998 11.0777 9.97858 11.0451 10.0202C11.022 9.93658 10.9487 9.87382 10.8577 9.8738C10.8435 9.8738 10.8309 9.87911 10.8174 9.88193C10.8217 9.86517 10.8278 9.84897 10.8278 9.83088C10.8278 9.7118 10.7313 9.61533 10.6121 9.61533C10.597 9.61534 10.5836 9.62096 10.5693 9.62397C10.555 9.50829 10.4603 9.41765 10.3408 9.41765C10.3285 9.41765 10.3179 9.42273 10.3061 9.42461C10.279 9.31421 10.184 9.23059 10.0651 9.23059C10.0562 9.23059 10.0488 9.2347 10.0402 9.23564C10.0036 9.1292 9.90558 9.05159 9.78669 9.05159ZM12.2636 9.89233C12.1614 9.89233 12.0785 9.97522 12.0785 10.0773C12.0785 10.1796 12.1614 10.2624 12.2636 10.2624C12.3658 10.2623 12.4486 10.1796 12.4486 10.0773C12.4486 9.97523 12.3658 9.89235 12.2636 9.89233ZM11.8907 9.8073C11.7971 9.8073 11.7212 9.88307 11.7212 9.97671C11.7212 10.0704 11.7971 10.1463 11.8907 10.1463C11.9844 10.1462 12.0602 10.0703 12.0602 9.97671C12.0602 9.88308 11.9844 9.80732 11.8907 9.8073ZM10.0095 8.52512C9.86225 8.52513 9.74297 8.64457 9.74297 8.79172C9.74297 8.93888 9.86225 9.05817 10.0095 9.05818C10.0213 9.05818 10.0314 9.05287 10.0427 9.05137C10.074 9.1533 10.1652 9.22882 10.2774 9.22883C10.2926 9.22883 10.3057 9.22283 10.3202 9.22019C10.3414 9.32589 10.4304 9.4071 10.5422 9.4071C10.5598 9.4071 10.5753 9.40091 10.5917 9.39714C10.5987 9.50868 10.6893 9.59761 10.8025 9.59761C10.821 9.5976 10.8376 9.59158 10.8548 9.58706C10.8476 9.60741 10.8417 9.62871 10.8417 9.65151C10.8418 9.75984 10.9296 9.84778 11.038 9.8478C11.1149 9.8478 11.1801 9.80242 11.2122 9.73779C11.2112 9.74533 11.2077 9.75214 11.2077 9.76006C11.2077 9.85896 11.2878 9.93905 11.3867 9.93906C11.4857 9.93906 11.5659 9.85896 11.5659 9.76006C11.5659 9.66114 11.4857 9.58083 11.3867 9.58083C11.3168 9.58084 11.2579 9.62211 11.2284 9.68052C11.2299 9.67054 11.2342 9.66168 11.2343 9.65151C11.2343 9.54317 11.1464 9.45537 11.038 9.45537C11.0245 9.45538 11.0127 9.46042 10.9999 9.46306C11.0097 9.43858 11.0158 9.4122 11.0158 9.38433C11.0158 9.26657 10.9202 9.17105 10.8025 9.17104C10.792 9.17104 10.783 9.17554 10.7729 9.17705C10.7729 9.17743 10.7729 9.17668 10.7729 9.17705C10.7729 9.0495 10.6697 8.94532 10.5422 8.94531C10.5345 8.94531 10.5279 8.94888 10.5205 8.94963C10.505 8.82697 10.4043 8.73071 10.2774 8.73071C10.2727 8.73072 10.2688 8.73316 10.2642 8.73335C10.2369 8.61521 10.1359 8.52512 10.0095 8.52512ZM12.1565 9.32419C12.0449 9.32421 11.9544 9.41466 11.9544 9.5262C11.9544 9.63792 12.0449 9.72833 12.1565 9.72834C12.2682 9.72834 12.3587 9.63793 12.3587 9.5262C12.3587 9.41465 12.2682 9.32419 12.1565 9.32419ZM11.7387 9.34587C11.6339 9.34587 11.5488 9.43104 11.5488 9.53579C11.5488 9.64074 11.6339 9.72571 11.7387 9.72571C11.8436 9.7257 11.9287 9.64074 11.9287 9.53579C11.9287 9.43104 11.8436 9.34588 11.7387 9.34587ZM10.2363 8.00056C10.0916 8.00057 9.97421 8.11793 9.97419 8.26262C9.97419 8.40732 10.0916 8.52475 10.2363 8.52476C10.2467 8.52476 10.2557 8.52 10.2658 8.51868C10.2838 8.63719 10.3815 8.72954 10.505 8.72954C10.5207 8.72953 10.5345 8.72336 10.5494 8.72053C10.551 8.84619 10.6527 8.94772 10.7786 8.94773C10.8041 8.94773 10.8276 8.94095 10.8506 8.93323C10.848 8.9466 10.8425 8.95905 10.8425 8.97336C10.8425 9.0915 10.9384 9.18745 11.0566 9.18745C11.0919 9.18745 11.1239 9.17667 11.1532 9.1616C11.1257 9.19569 11.1069 9.23733 11.1069 9.28442C11.1069 9.39427 11.1958 9.48319 11.3054 9.4832C11.4152 9.4832 11.5042 9.39427 11.5042 9.28442C11.5041 9.17478 11.4152 9.08586 11.3054 9.08586C11.2744 9.08587 11.2459 9.09437 11.2198 9.10718C11.2501 9.07025 11.2706 9.0248 11.2706 8.97336C11.2706 8.85523 11.1748 8.75936 11.0566 8.75935C11.0357 8.75935 11.0168 8.76556 10.9978 8.77122C11.0021 8.7537 11.0085 8.73673 11.0085 8.7179C11.0085 8.5909 10.9055 8.48799 10.7786 8.48799C10.7682 8.48799 10.7592 8.49248 10.7492 8.49399C10.7493 8.49005 10.7513 8.48703 10.7513 8.48308C10.7513 8.34706 10.641 8.23685 10.505 8.23684C10.5009 8.23684 10.4976 8.23892 10.4936 8.23911C10.4811 8.10609 10.3726 8.00056 10.2363 8.00056ZM11.7023 8.86204C11.5877 8.86205 11.4949 8.95491 11.4948 9.06946C11.4948 9.18401 11.5877 9.27709 11.7023 9.2771C11.8169 9.2771 11.9098 9.18402 11.9098 9.06946C11.9098 8.9549 11.8169 8.86204 11.7023 8.86204ZM12.1567 8.82981C12.0373 8.82981 11.9405 8.92664 11.9405 9.04609C11.9405 9.16555 12.0373 9.26238 12.1567 9.26238C12.2762 9.26238 12.373 9.16555 12.373 9.04609C12.373 8.92664 12.2762 8.82981 12.1567 8.82981ZM10.5634 7.53364C10.4212 7.53366 10.3058 7.64899 10.3058 7.79123C10.3058 7.93348 10.4212 8.04881 10.5634 8.04883C10.581 8.04883 10.5964 8.04219 10.613 8.03879C10.6121 8.04727 10.608 8.05466 10.608 8.06333C10.608 8.19841 10.7176 8.30803 10.8529 8.30803C10.8795 8.30803 10.9039 8.30074 10.928 8.29302C10.9215 8.3143 10.9147 8.33558 10.9147 8.35894C10.9147 8.48687 11.0183 8.59052 11.1461 8.59053C11.1981 8.59053 11.2437 8.57014 11.2823 8.54131C11.2478 8.57993 11.2253 8.62971 11.2253 8.68567C11.2253 8.80681 11.3235 8.90495 11.4446 8.90496C11.5658 8.90496 11.664 8.80682 11.664 8.68567C11.664 8.56451 11.5658 8.46631 11.4446 8.46631C11.396 8.46631 11.3534 8.48518 11.317 8.51194C11.3537 8.47105 11.3777 8.41829 11.3777 8.35894C11.3777 8.23119 11.274 8.12756 11.1461 8.12756C11.1234 8.12757 11.1029 8.13435 11.0822 8.14038C11.0905 8.11589 11.0977 8.09064 11.0977 8.06333C11.0977 7.92805 10.9881 7.81834 10.8529 7.81833C10.8391 7.81833 10.8272 7.82398 10.814 7.82624C10.8157 7.8142 10.821 7.80366 10.821 7.79123C10.821 7.64898 10.7057 7.53364 10.5634 7.53364ZM12.3911 8.39211C12.2641 8.39213 12.1612 8.49518 12.1612 8.62217C12.1612 8.74915 12.2641 8.85199 12.3911 8.852C12.5181 8.852 12.6211 8.74916 12.6211 8.62217C12.6211 8.49517 12.5181 8.39211 12.3911 8.39211ZM11.9108 8.33799C11.7867 8.33799 11.6861 8.43864 11.6861 8.56262C11.6861 8.68679 11.7867 8.7874 11.9108 8.7874C12.0348 8.78739 12.1353 8.68678 12.1354 8.56262C12.1354 8.43865 12.0349 8.338 11.9108 8.33799ZM13.1884 7.2655C13.0584 7.26551 12.9531 7.37084 12.9531 7.50083C12.9531 7.54907 12.9711 7.59133 12.9959 7.62864C12.9646 7.61357 12.9306 7.60338 12.8934 7.60337C12.7614 7.60337 12.6543 7.71039 12.6543 7.84229C12.6543 7.90276 12.6788 7.95664 12.7159 7.99866C12.6873 7.9866 12.656 7.97961 12.6231 7.97961C12.4926 7.97962 12.3868 8.08534 12.3868 8.21589C12.3868 8.34628 12.4926 8.45217 12.6231 8.45217C12.7536 8.45217 12.8594 8.34628 12.8594 8.21589C12.8593 8.15618 12.8353 8.10302 12.7987 8.06157C12.8278 8.07401 12.8597 8.08142 12.8934 8.08142C13.0254 8.0814 13.1324 7.97436 13.1324 7.84229C13.1324 7.79311 13.1139 7.74993 13.0885 7.71206C13.119 7.72657 13.1524 7.73623 13.1884 7.73623C13.3184 7.73623 13.4238 7.63065 13.4238 7.50083C13.4237 7.37084 13.3184 7.2655 13.1884 7.2655ZM11.6125 7.90901C11.4837 7.90902 11.3794 8.01338 11.3794 8.14207C11.3794 8.27075 11.4837 8.37511 11.6125 8.37512C11.7412 8.37512 11.8455 8.27075 11.8455 8.14207C11.8455 8.01337 11.7412 7.90901 11.6125 7.90901ZM12.1241 7.85774C11.9945 7.85774 11.8895 7.96286 11.8895 8.09248C11.8895 8.22192 11.9945 8.32707 12.1241 8.32708C12.2538 8.32708 12.3588 8.22192 12.3588 8.09248C12.3588 7.96286 12.2538 7.85774 12.1241 7.85774ZM11.01 7.17791C10.8702 7.17792 10.7569 7.29116 10.7569 7.43096C10.7569 7.57075 10.8702 7.68421 11.01 7.68423C11.0389 7.68423 11.0657 7.67667 11.0916 7.66782C11.0773 7.69871 11.0681 7.73262 11.0681 7.76897C11.0681 7.9035 11.1771 8.01243 11.3115 8.01243C11.4459 8.01241 11.5548 7.90349 11.5548 7.76897C11.5548 7.63465 11.4459 7.52553 11.3115 7.52551C11.2846 7.52551 11.2598 7.53291 11.2356 7.54082C11.2521 7.50728 11.2632 7.4709 11.2632 7.43096C11.2632 7.29115 11.1498 7.17791 11.01 7.17791ZM12.3828 7.41213C12.25 7.41213 12.1423 7.51969 12.1423 7.65251C12.1423 7.78535 12.25 7.89297 12.3828 7.89297C12.5156 7.89296 12.6231 7.78535 12.6231 7.65251C12.6231 7.5197 12.5156 7.41214 12.3828 7.41213ZM11.8383 7.38555C11.7047 7.38556 11.5964 7.49371 11.5964 7.62747C11.5964 7.76105 11.7047 7.86922 11.8383 7.86924C11.9719 7.86924 12.0803 7.76106 12.0803 7.62747C12.0803 7.4937 11.9719 7.38555 11.8383 7.38555ZM12.6746 7.0063C12.5422 7.0063 12.4348 7.11365 12.4348 7.24609C12.4348 7.37855 12.5422 7.48596 12.6746 7.48596C12.807 7.48595 12.9144 7.37855 12.9144 7.24609C12.9143 7.11365 12.807 7.00631 12.6746 7.0063ZM11.5392 6.9614C11.4018 6.96142 11.2905 7.07278 11.2905 7.21013C11.2905 7.34748 11.4018 7.45884 11.5392 7.45886C11.6765 7.45886 11.7879 7.34749 11.7879 7.21013C11.7879 7.07277 11.6765 6.9614 11.5392 6.9614ZM12.1096 6.90244C11.9747 6.90244 11.8654 7.01172 11.8654 7.14663C11.8654 7.28154 11.9747 7.39082 12.1096 7.39082C12.2445 7.39081 12.3538 7.28153 12.3538 7.14663C12.3538 7.01173 12.2445 6.90246 12.1096 6.90244Z" fill="#323544"/>
</svg>
