<svg width="24" height="24" viewBox="0 0 24 24" fill="none" xmlns="http://www.w3.org/2000/svg">
<path d="M17.8146 3.32031C19.5738 3.32031 21 4.7465 21 6.50572V17.492C21 19.2513 19.5738 20.6775 17.8146 20.6775H6.18541C4.42618 20.6775 3 19.2513 3 17.492V6.50572C3 4.7465 4.42618 3.32031 6.18541 3.32031H17.8146ZM8.37106 7.70731C8.30361 7.70733 8.28128 7.73306 8.28128 7.80054V15.3959C8.28128 15.4569 8.30378 15.4988 8.36164 15.4988H9.83036C9.90107 15.4988 9.93331 15.4666 9.93331 15.3959V12.4839H12.9065C12.9643 12.4838 12.9997 12.4612 12.9998 12.3906V11.092C12.9998 11.0213 12.9674 10.9988 12.8999 10.9988H9.93331V9.19235H13.2248C13.3019 9.19231 13.3372 9.16007 13.3243 9.08939L13.1925 7.80682C13.1796 7.72981 13.1604 7.70732 13.0801 7.70731H8.37106ZM14.3046 9.58817C14.2372 9.58817 14.2052 9.62027 14.2051 9.68767V15.3836C14.2051 15.4607 14.2435 15.496 14.3238 15.496H15.7573C15.8441 15.496 15.8669 15.4639 15.8669 15.3868V9.68454C15.8669 9.60744 15.8442 9.58817 15.7671 9.58817H14.3046ZM15.9953 6.43541C16.0595 6.14935 15.7156 5.95302 15.5002 6.15227L14.9538 6.65702C14.8831 6.72445 14.7804 6.75009 14.6873 6.72764L13.9606 6.56379C13.6746 6.49961 13.4754 6.84033 13.6746 7.05566L14.1794 7.60216C14.2468 7.67286 14.2725 7.77259 14.25 7.86897L14.0861 8.59532C14.0219 8.88138 14.3658 9.07742 14.5812 8.87814L15.1273 8.3734C15.198 8.30592 15.301 8.28031 15.3941 8.30277L16.1208 8.46662C16.4068 8.53079 16.6059 8.1904 16.4068 7.97506L15.902 7.42857C15.8345 7.35787 15.8089 7.25817 15.8314 7.16176L15.9953 6.43541Z" fill="#323544"/>
</svg>
