<svg width="24" height="24" viewBox="0 0 24 24" fill="none" xmlns="http://www.w3.org/2000/svg">
<path opacity="0.35" d="M22.593 11.7109C22.8167 11.7109 23 11.8264 23 11.9676V12.8394C23 12.9805 22.8167 13.096 22.593 13.096C22.3693 13.096 22.186 12.9805 22.186 12.8394V11.9667C22.186 11.8264 22.3693 11.7109 22.593 11.7109ZM20.976 12.0519C21.1997 12.0519 21.383 12.1674 21.383 12.3086V14.229C21.383 14.3693 21.1997 14.4848 20.976 14.4848C20.7514 14.4848 20.569 14.3693 20.569 14.2281V12.3077C20.569 12.1674 20.7523 12.0519 20.976 12.0519ZM19.3581 12.4498C19.5818 12.4498 19.7651 12.5644 19.7651 12.7055V14.8643C19.7651 15.0054 19.5818 15.1209 19.3581 15.1209C19.1344 15.1209 18.9511 15.0054 18.9511 14.8643V12.7055C18.9511 12.5644 19.1344 12.4498 19.3581 12.4498ZM17.7411 12.7789C17.9648 12.7789 18.1481 12.8934 18.1481 13.0346V15.1704C18.1481 15.3107 17.9648 15.4262 17.7411 15.4262C17.5174 15.4262 17.3341 15.3107 17.3341 15.1695V13.0337C17.3341 12.8934 17.5174 12.7789 17.7411 12.7789ZM16.1232 13.0685C16.3478 13.0685 16.5302 13.184 16.5302 13.3252V15.1741C16.5302 15.3153 16.3468 15.4308 16.1232 15.4308C15.8995 15.4308 15.7162 15.3153 15.7162 15.1741V13.3252C15.7162 13.184 15.8995 13.0685 16.1232 13.0685ZM14.5144 14.2483C14.7381 14.2483 14.9214 14.3629 14.9214 14.5049V15.0916C14.9214 15.2319 14.7381 15.3464 14.5144 15.3464C14.2908 15.3464 14.1074 15.2319 14.1074 15.0907V14.504C14.1074 14.3629 14.2908 14.2483 14.5144 14.2483Z" fill="#323544"/>
<path d="M22.593 9.36917C22.8167 9.36917 23 9.48375 23 9.62492V11.0687C23 11.2098 22.8167 11.3253 22.593 11.3253C22.3693 11.3253 22.186 11.2098 22.186 11.0687V9.62492C22.186 9.48375 22.3693 9.36825 22.593 9.36825V9.36917ZM20.976 8.39933C21.1997 8.39933 21.383 8.51392 21.383 8.656V11.2318C21.383 11.3721 21.1997 11.4867 20.976 11.4867C20.7514 11.4867 20.569 11.3721 20.569 11.2309V8.65508C20.569 8.51392 20.7523 8.39933 20.976 8.39933ZM19.3581 8.0345C19.5818 8.0345 19.7651 8.15 19.7651 8.29117V11.6526C19.7651 11.7928 19.5818 11.9093 19.3581 11.9093C19.1344 11.9093 18.9511 11.7928 18.9511 11.6526V8.29025C18.9511 8.15 19.1344 8.0345 19.3581 8.0345ZM17.7411 7.875C17.9648 7.875 18.1481 7.9905 18.1481 8.13167V12.0642C18.1481 12.2053 17.9648 12.3208 17.7411 12.3208C17.5174 12.3208 17.3341 12.2053 17.3341 12.0642V8.13167C17.3341 7.9905 17.5174 7.875 17.7411 7.875ZM16.1232 7.97492C16.3477 7.97492 16.5302 8.09042 16.5302 8.23158V12.2237C16.5302 12.3648 16.3468 12.4803 16.1232 12.4803C15.8995 12.4803 15.7162 12.3648 15.7162 12.2237V8.23067C15.7162 8.09042 15.8995 7.974 16.1232 7.974V7.97492ZM14.5144 8.22517C14.7381 8.22517 14.9214 8.33975 14.9214 8.48183V13.463C14.9214 13.6033 14.7381 13.7197 14.5144 13.7197C14.2908 13.7197 14.1074 13.6042 14.1074 13.463V8.48C14.1074 8.33883 14.2908 8.22333 14.5144 8.22333V8.22517ZM12.8635 8.64958C13.0872 8.64958 13.2705 8.76417 13.2705 8.90533V14.5538C13.2705 14.695 13.0872 14.8105 12.8635 14.8105C12.6398 14.8105 12.4565 14.695 12.4565 14.5538V8.90533C12.4565 8.76417 12.6398 8.64867 12.8635 8.64867V8.64958ZM11.2465 9.36825C11.4702 9.36825 11.6535 9.48375 11.6535 9.62492V15.0589C11.6535 15.2001 11.4702 15.3156 11.2465 15.3156C11.0219 15.3156 10.8395 15.2001 10.8395 15.0589V9.62492C10.8395 9.48375 11.0228 9.36825 11.2465 9.36825ZM9.62858 10.3051C9.85317 10.3051 10.0356 10.4206 10.0356 10.5617V15.2927C10.0356 15.4338 9.85225 15.5493 9.62858 15.5493C9.40492 15.5493 9.22158 15.4338 9.22158 15.2927V10.5608C9.22158 10.4197 9.40492 10.3042 9.62858 10.3042V10.3051ZM8.01158 10.9523C8.23525 10.9523 8.41858 11.0677 8.41858 11.2089V15.8693C8.41858 16.0095 8.23525 16.125 8.01158 16.125C7.78792 16.125 7.60458 16.0095 7.60458 15.8683V11.2089C7.60458 11.0677 7.78792 10.9523 8.01158 10.9523ZM6.40192 11.4885C6.6265 11.4885 6.80892 11.604 6.80892 11.7452V14.2248C6.80892 14.3659 6.62558 14.4814 6.40192 14.4814C6.17825 14.4814 5.99492 14.3659 5.99492 14.2248V11.7442C5.99492 11.604 6.17825 11.4885 6.40192 11.4885ZM4.73633 9.07033C4.96 9.07033 5.14333 9.18583 5.14333 9.327V12.7837C5.14333 12.9249 4.96 13.0404 4.73633 13.0404C4.51267 13.0404 4.32933 12.9249 4.32933 12.7837V9.327C4.32933 9.18583 4.51267 9.07033 4.73633 9.07033ZM3.0735 9.29675C3.29717 9.29675 3.47958 9.41225 3.47958 9.55342V10.6168C3.47958 10.757 3.29625 10.8725 3.0735 10.8725C2.84892 10.8725 2.6665 10.757 2.6665 10.6158V9.5525C2.6665 9.41225 2.84983 9.29675 3.0735 9.29675ZM1.407 9.15375C1.63067 9.15375 1.814 9.26925 1.814 9.41042V9.88983C1.814 10.0301 1.63067 10.1456 1.407 10.1456C1.18333 10.1456 1 10.0301 1 9.88892V9.41042C1 9.26925 1.18333 9.15375 1.407 9.15375ZM6.40283 8.74858C6.6265 8.74858 6.80892 8.86408 6.80892 9.00525V9.36458C6.80892 9.50575 6.62558 9.62125 6.40192 9.62125C6.17825 9.62125 5.99492 9.50575 5.99492 9.36458V9.00433C5.99492 8.86317 6.17825 8.74767 6.40192 8.74767L6.40283 8.74858Z" fill="#323544"/>
</svg>
