<svg width="24" height="24" viewBox="0 0 24 24" fill="none" xmlns="http://www.w3.org/2000/svg">
<path d="M3 16.6368C3 14.2095 4.9818 12.2421 7.4001 12.2421C9.7941 12.2421 11.7561 14.1906 11.7561 16.5936C11.7561 18.9966 9.8157 20.9451 7.4217 20.9451H3V16.6368ZM21 21H16.5783C14.1843 21 12.243 19.0515 12.243 16.6485C12.243 14.2455 14.205 12.297 16.599 12.297C19.0182 12.297 21 14.2644 21 16.6917V21ZM21 7.3632C21 9.7905 19.0182 11.7579 16.5999 11.7579C14.2059 11.7579 12.2439 9.8094 12.2439 7.4064C12.2439 5.0034 14.1843 3.0549 16.5783 3.0549H21V7.3632ZM3 3H7.4217C9.8157 3 11.757 4.9485 11.757 7.3515C11.757 9.7545 9.795 11.703 7.4001 11.703C4.9818 11.703 3 9.7356 3 7.3083V3Z" fill="#323544"/>
</svg>
