<svg width="24" height="24" viewBox="0 0 24 24" fill="none" xmlns="http://www.w3.org/2000/svg">
<path d="M13.056 4.20703C12.4693 4.20703 11.9945 4.67453 11.9945 5.24928V18.727C11.9945 19.3027 12.4702 19.7693 13.0569 19.7693H16.0893C16.6759 19.7693 17.1507 19.3018 17.1507 18.727V5.24928C17.1517 4.67453 16.6759 4.20703 16.0893 4.20703H13.056ZM7.336 4.28128C7.04817 4.28128 6.78692 4.39403 6.59625 4.57736C6.59533 4.5792 6.59258 4.57736 6.5935 4.57553C6.5935 4.57553 6.59167 4.57278 6.59075 4.57461L6.55867 4.61586C6.51072 4.66674 6.46804 4.72233 6.43125 4.78178C6.33042 4.91378 6.24242 5.05311 6.16817 5.19978L1.36942 14.6204L1.09808 15.2199C1.093 15.2302 1.08811 15.2406 1.08342 15.251L1.05408 15.3152L1.05592 15.317C1.01851 15.4258 0.999906 15.5402 1.00092 15.6553L1 18.7564C1.00144 18.8936 1.02989 19.0292 1.08374 19.1554C1.13759 19.2817 1.21577 19.3961 1.31383 19.4921C1.41189 19.5881 1.52791 19.6639 1.65525 19.715C1.78259 19.7662 1.91877 19.7918 2.056 19.7904H5.224C5.36123 19.7918 5.49741 19.7662 5.62475 19.715C5.75209 19.6639 5.86811 19.5881 5.96617 19.4921C6.06423 19.3961 6.14241 19.2817 6.19626 19.1554C6.25011 19.0292 6.27856 18.8936 6.28 18.7564V13.5864C6.28 11.3029 8.17108 9.45128 10.504 9.45128C10.6412 9.45273 10.7774 9.42714 10.9048 9.37596C11.0321 9.32478 11.1481 9.24902 11.2462 9.153C11.3442 9.05699 11.4224 8.94259 11.4763 8.81636C11.5301 8.69012 11.5586 8.55451 11.56 8.41728V5.31528C11.5586 5.17805 11.5301 5.04244 11.4763 4.91621C11.4224 4.78997 11.3442 4.67558 11.2462 4.57956C11.1481 4.48354 11.0321 4.40778 10.9048 4.3566C10.7774 4.30542 10.6412 4.27983 10.504 4.28128H7.336ZM17.72 17.2063C17.72 15.7781 18.9025 14.6213 20.36 14.6213C21.8175 14.6213 23 15.7781 23 17.2063C23 18.6317 21.8175 19.7904 20.36 19.7904C18.9025 19.7904 17.72 18.6344 17.72 17.2063Z" fill="#323544"/>
</svg>
