<svg width="24" height="24" viewBox="0 0 24 24" fill="none" xmlns="http://www.w3.org/2000/svg">
<path d="M5.08058 8.155C5.48374 8.15402 5.88275 8.07363 6.25485 7.91844C6.62694 7.76325 6.96482 7.53629 7.2492 7.25052C7.53358 6.96474 7.75889 6.62576 7.91226 6.25291C8.06563 5.88006 8.14406 5.48066 8.14308 5.0775C8.14406 4.67434 8.06563 4.27494 7.91226 3.90209C7.75889 3.52924 7.53358 3.19026 7.2492 2.90448C6.96482 2.61871 6.62694 2.39175 6.25485 2.23656C5.88275 2.08137 5.48374 2.00098 5.08058 2C4.67742 2.00098 4.2784 2.08137 3.90631 2.23656C3.53422 2.39175 3.19633 2.61871 2.91195 2.90448C2.62757 3.19026 2.40227 3.52924 2.24889 3.90209C2.09552 4.27494 2.01709 4.67434 2.01808 5.0775C2.01709 5.48066 2.09552 5.88006 2.24889 6.25291C2.40227 6.62576 2.62757 6.96474 2.91195 7.25052C3.19633 7.53629 3.53422 7.76325 3.90631 7.91844C4.2784 8.07363 4.67742 8.15402 5.08058 8.155ZM5.08058 22C5.48377 21.9991 5.88283 21.9188 6.25498 21.7637C6.62712 21.6085 6.96504 21.3816 7.24945 21.0958C7.53385 20.81 7.75915 20.4709 7.91248 20.098C8.06582 19.7251 8.14417 19.3257 8.14308 18.9225C8.14406 18.5193 8.06563 18.1199 7.91226 17.7471C7.75889 17.3742 7.53358 17.0353 7.2492 16.7495C6.96482 16.4637 6.62694 16.2367 6.25485 16.0816C5.88275 15.9264 5.48374 15.846 5.08058 15.845C4.67739 15.8459 4.27832 15.9262 3.90618 16.0813C3.53404 16.2365 3.19611 16.4634 2.91171 16.7492C2.62731 17.035 2.402 17.3741 2.24867 17.747C2.09534 18.1199 2.01698 18.5193 2.01808 18.9225C2.01709 19.3257 2.09552 19.7251 2.24889 20.0979C2.40227 20.4708 2.62757 20.8097 2.91195 21.0955C3.19633 21.3813 3.53422 21.6083 3.90631 21.7634C4.2784 21.9186 4.67742 21.999 5.08058 22Z" fill="#323544"/>
<path d="M10.6331 8C10.9487 7.94544 11.2679 7.91369 11.5881 7.905H13.2856C13.7578 7.90412 14.2104 7.71596 14.5441 7.38179C14.8778 7.04763 15.0653 6.59475 15.0656 6.1225V4.03333C15.0656 3.05083 14.2656 2.25083 13.2856 2.25083H11.2156C10.7432 2.25172 10.2904 2.43999 9.95671 2.77434C9.62299 3.10868 9.43557 3.56177 9.43557 4.03417L9.3689 5.27333C9.34979 5.52502 9.3164 5.77543 9.2689 6.02333C9.18851 6.42388 9.05188 6.81105 8.86307 7.17333C8.86307 7.17333 8.59057 7.69583 8.23557 8.06333C8.14859 8.15236 8.05766 8.23745 7.96307 8.31833L7.78057 8.46833C7.34144 8.79452 6.83491 9.01832 6.29807 9.12333C6.06057 9.17333 5.51557 9.17833 5.29307 9.18333H4.04557C3.06307 9.18333 2.26557 9.98333 2.26557 10.9733V13.0567C2.26557 14.0458 3.06557 14.8458 4.04557 14.8458H6.16557C6.63843 14.8428 7.09091 14.6529 7.42434 14.3176C7.75778 13.9822 7.94514 13.5287 7.94557 13.0558V11.5608C7.9289 11.0442 7.96307 10.0833 8.41807 9.43833C8.7014 9.03833 9.1514 8.68333 9.22807 8.62167C9.43104 8.4579 9.65461 8.32146 9.89307 8.21583C9.96557 8.18333 10.1931 8.09333 10.6306 8.01083V8H10.6331Z" fill="#323544"/>
<path d="M20.2656 2.25H18.0847C17.1297 2.25 16.3597 3.0225 16.3597 3.9775V5.45C16.3597 5.45 16.3597 6.4725 16.1097 7.23333C15.8422 7.9875 15.1672 8.6725 14.4897 8.9225C13.6972 9.2125 12.7697 9.1725 12.2972 9.1725H10.9722C10.5152 9.17382 10.0773 9.35649 9.75482 9.68039C9.43233 10.0043 9.25157 10.4429 9.25223 10.9V13.095C9.25223 14.05 10.0222 14.8225 10.9722 14.8225H13.1572C13.6143 14.8212 14.0522 14.6385 14.3746 14.3146C14.6971 13.9907 14.8779 13.5521 14.8772 13.095L14.8939 12.1783C14.8847 11.8375 14.9172 11.1375 15.0822 10.6283C15.1422 10.4375 15.2647 10.0875 15.5422 9.705C15.7422 9.4325 15.9372 9.26 16.1339 9.0775C16.4947 8.755 16.7997 8.5675 16.8839 8.5225C17.0672 8.4125 17.3839 8.2225 17.8322 8.0825C18.2322 7.96 18.5322 7.9375 19.0422 7.905C19.3422 7.8825 19.7572 7.8725 20.2572 7.9C21.2122 7.9 21.9822 7.1275 21.9822 6.1725V3.9775C21.9826 3.75083 21.9382 3.52632 21.8517 3.3168C21.7652 3.10727 21.6383 2.91685 21.4782 2.75642C21.318 2.59598 21.1279 2.46868 20.9185 2.38179C20.7092 2.29489 20.4847 2.25011 20.2581 2.25H20.2656Z" fill="#323544"/>
</svg>
