<svg width="24" height="24" viewBox="0 0 24 24" fill="none" xmlns="http://www.w3.org/2000/svg">
<path d="M12.2833 6.96083C12.1929 6.65352 12.1241 6.34026 12.0775 6.02333V5.1C13.801 5.11706 15.4553 5.7809 16.7125 6.96L12.2833 6.96083ZM11.7083 6.96083L11.7075 6.96H7.2875C8.54472 5.7809 10.199 5.11706 11.9225 5.1V6.00667C11.8742 6.33167 11.8025 6.65 11.7083 6.96083ZM7.18083 7.11667H11.6583C11.5932 7.31336 11.519 7.50691 11.4358 7.69667C11.0919 8.51938 10.5941 9.2689 9.96917 9.905L7.18083 7.11667ZM6.96083 6.96083H4.48083V7.11667H6.91C5.66607 8.40932 4.96338 10.1286 4.94583 11.9225H2V12.0775H4.94583C4.96338 13.8714 5.66607 15.5907 6.91 16.8833H4.48083V17.0383H6.96083V19.5192H7.11667V17.09C8.40932 18.3339 10.1286 19.0366 11.9225 19.0542V22H12.0775V19.0542C13.8714 19.0366 15.5907 18.3339 16.8833 17.09V19.5192H17.0383V17.0383H19.5192V16.8833H17.09C18.3339 15.5907 19.0366 13.8714 19.0542 12.0775H22V11.9225H19.0542C19.0366 10.1286 18.3339 8.40932 17.09 7.11667H19.5192V6.96083H17.0383V4.48083H16.8833V6.91C15.5907 5.66607 13.8714 4.96338 12.0775 4.94583V2H11.9225V4.94583C10.1286 4.96338 8.40932 5.66607 7.11667 6.91V4.48083H6.96083V6.96083ZM12.0775 18.8992V17.9767C12.125 17.6575 12.1933 17.3442 12.2833 17.0383H16.7125C15.4554 18.2177 13.8011 18.8819 12.0775 18.8992ZM11.9225 17.9933V18.8992C10.1989 18.8819 8.54459 18.2177 7.2875 17.0383H11.7075C11.8024 17.351 11.8743 17.6702 11.9225 17.9933ZM5.10083 11.9225C5.1179 10.199 5.78174 8.54472 6.96083 7.2875V11.7167C6.65352 11.8071 6.34026 11.8759 6.02333 11.9225H5.10083ZM6.00667 12.0775C6.32955 12.1257 6.64763 12.1976 6.96 12.2925V16.7125C5.7809 15.4553 5.11706 13.801 5.1 12.0775H6.00667ZM18.8983 11.9225H17.9767C17.6575 11.875 17.3442 11.8067 17.0383 11.7167V7.2875C18.2174 8.54472 18.8813 10.199 18.8983 11.9225ZM17.9933 12.0775H18.8992C18.8819 13.8011 18.2177 15.4554 17.0383 16.7125V12.2925C17.35 12.1975 17.6683 12.1258 17.9933 12.0775ZM16.8833 16.8192L14.095 14.0308C14.7311 13.4059 15.4806 12.9081 16.3033 12.5642C16.4931 12.481 16.6866 12.4067 16.8833 12.3417V16.8192ZM16.8833 11.6692C16.6867 11.6058 16.4933 11.5342 16.3033 11.4533C15.4681 11.0928 14.7082 10.5783 14.0633 9.93667C13.422 9.29172 12.9078 8.53183 12.5475 7.69667C12.4658 7.50667 12.3942 7.3125 12.3308 7.11667H16.8733L16.8833 7.1275V11.6692ZM7.11667 16.8733V12.3417C7.3125 12.4067 7.50667 12.4808 7.69667 12.5642C8.53337 12.9141 9.29413 13.4233 9.93667 14.0633C10.5767 14.7059 11.0859 15.4666 11.4358 16.3033C11.5192 16.4933 11.5942 16.6867 11.6583 16.8833H7.12667L7.11667 16.8733ZM7.11667 11.6692V7.27167L9.85833 10.0133C9.23015 10.6193 8.49789 11.1071 7.69667 11.4533C7.50672 11.5341 7.31318 11.6061 7.11667 11.6692ZM12.3308 16.8833C12.3939 16.6868 12.4659 16.4933 12.5467 16.3033C12.8929 15.5021 13.3807 14.7698 13.9867 14.1417L16.7283 16.8833H12.3308ZM10.375 10.375C11.0623 9.68566 11.6111 8.87096 11.9917 7.975C12.3824 8.86946 12.9363 9.68333 13.625 10.375C14.3167 11.0637 15.1306 11.6176 16.025 12.0083C15.129 12.3889 14.3143 12.9377 13.625 13.625C12.9363 14.3167 12.3824 15.1306 11.9917 16.025C11.6111 15.129 11.0623 14.3143 10.375 13.625C9.68566 12.9377 8.87096 12.3889 7.975 12.0083C8.86945 11.6176 9.68332 11.0637 10.375 10.375Z" fill="#323544"/>
</svg>
