<svg width="24" height="24" viewBox="0 0 24 24" fill="none" xmlns="http://www.w3.org/2000/svg">
<path d="M14.5667 14.1975C14.7483 14.8767 14.95 15.5708 15.1667 16.2917C15.365 16.95 14.7733 17.2083 14.5375 16.5883C14.2847 15.9258 14.0446 15.2585 13.8175 14.5867C12.5325 15.2325 11.2508 15.7708 9.79835 16.3767C10.3792 18.5125 10.915 20.2992 11.7483 21.9967C11.8317 21.9992 11.915 22 12 22C17.5233 22 22 17.5225 22 12C22 10.0167 21.4225 8.16833 20.4267 6.61333C17.8292 6.8475 15.5258 7.22833 13.41 7.70333C13.5549 9.55497 13.8551 11.3912 14.3075 13.1925C15.3284 12.7362 16.3397 12.2589 17.3408 11.7608C18.1075 11.3775 18.8475 11.3525 17.6008 12.33C16.6259 13.01 15.6125 13.6333 14.5658 14.1967L14.5667 14.1975ZM20.0783 6.10417C19.2798 5.00923 18.2668 4.08815 17.1011 3.39692C15.9354 2.7057 14.6413 2.25878 13.2975 2.08333C13.2133 3.43083 13.2392 5.13167 13.3408 6.7525C15.3742 6.44417 17.5858 6.23 20.0783 6.10417ZM11.9683 2C11.8803 3.65298 11.9227 5.31033 12.095 6.95667C10.6867 7.205 9.36168 7.50333 8.08001 7.85167C8.02418 7.2125 7.99668 6.62917 7.99668 6.12083C7.99668 5.94402 7.92644 5.77445 7.80142 5.64943C7.67639 5.5244 7.50682 5.45417 7.33001 5.45417C7.1532 5.45417 6.98363 5.5244 6.85861 5.64943C6.73358 5.77445 6.66335 5.94402 6.66335 6.12083C6.66335 6.73917 6.71418 7.44917 6.80668 8.21917C6.16751 8.41417 5.53668 8.6225 4.91001 8.84417C4.74785 8.90643 4.61639 9.02954 4.54362 9.18727C4.47086 9.34501 4.46253 9.52492 4.52042 9.6887C4.57831 9.85248 4.69784 9.9872 4.85356 10.0642C5.00928 10.1411 5.1889 10.1543 5.35418 10.1008C5.89585 9.90917 6.44251 9.71917 6.99501 9.53333C7.26168 11.1667 7.66751 12.9717 8.13501 14.7083C8.21668 15.0108 8.30335 15.3133 8.39335 15.6133C6.67085 16.2067 4.91335 16.6883 3.30585 16.9442C2.44745 15.4379 1.99732 13.7337 2.00001 12C2.00001 6.4875 6.46001 2.01667 11.9683 2ZM4.09585 18.1267C4.92237 19.1943 5.95679 20.0833 7.13659 20.7399C8.31639 21.3964 9.61707 21.807 10.96 21.9467C10.2958 20.7275 9.46668 18.8583 8.77001 16.795C7.22001 17.3883 5.63001 17.8017 4.09585 18.1267ZM13.4875 13.5567C13.0429 12.1096 12.6999 10.6332 12.4608 9.13833C12.3663 8.75651 12.2892 8.37055 12.23 7.98167C10.8797 8.31907 9.54112 8.70207 8.21668 9.13C8.42335 10.7383 8.77168 12.5667 9.25501 14.3608L9.47501 15.18V15.1817L9.48585 15.22C10.0833 14.9962 10.6762 14.7603 11.2642 14.5125C12.0074 14.2001 12.748 13.8814 13.4858 13.5567H13.4875Z" fill="#323544"/>
</svg>
