<svg width="24" height="24" viewBox="0 0 24 24" fill="none" xmlns="http://www.w3.org/2000/svg">
<path d="M17.4079 11.0127C17.6255 10.8171 17.6237 10.7795 17.3859 10.5407C16.9636 10.1184 16.5394 9.69882 16.1171 9.27649C15.8958 9.05522 15.6773 8.82936 15.456 8.60809C15.3624 8.51536 15.3128 8.43089 15.4459 8.3299C15.5212 8.27298 15.4854 8.21146 15.4275 8.1628C15.2806 8.03885 15.1126 7.97642 14.929 8.05905C14.7087 8.15729 14.5416 8.26655 14.514 8.57137C14.4277 9.52713 13.6179 10.1184 12.6539 9.98712C11.7091 9.85858 11.1023 9.03043 11.0747 8.16831C11.0761 8.12447 11.067 8.08094 11.0481 8.04134C11.0293 8.00173 11.0013 7.9672 10.9664 7.94062C10.8562 7.85798 10.7442 7.77627 10.6349 7.69548C10.5688 7.74138 10.589 7.79463 10.6019 7.84146C10.6294 7.94062 10.5909 7.99754 10.499 8.03243C9.92247 8.25094 9.34772 8.47588 8.7693 8.68797C8.46999 8.79814 8.17436 8.91658 7.88239 9.04604C7.72481 9.12049 7.59517 9.24339 7.51239 9.39676C7.35447 9.31138 7.34437 9.18835 7.37192 9.05614C7.38832 8.96185 7.42571 8.87246 7.48134 8.79459C7.53696 8.71671 7.60939 8.65235 7.69326 8.60626C7.99532 8.43548 8.32309 8.32898 8.64536 8.20595C9.14941 8.01315 9.6507 7.81391 10.1557 7.62111C10.2548 7.58255 10.3604 7.55868 10.4678 7.52654C10.4853 7.44207 10.4476 7.36495 10.4366 7.28599C10.4072 7.07482 10.5009 6.92792 10.7102 6.89579C11.0958 6.83611 11.487 6.82234 11.8689 6.73787C12.1443 6.67728 12.417 6.60933 12.7044 6.61393C13.4407 6.62586 13.9971 6.93802 14.3671 7.57612C14.3882 7.61101 14.4112 7.64498 14.4406 7.69089C14.9143 7.40627 15.3826 7.39433 15.8407 7.7322C15.9279 7.61101 15.9848 7.48431 16.073 7.37689C16.4402 6.92976 16.9232 6.69288 17.4814 6.59373C17.6742 6.55976 17.8624 6.61025 18.0451 6.65708C18.4289 6.75532 18.8209 6.80581 19.2111 6.86457C19.3764 6.88936 19.5444 6.92609 19.6059 7.11247C19.672 7.30986 19.6133 7.49349 19.4195 7.62203C19.1625 7.7928 19.0431 8.02141 19.0248 8.32715C19.0046 8.68797 18.8439 8.99921 18.6263 9.28016C18.4564 9.50051 18.2728 9.71076 17.9974 9.80808C17.8064 9.87602 17.6163 9.93662 17.4061 9.81359C17.407 9.9458 17.4915 10.0101 17.5548 10.0808C17.6889 10.2304 17.8238 10.3792 17.9377 10.5453C18.1397 10.8401 18.1222 11.1091 17.8789 11.3698C17.8055 11.4488 17.7935 11.5011 17.8606 11.6039C18.0442 11.8849 18.1819 12.186 18.2122 12.5312C18.237 12.8131 18.0249 13.1785 17.7219 13.3025C17.5989 13.352 17.5493 13.4264 17.5025 13.5458C17.2858 14.0939 16.8947 14.4363 16.2943 14.5135C15.8692 14.5686 15.4734 14.4859 15.1135 14.2591C14.9464 14.1545 14.7922 14.1159 14.6113 14.2188C14.4093 14.3335 14.2119 14.4593 14.1826 14.709C14.0981 15.4141 14.066 16.1239 14.0862 16.8336C14.0917 16.9988 14.1734 17.1384 14.2762 17.2633C14.3772 17.3863 14.4139 17.5203 14.3267 17.6617C14.0944 18.0381 14.2119 18.3824 14.4204 18.7157C14.4993 18.8415 14.5939 18.959 14.6958 19.0674C14.7995 19.1794 14.8152 19.3024 14.783 19.4392C14.7656 19.5136 14.7509 19.5953 14.7105 19.6577C14.593 19.8432 14.6324 20.0231 14.7123 20.2022C15.1163 21.1056 15.5643 21.9769 16.3668 22.6058C16.3824 22.6178 16.398 22.6334 16.4118 22.6481C16.4705 22.7105 16.5605 22.7766 16.5054 22.8693C16.476 22.9185 16.4316 22.9571 16.3788 22.9792C16.3259 23.0013 16.2673 23.0059 16.2116 22.9923C16.0655 22.9566 15.9324 22.8802 15.8278 22.772C15.176 22.1587 14.6793 21.4435 14.4011 20.5869C14.3614 20.4644 14.3189 20.3428 14.2735 20.2224C14.2092 20.0507 14.1963 19.8753 14.2863 19.7146C14.3579 19.5861 14.3276 19.4778 14.2459 19.3896C13.8144 18.926 13.7667 18.3521 13.7538 17.7636C13.751 17.6461 13.7483 17.5231 13.7134 17.4129C13.5435 16.8712 13.5601 16.3148 13.5757 15.7603C13.5812 15.5858 13.5197 15.5124 13.3599 15.4711C12.653 15.2902 11.9993 14.9955 11.441 14.5199C11.2585 14.3702 11.0391 14.2726 10.8057 14.2371C9.81596 14.0489 8.96394 13.1969 8.76838 12.2099C8.7491 12.1098 8.75828 12.0189 8.84459 11.962C8.94925 11.8941 9.06494 11.8436 9.19348 11.8858C9.24673 11.9023 9.26233 11.9565 9.26784 12.0116C9.36608 12.9738 10.2741 13.6771 11.1977 13.8203C11.8882 13.9259 12.5575 13.8588 13.2296 13.7083C13.6647 13.61 14.111 13.566 14.5517 13.5063C14.7417 13.4806 14.8969 13.5568 15.0355 13.6697C15.2889 13.879 15.5836 13.9956 15.9022 14.0443C16.2089 14.0911 16.5091 14.0673 16.7717 13.8745C16.8809 13.7946 16.9727 13.7 16.9948 13.5641C16.9755 13.5366 16.9544 13.5338 16.936 13.543C16.5688 13.723 16.2015 13.6642 15.8407 13.5366C15.3512 13.3691 14.9117 13.0811 14.5627 12.6993C14.5199 12.6548 14.4837 12.6044 14.4552 12.5496C14.4112 12.4587 14.4185 12.3696 14.5048 12.3008C14.5911 12.2319 14.6774 12.2154 14.7683 12.2953C15.0484 12.5413 15.3431 12.7626 15.7048 12.8774C15.961 12.9591 16.2162 12.9646 16.4788 12.9022C16.9323 12.7947 16.9296 12.1383 16.6762 11.8647C16.4632 11.6361 16.1942 11.614 15.9187 11.5801C15.7021 11.5525 15.5056 11.4846 15.3927 11.2771C15.2972 11.1026 15.3302 11.0136 15.5157 10.9456C15.7911 10.8446 16.0721 10.7657 16.3723 10.7822C16.6202 10.7969 16.802 10.9071 16.9167 11.1283C16.9516 11.1972 16.9865 11.2661 17.0306 11.3294C17.1059 11.4368 17.172 11.4341 17.2418 11.3202C17.2996 11.2238 17.3473 11.121 17.4079 11.0127ZM12.5015 7.4182C12.4592 7.61652 12.5382 7.75515 12.7402 7.81575C12.8972 7.86441 13.0524 7.91399 13.1873 8.01407C13.2846 8.08476 13.3673 8.14811 13.292 8.2895C13.2663 8.33725 13.2764 8.41161 13.2856 8.47129C13.3113 8.6338 13.482 8.75591 13.6188 8.71643C13.7768 8.67052 13.8328 8.55484 13.7529 8.37213C13.6675 8.17657 13.5968 7.98377 13.594 7.76709C13.5877 7.68902 13.5542 7.61562 13.4995 7.55959C13.3629 7.39633 13.1764 7.28246 12.9688 7.2355C12.7916 7.19877 12.6172 7.21071 12.5015 7.4182ZM17.6375 7.88277C17.6981 7.88094 17.7623 7.89655 17.8092 7.83962C17.9469 7.67528 17.8174 7.29701 17.6063 7.26212C17.5046 7.24685 17.4014 7.24623 17.2996 7.26029C17.1408 7.2814 17.0921 7.41178 17.0572 7.5449C17.0251 7.66977 17.1178 7.71659 17.2041 7.76525C17.3299 7.83779 17.4594 7.89746 17.6375 7.88277ZM17.4346 11.8583C17.2757 12.1034 17.3079 12.3687 17.3685 12.6295C17.3823 12.6855 17.416 12.7345 17.4633 12.7676C17.5105 12.8007 17.5682 12.8156 17.6255 12.8094C17.7431 12.7984 17.777 12.6836 17.777 12.5744C17.7752 12.2687 17.6668 11.9868 17.5952 11.6939C17.5062 11.7187 17.4924 11.7949 17.4346 11.8583ZM18.3389 8.36754C18.2581 8.1931 18.1305 8.12975 17.9717 8.19126C17.844 8.24176 17.8385 8.35102 17.8615 8.46119C17.889 8.60534 18.0084 8.70174 18.1268 8.68705C18.2645 8.67052 18.3472 8.55943 18.3389 8.36754Z" fill="#323544"/>
<path d="M17.4327 6.26596C17.1555 6.13926 16.9186 6.24759 16.6845 6.35777C16.5394 6.42571 16.4145 6.5267 16.2869 6.62219C16.2162 6.67452 16.1327 6.72594 16.0445 6.68646C15.961 6.64698 15.9848 6.55333 15.9775 6.47804C15.972 6.42204 15.9555 6.3642 15.9619 6.30911C16.028 5.75272 15.6865 5.45433 15.2604 5.22021C15.0419 5.10086 14.8161 4.97599 14.5489 4.99894C14.4249 5.00904 14.323 5.05036 14.2735 5.17614C14.3285 5.245 14.4029 5.245 14.4727 5.25786C14.8464 5.32488 15.2017 5.42771 15.479 5.71508C15.6828 5.92625 15.7718 6.15578 15.6497 6.44132C15.6183 6.50434 15.6092 6.57615 15.6239 6.64503C15.6385 6.7139 15.6761 6.77576 15.7305 6.8205C15.7985 6.88385 15.8838 6.9417 15.905 7.07299C15.7282 7.05141 15.5616 6.97865 15.4257 6.86366C15.3504 6.80122 15.2889 6.72318 15.2182 6.65616C15.12 6.56435 15.0759 6.47345 15.131 6.33114C15.1888 6.18149 15.1034 6.04377 14.9198 5.9492C14.6664 5.81699 14.3882 5.76558 14.111 5.70957C13.8006 5.6453 13.5041 5.53788 13.2938 5.28265C13.2048 5.17522 13.112 5.17522 12.9927 5.20919C12.5905 5.32121 12.2104 5.49381 11.8221 5.64255C11.1766 5.88769 10.5523 6.18241 9.94726 6.5111C9.25132 6.88844 8.55538 7.27314 7.9384 7.77444C7.54583 8.09389 7.22911 8.49654 7.01109 8.95331C6.94683 9.0846 6.92112 9.22874 6.92295 9.37289C6.92848 9.49733 6.88497 9.61898 6.80176 9.71168C6.429 10.134 6.35188 10.6188 6.50153 11.1513C6.54469 11.3055 6.57498 11.4616 6.5199 11.6214C6.49694 11.6902 6.46022 11.7435 6.38861 11.7591C5.85426 11.8748 5.31807 11.9244 4.80025 11.7022C4.39903 11.5305 4.28151 11.2091 4.43116 10.8024C4.56337 10.4434 4.79566 10.1478 5.03713 9.8595C5.70277 9.06256 6.47215 8.37672 7.3003 7.74965C7.94364 7.26104 8.61974 6.81716 9.32385 6.42112C10.1685 5.94829 11.038 5.53054 11.9469 5.19175C12.7558 4.88877 13.5674 4.59313 14.4011 4.36819C15.1036 4.17164 15.8213 4.03436 16.5467 3.95779C17.059 3.90821 17.5704 3.86781 18.0818 3.96146C18.2388 3.98901 18.3912 4.03583 18.5336 4.11204C18.8604 4.28648 18.9706 4.55916 18.8246 4.90254C18.674 5.25877 18.4252 5.54798 18.1333 5.79955C17.9662 5.94369 17.7926 6.08049 17.6246 6.22464C17.5695 6.27238 17.5163 6.30268 17.4327 6.26596ZM8.2221 6.55057C8.00451 6.73971 7.95952 6.72869 7.89158 6.44683C7.74353 5.81553 7.69735 5.16464 7.75477 4.51877C7.78691 4.11846 7.8218 3.71908 7.97512 3.34357C8.23954 2.70271 8.60404 2.13164 9.14022 1.67901C9.20817 1.62208 9.34864 1.55965 9.28896 1.46049C9.21551 1.3393 9.10166 1.45682 9.02087 1.49905C8.68116 1.67901 8.42592 1.95077 8.22485 2.27671C7.90351 2.80004 7.63175 3.34448 7.50229 3.95228C7.45271 4.18365 7.44169 4.42053 7.4169 4.65373C7.38936 4.91999 7.37651 5.18716 7.37834 5.45433C7.38362 5.59979 7.33489 5.74205 7.24154 5.85372C7.06067 5.64255 6.99181 5.40017 6.96152 5.14493C6.89357 4.5711 7.05975 4.03675 7.24246 3.50516C7.42884 2.96071 7.68683 2.45666 8.07428 2.0233C8.32126 1.74695 8.63893 1.5826 8.95844 1.41459C9.16777 1.30441 9.37526 1.19056 9.58827 1.08865C9.71773 1.02714 9.85728 0.982149 10.006 1.00694C10.388 1.07121 10.544 1.34205 10.4596 1.78734C10.3779 2.20876 10.1575 2.57142 9.95827 2.94051C9.56807 3.66399 9.16226 4.38013 8.97404 5.19175C8.90335 5.49657 8.83633 5.80139 8.77022 6.10712C8.74727 6.21271 8.70136 6.28799 8.59119 6.33482C8.46448 6.38899 8.35064 6.47253 8.2221 6.55057ZM11.6742 4.78502C10.9214 5.10453 10.1685 5.39098 9.46891 5.82801C9.43127 5.70865 9.45514 5.60032 9.46983 5.50116C9.50839 5.24225 9.56807 4.98701 9.61765 4.72993C9.63601 4.63169 9.68375 4.58303 9.79209 4.57385C9.97939 4.55549 10.141 4.45725 10.309 4.37921C11.0429 4.03021 11.816 3.77037 12.6117 3.60523C12.855 3.55657 13.1019 3.55382 13.3489 3.56116C13.3829 3.56208 13.4251 3.56942 13.4499 3.58962C13.5821 3.70439 13.7106 3.82191 13.8383 3.94126C13.8676 3.96881 13.8915 4.00553 13.8759 4.05511C13.124 4.22772 12.4133 4.53162 11.6742 4.78502Z" fill="#323544"/>
<path d="M7.37743 15.1828C7.34946 15.2919 7.33771 15.4045 7.34254 15.517C7.34254 15.6455 7.41599 15.7236 7.51882 15.786C7.70795 15.9008 7.74651 15.999 7.65654 16.1239C7.54452 16.2772 7.31316 16.3268 7.17819 16.2157C6.90367 15.9917 6.79258 15.6905 6.7935 15.3444C6.7935 15.1681 6.8339 14.9964 6.91928 14.8403C7.01109 14.6732 7.00375 14.4942 6.99457 14.3142C6.99181 14.2628 6.98814 14.2105 6.99273 14.16C7.01844 13.8708 6.94499 13.6302 6.77514 13.3759C6.44002 12.8746 6.53367 12.3384 6.79809 11.8243C6.86419 11.6976 6.95325 11.5819 6.99457 11.4414C7.01293 11.3772 7.02211 11.3221 6.96611 11.2734C6.56213 10.9199 6.74759 10.0817 7.13229 9.79706C7.25531 9.70525 7.38018 9.61527 7.47016 9.48765C7.70428 9.69515 7.71254 9.90448 7.50229 10.1111C7.31499 10.2947 7.17911 10.5013 7.26358 10.7813C7.29755 10.897 7.371 10.9925 7.46189 11.0696C7.53351 11.1302 7.55187 11.1926 7.50229 11.2707C7.37884 11.467 7.30772 11.6918 7.29571 11.9234C7.28561 12.0556 7.20298 12.1622 7.16258 12.2833C7.08638 12.5129 7.04874 12.7406 7.13229 12.9765C7.16872 13.0899 7.23847 13.1898 7.33244 13.263C7.43159 13.3374 7.45179 13.4209 7.41874 13.5448C7.31467 13.9119 7.31245 14.3004 7.41231 14.6686C7.45914 14.8403 7.41048 15.0037 7.37743 15.1828ZM16.0317 1.17955C16.1841 1.36225 16.2355 1.56516 16.2493 1.78734C16.2851 2.38872 16.1464 2.94969 15.8884 3.48679C15.8508 3.56667 15.8122 3.63094 15.714 3.63461C15.2953 3.65022 14.895 3.77508 14.4846 3.84027C14.436 3.84762 14.38 3.88159 14.3469 3.82007C14.3194 3.76498 14.3579 3.72275 14.391 3.68235C14.7495 3.24939 15.0196 2.7503 15.1861 2.21335C15.2696 1.94434 15.2513 1.66523 15.2999 1.39347C15.3201 1.28054 15.3523 1.17312 15.4477 1.09691C15.6259 0.954606 15.8095 0.977559 16.0317 1.17955ZM7.69051 19.229C7.68316 19.5687 7.7309 19.89 7.73917 20.2123C7.74835 20.54 7.73274 20.8715 7.60145 21.1809C7.54088 21.3233 7.52178 21.4799 7.54636 21.6326C7.57023 21.796 7.584 21.9604 7.50596 22.1165C7.48117 22.1651 7.45179 22.2129 7.39028 22.1954C7.33703 22.1798 7.33886 22.1256 7.33703 22.0788C7.32968 21.9282 7.36182 21.7823 7.38385 21.6354C7.40497 21.4912 7.41231 21.3581 7.28561 21.2387C7.17544 21.135 7.15891 20.9798 7.18278 20.8338C7.26499 20.3571 7.26406 19.8697 7.18003 19.3933C7.16167 19.2886 7.1736 19.1775 7.17727 19.0701C7.19472 18.5046 7.1433 17.9399 7.14055 17.3743C7.13871 17.1907 7.11576 17.0062 7.11392 16.8207C7.11392 16.706 7.15432 16.6325 7.27827 16.6242C7.39762 16.6169 7.50413 16.6196 7.5381 16.7711C7.59594 17.0337 7.60604 17.3018 7.62256 17.5662C7.65745 18.1153 7.66847 18.6643 7.69051 19.229ZM9.98214 9.44818C9.7875 9.41145 9.59929 9.39217 9.43586 9.28016C9.25407 9.15621 9.17603 8.96524 9.23663 8.77335C9.27978 8.63839 9.36149 8.6035 9.48452 8.67512C9.5372 8.7069 9.58616 8.74447 9.6305 8.78713C9.77924 8.92668 9.9546 8.93586 10.1336 8.87527C10.2796 8.82569 10.4219 8.76509 10.5587 8.6944C10.6625 8.64206 10.7157 8.66042 10.7607 8.76509C10.8663 9.00564 10.9847 9.23793 11.1482 9.44726C11.2583 9.58681 11.3759 9.71076 11.5292 9.80165C11.6568 9.87878 11.6586 9.92101 11.542 9.99997C11.3891 10.1105 11.2107 10.1806 11.0234 10.2039C10.8361 10.2272 10.646 10.2028 10.4706 10.1331C10.2567 10.0523 10.1309 9.87419 10.0547 9.6621C10.0308 9.59508 10.0115 9.5253 9.98214 9.44818ZM8.64352 20.7338C8.55854 20.6261 8.49524 20.5029 8.45714 20.3711C8.43051 20.2618 8.43786 20.1544 8.50856 20.0635C8.66188 19.8671 8.85744 19.8946 8.94834 20.1269C9.01995 20.3078 9.12737 20.4583 9.28529 20.574C9.37986 20.6429 9.49462 20.7025 9.43219 20.854C9.37435 20.9918 9.22102 21.0652 9.06402 21.0404C8.87397 21.0101 8.76471 20.8752 8.64352 20.7338ZM12.1783 16.795C12.1223 16.694 12.0755 16.6031 12.1021 16.4939C12.1416 16.335 12.2582 16.2258 12.3959 16.2203C12.5511 16.2148 12.6961 16.3369 12.7448 16.5141C12.7608 16.5869 12.7535 16.6629 12.7238 16.7313C12.6941 16.7997 12.6436 16.857 12.5795 16.8951C12.4427 16.9759 12.3325 16.9511 12.1783 16.795ZM7.50137 7.02249C7.34529 7.17949 7.22961 7.1547 7.18278 6.95822C7.1367 6.7952 7.11474 6.62631 7.1176 6.45693C7.12035 6.40735 7.11484 6.34492 7.17544 6.32839C7.23512 6.31186 7.26725 6.36511 7.29755 6.40459C7.43527 6.58271 7.44904 6.80306 7.50137 7.02249Z" fill="#323544"/>
</svg>
