<svg width="24" height="24" viewBox="0 0 24 24" fill="none" xmlns="http://www.w3.org/2000/svg">
<path d="M17.854 2H14.6015V3.93667C13.8182 3.54667 12.9348 3.325 11.9998 3.325C8.77232 3.32333 6.14648 5.95 6.14648 9.1775C6.14648 10.5867 6.64732 11.8825 7.48148 12.8942H6.14648V16.1458H9.39815V14.4192C10.1815 14.8092 11.0648 15.0308 11.9998 15.0308C13.5518 15.0293 15.0398 14.4121 16.1373 13.3148C17.2348 12.2174 17.8522 10.7295 17.854 9.1775C17.854 7.66833 17.279 6.29083 16.3382 5.2525H17.854V2ZM11.9998 11.7792C11.3101 11.7783 10.6489 11.5039 10.1611 11.0162C9.67342 10.5285 9.39903 9.86723 9.39815 9.1775C9.39903 8.48777 9.67342 7.82653 10.1611 7.33882C10.6489 6.8511 11.3101 6.57672 11.9998 6.57583C12.6896 6.57672 13.3508 6.8511 13.8385 7.33882C14.3262 7.82653 14.6006 8.48777 14.6015 9.1775C14.6015 10.6108 13.4348 11.7792 11.9998 11.7792ZM11.9998 16.1467L9.39815 16.1458V19.3983H11.9998C12.6896 19.3992 13.3508 19.6736 13.8385 20.1613C14.3262 20.649 14.6006 21.3103 14.6015 22H17.854C17.8522 20.448 17.2348 18.9601 16.1373 17.8627C15.0398 16.7654 13.5518 16.1482 11.9998 16.1467Z" fill="#323544"/>
</svg>
