<svg width="24" height="24" viewBox="0 0 24 24" fill="none" xmlns="http://www.w3.org/2000/svg">
<path fill-rule="evenodd" clip-rule="evenodd" d="M17.8566 5.1393C17.6406 5.13914 17.4294 5.20304 17.2498 5.32294C17.0701 5.44283 16.9301 5.61332 16.8474 5.81283C16.7646 6.01234 16.7429 6.23191 16.785 6.44375C16.8271 6.65559 16.9311 6.85019 17.0838 7.00291C17.2366 7.15564 17.4312 7.25963 17.643 7.30172C17.8548 7.34382 18.0744 7.32213 18.2739 7.2394C18.4734 7.15667 18.6439 7.01662 18.7638 6.83696C18.8837 6.65731 18.9476 6.44613 18.9475 6.23015C18.9475 5.94062 18.8324 5.66294 18.6277 5.45821C18.423 5.25348 18.1453 5.13847 17.8558 5.13847L17.8566 5.1393ZM18.3516 6.79515C18.2789 6.7951 18.2069 6.78072 18.1397 6.75284C18.0726 6.72496 18.0116 6.68413 17.9602 6.63267C17.9088 6.58121 17.868 6.52013 17.8403 6.45293C17.8125 6.38572 17.7982 6.3137 17.7983 6.24098C17.7983 6.16826 17.8127 6.09626 17.8406 6.0291C17.8685 5.96194 17.9093 5.90092 17.9608 5.84954C18.0122 5.79816 18.0733 5.75741 18.1405 5.72963C18.2077 5.70186 18.2797 5.68759 18.3524 5.68764C18.4993 5.68775 18.6401 5.7462 18.7439 5.85013C18.8477 5.95405 18.9059 6.09495 18.9058 6.24181C18.9057 6.38868 18.8472 6.52949 18.7433 6.63326C18.6394 6.73703 18.4985 6.79526 18.3516 6.79515Z" fill="#323544"/>
<path fill-rule="evenodd" clip-rule="evenodd" d="M18.3916 5.94014C18.3175 5.94412 18.2477 5.97637 18.1967 6.03024C18.1456 6.08411 18.1172 6.15551 18.1172 6.22973C18.1172 6.30395 18.1456 6.37535 18.1967 6.42922C18.2477 6.4831 18.3175 6.51534 18.3916 6.51932C18.4657 6.51534 18.5355 6.4831 18.5866 6.42922C18.6376 6.37535 18.6661 6.30395 18.6661 6.22973C18.6661 6.15551 18.6376 6.08411 18.5866 6.03024C18.5355 5.97637 18.4657 5.94412 18.3916 5.94014ZM13.7641 15.5261C13.7678 15.5217 13.7703 15.5163 13.7711 15.5105C13.772 15.5048 13.7712 15.4989 13.7688 15.4936C13.7665 15.4883 13.7626 15.4837 13.7578 15.4805C13.753 15.4772 13.7474 15.4754 13.7416 15.4753C13.4799 15.4711 12.4924 15.3978 11.9874 14.5736C11.8324 14.3215 11.7443 14.0342 11.7313 13.7386C11.7183 13.443 11.7809 13.149 11.9132 12.8844C11.9152 12.8801 11.9162 12.8754 11.9162 12.8706C11.9162 12.8659 11.9152 12.8612 11.9132 12.8569L11.0757 11.3485C11.069 11.3352 11.0532 11.3319 11.039 11.3344C9.35735 11.6644 8.37734 13.0877 8.67401 14.4911C8.75401 14.8727 8.91151 15.2111 9.15568 15.5219C9.77902 16.3136 10.7049 16.5719 11.3849 16.5511C12.7932 16.5094 13.5757 15.7369 13.7641 15.5261ZM5.97148 7.6835C6.55746 6.97408 7.25797 6.36765 8.044 5.88931L6.69148 3.45262C6.64911 3.37645 6.58693 3.31315 6.51153 3.26944C6.43612 3.22572 6.3503 3.20321 6.26315 3.20428L2.2556 3.23761C2.21089 3.23809 2.16707 3.25016 2.12842 3.27264C2.08978 3.29512 2.05763 3.32725 2.03512 3.36589C2.01261 3.40452 2.00052 3.44833 2.00002 3.49304C1.99952 3.53775 2.01063 3.58182 2.03226 3.62095L5.04897 9.05851C5.39064 8.4285 5.73564 7.966 5.97148 7.6835ZM16.5999 11.0369C16.2483 11.0452 15.9133 11.0285 15.7299 11.0594C15.5774 11.0852 15.1824 11.1602 14.7799 11.5377C14.7761 11.5415 14.7733 11.5462 14.7718 11.5514C14.7704 11.5567 14.7703 11.5622 14.7717 11.5674C14.773 11.5726 14.7757 11.5774 14.7795 11.5813C14.7833 11.5851 14.788 11.5879 14.7932 11.5894C15.0674 11.6619 15.3207 11.7869 15.5666 11.936C16.0916 12.2552 16.5708 13.0577 16.7191 13.4361C16.7274 13.4611 16.7616 13.4627 16.7741 13.4394L18.2074 10.7144C18.2199 10.6894 18.1949 10.661 18.1683 10.6719C17.4966 10.9452 16.9383 11.0302 16.5991 11.0377L16.5999 11.0369ZM21.7392 3.18845L17.9508 3.21928C17.8639 3.21991 17.7789 3.24392 17.7045 3.2888C17.6302 3.33367 17.5693 3.39774 17.5283 3.47428L17.4233 3.69929C17.7266 3.69178 19.445 3.82595 20.8883 5.62264L21.97 3.56678C21.9909 3.52723 22.0012 3.48291 21.9999 3.43818C21.9985 3.39344 21.9856 3.34983 21.9623 3.3116C21.9391 3.27337 21.9062 3.24185 21.8671 3.22011C21.828 3.19838 21.7839 3.18801 21.7392 3.18845ZM11.0382 19.8428L11.7407 21.107C11.7624 21.1462 11.794 21.1791 11.8322 21.2025C11.8705 21.2258 11.9142 21.2388 11.959 21.2401C12.0038 21.2415 12.0482 21.2311 12.0878 21.2101C12.1274 21.1891 12.1609 21.1582 12.1849 21.1203L13.2766 19.4003C12.5602 19.6709 11.8037 19.821 11.0382 19.8428Z" fill="#323544"/>
<path fill-rule="evenodd" clip-rule="evenodd" d="M20.6058 6.41098C19.3883 4.38179 17.6649 4.41679 17.6649 4.41679C16.8724 4.26179 16.4683 3.36428 14.6432 2.91928C12.9382 2.5026 11.9865 3.01261 12.6699 3.29511C13.7716 3.75179 14.3991 5.57014 14.7216 6.94016C15.1332 8.69018 16.0291 8.72351 17.0199 8.61601C17.7899 8.53434 19.3325 7.73433 20.1208 7.56933C20.9791 7.38933 21.2483 7.48516 20.6041 6.41098H20.6058ZM17.7949 7.69266C17.6027 7.69261 17.4123 7.65468 17.2347 7.58105C17.057 7.50742 16.8957 7.39952 16.7597 7.26352C16.4852 6.98885 16.3311 6.61639 16.3312 6.22806C16.3313 5.83974 16.4857 5.46736 16.7603 5.19285C17.035 4.91834 17.4075 4.76419 17.7958 4.7643C18.1841 4.7643 18.5565 4.91856 18.8311 5.19315C19.1057 5.46773 19.26 5.84015 19.26 6.22848C19.26 6.61681 19.1057 6.98923 18.8311 7.26381C18.5565 7.5384 18.1833 7.69266 17.7949 7.69266ZM12.6299 13.0652C12.4124 13.5844 12.6566 14.3736 13.7266 14.4452C13.7932 14.4452 13.8266 14.4011 13.8266 14.3452C13.8266 14.2911 13.7782 14.2644 13.7266 14.2461C13.6749 14.2277 13.1816 14.0577 13.2899 13.4811C13.3249 13.2894 13.4966 13.1161 13.7066 13.0369C13.5882 12.8161 13.5874 12.5186 13.7566 12.2327C13.4707 12.2327 12.9107 12.3944 12.6291 13.0661L12.6299 13.0652ZM16.0299 14.1152C16.0299 13.5452 15.6541 12.9402 15.3591 12.7486C15.1032 12.6594 14.6791 12.7986 14.4399 13.1544C14.7207 13.3377 14.9007 13.6311 14.9316 14.3877C14.9699 15.3661 14.2282 16.2078 13.2357 16.6878C14.7057 16.4044 16.0299 15.1961 16.0299 14.1152ZM7.16732 15.7544C4.33479 12.1352 6.03398 7.29516 10.1624 5.65514C5.0223 7.38849 3.48728 13.0636 6.37315 16.6286C8.289 18.9953 11.5849 19.0761 13.3507 18.462C11.2082 18.2845 8.90901 17.9794 7.16732 15.7544ZM14.5749 10.6327C14.5999 10.6227 14.5999 10.5877 14.5749 10.5769C14.5249 10.5535 14.4291 10.5352 14.2524 10.5802C13.9099 10.6652 13.0691 10.8002 13.1357 10.3919C13.1816 10.101 13.6474 10.0085 13.9882 9.45185C14.1566 9.17685 13.9382 8.72268 13.4966 8.72268C13.1566 8.72268 12.8066 8.87768 12.4257 9.28101C11.8924 9.84435 11.7874 10.3727 11.994 10.761C12.189 11.1294 12.6474 11.2885 13.4124 11.161C13.9357 11.0752 14.0957 10.8435 14.5757 10.6319L14.5749 10.6327Z" fill="#323544"/>
<path fill-rule="evenodd" clip-rule="evenodd" d="M14.2374 12.2319C14.2374 12.2319 13.8274 12.3794 13.8741 13.0102C14.0266 12.9719 14.0732 12.9869 14.2807 13.0869C14.3757 12.8052 14.6199 12.5677 14.9807 12.5677C15.0457 12.5677 15.1099 12.5752 15.1724 12.5877C14.9307 12.4052 14.6799 12.2544 14.2391 12.2319H14.2374ZM17.2108 9.90602C15.1741 10.3352 15.1441 8.58934 13.6441 8.25184C11.6249 7.7985 9.03901 9.00601 7.904 11.206C7.44233 12.101 7.00732 13.8544 8.13983 15.3478C7.42816 13.4119 8.5015 11.9877 9.19318 11.4294C9.84485 10.9052 10.6415 10.5744 11.4282 10.3735C11.4346 10.372 11.4403 10.3684 11.4444 10.3633C11.4485 10.3581 11.4507 10.3518 11.4507 10.3452C11.464 9.92019 11.6807 9.46602 12.0899 9.03351C12.5241 8.57351 12.9691 8.351 13.4491 8.351C13.8007 8.351 14.1099 8.53017 14.2774 8.82851C14.4316 9.10351 14.4316 9.43268 14.2774 9.68352C14.1857 9.83352 14.0874 9.95519 13.9899 10.056C13.9716 10.0735 13.9849 10.106 14.0099 10.106C14.9532 10.1652 15.7291 10.3952 16.4208 10.3427C19.0325 10.1427 19.9625 8.75101 20.2975 8.49517C20.6016 8.2635 18.3099 9.67269 17.2091 9.90352L17.2108 9.90602Z" fill="#323544"/>
<path fill-rule="evenodd" clip-rule="evenodd" d="M14.6324 15.6386C13.8691 16.4019 12.6191 17.4786 10.2007 17.0261C8.4465 16.6978 7.10149 14.2661 7.49233 11.3327C7.70233 9.76352 8.91901 8.29934 10.0607 7.82767C12.5566 6.79432 13.8691 7.89517 14.4757 8.57517C14.9057 9.05768 15.3974 10.0527 16.9874 10.0394C18.2008 10.0294 20.3025 8.60101 20.8858 8.06267C21.0858 7.8785 20.8683 7.77683 20.5375 7.806C19.2758 7.91933 18.1074 9.26602 16.3908 9.19268C15.5433 9.15685 14.4757 8.57434 14.0991 7.31766C13.6474 5.80764 13.6382 5.49264 13.1191 5.40347C12.5749 5.31014 11.7457 5.2593 10.5465 5.63264C8.99401 6.11848 6.55982 8.49601 6.40481 11.3327C6.13481 16.2361 8.3265 18.2019 11.7049 18.6186C12.0874 18.6653 12.9232 18.5636 13.2957 18.4836C13.771 18.287 14.2114 18.0149 14.5999 17.6778C15.4416 16.9211 15.9549 16.0794 16.0749 14.8644C16.1166 14.4561 16.0174 13.9144 15.9624 13.6769C15.9433 13.9286 15.4433 14.8236 14.6316 15.6353L14.6324 15.6386Z" fill="#323544"/>
</svg>
