<svg width="24" height="24" viewBox="0 0 24 24" fill="none" xmlns="http://www.w3.org/2000/svg">
<path d="M19.9956 21.6743C20.968 21.4626 21.9997 20.8876 21.9997 20.8876L20.1939 19.401C19.3016 18.6662 18.542 17.7837 17.9481 16.7919C17.1275 15.4216 15.9938 14.2653 14.6399 13.4179L13.9783 13.0329C13.8647 12.9566 13.7693 12.8562 13.699 12.7388C13.6287 12.6214 13.5852 12.4899 13.5716 12.3538C13.5548 12.1838 13.6004 12.0135 13.7 11.8746C14.0441 11.3897 15.8232 9.27889 16.1499 9.00807C16.569 8.66142 17.0373 8.3731 17.4715 8.04227C17.5332 7.99561 17.5948 7.94895 17.6557 7.90061C17.6581 7.89895 17.6615 7.89728 17.6631 7.89478C17.8023 7.78562 17.934 7.66812 18.0381 7.52979C18.4156 7.09314 18.5073 6.70649 18.5298 6.53566C18.479 6.3715 18.3265 6.00318 17.9023 5.57903C18.1681 5.5957 18.4898 5.80569 18.7823 6.05318C18.9781 5.73986 19.1831 5.40904 19.3881 5.07739C19.5256 4.85573 19.3214 4.6899 19.3164 4.6849L19.3156 4.68323C19.3098 4.6774 19.1439 4.47491 18.9231 4.61157C18.4506 4.90323 17.9781 5.19655 17.5573 5.46237C17.5573 5.46237 17.0598 5.45237 16.4699 5.96152C16.3327 6.07044 16.21 6.19645 16.1049 6.3365L16.099 6.344C16.0507 6.404 16.004 6.4665 15.9574 6.52816C15.6266 6.96232 15.3382 7.43063 14.9907 7.85062C14.7216 8.17644 12.61 9.95554 12.1242 10.3005C11.9855 10.3997 11.8155 10.445 11.6459 10.428C11.5097 10.4144 11.3782 10.3709 11.2608 10.3006C11.1434 10.2303 11.043 10.135 10.9667 10.0214L10.5817 9.35973C9.73441 8.00576 8.5781 6.87201 7.20771 6.05152C6.21633 5.45751 5.33414 4.69792 4.59947 3.80577L3.11036 2C3.11036 2 2.53621 3.03163 2.32539 4.00409C2.61871 4.36075 3.38368 5.24571 4.27532 5.92235C3.31702 5.47237 2.60871 5.12488 2.0504 4.83323C1.96457 5.4707 1.9979 6.43317 2.08623 7.17981C2.69121 7.44396 3.72034 7.85145 4.76863 8.06811C3.93033 8.26477 3.01036 8.29977 2.30122 8.28643C2.42622 8.74808 2.59954 9.2189 2.83454 9.69305C2.9337 9.91221 3.04286 10.1264 3.15952 10.3347C3.53618 10.4389 5.01112 10.6538 5.79609 10.4772L3.7045 11.2247C4.35947 12.0285 5.0677 12.7874 5.82442 13.4962C7.51686 12.5863 7.90268 12.4621 9.17263 11.6313C7.11688 13.3046 6.58273 13.9879 6.00608 14.6895L5.6036 15.2545C5.39527 15.547 5.21278 15.8587 5.06195 16.1853C4.55364 17.2769 3.837 19.6018 3.837 19.6018C3.70867 20.0068 4.00533 20.3035 4.39864 20.1635C4.39864 20.1635 6.72356 19.446 7.81518 18.9385C8.14184 18.7869 8.45349 18.6052 8.74681 18.3969L9.31096 17.9944C9.50012 17.8386 9.68845 17.6861 9.89511 17.5061C9.89511 17.5061 11.3159 19.1894 12.7767 20.2968L13.5233 18.2044C13.3475 18.9894 13.5616 20.4643 13.665 20.8401C13.875 20.9585 14.0891 21.0668 14.3083 21.1668C14.7824 21.4001 15.2532 21.5751 15.7149 21.7001C15.7016 20.9893 15.7366 20.0702 15.9324 19.2319C16.149 20.2802 16.5574 21.3093 16.8215 21.9143C17.5673 22.0026 18.5306 22.0359 19.1681 21.9501C18.7899 21.2158 18.4265 20.474 18.0781 19.7252C18.7539 20.6168 19.6397 21.3818 19.9964 21.6751L19.9956 21.6743Z" fill="#323544"/>
</svg>
