<svg width="24" height="24" viewBox="0 0 24 24" fill="none" xmlns="http://www.w3.org/2000/svg">
<path d="M11.9996 3.27734C12.2223 3.27737 12.441 3.3359 12.6343 3.44659L21.3564 8.44598C21.5514 8.55768 21.7139 8.71859 21.8267 8.91305C21.9394 9.10756 21.9992 9.3286 21.9992 9.55343C21.9992 9.77829 21.9395 9.99929 21.8267 10.1938C21.7139 10.3883 21.5515 10.5492 21.3564 10.6609L19.0235 11.997L21.3572 13.3347C21.5523 13.4463 21.7146 13.6074 21.8275 13.8018C21.9404 13.9964 22 14.218 22 14.443C22 14.6679 21.9404 14.8888 21.8275 15.0834C21.7146 15.2779 21.5525 15.4396 21.3572 15.5512L12.6343 20.5506C12.2411 20.7753 11.758 20.7754 11.3649 20.5506L2.64283 15.5512C2.44776 15.4394 2.28525 15.2779 2.1725 15.0834C2.05979 14.8888 2.00085 14.6678 2.00081 14.443C2.00081 14.2181 2.05982 13.9971 2.1725 13.8026C2.28526 13.608 2.44771 13.4466 2.64283 13.3347L2.65422 13.3274L2.64608 13.3127L4.96513 11.9921L2.64201 10.6609C2.4471 10.5492 2.28521 10.3881 2.1725 10.1938C2.05973 9.99929 2 9.77829 2 9.55343C2.00001 9.3286 2.05974 9.10756 2.1725 8.91305C2.28522 8.71875 2.44711 8.55765 2.64201 8.44598L11.3649 3.44659C11.5581 3.33594 11.7769 3.27734 11.9996 3.27734ZM12.6343 15.6603C12.241 15.8852 11.7582 15.8852 11.3649 15.6603L7.54294 13.4698L5.84556 14.443L11.9996 17.9696L18.1536 14.443L16.4554 13.469L12.6343 15.6603ZM10.1134 12.0002L11.9996 13.0808L13.889 11.9978L12.0102 10.9205L10.1134 12.0002ZM5.84556 9.55425L7.54132 10.525L7.66012 10.4583L11.3649 8.33532C11.5581 8.22454 11.7769 8.16609 11.9996 8.16607C12.2223 8.16607 12.4411 8.22459 12.6343 8.33532L16.4571 10.5258L18.1536 9.55425L11.9996 6.02603L5.84556 9.55425Z" fill="#323544"/>
</svg>
