<svg width="24" height="24" viewBox="0 0 24 24" fill="none" xmlns="http://www.w3.org/2000/svg">
<path d="M12.0007 3.08594C16.9723 3.08596 21 7.07563 21 11.9994C21 16.307 17.9163 19.8989 13.8149 20.7312C13.2185 20.8517 12.6115 20.9122 12.0031 20.9116H3V11.9994C3 7.07562 7.02896 3.08594 12.0007 3.08594ZM14.1313 6.1278C13.3149 5.83812 12.4473 5.72078 11.5832 5.78326C8.44924 6.00056 5.91308 8.56254 5.76086 11.6695C5.58777 15.2295 8.46154 18.1757 12.0215 18.1757C15.5815 18.1757 18.2822 15.3916 18.2822 11.9703C18.2814 11.6968 18.2626 11.4237 18.2257 11.1527L18.222 11.1564H14.171L13.216 12.7952H16.5599C16.0357 15.6444 12.8366 17.5828 9.63877 15.944C8.9542 15.5945 8.39363 15.0429 8.03308 14.3641C6.19171 10.8962 8.70704 7.4061 12.0227 7.40609C12.6724 7.40528 13.3149 7.54147 13.9084 7.80565C14.502 8.06983 15.0332 8.45612 15.4674 8.93936L16.3267 7.46627C15.6953 6.87318 14.9477 6.41747 14.1313 6.1278Z" fill="#323544"/>
</svg>
