<svg width="24" height="24" viewBox="0 0 24 24" fill="none" xmlns="http://www.w3.org/2000/svg">
<path d="M4.79463 2.00365C4.7213 2.01778 4.64767 2.03028 4.5738 2.04115C4.19213 2.10032 3.7438 2.29031 3.42547 2.52781C3.18881 2.70531 2.59798 3.3128 2.46465 3.51613C2.19873 3.91863 2.04135 4.38302 2.00777 4.86426C1.97419 5.34549 2.06555 5.82724 2.27299 6.26277C2.40132 6.5311 2.56465 6.75443 2.86465 7.07276C3.02048 7.23776 3.22631 7.47776 3.32298 7.60609C3.96446 8.46472 4.34231 9.49143 4.41046 10.5611C4.4188 10.6761 4.43963 11.9002 4.45796 13.281C4.4938 16.0085 4.48963 15.931 4.62713 16.1852C4.84879 16.5968 5.41045 16.8435 5.85545 16.7252C6.09711 16.661 6.24128 16.5552 6.98294 15.9035C7.78043 15.2035 7.89293 15.1268 8.18792 15.0868C8.29126 15.0727 8.71375 15.0868 9.57124 15.131C10.8321 15.1977 10.9229 15.1968 11.1129 15.1177C11.4404 14.981 11.5621 14.7843 11.6637 14.2227C11.8696 13.0894 12.7437 12.0894 13.8637 11.7044C13.9604 11.671 14.1745 11.6177 14.3404 11.5844C14.5054 11.5511 14.6954 11.4994 14.762 11.4694C15.0087 11.3561 15.1912 11.1161 15.2337 10.8494C15.2479 10.7577 15.2279 10.3919 15.1595 9.5144C15.0837 8.53192 15.0704 8.27858 15.0904 8.16358C15.1379 7.87859 15.2062 7.78026 15.932 6.95693C16.3045 6.53527 16.6403 6.14361 16.6778 6.08777C16.8962 5.76278 16.9178 5.32945 16.7345 4.96695C16.5855 4.70048 16.3405 4.50082 16.0495 4.40862C15.9662 4.38446 15.3545 4.37779 13.0962 4.37696H10.2479L9.96874 4.32446C9.17041 4.17529 8.49792 3.91613 7.89876 3.52613C7.5971 3.32947 7.41293 3.18447 7.05044 2.85614C6.71044 2.54781 6.55877 2.43781 6.28294 2.29781C5.92476 2.10775 5.52593 2.00712 5.12046 2.00448C5.01191 1.99909 4.90317 1.99826 4.79463 2.00365ZM17.9012 6.88526C17.7912 6.9261 17.7203 6.9911 17.5012 7.25193C17.0078 7.84109 16.8845 8.36525 17.0587 9.13191C17.147 9.52024 17.1945 9.60857 17.3595 9.69274C17.447 9.73774 17.5003 9.73857 19.557 9.73107L21.6653 9.72357L21.7636 9.67107C21.8278 9.63524 21.8824 9.58453 21.9229 9.5232C21.9634 9.46188 21.9886 9.39173 21.9963 9.31866C22.0041 9.24558 21.9942 9.17171 21.9675 9.10325C21.9407 9.03479 21.898 8.97375 21.8428 8.92524C21.2277 8.57266 20.6102 8.22432 19.9903 7.88025C18.0795 6.81193 18.0895 6.81693 17.9012 6.88526ZM15.2212 12.4769C14.8269 12.6385 14.4467 12.8325 14.0845 13.0569C13.3812 13.521 12.8729 14.1902 12.482 15.1652C12.3062 15.6027 12.3137 15.7902 12.5154 15.9443C12.6079 16.0168 17.9137 18.561 18.0712 18.6093C18.1987 18.6485 18.2962 18.6318 18.4295 18.5476C18.4894 18.5078 18.5388 18.4542 18.5736 18.3912C18.6084 18.3283 18.6276 18.2579 18.6295 18.186C18.6295 18.136 18.6045 18.036 18.5753 17.966C18.4453 17.6593 15.9937 12.5769 15.9437 12.5119C15.8037 12.3269 15.6153 12.3185 15.2212 12.4769ZM8.15459 17.0243C7.7771 17.1093 7.46293 17.291 7.08377 17.6452C6.83711 17.876 6.80377 18.0351 6.9446 18.3101C6.98877 18.396 7.45293 19.2301 7.97459 20.1635C9.05542 22.0943 8.99125 22.0018 9.27291 21.9984C9.39958 21.9968 9.43791 21.9859 9.51958 21.9284C9.57776 21.8849 9.62676 21.8302 9.66374 21.7676C9.71208 21.6759 9.71374 21.6409 9.73041 19.6051C9.74541 17.9968 9.74291 17.5135 9.72124 17.4335C9.69837 17.3622 9.65896 17.2974 9.60624 17.2443C9.53124 17.1685 9.48958 17.151 9.26791 17.0977C8.78292 16.9827 8.44126 16.9602 8.15459 17.0243Z" fill="#323544"/>
</svg>
