<svg width="24" height="24" viewBox="0 0 24 24" fill="none" xmlns="http://www.w3.org/2000/svg">
<path d="M9.26909 15.27L17.2479 9.37303C17.6391 9.08395 18.1982 9.1967 18.3846 9.64577C19.3655 12.014 18.9272 14.8599 16.9755 16.814C15.0238 18.7679 12.3083 19.1965 9.82616 18.2205L7.11467 19.4774C11.0037 22.1388 15.7263 21.4807 18.6774 18.524C21.0182 16.1804 21.7432 12.9858 21.0653 10.1051L21.0714 10.1112C20.0884 5.87917 21.3131 4.18759 23.8219 0.728567C23.8812 0.646551 23.9406 0.564535 24 0.480469L20.6987 3.78571V3.77546L9.26707 15.2721" fill="#323544"/>
<path d="M7.62251 16.7025C4.83112 14.0328 5.31239 9.90124 7.69415 7.51872C9.45537 5.75536 12.341 5.03567 14.8599 6.09368L17.5653 4.84293C17.0779 4.49026 16.4532 4.11094 15.7364 3.84439C12.4966 2.50958 8.61778 3.1739 5.98412 5.80867C3.4508 8.34501 2.65415 12.2449 4.02218 15.5727C5.04411 18.0598 3.36888 19.819 1.68137 21.5947C1.08336 22.2241 0.483314 22.8536 0 23.52L7.62042 16.7045" fill="#323544"/>
</svg>
