<svg width="24" height="24" viewBox="0 0 24 24" fill="none" xmlns="http://www.w3.org/2000/svg">
<path d="M12.0358 2.0003C8.18281 1.9653 5.03581 5.0003 4.99981 8.7813C4.96481 12.5633 8.05481 15.6533 11.9078 15.6883H14.3278V13.1223H12.0358C9.62881 13.1503 7.65581 11.2563 7.62781 8.8923C7.59881 6.5303 9.52881 4.5943 11.9358 4.5663H12.0358C14.4428 4.5663 16.3938 6.4813 16.4008 8.8443V15.1493C16.4008 17.4913 14.4568 19.3993 12.0778 19.4283C10.9427 19.4203 9.85509 18.9713 9.04481 18.1763L7.19381 19.9943C8.4854 21.2631 10.2184 21.9821 12.0288 22.0003H12.1208C15.9238 21.9443 18.9788 18.9173 18.9998 15.1843V8.6843C18.9068 4.9633 15.8168 2.0003 12.0358 2.0003Z" fill="#323544"/>
</svg>
