<svg width="24" height="24" viewBox="0 0 24 24" fill="none" xmlns="http://www.w3.org/2000/svg">
<path d="M22 12C22 6.47753 17.5 1.98587 11.975 2.00003C6.49169 2.0142 2.01253 6.49169 2.00003 11.975C1.98587 17.5 6.47753 22 12 22H18.5708C19.4788 22 20.3495 21.6393 20.9915 20.9973C21.6335 20.3553 21.9942 19.4846 21.9942 18.5767V12.3333C21.9975 12.2225 22 12.1117 22 12ZM6.85753 17.5533C5.26586 16.195 4.2842 14.02 4.33003 11.8034C4.33336 11.6484 4.34086 11.4934 4.35503 11.3384V11.3284C4.58586 8.68336 6.29419 6.21669 8.68836 5.07086C11.0834 3.92503 14.0767 4.1442 16.28 5.62419C18.4833 7.10502 19.8158 9.79419 19.66 12.4442C19.6215 13.0244 19.5297 13.5999 19.3858 14.1633C19.3308 14.3883 19.2633 14.6208 19.1042 14.7883C18.9458 14.9558 18.6675 15.0342 18.4792 14.9C18.2992 14.7717 18.2725 14.52 18.2575 14.3C18.1325 12.5217 17.6575 10.6875 16.4558 9.37085C15.5319 8.3713 14.2718 7.74761 12.9167 7.61919C11.5617 7.50203 10.2093 7.87197 9.10252 8.66252C8.18669 9.31835 7.46752 10.2575 7.11919 11.3292C6.77253 12.4 6.80753 13.6008 7.26502 14.6308C7.60405 15.3913 8.15341 16.039 8.84836 16.4975C10.0709 17.3 11.7442 17.4142 13.015 16.6892C14.285 15.9642 15.0442 14.3908 14.7208 12.9642C14.3967 11.5375 12.9508 10.425 11.4959 10.5759C11.2742 10.5984 10.9559 10.5742 10.9484 10.3509C10.9417 10.1784 11.1492 10.0875 11.3192 10.0567C12.795 9.79169 14.3775 10.5417 15.1858 11.8042C15.9967 13.0667 16.0375 14.7575 15.3767 16.1042C14.715 17.45 13.4017 18.4333 11.945 18.7883C9.98085 19.2675 8.20252 18.7008 6.85919 17.5533H6.85753Z" fill="#323544"/>
</svg>
