<svg width="24" height="24" viewBox="0 0 24 24" fill="none" xmlns="http://www.w3.org/2000/svg">
<path d="M17.1074 10.7266C16.5951 10.7344 16.0864 10.6403 15.6109 10.4496C15.1354 10.259 14.7025 9.97568 14.3375 9.61619C13.9725 9.25669 13.6826 8.82819 13.4847 8.35562C13.2869 7.88305 13.185 7.37585 13.185 6.86353C13.185 6.35121 13.2869 5.844 13.4847 5.37143C13.6826 4.89886 13.9725 4.47036 14.3375 4.11087C14.7025 3.75137 15.1354 3.46806 15.6109 3.27743C16.0864 3.0868 16.5951 2.99264 17.1074 3.00045C18.1217 3.01591 19.0893 3.42971 19.8012 4.15249C20.513 4.87528 20.912 5.84905 20.912 6.86353C20.912 7.878 20.513 8.85177 19.8012 9.57456C19.0893 10.2973 18.1217 10.7111 17.1074 10.7266ZM20.9682 16.9413C20.9682 16.1598 20.7359 15.396 20.3008 14.7469C19.8657 14.0978 19.2475 13.5927 18.5247 13.2957C18.0448 13.0966 17.5344 13.0266 16.98 12.997C16.1924 12.9548 15.307 12.8221 14.5724 12.5987C13.8189 12.3709 13.1757 11.8766 12.6204 11.3222C12.0643 10.7679 11.5942 10.1175 11.3395 9.37567C11.0838 8.63113 10.9968 7.72244 10.9421 6.94381C10.8883 6.17236 10.7088 5.40091 10.2729 4.75146C9.94659 4.26642 9.517 3.85959 9.01493 3.56014C8.51286 3.2607 7.95075 3.07606 7.36891 3.01947C6.78707 2.96288 6.19992 3.03574 5.64956 3.23283C5.0992 3.42991 4.59927 3.74634 4.18561 4.15942C3.77244 4.57225 3.45619 5.07176 3.25972 5.6218C3.06325 6.17184 2.99148 6.75867 3.0496 7.33984C3.10772 7.92102 3.29427 8.48202 3.59577 8.98226C3.89726 9.4825 4.30617 9.90949 4.79291 10.2323C5.42083 10.6486 6.21201 10.8441 6.99243 10.8935C7.81143 10.9455 8.66092 11.0549 9.43237 11.2864C10.185 11.5142 10.8273 12.0094 11.3834 12.5637C11.9396 13.1181 12.4087 13.7684 12.6644 14.5103C12.9173 15.245 13.0375 16.159 13.0582 16.9422C13.0734 17.5369 13.1479 17.9836 13.3443 18.468C13.5416 18.9528 13.8328 19.3938 14.2013 19.7655C14.5698 20.1372 15.0082 20.4323 15.4913 20.6338C15.9743 20.8353 16.4925 20.9391 17.0159 20.9394C17.5393 20.9396 18.0576 20.8363 18.5409 20.6352C19.0243 20.4341 19.4628 20.1386 19.8308 19.766C20.1989 19.3947 20.4893 18.9537 20.6849 18.4689C20.8805 17.984 20.9774 17.4649 20.97 16.9422L20.9682 16.9413ZM3.03023 17.0776C3.02243 17.5899 3.11658 18.0986 3.30722 18.5741C3.49785 19.0496 3.78116 19.4825 4.14065 19.8475C4.50015 20.2125 4.92865 20.5024 5.40122 20.7002C5.87379 20.8981 6.38099 21 6.89331 21C7.40563 21 7.91283 20.8981 8.38541 20.7002C8.85798 20.5024 9.28648 20.2125 9.64597 19.8475C10.0055 19.4825 10.2888 19.0496 10.4794 18.5741C10.67 18.0986 10.7642 17.5899 10.7564 17.0776C10.7409 16.0632 10.3271 15.0957 9.60434 14.3838C8.88156 13.672 7.90779 13.2729 6.89331 13.2729C5.87884 13.2729 4.90507 13.672 4.18228 14.3838C3.45949 15.0957 3.04569 16.0632 3.03023 17.0776Z" fill="#323544"/>
</svg>
