<svg width="24" height="24" viewBox="0 0 24 24" fill="none" xmlns="http://www.w3.org/2000/svg">
<path fill-rule="evenodd" clip-rule="evenodd" d="M3.38751 8.69074C1.5375 10.5235 1.5375 13.48 3.38751 15.3127L8.69548 20.6207C10.5282 22.4534 13.5021 22.4534 15.3348 20.6207L20.6255 15.3127C22.4582 13.48 22.4582 10.5062 20.6255 8.67345L15.3175 3.36548C13.4848 1.55005 10.5282 1.55005 8.69548 3.36548L3.38751 8.69074ZM14.332 14.3272C15.6114 13.0478 15.6114 10.973 14.332 9.67626C13.0525 8.39682 10.9777 8.39682 9.681 9.67626C8.40156 10.9557 8.40156 13.0305 9.681 14.3272C10.9605 15.6067 13.0525 15.6067 14.332 14.3272Z" fill="#323544"/>
</svg>
