<svg width="24" height="24" viewBox="0 0 24 24" fill="none" xmlns="http://www.w3.org/2000/svg">
<path d="M10.3004 20.9308L11.6921 18.5225L13.6996 22L16.2329 20.5383L12.7129 14.4458H10.6687L7.76624 19.4692L10.3004 20.9308ZM3.41041 14.9942H6.19208L4.18374 18.4708L6.71708 19.9333L10.2371 13.8408L9.21458 12.0717H3.41041V14.9942ZM5.11041 6.06333L6.50208 8.47167H2.48291V11.3942H9.52291L10.5471 9.625L7.64458 4.6025L5.11041 6.06333ZM13.7004 3.06917L12.3087 5.4775L10.3012 2L7.76791 3.46167L11.2879 9.55417H13.3321L16.2337 4.53083L13.7004 3.06917ZM20.5904 9.00583H17.8087L19.8171 5.52917L17.2837 4.0675L13.7637 10.16L14.7862 11.9283H20.5904V9.00583ZM18.8904 17.9358L17.4987 15.5283H21.5171V12.6058H14.4771L13.4554 14.375L16.3571 19.3983L18.8904 17.9358Z" fill="#323544"/>
</svg>
