<svg width="24" height="24" viewBox="0 0 24 24" fill="none" xmlns="http://www.w3.org/2000/svg">
<path d="M11.8775 14.8808C11.6125 14.9383 11.3375 14.965 11.0525 14.965H8.61083C7.41498 14.965 6.24178 14.6388 5.2175 14.0217C5.04137 13.9167 4.87008 13.8038 4.70417 13.6833C3.78543 13.0025 3.05642 12.0976 2.58667 11.055C2.50333 10.8633 2.42833 10.6717 2.35833 10.4717C2.13353 9.79378 2.01902 9.08419 2.01917 8.37V3H4.725V8.37C4.725 8.4975 4.72833 8.61833 4.74583 8.73917C4.75917 8.9175 4.78583 9.085 4.82917 9.2525C4.95145 9.77176 5.17894 10.2604 5.49757 10.6883C5.8162 11.1161 6.2192 11.4741 6.68167 11.74C7.26444 12.0734 7.9236 12.2502 8.595 12.2533H8.615C9.37612 12.258 10.1132 12.5203 10.7063 12.9974C11.2993 13.4745 11.7133 14.1384 11.8808 14.8808H11.8775Z" fill="#323544"/>
<path d="M4.705 14.2975V20.9967H2V10.7967C2.0875 11.1217 2.22833 11.4917 2.30167 11.6358C2.85993 12.7163 3.68777 13.6343 4.705 14.3008V14.2975Z" fill="#323544"/>
<path d="M15.1867 15.6258V20.9967H12.4817V15.625C12.4835 15.5005 12.4769 15.3761 12.4617 15.2525C12.4012 14.6347 12.1943 14.0403 11.858 13.5185C11.5218 12.9968 11.0659 12.5628 10.5283 12.2525C9.94401 11.9199 9.284 11.7431 8.61167 11.7392H8.59167C7.8315 11.7342 7.09531 11.4726 6.50251 10.9967C5.9097 10.5208 5.49506 9.85861 5.32583 9.1175C5.59083 9.06083 5.86667 9.03417 6.15167 9.03417H8.59167C9.78744 9.03392 10.9606 9.35978 11.985 9.97667C12.1625 10.0808 12.3342 10.195 12.4983 10.3158C13.4178 10.9951 14.1461 11.9005 14.6125 12.9442C14.9912 13.7874 15.1869 14.7014 15.1867 15.6258Z" fill="#323544"/>
<path d="M18.5867 5.39C18.5867 4.93 18.7542 4.53417 19.0867 4.20167C19.4192 3.86583 19.8217 3.70167 20.2883 3.70167C20.755 3.70167 21.1675 3.86917 21.5 4.20167C21.8358 4.52667 22 4.93 22 5.40333C22 5.87667 21.8325 6.2825 21.5 6.615C21.175 6.95 20.775 7.115 20.2983 7.115C20.0729 7.1189 19.8491 7.07655 19.6407 6.99055C19.4323 6.90455 19.2437 6.77674 19.0867 6.615C18.7508 6.27917 18.5867 5.87333 18.5867 5.39ZM21.695 20.9958H18.895V9.64333H21.695V20.9958Z" fill="#323544"/>
<path d="M12.4817 9.69917V3H15.1867V13.2C15.1097 12.9123 15.0088 12.6316 14.885 12.3608C14.3267 11.2804 13.4989 10.3624 12.4817 9.69583V9.69917Z" fill="#323544"/>
</svg>
