<svg width="24" height="24" viewBox="0 0 24 24" fill="none" xmlns="http://www.w3.org/2000/svg">
<path d="M17.3562 8.42547V5.93211C17.6857 5.77811 17.9647 5.5337 18.1607 5.22731C18.3567 4.92093 18.4616 4.56518 18.4633 4.20148V4.14427C18.4633 3.08383 17.6037 2.22418 16.5433 2.22418H16.486C15.4256 2.22418 14.5659 3.08383 14.5659 4.14427V4.20148C14.5676 4.56518 14.6726 4.92093 14.8685 5.22731C15.0645 5.5337 15.3435 5.77811 15.673 5.93211V8.42547C14.726 8.5705 13.8341 8.96317 13.0877 9.56374L6.24951 4.23748C6.29827 4.06146 6.32371 3.88045 6.32658 3.69877C6.32742 3.27085 6.20132 2.85229 5.96425 2.49605C5.72717 2.1398 5.38977 1.86187 4.99472 1.6974C4.59967 1.53294 4.16471 1.48933 3.74487 1.5721C3.32503 1.65487 2.93917 1.86029 2.6361 2.16239C2.33302 2.46448 2.12635 2.84967 2.04222 3.26924C1.95809 3.68881 2.00029 4.1239 2.16347 4.51949C2.32665 4.91507 2.60349 5.25337 2.95896 5.4916C3.31444 5.72983 3.73258 5.85728 4.1605 5.85783C4.53485 5.85607 4.90219 5.75612 5.22584 5.56799L11.9595 10.8078C10.7215 12.6779 10.7547 15.1153 12.0429 16.9512L9.99488 18.9998C9.82925 18.9469 9.65687 18.9188 9.48304 18.9164C8.50221 18.9173 7.70762 19.7127 7.70788 20.6935C7.70813 21.6743 8.50322 22.4693 9.48397 22.4695C10.4648 22.4698 11.2602 21.6752 11.2611 20.6944C11.2588 20.5206 11.2306 20.3481 11.1776 20.1826L13.2037 18.1558C15.014 19.5494 17.5003 19.6695 19.4366 18.4568C21.3727 17.244 22.3498 14.9545 21.8859 12.7175C21.422 10.4804 19.615 8.76839 17.3562 8.42547ZM16.5164 16.626C16.1421 16.636 15.7696 16.571 15.4209 16.4347C15.0721 16.2984 14.7542 16.0937 14.4859 15.8325C14.2176 15.5713 14.0043 15.259 13.8587 14.914C13.7131 14.5691 13.6381 14.1984 13.6381 13.824C13.6381 13.4495 13.7131 13.0789 13.8587 12.7339C14.0043 12.389 14.2176 12.0767 14.4859 11.8155C14.7542 11.5543 15.0721 11.3495 15.4209 11.2133C15.7696 11.077 16.1421 11.0119 16.5164 11.022C18.0248 11.0748 19.2206 12.3126 19.2214 13.822C19.2221 15.3312 18.0276 16.5702 16.5192 16.6245" fill="#323544"/>
</svg>
