<svg width="24" height="24" viewBox="0 0 24 24" fill="none" xmlns="http://www.w3.org/2000/svg">
<path d="M4.85771 7.35886C4.46296 7.35886 4.14303 7.67879 4.14303 8.07353V15.931C4.14303 16.3257 4.46296 16.6457 4.85771 16.6457H7.35807V18.7887H4.85771C3.27972 18.7887 2 17.51 2 15.932V8.07452C2 6.49653 3.27873 5.2178 4.85771 5.2178H7.35807V7.36083H4.85771V7.35886Z" fill="#323544"/>
<path d="M19.1433 16.6447C19.538 16.6447 19.858 16.3248 19.858 15.93V8.07255C19.858 7.67781 19.538 7.35788 19.1433 7.35788H16.6429V5.21484H19.1433C20.7213 5.21484 22 6.49357 22 8.07156V15.929C22 17.507 20.7213 18.7857 19.1433 18.7857H16.6429V16.6427H19.1433V16.6447Z" fill="#323544"/>
<path d="M18.7859 11.9698C18.7859 11.1084 18.154 10.379 17.3015 10.2559C15.4754 9.95865 14.0441 8.52537 13.7498 6.69931C13.6228 5.84879 12.8933 5.21681 12.032 5.21484H11.968C11.1067 5.21484 10.3772 5.84683 10.2542 6.69931C9.95688 8.52537 8.5236 9.95669 6.69754 10.251C5.84702 10.378 5.21504 11.1074 5.21307 11.9688V12.0328C5.21307 12.8941 5.84506 13.6236 6.69754 13.7466C8.5236 14.0439 9.95491 15.4772 10.2492 17.3032C10.3762 18.1538 11.1057 18.7857 11.967 18.7877H12.031C12.8924 18.7877 13.6218 18.1557 13.7448 17.3032C14.0421 15.4772 15.4754 14.0459 17.3015 13.7515C18.152 13.6246 18.784 12.8951 18.7859 12.0338V11.9698ZM16.2413 12.0269C16.2413 12.0436 16.2177 12.0584 16.195 12.0633C14.0697 12.4088 12.4031 14.0754 12.0556 16.2007C12.0556 16.2243 12.0389 16.243 12.0261 16.243H11.9729C11.9562 16.243 11.9414 16.2194 11.9365 16.1968C11.591 14.0715 9.92637 12.4049 7.79908 12.0574C7.77546 12.0574 7.75676 12.0407 7.75676 12.0279V11.9747C7.75676 11.958 7.78038 11.9432 7.80302 11.9383C9.92834 11.5928 11.5949 9.92617 11.9424 7.80085C11.9424 7.77723 11.9591 7.75853 11.9719 7.75853H12.0251C12.0418 7.75853 12.0566 7.78215 12.0615 7.80479C12.407 9.93011 14.0717 11.5967 16.1989 11.9442C16.2226 11.9442 16.2413 11.9609 16.2413 11.9737V12.0269Z" fill="#323544"/>
</svg>
