<svg width="24" height="24" viewBox="0 0 24 24" fill="none" xmlns="http://www.w3.org/2000/svg">
<path d="M2.16035 18.2529C2.05846 18.4971 2.00578 18.7591 2.00535 19.0237C2.00535 20.1212 2.93204 21.1221 4.46375 21.888C4.60358 21.9559 4.75607 21.9938 4.91144 21.9993C5.0668 22.0048 5.22159 21.9777 5.36585 21.9198C5.51011 21.8618 5.64066 21.7744 5.74909 21.663C5.85752 21.5516 5.94145 21.4187 5.99546 21.2729L7.70301 17.1645C8.00219 16.4503 8.23803 15.7103 8.40804 14.9544C5.24544 15.4853 2.8612 16.6978 2.20118 18.1812L2.17452 18.2445L2.16035 18.2529ZM8.4022 9.04675C8.23197 8.29068 7.99607 7.5509 7.69718 6.83585L5.9913 2.7274C5.93699 2.58165 5.85283 2.44885 5.74422 2.33752C5.63561 2.22619 5.50494 2.13877 5.36058 2.08087C5.21623 2.02297 5.06136 1.99586 4.90592 2.00129C4.75048 2.00671 4.59789 2.04455 4.45792 2.11238C2.92621 2.87823 1.99951 3.87993 1.99951 4.97746C1.99951 5.24164 2.05285 5.50331 2.15452 5.74749V5.75582L2.18118 5.81999C2.8562 7.30337 5.23878 8.51507 8.4022 9.04675ZM19.5409 2.11321C21.0726 2.87823 21.9993 3.87993 21.9993 4.97663C21.9953 5.24174 21.9398 5.50355 21.8359 5.74749L21.8134 5.79999C21.1592 7.29337 18.7692 8.51173 15.5966 9.04675C15.7666 8.2909 16.0024 7.55087 16.3016 6.83585L18.0083 2.7274C18.0623 2.58152 18.1463 2.44856 18.2548 2.33709C18.3633 2.22561 18.4939 2.13809 18.6383 2.08016C18.7826 2.02222 18.9375 1.99516 19.093 2.00071C19.2484 2.00626 19.401 2.04513 19.5409 2.11321ZM15.6058 14.9544C15.7733 15.7094 16.0058 16.4486 16.3033 17.1628L18.01 21.2729C18.0641 21.4186 18.1481 21.5514 18.2565 21.6627C18.365 21.7741 18.4955 21.8615 18.6398 21.9194C18.784 21.9773 18.9387 22.0044 19.094 21.999C19.2494 21.9936 19.4019 21.9558 19.5417 21.888C21.0742 21.1213 22.0009 20.1212 22.0009 19.0237C21.9998 18.7591 21.9471 18.4973 21.8459 18.2529L21.8234 18.2012C21.1717 16.7078 18.7725 15.4878 15.6058 14.9544ZM15.4982 9.92094C17.7441 9.5751 19.6109 8.90175 20.8984 8.02255L20.5334 8.90008C19.715 10.8849 19.715 13.1129 20.5334 15.0978L20.8959 15.9711C19.6067 15.0919 17.74 14.4252 15.4966 14.0752L15.4382 14.0669C14.3003 13.8942 13.1508 13.8083 11.9998 13.8102C10.8523 13.8086 9.70641 13.8936 8.57137 14.0661L8.51221 14.0744C6.26797 14.4186 4.40125 15.0928 3.11204 15.972L3.47622 15.0969C4.29461 13.1121 4.29461 10.8841 3.47622 8.89925L3.11204 8.02255C4.39542 8.90591 6.26214 9.5751 8.50637 9.92094L8.56554 9.92928C10.8439 10.2685 13.1598 10.2685 15.4374 9.92928L15.4966 9.92094H15.4982Z" fill="#323544"/>
</svg>
