<svg width="24" height="24" viewBox="0 0 24 24" fill="none" xmlns="http://www.w3.org/2000/svg">
<path d="M17.4443 2.83309C18.7072 3.5494 19.6407 4.7303 20.0461 6.12446C20.2115 6.18367 20.3743 6.25855 20.5293 6.34823C20.552 6.3613 20.5729 6.37436 20.5929 6.38916C20.7897 6.50845 20.9725 6.65125 21.1388 6.81582C21.4192 7.09638 21.64 7.43077 21.7877 7.79887C21.9355 8.16697 22.0073 8.56116 21.9988 8.95773C21.9902 9.3543 21.9015 9.74503 21.738 10.1064C21.5745 10.4678 21.3396 10.7924 21.0474 11.0606C21.3629 11.35 21.6114 11.7048 21.7755 12.1003C21.9396 12.4957 22.0153 12.9222 21.9974 13.35C21.9795 13.7777 21.8684 14.1964 21.6718 14.5767C21.4752 14.9571 21.1979 15.2899 20.8593 15.5519L20.8271 15.5771L20.8454 15.605C21.185 16.1292 21.3548 16.7578 21.3104 17.403L21.3025 17.4988C21.2563 17.9554 21.1038 18.3948 20.8572 18.7819C20.6107 19.169 20.277 19.493 19.8828 19.728C19.4886 19.963 19.0449 20.1025 18.5871 20.1353C18.1294 20.1681 17.6703 20.0933 17.2467 19.9168C17.0728 20.4151 16.768 20.8574 16.3643 21.1974C15.9606 21.5373 15.4728 21.7623 14.9522 21.8487C14.4316 21.9352 13.8973 21.88 13.4053 21.6888C12.9134 21.4977 12.482 21.1776 12.1564 20.7623C11.7112 20.9759 11.2262 21.0936 10.7327 21.108C10.6979 21.1123 10.6613 21.115 10.6239 21.115H9.84284L9.78363 21.1123C8.81189 21.054 8.83192 19.5668 9.84284 19.5668H10.5429L10.583 19.5633L10.6239 19.5624C11.155 19.5716 11.668 19.3693 12.0501 19.0002C12.4321 18.6311 12.6518 18.1253 12.661 17.5942C12.6701 17.063 12.4678 16.55 12.0987 16.168C11.7296 15.786 11.2238 15.5662 10.6927 15.5571C10.6695 15.5598 10.6463 15.5613 10.623 15.5614H4.41818C4.21288 15.5614 4.01599 15.4799 3.87083 15.3347C3.72566 15.1895 3.6441 14.9927 3.6441 14.7874C3.6441 14.5821 3.72566 14.3852 3.87083 14.24C4.01599 14.0948 4.21288 14.0133 4.41818 14.0133H10.5429L10.583 14.0098L10.6248 14.0089C11.118 14.0099 11.5942 13.8288 11.9622 13.5004C12.3302 13.172 12.5641 12.7193 12.619 12.2292C12.6739 11.739 12.546 11.2458 12.2598 10.8441C11.9736 10.4424 11.5492 10.1605 11.068 10.0523L10.9452 10.0253C10.8594 10.006 10.7724 9.99261 10.6848 9.98528C10.6646 9.98709 10.6442 9.98796 10.6239 9.98789H4.41818C4.3144 9.99137 4.21098 9.97394 4.11408 9.93663C4.01718 9.89931 3.92877 9.84289 3.85412 9.7707C3.77948 9.69852 3.72012 9.61206 3.67958 9.51646C3.63904 9.42086 3.61815 9.31808 3.61815 9.21425C3.61815 9.11041 3.63904 9.00763 3.67958 8.91203C3.72012 8.81643 3.77948 8.72997 3.85412 8.65779C3.92877 8.5856 4.01718 8.52918 4.11408 8.49186C4.21098 8.45455 4.3144 8.43712 4.41818 8.4406H10.5438L10.5838 8.43712L10.6248 8.43625C11.1559 8.44629 11.6693 8.24493 12.052 7.87646C12.4346 7.50799 12.6553 7.00259 12.6653 6.47144C12.6754 5.9403 12.474 5.42692 12.1055 5.04424C11.737 4.66156 11.2317 4.44093 10.7005 4.43089C10.6753 4.43318 10.65 4.43434 10.6248 4.43437H9.84371L9.78363 4.4335C8.81189 4.37516 8.83192 2.88795 9.84284 2.88795H10.5394C10.5675 2.88498 10.5957 2.88353 10.6239 2.8836C10.9739 2.8836 11.3118 2.9341 11.6313 3.02814L11.6583 3.01072C12.514 2.45405 13.5062 2.14315 14.5266 2.11198C15.5469 2.08081 16.5562 2.32969 17.4443 2.83309ZM14.1904 12.8326L14.1312 12.8639L14.0589 12.9083C13.864 13.6486 13.4352 14.3061 12.8364 14.783C13.2542 15.1152 13.5915 15.5374 13.8233 16.0183C14.055 16.4991 14.1752 17.026 14.1747 17.5598C14.1758 18.3785 13.8927 19.1722 13.3737 19.8054C13.5675 20.0543 13.8402 20.23 14.147 20.3036C14.4538 20.3772 14.7766 20.3445 15.0623 20.2107C15.3481 20.077 15.5799 19.8501 15.7199 19.5673C15.8598 19.2845 15.8996 18.9626 15.8326 18.6543L15.8065 18.5463L15.7952 18.4775L15.7908 18.4288L15.7899 18.3922L15.7908 18.3417L15.7952 18.2955L15.8065 18.2276L15.8221 18.1649L15.8413 18.1092L15.8718 18.0404L15.8761 18.0317C15.9119 17.962 15.9583 17.8982 16.0137 17.8428L16.0616 17.7975L16.0973 17.7696L16.1408 17.7391L16.1774 17.7165L16.2253 17.6904L16.2889 17.6643L16.3376 17.6468L16.3724 17.6373L16.4404 17.6233L16.5039 17.6155L16.5431 17.6138H16.5849L16.6206 17.6155L16.6711 17.6207L16.7199 17.6294L16.7739 17.6425L16.8008 17.6512L16.8435 17.666L16.8905 17.686L16.9288 17.7043L16.975 17.7313L17.0055 17.7513C17.0577 17.7879 17.1047 17.8297 17.1474 17.8793L17.1805 17.9194L17.2101 17.9612C17.3181 18.1285 17.4608 18.2708 17.6285 18.3783C17.7962 18.4858 17.985 18.5562 18.1821 18.5845C18.3793 18.6129 18.5802 18.5987 18.7714 18.5428C18.9626 18.4869 19.1396 18.3907 19.2905 18.2606C19.4413 18.1305 19.5625 17.9695 19.6459 17.7886C19.7292 17.6077 19.7728 17.411 19.7737 17.2118C19.7746 17.0126 19.7328 16.8155 19.651 16.6339C19.5693 16.4522 19.4495 16.2902 19.2998 16.1588C19.1629 16.1708 19.0252 16.1728 18.888 16.1649L18.8384 16.1605L18.8157 16.1561H18.8018C18.1891 16.1022 17.6087 15.8574 17.1425 15.4563C16.6762 15.0552 16.3475 14.5179 16.2027 13.9201L16.18 13.8191C16.1398 13.6078 16.0512 13.4086 15.9211 13.2373C15.791 13.066 15.623 12.9271 15.4303 12.8315C15.2376 12.7359 15.0253 12.6863 14.8102 12.6865C14.5951 12.6867 14.383 12.7367 14.1904 12.8326ZM10.3452 16.8336C10.449 16.8301 10.5524 16.8475 10.6494 16.8848C10.7463 16.9221 10.8347 16.9786 10.9093 17.0508C10.984 17.1229 11.0433 17.2094 11.0839 17.305C11.1244 17.4006 11.1453 17.5034 11.1453 17.6072C11.1453 17.7111 11.1244 17.8138 11.0839 17.9094C11.0433 18.005 10.984 18.0915 10.9093 18.1637C10.8347 18.2359 10.7463 18.2923 10.6494 18.3296C10.5524 18.3669 10.449 18.3843 10.3452 18.3809H7.14444C6.94375 18.3741 6.75353 18.2897 6.61394 18.1453C6.47435 18.001 6.39632 17.808 6.39632 17.6072C6.39632 17.4064 6.47435 17.2135 6.61394 17.0691C6.75353 16.9248 6.94375 16.8403 7.14444 16.8336H10.3452ZM18.3629 7.68829C18.1622 7.80432 17.9936 7.96861 17.8724 8.16628C17.7513 8.36394 17.6813 8.58872 17.669 8.82024L17.6672 8.89425C17.6672 9.09065 17.5926 9.27971 17.4584 9.42311C17.3242 9.56652 17.1405 9.65356 16.9445 9.66659L16.8931 9.66833C16.6967 9.66832 16.5077 9.59366 16.3643 9.45947C16.2209 9.32528 16.1338 9.14159 16.1208 8.94562L16.1191 8.89425C16.1187 8.63863 16.048 8.38804 15.9147 8.16992C15.7814 7.9518 15.5907 7.77455 15.3634 7.65758C15.1361 7.54061 14.881 7.48842 14.6261 7.50674C14.3711 7.52506 14.1261 7.61317 13.9179 7.76143C13.6862 8.33384 13.3096 8.83615 12.8251 9.21903C13.464 9.72438 13.9101 10.4338 14.0885 11.2287C14.4693 11.1317 14.8657 11.1121 15.2542 11.1711C15.6427 11.23 16.0155 11.3663 16.3504 11.5719C16.6853 11.7774 16.9755 12.0481 17.204 12.3679C17.4324 12.6876 17.5944 13.0499 17.6803 13.4334L17.6977 13.5143C17.7585 13.802 17.9087 14.063 18.1269 14.2601C18.3451 14.4572 18.62 14.5802 18.9124 14.6115L19.0203 14.6202L19.0569 14.6219C19.1092 14.6219 19.1614 14.6193 19.2136 14.6132L19.2877 14.6036L19.3416 14.5906C19.6722 14.5206 19.9661 14.3329 20.1686 14.0623C20.371 13.7918 20.4683 13.4569 20.4422 13.12C20.4161 12.7831 20.2684 12.4672 20.0267 12.231C19.785 11.9949 19.4657 11.8547 19.1283 11.8365L19.0595 11.8347C18.946 11.8348 18.8339 11.8099 18.7311 11.7618C18.6283 11.7136 18.5374 11.6434 18.4648 11.5561L18.4352 11.5178C18.3713 11.4309 18.3263 11.3317 18.3032 11.2264C18.2801 11.1211 18.2794 11.0121 18.3011 10.9065C18.3347 10.7409 18.4216 10.5908 18.5484 10.4792C18.6753 10.3675 18.8352 10.3005 19.0038 10.2883L19.0595 10.2874C19.3347 10.2873 19.6036 10.2057 19.8324 10.0529C20.0613 9.90017 20.2397 9.68307 20.3453 9.42901C20.4509 9.17495 20.479 8.89531 20.4259 8.62535C20.3728 8.35539 20.2409 8.1072 20.0469 7.91207C19.8587 7.7259 19.6213 7.59724 19.3625 7.54114L19.2737 7.52459C19.2515 7.52095 19.2294 7.5163 19.2075 7.51066C18.9143 7.47848 18.6184 7.54071 18.3629 7.68829ZM10.3531 11.2409C10.5584 11.2409 10.7553 11.3224 10.9004 11.4676C11.0456 11.6128 11.1272 11.8097 11.1272 12.015C11.1272 12.2203 11.0456 12.4171 10.9004 12.5623C10.7553 12.7075 10.5584 12.789 10.3531 12.789H2.74812C2.54743 12.7823 2.35721 12.6978 2.21762 12.5535C2.07803 12.4091 2 12.2162 2 12.0154C2 11.8146 2.07803 11.6216 2.21762 11.4773C2.35721 11.3329 2.54743 11.2485 2.74812 11.2417H10.354L10.3531 11.2409ZM10.3444 5.64033C10.4482 5.63685 10.5516 5.65428 10.6485 5.69159C10.7454 5.72891 10.8338 5.78533 10.9084 5.85752C10.9831 5.9297 11.0424 6.01616 11.083 6.11176C11.1235 6.20736 11.1444 6.31014 11.1444 6.41398C11.1444 6.51781 11.1235 6.62059 11.083 6.71619C11.0424 6.81179 10.9831 6.89825 10.9084 6.97043C10.8338 7.04262 10.7454 7.09904 10.6485 7.13636C10.5516 7.17367 10.4482 7.1911 10.3444 7.18762H7.14531C7.04153 7.1911 6.93811 7.17367 6.84121 7.13636C6.74431 7.09904 6.6559 7.04262 6.58125 6.97043C6.50661 6.89825 6.44725 6.81179 6.40671 6.71619C6.36617 6.62059 6.34527 6.51781 6.34527 6.41398C6.34527 6.31014 6.36617 6.20736 6.40671 6.11176C6.44725 6.01616 6.50661 5.9297 6.58125 5.85752C6.6559 5.78533 6.74431 5.72891 6.84121 5.69159C6.93811 5.65428 7.04153 5.63685 7.14531 5.64033H10.3444ZM13.2152 3.93892L13.169 3.95721C13.7132 4.51551 14.0579 5.23787 14.1495 6.01213C14.6451 5.91262 15.158 5.94264 15.6386 6.09929C16.1193 6.25594 16.5514 6.53392 16.8931 6.90637C17.2874 6.47558 17.8013 6.17238 18.369 6.03564C17.9454 5.08958 17.1731 4.34348 16.2129 3.95287C15.2528 3.56226 14.1789 3.55726 13.2152 3.93892Z" fill="#323544"/>
</svg>
