<svg width="24" height="24" viewBox="0 0 24 24" fill="none" xmlns="http://www.w3.org/2000/svg">
<path d="M19.2608 7.54712C18.9158 6.35879 17.8041 5.48713 16.4633 5.48713C15.9693 5.48687 15.4828 5.60791 15.0466 5.83963C14.1833 4.53963 12.67 3.66797 10.9458 3.66797C8.47497 3.66797 6.42498 5.46796 6.11915 7.78795C3.78166 8.15961 2 10.1079 2 12.4846C2 15.1012 4.18332 17.2179 6.88498 17.2179C8.22664 17.2179 9.45163 16.6796 10.3333 15.8254C10.5633 15.6029 10.7741 15.3612 10.9466 15.0837C10.7751 15.3396 10.5758 15.5758 10.3525 15.7879C9.38932 17.0869 8.87193 18.6625 8.87747 20.2796V20.3346C11.029 18.9265 13.5288 18.1427 16.0991 18.0704H16.1374C18.6666 18.0704 20.8316 16.5112 21.6549 14.3213C21.8869 13.6977 22.0038 13.0373 21.9999 12.3721C21.9999 10.3496 20.9082 8.56795 19.2608 7.54712ZM7.80497 12.7254C7.80367 12.8171 7.78428 12.9077 7.7479 12.9919C7.71152 13.0761 7.65888 13.1522 7.59299 13.216C7.5271 13.2798 7.44927 13.33 7.36395 13.3636C7.27863 13.3973 7.18751 13.4137 7.09581 13.4121C7.00653 13.4116 6.91824 13.3933 6.83606 13.3584C6.75388 13.3235 6.67944 13.2727 6.61705 13.2088C6.55465 13.1449 6.50555 13.0693 6.47258 12.9864C6.43962 12.9034 6.42343 12.8147 6.42498 12.7254V10.9063C6.42343 10.817 6.43962 10.7283 6.47258 10.6453C6.50555 10.5624 6.55465 10.4868 6.61705 10.4229C6.67944 10.359 6.75388 10.3082 6.83606 10.2733C6.91824 10.2384 7.00653 10.2201 7.09581 10.2196C7.47914 10.2196 7.80414 10.5354 7.80414 10.9063L7.80497 12.7254ZM10.3141 13.6163C10.3126 13.7104 10.2926 13.8033 10.2551 13.8896C10.2177 13.976 10.1636 14.0542 10.096 14.1196C10.0284 14.1851 9.9485 14.2366 9.86096 14.2712C9.77341 14.3058 9.67992 14.3228 9.5858 14.3213C9.39586 14.3241 9.21255 14.2515 9.07613 14.1193C8.93972 13.9871 8.86137 13.8062 8.8583 13.6163V9.53294C8.86137 9.34301 8.93972 9.16207 9.07613 9.02987C9.21255 8.89768 9.39586 8.82505 9.5858 8.82795C9.67992 8.8264 9.77341 8.84341 9.86096 8.87801C9.9485 8.9126 10.0284 8.96411 10.096 9.02957C10.1636 9.09504 10.2177 9.17319 10.2551 9.25956C10.2926 9.34593 10.3126 9.43882 10.3141 9.53294V13.6163ZM12.9008 12.7438C12.9008 13.1146 12.5558 13.4304 12.1725 13.4304C11.7891 13.4304 11.4641 13.1146 11.4641 12.7438V10.8879C11.4641 10.5163 11.77 10.2013 12.1725 10.2013C12.5558 10.2013 12.9 10.5163 12.9 10.8879L12.9008 12.7438ZM15.5249 13.6346C15.5234 13.7287 15.5034 13.8216 15.4659 13.908C15.4285 13.9943 15.3744 14.0725 15.3068 14.138C15.2392 14.2034 15.1593 14.2549 15.0718 14.2895C14.9842 14.3241 14.8907 14.3411 14.7966 14.3396C14.6067 14.3425 14.4234 14.2699 14.2869 14.1377C14.1505 14.0055 14.0722 13.8245 14.0691 13.6346V9.55128C14.0722 9.36134 14.1505 9.1804 14.2869 9.0482C14.4234 8.91601 14.6067 8.84338 14.7966 8.84628C14.8907 8.84473 14.9842 8.86175 15.0718 8.89634C15.1593 8.93094 15.2392 8.98244 15.3068 9.04791C15.3744 9.11337 15.4285 9.19152 15.4659 9.27789C15.5034 9.36426 15.5234 9.45716 15.5249 9.55128V13.6346ZM18.0916 12.7254C18.0903 12.8171 18.0709 12.9075 18.0346 12.9917C17.9983 13.0758 17.9457 13.1519 17.8799 13.2157C17.8141 13.2795 17.7364 13.3297 17.6511 13.3634C17.5659 13.3971 17.4749 13.4136 17.3833 13.4121C17.294 13.4116 17.2057 13.3933 17.1235 13.3584C17.0413 13.3235 16.9669 13.2727 16.9045 13.2088C16.8421 13.1449 16.793 13.0693 16.76 12.9864C16.7271 12.9034 16.7109 12.8147 16.7124 12.7254V10.9063C16.7109 10.817 16.7271 10.7283 16.76 10.6453C16.793 10.5624 16.8421 10.4868 16.9045 10.4229C16.9669 10.359 17.0413 10.3082 17.1235 10.2733C17.2057 10.2384 17.294 10.2201 17.3833 10.2196C17.7666 10.2196 18.0916 10.5354 18.0916 10.9063V12.7254Z" fill="#323544"/>
</svg>
