<svg width="24" height="24" viewBox="0 0 24 24" fill="none" xmlns="http://www.w3.org/2000/svg">
<path d="M9.96281 11.9784C9.96163 10.4448 9.95983 8.9112 9.95741 7.3776C9.9567 7.2935 9.92266 7.21311 9.86277 7.15406C9.80288 7.09501 9.72201 7.06212 9.63791 7.0626H3.29651C3.22983 7.06236 3.16597 7.03571 3.1189 6.98847C3.07184 6.94124 3.04541 6.87728 3.04541 6.8106V3.2034C3.04541 3.1494 3.06611 3.0981 3.10391 3.0594C3.12233 3.04061 3.14432 3.02567 3.16858 3.01547C3.19284 3.00527 3.21889 3.00001 3.24521 3H13.7437C13.8071 3.00017 13.868 3.02477 13.9138 3.06868C13.9596 3.11259 13.9866 3.17244 13.9894 3.2358C14.1154 6.0627 14.0101 8.9022 14.0128 12.0216L14.02 16.6206C14.0202 16.7047 14.0538 16.7853 14.1134 16.8447C14.1729 16.9041 14.2536 16.9374 14.3377 16.9374H20.6791C20.7458 16.9376 20.8097 16.9643 20.8567 17.0115C20.9038 17.0588 20.9302 17.1227 20.9302 17.1894V20.7975C20.9301 20.8373 20.9184 20.8763 20.8965 20.9095C20.8746 20.9428 20.8435 20.9689 20.8069 20.9847C20.7827 20.9948 20.7567 21 20.7304 21H10.2319C10.1684 21.0001 10.1074 20.9755 10.0616 20.9316C10.0158 20.8876 9.98877 20.8276 9.98621 20.7642C9.86021 17.9373 9.96821 15.0978 9.96281 11.9784ZM20.7025 3.0369L17.1961 3.0189C17.129 3.01866 17.0644 3.04505 17.0167 3.09228C16.969 3.13951 16.9419 3.20374 16.9414 3.2709L16.9234 6.7827C16.9216 6.9231 17.035 7.0365 17.1754 7.0374L20.6809 7.0554C20.7142 7.05564 20.7473 7.04931 20.7782 7.03677C20.8091 7.02424 20.8372 7.00574 20.8609 6.98234C20.8846 6.95894 20.9035 6.93109 20.9165 6.90039C20.9295 6.86969 20.9363 6.83673 20.9365 6.8034L20.9545 3.2925C20.9547 3.25917 20.9484 3.22612 20.9359 3.19524C20.9233 3.16435 20.9048 3.13624 20.8814 3.11251C20.858 3.08877 20.8302 3.06988 20.7995 3.05691C20.7688 3.04393 20.7358 3.03714 20.7025 3.0369ZM6.79481 16.9662H3.32441C3.25304 16.9662 3.18459 16.9946 3.13413 17.045C3.08366 17.0955 3.05531 17.1639 3.05531 17.2353V20.7048C3.05531 20.8542 3.17591 20.9748 3.32531 20.9748H6.79481C6.8303 20.9749 6.86546 20.968 6.89827 20.9545C6.93109 20.941 6.9609 20.9211 6.98599 20.896C7.01109 20.8709 7.03097 20.8411 7.0445 20.8083C7.05803 20.7755 7.06493 20.7403 7.06481 20.7048V17.2353C7.06493 17.1998 7.05803 17.1646 7.0445 17.1318C7.03097 17.099 7.01109 17.0692 6.98599 17.0441C6.9609 17.019 6.93109 16.9991 6.89827 16.9856C6.86546 16.9721 6.8303 16.9661 6.79481 16.9662Z" fill="#323544"/>
</svg>
