<svg width="24" height="24" viewBox="0 0 24 24" fill="none" xmlns="http://www.w3.org/2000/svg">
<g opacity="0.5">
<path d="M13.4784 20.8311C16.7018 19.0907 20.0791 19.752 20.9931 19.9815V21.4004C19.832 21.1246 16.6371 20.6047 13.4345 22.2061C10.2337 20.6065 7.03957 21.1257 5.8798 21.4014V19.9815C6.7937 19.753 10.1694 19.0903 13.3935 20.8311L13.413 20.8662C13.4207 20.862 13.4287 20.8577 13.4364 20.8535C13.4442 20.8577 13.4522 20.862 13.4599 20.8662L13.4784 20.8311Z" fill="#323544"/>
<path d="M16.3819 3.31623C16.3919 2.75023 16.1169 2.26223 15.5549 1.85423C14.9849 1.45423 14.3029 1.25223 13.5099 1.24623C12.7179 1.24023 12.0389 1.43523 11.4789 1.83323C10.9159 2.23423 10.6289 2.71723 10.6219 3.27823C10.6239 3.45423 10.6389 3.61423 10.6619 3.76423C12.7619 3.08823 14.6429 3.14423 16.3019 3.93123C16.3469 3.72123 16.3739 3.51823 16.3819 3.31623Z" fill="#323544"/>
<path d="M1.56889 11.9108C1.39345 11.9105 1.21144 11.9036 1.02295 11.8901C1.0274 11.881 1.03201 11.8717 1.03674 11.8621C1.05492 11.8253 1.07492 11.7848 1.09492 11.7402C1.26392 11.3742 1.34192 10.8572 1.33192 10.1672C1.83292 10.4122 2.42292 10.4442 3.09592 10.2622C3.85692 10.0462 4.62492 9.39923 5.43292 8.29823C5.66153 7.96901 5.92338 7.68221 6.22106 7.43647L6.40992 7.30523L6.49549 7.2286C6.72247 7.07108 6.96797 6.93412 7.23292 6.81723C6.73192 7.38823 6.28192 8.05623 5.88992 8.80623C5.79992 8.96523 5.70792 9.12723 5.60992 9.28623C5.59205 9.30832 5.57817 9.33336 5.56892 9.36023C5.01892 10.2462 4.41692 10.9102 3.79092 11.3272C3.24735 11.7101 2.5027 11.9046 1.56889 11.9108Z" fill="#323544"/>
<path d="M6.82985 6.46793C6.20282 6.78 5.67225 7.20352 5.24239 7.73525C4.47707 7.72417 3.66709 7.49486 2.82492 7.05123C3.61692 6.53923 3.83792 5.95523 3.80692 5.43023C3.99592 5.58023 4.19292 5.71123 4.39792 5.82323C5.13469 6.23845 5.89427 6.46222 6.82985 6.46793Z" fill="#323544"/>
</g>
<path d="M17.1846 11.5783C17.5245 11.3585 17.6862 11.5063 17.7402 11.5803C17.849 11.7272 17.7942 11.9381 17.6094 12.092C17.4704 12.207 16.6275 12.997 16.2305 13.468C15.8385 13.9329 15.5791 14.2399 15.2422 14.9807C15.2123 15.0531 15.1622 15.116 15.0977 15.1604C15.033 15.2048 14.9553 15.2279 14.877 15.2297C14.827 15.2297 14.7774 15.2201 14.7314 15.2004C14.5305 15.1154 14.3853 14.8432 14.5391 14.4485C14.9631 13.3625 16.4966 12.0213 17.1846 11.5783Z" fill="#323544"/>
<path d="M9.10938 11.5237C9.16463 11.4515 9.32857 11.3059 9.66504 11.5295C10.3481 11.9816 11.8634 13.3409 12.2734 14.4328C12.4234 14.8297 12.2732 15.0998 12.0723 15.1819C12.0269 15.2007 11.9787 15.2105 11.9297 15.2102C11.8508 15.2082 11.7739 15.1828 11.709 15.1379C11.6442 15.093 11.5941 15.0303 11.5645 14.9572C11.2385 14.2122 10.9817 13.9019 10.5947 13.4319C10.2048 12.9581 9.37305 12.156 9.23535 12.0393C9.05135 11.8833 8.99938 11.6707 9.10938 11.5237Z" fill="#323544"/>
<path d="M13.5361 1.00021C14.3759 1.00727 15.1108 1.22664 15.7197 1.65353C16.3487 2.11151 16.6614 2.67257 16.6494 3.32053C16.6424 3.49453 16.6228 3.66873 16.5898 3.85373C16.7437 4.09664 16.6256 4.49927 16.5586 4.70432L16.5605 4.76975L16.5176 4.81564C16.4688 4.94272 16.4047 5.04978 16.3311 5.13986C16.7316 5.24827 17.128 5.37487 17.5166 5.52365C18.0656 5.74931 18.5896 6.03167 19.0811 6.36447C20.116 7.12339 20.3845 7.22217 20.7285 8.50412C20.8665 9.26702 20.9728 10.0839 20.7979 10.7248C20.758 10.8694 20.6969 11.0265 20.6289 11.1838C20.8871 11.1701 21.1453 11.2316 21.3691 11.3625C21.6395 11.512 21.8392 11.763 21.9248 12.0598L21.9229 12.0617C22.0031 12.3225 22.021 12.5984 21.9756 12.8674C21.9706 12.9192 21.9593 12.9705 21.9424 13.0197C21.9084 13.1437 21.845 13.2912 21.7471 13.4641C21.6721 13.606 21.6104 13.7311 21.5654 13.8391C21.5426 13.8961 21.5376 13.9588 21.5508 14.0188L21.5527 14.0315L21.583 14.2024C21.701 14.4914 21.7178 14.7668 21.6328 15.0188C21.5574 15.2591 21.3931 15.4613 21.1738 15.5852C21.0279 15.6661 20.8569 15.7175 20.665 15.7356C20.5851 15.7416 20.502 15.7445 20.415 15.7395C20.2012 15.7322 20.0098 15.663 19.8496 15.5383C19.8306 15.6877 19.8134 15.8458 19.791 16.0119C19.5877 17.517 18.1034 18.5223 16.8701 19.0481C19.3751 18.74 21.326 19.3498 21.4453 19.3889L21.6855 19.466V22.3283L21.2334 22.1809C21.1864 22.1657 17.2305 20.9405 13.4795 22.9651L13.46 23.0012C13.4518 22.9967 13.4437 22.992 13.4355 22.9875C13.4281 22.9916 13.4206 22.9961 13.4131 23.0002L13.3945 22.967C9.64416 20.9407 5.68665 22.1667 5.63965 22.1819L5.18652 22.3264V19.466L5.42676 19.3879C5.55324 19.3472 7.73681 18.6657 10.457 19.1145C9.53047 18.7349 8.75008 18.1933 8.0918 17.4738C7.59487 16.9298 7.3475 16.3966 7.21484 15.8596C7.17889 15.888 7.14148 15.9156 7.10156 15.9387C6.96486 16.0178 6.81019 16.0616 6.65234 16.0666C6.5505 16.0716 6.45226 16.0717 6.3584 16.0617C6.18655 16.0447 6.03234 16.0027 5.89844 15.9367C5.78489 15.8804 5.68388 15.8018 5.60059 15.7063C5.5173 15.6106 5.45336 15.4994 5.41309 15.3791C5.32209 15.1381 5.33422 14.8617 5.44922 14.5637C5.46121 14.5066 5.47178 14.4492 5.48242 14.3918L5.4873 14.3684C5.49925 14.3026 5.49546 14.2519 5.47754 14.219L5.47266 14.2092C5.46038 14.1818 5.41482 14.1013 5.26758 13.8596C5.17062 13.6986 5.10061 13.5483 5.05762 13.4133C5.0417 13.3674 5.03239 13.3185 5.02441 13.2776C4.96784 13.0077 4.97848 12.7281 5.05469 12.4631C5.14266 12.1572 5.32676 11.9229 5.59863 11.7629C5.74194 11.6771 5.89906 11.6191 6.06152 11.5901C5.91919 11.2398 5.80507 10.8209 5.75684 10.3362C5.74685 10.239 5.749 10.141 5.75781 10.0422C5.2483 10.777 4.70194 11.3435 4.125 11.7287C3.52162 12.1509 2.72212 12.3719 1.73828 12.3938C1.66696 12.3959 1.59476 12.4006 1.52148 12.4006C1.23148 12.4006 0.924516 12.3828 0.603516 12.3498L0 12.2795L0.297852 12.0901L0.457031 11.9162C0.479188 11.8829 0.542736 11.7717 0.647461 11.5393C0.817289 11.1743 0.875172 10.5624 0.824219 9.72482L0.788086 9.16037L1.22266 9.52072C1.67665 9.89672 2.24689 9.9862 2.96289 9.79221C3.56149 9.62198 4.20721 9.08602 4.88672 8.20432C4.02867 8.12742 3.12813 7.81429 2.2041 7.26486L1.82129 7.03732L2.21875 6.83615C3.52783 6.17362 3.24386 4.81585 3.22949 4.75607L3.13477 4.05881L3.63477 4.6008L3.66797 4.63693C3.9469 4.94058 4.27357 5.19687 4.63477 5.39572C5.76269 6.03229 6.90308 6.17352 8.85059 5.70822C9.17236 5.54937 9.50359 5.40998 9.84375 5.29416C10.1225 5.20563 10.4047 5.12788 10.6885 5.05978C10.5761 4.8999 10.4873 4.73428 10.4287 4.56174L10.4277 4.55588C10.3627 4.34588 10.3311 4.12832 10.3311 3.91232V3.90256C10.336 3.81754 10.3693 3.73684 10.4258 3.67307C10.4098 3.53907 10.4014 3.41044 10.3994 3.28244V3.27658C10.4084 2.63576 10.7317 2.08393 11.3594 1.634C11.9604 1.208 12.6931 0.992215 13.5361 1.00021ZM20.9932 19.9817C20.0792 19.7522 16.7018 19.0909 13.4785 20.8313L13.46 20.8664C13.4522 20.8622 13.4443 20.858 13.4365 20.8537C13.4288 20.8579 13.4208 20.8622 13.4131 20.8664L13.3936 20.8313C10.1695 19.0905 6.79378 19.7532 5.87988 19.9817V21.4016C7.03965 21.1259 10.2338 20.6067 13.4346 22.2063C16.6371 20.6049 19.8321 21.1248 20.9932 21.4006V19.9817ZM12.334 19.5998C12.699 19.7314 13.0672 19.8874 13.4355 20.0715C13.8029 19.8879 14.1701 19.7322 14.5342 19.6008C14.1681 19.6329 13.7816 19.6516 13.3994 19.6516C13.0336 19.6516 12.6713 19.6348 12.334 19.5998ZM17.127 8.46115C16.2731 8.19025 15.6262 8.33604 14.9434 8.76389C14.5794 8.99083 14.0804 9.32599 13.7334 9.33615C13.3874 9.34715 12.6948 8.88799 12.2988 8.71799C10.809 7.95622 9.68583 8.59447 9.46484 8.65646H9.46094C8.32311 9.18847 7.60182 10.0236 7.29785 11.1535C7.2429 11.3577 7.19865 11.5352 7.16797 11.7053C7.33693 12.3544 7.55036 13.2754 7.60254 13.9934C7.61253 14.1323 7.62091 14.2706 7.62891 14.4055C7.68889 15.4153 7.73755 16.2145 8.52441 17.0774C9.33933 17.9673 10.3616 18.5608 11.6494 18.8908C12.7414 19.1708 14.7112 19.0855 15.7412 18.8205C16.6284 18.5924 18.981 17.6297 19.209 15.9309C19.4474 14.1563 19.4801 13.3483 19.4814 13.3313V13.3049L19.8389 11.6389C19.7531 11.4079 19.6683 11.1787 19.5449 10.8615C19.1319 9.73454 18.37 8.85115 17.127 8.46115ZM6.38477 12.2112C6.22904 12.1955 6.07193 12.2304 5.93945 12.3156C5.80854 12.4036 5.71472 12.5368 5.67578 12.6897C5.63212 12.8384 5.62412 12.9955 5.65332 13.1477C5.68514 13.2806 5.73277 13.4093 5.79395 13.5315L5.93652 13.8039C6.07548 14.0679 6.11749 14.306 6.0625 14.5119C6.02555 14.6428 6.00034 14.7738 5.98535 14.8967C5.98037 14.9417 5.98786 15.0428 6.09277 15.2326C6.13077 15.3036 6.21117 15.3984 6.45117 15.4084C6.64296 15.4163 6.78847 15.3642 6.90039 15.2444C6.95697 15.1885 7.001 15.1214 7.0293 15.0471C7.05759 14.9727 7.0696 14.8931 7.06445 14.8137C7.06048 14.7978 7.05961 14.7818 7.05664 14.7619V14.7502C7.04966 14.6945 7.04301 14.6636 7.04102 14.6506L7.04883 14.5569C7.04648 14.5183 7.0443 14.4793 7.04199 14.4406C7.03401 14.3079 7.02561 14.1741 7.01562 14.0363C6.98681 13.6381 6.90069 13.162 6.80273 12.7092C6.67419 12.598 6.52819 12.4308 6.38477 12.2112ZM20.54 11.7893L20.5264 11.7912C20.4825 11.7979 20.4412 11.8075 20.4014 11.8147L20.0664 13.3821C20.0632 13.4656 20.0471 13.74 19.999 14.2356L20.002 14.3264C19.9955 14.3569 19.9902 14.3881 19.9873 14.4192L19.9834 14.4729C19.9787 14.6579 20.0409 14.8386 20.1572 14.9826C20.2272 15.0695 20.3449 15.1655 20.6074 15.1028C20.7224 15.0748 20.921 15.0117 20.958 14.8947L20.9609 14.8889C21.0031 14.7847 21.0157 14.6706 20.9971 14.5598C20.9691 14.4358 20.9429 14.2895 20.9189 14.1135C20.8899 13.9175 20.9252 13.7169 21.0205 13.5432C21.0871 13.4171 21.1513 13.2894 21.2119 13.1604C21.2705 13.0278 21.3183 12.8903 21.3555 12.7502C21.3904 12.6253 21.3839 12.4844 21.334 12.3205C21.274 12.1465 21.1687 12.0058 21.0137 11.8928C20.9472 11.8416 20.8701 11.8061 20.7881 11.7883C20.7063 11.7706 20.6216 11.7704 20.54 11.7893ZM7.2334 6.81857C6.96845 6.93546 6.7221 7.07218 6.49512 7.22971C6.40051 7.29537 6.30894 7.36487 6.2207 7.43771C5.9231 7.68342 5.66117 7.97088 5.43262 8.30002C4.62474 9.40074 3.8566 10.0479 3.0957 10.2639C2.42285 10.4458 1.83291 10.4124 1.332 10.1674C1.342 10.8574 1.26372 11.3754 1.09473 11.7414C1.0698 11.797 1.04443 11.8467 1.02303 11.8903C1.21152 11.9038 1.39353 11.9107 1.56897 11.911C1.63973 11.9111 1.7097 11.9065 1.77832 11.9045C2.61461 11.8724 3.28871 11.6812 3.791 11.3274C4.41696 10.9104 5.01937 10.2475 5.56934 9.36154C5.57859 9.33473 5.59216 9.30848 5.61 9.28643C5.70785 9.12765 5.79977 8.96661 5.88965 8.80783C6.28165 8.05783 6.7324 7.38957 7.2334 6.81857ZM3.807 5.43043C3.838 5.95543 3.617 6.53943 2.825 7.05143C3.66717 7.49507 4.47715 7.72437 5.24247 7.73545L5.24316 7.73361C5.67271 7.20289 6.20375 6.77978 6.82993 6.46813C5.89435 6.46243 5.13477 6.23865 4.398 5.82343C4.193 5.71143 3.996 5.58043 3.807 5.43043ZM16.1768 4.13107C14.6119 3.40212 12.8101 3.34993 10.8223 3.9758L10.8301 4.1799L10.9648 4.5715C10.9648 4.5715 11.0964 4.80121 11.1904 4.91135L11.3203 4.92502C12.0993 4.78132 12.892 4.71359 13.6865 4.72385C14.2961 4.75206 14.9013 4.82782 15.498 4.94553L15.541 4.95236C15.7759 4.99117 15.9912 4.68088 15.9912 4.68088L16.1562 4.32346C16.1572 4.31638 16.1785 4.16053 16.1768 4.13107ZM13.5312 1.4885C12.7922 1.4835 12.1566 1.66549 11.6426 2.03049C11.1416 2.38746 10.8947 2.79562 10.8887 3.27756C10.8895 3.33257 10.8914 3.38766 10.8945 3.4426C11.7825 3.1826 12.6371 3.05295 13.4531 3.05295C14.3742 3.04718 15.2872 3.2258 16.1377 3.57932C16.1507 3.4855 16.1571 3.39471 16.1611 3.30588C16.1691 2.82489 15.9306 2.41199 15.4336 2.051C14.9107 1.68507 14.2711 1.49457 13.5312 1.4885Z" fill="#323544"/>
<path opacity="0.5" d="M17.756 16.4771C17.7577 16.3565 17.7352 16.2367 17.6898 16.1249C17.6445 16.0131 17.5772 15.9115 17.492 15.8261C17.411 15.7409 17.3127 15.674 17.2037 15.63C17.0947 15.586 16.9775 15.5659 16.86 15.5711C16.6167 15.5868 16.3876 15.691 16.216 15.8641C16.041 16.0761 15.956 16.2971 15.957 16.5491C15.9552 16.6662 15.9769 16.7825 16.0208 16.8911C16.0648 16.9997 16.1302 17.0983 16.213 17.1811C16.388 17.3681 16.603 17.4531 16.857 17.4361C17.103 17.4361 17.316 17.3361 17.49 17.1431C17.6615 16.9633 17.7574 16.7246 17.758 16.4761L17.756 16.4771ZM10.769 17.1441C10.9406 16.9684 11.0356 16.7317 11.033 16.4861C11.0348 16.2348 10.9411 15.9921 10.771 15.8071C10.5968 15.6532 10.3703 15.572 10.138 15.5801C9.89905 15.5981 9.67269 15.6944 9.49402 15.8541C9.32242 16.0408 9.22776 16.2855 9.22902 16.5391C9.22902 16.7891 9.31802 17.0041 9.49302 17.1821C9.66302 17.3691 9.87602 17.4531 10.129 17.4371C10.389 17.4291 10.6 17.3371 10.768 17.1441H10.769Z" fill="#323544"/>
</svg>
