<svg width="24" height="24" viewBox="0 0 24 24" fill="none" xmlns="http://www.w3.org/2000/svg">
<path d="M3.92871 14.1221C3.92871 14.529 3.87538 14.8523 3.76953 15.0918C3.66373 15.3312 3.52311 15.5025 3.34766 15.6055C3.17215 15.7085 2.98618 15.7597 2.79004 15.7598C2.63009 15.7598 2.49077 15.7341 2.37207 15.6826C2.2534 15.6311 2.16121 15.5608 2.09668 15.4707C2.03214 15.3806 2 15.2757 2 15.1572C2.00004 15.0389 2.0335 14.9523 2.10059 14.8828C2.16769 14.8134 2.2612 14.7793 2.37988 14.7793L2.44922 14.7832C2.51558 14.7923 2.57067 14.8158 2.61523 14.8525C2.67461 14.9015 2.72795 14.9824 2.77441 15.0957C2.83114 15.1986 2.87794 15.2716 2.91406 15.3154C2.9502 15.3592 2.99427 15.3818 3.0459 15.3818C3.12303 15.3817 3.18107 15.3519 3.21973 15.293C3.25844 15.2337 3.27734 15.1545 3.27734 15.0566C3.27731 14.9538 3.261 14.8549 3.22754 14.7598C3.19398 14.6645 3.15123 14.5543 3.09961 14.4307C3.04806 14.3071 3.0052 14.16 2.97168 13.9902C2.93821 13.8205 2.9219 13.6147 2.92188 13.373V11.1006C2.92186 10.9258 2.9139 10.7959 2.89844 10.7109C2.88297 10.6261 2.84671 10.5761 2.79004 10.5605C2.73325 10.5451 2.63981 10.5574 2.51074 10.5986V10.375L3.92871 9.7793V14.1221Z" fill="#323544"/>
<path d="M12.4941 10.5225C12.5415 10.4503 12.5932 10.3798 12.6494 10.3125C12.7784 10.1581 12.9323 10.0337 13.1104 9.93848C13.2884 9.84325 13.4907 9.79493 13.7178 9.79492C13.9966 9.79492 14.2467 9.87548 14.4688 10.0352C14.6907 10.1948 14.8644 10.4266 14.9883 10.7305C15.1121 11.0343 15.1738 11.4078 15.1738 11.8506C15.1738 12.3656 15.0883 12.7995 14.918 13.1523C14.7476 13.5052 14.5164 13.7772 14.2246 13.9678C13.9331 14.1581 13.5992 14.2528 13.2227 14.2529C13.042 14.2529 12.8816 14.2299 12.7422 14.1836C12.6536 14.1541 12.5713 14.1154 12.4941 14.0693V15.042C12.4942 15.1756 12.5087 15.2719 12.5371 15.3311C12.5654 15.3902 12.6141 15.4279 12.6836 15.4434C12.7533 15.4588 12.8507 15.4668 12.9746 15.4668V15.6904H11.1309V15.4668C11.2496 15.4668 11.3404 15.4442 11.4023 15.4004C11.4641 15.3565 11.4951 15.2372 11.4951 15.042V11.1006C11.4951 10.9257 11.4871 10.7959 11.4717 10.7109C11.4562 10.6259 11.4214 10.576 11.3672 10.5605C11.313 10.5452 11.2216 10.5575 11.0928 10.5986V10.375L12.4941 9.7793V10.5225ZM13.2764 10.4443C13.168 10.4443 13.0636 10.4674 12.9629 10.5137C12.8622 10.56 12.7649 10.6299 12.6719 10.7227C12.6059 10.7886 12.5471 10.8654 12.4941 10.9521V12.8086L12.501 12.9658C12.514 13.1183 12.5465 13.2563 12.5986 13.3799C12.6683 13.5446 12.7675 13.6752 12.8965 13.7705C13.0255 13.8657 13.1729 13.913 13.3379 13.9131C13.4825 13.9131 13.6173 13.8671 13.7412 13.7744C13.8651 13.6817 13.9628 13.5242 14.0352 13.3027C14.1074 13.0813 14.1436 12.7928 14.1436 12.4375C14.1435 12.0152 14.11 11.6555 14.043 11.3594C13.9758 11.0634 13.8807 10.8367 13.7568 10.6797C13.6329 10.5226 13.4726 10.4443 13.2764 10.4443Z" fill="#323544"/>
<path d="M6.02637 9.79492C6.3102 9.79492 6.55924 9.8406 6.77344 9.93066C6.9877 10.0208 7.15602 10.1623 7.27734 10.3555C7.39858 10.5485 7.45893 10.7969 7.45898 11.1006V13.373C7.45904 13.4707 7.47626 13.5439 7.50977 13.5928C7.54327 13.6416 7.59591 13.6659 7.66797 13.666C7.72471 13.666 7.77548 13.6483 7.81934 13.6123C7.86322 13.5762 7.90331 13.5346 7.93945 13.4883L8.07129 13.6357C8.03003 13.718 7.97519 13.8076 7.9082 13.9053C7.8411 14.0031 7.74862 14.0877 7.62988 14.1572C7.51122 14.2267 7.36651 14.2607 7.19629 14.2607C7.02591 14.2607 6.89357 14.2281 6.78516 14.1611C6.67689 14.0943 6.59752 14.0024 6.5459 13.8867C6.50925 13.8045 6.48524 13.716 6.47461 13.6221C6.42777 13.6968 6.3749 13.7747 6.30957 13.8516C6.2089 13.97 6.08465 14.0709 5.9375 14.1533C5.79042 14.2357 5.61095 14.2763 5.39941 14.2764C5.18262 14.2764 4.99268 14.2317 4.83008 14.1416C4.66747 14.0515 4.53621 13.9223 4.43555 13.7549C4.33488 13.5875 4.28419 13.3907 4.28418 13.1641C4.28418 12.9168 4.3256 12.7094 4.4082 12.542C4.49074 12.3748 4.61167 12.2343 4.77148 12.1211C4.93148 12.0078 5.12547 11.9149 5.35254 11.8428C5.49692 11.7913 5.63776 11.7439 5.77441 11.7002C5.91123 11.6564 6.0368 11.6002 6.15039 11.5332C6.28949 11.4561 6.38486 11.3651 6.43652 11.2598C6.48816 11.1542 6.51465 11.021 6.51465 10.8613C6.51463 10.6348 6.46659 10.4595 6.37109 10.3359C6.29937 10.2432 6.20073 10.1852 6.0752 10.1621L5.94141 10.1504C5.79692 10.1504 5.68583 10.1814 5.6084 10.2432C5.53097 10.305 5.47629 10.3926 5.44531 10.5059C5.41433 10.6192 5.38352 10.7457 5.35254 10.8848C5.33704 11.0238 5.29561 11.1357 5.22852 11.2207C5.16144 11.3055 5.04573 11.3486 4.88086 11.3486C4.73119 11.3486 4.61483 11.303 4.53223 11.2129C4.44962 11.1227 4.4082 11.0082 4.4082 10.8691C4.40822 10.6734 4.47516 10.4943 4.60938 10.332C4.74361 10.1698 4.93222 10.0402 5.1748 9.94238C5.41742 9.84453 5.70118 9.79494 6.02637 9.79492ZM6.37891 11.7812C6.34535 11.8224 6.29721 11.8632 6.23535 11.9043C6.17355 11.9403 6.11963 11.9727 6.07324 12.001C6.02679 12.0293 5.9774 12.0563 5.92578 12.082C5.87416 12.1078 5.8072 12.1467 5.72461 12.1982C5.62652 12.2549 5.54103 12.3182 5.46875 12.3877C5.39662 12.4571 5.34408 12.537 5.31055 12.627C5.27703 12.717 5.2598 12.8238 5.25977 12.9473C5.25977 13.1842 5.31708 13.3607 5.43066 13.4766C5.54424 13.5924 5.67814 13.6504 5.83301 13.6504C5.98775 13.6504 6.12432 13.6043 6.22754 13.5117C6.3152 13.433 6.395 13.3389 6.46777 13.2305V11.6807C6.442 11.7064 6.41238 11.7401 6.37891 11.7812Z" fill="#323544"/>
<path d="M17.2969 9.81055C17.6222 9.81055 17.9014 9.88578 18.1338 10.0352C18.3659 10.1845 18.5481 10.4005 18.6797 10.6836C18.8113 10.9668 18.8769 11.3146 18.877 11.7266H16.4199C16.4333 12.0491 16.4781 12.333 16.5576 12.5771C16.6531 12.8706 16.7937 13.0959 16.9795 13.2529C17.1653 13.41 17.3901 13.4883 17.6533 13.4883C17.896 13.4883 18.1004 13.422 18.2656 13.2881C18.4309 13.1542 18.5621 12.9577 18.6602 12.7002L18.9004 12.793C18.8436 13.0608 18.7462 13.3059 18.6094 13.5273C18.4726 13.7487 18.2945 13.9254 18.0752 14.0566C17.856 14.1878 17.5864 14.2529 17.2666 14.2529C16.8742 14.2529 16.5416 14.1584 16.2705 13.9678C15.9997 13.7773 15.792 13.5196 15.6475 13.1953C15.5029 12.8708 15.4307 12.5072 15.4307 12.1055C15.4307 11.781 15.476 11.4793 15.5664 11.2012C15.6567 10.9233 15.7855 10.6801 15.9531 10.4717C16.1209 10.2631 16.3174 10.1003 16.542 9.98438C16.7665 9.86851 17.0182 9.81058 17.2969 9.81055ZM17.1582 10.1504C17.0395 10.1504 16.9231 10.1934 16.8096 10.2783C16.696 10.3633 16.6012 10.5061 16.5264 10.707C16.4625 10.8785 16.4273 11.1025 16.418 11.3789H17.8623C17.8417 10.967 17.7693 10.6595 17.6455 10.4561C17.5217 10.2527 17.3594 10.1506 17.1582 10.1504Z" fill="#323544"/>
<path d="M9.54883 9.83008C9.71383 9.83008 9.85065 9.84784 9.95898 9.88379C10.0674 9.91984 10.1595 9.95613 10.2344 9.99219C10.309 10.0281 10.3669 10.0458 10.4082 10.0459C10.4545 10.0459 10.4895 10.0321 10.5127 10.0039C10.5359 9.97558 10.5505 9.93796 10.5557 9.8916H10.8418V11.0898H10.5244C10.4934 10.9096 10.4344 10.7521 10.3467 10.6182C10.2589 10.4842 10.1452 10.382 10.0059 10.3125C9.90144 10.2604 9.78385 10.2279 9.65332 10.2148L9.51758 10.209C9.3887 10.2091 9.2814 10.2457 9.19629 10.3203C9.11111 10.395 9.06836 10.4999 9.06836 10.6338C9.0684 10.7881 9.11531 10.9153 9.20801 11.0156C9.30094 11.1161 9.44546 11.2289 9.6416 11.3525L10.2461 11.7227C10.4216 11.8257 10.5753 11.9429 10.707 12.0742C10.8386 12.2055 10.9404 12.3499 11.0127 12.5068C11.0849 12.6638 11.121 12.8379 11.1211 13.0283C11.1211 13.2447 11.0638 13.4464 10.9502 13.6318C10.8367 13.8171 10.6731 13.9655 10.459 14.0762C10.2448 14.1869 9.99042 14.2422 9.69629 14.2422C9.50526 14.2422 9.34091 14.2182 9.2041 14.1719C9.06744 14.1256 8.95754 14.0782 8.875 14.0293C8.79256 13.9805 8.73073 13.9561 8.68945 13.9561C8.6275 13.9561 8.58476 13.983 8.56152 14.0371C8.53833 14.0911 8.52374 14.1412 8.51855 14.1875H8.23242V12.7734H8.5498C8.56529 13.0001 8.62564 13.1938 8.73145 13.3535C8.83728 13.5132 8.96949 13.6384 9.12695 13.7285C9.28428 13.8185 9.45596 13.8632 9.6416 13.8633C9.84301 13.8633 9.99669 13.8203 10.1025 13.7354C10.2082 13.6504 10.2617 13.5181 10.2617 13.3379C10.2617 13.2452 10.2432 13.1576 10.207 13.0752C10.171 12.9928 10.1092 12.9091 10.0215 12.8242C9.93375 12.7392 9.81216 12.653 9.65723 12.5654L9.05371 12.1943C8.82666 12.0502 8.64062 11.8802 8.49609 11.6846C8.35153 11.4888 8.2793 11.2465 8.2793 10.958C8.27931 10.7263 8.33435 10.5254 8.44531 10.3555C8.55631 10.1855 8.70741 10.055 8.89844 9.96484C9.08939 9.87476 9.3063 9.83009 9.54883 9.83008Z" fill="#323544"/>
<path d="M20.4199 10.6494C20.4292 10.6314 20.4377 10.6127 20.4473 10.5947C20.5221 10.4531 20.6143 10.3235 20.7227 10.2051C20.8309 10.0867 20.9412 9.98835 21.0547 9.91113C21.1682 9.83389 21.2925 9.79495 21.4268 9.79492C21.6073 9.79492 21.748 9.8478 21.8486 9.95312C21.9492 10.0587 21.9999 10.2097 22 10.4053C22 10.5804 21.9585 10.7189 21.876 10.8193C21.7934 10.9196 21.6796 10.9697 21.5352 10.9697C21.4423 10.9697 21.3673 10.952 21.3105 10.916C21.2538 10.88 21.2053 10.8356 21.1641 10.7842C21.1229 10.7329 21.0812 10.6893 21.04 10.6533C20.9988 10.6173 20.952 10.5987 20.9004 10.5986C20.8385 10.5986 20.7767 10.6324 20.7148 10.6992C20.6529 10.7662 20.5903 10.8551 20.5283 10.9658C20.491 11.0325 20.4553 11.1037 20.4199 11.1787V13.5352C20.4199 13.6739 20.4333 13.7715 20.459 13.8281C20.4848 13.8848 20.5341 13.9197 20.6064 13.9326C20.6787 13.9455 20.7793 13.9521 20.9082 13.9521V14.1836H19.0645V13.9521C19.1676 13.9521 19.2506 13.9317 19.3125 13.8906C19.3744 13.8494 19.4052 13.7307 19.4053 13.5352V11.124C19.4053 10.944 19.4009 10.8102 19.3906 10.7227C19.3803 10.6351 19.3458 10.5828 19.2891 10.5674C19.2322 10.5522 19.142 10.5654 19.0186 10.6064V10.375L20.4199 9.77246V10.6494Z" fill="#323544"/>
<path d="M3.4248 8.24219C3.60022 8.24219 3.73954 8.29894 3.84277 8.41211C3.94597 8.52536 3.99798 8.6644 3.99805 8.8291C3.99805 8.99393 3.94603 9.13241 3.84277 9.24316C3.73955 9.35364 3.60013 9.40918 3.4248 9.40918C3.24943 9.40915 3.10606 9.35376 2.99512 9.24316C2.88412 9.13241 2.8291 8.99393 2.8291 8.8291C2.82917 8.6644 2.88418 8.52536 2.99512 8.41211C3.10608 8.29883 3.24935 8.24222 3.4248 8.24219Z" fill="#323544"/>
</svg>
