<svg width="24" height="24" viewBox="0 0 24 24" fill="none" xmlns="http://www.w3.org/2000/svg">
<path d="M6.13377 2.93755C9.2303 7.28733 14.2248 9.67741 19.1928 8.75401C19.5787 8.6766 19.9569 8.56443 20.3226 8.41887C21.0766 8.12782 22.0644 9.30964 21.492 9.88114C21.1128 10.2586 20.7512 10.6043 20.4266 10.8927C18.1468 12.9149 15.6679 14.7009 13.028 16.2232C10.3731 17.7577 7.56871 19.0175 4.65827 19.983C4.25875 20.1153 3.79396 20.2511 3.29478 20.386C2.51426 20.5959 1.98597 19.1513 2.61568 18.6442C2.94906 18.3743 3.24451 18.1 3.47823 17.8266C6.76172 13.9866 7.05276 8.55204 4.77557 3.72161C4.66237 3.47739 4.55532 3.23037 4.45454 2.98077C4.13881 2.2073 5.06221 1.63844 5.60372 2.27345C5.81804 2.52392 6.00325 2.75411 6.13377 2.93755ZM18.7218 13.4213C16.6722 15.9463 16.2383 18.6636 16.6246 20.991L16.6457 21.1322C16.7489 21.8289 15.9261 22.2584 15.3687 21.8271C15.3414 21.8058 15.3141 21.7847 15.2866 21.7636C13.4169 20.3402 11.212 19.2695 8.27691 19.6064C10.1517 19.0497 11.9535 18.272 13.6445 17.2895C15.5936 16.165 17.3028 14.843 18.7218 13.4213Z" fill="#323544"/>
</svg>
