<svg width="24" height="24" viewBox="0 0 24 24" fill="none" xmlns="http://www.w3.org/2000/svg">
<path d="M6.87796 21.1869C8.03907 21.1869 9.15263 20.7257 9.97365 19.9046C10.7947 19.0836 11.2559 17.9701 11.2559 16.809C11.2559 15.6479 10.7947 14.5343 9.97365 13.7133C9.15263 12.8922 8.03907 12.431 6.87796 12.431C5.71686 12.431 4.6033 12.8922 3.78228 13.7133C2.96125 14.5343 2.5 15.6479 2.5 16.809C2.5 17.9701 2.96125 19.0836 3.78228 19.9046C4.6033 20.7257 5.71686 21.1869 6.87796 21.1869ZM20.4493 2.75644C21.0326 2.75644 21.5 3.22383 21.5 3.80711V12.3588C21.5 17.2322 17.5595 21.2021 12.7441 21.2601V12.373L12.7156 3.79286C12.7156 3.20958 13.182 2.74219 13.7662 2.74219H20.5662L20.4493 2.75644Z" fill="#323544"/>
</svg>
