<svg width="24" height="24" viewBox="0 0 24 24" fill="none" xmlns="http://www.w3.org/2000/svg">
<path d="M17.6122 7.41642C17.7427 7.24898 17.8573 7.09595 17.9783 6.94773C18.0344 6.87802 18.0296 6.82514 17.9751 6.75224C17.4503 6.06241 17.4006 5.29647 17.7027 4.51931C17.9294 3.93444 18.431 3.66043 19.0439 3.60195C19.426 3.56589 19.801 3.60515 20.1487 3.79103C20.6054 4.03539 20.8714 4.40795 20.9579 4.92231C21.0268 5.33252 21.014 5.73312 20.8978 6.13051C20.6919 6.83396 20.1864 7.1985 19.4933 7.29064C18.9181 7.36755 18.3348 7.37717 17.7548 7.41642C17.7099 7.41963 17.6642 7.41642 17.6122 7.41642Z" fill="#323544"/>
<path d="M16.1892 4.26614H12.7233L9.97919 10.5234H6.09981V4.29338H3V20.415H6.10062V13.6233H11.568C12.0298 13.6232 12.482 13.4913 12.8714 13.2429C13.2607 12.9945 13.571 12.64 13.7656 12.2212V20.415H16.8662V13.6233C16.8663 12.84 16.5699 12.0857 16.0366 11.512C15.5034 10.9383 14.7727 10.5877 13.9916 10.5307V10.5226H12.289C12.6993 10.3825 13.0762 10.1594 13.3964 9.86714C13.7166 9.57491 13.9732 9.21986 14.1502 8.82412L16.1892 4.26614Z" fill="#323544"/>
</svg>
