<svg width="24" height="24" viewBox="0 0 24 24" fill="none" xmlns="http://www.w3.org/2000/svg">
<path d="M6.57759 19.7199C5.65091 18.5107 5.65341 16.1674 6.51009 13.504L2.71255 11.3123C2.51571 11.2016 2.34853 11.045 2.2252 10.8558C2.10188 10.6666 2.02607 10.4504 2.00421 10.2257C1.98979 10.0501 2.01251 9.87351 2.07088 9.70733C2.29918 9.05514 2.58852 8.42596 2.93505 7.82814C5.83175 2.81143 12.0318 0.969745 16.7843 3.7131C17.1677 3.93477 17.4677 4.27144 17.6852 4.69978C18.3394 5.98729 18.256 8.11315 17.4902 10.4948L21.2877 12.6874C21.5702 12.8507 21.7844 13.0974 21.9011 13.3807C22.0224 13.6705 22.0325 13.9948 21.9294 14.2915C21.7012 14.9438 21.4119 15.573 21.0652 16.1707C18.1685 21.1874 11.9685 23.0291 7.21593 20.2858C6.96768 20.1411 6.75069 19.9493 6.57759 19.7199ZM15.8243 14.2074L15.831 14.1957C15.9393 14.0074 16.0402 13.8182 16.1327 13.6265C17.1385 11.544 17.1919 9.34149 16.3702 7.86481C16.0702 7.3273 15.656 6.88647 15.1285 6.58146C13.016 5.36229 9.90345 6.7998 8.17593 9.79149L8.16927 9.80316C7.84843 10.3607 7.59843 10.9323 7.41759 11.5023C7.11426 12.4582 7.00509 13.4065 7.08426 14.269C7.21009 15.649 7.81593 16.8082 8.87178 17.4174C10.9843 18.6374 14.0968 17.1999 15.8243 14.2074Z" fill="#323544"/>
</svg>
