<svg width="24" height="24" viewBox="0 0 24 24" fill="none" xmlns="http://www.w3.org/2000/svg">
<path d="M6.6925 3.94922C6.71005 3.95525 6.72911 3.95525 6.74667 3.94922H7.46917C7.485 3.95589 7.4925 3.95589 7.49417 3.94922H7.515L8.17667 4.04505C8.18 4.04505 8.1825 4.04672 8.18417 4.04922C8.18627 4.05149 8.18746 4.05446 8.1875 4.05755V5.18505L8.18572 5.19002L8.18167 5.19339L8.1775 5.19505C7.77334 5.19247 7.36916 5.19275 6.965 5.19589C6.67933 5.19651 6.39644 5.25196 6.13167 5.35922C5.92795 5.43668 5.74623 5.56273 5.6023 5.72641C5.45838 5.89008 5.35661 6.08643 5.30583 6.29838C5.2525 6.49838 5.225 6.67422 5.225 6.82755L5.22333 9.60672C5.2225 9.87755 5.19167 10.1367 5.13167 10.3826C4.95833 11.0867 4.52333 11.5376 3.82667 11.7351L3.8225 11.7384L3.8205 11.7438L3.8225 11.7492L3.82667 11.7526C4.59583 11.9592 5.03833 12.5176 5.16667 13.2901C5.20417 13.5167 5.22333 13.6876 5.22333 13.8042L5.225 17.0834C5.225 17.3534 5.2675 17.6017 5.35333 17.8301C5.61583 18.5251 6.30333 18.7901 6.995 18.7976C7.39055 18.7991 7.78611 18.7997 8.18167 18.7992L8.186 18.8024L8.1875 18.8076V19.9359C8.18753 19.9383 8.18671 19.9406 8.18518 19.9424C8.18365 19.9443 8.18152 19.9455 8.17917 19.9459C7.76 20.0042 7.3375 20.0392 6.91333 20.0509H6.70083C5.995 20.0201 5.3075 19.8467 4.75667 19.4192C4.03833 18.8609 3.76583 17.9892 3.76083 17.1059C3.75917 16.8659 3.75917 15.8267 3.75917 13.9876C3.75917 13.4892 3.70083 12.9409 3.26333 12.6301C2.9975 12.4417 2.64833 12.3551 2.32833 12.3567C2.21886 12.3584 2.10937 12.3568 2 12.3517V11.1559C2.4475 11.1576 2.85833 11.1476 3.24167 10.8942C3.53583 10.7001 3.69333 10.3326 3.73917 9.97505C3.75333 9.86672 3.76 9.71005 3.76 9.50672C3.75833 8.06255 3.75917 7.19172 3.76083 6.89422C3.765 6.31755 3.88167 5.72672 4.17333 5.24089C4.62333 4.49172 5.42 4.08672 6.28667 3.98755C6.415 3.97339 6.54417 3.96005 6.67417 3.94922H6.6925ZM16.505 3.94922C16.5217 3.95589 16.53 3.95589 16.5267 3.94922H17.2783C17.8 3.98005 18.2883 4.06089 18.7558 4.28255C19.1808 4.48422 19.5158 4.77005 19.7592 5.14089C20.0858 5.63839 20.2358 6.25922 20.2367 6.85589L20.2383 9.65172C20.2383 10.3351 20.4925 10.9226 21.2092 11.0934C21.4675 11.1542 21.7042 11.1559 21.99 11.1534C21.9925 11.1534 21.995 11.1551 21.9967 11.1567L21.9991 11.1601L22 11.1642V12.3392C21.9998 12.3442 21.9977 12.3488 21.9941 12.3522C21.9905 12.3557 21.9858 12.3576 21.9808 12.3576C21.5683 12.3526 21.1425 12.3584 20.7842 12.5967C20.3533 12.8826 20.2383 13.3884 20.2375 13.8859C20.2362 14.8681 20.2362 15.8503 20.2375 16.8326C20.2392 17.3575 20.2133 17.7534 20.0733 18.2034C19.9108 18.7284 19.6075 19.1534 19.1642 19.4776C18.6308 19.8667 17.96 20.0209 17.2925 20.0509H17.2842C17.2675 20.0442 17.26 20.0442 17.2617 20.0509H17.085C16.6611 20.0396 16.2383 20.0045 15.8183 19.9459C15.8158 19.9456 15.8134 19.9444 15.8117 19.9425C15.81 19.9407 15.8092 19.9383 15.8092 19.9359V18.8034L15.8115 18.8002L15.815 18.7984H15.8183C16.2164 18.8001 16.6145 18.7996 17.0125 18.7967C17.312 18.7977 17.6086 18.7376 17.8842 18.6201C18.5 18.3501 18.7658 17.7717 18.77 17.1209C18.7725 16.7126 18.7733 15.6101 18.7733 13.8142C18.7787 13.5973 18.8058 13.3815 18.8542 13.1701C19.0042 12.4501 19.4533 11.9434 20.1708 11.7534L20.1746 11.7505L20.1758 11.7459L20.175 11.7417L20.1708 11.7384C19.5542 11.5576 19.1133 11.1717 18.9142 10.5517C18.8238 10.2654 18.7772 9.967 18.7758 9.66672C18.7725 9.40755 18.7708 8.47088 18.7717 6.85672C18.7717 6.60422 18.725 6.35839 18.6325 6.11839C18.3683 5.43339 17.6467 5.19422 16.9608 5.19339H15.8267C15.8243 5.19347 15.822 5.19306 15.8199 5.1922C15.8177 5.19134 15.8158 5.19004 15.8142 5.18839C15.8125 5.18673 15.8113 5.18478 15.8104 5.18264C15.8096 5.18049 15.8091 5.1782 15.8092 5.17589V4.06672C15.8091 4.06226 15.8107 4.05794 15.8136 4.05456C15.8165 4.05119 15.8206 4.04899 15.825 4.04839L16.48 3.94922H16.505Z" fill="#323544"/>
<path d="M12.9733 11.9559L15.1692 15.2017L15.1713 15.2067L15.1702 15.2121L15.1662 15.2159L15.1608 15.2167H13.4583C13.4583 15.2167 13.455 15.2167 13.4533 15.2151L13.45 15.2126L11.7792 12.7426L11.775 12.7392L11.7708 12.7384H10.2467L10.2431 12.739L10.24 12.7409L10.2381 12.744L10.2375 12.7476V15.2067C10.2373 15.2093 10.2361 15.2117 10.2342 15.2134C10.2325 15.2153 10.2301 15.2165 10.2275 15.2167H8.80417C8.8016 15.2165 8.79921 15.2153 8.7975 15.2134C8.79588 15.2115 8.79499 15.2092 8.795 15.2067V8.79339L8.79544 8.78962L8.79737 8.78636L8.80046 8.78415L8.80417 8.78338H10.2275L10.2315 8.78388L10.2349 8.78603L10.237 8.78941L10.2375 8.79339V11.3267C10.2375 11.3301 10.2375 11.3317 10.24 11.3334L10.243 11.3358L10.2467 11.3367H11.7608L11.7655 11.3357L11.7692 11.3326L13.4742 8.78755L13.4778 8.78433L13.4825 8.78338H15.185C15.1875 8.78338 15.19 8.78505 15.19 8.78505L15.1932 8.78865L15.1942 8.79339L15.1933 8.79838L12.9733 11.9451C12.9722 11.9468 12.9716 11.9488 12.9717 11.9509L12.9733 11.9559Z" fill="#323544"/>
</svg>
