<svg width="24" height="24" viewBox="0 0 24 24" fill="none" xmlns="http://www.w3.org/2000/svg">
<path d="M11.0098 3.01312C12.6633 2.97467 14.5018 3.00821 16.1644 3.28476C18.1665 3.61776 19.829 5.09214 20.4836 6.9936C20.6407 7.45179 20.7601 8.09243 20.8436 8.91307C21.0768 11.2408 21.0628 13.7011 20.7094 16.1164C20.3625 18.4793 18.3776 20.3816 16.0375 20.7392C15.3912 20.8373 14.492 20.9249 13.3424 21.0002H10.7651C9.54603 20.9388 8.55848 20.8447 7.80247 20.7163C6.84847 20.5543 5.97464 20.1329 5.18018 19.4505C4.12636 18.5456 3.49226 17.4026 3.27953 16.0239C3.19427 15.4397 3.12877 14.8527 3.08317 14.264C2.98171 13.0326 2.98417 11.5624 3.03162 10.4676C3.06762 9.62244 3.15108 8.77153 3.2828 7.91407C3.58226 5.96432 4.91591 4.32795 6.76828 3.5834C7.29765 3.37067 7.9972 3.22339 8.86448 3.14485C9.57758 3.07636 10.2936 3.03242 11.0098 3.01312ZM10.6612 5.05614C9.84058 4.82704 9.05348 4.73704 8.33511 4.79432C7.9736 4.82027 7.6165 4.88949 7.27147 5.0005C6.07283 5.39323 5.253 6.28505 4.93882 7.53606C4.76454 8.22743 4.75063 9.01207 4.89545 9.85235C5.037 10.6722 5.32827 11.5321 5.75619 12.3896C6.64965 14.183 8.09129 15.875 9.79967 17.1375C10.5606 17.6996 11.3567 18.1635 12.1561 18.5096C13.0757 18.9072 13.9831 19.1429 14.8299 19.2051C15.5237 19.2541 16.1676 19.1862 16.7379 19.0021C17.5872 18.7281 18.2532 18.2028 18.6819 17.4689C19.0076 16.9125 19.1917 16.2465 19.2244 15.5011L19.2277 15.4185C19.2313 15.2961 19.2313 15.1735 19.2277 15.0511L19.2219 14.9456C19.1851 14.2264 19.0198 13.4597 18.7318 12.6751C18.4057 11.8019 17.9741 10.9718 17.4465 10.2034C16.3801 8.64142 15.0058 7.31388 13.4079 6.30224C12.5013 5.7336 11.5686 5.31059 10.6612 5.05614Z" fill="#323544"/>
</svg>
