<svg width="24" height="24" viewBox="0 0 24 24" fill="none" xmlns="http://www.w3.org/2000/svg">
<path d="M8.1322 2.01411C9.76213 1.89995 11.1987 3.03407 11.4087 4.59983C11.6087 6.08644 10.5904 7.52471 9.06049 7.8622C8.67717 7.94719 8.25219 7.92303 7.84554 7.97469C6.88504 8.08777 5.99135 8.52346 5.31065 9.21047L5.30231 9.21464L5.29398 9.21381L5.28815 9.20881L5.28565 9.20048C5.28558 9.19544 5.28703 9.1905 5.28982 9.18631C5.29411 9.1802 5.29643 9.17294 5.29648 9.16548C5.28619 7.76889 5.28314 6.37227 5.28732 4.97565C5.28982 3.42572 6.51393 2.1291 8.1322 2.01411Z" fill="#323544"/>
<path d="M8.30386 14.9677C6.23061 14.9511 4.74484 12.9095 5.46647 11.0004C5.66862 10.4723 6.01342 10.0107 6.46246 9.667C6.91149 9.3233 7.44713 9.11103 8.0097 9.05381C8.36385 9.01632 8.78967 9.02548 9.13049 8.96299C10.8837 8.638 12.2387 7.29639 12.512 5.58896C12.5728 5.21064 12.5403 4.75899 12.6303 4.35734C13.0445 2.49742 15.1761 1.45413 16.966 2.2941C17.8985 2.73324 18.5243 3.56238 18.6793 4.55234C18.7101 4.75483 18.7209 5.00648 18.7101 5.30647C18.5076 10.6962 13.9036 15.0119 8.30386 14.9661M10.9162 15.8244C10.9075 15.821 10.9003 15.8145 10.8962 15.806V15.8002L10.8979 15.7952C10.8979 15.7927 10.8979 15.7919 10.9004 15.791L10.9054 15.7885C13.0328 15.3011 14.8752 14.3219 16.4344 12.8503C16.4619 12.8245 16.4877 12.8262 16.511 12.8562C16.7602 13.1861 17.0218 13.5395 17.2302 13.8769C18.0804 15.238 18.5827 16.7874 18.6926 18.3884C18.7151 18.7142 18.7226 18.9659 18.7143 19.1442C18.6368 20.7175 17.321 21.9858 15.6602 21.9949C14.1911 22.0041 12.8995 21.0017 12.6212 19.5992C12.5545 19.2667 12.5745 18.8076 12.5195 18.4568C12.3462 17.3776 11.8187 16.5035 10.9371 15.8369L10.9162 15.8244ZM7.80804 21.9508C6.55976 21.7341 5.55564 20.7642 5.33148 19.5584C5.29561 19.3087 5.28028 19.0565 5.28565 18.8042V14.8161C5.28565 14.8027 5.28981 14.8011 5.29981 14.8094C6.11561 15.5344 6.97391 15.9777 8.09386 16.051L8.39385 16.0602C9.85296 16.1077 11.0887 17.0635 11.3737 18.4518C11.7954 20.505 9.93712 22.3224 7.80721 21.9516L7.80804 21.9508Z" fill="#323544"/>
</svg>
