<svg width="24" height="24" viewBox="0 0 24 24" fill="none" xmlns="http://www.w3.org/2000/svg">
<path d="M7.3173 13.0776C9.05696 13.089 10.076 13.2172 10.8405 13.5612C11.2478 13.7437 11.6306 13.9767 11.9798 14.2546L12.3528 14.5706C13.2323 15.2895 14.2856 15.6906 15.4425 15.4721C15.6268 15.437 15.8058 15.3904 15.9805 15.3316C16.7092 15.2322 17.4505 15.2808 18.1599 15.4747L18.4382 15.5572C18.892 15.7038 19.2966 15.8986 19.6635 16.1286L19.8689 16.2647L19.7328 16.4288C18.8446 17.4443 17.6166 18.0807 16.2833 18.1843L16.1359 18.193C14.8895 18.2562 13.7862 17.8911 12.7759 17.2029L12.7935 17.188L12.5231 16.9923C12.4166 16.9149 12.3121 16.8347 12.2098 16.7518L12.0421 16.6122L11.7411 16.456C10.6527 15.9092 9.72229 15.6283 9.01571 15.4466L8.31879 15.2763L8.12306 15.2254L8.10726 15.2675L8.1213 15.2245L8.11253 15.2219L8.09848 15.2684L8.10989 15.2219C7.88179 15.1576 7.66136 15.0688 7.45247 14.9568L7.22251 14.8304L6.99342 14.6874C6.78268 14.5521 6.5978 14.3803 6.44747 14.18L6.35092 14.0282L6.26578 13.8632C6.1687 13.6582 6.10556 13.4389 6.07882 13.2137L6.07092 13.1259L6.26402 13.1075L6.42816 13.0952C6.56508 13.0864 6.70289 13.0811 6.85825 13.0785L7.3173 13.0776ZM2.54419 14.1923C2.61441 14.4793 2.69516 14.7479 2.78118 14.9955L2.86018 15.2149C3.005 15.5993 3.18757 15.9662 3.40437 16.3103L2.06144 17.1942C2.03511 17.2135 2 17.1942 2 17.1529V14.4609L2.00351 14.4407L2.01668 14.4214L2.54332 14.1932L2.54419 14.1923ZM21.038 10.6709L21.0819 10.842L21.1161 10.9947L21.1293 11.0895C21.1521 11.3204 21.1662 11.5547 21.1705 11.7944L21.1688 12.1446C21.16 12.4922 21.1293 12.8345 21.0784 13.1698L21.0257 13.4717C20.2085 13.0259 19.3242 12.7161 18.4074 12.5545L18.4338 12.4404C18.475 12.2297 18.4987 12.0138 18.504 11.7961C18.5089 11.6735 18.503 11.5508 18.4864 11.4292L18.4812 11.4003C19.2521 11.2834 20.0067 11.0772 20.7299 10.7858L21.0371 10.6717L21.038 10.6709ZM12.1132 6.75618C13.1402 5.94252 14.4989 5.38868 16.1376 5.53526C16.9595 5.60812 17.7544 5.8649 18.4636 6.2866L18.6567 6.40948C18.9762 6.62364 19.2799 6.8975 19.5704 7.22226L19.7311 7.41624L19.5266 7.49962L19.3405 7.6067C19.1544 7.70919 18.9628 7.8012 18.7664 7.88231C18.6374 7.93059 18.5031 7.97711 18.3627 8.02012C17.5741 8.26666 16.7401 8.33266 15.9226 8.21322C15.0966 8.00432 14.204 8.13861 13.4193 8.5608C13.0629 8.74512 12.7303 8.98825 12.4354 9.28229L12.1439 9.5895L11.9842 9.74749L11.6472 10.0556C11.3615 10.2856 11.0519 10.4842 10.7238 10.648C9.99702 11.0079 8.9806 11.1018 7.19793 11.0255L6.63969 10.9974L6.42201 10.9825L6.336 10.9737L6.4343 10.7718C6.55367 10.5489 6.70464 10.3312 6.89248 10.1223C7.11981 9.8695 7.36382 9.67113 7.61836 9.51665L7.78513 9.428L7.89748 9.37182L8.00105 9.3253L8.1845 9.25333C8.66419 9.06393 9.12971 8.84042 9.57746 8.5845C10.5474 8.04733 11.4207 7.39956 11.9921 6.85537L12.1132 6.75618ZM2.04301 7.01072L2.0632 7.0195L2.30018 7.2205C2.54332 7.41887 2.80312 7.60846 3.08137 7.78401L3.39033 7.97009L3.26306 8.1588C3.1156 8.38964 2.9813 8.64067 2.86369 8.91365L2.76714 9.15239C2.70857 9.3079 2.65732 9.46606 2.61353 9.62637L2.56438 9.8221L2.01317 9.28493C2.00468 9.27555 1.99998 9.26335 2 9.2507V7.05812C2 7.02652 2.02194 7.00809 2.04389 7.00985L2.04301 7.01072Z" fill="#323544"/>
<path d="M8.15466 5.90303C9.15231 5.90564 10.1307 6.17799 10.9862 6.69123L11.1925 6.81938L11.0178 6.96245C10.3001 7.53603 9.5233 8.03152 8.70061 8.44055L8.58562 8.49409L8.31704 8.61346L8.04845 8.72318C7.85164 8.7937 7.66085 8.88 7.47793 8.98123L7.36645 9.0418C6.83013 9.34619 6.37731 9.77837 6.04825 10.2999C5.71918 10.8215 5.52405 11.4162 5.48021 12.0314L5.47143 12.2157V12.4413L5.49513 12.9161C5.49513 13.1601 5.53112 13.613 5.77513 14.1028L5.85412 14.2503C5.9261 14.3731 6.00334 14.4837 6.08145 14.5812C6.25349 14.8067 6.45273 14.9902 6.6669 15.1394L6.8837 15.2798C7.24269 15.508 7.68419 15.7143 8.13008 15.8284L8.80155 15.9899C9.107 16.0645 9.36944 16.1347 9.64241 16.2181C10.3639 16.4384 11.0643 16.7237 11.7946 17.1143L11.9368 17.2337L11.7999 17.339C11.2057 17.7805 9.80128 18.6337 7.9045 18.4642C7.08113 18.3903 6.28496 18.132 5.575 17.7085C5.01231 17.3736 4.51965 16.9331 4.12411 16.4112L4.00913 16.2339C3.51804 15.4847 3.18254 14.6445 3.02256 13.7631L2.96112 13.4322L2.93391 13.4454C2.79356 12.6025 2.78467 11.7429 2.90757 10.8973L2.92952 10.9201L3.01378 10.3092C3.04011 10.189 3.0682 10.0723 3.09804 9.95815L3.16475 9.72116C3.33357 9.15019 3.59447 8.6106 3.93715 8.12369L4.18819 7.79366C5.06767 6.72809 6.336 6.02766 7.74914 5.92058L7.89573 5.91093L8.15553 5.9039L8.15466 5.90303ZM15.0449 12.9512C15.6435 12.9126 16.3141 12.9258 17.0417 12.9617L17.4103 12.9811C17.6247 12.993 17.8385 13.0138 18.0511 13.0434C18.9731 13.2314 19.8681 13.533 20.7159 13.9413L21.1056 14.1362C21.3724 14.2977 21.5971 14.4539 21.7762 14.5882L21.9842 14.7497L21.9956 14.7637L22 14.783V16.9695L21.9974 16.9844L21.9939 16.9932C21.9893 17.0001 21.9829 17.0055 21.9754 17.009L21.9517 17.0134L21.9429 17.0107L21.9298 17.0019L21.7999 16.8905C21.4093 16.5629 20.9888 16.2728 20.5438 16.0242L20.3367 15.9136L20.2454 15.846C19.6438 15.4142 18.9691 15.0948 18.2538 14.9033L18.0344 14.8489C17.345 14.6926 16.6337 14.6576 15.9322 14.7453L15.7944 14.7637L15.6189 14.8181L15.4627 14.8576L15.302 14.8928C14.1838 15.1017 13.2411 14.5741 12.6794 14.13L12.4178 13.9123L12.6074 13.7675C12.8338 13.6034 13.0717 13.4577 13.321 13.333C13.7651 13.1118 14.3444 12.996 15.0449 12.9512ZM21.9315 6.80358C21.9362 6.80001 21.9416 6.79746 21.9473 6.79609C21.9531 6.79472 21.959 6.79457 21.9648 6.79565C21.9706 6.79672 21.9761 6.799 21.9809 6.80233C21.9858 6.80566 21.9899 6.80998 21.993 6.81499L22 6.83869V9.52192L21.9947 9.54298L21.9798 9.55878C21.4609 9.87666 20.9131 10.1447 20.3437 10.3593C20.1138 10.4383 19.9233 10.4971 19.7003 10.555C19.2492 10.6735 18.7717 10.7815 18.3609 10.8596L18.0827 10.9096C17.8325 10.9395 17.5736 10.9588 17.3059 10.9675L17.0092 10.9728C15.4363 10.9746 14.2452 10.9 13.371 10.5673L13.1884 10.4927C12.9687 10.3948 12.7558 10.2822 12.5512 10.1556L12.4283 10.0766C12.5354 9.97307 12.6407 9.86511 12.7443 9.75188L12.8821 9.60881C13.0234 9.47101 13.1744 9.34549 13.3315 9.23577C14.0714 8.73898 14.9562 8.55992 15.7699 8.76619L16.0437 8.8013C16.7828 8.8766 17.5293 8.81652 18.2468 8.624L18.4715 8.55904C18.6427 8.50638 18.8051 8.44669 18.9595 8.3835L19.387 8.20005C19.5862 8.10964 19.7706 8.01397 19.94 7.91391L20.0163 7.88319C20.6943 7.59863 21.3371 7.23633 21.9315 6.80358Z" fill="#323544"/>
</svg>
