<svg width="24" height="24" viewBox="0 0 24 24" fill="none" xmlns="http://www.w3.org/2000/svg">
<path d="M7.0825 7H16.9167C19.72 7 22 9.24333 22 12C22 14.7567 19.72 17 16.9175 17H7.08333C4.28 17 2 14.7567 2 12C2 9.24333 4.28 7 7.0825 7ZM11.5983 14.75C11.7217 14.8783 11.9042 14.8717 12.0658 14.8383L12.0675 14.8392C12.1425 14.7792 12.0358 14.7033 11.9342 14.6308C11.8725 14.5875 11.8133 14.5458 11.7958 14.5083C11.8525 14.4417 11.685 14.2875 11.555 14.1683C11.5105 14.1302 11.4688 14.089 11.43 14.045C11.3383 13.9458 11.3008 13.8217 11.2633 13.6967C11.2383 13.6133 11.2133 13.53 11.1717 13.4533C10.9183 12.875 10.6275 12.3008 10.2192 11.8117C9.95667 11.4867 9.6575 11.195 9.35833 10.9033C9.16386 10.717 8.97408 10.5258 8.78917 10.33C8.60083 10.1392 8.4875 9.90417 8.37333 9.66833C8.27833 9.47167 8.18333 9.27417 8.04333 9.10167C7.62083 8.48917 6.2875 8.32167 6.09167 9.18833C6.09167 9.215 6.08333 9.23167 6.05917 9.24917C5.95083 9.3275 5.855 9.41583 5.77417 9.52167C5.57583 9.79333 5.54583 10.2525 5.7925 10.4967L5.79333 10.4808C5.80167 10.3583 5.81 10.2425 5.90917 10.155C6.09917 10.3158 6.38917 10.3733 6.61 10.2525C6.87667 10.6275 6.96167 11.0817 7.0475 11.5358C7.11833 11.9158 7.18917 12.2958 7.36583 12.6325L7.3775 12.6508C7.48083 12.82 7.58583 12.9925 7.71917 13.14C7.76833 13.2142 7.8675 13.2933 7.96667 13.3725C8.0975 13.4767 8.22833 13.5808 8.24083 13.6717V13.7908C8.24 14.0283 8.23917 14.2742 8.39417 14.4683C8.48 14.6392 8.26917 14.81 8.10083 14.7892C8.0075 14.8017 7.90667 14.7775 7.80583 14.7542C7.66833 14.7208 7.53167 14.6892 7.42083 14.7517C7.38917 14.785 7.345 14.785 7.3 14.7867C7.24667 14.7883 7.1925 14.79 7.16083 14.845C7.15417 14.8608 7.13917 14.8783 7.12333 14.8975C7.08833 14.9392 7.05083 14.985 7.09583 15.0192L7.10833 15.0108C7.17667 14.9592 7.24167 14.9108 7.33333 14.9408C7.32167 15.0075 7.36583 15.0258 7.41 15.0433L7.4325 15.0533C7.43156 15.069 7.42933 15.0847 7.42583 15.1C7.41833 15.1375 7.41167 15.1733 7.44083 15.2058C7.45449 15.1916 7.46729 15.1766 7.47917 15.1608C7.51 15.1225 7.54 15.0842 7.595 15.0692C7.715 15.2275 7.83583 15.1617 7.9875 15.08C8.15917 14.9875 8.37 14.8733 8.6625 15.0342C8.55 15.0292 8.45 15.0425 8.375 15.1342C8.35583 15.1542 8.34 15.1775 8.37333 15.2042C8.54583 15.0942 8.61833 15.1333 8.68583 15.1708C8.73583 15.1975 8.78167 15.2233 8.8625 15.1908L8.92083 15.1608C9.05 15.0917 9.1825 15.0225 9.33667 15.0467C9.22083 15.0792 9.18 15.1508 9.135 15.2283C9.11333 15.2675 9.09 15.3075 9.05667 15.345C9.03917 15.3625 9.03167 15.3833 9.05083 15.4117C9.2925 15.3925 9.38417 15.3325 9.5075 15.2517C9.56583 15.2133 9.6325 15.1692 9.725 15.1233C9.82833 15.0608 9.93167 15.1008 10.0317 15.14C10.14 15.1817 10.2442 15.2217 10.3408 15.1283C10.3717 15.1008 10.41 15.1 10.4483 15.1C10.4617 15.1 10.4758 15.1 10.49 15.0983C10.4592 14.94 10.29 14.9417 10.1167 14.9433C9.91667 14.9458 9.71417 14.9483 9.72083 14.7025C9.90583 14.5783 9.9075 14.3633 9.90917 14.16C9.90917 14.11 9.90917 14.0625 9.91333 14.0158C10.0492 14.0908 10.1933 14.1492 10.3367 14.2067C10.4717 14.2608 10.6058 14.315 10.7317 14.3817C10.8633 14.59 11.0683 14.865 11.3417 14.8467C11.3483 14.825 11.355 14.8075 11.3633 14.7858C11.3792 14.7892 11.3958 14.7925 11.4125 14.7975C11.4842 14.8142 11.5608 14.8333 11.5983 14.75ZM16.9558 12.3925C17.1142 12.5475 17.3283 12.6342 17.5525 12.6342C17.7767 12.6342 17.9908 12.5475 18.1492 12.3925C18.2272 12.3167 18.2893 12.226 18.3318 12.1258C18.3743 12.0256 18.3964 11.918 18.3967 11.8092C18.3964 11.7003 18.3743 11.5927 18.3318 11.4925C18.2893 11.3923 18.2272 11.3017 18.1492 11.2258C18.0326 11.1121 17.8859 11.034 17.7264 11.001C17.567 10.9679 17.4014 10.9811 17.2492 11.0392L16.7658 10.3467L16.4283 10.5733L16.9142 11.2692C16.7756 11.426 16.7026 11.63 16.7103 11.8392C16.7181 12.0483 16.806 12.2464 16.9558 12.3925ZM15.4417 10.1508C15.5817 10.2187 15.7376 10.2471 15.8926 10.2332C16.0476 10.2192 16.1959 10.1634 16.3217 10.0717C16.4653 9.96705 16.5714 9.81888 16.6242 9.64917C16.6764 9.48013 16.6717 9.29862 16.6108 9.1325C16.549 8.96554 16.4351 8.82294 16.2858 8.72583C16.1199 8.617 15.9214 8.56914 15.7241 8.59042C15.5268 8.6117 15.3431 8.7008 15.2042 8.8425C15.114 8.9357 15.0471 9.04891 15.009 9.17288C14.9709 9.29685 14.9627 9.42807 14.985 9.55583C15.0085 9.68321 15.0619 9.80317 15.1408 9.90583C15.22 10.01 15.3233 10.0933 15.4417 10.1508ZM15.4417 14.9442C15.5818 15.0118 15.7376 15.0402 15.8926 15.0262C16.0476 15.0123 16.1959 14.9566 16.3217 14.865C16.4653 14.7604 16.5714 14.6122 16.6242 14.4425C16.6764 14.2735 16.6717 14.092 16.6108 13.9258C16.549 13.7589 16.4351 13.6163 16.2858 13.5192C16.12 13.4102 15.9214 13.3622 15.7241 13.3835C15.5268 13.4048 15.343 13.494 15.2042 13.6358C15.1139 13.729 15.047 13.8422 15.0089 13.9662C14.9708 14.0902 14.9626 14.2214 14.985 14.3492C15.0085 14.4765 15.0619 14.5965 15.1408 14.6992C15.22 14.8033 15.3233 14.8867 15.4417 14.9442ZM16.2167 12.0142V11.6042H14.925C14.8923 11.4792 14.8303 11.3638 14.7442 11.2675L15.2308 10.5617L14.8767 10.3317L14.3908 11.0375C14.2419 10.9856 14.0815 10.9761 13.9275 11.0099C13.7734 11.0437 13.6318 11.1196 13.5183 11.2292C13.4406 11.3045 13.3787 11.3946 13.3363 11.4942C13.294 11.5938 13.272 11.7009 13.2717 11.8092C13.2717 12.0267 13.3608 12.2358 13.5183 12.3892C13.6318 12.4987 13.7734 12.5746 13.9275 12.6084C14.0815 12.6423 14.2419 12.6327 14.3908 12.5808L14.8767 13.2867L15.2267 13.0567L14.7442 12.3508C14.8303 12.2545 14.8923 12.1391 14.925 12.0142H16.2167Z" fill="#323544"/>
</svg>
