<svg width="24" height="24" viewBox="0 0 24 24" fill="none" xmlns="http://www.w3.org/2000/svg">
<path d="M13.7417 14.6725C13.6858 14.7642 13.5183 14.7692 13.375 14.685C13.3066 14.6467 13.2514 14.5886 13.2167 14.5183C13.19 14.4592 13.1892 14.4033 13.215 14.3608C13.2442 14.3133 13.305 14.2892 13.3767 14.2892C13.4408 14.2892 13.5142 14.3083 13.5817 14.3483C13.7233 14.4325 13.7975 14.5817 13.7417 14.6725ZM22 12C22 14.7567 19.72 17 16.9175 17H7.08333C4.28 17 2 14.7575 2 12C2 9.2425 4.28 7 7.0825 7H16.9167C19.72 7 22 9.24333 22 12ZM11.795 14.5083C11.875 14.4117 11.505 14.1425 11.4292 14.0442C11.2758 13.88 11.275 13.6442 11.1708 13.4525C10.9175 12.8742 10.6258 12.3 10.2183 11.8108C9.78667 11.275 9.255 10.8317 8.78833 10.3292C8.44083 9.97833 8.34833 9.47917 8.0425 9.10083C7.62 8.48833 6.28583 8.32083 6.09 9.18667C6.09083 9.21417 6.0825 9.23083 6.05833 9.24833C5.95 9.32583 5.85417 9.41417 5.77333 9.52083C5.575 9.79167 5.545 10.2517 5.79167 10.4958C5.8 10.3675 5.80417 10.2458 5.90833 10.1542C6.09917 10.3158 6.3875 10.3725 6.60833 10.2517C7.09833 10.9392 6.97667 11.8908 7.365 12.6317C7.47333 12.8067 7.58083 12.9858 7.71833 13.1392C7.83083 13.31 8.21667 13.5125 8.23917 13.6708C8.24333 13.9425 8.21083 14.24 8.3925 14.4675C8.4775 14.6383 8.2675 14.8092 8.09917 14.7883C7.87917 14.8175 7.61167 14.6425 7.41917 14.75C7.35083 14.8225 7.21833 14.7425 7.15917 14.8433C7.13917 14.895 7.02917 14.9683 7.095 15.0183C7.1675 14.9642 7.235 14.9075 7.33333 14.9392C7.31833 15.0183 7.38167 15.0292 7.43167 15.0517C7.43 15.105 7.39833 15.16 7.44 15.205C7.48833 15.1567 7.51667 15.0883 7.59417 15.0692C7.84917 15.4033 8.10917 14.73 8.66083 15.0333C8.54917 15.0283 8.45 15.0417 8.37417 15.1325C8.355 15.1525 8.33917 15.1767 8.3725 15.2033C8.67083 15.0142 8.66917 15.2683 8.8625 15.19C9.01083 15.1133 9.15917 15.0183 9.33583 15.045C9.16417 15.0942 9.1575 15.23 9.05667 15.345C9.04 15.3617 9.03167 15.3825 9.05083 15.4117C9.40833 15.3817 9.4375 15.265 9.72583 15.1217C9.94083 14.9925 10.155 15.3058 10.3408 15.1275C10.3825 15.0892 10.4383 15.1025 10.4892 15.0967C10.4242 14.755 9.70917 15.1592 9.72 14.7017C9.95 14.5475 9.8975 14.2525 9.91333 14.015C10.1775 14.1592 10.4717 14.2433 10.7317 14.3817C10.8625 14.5892 11.0675 14.8642 11.3417 14.8458L11.3625 14.7858C11.4458 14.8 11.5525 14.8533 11.5983 14.75C11.7217 14.8783 11.9042 14.8717 12.0658 14.8392C12.1858 14.7425 11.8408 14.6058 11.7942 14.5075L11.795 14.5083ZM15.505 12.895L14.9608 12.1725C14.4858 12.7075 14.1692 12.9675 14.1633 12.9725C14.16 12.975 13.8575 13.265 13.5817 13.5142C13.3108 13.7583 13.0967 13.9508 12.9875 14.1625C12.9548 14.2397 12.9377 14.3225 12.9371 14.4063C12.9365 14.4901 12.9525 14.5732 12.9842 14.6508C13.055 14.8175 13.1992 14.9358 13.4133 15.0033C13.4775 15.0233 13.5383 15.0317 13.5975 15.0317C13.9833 15.0317 14.2367 14.6508 14.2383 14.6483C14.2417 14.6433 14.57 14.1817 14.9692 13.6C15.1025 13.4067 15.2542 13.2017 15.505 12.895ZM18.0633 14.5592C18.0632 14.4523 18.0234 14.3492 17.9517 14.27L17.8842 14.195L16.0217 12.1192C15.6321 11.6776 15.255 11.2252 14.8908 10.7625L14.8225 10.6225V10.3758C14.8223 10.2858 14.8039 10.1968 14.7683 10.1142L14.6233 9.77417C14.6208 9.76917 14.62 9.76333 14.6208 9.75833L14.6267 9.71083C14.6267 9.70333 14.6308 9.69667 14.6375 9.69167C14.9711 9.41794 15.3949 9.27857 15.8258 9.30083C15.9117 9.30417 15.9258 9.25917 15.9292 9.23917C15.9408 9.14417 15.7208 9.03333 15.5175 8.99167C15.2367 8.93583 14.4908 8.78583 13.895 9.17083L13.89 9.17417C13.505 9.49083 13.195 9.7325 13.1917 9.73583L13.185 9.7425C13.1512 9.78367 13.126 9.83123 13.111 9.88235C13.0959 9.93346 13.0914 9.98708 13.0975 10.04C13.1142 10.1458 13.0592 10.1842 13.0558 10.1858C13.0525 10.1883 12.9758 10.2358 12.8975 10.1817C12.8017 10.1117 12.6358 10.2317 12.6017 10.2592L12.3517 10.4708L12.3467 10.4758C12.3417 10.4808 12.2342 10.6042 12.3783 10.8025C12.5025 10.9742 12.5458 11.0317 12.6533 11.1633C12.7633 11.2967 12.96 11.4667 12.9708 11.475C12.9758 11.4792 13.0958 11.5692 13.2625 11.4442C13.3983 11.3408 13.5075 11.2483 13.5075 11.2483C13.5158 11.2408 13.5958 11.1775 13.5992 11.0825V11.0108C13.5967 10.9442 13.5967 10.9242 13.6475 10.8925C13.6725 10.8925 13.7467 10.9192 13.8108 10.9508C13.9069 11.0042 14.0143 11.0339 14.1242 11.0375C14.2158 11.0492 14.3175 11.1525 14.3525 11.1942C14.3558 11.1975 14.6667 11.5192 15.1042 12.0808C15.1875 12.1883 15.4942 12.5892 15.5775 12.7008L16.1567 13.4767C16.5517 14.005 16.9933 14.5975 17.1942 14.8642C17.2608 14.9525 17.3583 15.0125 17.4683 15.0333L17.5433 15.0475C17.6211 15.0635 17.7018 15.058 17.7767 15.0316C17.8516 15.0051 17.9178 14.9588 17.9683 14.8975L17.9717 14.8917C18.0316 14.8157 18.0639 14.7217 18.0633 14.625V14.5592ZM18.4133 9.81417L18.3258 9.72917C18.3132 9.71668 18.2981 9.70695 18.2815 9.70056C18.2649 9.69418 18.2472 9.69129 18.2294 9.69207C18.2117 9.69286 18.1943 9.69729 18.1783 9.70511C18.1623 9.71293 18.1482 9.72395 18.1367 9.7375L17.5925 10.3708C17.5768 10.389 17.5547 10.4003 17.5308 10.4025L17.3375 10.4217C17.3252 10.4229 17.3127 10.4217 17.3008 10.4181C17.289 10.4146 17.2779 10.4087 17.2683 10.4008L16.9592 10.1425C16.9493 10.1345 16.9413 10.1245 16.9355 10.1131C16.9298 10.1018 16.9265 10.0894 16.9258 10.0767L16.9217 9.92417C16.9208 9.902 16.9282 9.88031 16.9425 9.86333L17.4725 9.23583C17.4921 9.21313 17.5029 9.18415 17.5029 9.15417C17.5029 9.12418 17.4921 9.0952 17.4725 9.0725L17.4183 9.01083C17.4011 8.99104 17.3782 8.97694 17.3528 8.9704C17.3273 8.96385 17.3005 8.96517 17.2758 8.97417C17.0473 9.05778 16.8239 9.15461 16.6067 9.26417C16.2842 9.435 16.06 9.70667 16.0217 9.9725C15.9933 10.1675 16.005 10.4892 16.015 10.6625C16.0186 10.7316 16.0027 10.8003 15.9692 10.8608C15.9275 10.9367 15.8542 11.0583 15.7433 11.205C15.6858 11.2817 15.65 11.3108 15.6017 11.3675L16.2008 12.0608C16.345 11.895 16.4717 11.7692 16.5817 11.6483C16.7825 11.4283 16.845 11.4258 17.0125 11.4208C17.1158 11.4167 17.2575 11.4125 17.4817 11.3575C18.0933 11.2075 18.2867 10.5558 18.295 10.5267L18.4467 9.935C18.452 9.91383 18.4517 9.89163 18.4459 9.87059C18.44 9.84955 18.4288 9.82956 18.4133 9.81417ZM9.00833 13.9442C8.94167 14.1967 8.92083 14.6275 8.58667 14.64C8.55917 14.7858 8.68917 14.8408 8.8075 14.7942C8.925 14.7408 8.98083 14.8358 9.02083 14.9308C9.20167 14.9567 9.47083 14.8708 9.48 14.66C9.20917 14.5067 9.12583 14.2142 9.0075 13.9433L9.00833 13.9442Z" fill="#323544"/>
</svg>
