<svg width="24" height="24" viewBox="0 0 24 24" fill="none" xmlns="http://www.w3.org/2000/svg">
<path d="M8.9775 14.085C8.98833 14.035 8.9975 13.9867 9.00917 13.9433L9.06 14.0642C9.15583 14.2975 9.25083 14.5283 9.48167 14.6592C9.47167 14.8708 9.20333 14.9567 9.02167 14.9308C8.98167 14.8358 8.92583 14.7408 8.80917 14.7942C8.69 14.8408 8.55917 14.7858 8.5875 14.64C8.865 14.63 8.92667 14.3308 8.9775 14.085ZM17.3208 9.70417C17.0558 9.70417 16.8075 9.80583 16.6217 9.98917L15.87 10.7283C15.6675 10.9283 15.5633 11.205 15.5842 11.4892L15.5892 11.5358C15.6158 11.7542 15.7133 11.9508 15.87 12.1042C15.9783 12.2108 16.0975 12.2792 16.2425 12.3258C16.264 12.4424 16.2564 12.5624 16.2205 12.6753C16.1846 12.7882 16.1215 12.8906 16.0367 12.9733L15.99 13.0192C15.7028 12.9244 15.4464 12.754 15.2478 12.526C15.0491 12.298 14.9154 12.0208 14.8608 11.7233L14.8525 11.6758L14.8142 11.7067C14.7892 11.7267 14.7642 11.7483 14.7408 11.7717L13.9892 12.5108C13.8978 12.6005 13.8252 12.7075 13.7757 12.8255C13.7261 12.9436 13.7006 13.0703 13.7006 13.1983C13.7006 13.3264 13.7261 13.4531 13.7757 13.5711C13.8252 13.6892 13.8978 13.7962 13.9892 13.8858C14.1817 14.0758 14.435 14.1708 14.6892 14.1708C14.9425 14.1708 15.195 14.0758 15.3875 13.8867L16.1392 13.1467C16.2569 13.0316 16.3431 12.8882 16.3897 12.7303C16.4363 12.5724 16.4416 12.4052 16.4051 12.2447C16.3687 12.0841 16.2917 11.9356 16.1815 11.8132C16.0714 11.6909 15.9317 11.5988 15.7758 11.5458C15.7545 11.419 15.7643 11.2889 15.8043 11.1666C15.8444 11.0444 15.9135 10.9338 16.0058 10.8442C16.2953 10.9411 16.5538 11.1134 16.7546 11.3433C16.9554 11.5733 17.0913 11.8526 17.1483 12.1525L17.1567 12.2L17.1958 12.1692C17.2208 12.1492 17.2458 12.1275 17.2692 12.1042L18.0208 11.3642C18.1123 11.2746 18.185 11.1676 18.2346 11.0495C18.2842 10.9315 18.3097 10.8047 18.3097 10.6767C18.3097 10.5486 18.2842 10.4219 18.2346 10.3038C18.185 10.1857 18.1123 10.0788 18.0208 9.98917C17.8344 9.80533 17.5827 9.70286 17.3208 9.70417Z" fill="#323544"/>
<path d="M16.9175 7H7.08333C4.28 7 2 9.24333 2 12C2 14.7567 4.28 17 7.0825 17H16.9167C19.72 17 22 14.7567 22 12C22 9.24333 19.72 7 16.9175 7ZM12.0667 14.8392C11.9042 14.8725 11.7217 14.8783 11.5983 14.7508C11.5608 14.8342 11.485 14.815 11.4142 14.7975C11.3974 14.7929 11.3804 14.7891 11.3633 14.7858C11.355 14.8067 11.3492 14.8258 11.3417 14.8467C11.0675 14.8642 10.8625 14.5892 10.7317 14.3817C10.6034 14.3166 10.4718 14.2581 10.3375 14.2067C10.1942 14.1483 10.05 14.09 9.91333 14.015C9.91035 14.063 9.90923 14.1111 9.91 14.1592C9.90833 14.3625 9.90667 14.5783 9.72083 14.7017C9.715 14.9475 9.9175 14.945 10.1175 14.9433C10.29 14.9408 10.4592 14.9392 10.49 15.0967C10.4762 15.0982 10.4623 15.0991 10.4483 15.0992C10.41 15.0992 10.3717 15.0992 10.3425 15.1275C10.245 15.22 10.1408 15.18 10.0325 15.1383C9.9325 15.1 9.83 15.06 9.72667 15.1217C9.65116 15.1596 9.57823 15.2025 9.50833 15.25C9.37622 15.3493 9.21684 15.4057 9.05167 15.4117C9.03167 15.3817 9.04 15.3625 9.05667 15.345C9.06958 15.3302 9.08155 15.3146 9.0925 15.2983C9.10833 15.275 9.12167 15.2508 9.135 15.2283C9.18 15.1492 9.22083 15.0783 9.33667 15.045C9.1825 15.0208 9.05 15.0908 8.92 15.1592L8.91667 15.1608C8.89869 15.1704 8.88064 15.1799 8.8625 15.1892C8.78167 15.2225 8.73417 15.1967 8.68583 15.17C8.6175 15.1325 8.54583 15.0933 8.3725 15.2033C8.33917 15.1767 8.35583 15.1525 8.37417 15.1317C8.45 15.0408 8.54917 15.0275 8.66167 15.0325C8.36917 14.8717 8.15833 14.9858 7.98667 15.0783C7.835 15.16 7.71417 15.225 7.59417 15.0683C7.54 15.0825 7.50917 15.1208 7.47917 15.1583C7.46667 15.175 7.45417 15.19 7.44 15.2042C7.41083 15.1717 7.4175 15.135 7.425 15.0975L7.42917 15.0758C7.43052 15.0676 7.43135 15.0592 7.43167 15.0508L7.40917 15.0425C7.365 15.0242 7.32167 15.0058 7.33417 14.9392C7.23667 14.9058 7.1675 14.9642 7.09583 15.0175C7.05083 14.9833 7.0875 14.9383 7.1225 14.8967C7.13751 14.8805 7.15013 14.8622 7.16 14.8425C7.19167 14.7883 7.24583 14.7867 7.29833 14.785C7.34333 14.7842 7.38833 14.7825 7.41917 14.75C7.53 14.6875 7.66667 14.72 7.80417 14.7525C7.905 14.7758 8.00583 14.8 8.09917 14.7875C8.26833 14.8083 8.4775 14.6375 8.3925 14.4667C8.2375 14.2725 8.23917 14.0267 8.24 13.7892V13.67C8.22667 13.58 8.09667 13.4758 7.96667 13.3717C7.86667 13.2925 7.76667 13.2125 7.71833 13.1383C7.585 12.9908 7.48083 12.82 7.3775 12.6508L7.365 12.6308C7.18833 12.2942 7.1175 11.9142 7.04667 11.535C6.96083 11.08 6.87583 10.6267 6.60833 10.2517C6.38667 10.3717 6.09833 10.3142 5.9075 10.1533C5.8075 10.2425 5.79917 10.3592 5.7925 10.4833L5.79167 10.495C5.54417 10.2517 5.575 9.79167 5.7725 9.52C5.85333 9.41333 5.95 9.32583 6.0575 9.24833C6.0825 9.23083 6.09083 9.21333 6.09 9.18667C6.28583 8.32 7.62 8.4875 8.04167 9.10083C8.18083 9.2725 8.27583 9.46917 8.37083 9.66583C8.485 9.90167 8.59833 10.1375 8.7875 10.3283C8.97083 10.5258 9.16417 10.7142 9.3575 10.9025C9.65667 11.1942 9.95583 11.485 10.2175 11.81C10.6258 12.2992 10.9167 12.8733 11.1708 13.4517C11.2125 13.5283 11.2375 13.6125 11.2625 13.6958C11.2992 13.8208 11.3367 13.945 11.4292 14.0433C11.4508 14.0725 11.4992 14.1167 11.5533 14.1667C11.6833 14.2858 11.8508 14.44 11.7942 14.5075C11.8017 14.5233 11.8167 14.5408 11.8358 14.5575C11.8625 14.5808 11.8975 14.6058 11.9325 14.6308C12.0342 14.7033 12.1417 14.7792 12.0667 14.8392ZM18.5483 11.885L17.7967 12.6242C17.5967 12.8217 17.3492 12.9683 17.0808 13.0492L17.0667 13.0533L17.0617 13.0658C16.9748 13.2922 16.8401 13.4972 16.6667 13.6667L15.915 14.4067C15.5875 14.7292 15.1517 14.9067 14.6867 14.9067C14.2225 14.9067 13.7867 14.7292 13.4583 14.4067C13.2976 14.2492 13.1699 14.0612 13.0827 13.8537C12.9955 13.6462 12.9506 13.4234 12.9506 13.1983C12.9506 12.9733 12.9955 12.7505 13.0827 12.543C13.1699 12.3355 13.2976 12.1475 13.4583 11.99L14.21 11.25C14.4117 11.0517 14.6525 10.9092 14.9258 10.8267L14.9392 10.8233L14.9442 10.81C15.0317 10.5833 15.165 10.38 15.34 10.2067L16.0917 9.4675C16.4192 9.145 16.8558 8.9675 17.32 8.9675C17.785 8.9675 18.22 9.145 18.5483 9.4675C18.8767 9.79 19.0567 10.2192 19.0567 10.6758C19.0567 11.1333 18.8767 11.5633 18.5483 11.885Z" fill="#323544"/>
</svg>
