<svg width="24" height="24" viewBox="0 0 24 24" fill="none" xmlns="http://www.w3.org/2000/svg">
<path d="M14.9511 4.96305C15.3126 4.88735 15.6858 4.88738 16.0473 4.96305C16.4555 5.05054 16.8359 5.27177 17.6056 5.71497L19.8932 7.03328C20.657 7.47646 21.0422 7.69917 21.3221 8.00817C21.5696 8.28118 21.7575 8.60414 21.8714 8.95459C21.9996 9.3503 22 9.79433 22 10.6806V13.3164C22 14.2039 21.9998 14.6474 21.8714 15.044C21.7548 15.394 21.5679 15.7147 21.3229 15.988C21.0438 16.2979 20.6639 16.5196 19.894 16.9629L17.6073 18.2812C16.8424 18.7244 16.4572 18.9464 16.0489 19.0339C15.6866 19.1088 15.3142 19.1089 14.9528 19.0339C14.5444 18.9464 14.1652 18.7245 13.3944 18.2812L12.0053 17.4804L11.9988 17.4772L10.6056 18.2812C9.84147 18.7245 9.45637 18.9464 9.04805 19.0339C8.68557 19.1089 8.31191 19.1089 7.95109 19.0339C7.54293 18.9464 7.16317 18.7243 6.39354 18.2812L4.10603 16.9629C3.3419 16.5196 2.95623 16.2971 2.67624 15.9888C2.4314 15.7206 2.2452 15.3938 2.12858 15.044C2.00025 14.6474 2 14.2039 2 13.3164V10.6798C2 9.79349 2.00033 9.34949 2.12939 8.95377C2.24605 8.60379 2.43288 8.28233 2.67787 8.00817C2.95783 7.6992 3.33716 7.47643 4.10685 7.03328L6.39272 5.71497C7.1572 5.27194 7.54217 5.05059 7.95028 4.96305C8.3119 4.88732 8.68562 4.88732 9.04724 4.96305C9.45552 5.05056 9.8357 5.27169 10.6056 5.71497L11.9996 6.51816L13.3936 5.71497C14.1577 5.27169 14.5428 5.05054 14.9511 4.96305ZM8.39378 7.0284C8.37704 7.02851 8.33539 7.05113 8.24812 7.09268C8.07314 7.17934 7.85156 7.30778 7.4433 7.54107L5.15661 8.85938C4.75425 9.09263 4.52652 9.22054 4.36237 9.33218C4.28071 9.38467 4.24558 9.41409 4.22891 9.42576C4.18239 9.47546 4.14802 9.53541 4.12882 9.60072C4.12882 9.61822 4.11754 9.66512 4.11254 9.76429C4.10005 9.95589 4.09952 10.2191 4.09952 10.6855V13.3229C4.09952 13.7895 4.10006 14.0524 4.11173 14.2449C4.11173 14.344 4.12299 14.391 4.12882 14.4077C4.15215 14.4726 4.18729 14.531 4.22891 14.5826C4.26978 14.6187 4.31475 14.6497 4.36237 14.6762C4.5257 14.7812 4.74746 14.9157 5.15661 15.149L7.4433 16.4673C7.84568 16.7006 8.07315 16.829 8.24812 16.9173C8.29357 16.945 8.34255 16.9665 8.39378 16.9808C8.46131 16.9925 8.53051 16.9924 8.59804 16.9808C8.61553 16.9808 8.65634 16.9573 8.7437 16.9165C8.91866 16.829 9.14038 16.7005 9.54852 16.4673L9.94808 16.2362C9.84587 16.1558 9.75771 16.076 9.67872 15.9888C9.43377 15.7205 9.24608 15.394 9.12943 15.044C9.00111 14.6474 9.00167 14.2038 9.00167 13.3164V10.6798C9.00167 9.79358 9.00124 9.34946 9.12943 8.95377C9.24609 8.60379 9.43373 8.28233 9.67872 8.00817C9.7558 7.92284 9.84067 7.84428 9.93913 7.76567L9.54852 7.54107C9.14616 7.30782 8.9195 7.17933 8.7437 7.09268C8.69829 7.06476 8.64931 7.043 8.59804 7.0284C8.5305 7.01677 8.46133 7.01677 8.39378 7.0284ZM15.3955 7.02921C15.378 7.02921 15.3365 7.05183 15.249 7.0935C15.074 7.18016 14.8523 7.3087 14.4433 7.54188L14.0568 7.76404C14.1572 7.84338 14.2441 7.92203 14.3221 8.00817C14.5695 8.28122 14.7566 8.60417 14.8706 8.95459C14.9988 9.35027 14.9983 9.79442 14.9983 10.6806V13.3164C14.9983 14.2038 14.9989 14.6474 14.8706 15.044C14.754 15.3927 14.5672 15.7139 14.3221 15.988C14.2437 16.0748 14.1563 16.1532 14.056 16.2329L14.0658 16.2386C14.0634 16.2405 14.06 16.2416 14.0576 16.2435L14.4442 16.4673C14.8464 16.7005 15.074 16.829 15.249 16.9173C15.2947 16.9451 15.3447 16.9665 15.3963 16.9808C15.4637 16.9924 15.5331 16.9924 15.6005 16.9808C15.6174 16.9805 15.6593 16.957 15.7462 16.9165C15.9212 16.829 16.1428 16.7006 16.551 16.4673L18.8377 15.149C19.2401 14.9157 19.4678 14.787 19.6319 14.6762C19.7134 14.6238 19.7487 14.5951 19.7654 14.5834C19.8118 14.5338 19.8455 14.4736 19.8647 14.4085C19.8647 14.3901 19.8768 14.344 19.8818 14.2449C19.8943 14.0524 19.894 13.7895 19.894 13.3229L19.8932 13.3221V10.6863C19.8932 10.2199 19.8934 9.95754 19.8818 9.7651C19.881 9.71023 19.8748 9.65531 19.8639 9.60153C19.8398 9.53849 19.8059 9.47933 19.7638 9.42657C19.7229 9.39092 19.6786 9.35919 19.6311 9.33299C19.3707 9.16832 19.1056 9.01093 18.8369 8.86019L16.5502 7.54188C16.1478 7.30864 15.9203 7.18016 15.7454 7.0935C15.7 7.06562 15.6509 7.04385 15.5997 7.02921C15.5322 7.0176 15.4629 7.01763 15.3955 7.02921ZM11.9963 8.95215C11.6921 9.1281 11.5049 9.23644 11.3649 9.33218C11.2835 9.38445 11.2482 9.414 11.2306 9.42576C11.1841 9.47543 11.1497 9.53545 11.1305 9.60072C11.1305 9.61822 11.1192 9.66512 11.1134 9.76429C11.1017 9.95589 11.102 10.2191 11.102 10.6855V13.3229C11.102 13.7895 11.1017 14.0524 11.1134 14.2449C11.1192 14.344 11.1255 14.391 11.1305 14.4077C11.1546 14.4725 11.1898 14.531 11.2306 14.5826C11.2417 14.5953 11.2772 14.6241 11.364 14.6762C11.5048 14.7662 11.688 14.8775 11.9947 15.0546C11.9982 15.0527 12.0018 15.0508 12.0053 15.0489C12.3044 14.876 12.4908 14.7703 12.6294 14.6762C12.7109 14.6238 12.7462 14.5951 12.7637 14.5834C12.8102 14.5338 12.8446 14.4737 12.8638 14.4085C12.8638 14.3901 12.8743 14.344 12.8801 14.2449C12.8918 14.0524 12.8923 13.7887 12.8923 13.3221V10.6863C12.8923 10.2199 12.8918 9.95754 12.8801 9.7651C12.8797 9.71026 12.8745 9.65533 12.8638 9.60153C12.8397 9.53844 12.8059 9.47936 12.7637 9.42657C12.7228 9.39083 12.6779 9.35924 12.6303 9.33299C12.4219 9.20124 12.2101 9.075 11.9963 8.95215Z" fill="#323544"/>
</svg>
