<svg width="24" height="24" viewBox="0 0 24 24" fill="none" xmlns="http://www.w3.org/2000/svg">
<path d="M18.5208 13.0358C18.5233 13.0358 18.5233 13.0358 18.5208 13.0358C18.9725 12.02 19.2992 11.0575 19.4242 10.2508C19.5842 9.22 19.4308 8.40667 18.9642 7.83167C18.4058 7.1425 17.5358 6.95083 16.6675 6.94417C16.0292 6.94417 15.2817 7.055 14.4833 7.2425C13.9208 5.07917 12.7667 2 10.6 2C8.09584 2 6.10917 6.43083 4.94667 10.33C4.52084 11.7633 3.79834 14.6117 3.79834 16.0108C3.79834 19.3125 6.40917 22 9.61834 22C13.2517 22 20.2017 19.6667 20.2017 16.0108C20.2017 14.8817 19.5408 13.8833 18.5208 13.0358ZM16.6625 8.26917C17.115 8.2725 17.7267 8.3325 18.0042 8.7025C18.2558 9.03917 18.2317 9.61667 18.1658 10.04C18.0508 10.785 17.7533 11.6033 17.4617 12.29C16.7434 11.8553 15.9876 11.4858 15.2033 11.1858C15.0984 10.2942 14.9567 9.40736 14.7783 8.5275C15.4767 8.36417 16.1208 8.26917 16.6625 8.26917ZM15.3492 12.6567C15.8908 12.8933 16.405 13.1533 16.9092 13.4683C16.4676 14.3349 15.98 15.1772 15.4483 15.9917C15.4808 15.1333 15.4567 13.9625 15.3492 12.6567ZM13.8633 10.7258C12.695 10.3758 11.5292 10.1483 10.515 10.0617C11.4996 9.59899 12.5128 9.19984 13.5483 8.86667C13.6725 9.4775 13.7767 10.105 13.8633 10.7258ZM7.04584 8.07667C8.21417 5.1 9.54584 3.32417 10.6075 3.32417C11.9683 3.32417 12.8967 6.21833 13.2533 7.58083C11.8884 8.01236 10.5607 8.55386 9.28334 9.2C8.05001 9.82 6.81167 10.6483 5.97501 11.3442C6.23667 10.2842 6.79167 8.73083 7.04584 8.07667ZM9.58751 20.6758C7.09584 20.6592 5.07501 18.5717 5.07501 16.0108C5.07501 13.4358 7.11334 11.3433 9.62001 11.3433C10.9092 11.3433 12.5183 11.6475 14.0333 12.1517C14.2 13.86 14.2333 15.425 14.1483 16.4192C13.935 18.9208 11.8042 20.6692 9.58751 20.6758ZM15.6242 19.2408C15.1358 19.4658 14.6183 19.6708 14.0867 19.8492C15.3717 18.485 16.8542 16.3383 17.94 14.2433C18.5783 14.8292 18.9258 15.4333 18.9258 16.01C18.9275 17.0942 17.7225 18.2717 15.6242 19.2408Z" fill="#323544"/>
</svg>
