<svg width="24" height="24" viewBox="0 0 24 24" fill="none" xmlns="http://www.w3.org/2000/svg">
<path d="M12.321 9.12167L12.3144 9.12583L14.8394 13.5008C15.1897 14.0363 15.376 14.6626 15.3752 15.3025C15.3752 15.9308 15.1985 16.5192 14.8919 17.0208L20.036 15.3617L11.9894 2L10.051 5.22667L12.321 9.12167ZM7.99519 22L12.0369 18.6225H12.026C10.1769 18.6225 8.67852 17.1358 8.67852 15.3025C8.67852 14.6408 8.87436 14.0242 9.21186 13.5058L11.5994 9.35917L9.61519 5.95333L3.96436 15.3617L7.98936 22H7.99519ZM13.7452 18.1517L9.14936 22H15.9677L19.4244 16.3592L13.7452 18.1517Z" fill="#323544"/>
</svg>
