<svg width="24" height="24" viewBox="0 0 24 24" fill="none" xmlns="http://www.w3.org/2000/svg">
<path d="M15.181 16.2683C13.4377 17.0383 11.5494 16.7225 10.8227 16.4683C10.8227 16.6433 10.8144 17.1825 10.7827 17.9517C10.751 18.7217 10.506 19.2075 10.3869 19.355C10.4002 19.8358 10.411 20.8858 10.3477 21.2383C10.287 21.5235 10.1499 21.7868 9.95105 22H8.88105C8.97605 21.5192 9.34355 21.2117 9.51521 21.1183C9.61021 20.1242 9.42354 19.2608 9.31688 18.9542C9.21188 19.3283 8.95271 20.1958 8.76271 20.6775C8.60712 21.0601 8.40773 21.4233 8.16855 21.76H7.37604C7.33604 21.2783 7.60105 21.1183 7.77188 21.1183C7.85105 20.9708 8.04105 20.5092 8.16855 19.835C8.29521 19.1625 8.11521 17.8983 8.01021 17.3508V15.6275C6.74188 14.9458 6.26688 14.2642 5.94938 13.5025C5.69605 12.8942 5.76438 11.9667 5.83105 11.5792C5.75105 11.4325 5.52021 11.0583 5.43438 10.5375C5.31605 9.81583 5.38188 9.295 5.43438 9.01417C5.35521 8.93417 5.19688 8.525 5.19688 7.53083C5.19688 6.5375 5.48771 6.02167 5.63271 5.8875V5.44667C5.07771 5.40667 4.52355 5.16667 4.20605 4.84583C3.88938 4.525 4.12688 4.04417 4.32521 3.88417C4.52355 3.72333 4.72105 3.84333 4.99855 3.76333C5.27605 3.68333 5.51355 3.60333 5.63188 3.36333C5.72855 3.16917 5.54104 2.37333 5.43521 2C5.91021 2.06417 6.21438 2.48083 6.30688 2.68167V2C6.90105 2.28083 7.97104 2.96167 8.32771 4.445C8.61271 5.63167 8.81604 8.11917 8.88188 9.21417C10.401 9.2275 12.3294 8.9975 14.0727 9.375C15.6569 9.71833 16.3702 10.4167 17.2019 10.4167C18.0344 10.4167 18.5102 9.93583 19.1035 10.3367C19.6985 10.7375 20.0152 11.86 19.936 12.7017C19.8727 13.375 19.3552 13.5967 19.1044 13.6233C18.7877 14.6817 19.1044 15.6942 19.3019 16.0683V17.5908C19.3944 17.7242 19.5794 18.1367 19.5794 18.7133C19.5794 19.2908 19.3944 19.675 19.3019 19.7958C19.4602 20.6933 19.2352 21.6125 19.1035 21.96H18.0344C18.161 21.6392 18.3777 21.5592 18.4702 21.5592C18.6602 20.565 18.5227 19.6483 18.4302 19.315C17.8285 18.9617 17.4402 18.34 17.321 18.0725C17.3344 18.2992 17.2969 18.93 17.0435 19.635C16.7902 20.3408 16.4102 20.7575 16.2519 20.8775V21.7192H15.1819C15.1819 21.2067 15.4719 21.105 15.6177 21.1183C15.8027 20.785 16.251 20.2767 16.251 19.275C16.251 18.4292 15.6569 18.0317 15.221 17.2708C15.0144 16.9092 15.1144 16.4558 15.181 16.2683Z" fill="#323544"/>
</svg>
