<svg width="24" height="24" viewBox="0 0 24 24" fill="none" xmlns="http://www.w3.org/2000/svg">
<path d="M11.0666 10.2692L11.1482 10.3367C11.5816 10.7176 11.9891 10.9534 12.2424 10.9684C12.6182 10.9917 12.9907 10.8934 13.2674 10.6992L13.3449 10.6442L13.4241 10.5826C13.7074 10.3667 14.0957 10.0692 14.6074 10.1476C15.0291 10.2134 15.2407 10.5284 15.4791 10.9392L15.8115 11.5117C16.1099 12.0159 16.5307 12.7009 16.8482 13.16C17.1815 13.645 17.5482 14.0909 17.8765 14.4159C18.0715 14.61 18.1807 14.8659 18.1724 15.1217C18.1674 15.2917 18.1115 15.4359 18.0207 15.5175L17.9674 15.555L21.0882 19.6834C21.1324 19.7442 21.1582 19.78 21.1599 19.7859C21.2249 19.98 20.7465 20.2609 20.129 20.5325L19.9299 20.6134C19.1465 20.9109 17.234 21.4867 16.0424 21.6842L15.869 21.7109C14.5874 21.8934 12.3899 22.1642 9.32073 21.8692L8.73407 21.8092C6.12741 21.5134 5.25908 21.0759 4.21325 20.6009L3.90575 20.4567C3.06158 20.0442 2.88408 19.805 2.84742 19.715L2.83908 19.6759C2.79492 19.5909 3.07325 19.2367 3.45408 18.7925L4.07325 18.0825C4.30158 17.8225 4.52658 17.5617 4.71574 17.3292L4.85074 17.16C4.92324 17.0667 5.01741 16.9434 5.12741 16.7975L5.44991 16.3667L7.02491 14.235C6.98227 14.1831 6.95282 14.1216 6.93907 14.0559C6.87324 13.7284 7.14824 13.285 7.32157 13.0742L7.45074 12.9242L7.8199 12.5142C7.9699 12.3459 8.1374 12.1509 8.31657 11.9267C8.48157 11.72 8.62407 11.5167 8.75157 11.3275L9.04657 10.8867C9.35823 10.4351 9.6499 10.0984 10.1324 10.0267C10.5557 9.96672 10.8207 10.0751 11.0666 10.2692ZM10.3057 10.3434L10.1832 10.3551C9.82906 10.4067 9.60323 10.6667 9.3274 11.0692L8.94907 11.6325C8.83907 11.7917 8.71907 11.96 8.5824 12.1325C8.39907 12.3625 8.22657 12.5609 8.07407 12.7325L7.66157 13.1909L7.58157 13.2834C7.4049 13.5 7.2374 13.835 7.2674 13.9909C7.26985 14.0059 7.27683 14.0199 7.2874 14.0309L7.30324 14.0425C7.3149 14.0492 7.35157 14.0675 7.4324 14.0409C7.64324 13.9725 7.89074 13.6934 7.96907 13.5309C8.11907 13.215 8.26824 13.0559 8.43907 13.0292C8.49355 13.0213 8.54914 13.0274 8.60061 13.047C8.65207 13.0665 8.69772 13.0988 8.73323 13.1409C8.84407 13.2575 8.90073 13.4092 8.89073 13.5692C8.87573 13.8025 8.7299 14.0375 8.45407 14.265L8.17407 14.5C7.8574 14.775 7.5524 15.0834 7.5824 15.3109C7.59407 15.3992 7.62574 15.5159 7.7099 15.57C7.7924 15.6234 7.9049 15.6067 7.9849 15.5834C8.18907 15.5259 8.79573 14.8834 9.13407 14.415L9.28907 14.1884L9.4574 13.94C9.78573 13.4634 10.0724 13.1234 10.3599 13.1234C10.5016 13.1234 10.6166 13.1984 10.6766 13.33C10.8249 13.645 10.6266 14.2034 10.1849 14.7184C9.55823 15.4492 9.22407 15.7467 8.5599 16.3409L8.32073 16.5517C7.77074 17.0434 7.68324 17.2809 7.68157 17.3767C7.6799 17.4225 7.6949 17.4534 7.73657 17.4934C7.8199 17.5784 8.16824 17.6034 8.70323 17.15C9.2699 16.6684 10.0632 15.7809 10.4582 15.3284L10.8666 14.8534C11.1541 14.5284 11.4416 14.2617 11.7932 14.2834C12.1716 14.3067 12.2432 14.5834 12.2641 14.7784L12.2782 14.9692L12.3057 15.0967C12.3491 15.3059 12.3841 15.4159 12.6374 15.4159C12.9182 15.4159 13.1449 15.18 13.3491 14.6742C13.3782 14.6025 13.4007 14.5242 13.4207 14.445L13.4957 14.1475C13.5624 13.9109 13.6649 13.6909 13.9182 13.6484C13.9486 13.6438 13.9792 13.6415 14.0099 13.6417C14.2441 13.6417 14.3641 13.8067 14.4649 14.0125L14.6232 14.3575L15.5415 16.2525C15.7374 16.6525 15.919 17.0125 16.0165 17.1809L16.2524 17.5642C16.4574 17.8825 16.6707 18.0725 17.0807 17.9484C17.179 17.9184 17.2082 17.8692 17.2215 17.8292C17.3032 17.6059 17.1199 17.15 16.679 16.4742L16.5499 16.2809C16.3182 15.9392 15.6582 14.8 15.3965 14.0125L15.3116 13.7425C15.1474 13.195 15.1299 12.8875 15.3666 12.7092C15.3997 12.6836 15.4381 12.6655 15.479 12.6563C15.5199 12.6471 15.5623 12.6469 15.6032 12.6559C15.7649 12.6892 15.974 12.8334 16.4224 13.6584L16.8057 14.3625C17.004 14.7184 17.1907 15.0159 17.354 15.1567C17.554 15.3292 17.7215 15.3375 17.7974 15.27C17.8424 15.2234 17.904 14.9125 17.639 14.6517C17.2974 14.3117 16.9174 13.8484 16.5699 13.3467C16.1329 12.6914 15.7171 12.0222 15.3232 11.34L15.2541 11.2176L15.1057 10.9642C14.9224 10.6642 14.7857 10.5109 14.5574 10.4767C14.2707 10.4326 14.0274 10.5601 13.8107 10.7126L13.4632 10.9709C13.1241 11.2076 12.6732 11.3267 12.2232 11.3C11.8524 11.2775 11.4149 10.9834 11.1091 10.7392L10.9274 10.5859C10.7649 10.4451 10.6224 10.3576 10.4157 10.3442L10.3057 10.3434ZM6.45907 11.2751C6.65324 11.3334 6.45907 11.6225 6.39157 12.3684C6.32491 13.1142 6.56241 13.9409 5.98907 13.9267C5.44324 13.9125 5.51074 13.1734 5.72657 12.3534C5.97157 11.4267 6.26407 11.2159 6.45907 11.2751ZM18.8674 11.1009C19.1032 11.0676 19.2757 11.5459 19.384 11.8984L19.4507 12.1292C19.5449 12.4417 19.6999 13.4725 19.2057 13.4709C18.8857 13.47 18.8307 13.2417 18.8032 12.7159L18.7849 12.3034C18.7499 11.4834 18.6224 11.1359 18.8674 11.1009ZM10.5291 10.8651L10.6107 10.8867C10.6941 10.9109 10.8274 10.9567 10.9507 11.0317L11.0474 11.0984L11.2132 11.2192C11.4749 11.4025 11.8966 11.645 12.4082 11.6375C13.0749 11.6292 13.4457 11.3126 13.7141 11.1576C13.9832 11.0034 14.2332 11.0292 14.2332 11.0292L14.1966 11.1492C14.0657 11.5442 13.5666 12.78 12.4407 12.8234C10.6866 12.8917 10.5291 10.8651 10.5291 10.8651ZM16.0349 4.57673L16.2015 4.58423C17.204 4.66507 17.6115 5.02923 18.0107 5.47423C18.4107 5.91923 18.3532 6.3259 18.1232 6.4859C17.8482 6.67756 17.5407 6.4859 17.3882 6.32423C17.2357 6.1634 17.1432 5.9409 16.7657 5.70756C16.334 5.44256 15.3557 5.32256 14.4866 6.31423C13.5424 7.39089 13.2566 8.68506 13.1091 9.55089L13.0449 9.94505C12.9866 10.3101 12.9307 10.4034 12.7174 10.3817C12.5649 10.3659 12.5149 10.2442 12.5049 10.1134L12.5032 9.96089C12.5074 9.71422 12.5299 9.14172 12.6349 8.50839C12.7574 7.76923 13.1457 6.67839 13.6774 5.90923C14.1507 5.2259 14.9857 4.6459 15.869 4.58257L16.0349 4.57673ZM9.28157 4.7034C10.4582 4.9209 11.0607 5.96756 11.4582 7.09006C11.8582 8.21256 12.0582 9.65672 12.0882 9.91839C12.1182 10.1809 12.0866 10.3501 11.8632 10.3834C11.7607 10.3984 11.6582 10.3334 11.6066 10.2001C11.5599 10.0742 11.4882 9.75672 11.3799 9.34672L11.2441 8.85172C11.1024 8.34839 10.8899 7.65839 10.6357 7.14839L10.4974 6.87339C10.2132 6.32756 9.87156 5.80673 9.2499 5.61506C8.57157 5.40756 8.1374 5.7309 7.86657 6.0059L7.81157 6.06423C7.54657 6.34756 7.13324 6.56839 6.87824 6.28423C6.62324 6.0009 6.83657 5.6484 7.04074 5.43756L7.13824 5.3484C7.43157 5.09923 8.2674 4.51507 9.28157 4.7034ZM10.7282 9.38672C10.8041 9.57339 10.8199 9.71089 10.7432 9.78589C10.6582 9.87172 10.5066 9.85005 10.3916 9.72922L10.1999 9.50505C9.88156 9.15089 9.22073 8.52922 8.3774 8.60506C7.2324 8.70756 7.01241 9.62422 6.96074 9.80089C6.89491 10.0217 6.72741 10.2626 6.40657 10.1992C6.15491 10.1492 6.06491 9.96505 6.05241 9.65089C6.03907 9.20255 6.57074 8.02839 8.11074 7.83589C9.7349 7.63173 10.6499 9.18756 10.7282 9.38672ZM18.6357 8.43506C19.0365 8.96672 18.9965 9.41172 18.724 9.56005C18.4524 9.70922 18.1674 9.61422 17.9624 9.25755C17.8099 8.99172 17.5582 8.55672 17.2007 8.39589C16.5274 8.09339 15.9899 8.13339 15.2757 8.49672C14.7999 8.73922 14.4632 9.15839 14.2691 9.44255L13.9991 9.86172C13.9324 9.95672 13.8432 10.0434 13.7041 9.99839C13.5791 9.95755 13.5841 9.79255 13.6266 9.62005L13.6474 9.54672C13.7007 9.37672 14.2532 7.60173 16.3007 7.39923C17.5865 7.27089 18.3115 8.00506 18.6357 8.43506ZM4.53824 7.46006C5.05491 7.03006 5.72991 6.75173 5.89991 6.90923C6.02741 7.02673 5.91157 7.23256 5.80241 7.32756L5.69158 7.42339C5.52908 7.56506 5.27241 7.80339 5.10241 8.05172C4.97824 8.23506 4.83074 8.56506 4.61741 8.72922C4.46324 8.84756 4.24158 8.90422 4.05991 8.78422C3.85908 8.65089 3.85575 8.37756 3.94075 8.16172C4.04325 7.90756 4.29158 7.66506 4.53824 7.46006ZM18.8082 7.10006C18.8907 6.93756 19.194 7.07673 19.6024 7.28423C20.0115 7.49256 20.374 7.78089 20.584 8.07006C20.799 8.36589 20.7482 8.88006 20.3157 8.83422C19.8824 8.78756 19.5699 8.17089 19.3574 7.92089L19.199 7.74589C18.9407 7.47256 18.719 7.27756 18.8082 7.10006ZM9.6824 2.93507C9.86823 2.7734 10.1957 2.75007 10.4874 2.96924C10.7791 3.1884 11.1541 3.6059 11.4224 4.1834L11.4891 4.33173C11.6249 4.65423 11.7666 5.09507 11.5749 5.14507C11.3349 5.2084 11.1307 4.86757 10.6999 4.4284C10.2666 3.98757 9.88156 3.9309 9.6699 3.6634C9.45907 3.39674 9.49573 3.09674 9.6824 2.93507ZM15.794 2.01257C16.109 1.96674 16.3007 2.04591 16.3899 2.25507C16.484 2.47424 16.3124 2.76674 16.1215 2.84507C15.8049 2.9709 15.5132 2.9709 14.8941 3.3884C14.1774 3.86924 13.6774 4.6334 13.5957 4.81757L13.5849 4.84423C13.5382 5.01757 13.4099 5.0984 13.2816 5.0409C13.1749 4.99257 13.1649 4.87423 13.1782 4.76923L13.2091 4.59507C13.2591 4.34173 13.4266 3.76424 14.1457 2.9959C14.8657 2.22674 15.594 2.04257 15.794 2.01257Z" fill="#323544"/>
</svg>
