<svg width="24" height="24" viewBox="0 0 24 24" fill="none" xmlns="http://www.w3.org/2000/svg">
<path d="M4.36694 3.91797C4.22758 3.91797 4.08959 3.94542 3.96084 3.99875C3.83209 4.05208 3.71511 4.13024 3.61657 4.22878C3.51803 4.32732 3.43986 4.44431 3.38653 4.57306C3.3332 4.7018 3.30575 4.8398 3.30575 4.97915C3.30575 5.11851 3.3332 5.2565 3.38653 5.38525C3.43986 5.514 3.51803 5.63099 3.61657 5.72953C3.71511 5.82807 3.83209 5.90623 3.96084 5.95956C4.08959 6.01289 4.22758 6.04034 4.36694 6.04034H12.9389C13.2152 6.0326 13.4776 5.9174 13.6703 5.71923C13.863 5.52106 13.9708 5.25556 13.9708 4.97915C13.9708 4.70275 13.863 4.43724 13.6703 4.23908C13.4776 4.04091 13.2152 3.92571 12.9389 3.91797H4.36694ZM8.61251 6.6928C8.33096 6.6928 8.06094 6.80465 7.86185 7.00374C7.66276 7.20282 7.55091 7.47285 7.55091 7.7544C7.55091 8.03596 7.66276 8.30598 7.86185 8.50507C8.06094 8.70416 8.33096 8.816 8.61251 8.816H17.1828C17.4591 8.80826 17.7215 8.69306 17.9142 8.49489C18.1069 8.29673 18.2147 8.03122 18.2147 7.75482C18.2147 7.47841 18.1069 7.21291 17.9142 7.01474C17.7215 6.81658 17.4591 6.70138 17.1828 6.69363L8.61251 6.6928ZM5.02023 10.5301C5.02023 9.94344 5.4952 9.46846 6.08183 9.46846H14.653C14.9344 9.46846 15.2043 9.58027 15.4033 9.77928C15.6024 9.97829 15.7142 10.2482 15.7142 10.5296C15.7142 10.8111 15.6024 11.081 15.4033 11.28C15.2043 11.479 14.9344 11.5908 14.653 11.5908H6.08183C5.49604 11.5908 5.02023 11.1159 5.02023 10.5301ZM3.06119 12.4075C2.77974 12.4075 2.50982 12.5193 2.31081 12.7183C2.1118 12.9173 2 13.1872 2 13.4686C2 13.7501 2.1118 14.02 2.31081 14.219C2.50982 14.418 2.77974 14.5298 3.06119 14.5298H11.6332C11.9095 14.5221 12.1718 14.4069 12.3645 14.2087C12.5572 14.0105 12.665 13.745 12.665 13.4686C12.665 13.1922 12.5572 12.9267 12.3645 12.7286C12.1718 12.5304 11.9095 12.4152 11.6332 12.4075H3.06119ZM5.02023 16.2439C5.02023 15.6573 5.4952 15.1823 6.08183 15.1823H14.653C14.9344 15.1823 15.2043 15.2941 15.4033 15.4931C15.6024 15.6921 15.7142 15.962 15.7142 16.2435C15.7142 16.5249 15.6024 16.7948 15.4033 16.9938C15.2043 17.1929 14.9344 17.3047 14.653 17.3047H6.08183C5.49604 17.3047 5.02023 16.8297 5.02023 16.2439ZM12.8573 17.9579C12.5758 17.9579 12.3059 18.0697 12.1069 18.2688C11.9079 18.4678 11.7961 18.7377 11.7961 19.0191C11.7961 19.3006 11.9079 19.5705 12.1069 19.7695C12.3059 19.9685 12.5758 20.0803 12.8573 20.0803H17.6736C17.9551 20.0803 18.225 19.9685 18.424 19.7695C18.623 19.5705 18.7348 19.3006 18.7348 19.0191C18.7348 18.7377 18.623 18.4678 18.424 18.2688C18.225 18.0697 17.9551 17.9579 17.6736 17.9579H12.8573Z" fill="#323544"/>
<g opacity="0.5">
<path d="M20.9383 17.9576C21.2198 17.9576 21.4904 18.0695 21.6894 18.2685C21.8883 18.4674 22.0002 18.7375 22.0003 19.0188C22.0003 19.3002 21.8884 19.5709 21.6894 19.7699C21.4904 19.9689 21.2197 20.0807 20.9383 20.0807L17.6738 20.0803C17.9552 20.0803 18.2251 19.9685 18.4241 19.7695C18.6231 19.5705 18.735 19.3006 18.735 19.0191C18.735 18.7377 18.6231 18.4678 18.4241 18.2688C18.2251 18.0697 17.9552 17.9579 17.6738 17.9579L20.9383 17.9576Z" fill="#323544"/>
<path d="M17.8363 15.1819C18.1176 15.1819 18.3876 15.2939 18.5866 15.4928C18.7855 15.6917 18.8973 15.9618 18.8974 16.2431C18.8974 16.5245 18.7856 16.7951 18.5866 16.9942C18.3876 17.193 18.1176 17.305 17.8363 17.305L14.6531 17.3047C14.9346 17.3047 15.2045 17.1929 15.4035 16.9938C15.6025 16.7948 15.7143 16.5249 15.7143 16.2435C15.7143 15.962 15.6025 15.6921 15.4035 15.4931C15.2045 15.2941 14.9346 15.1823 14.6531 15.1823L17.8363 15.1819Z" fill="#323544"/>
<path d="M14.8164 12.4078C15.0927 12.4156 15.3553 12.5303 15.548 12.7285C15.7407 12.9266 15.8483 13.1926 15.8483 13.469C15.8482 13.7452 15.7406 14.0106 15.548 14.2087C15.3553 14.4068 15.0927 14.5224 14.8164 14.5301L11.6333 14.5298C11.9096 14.5221 12.172 14.4069 12.3647 14.2087C12.5574 14.0105 12.6652 13.745 12.6652 13.4686C12.6652 13.1922 12.5574 12.9267 12.3647 12.7286C12.1961 12.5553 11.9742 12.4451 11.7364 12.4152L11.6333 12.4075L14.8164 12.4078Z" fill="#323544"/>
<path d="M17.8363 9.46857C18.1125 9.47632 18.3752 9.59111 18.5678 9.78919C18.7605 9.98736 18.8681 10.2533 18.8681 10.5297C18.8681 10.806 18.7604 11.0713 18.5678 11.2694C18.3752 11.4676 18.1126 11.5831 17.8363 11.5908L14.6531 11.5908C14.9346 11.5908 15.2045 11.479 15.4035 11.28C15.6025 11.081 15.7143 10.8111 15.7143 10.5296C15.7143 10.2482 15.6025 9.97829 15.4035 9.77928C15.2045 9.58027 14.9346 9.46846 14.6531 9.46846L17.8363 9.46857Z" fill="#323544"/>
<path d="M16.1225 3.91797C16.4039 3.91802 16.6738 4.02986 16.8728 4.22882C17.0717 4.42781 17.1836 4.69771 17.1837 4.9791C17.1837 5.26048 17.0717 5.53038 16.8728 5.72938C16.6738 5.92834 16.4039 6.04018 16.1225 6.04024L12.9391 6.04034C13.2154 6.0326 13.4777 5.9174 13.6704 5.71923C13.8631 5.52106 13.9709 5.25556 13.9709 4.97915C13.9709 4.70275 13.8631 4.43724 13.6704 4.23908C13.4777 4.04091 13.2154 3.92571 12.9391 3.91797H16.1225Z" fill="#323544"/>
<path d="M20.3662 6.69368C20.6425 6.70143 20.9051 6.81695 21.0978 7.01511C21.2903 7.21324 21.3981 7.47855 21.3981 7.75481C21.3981 8.03107 21.2903 8.29638 21.0978 8.49451C20.9051 8.69267 20.6425 8.8082 20.3662 8.81594L17.183 8.816C17.4593 8.80826 17.7216 8.69306 17.9143 8.49489C18.107 8.29673 18.2148 8.03122 18.2148 7.75482C18.2148 7.47841 18.107 7.21291 17.9143 7.01474C17.7216 6.81658 17.4593 6.70138 17.183 6.69363L20.3662 6.69368Z" fill="#323544"/>
</g>
</svg>
