<svg width="24" height="24" viewBox="0 0 24 24" fill="none" xmlns="http://www.w3.org/2000/svg">
<path d="M17.5377 4.96982C17.67 4.95537 17.8039 4.97251 17.9283 5.01963C18.0527 5.06673 18.164 5.14291 18.2535 5.24131C18.343 5.33972 18.4088 5.45773 18.4439 5.58603L21.985 18.5011C22.0021 18.5637 22.0052 18.6297 21.9928 18.6935C21.9803 18.757 21.953 18.8168 21.9137 18.8683C21.8741 18.9199 21.8226 18.9616 21.7643 18.9903C21.7059 19.019 21.6418 19.0345 21.5768 19.0343H17.0582C17.8808 18.0812 18.3337 16.8636 18.3336 15.6046V15.4571C18.3335 14.2253 17.8854 13.0353 17.0728 12.1095L16.4918 9.19736C16.48 9.13668 16.4533 9.07971 16.4137 9.03232C16.3738 8.98486 16.3221 8.94805 16.2643 8.92588C16.2064 8.90373 16.1439 8.89671 16.0826 8.90537C16.0213 8.91404 15.9631 8.93833 15.9137 8.97568L13.7252 10.6163C13.6483 10.674 13.559 10.7131 13.4644 10.7306C13.37 10.748 13.2727 10.7432 13.1803 10.7169C12.409 10.4965 11.5912 10.4966 10.8199 10.7169C10.7276 10.7432 10.6301 10.7481 10.5357 10.7306C10.4413 10.7131 10.3518 10.674 10.275 10.6163L8.08554 8.97373C8.03632 8.93697 7.97844 8.91368 7.91757 8.90537C7.8566 8.89712 7.79423 8.90449 7.73691 8.92685C7.67958 8.94927 7.6287 8.98587 7.58945 9.0333C7.55019 9.08078 7.52356 9.13776 7.5123 9.19834L6.9498 12.2413C6.12772 13.077 5.66734 14.2028 5.66757 15.3751V15.6524C5.66761 16.8806 6.10624 18.0688 6.90683 19.002L6.93418 19.0343L2.42343 19.0353C2.35852 19.0353 2.29415 19.02 2.23593 18.9913C2.17759 18.9624 2.12597 18.92 2.08652 18.8683C2.04717 18.8165 2.02074 18.7563 2.0084 18.6925C1.99608 18.6287 1.99799 18.5627 2.01523 18.5001L5.57578 5.58603C5.6111 5.4578 5.67659 5.33959 5.76621 5.24131C5.85577 5.14317 5.9671 5.06753 6.0914 5.0206C6.21581 4.97369 6.34987 4.95623 6.48203 4.9708C6.61435 4.98546 6.74186 5.03148 6.85312 5.10459L11.5377 8.17685C11.6751 8.26687 11.8363 8.31552 12.0006 8.31552C12.1648 8.31549 12.3251 8.26679 12.4625 8.17685L17.1666 5.10263C17.2779 5.02971 17.4054 4.98429 17.5377 4.96982Z" fill="#323544"/>
<path d="M10.9449 13.544V16.4991H9.67832L9.86972 13.544H10.9449Z" fill="#323544"/>
<path d="M14.3219 16.4991H13.0553V13.544H14.1305L14.3219 16.4991Z" fill="#323544"/>
</svg>
