<svg width="24" height="24" viewBox="0 0 24 24" fill="none" xmlns="http://www.w3.org/2000/svg">
<path d="M15.294 20.6288C10.494 20.6288 6.588 16.7288 6.588 11.9338C6.588 10.7658 7.536 9.81778 8.706 9.81778C9.876 9.81778 10.826 10.7658 10.826 11.9338C10.8279 13.1177 11.2993 14.2526 12.137 15.0893C12.9747 15.926 14.11 16.3963 15.294 16.3968C16.478 16.3963 17.6133 15.926 18.451 15.0893C19.2887 14.2526 19.7601 13.1177 19.762 11.9338V8.97078C19.762 7.80178 20.712 6.85478 21.882 6.85478C23.051 6.85478 24 7.80078 24 8.97078V11.9338C24 16.7278 20.094 20.6288 15.294 20.6288Z" fill="#323544"/>
<path d="M2.119 17.0748C1.84091 17.075 1.56549 17.0205 1.30848 16.9143C1.05146 16.8081 0.817896 16.6523 0.621116 16.4558C0.424335 16.2593 0.268198 16.0259 0.161625 15.7691C0.0550522 15.5122 0.000131238 15.2369 0 14.9588V11.9948C0 7.20078 3.906 3.30078 8.706 3.30078C13.506 3.30078 17.412 7.20078 17.412 11.9948C17.4119 12.2728 17.357 12.548 17.2505 12.8048C17.144 13.0616 16.9879 13.2949 16.7912 13.4914C16.5946 13.6879 16.3611 13.8437 16.1042 13.95C15.8473 14.0563 15.572 14.1109 15.294 14.1108C15.0158 14.1112 14.7403 14.0567 14.4832 13.9506C14.226 13.8444 13.9924 13.6887 13.7955 13.4921C13.5986 13.2956 13.4424 13.0622 13.3357 12.8053C13.2291 12.5484 13.1741 12.273 13.174 11.9948C13.1719 10.811 12.7003 9.67639 11.8626 8.83989C11.025 8.00339 9.88979 7.53331 8.706 7.53278C7.52221 7.53331 6.38698 8.00339 5.54935 8.83989C4.71172 9.67639 4.24012 10.811 4.238 11.9948V14.9588C4.23787 15.237 4.18291 15.5124 4.07628 15.7693C3.96964 16.0262 3.81342 16.2596 3.61653 16.4561C3.41964 16.6527 3.18596 16.8084 2.92883 16.9146C2.6717 17.0207 2.39718 17.0752 2.119 17.0748Z" fill="#323544"/>
</svg>
