<svg width="24" height="24" viewBox="0 0 24 24" fill="none" xmlns="http://www.w3.org/2000/svg">
<path d="M7.82338 5.26102L2.0509 16.746C1.99384 16.8599 1.98434 16.9919 2.0245 17.1128C2.06466 17.2337 2.15118 17.3338 2.26506 17.391L5.37589 18.9543C5.4323 18.9827 5.49375 18.9997 5.55674 19.0044C5.61973 19.0091 5.68302 19.0013 5.743 18.9814C5.80297 18.9616 5.85846 18.9302 5.90628 18.8889C5.9541 18.8477 5.99333 18.7974 6.02172 18.741L11.7934 7.25602C11.8217 7.19956 11.8387 7.13806 11.8433 7.07503C11.8479 7.012 11.84 6.94869 11.8202 6.88871C11.8003 6.82873 11.7687 6.77325 11.7274 6.72546C11.6861 6.67767 11.6357 6.6385 11.5792 6.61019L8.46838 5.04769C8.412 5.01921 8.35055 5.00216 8.28756 4.99752C8.22457 4.99288 8.16128 5.00073 8.10134 5.02064C8.04139 5.04054 7.98598 5.0721 7.93827 5.1135C7.89057 5.15489 7.85152 5.20448 7.82338 5.26102Z" fill="#323544"/>
<path d="M18.0367 5.09102H21.5192C21.7842 5.09102 22 5.30769 22 5.57186V18.426C22 18.5536 21.9494 18.676 21.8592 18.7663C21.7691 18.8566 21.6468 18.9074 21.5192 18.9076H18.0367C17.9091 18.9074 17.7868 18.8566 17.6966 18.7663C17.6065 18.676 17.5558 18.5536 17.5558 18.426V5.57269C17.5558 5.30769 17.7717 5.09102 18.0367 5.09102Z" fill="#323544"/>
<path d="M12.6784 5.30186L10.2075 17.821C10.1828 17.9459 10.2087 18.0754 10.2794 18.1812C10.3502 18.287 10.4602 18.3604 10.585 18.3851L13.9975 19.0735C14.2592 19.126 14.5142 18.9568 14.565 18.6951L17.035 6.17685C17.0595 6.05201 17.0336 5.92253 16.9628 5.81678C16.8921 5.71104 16.7823 5.63765 16.6575 5.61269L13.2442 4.92352C13.1821 4.91103 13.1182 4.91091 13.0561 4.92317C12.994 4.93544 12.9349 4.95985 12.8823 4.995C12.8296 5.03015 12.7844 5.07535 12.7493 5.12801C12.7142 5.18067 12.6906 5.23975 12.6784 5.30186Z" fill="#323544"/>
</svg>
