<svg width="24" height="24" viewBox="0 0 24 24" fill="none" xmlns="http://www.w3.org/2000/svg">
<path d="M14.3581 6.59237C14.6537 6.57038 14.9509 6.59289 15.2398 6.65906L15.2699 6.66557L15.2886 6.67127H15.2911L15.2935 6.67208C15.2935 6.67208 15.293 6.67874 14.8958 8.15975L15.2951 6.67208L15.4684 6.72088L15.6262 6.80547C16.4291 7.23525 16.6578 7.97651 16.7177 8.36797C16.7548 8.61746 16.7519 8.87155 16.7104 9.12034L16.708 9.13498V9.13905L15.1609 8.83078L16.7072 9.13987L16.699 9.18541L16.4493 10.1761C16.4011 10.4191 16.3948 10.5583 16.3973 10.6316C16.396 10.6619 16.401 10.6925 16.4111 10.7211C16.422 10.7462 16.4468 10.8014 16.5388 10.9407C16.5746 10.9956 16.6126 11.0497 16.6592 11.1188L16.7072 11.1888C16.7738 11.287 16.8524 11.4029 16.9357 11.532C17.4546 12.3399 17.5052 13.1162 17.5018 13.6134V13.6354L17.7003 13.7005L17.7857 13.7265L17.9134 13.768C17.9766 13.7879 18.0573 13.8145 18.1355 13.8428C18.2271 13.6746 18.4748 13.3125 18.9228 13.3125C19.504 13.3125 19.7447 14.1251 19.7476 14.1348C19.9766 15.6656 18.9313 20.8086 17.4205 21.7675C16.2662 22.5004 15.4109 21.4121 14.7754 19.7382C14.6338 19.7082 14.4782 19.6755 14.3199 19.6406C13.7369 19.514 12.9458 19.336 12.5736 19.2127L12.5459 19.2038L12.5199 19.194C12.355 19.1324 12.0745 19.0639 11.6114 18.9581L11.526 18.9394C11.1262 18.8478 10.6348 18.7361 10.1684 18.5954C9.68701 18.4488 9.09039 18.2311 8.58316 17.8772C8.05179 17.5057 7.44683 16.8509 7.41352 15.8681C7.40883 15.7266 7.41197 15.5848 7.42165 15.4435C7.15404 15.1525 6.96705 14.7962 6.87994 14.4105C6.80111 14.0599 6.80991 13.6948 6.90516 13.3483C6.97429 13.0844 7.07964 12.8536 7.16788 12.6821C7.19785 12.6238 7.22898 12.5655 7.25979 12.5105C6.9683 12.4181 6.63773 12.3038 6.31627 12.1673C5.89734 11.9882 5.30183 11.6928 4.85708 11.2172C4.56271 10.9097 4.35823 10.5274 4.26575 10.1119C4.16715 9.6377 4.23324 9.14408 4.45364 8.71284C4.95671 7.7067 5.91723 7.35116 6.77095 7.32034C7.54221 7.29286 8.3634 7.50869 9.09884 7.76688C9.76841 8.00174 10.7269 8.4388 11.5414 8.81939C11.8096 8.37879 12.1639 7.88122 12.4988 7.47976L12.5655 7.40086L12.6419 7.33091C13.1149 6.89934 13.7196 6.6394 14.3581 6.59237ZM14.8958 8.15975C14.8907 8.15836 14.2709 7.98955 13.7383 8.45988C13.7327 8.46452 13.7267 8.46891 13.7213 8.47371C13.6802 8.52309 13.6399 8.57305 13.6001 8.62337L13.5789 8.65021C13.3615 8.92673 13.2372 9.13688 13.1015 9.36842C12.9033 9.70562 12.6794 10.0871 12.1026 10.7796L11.2909 10.4022C11.0827 10.3048 10.8626 10.2005 10.6377 10.0964C9.91422 9.76003 9.14749 9.41445 8.59536 9.2212C7.23615 8.74398 6.23382 8.6828 5.86729 9.4156C5.38421 10.3818 7.34406 10.9414 8.32938 11.2229H8.33264L8.3489 11.2278C8.74786 11.0096 9.24129 10.8664 9.75686 10.8081C10.6661 10.7128 11.5846 10.8608 12.4182 11.2359C13.5182 11.724 14.1081 12.7514 14.3313 13.6907C14.4431 14.1531 14.471 14.632 14.4143 15.1044C14.3585 15.5383 14.21 16.0014 13.9018 16.3545C13.2605 17.089 12.3155 17.0061 11.8033 16.8979C11.5151 16.8371 11.2609 16.7466 11.0819 16.675C10.986 16.6364 10.8914 16.5946 10.7988 16.5489L10.7785 16.5383L10.7687 16.5335C10.5885 16.4365 10.4533 16.2727 10.3929 16.0772C10.3325 15.8816 10.3517 15.67 10.4458 15.4883C10.54 15.3066 10.7018 15.1694 10.8964 15.106C11.091 15.0426 11.3029 15.0577 11.4861 15.1491L11.491 15.1515C11.6935 15.2503 11.907 15.3252 12.127 15.3736C12.5375 15.4602 12.6864 15.378 12.7281 15.3297C12.7623 15.2914 12.8355 15.1617 12.8688 14.9035C12.9004 14.6587 12.8868 14.359 12.8135 14.0502C12.6636 13.4181 12.3051 12.8917 11.7862 12.6618C11.2054 12.3985 10.5654 12.2933 9.93092 12.3576C9.37622 12.4201 9.08325 12.6294 8.98496 12.7285C8.5952 13.1183 8.40015 13.508 8.40015 13.7029C8.40011 13.7191 8.3968 13.7255 8.39039 13.7257C8.37623 13.8589 8.38573 13.9842 8.41072 14.0925C8.44007 14.229 8.50931 14.3537 8.60918 14.4512C8.84005 14.6739 9.16821 14.6765 9.17936 14.6765C9.17395 14.6905 8.96368 15.2371 8.98496 15.8453C8.98919 15.976 9.02492 16.104 9.08908 16.2179C9.46221 16.8892 10.7674 17.1856 11.8635 17.4355C12.324 17.5413 12.7471 17.637 13.0494 17.7495C13.3409 17.8461 14.1151 18.0203 14.7697 18.1618C15.142 18.2101 15.6676 18.219 16.1939 18.0317C16.966 17.7585 17.2249 16.8437 17.4856 15.9251C17.5439 15.7185 17.602 15.5109 17.667 15.311L17.6181 15.2914C17.5466 15.2648 17.4506 15.2353 17.3408 15.2003C16.8827 15.0571 16.1861 14.8361 15.9995 14.4821C15.9088 14.3098 15.9164 14.0784 15.9247 13.8087C15.9372 13.388 15.9539 12.8736 15.6107 12.3381C15.5258 12.2066 15.4441 12.0885 15.3692 11.9777C14.9386 11.3489 14.6772 10.9667 14.9137 9.81253L15.1609 8.83078C15.1634 8.8173 15.2463 8.34692 14.8958 8.15975Z" fill="#323544"/>
<path d="M5.22635 3.9066C5.42187 3.83977 5.63618 3.85391 5.82174 3.94483C6.43631 4.24629 7.13583 4.62173 7.81533 5.38776C7.94699 5.54316 8.01281 5.74419 7.99834 5.94736C7.98384 6.1505 7.8904 6.34009 7.73806 6.47524C7.58577 6.61029 7.38664 6.68022 7.18333 6.67045C6.97994 6.66061 6.78836 6.57155 6.64976 6.42237C6.17251 5.88515 5.69079 5.61619 5.13525 5.34383C4.94989 5.25281 4.80847 5.09184 4.74158 4.89648C4.67473 4.70094 4.68807 4.48665 4.77899 4.30108C4.87007 4.11559 5.03081 3.97344 5.22635 3.9066Z" fill="#323544"/>
<path d="M12.8575 2.42218C13.0581 2.37315 13.2705 2.40618 13.4472 2.51328C13.6236 2.62051 13.7502 2.79344 13.7993 2.99399C13.8485 3.19455 13.816 3.40621 13.7091 3.58287C13.4134 4.06923 13.2417 4.56671 13.0543 5.31618C13.0304 5.41633 12.9872 5.5111 12.9266 5.59435C12.866 5.67757 12.7892 5.74827 12.7013 5.80177C12.6132 5.85524 12.5152 5.89122 12.4133 5.90669C12.3116 5.92212 12.2074 5.91697 12.1075 5.89205C12.0075 5.86705 11.9128 5.82269 11.8302 5.7611C11.7475 5.6995 11.6777 5.62203 11.6252 5.53335C11.5726 5.44467 11.5387 5.34587 11.5243 5.24379C11.5101 5.14191 11.5162 5.03831 11.5422 4.93877C11.7446 4.13003 11.962 3.45735 12.3767 2.77438C12.4841 2.598 12.6569 2.47122 12.8575 2.42218Z" fill="#323544"/>
<path d="M9.29567 2.00899C9.3975 2.02446 9.49558 2.05963 9.58361 2.1131C9.67164 2.1666 9.74826 2.23725 9.80892 2.32051C9.86956 2.40381 9.91271 2.49846 9.93662 2.59869C9.98908 2.81186 10.0467 3.02165 10.1034 3.23149L10.1074 3.24451C10.239 3.72758 10.3698 4.21108 10.4539 4.71997C10.4706 4.82098 10.4674 4.92447 10.4442 5.02418C10.4209 5.12368 10.3784 5.21764 10.3189 5.30072C10.2593 5.3839 10.1837 5.45489 10.0969 5.50895C10.0099 5.56299 9.91313 5.59963 9.81217 5.61632C9.71118 5.63299 9.60765 5.62979 9.50797 5.60655C9.40826 5.58331 9.31382 5.54011 9.2306 5.48048C9.0627 5.36005 8.94949 5.17763 8.91583 4.97375C8.84504 4.54328 8.74696 4.18349 8.62789 3.74717V3.74555C8.56544 3.5174 8.49699 3.26832 8.42455 2.97691C8.39847 2.87721 8.39233 2.77313 8.40665 2.67108C8.42099 2.56904 8.45581 2.47098 8.50833 2.38233C8.56081 2.29377 8.62997 2.21614 8.71248 2.15458C8.79515 2.09299 8.88983 2.04782 8.98984 2.02282C9.08975 1.99789 9.19387 1.99356 9.29567 2.00899Z" fill="#323544"/>
</svg>
