<svg width="24" height="24" viewBox="0 0 24 24" fill="none" xmlns="http://www.w3.org/2000/svg">
<path d="M14.3102 10.3097L12.9798 11.6393H15.9723V12.4304H12.9798L14.3094 13.76L13.75 14.3193L12.0257 12.5942L10.3006 14.3193L9.74128 13.76L11.0708 12.4304H8.07833V11.6393H11.07L9.74044 10.3097L10.2998 9.75039L12.0257 11.4755L13.7509 9.75039L14.3102 10.3097Z" fill="#323544"/>
<path d="M12.0006 2.00001C17.5227 2.00001 21.9993 6.47823 21.9993 12.0004C21.9993 14.6863 20.9385 17.1228 19.2151 18.9185C19.1206 19.0216 19.0217 19.1205 18.9186 19.215C17.0601 21.0039 14.5802 22.0023 12.0006 22C6.47836 21.9992 2.00098 17.5234 2.00098 12.0004C2.00098 9.32289 3.05502 6.89313 4.76921 5.09747C4.87383 4.98191 4.98398 4.87147 5.09928 4.76656C6.9566 2.98851 9.42935 1.99724 12.0006 2.00001ZM3.55139 15.6656C4.96826 18.9277 8.21775 21.2088 12.0006 21.2088C13.1932 21.2088 14.332 20.9787 15.3785 20.5663C14.7503 20.5866 14.1218 20.5342 13.5056 20.4101C12.1072 20.1346 10.6534 19.5123 9.27599 18.5792C7.64159 18.2651 6.17265 17.6771 4.98926 16.8826C4.46458 16.5342 3.98207 16.1252 3.55139 15.6656ZM19.6384 16.4207C19.4365 16.5839 19.2274 16.738 19.0118 16.8826C17.2002 18.0979 14.7201 18.837 11.9997 18.837C11.7511 18.837 11.5042 18.8278 11.2606 18.816C12.0669 19.2049 12.8749 19.4804 13.6576 19.6349C15.6271 20.0229 17.3758 19.6475 18.5121 18.5111C19.074 17.9484 19.4494 17.2371 19.6384 16.4207ZM11.9997 5.95331C9.41541 5.95331 7.09399 6.65712 5.42935 7.77332C4.99193 8.06426 4.58653 8.40068 4.21993 8.77697C4.21267 9.30245 4.26109 9.82722 4.36439 10.3425C4.75241 12.3078 5.89801 14.4478 7.72474 16.2754C8.31685 16.8675 8.94256 17.3866 9.58339 17.8334C10.3527 17.9711 11.1624 18.0467 11.9997 18.0467C14.584 18.0467 16.9071 17.3429 18.5717 16.2258C19.0086 15.9351 19.4134 15.599 19.7795 15.223C19.7867 14.6975 19.7383 14.1728 19.635 13.6575C19.2478 11.6913 18.1031 9.55218 16.2755 7.72461C15.7032 7.15139 15.0812 6.63003 14.4169 6.16664C13.619 6.02421 12.8102 5.95282 11.9997 5.95331ZM3.47244 9.72267C3.02899 10.4332 2.79214 11.2042 2.79214 11.9996C2.79214 13.6063 3.7622 15.108 5.42935 16.2258C6.09118 16.671 6.85798 17.0472 7.70374 17.3429C7.52039 17.1777 7.34116 17.008 7.16622 16.8339C5.2429 14.9106 4.01164 12.6345 3.59002 10.4945C3.53943 10.2391 3.5002 9.98157 3.47244 9.72267ZM16.2974 6.65712C16.4788 6.8209 16.6585 6.98971 16.8349 7.16525C18.7582 9.08857 19.9895 11.3646 20.4111 13.5046C20.4615 13.7633 20.5001 14.0203 20.5278 14.2748C20.9704 13.5651 21.209 12.7949 21.209 11.9996C21.209 10.3929 20.2381 8.89204 18.5717 7.77332C17.9091 7.32903 17.1431 6.95276 16.2974 6.65712ZM12.0006 2.79117C10.8079 2.79117 9.66821 3.01962 8.62257 3.43284C9.25081 3.41253 9.87929 3.46495 10.4955 3.58905C11.8939 3.86453 13.3494 4.48772 14.7268 5.42082C16.3604 5.73494 17.8293 6.32369 19.0118 7.11738C19.5359 7.46594 20.0179 7.87404 20.448 8.33352C19.7333 6.68696 18.553 5.28516 17.0522 4.3005C15.5514 3.31583 13.7955 2.79122 12.0006 2.79117ZM10.3426 4.36426C8.37312 3.97624 6.6245 4.3525 5.48815 5.48801C4.92543 6.05073 4.55 6.76379 4.36103 7.57931C4.56008 7.41805 4.77005 7.26435 4.98926 7.11738C6.80003 5.90207 9.27935 5.16382 11.9997 5.16382C12.2483 5.16382 12.4944 5.17138 12.7388 5.18314C11.978 4.80983 11.1728 4.53467 10.3426 4.36426Z" fill="#323544"/>
</svg>
