<svg width="24" height="24" viewBox="0 0 24 24" fill="none" xmlns="http://www.w3.org/2000/svg">
<path d="M15.0736 4.0017C14.6709 3.60984 14.1313 3.39058 13.5694 3.39058C13.0076 3.39058 12.4679 3.60984 12.0653 4.0017L4.04366 11.8683C3.90943 11.9988 3.72961 12.0718 3.54242 12.0718C3.35522 12.0718 3.17541 11.9988 3.04117 11.8683C2.97545 11.8044 2.92322 11.7279 2.88755 11.6435C2.85187 11.559 2.8335 11.4683 2.8335 11.3766C2.8335 11.285 2.85187 11.1942 2.88755 11.1098C2.92322 11.0253 2.97545 10.9489 3.04117 10.885L11.0628 3.01837C11.7338 2.36537 12.6331 2 13.5694 2C14.5057 2 15.4051 2.36537 16.0761 3.01837C16.4643 3.39596 16.7576 3.86011 16.932 4.37285C17.1064 4.88559 17.1569 5.43234 17.0794 5.96835C17.6225 5.8911 18.1761 5.93959 18.6975 6.11007C19.219 6.28056 19.6943 6.56849 20.0869 6.95167L20.1285 6.99334C20.4571 7.3129 20.7183 7.6951 20.8967 8.11734C21.075 8.53958 21.1669 8.99329 21.1669 9.45165C21.1669 9.91001 21.075 10.3637 20.8967 10.786C20.7183 11.2082 20.4571 11.5904 20.1285 11.91L12.8736 19.0241C12.8517 19.0453 12.8343 19.0708 12.8224 19.0989C12.8105 19.1271 12.8044 19.1573 12.8044 19.1878C12.8044 19.2183 12.8105 19.2486 12.8224 19.2767C12.8343 19.3048 12.8517 19.3303 12.8736 19.3516L14.3636 20.8132C14.4293 20.8771 14.4815 20.9536 14.5172 21.038C14.5529 21.1225 14.5712 21.2132 14.5712 21.3049C14.5712 21.3965 14.5529 21.4873 14.5172 21.5717C14.4815 21.6562 14.4293 21.7326 14.3636 21.7965C14.2293 21.927 14.0495 22 13.8623 22C13.6751 22 13.4953 21.927 13.3611 21.7965L11.8711 20.3357C11.7176 20.1866 11.5956 20.0082 11.5123 19.8111C11.429 19.614 11.3861 19.4022 11.3861 19.1882C11.3861 18.9742 11.429 18.7624 11.5123 18.5653C11.5956 18.3682 11.7176 18.1899 11.8711 18.0407L19.126 10.9258C19.3231 10.734 19.4797 10.5047 19.5867 10.2513C19.6936 9.998 19.7487 9.7258 19.7487 9.45082C19.7487 9.17583 19.6936 8.90364 19.5867 8.6503C19.4797 8.39697 19.3231 8.16763 19.126 7.97583L19.0844 7.935C18.6822 7.54355 18.1432 7.32431 17.582 7.32384C17.0207 7.32337 16.4814 7.54172 16.0786 7.9325L10.1019 13.7941L10.1003 13.7958L10.0186 13.8766C9.88434 14.0073 9.70434 14.0805 9.51695 14.0805C9.32955 14.0805 9.14956 14.0073 9.01529 13.8766C8.94957 13.8127 8.89733 13.7363 8.86166 13.6518C8.82599 13.5674 8.80761 13.4766 8.80761 13.3849C8.80761 13.2933 8.82599 13.2025 8.86166 13.1181C8.89733 13.0336 8.94957 12.9572 9.01529 12.8933L15.0761 6.94917C15.2726 6.75725 15.4287 6.52793 15.5352 6.27474C15.6417 6.02154 15.6964 5.74959 15.6962 5.47491C15.696 5.20023 15.6408 4.92837 15.5338 4.67536C15.4269 4.42234 15.2704 4.19329 15.0736 4.0017Z" fill="#323544"/>
<path d="M14.0711 5.96835C14.1368 5.90444 14.189 5.828 14.2247 5.74355C14.2604 5.6591 14.2788 5.56836 14.2788 5.47669C14.2788 5.38501 14.2604 5.29427 14.2247 5.20982C14.189 5.12538 14.1368 5.04894 14.0711 4.98502C13.9368 4.8543 13.7568 4.78116 13.5694 4.78116C13.382 4.78116 13.202 4.8543 13.0677 4.98502L7.1353 10.8033C6.80671 11.1229 6.54551 11.5051 6.36716 11.9273C6.18881 12.3495 6.09692 12.8033 6.09692 13.2616C6.09692 13.72 6.18881 14.1737 6.36716 14.5959C6.54551 15.0182 6.80671 15.4004 7.1353 15.7199C7.80641 16.3727 8.70571 16.738 9.64195 16.738C10.5782 16.738 11.4775 16.3727 12.1486 15.7199L18.0819 9.90165C18.1476 9.83773 18.1998 9.76129 18.2355 9.67685C18.2712 9.5924 18.2895 9.50166 18.2895 9.40998C18.2895 9.31831 18.2712 9.22757 18.2355 9.14312C18.1998 9.05867 18.1476 8.98223 18.0819 8.91832C17.9476 8.7876 17.7676 8.71445 17.5802 8.71445C17.3928 8.71445 17.2128 8.7876 17.0785 8.91832L11.1461 14.7366C10.7435 15.1285 10.2038 15.3477 9.64195 15.3477C9.0801 15.3477 8.54043 15.1285 8.13779 14.7366C7.94074 14.5448 7.78412 14.3155 7.67717 14.0621C7.57022 13.8088 7.51512 13.5366 7.51512 13.2616C7.51512 12.9866 7.57022 12.7144 7.67717 12.4611C7.78412 12.2078 7.94074 11.9784 8.13779 11.7866L14.0711 5.96835Z" fill="#323544"/>
</svg>
