<svg width="24" height="24" viewBox="0 0 24 24" fill="none" xmlns="http://www.w3.org/2000/svg">
<path d="M20.2242 4.38144C20.2314 4.38138 20.2383 4.38406 20.2437 4.38894L20.6351 4.76767C20.6404 4.77217 20.6426 4.77892 20.6426 4.78567C20.6426 4.79317 20.6404 4.79917 20.6351 4.80442L20.2414 5.21315C20.2169 5.23853 20.2032 5.27239 20.2032 5.30765C20.2001 9.23372 20.2001 13.1598 20.2032 17.0859C20.2032 17.4893 20.1919 17.7938 20.1672 17.9978C20.1602 18.0555 20.1507 18.1128 20.1387 18.1696C20.0722 18.4461 19.9624 18.7104 19.8132 18.9525C19.5836 19.3219 19.2665 19.629 18.89 19.8465C18.6408 19.9899 18.3704 20.0929 18.089 20.1517C17.9197 20.1794 17.7484 20.1937 17.5768 20.1945C17.3866 20.2003 17.1963 20.2015 17.0061 20.1982L16.8928 20.1975L5.14234 20.196C5.12353 20.1962 5.10504 20.2008 5.08834 20.2095C5.07833 20.2151 5.06922 20.2221 5.06135 20.2305L4.32413 20.9932C4.32203 20.9953 4.31952 20.9971 4.31676 20.9982C4.31399 20.9994 4.31101 21 4.308 21C4.305 21 4.30202 20.9994 4.29925 20.9982C4.29648 20.9971 4.29398 20.9953 4.29188 20.9932L3.8944 20.61C3.89227 20.6077 3.8905 20.6052 3.88915 20.6025C3.88795 20.5996 3.88734 20.5966 3.88734 20.5935C3.88734 20.5904 3.88795 20.5873 3.88915 20.5845C3.89037 20.5816 3.89215 20.5791 3.8944 20.577L6.1053 18.2888C6.1074 18.2865 6.10996 18.2847 6.1128 18.2835C6.11564 18.2823 6.1187 18.2816 6.1218 18.2816C6.1249 18.2816 6.12796 18.2823 6.1308 18.2835C6.13364 18.2847 6.13619 18.2865 6.1383 18.2888L6.53353 18.6705C6.53825 18.6754 6.54093 18.6818 6.54103 18.6885C6.54101 18.6953 6.53831 18.7018 6.53353 18.7065L6.17505 19.0778C6.17298 19.0795 6.17152 19.0818 6.17087 19.0844C6.17021 19.087 6.17039 19.0898 6.17139 19.0923C6.17239 19.0948 6.17415 19.0969 6.17642 19.0983C6.1787 19.0998 6.18136 19.1004 6.18404 19.1003C9.3744 19.0988 13.155 19.0995 17.5265 19.101C17.8123 19.101 18.056 19.0485 18.257 18.9413C18.6605 18.7275 18.9245 18.4126 19.0497 17.9963C19.1397 17.6948 19.109 17.3679 19.109 16.9089V6.4131C19.1088 6.41092 19.108 6.40884 19.1067 6.4071C19.1058 6.40566 19.1046 6.40444 19.1032 6.40353C19.1018 6.40262 19.1001 6.40204 19.0985 6.40185H19.0947C19.0927 6.40235 19.0909 6.40339 19.0895 6.40485L18.4227 7.09407C18.4204 7.0966 18.4174 7.09838 18.4141 7.09918C18.4107 7.09998 18.4072 7.09977 18.404 7.09857C18.4017 7.0975 18.3997 7.09597 18.398 7.09407L17.9953 6.70558C17.9923 6.70276 17.9902 6.69912 17.9893 6.69512C17.9883 6.69112 17.9886 6.68694 17.99 6.68308C17.991 6.68031 17.9925 6.67777 17.9945 6.67559L20.2039 4.39044C20.2065 4.38763 20.2096 4.38538 20.2131 4.38383C20.2166 4.38228 20.2204 4.38147 20.2242 4.38144ZM19.7037 3.00075C19.7079 3.00162 19.7118 3.00371 19.7149 3.00675L20.1124 3.39073C20.1146 3.39284 20.1164 3.39537 20.1177 3.39818C20.1189 3.40098 20.1196 3.40401 20.1197 3.40708C20.1197 3.41014 20.1192 3.41319 20.1181 3.41605C20.117 3.41891 20.1153 3.42152 20.1132 3.42373L17.9008 5.71338C17.8975 5.71655 17.8933 5.71864 17.8888 5.71938C17.8843 5.72043 17.8796 5.72017 17.8753 5.71863C17.8724 5.71741 17.8699 5.71562 17.8678 5.71338L17.4733 5.33165C17.4686 5.32683 17.4659 5.32039 17.4658 5.31365C17.465 5.31065 17.4658 5.3069 17.4665 5.3039C17.468 5.30078 17.47 5.29798 17.4725 5.29565L17.831 4.92366C17.8329 4.92183 17.8342 4.91948 17.8348 4.91691C17.8353 4.9144 17.835 4.91179 17.8341 4.9094C17.8332 4.90701 17.8316 4.90493 17.8295 4.90341C17.8273 4.9019 17.8247 4.90111 17.822 4.90116C15.4281 4.90266 12.702 4.90266 9.64364 4.90266L6.42103 4.90191C6.18568 4.90153 5.95349 4.95624 5.74306 5.06166C5.33883 5.2754 5.07484 5.59038 4.9496 6.00661C4.8596 6.3096 4.8911 6.63659 4.8911 7.09557L4.8926 17.5966C4.89277 17.5988 4.89357 17.6009 4.8949 17.6026C4.89623 17.6043 4.89804 17.6056 4.9001 17.6063C4.90201 17.6071 4.90407 17.6074 4.9061 17.6071C4.90835 17.6067 4.91043 17.6056 4.9121 17.6041L5.57807 16.9149C5.57972 16.9132 5.58171 16.9118 5.5839 16.9109C5.58609 16.91 5.58845 16.9096 5.59082 16.9096H5.59457C5.59802 16.9104 5.60115 16.9123 5.60357 16.9149L6.0063 17.3041C6.00824 17.3061 6.00977 17.3084 6.0108 17.311C6.01183 17.3136 6.01234 17.3163 6.0123 17.3191C6.01234 17.3219 6.01183 17.3246 6.0108 17.3272C6.00977 17.3298 6.00824 17.3321 6.0063 17.3341L3.79615 19.62C3.79228 19.6239 3.7873 19.6265 3.7819 19.6275C3.77844 19.6282 3.77487 19.6282 3.7714 19.6275C3.76572 19.6267 3.76045 19.6241 3.7564 19.62L3.36492 19.242C3.3602 19.2372 3.35752 19.2308 3.35742 19.224C3.35742 19.2165 3.35967 19.2105 3.36492 19.2053L3.7594 18.7965C3.78395 18.7712 3.79766 18.7373 3.79765 18.702C3.80065 13.7365 3.7999 9.80819 3.79615 6.91782C3.79615 6.37935 3.81715 6.01786 3.86065 5.83337C3.97734 5.34146 4.23244 4.89325 4.59579 4.54172C4.95914 4.1902 5.41555 3.95006 5.91106 3.84971C6.0468 3.82121 6.30479 3.80546 6.68577 3.80321C6.82652 3.8021 6.96727 3.8026 7.108 3.80471H18.8637C18.8791 3.80478 18.8943 3.80176 18.9085 3.79583C18.9226 3.78991 18.9355 3.78119 18.9462 3.77022L19.6834 3.00675C19.6874 3.00269 19.6928 3.00028 19.6984 3L19.7037 3.00075Z" fill="#323544"/>
<path d="M9.10966 7.93928C9.1202 7.93907 9.13055 7.94203 9.13938 7.94778C9.14821 7.95353 9.1551 7.96181 9.15916 7.97153C9.78828 9.39073 10.4158 10.8107 11.0416 12.2313L11.9663 14.3267C11.976 14.3492 11.9858 14.3605 11.9948 14.3605C12.0038 14.3605 12.0135 14.3492 12.0233 14.3267C13.3545 11.3089 14.2904 9.18947 14.8312 7.97153C14.8353 7.96204 14.8421 7.95395 14.8508 7.94824C14.8594 7.94252 14.8695 7.93941 14.8799 7.93928H16.9296C16.9349 7.93928 16.9401 7.94141 16.9439 7.94521C16.9477 7.94901 16.9498 7.95416 16.9498 7.95953V16.5886C16.9498 16.596 16.9469 16.6031 16.9417 16.6083C16.9365 16.6135 16.9294 16.6164 16.9221 16.6164H14.9984C14.9942 16.6164 14.99 16.6156 14.9862 16.6139C14.9823 16.6123 14.9788 16.6099 14.9759 16.6069C14.9729 16.6039 14.9706 16.6003 14.9691 16.5964C14.9675 16.5925 14.9668 16.5883 14.9669 16.5841V12.5216C14.9669 12.5188 14.9658 12.5161 14.9639 12.5141L14.9624 12.5126L14.9594 12.5111L14.9572 12.5103C14.9549 12.5099 14.9525 12.5102 14.9504 12.5112C14.9482 12.5121 14.9464 12.5136 14.9452 12.5156L14.9444 12.5171L13.1265 16.5796C13.1218 16.5903 13.1142 16.5994 13.1045 16.6058C13.0947 16.6122 13.0834 16.6156 13.0717 16.6156C12.3538 16.6168 11.6358 16.6168 10.9178 16.6156C10.9138 16.6155 10.9098 16.615 10.9058 16.6141C10.8965 16.6122 10.8877 16.6081 10.8803 16.6021C10.8728 16.5961 10.8669 16.5884 10.8631 16.5796L9.04517 12.5171C9.04415 12.5145 9.0423 12.5124 9.03992 12.5111L9.03617 12.5103H9.03167C9.02904 12.5107 9.02665 12.5121 9.02492 12.5141C9.02329 12.5162 9.02249 12.5189 9.02267 12.5216V16.5841C9.02274 16.5905 9.02093 16.5968 9.01746 16.6021C9.01399 16.6074 9.00902 16.6116 9.00317 16.6141C8.99937 16.6157 8.99528 16.6165 8.99117 16.6164H7.06751C7.0638 16.6164 7.06013 16.6156 7.05671 16.6142C7.05329 16.6128 7.0502 16.6107 7.04761 16.608C7.04503 16.6053 7.043 16.6022 7.04165 16.5987C7.0403 16.5953 7.03966 16.5916 7.03976 16.5879V7.95878C7.03995 7.95354 7.04217 7.94858 7.04595 7.94494C7.04972 7.9413 7.05476 7.93927 7.06001 7.93928H9.10966Z" fill="#323544"/>
</svg>
