<svg width="24" height="24" viewBox="0 0 24 24" fill="none" xmlns="http://www.w3.org/2000/svg">
<path d="M18.2167 3.24333L19.5 4.53V10.75L18.2167 12.0083L16.9342 10.75V4.53L18.2167 3.24333ZM11.9925 3.24333L13.29 4.53V10.75L11.9925 12.0083L10.7092 10.75V4.53L11.9925 3.24333ZM5.78333 12.0083L4.5 10.7492V4.53L5.78333 3.24333L7.06583 4.53V10.75L5.78333 12.0083ZM4.5 13.2658L5.78333 12.0083L7.06583 13.2658V20.7417L5.7825 22L4.5 20.7417V13.2658ZM18.2167 22L16.9342 20.7417V13.265L18.2175 12.0067L19.5 13.2658V20.7425L18.2167 22ZM7.06667 2H10.7108L11.9942 3.24333L10.7108 4.53H7.06583L5.78333 3.24333L7.06667 2ZM16.935 2L18.2167 3.24333L16.9342 4.53H13.29L11.9925 3.24333L13.29 2H16.935Z" fill="#323544"/>
</svg>
