<svg width="24" height="24" viewBox="0 0 24 24" fill="none" xmlns="http://www.w3.org/2000/svg">
<path d="M12 2C17.5225 2 22 6.4775 22 12C22 17.5225 17.5225 22 12 22C6.4775 22 2 17.5225 2 12C2 6.4775 6.4775 2 12 2ZM12 5.02246C10.1495 5.02246 8.37494 5.75787 7.06641 7.06641C5.75787 8.37494 5.02246 10.1495 5.02246 12C5.02246 13.8505 5.75787 15.6251 7.06641 16.9336C8.29322 18.1604 9.92962 18.8833 11.6543 18.9688C11.7692 18.9744 11.8844 18.9775 12 18.9775C12.1156 18.9775 12.2308 18.9744 12.3457 18.9688C14.0704 18.8833 15.7068 18.1604 16.9336 16.9336C18.2421 15.6251 18.9775 13.8505 18.9775 12C18.9775 10.1495 18.2421 8.37494 16.9336 7.06641C15.6251 5.75787 13.8505 5.02246 12 5.02246Z" fill="#323544"/>
</svg>
