<svg width="24" height="24" viewBox="0 0 24 24" fill="none" xmlns="http://www.w3.org/2000/svg">
<path d="M21.5361 16.7578C21.6951 16.7475 21.8431 16.8386 21.9053 16.9853C21.9674 17.132 21.9304 17.3019 21.8125 17.4091C20.4211 18.6745 18.6821 19.7129 16.9102 20.5751C17.0995 20.689 17.2848 20.7558 17.5 20.7558C17.9087 20.7558 18.2115 20.5188 18.6338 20.164C19.0202 19.8394 19.5264 19.3964 20.25 19.3964C20.9736 19.3964 21.4798 19.8394 21.8662 20.164C22.2885 20.5188 22.5913 20.7558 23 20.7558C23.2071 20.7558 23.375 20.9237 23.375 21.1308C23.3748 21.3377 23.207 21.5058 23 21.5058C22.2764 21.5058 21.7702 21.0628 21.3838 20.7382C20.9614 20.3834 20.6588 20.1464 20.25 20.1464C19.8412 20.1464 19.5386 20.3834 19.1162 20.7382C18.7298 21.0628 18.2236 21.5058 17.5 21.5058C16.8513 21.5058 16.3784 21.1483 16.0088 20.8408C15.9609 20.8161 15.9178 20.7823 15.8838 20.7382C15.4614 20.3834 15.1588 20.1464 14.75 20.1464C14.3412 20.1464 14.0386 20.3834 13.6162 20.7382C13.2298 21.0628 12.7236 21.5058 12 21.5058C11.2764 21.5058 10.7702 21.0628 10.3838 20.7382C9.96141 20.3834 9.65875 20.1464 9.25 20.1464C8.84125 20.1464 8.53859 20.3834 8.11621 20.7382C7.72978 21.0628 7.22356 21.5058 6.5 21.5058C6.48507 21.5058 6.4699 21.5047 6.45508 21.5029C5.53566 21.3925 4.93941 20.9462 4.50977 20.5595C4.27935 20.3521 4.14434 20.2092 3.99023 20.0849C3.87642 19.9932 3.81082 19.9644 3.77441 19.956C3.67289 19.9765 3.57117 20.007 3.46973 20.0488C3.44512 20.0721 3.41824 20.0938 3.38672 20.1103C3.34628 20.1314 3.3035 20.1429 3.26074 20.1484C2.98593 20.2943 2.70844 20.4989 2.42383 20.7216C2.20052 20.8964 1.9651 21.0877 1.74805 21.2294C1.54026 21.3651 1.27877 21.5058 1 21.5058C0.793039 21.5058 0.625236 21.3377 0.625 21.1308C0.625 20.9237 0.792893 20.7558 1 20.7558C1.04448 20.7558 1.14675 20.7263 1.33789 20.6015C1.52014 20.4825 1.72023 20.3209 1.96191 20.1318C2.17769 19.9629 2.42613 19.7725 2.69922 19.6064L2.13965 18.5351C2.08086 18.4227 2.0833 18.2873 2.14551 18.1767C2.20777 18.0664 2.32178 17.9944 2.44824 17.9863L21.5361 16.7578ZM3.07129 18.6982L3.37891 19.2861C3.4796 19.2535 3.58188 19.2259 3.68652 19.208L3.75 19.2021C4.04561 19.2021 4.28352 19.3579 4.46094 19.5009C4.62998 19.6373 4.83829 19.8458 5.01172 20.0019C5.3868 20.3395 5.83698 20.6658 6.52246 20.7539C6.91989 20.7453 7.21924 20.5122 7.63379 20.164C8.02023 19.8394 8.5264 19.3964 9.25 19.3964C9.9736 19.3964 10.4798 19.8394 10.8662 20.164C11.2885 20.5188 11.5913 20.7558 12 20.7558C12.4087 20.7558 12.7115 20.5188 13.1338 20.164C13.5202 19.8394 14.0264 19.3964 14.75 19.3964C15.3998 19.3964 15.8733 19.7546 16.2432 20.0625C17.7363 19.3564 19.1942 18.5378 20.4385 17.5791L3.07129 18.6982ZM3.74902 2.62007C3.85591 2.49789 4.02944 2.45865 4.17871 2.52241C6.31073 3.43424 8.82141 5.14967 10.9336 7.47261C13.0469 9.79687 14.779 12.7494 15.3174 16.1376C15.3386 16.2711 15.2864 16.406 15.1807 16.4902C15.075 16.5742 14.9318 16.5944 14.8066 16.5439C10.135 14.6603 6.60685 15.6668 4.15039 17.1826C3.99571 17.2777 3.79477 17.2478 3.67383 17.1123C3.55306 16.9766 3.54684 16.7736 3.65918 16.6308C7.39231 11.8855 5.74153 6.47058 3.70898 3.05952C3.62586 2.92003 3.64211 2.74229 3.74902 2.62007ZM9.73438 4.998C9.81494 4.83161 10.0048 4.74863 10.1816 4.80269C11.9002 5.32828 13.9038 6.83359 15.6602 8.82612C17.4233 10.8265 18.9759 13.362 19.7676 16.0019C19.8086 16.1392 19.7684 16.2876 19.6631 16.3847C19.5574 16.4819 19.4051 16.5105 19.2715 16.458C18.8238 16.282 18.4968 16.1328 18.123 16.0527C17.7685 15.9767 17.3704 15.9652 16.8291 16.1035C16.6311 16.154 16.4292 16.0369 16.375 15.8398C15.2345 11.691 13.2076 7.78625 9.8584 5.46968C9.70645 5.36458 9.65403 5.16433 9.73438 4.998ZM4.92383 3.70894C6.56652 6.92854 7.67728 11.5153 5.12793 15.8085C7.51329 14.7169 10.623 14.2374 14.457 15.6103C13.8416 12.6682 12.2833 10.072 10.3789 7.97749C8.67497 6.10347 6.70676 4.645 4.92383 3.70894ZM12.8447 7.16206C14.8229 9.43837 16.1453 12.3275 17 15.3017C17.4872 15.2182 17.8979 15.2374 18.2803 15.3193C18.46 15.3578 18.6327 15.4132 18.8018 15.4726C17.9949 13.2221 16.6342 11.0656 15.0967 9.32124C14.3646 8.49078 13.5998 7.76167 12.8447 7.16206Z" fill="#323544"/>
</svg>
