<svg width="24" height="24" viewBox="0 0 24 24" fill="none" xmlns="http://www.w3.org/2000/svg">
<path d="M15.565 3.66797C16.5283 3.66797 17.3092 4.44047 17.3092 5.39297V15.8105C17.3159 15.9701 17.3842 16.1209 17.4999 16.2311C17.6155 16.3413 17.7694 16.4023 17.9292 16.4013C18.0888 16.4021 18.2425 16.341 18.3579 16.2308C18.4734 16.1206 18.5416 15.9699 18.5483 15.8105V9.5838C18.5495 9.35837 18.5951 9.13537 18.6825 8.92756C18.7699 8.71974 18.8973 8.53117 19.0576 8.37261C19.2179 8.21406 19.4078 8.08862 19.6165 8.00346C19.8253 7.9183 20.0487 7.8751 20.2742 7.8763C20.4997 7.8751 20.7232 7.91833 20.932 8.00354C21.1408 8.08875 21.3308 8.21426 21.491 8.37291C21.6513 8.53155 21.7787 8.72022 21.8661 8.92813C21.9534 9.13605 21.9989 9.35913 22 9.58464V15.0521C21.9991 15.1954 21.9414 15.3325 21.8395 15.4333C21.7377 15.5341 21.6 15.5903 21.4567 15.5896C21.3856 15.5901 21.3152 15.5765 21.2494 15.5497C21.1837 15.523 21.1238 15.4835 21.0733 15.4336C21.0227 15.3837 20.9825 15.3243 20.9549 15.2589C20.9274 15.1934 20.9129 15.1232 20.9125 15.0521V9.58464C20.9121 9.50125 20.8952 9.41876 20.8629 9.34188C20.8306 9.26501 20.7834 9.19525 20.7242 9.1366C20.6649 9.07794 20.5946 9.03153 20.5174 9.00003C20.4402 8.96852 20.3576 8.95253 20.2742 8.95297C20.1908 8.95253 20.1081 8.96852 20.0309 9.00003C19.9537 9.03153 19.8834 9.07794 19.8242 9.1366C19.7649 9.19525 19.7178 9.26501 19.6854 9.34188C19.6531 9.41876 19.6363 9.50125 19.6358 9.58464V15.8113C19.6346 16.0342 19.5895 16.2547 19.5031 16.4602C19.4167 16.6657 19.2907 16.8522 19.1322 17.0089C18.9737 17.1657 18.7859 17.2897 18.5795 17.3739C18.3731 17.4581 18.1521 17.5008 17.9292 17.4996C17.7062 17.5008 17.4853 17.4581 17.2789 17.3739C17.0724 17.2897 16.8846 17.1657 16.7262 17.0089C16.5677 16.8522 16.4416 16.6657 16.3552 16.4602C16.2688 16.2547 16.2237 16.0342 16.2225 15.8113V5.39464C16.2156 5.22537 16.1433 5.06538 16.0208 4.94835C15.8983 4.83131 15.7352 4.76635 15.5658 4.76714C15.3964 4.76612 15.2332 4.83087 15.1106 4.94775C14.988 5.06464 14.9155 5.22454 14.9083 5.3938L14.9075 18.6471C14.9049 19.0972 14.7236 19.5278 14.4035 19.8442C14.0835 20.1607 13.6509 20.3371 13.2008 20.3346C12.9779 20.3358 12.7569 20.2931 12.5505 20.2089C12.3441 20.1247 12.1563 20.0007 11.9978 19.8439C11.8393 19.6872 11.7133 19.5007 11.6269 19.2952C11.5405 19.0897 11.4954 18.8692 11.4942 18.6463V17.0346C11.4942 16.738 11.7375 16.4971 12.0375 16.4971C12.3375 16.4971 12.5808 16.738 12.5808 17.0346V18.6463C12.5808 18.8655 12.6992 19.068 12.8908 19.178C13.0825 19.2871 13.3192 19.2871 13.5108 19.178C13.6049 19.1247 13.6831 19.0474 13.7376 18.954C13.792 18.8606 13.8208 18.7544 13.8208 18.6463V5.39297C13.8208 4.44047 14.6017 3.66797 15.565 3.66797ZM10.8367 3.66797C11.8 3.66797 12.5808 4.44047 12.5808 5.39297V14.9955C12.5805 15.0665 12.5662 15.1367 12.5387 15.2021C12.5112 15.2676 12.4711 15.3269 12.4206 15.3769C12.3701 15.4268 12.3103 15.4663 12.2446 15.4931C12.1789 15.5198 12.1085 15.5334 12.0375 15.533C11.9665 15.5334 11.8961 15.5198 11.8304 15.4931C11.7647 15.4663 11.7049 15.4268 11.6544 15.3769C11.6039 15.3269 11.5638 15.2676 11.5363 15.2021C11.5088 15.1367 11.4945 15.0665 11.4942 14.9955V5.39297C11.4931 5.21962 11.4232 5.05379 11.2999 4.93192C11.1766 4.81004 11.01 4.74208 10.8367 4.74297C10.6633 4.74208 10.4967 4.81004 10.3734 4.93192C10.2501 5.05379 10.1803 5.21962 10.1792 5.39297V17.0705C10.1765 17.5255 9.99335 17.9608 9.66989 18.2808C9.34644 18.6008 8.90917 18.7794 8.45417 18.7771C7.99902 18.7796 7.56154 18.6012 7.2379 18.2811C6.91427 17.9611 6.73098 17.5256 6.72833 17.0705V9.58464C6.7279 9.50125 6.71104 9.41876 6.67872 9.34188C6.64641 9.26501 6.59927 9.19525 6.53999 9.1366C6.48072 9.07794 6.41047 9.03153 6.33326 9.00003C6.25605 8.96852 6.17339 8.95253 6.09 8.95297C6.00661 8.95253 5.92395 8.96852 5.84674 9.00003C5.76953 9.03153 5.69928 9.07794 5.64001 9.1366C5.58073 9.19525 5.53359 9.26501 5.50128 9.34188C5.46896 9.41876 5.4521 9.50125 5.45167 9.58464V12.7513C5.45047 12.9767 5.40487 13.1997 5.31749 13.4075C5.23011 13.6154 5.10265 13.8039 4.94239 13.9625C4.78213 14.121 4.59221 14.2465 4.38347 14.3316C4.17474 14.4168 3.95127 14.46 3.72583 14.4588C3.5004 14.46 3.27693 14.4168 3.06819 14.3316C2.85945 14.2465 2.66953 14.121 2.50927 13.9625C2.34902 13.8039 2.22156 13.6154 2.13417 13.4075C2.04679 13.1997 2.0012 12.9767 2 12.7513V11.603C2 11.3055 2.24333 11.0646 2.54333 11.0646C2.84333 11.0646 3.0875 11.3063 3.0875 11.603V12.7513C3.0875 13.0996 3.37333 13.3821 3.72583 13.3821C4.07833 13.3821 4.36417 13.0996 4.36417 12.7513V9.5838C4.36681 9.1288 4.54999 8.69346 4.87344 8.37345C5.19689 8.05343 5.63416 7.87492 6.08917 7.87714C6.54431 7.8747 6.9818 8.05311 7.30543 8.37315C7.62907 8.69319 7.81236 9.12866 7.815 9.5838V17.0705C7.815 17.4196 8.10083 17.7021 8.45417 17.7021C8.80667 17.7021 9.0925 17.4196 9.0925 17.0705V5.39297C9.0925 4.44047 9.87333 3.66797 10.8367 3.66797Z" fill="#323544"/>
</svg>
