<svg width="24" height="24" viewBox="0 0 24 24" fill="none" xmlns="http://www.w3.org/2000/svg">
<path d="M4.2225 6.44531H8.66667V8.66781H6.44417V10.8895H4.2225V9.08448H2.41667V10.8895H4.2225V13.112H2V8.66781H4.2225V6.44531ZM4.2225 13.112H6.44417V15.3345H8.66667V17.5561H4.2225V13.112ZM8.66667 10.8895H10.8892V13.112H8.66667V10.8895ZM13.1108 13.112V15.3345H10.8892V13.112H13.1108ZM13.1108 13.112V10.8895H15.3333V13.112H13.1108Z" fill="#323544"/>
<path d="M19.7775 13.112V10.8895H17.5558V8.66781H15.3333V6.44531H19.7775V8.66781H22V13.112H19.7775ZM19.7775 10.8895H21.5833V9.08448H19.7775V10.8895Z" fill="#323544"/>
<path d="M19.7775 13.112V17.5561H15.3333V15.3345H17.5558V13.112H19.7775Z" fill="#323544"/>
</svg>
