<svg width="24" height="24" viewBox="0 0 24 24" fill="none" xmlns="http://www.w3.org/2000/svg">
<path d="M16.0763 10.2422C16.1834 10.2405 16.2896 10.2606 16.3888 10.3008C16.4881 10.341 16.5784 10.4008 16.6541 10.4766C16.7299 10.5523 16.7897 10.6426 16.8299 10.7419C16.8701 10.8411 16.8901 10.9473 16.8885 11.0544C16.8869 11.1615 16.8634 11.2672 16.8201 11.3652C16.7769 11.4631 16.7149 11.5515 16.637 11.6248L15.7085 12.5534L16.9357 13.2614C17.0296 13.3124 17.1124 13.3822 17.179 13.4657C17.2457 13.5491 17.2949 13.6453 17.3239 13.748C17.3528 13.8507 17.3607 13.958 17.3475 14.0638C17.3342 14.1698 17.3 14.2724 17.2466 14.3649C17.1932 14.4574 17.1218 14.5381 17.0366 14.6025C16.9515 14.667 16.8544 14.7138 16.751 14.7401C16.6474 14.7663 16.5392 14.7716 16.4336 14.7555C16.3281 14.7395 16.2267 14.7023 16.1357 14.6465L14.0988 13.4705C14.0784 13.4587 14.0587 13.4458 14.0394 13.4323C13.9284 13.3741 13.8324 13.2909 13.7594 13.189C13.6865 13.0869 13.6378 12.9688 13.6187 12.8447C13.5995 12.7207 13.6099 12.5938 13.6488 12.4744C13.6876 12.3552 13.7541 12.2469 13.8424 12.1579L15.5059 10.4945C15.5792 10.4164 15.6675 10.3538 15.7655 10.3105C15.8635 10.2673 15.9692 10.2438 16.0763 10.2422Z" fill="#323544"/>
<path d="M8.40706 10.2788C8.73844 10.2789 9.05653 10.4107 9.29085 10.645C9.52518 10.8793 9.65614 11.1974 9.65625 11.5288V13.4038C9.65625 13.7353 9.52527 14.054 9.29085 14.2884C9.05653 14.5227 8.73844 14.6537 8.40706 14.6538C8.07555 14.6538 7.75688 14.5228 7.52246 14.2884C7.28804 14.054 7.15706 13.7353 7.15706 13.4038V11.5288C7.15717 11.1974 7.28814 10.8793 7.52246 10.645C7.75688 10.4106 8.07554 10.2788 8.40706 10.2788Z" fill="#323544"/>
<path d="M12 2C17.5225 2 22 6.4775 22 12C22 17.5225 17.5225 22 12 22C6.4775 22 2 17.5225 2 12C2 6.4775 6.4775 2 12 2ZM12 4.96794C7.5125 4.96794 3.875 8.11667 3.875 12C3.875 15.8833 7.5125 19.0304 12 19.0304C16.4875 19.0304 20.125 15.8833 20.125 12C20.125 8.11667 16.4875 4.96794 12 4.96794Z" fill="#323544"/>
</svg>
