<svg width="24" height="24" viewBox="0 0 24 24" fill="none" xmlns="http://www.w3.org/2000/svg">
<path d="M2.87761 16.0952L10.826 18.2216C10.8153 18.7868 10.8319 19.3521 10.876 19.9156L15.8388 21.243C14.3668 21.8506 12.771 22.0977 11.1843 21.9638L11.0343 21.9504L10.9976 21.9471L10.8493 21.9313C10.8056 21.926 10.762 21.9205 10.7185 21.9146L10.6293 21.9029L10.5377 21.8896C10.4486 21.8766 10.3597 21.8625 10.271 21.8471L10.236 21.8404L10.1735 21.8296L10.0844 21.8129L10.026 21.8004L9.94855 21.7846L9.88605 21.7713L9.80689 21.7546L9.72607 21.7355L9.64774 21.7171L9.51776 21.6846L9.44277 21.6646L9.36361 21.6438L9.29528 21.6246L9.20446 21.5996L9.1528 21.583L9.0828 21.5621L9.00531 21.5388L8.91782 21.5105L8.86949 21.4946L8.80283 21.473L8.72784 21.4471L8.67285 21.4272C8.66061 21.423 8.64839 21.4189 8.63618 21.4146L8.57952 21.3938L8.49536 21.363L8.44787 21.3447L8.38121 21.3197L8.30872 21.2905L8.23539 21.2613L8.16956 21.2347L8.09041 21.2013L8.03791 21.178L7.98542 21.1555C7.97401 21.1506 7.96262 21.1456 7.95125 21.1405L7.89626 21.1155L7.81044 21.0764L7.76711 21.0564L7.68711 21.018L7.63545 20.993L7.56546 20.9597L7.4938 20.923L7.41631 20.8839L7.37298 20.8614L7.28716 20.8155L7.23966 20.7906L7.19133 20.7639C7.17853 20.7567 7.16575 20.7495 7.153 20.7422L7.07468 20.6981L7.02468 20.6697L6.98219 20.6447L6.92219 20.6106L6.85387 20.5689L6.77638 20.5222L6.73305 20.4956L6.66305 20.4514L6.61223 20.4189L6.5464 20.3773L6.48807 20.3381L6.44391 20.3089C6.42887 20.299 6.41387 20.289 6.39892 20.2789L6.32559 20.2289C6.31445 20.2212 6.30334 20.2134 6.29226 20.2056L6.24476 20.1723L6.18144 20.1273L6.12394 20.0856L6.06228 20.0406L5.9523 19.9581L5.88897 19.909L5.77981 19.824L5.72649 19.7807L5.66482 19.7307L5.59067 19.6698L5.51401 19.6048C5.50203 19.5946 5.49008 19.5843 5.47818 19.574L5.44068 19.5407L5.38985 19.4965L5.33153 19.4449L5.27487 19.3949L5.2232 19.3465L5.16738 19.2949L5.12321 19.2532L5.04989 19.1832C5.02225 19.1564 4.99475 19.1295 4.9674 19.1024L4.94323 19.0791L4.90907 19.0441L4.85158 18.9857L4.80991 18.9432L4.76825 18.8991C4.72065 18.8503 4.67398 18.8005 4.62827 18.7499L4.56161 18.6766L4.45078 18.5516L4.41579 18.5108L4.37163 18.4591L4.3233 18.4025L4.28497 18.3558C4.27744 18.3467 4.26994 18.3375 4.26247 18.3283L4.22497 18.2825L4.16998 18.2141L4.13582 18.1708L4.09415 18.1175L4.07749 18.0967C3.60072 17.4787 3.19802 16.8069 2.87761 16.0952ZM2.0277 11.2674L11.4876 13.7979C11.3292 14.3496 11.1987 14.9088 11.0968 15.4736L20.11 17.885C19.6622 18.4981 19.1465 19.0586 18.5727 19.5557L2.54848 15.2678L2.53515 15.2295L2.50599 15.1428C2.49181 15.1004 2.47793 15.0579 2.46432 15.0153L2.45849 14.9962C2.39435 14.7923 2.33683 14.5863 2.28601 14.3787L2.26101 14.2737L2.24601 14.2071L2.22851 14.1262L2.21352 14.0587L2.19852 13.9838L2.18435 13.9138L2.16935 13.8354C2.14769 13.718 2.12769 13.5996 2.11019 13.4805L2.09603 13.3822L2.08686 13.313L2.07603 13.228C2.07045 13.1833 2.06517 13.1386 2.0602 13.0938L2.05603 13.0547C1.99378 12.4609 1.9843 11.8628 2.0277 11.2674ZM3.35506 6.97615L13.3107 9.63921C13.0041 10.1433 12.7233 10.6649 12.4691 11.2015L21.8806 13.7196C21.7623 14.4029 21.574 15.0628 21.324 15.6902L2.10436 10.5491L2.11686 10.4658L2.12353 10.425L2.13186 10.3691L2.14436 10.2966L2.15936 10.215C2.18102 10.0917 2.20602 9.96917 2.23268 9.84669L2.25601 9.74336L2.27268 9.67254L2.29267 9.59171C2.31101 9.51672 2.33017 9.44173 2.351 9.3684L2.37433 9.28341L2.3935 9.21425L2.4185 9.13093L2.43933 9.0626L2.46432 8.98261L2.48599 8.91428L2.51182 8.83512C2.72759 8.18788 3.00961 7.56464 3.3534 6.97532L3.35506 6.97615ZM7.05635 3.30986L16.4595 5.8246C15.9633 6.27498 15.4937 6.75379 15.053 7.25862L21.5715 9.00261C21.794 9.71253 21.9398 10.4558 21.999 11.2232L3.75586 6.34372L3.79335 6.28955L3.81585 6.25623L3.84918 6.2104L3.88751 6.15624L3.93334 6.09291L3.97833 6.03292L4.03166 5.96126L4.07332 5.90709L4.12082 5.84627L4.16665 5.78794L4.21664 5.72628L4.26247 5.66879L4.31663 5.60463L4.36163 5.54963L4.41662 5.48547L4.46078 5.43548L4.52078 5.36715L4.56494 5.31716L4.62077 5.2555L4.66576 5.20717L4.72659 5.14217L4.77492 5.09218L4.82741 5.03635L4.9674 4.8947L5.05072 4.81304L5.09988 4.76638L5.16321 4.70722C5.73748 4.16905 6.37286 3.70006 7.05635 3.30986ZM12.0142 2H12.095L12.1633 2.00083L12.2208 2.00167L12.2658 2.00333L12.3225 2.005L12.3608 2.00583L12.4241 2.00833L12.4633 2.01L12.5133 2.0125L12.5583 2.01417L12.6308 2.01833L12.7183 2.02416L12.8382 2.03333L12.9116 2.03916L12.9482 2.0425L13.0124 2.04916L13.0807 2.05583L13.1199 2.05999L13.2049 2.06999L13.2465 2.07499L13.3365 2.08666L13.404 2.09499L13.439 2.09999L13.6657 2.13499L13.724 2.14498L13.7781 2.15415L13.8948 2.17582L13.9715 2.19081L14.0631 2.20914L14.1014 2.21748L14.1639 2.23081L14.1981 2.23914L14.2498 2.24997L14.2848 2.25831L14.3389 2.27081L14.3798 2.2808L14.4389 2.29497L14.5189 2.31497L14.6122 2.33996L14.7064 2.36496L14.8005 2.39163L14.8422 2.40412L14.9005 2.42079L14.9655 2.44079L15.0264 2.45995L15.1097 2.48662L15.173 2.50745L15.2555 2.53494L15.3405 2.56494L15.3805 2.57911L15.4338 2.59827L15.5113 2.6266L15.603 2.66076L15.6996 2.69826L15.7829 2.73159L15.8221 2.74826L15.8721 2.76825L15.9063 2.78325L15.9588 2.80492L15.9921 2.81991L16.0396 2.84075L16.1312 2.88074L16.2146 2.91907L16.2762 2.94823L16.3387 2.97823L16.3887 3.00156L16.4654 3.03989L16.5412 3.07739L16.6262 3.12072L16.6703 3.14405L16.7112 3.16571L16.7495 3.18571L16.7995 3.21321L16.8337 3.23154L16.877 3.2557L16.9503 3.29737L17.0386 3.34736L17.1111 3.38986L17.1586 3.41819L17.2028 3.44485L17.2828 3.49401L17.3561 3.53984L17.4378 3.5915L17.4678 3.6115L17.5211 3.64566L17.5911 3.69232L17.6244 3.71482L17.6761 3.74982L17.7277 3.78565L17.7469 3.79981C17.7919 3.83064 17.8369 3.86231 17.8811 3.8948L17.9502 3.9448L18.0044 3.98479L18.051 4.02062L18.1227 4.07478L18.191 4.12811L18.2244 4.15311L18.266 4.18727L18.3377 4.24477L18.4035 4.29893L18.4743 4.35809C19.0676 4.85804 19.6017 5.42714 20.065 6.05041L8.01875 2.82825L8.07041 2.80575L8.12457 2.78242L8.19206 2.75409L8.26372 2.72492C8.35788 2.68743 8.45287 2.64993 8.54786 2.61577L8.62785 2.58661L8.70534 2.55911L8.77534 2.53411L8.85533 2.50828C8.92782 2.48328 9.00198 2.45995 9.0753 2.43745L9.15113 2.41496L9.22279 2.39413L9.30778 2.36913L9.37861 2.34996L9.46193 2.3283L9.53359 2.3083L9.60858 2.28914L9.68441 2.27081L9.76357 2.25247L9.83856 2.23581L9.92022 2.21831L9.99604 2.20165L10.0752 2.18665L10.1519 2.17165L10.2352 2.15665L10.311 2.14332L10.3927 2.12915L10.4693 2.11749L10.5502 2.10499L10.6268 2.09416L10.7118 2.08332L10.7876 2.07333L10.8751 2.06333L10.9501 2.05499L11.0376 2.04666C11.1151 2.03833 11.1926 2.03166 11.2709 2.02666L11.3592 2.02L11.4342 2.01583L11.5259 2.01083L11.6034 2.0075L11.6867 2.00417L11.85 2.00083L12.0142 2Z" fill="#323544"/>
</svg>
