<svg width="24" height="24" viewBox="0 0 24 24" fill="none" xmlns="http://www.w3.org/2000/svg">
<path opacity="0.5" d="M6.78566 5.49609C3.41898 5.49609 2.25481 13.2543 2.00147 15.3543C1.97981 15.5343 2.20231 15.6276 2.33814 15.5059C8.969 9.54769 12.0415 18.5009 14.6732 18.5009C13.1999 18.5009 12.1207 14.3843 10.7648 10.7818C9.71067 7.98355 8.48984 5.49609 6.78566 5.49609ZM21.6499 15.2959C21.7774 15.4501 22.0282 15.3484 21.9974 15.1509C21.6941 13.2318 20.6957 8.15521 18.5991 8.15521C17.3099 8.15521 16.9815 10.7252 16.6515 13.3035L16.6499 13.3118C19.4674 13.3118 20.5374 13.9434 21.6499 15.2951V15.2959Z" fill="#323544"/>
<path d="M10.7646 10.7837C12.1205 14.3853 13.2005 18.5027 14.673 18.5027C15.9838 18.5027 16.3188 15.9053 16.6505 13.3145L16.6522 13.3062C16.9822 10.727 17.3105 8.15625 18.5989 8.15625C16.0155 8.15625 14.673 17.5294 10.7646 10.7837Z" fill="#323544"/>
</svg>
