<svg width="24" height="24" viewBox="0 0 24 24" fill="none" xmlns="http://www.w3.org/2000/svg">
<path d="M23 8.7C23 9.91458 21.9898 10.9 20.7432 10.9C19.6927 10.9 18.809 10.1987 18.5578 9.25H15.4082C14.8563 9.25 14.3861 9.63867 14.2953 10.1694L14.2028 10.7121C14.1161 11.2138 13.8567 11.6694 13.4694 12C13.8471 12.3245 14.1148 12.7737 14.2028 13.2879L14.2944 13.8306C14.3418 14.0908 14.4797 14.3258 14.6837 14.494C14.8877 14.6623 15.1447 14.753 15.4091 14.75H16.3028C16.5531 13.8013 17.4368 13.1 18.4882 13.1C19.7348 13.1 20.7441 14.0854 20.7441 15.3C20.7441 16.5146 19.733 17.5 18.4882 17.5C17.4368 17.5 16.554 16.7988 16.3028 15.85H15.4091C14.3054 15.85 13.3649 15.0727 13.1834 14.0121L13.0908 13.4694C13.0435 13.2096 12.9059 12.9748 12.7023 12.8066C12.4986 12.6383 12.2421 12.5475 11.978 12.55H11.0558C10.7735 13.452 9.91367 14.1083 8.89617 14.1083C7.87867 14.1083 7.01883 13.452 6.73742 12.55H5.41558C5.13325 13.452 4.27342 14.1083 3.25683 14.1083C2.01017 14.1083 1 13.1229 1 11.9083C1 10.6937 2.01017 9.70833 3.25683 9.70833C4.34125 9.70833 5.24783 10.4554 5.46417 11.45H6.68975C6.90608 10.4554 7.81267 9.70833 8.89708 9.70833C9.98242 9.70833 10.8881 10.4554 11.1044 11.45H11.9771C12.528 11.45 12.9992 11.0613 13.089 10.5306L13.1825 9.98792C13.364 8.92733 14.3054 8.15 15.4082 8.15H18.5578C18.809 7.20125 19.6927 6.5 20.7432 6.5C21.9898 6.5 23 7.48542 23 8.7ZM21.8725 8.7C21.8725 9.30775 21.3665 9.8 20.7432 9.8C20.1198 9.8 19.6157 9.30775 19.6157 8.7C19.6157 8.09225 20.1198 7.6 20.7432 7.6C21.3665 7.6 21.8725 8.09225 21.8725 8.7ZM3.25592 13.0083C3.87925 13.0083 4.38342 12.5161 4.38342 11.9083C4.38342 11.3006 3.87925 10.8083 3.25592 10.8083C2.63258 10.8083 2.1275 11.3006 2.1275 11.9083C2.1275 12.5161 2.63258 13.0083 3.25592 13.0083ZM8.89617 13.0083C9.5195 13.0083 10.0246 12.5161 10.0246 11.9083C10.0246 11.3006 9.52042 10.8083 8.89708 10.8083C8.27375 10.8083 7.76867 11.3006 7.76867 11.9083C7.76867 12.5161 8.27283 13.0083 8.89617 13.0083ZM18.4863 16.4C19.1097 16.4 19.6138 15.9078 19.6138 15.3C19.6138 14.6923 19.1097 14.2 18.4863 14.2C17.863 14.2 17.3588 14.6923 17.3588 15.3C17.3588 15.9078 17.863 16.4 18.4863 16.4Z" fill="#323544"/>
</svg>
