<svg width="24" height="24" viewBox="0 0 24 24" fill="none" xmlns="http://www.w3.org/2000/svg">
<path d="M18.3333 4.20382V17.5014C18.3333 17.5014 21.5 17.3099 21.5 13.6896V4.20382H18.3333ZM5.66667 19.7957V6.49807C5.66667 6.49807 2.5 6.68966 2.5 10.3107V19.7949L5.66667 19.7957Z" fill="#323544"/>
<path d="M15.4184 15.4487L11.4348 6.28907C10.7824 4.80707 9.71842 3.97266 8.20713 3.97266C6.69663 3.97266 5.66508 5.19182 5.66508 6.49807C5.66508 6.49807 7.56904 6.23445 8.57842 8.55086L12.5652 17.7104C13.2152 19.1909 14.2816 20.0269 15.7913 20.0269C17.2994 20.0269 18.3333 18.8069 18.3333 17.5014C18.3333 17.5014 16.4286 17.7659 15.4184 15.4487Z" fill="#323544"/>
</svg>
