<svg width="24" height="24" viewBox="0 0 24 24" fill="none" xmlns="http://www.w3.org/2000/svg">
<path d="M13.9696 2.71527C16.0342 2.6404 18.1448 4.07872 19.4664 5.59264C20.0912 6.30919 20.6165 7.09087 21.0206 7.95655C21.4255 8.82389 21.6985 9.72492 21.8351 10.6614C21.946 11.4238 21.9325 11.8624 21.9116 12.6323C21.8796 13.6545 21.6743 14.6639 21.3038 15.6171C20.8821 16.7195 20.3054 17.7165 19.5396 18.5856C17.5581 20.8318 15.0617 21.9658 12.0646 22C12.0572 21.9997 12.0497 21.997 12.0443 21.9919C12.0386 21.9868 12.0351 21.9797 12.0337 21.9723C12.0323 21.9653 12.0331 21.9577 12.0361 21.9512C12.0392 21.9444 12.0448 21.9388 12.0516 21.9357C13.623 21.2867 14.9297 20.2918 15.9054 18.9037C16.5569 17.983 17.0184 16.9406 17.2611 15.8392C17.4419 15.0228 17.5355 14.2105 17.4955 13.3882C17.4555 12.54 17.3693 12.0538 17.0927 11.2505C16.7711 10.3174 16.3302 9.45075 15.737 8.6767C15.0012 7.71511 14.1735 7.11825 13.3202 6.36081C12.4911 5.62748 11.4958 4.17516 12.4381 3.23281C12.7581 2.91303 13.269 2.7411 13.9696 2.71527Z" fill="#323544"/>
<path d="M11.9564 2.00814C11.9619 2.01318 11.9656 2.02029 11.967 2.02767C11.9683 2.03493 11.967 2.04223 11.9637 2.04882C11.9606 2.05538 11.9556 2.06115 11.9491 2.06429C10.3768 2.71337 9.07013 3.70814 8.09439 5.09627C7.44292 6.01713 6.98221 7.0592 6.73952 8.16079C6.55871 8.97655 6.46438 9.79018 6.50354 10.6118C6.54437 11.46 6.63214 11.9462 6.90878 12.7495C7.22958 13.6826 7.67044 14.5493 8.26365 15.3225C8.99928 16.2838 9.82655 16.882 10.6796 17.6384C11.5087 18.3716 12.505 19.824 11.5625 20.7664C11.2418 21.0871 10.7316 21.258 10.0311 21.2839C7.9663 21.3581 5.85505 19.9214 4.53348 18.4065C3.90854 17.6899 3.38338 16.9084 2.97925 16.0418C2.57668 15.1853 2.30231 14.2742 2.1647 13.3378C2.05388 12.5762 2.06736 12.1376 2.08902 11.3677C2.11735 10.347 2.3253 9.35447 2.69688 8.38294C3.11685 7.28053 3.69448 6.2827 4.46025 5.41444C6.44083 3.16811 8.93818 2.03342 11.9352 2C11.9427 2 11.9514 2.0032 11.9564 2.00814Z" fill="#323544"/>
<path d="M12.0727 9.23411C12.0821 9.24145 12.0892 9.2519 12.0923 9.26341L12.5756 11.1464C13.2222 11.5105 13.9506 11.7756 14.7605 11.943C14.7666 11.9448 14.7721 11.9485 14.7768 11.9528C14.7815 11.9572 14.7851 11.963 14.7874 11.9691C14.7896 11.9751 14.7905 11.9814 14.7898 11.9878C14.7891 11.9942 14.7868 12.0003 14.7833 12.0057C14.7785 12.0129 14.7719 12.0189 14.7638 12.022L12.7791 12.6127C12.7577 12.6191 12.7379 12.6304 12.7221 12.6461C12.7063 12.6618 12.6945 12.681 12.6879 12.7023L12.0882 14.739C12.087 14.745 12.0838 14.7505 12.0793 14.7545C12.0746 14.7586 12.0683 14.7614 12.0622 14.7618C12.0559 14.7621 12.0494 14.7597 12.0443 14.7561C12.0393 14.7525 12.0355 14.7473 12.0337 14.7415L11.4397 12.7462C11.4327 12.7208 11.4192 12.6973 11.4006 12.6787C11.3819 12.66 11.3586 12.6458 11.3331 12.6388L9.34185 12.0521C9.33119 12.0489 9.32141 12.0427 9.31337 12.035C9.30538 12.0273 9.29907 12.0178 9.29547 12.0073C9.29187 11.9967 9.29052 11.985 9.29221 11.974C9.29391 11.9629 9.29864 11.9521 9.30523 11.943C9.31419 11.9313 9.32686 11.9229 9.34104 11.9186L11.3868 11.3287L11.9865 9.26178C11.9899 9.25037 11.9972 9.24034 12.0068 9.2333C12.0165 9.2263 12.0283 9.22253 12.0402 9.22272C12.052 9.22295 12.0634 9.22691 12.0727 9.23411Z" fill="#323544"/>
</svg>
