<svg width="24" height="24" viewBox="0 0 24 24" fill="none" xmlns="http://www.w3.org/2000/svg">
<path d="M11.9992 4.5C6.47667 4.5 2 9.04 2 14.6433V19.5H3.84333V19.0167C3.84333 16.7433 5.65833 14.9017 7.89833 14.9017C10.1383 14.9017 11.9533 16.7433 11.9533 19.0158V19.5H13.7967V19.0167C13.7967 15.7108 11.155 13.0333 7.89833 13.0333C6.67601 13.0318 5.48439 13.4162 4.49333 14.1317C5.5 12.1017 7.5725 10.7083 9.96667 10.7083C13.3475 10.7083 16.0892 13.49 16.0892 16.9192V19.5H17.9325V16.9192C17.9325 12.4567 14.3658 8.8375 9.96583 8.8375C8.06051 8.83636 6.21955 9.5269 4.785 10.7808C6.15333 8.15667 8.87 6.36917 12 6.36917C16.505 6.36917 20.1567 10.0742 20.1567 14.6442V19.5H22V14.6433C21.9992 9.04 17.5225 4.5 11.9992 4.5Z" fill="#323544"/>
</svg>
