<svg width="24" height="24" viewBox="0 0 24 24" fill="none" xmlns="http://www.w3.org/2000/svg">
<path d="M13.2282 16.5501L14.1863 17.5145C14.2301 17.5582 14.2438 17.6238 14.2207 17.6813L12.722 21.505C12.6655 21.6507 12.5664 21.7758 12.4376 21.8642C12.3088 21.9525 12.1563 21.9998 12.0001 22C11.6814 22 11.3945 21.8031 11.2782 21.5044L9.12139 16.002L5.6327 19.5125C5.6184 19.527 5.60137 19.5385 5.5826 19.5464C5.56382 19.5542 5.54368 19.5582 5.52333 19.5582C5.50298 19.5582 5.48284 19.5542 5.46406 19.5464C5.44529 19.5385 5.42826 19.527 5.41396 19.5125L4.5346 18.6282C4.50559 18.5989 4.48932 18.5594 4.48932 18.5182C4.48932 18.477 4.50559 18.4375 4.5346 18.4082L8.84078 14.0758C8.97819 13.9318 9.16367 13.8433 9.36202 13.827C9.52596 13.818 9.6886 13.8608 9.82682 13.9494C9.96505 14.0381 10.0718 14.168 10.132 14.3208L12.002 19.0894L12.9751 16.6038C12.9844 16.5797 12.9996 16.5582 13.0194 16.5414C13.0391 16.5247 13.0627 16.5131 13.0881 16.5078C13.1135 16.5025 13.1398 16.5037 13.1646 16.5112C13.1894 16.5187 13.2119 16.5323 13.2301 16.5507L13.2282 16.5501ZM18.3681 4.4878L14.8788 7.99837L12.7226 2.49534C12.6555 2.32196 12.5283 2.17847 12.3643 2.09104C12.2002 2.00362 12.0102 1.97808 11.8288 2.01909C11.5701 2.07659 11.3639 2.27346 11.267 2.52221L9.77951 6.31715C9.76847 6.3453 9.76585 6.37606 9.77195 6.40568C9.77805 6.4353 9.79262 6.46251 9.81388 6.48402L10.772 7.44838C10.8514 7.52775 10.9845 7.49962 11.0264 7.39525L12.0001 4.90967L13.8694 9.67771C13.9162 9.79801 13.9923 9.90472 14.0908 9.98815C14.1892 10.0716 14.307 10.1291 14.4333 10.1555C14.5597 10.1819 14.6906 10.1763 14.8142 10.1392C14.9379 10.1022 15.0503 10.0349 15.1413 9.94333L19.4675 5.59028C19.4965 5.56102 19.5127 5.52149 19.5127 5.48028C19.5127 5.43908 19.4965 5.39955 19.4675 5.37029L18.5875 4.48593C18.5732 4.47145 18.5562 4.45996 18.5374 4.45212C18.5186 4.44427 18.4985 4.44023 18.4781 4.44023C18.4578 4.44023 18.4376 4.44427 18.4188 4.45212C18.4001 4.45996 18.383 4.47145 18.3687 4.48593L18.3681 4.4878ZM7.42392 12.9789L4.95334 11.9995L9.69201 10.1183C9.99825 9.99646 10.2014 9.69021 10.1826 9.34334C10.1677 9.14393 10.0798 8.95701 9.93576 8.81835L5.63208 4.48718C5.61778 4.4727 5.60075 4.46121 5.58197 4.45337C5.5632 4.44552 5.54305 4.44148 5.52271 4.44148C5.50236 4.44148 5.48221 4.44552 5.46344 4.45337C5.44466 4.46121 5.42763 4.4727 5.41333 4.48718L4.53397 5.37216C4.50478 5.40145 4.48838 5.44112 4.48838 5.48247C4.48838 5.52383 4.50478 5.56349 4.53397 5.59278L8.02329 9.10335L2.55463 11.2733C2.40891 11.3309 2.28388 11.431 2.19577 11.5605C2.10766 11.6901 2.06055 11.8432 2.06055 11.9999C2.06055 12.1565 2.10766 12.3096 2.19577 12.4392C2.28388 12.5687 2.40891 12.6688 2.55463 12.7264L6.35394 14.2339C6.38188 14.2456 6.41272 14.2486 6.4424 14.2425C6.47207 14.2363 6.49919 14.2214 6.52019 14.1995L7.4783 13.2358C7.49672 13.2175 7.51028 13.1948 7.51776 13.1699C7.52523 13.1451 7.52639 13.1187 7.52111 13.0933C7.51584 13.0678 7.5043 13.0441 7.48755 13.0242C7.4708 13.0044 7.44936 12.989 7.42517 12.9795L7.42392 12.9789ZM21.4449 11.2727L17.645 9.76521C17.6171 9.75361 17.5864 9.75069 17.5569 9.75682C17.5273 9.76296 17.5003 9.77786 17.4794 9.79959L16.5213 10.7633C16.5028 10.7816 16.4892 10.8042 16.4817 10.829C16.4742 10.8539 16.473 10.8802 16.4782 10.9056C16.4834 10.9311 16.4949 10.9548 16.5116 10.9747C16.5282 10.9946 16.5496 11.01 16.5738 11.0196L19.045 12.0002L14.3057 13.8814C14.1529 13.9427 14.0233 14.0506 13.9353 14.1897C13.8472 14.3288 13.8052 14.4921 13.8151 14.6564C13.8263 14.8545 13.9226 15.0401 14.0619 15.1814L18.3681 19.5132C18.3824 19.5276 18.3994 19.5391 18.4182 19.547C18.437 19.5548 18.4571 19.5589 18.4775 19.5589C18.4978 19.5589 18.518 19.5548 18.5368 19.547C18.5555 19.5391 18.5726 19.5276 18.5869 19.5132L19.4656 18.6288C19.4946 18.5995 19.5109 18.56 19.5109 18.5188C19.5109 18.4776 19.4946 18.4381 19.4656 18.4088L15.9769 14.8982L21.4456 12.7283C21.5913 12.6707 21.7163 12.5706 21.8044 12.4411C21.8925 12.3115 21.9396 12.1584 21.9396 12.0017C21.9396 11.8451 21.8925 11.692 21.8044 11.5624C21.7163 11.4329 21.5913 11.3328 21.4456 11.2752L21.4449 11.2727Z" fill="#323544"/>
</svg>
