<svg width="24" height="24" viewBox="0 0 24 24" fill="none" xmlns="http://www.w3.org/2000/svg">
<path d="M6.69415 17.7649C6.00331 16.6249 5.16247 15.6783 4.16079 15.0241C4.09288 14.9775 4.03499 14.9177 3.99054 14.8484C3.9461 14.779 3.916 14.7015 3.90202 14.6203C3.88803 14.5391 3.89046 14.456 3.90914 14.3758C3.92782 14.2955 3.96238 14.2199 4.01079 14.1532C5.82414 11.8032 8.64251 5.64813 10.1184 2.29892C10.3384 1.79808 11.0934 1.96558 11.0934 2.51226V11.4374C10.8214 11.5605 10.5764 11.7361 10.3726 11.9542C10.1687 12.1723 10.0099 12.4285 9.90538 12.7081C9.80083 12.9878 9.75258 13.2853 9.76339 13.5836C9.7742 13.882 9.84386 14.1752 9.96836 14.4466L6.68915 17.7649H6.69415ZM7.42 19.1633C7.76583 19.9333 8.05584 20.7633 8.28667 21.62C8.31413 21.728 8.37662 21.8239 8.46437 21.8927C8.55213 21.9615 8.6602 21.9992 8.77168 22H15.2284C15.3399 21.9987 15.4478 21.9608 15.5356 21.8921C15.6233 21.8234 15.6861 21.7278 15.7143 21.62C15.937 20.7793 16.2265 19.9578 16.5801 19.1633L14.8634 17.4258L13.4317 18.8741C13.4667 19.0058 13.4867 19.1433 13.4867 19.285C13.4867 20.1158 12.8209 20.7892 12.0001 20.7892C11.6035 20.7867 11.2241 20.6269 10.9453 20.3448C10.6665 20.0628 10.5112 19.6815 10.5134 19.285C10.5134 18.4541 11.1792 17.7799 12.0001 17.7799C12.1251 17.7799 12.2501 17.7958 12.3651 17.8258L13.8117 16.3616L12.9959 15.5366C12.6879 15.6891 12.3488 15.7684 12.0051 15.7684C11.6613 15.7684 11.3222 15.6891 11.0142 15.5366L7.43083 19.1633H7.42ZM17.306 17.7649C17.9968 16.6249 18.8376 15.6783 19.8393 15.0241C19.9072 14.9775 19.9651 14.9177 20.0096 14.8484C20.054 14.779 20.0841 14.7015 20.0981 14.6203C20.1121 14.5391 20.1096 14.456 20.091 14.3758C20.0723 14.2955 20.0377 14.2199 19.9893 14.1532C18.1768 11.8032 15.3576 5.64813 13.8809 2.29892C13.6609 1.79808 12.9059 1.96558 12.9059 2.51226V11.4374C13.1779 11.5605 13.4228 11.7361 13.6267 11.9542C13.8306 12.1723 13.9894 12.4285 14.0939 12.7081C14.1984 12.9878 14.2467 13.2853 14.2359 13.5836C14.2251 13.882 14.1554 14.1752 14.0309 14.4466L17.3101 17.7649H17.306Z" fill="#323544"/>
</svg>
