<svg width="24" height="24" viewBox="0 0 24 24" fill="none" xmlns="http://www.w3.org/2000/svg">
<path d="M8.27751 2.08167C8.47387 2.15894 8.65113 2.28621 8.81204 2.45438C9.08021 2.73256 9.30657 3.13073 9.47929 3.60253C9.65292 4.07706 9.76564 4.6025 9.80837 5.12975C10.3807 4.80595 11.0159 4.60879 11.671 4.55159L11.7174 4.54795C12.5083 4.48432 13.2901 4.62704 13.9719 4.97885C14.0637 5.02703 14.1537 5.07885 14.2419 5.13339C14.2873 4.61613 14.3982 4.10251 14.5691 3.63889C14.7418 3.16618 14.9682 2.76892 15.2355 2.48984C15.3848 2.32827 15.5675 2.20109 15.7709 2.11712C16.0045 2.02622 16.2527 2.00985 16.4945 2.07894C16.8591 2.18257 17.1718 2.41348 17.4181 2.74892C17.6436 3.05527 17.8127 3.44799 17.9281 3.91888C18.1372 4.76795 18.1736 5.88518 18.0327 7.23241L18.0808 7.26878L18.1045 7.28605C18.7926 7.80967 19.2717 8.55601 19.5253 9.42234C19.9208 10.7741 19.7217 12.2904 19.0399 13.1386L19.0235 13.1577L19.0253 13.1604C19.4044 13.8531 19.6344 14.5849 19.6835 15.3422L19.6853 15.3694C19.7435 16.3376 19.5035 17.3121 18.9453 18.2693L18.939 18.2784L18.9481 18.3002C19.3772 19.352 19.5117 20.4111 19.3462 21.4692L19.3408 21.5047C19.3152 21.6592 19.2293 21.7973 19.102 21.8887C18.9747 21.98 18.8164 22.0172 18.6617 21.9919C18.5852 21.98 18.5117 21.953 18.4456 21.9126C18.3794 21.8723 18.3219 21.8192 18.2763 21.7565C18.2307 21.6939 18.1979 21.6228 18.1798 21.5475C18.1617 21.4721 18.1587 21.394 18.1708 21.3174C18.3226 20.3784 18.1799 19.4366 17.7345 18.4784C17.6929 18.3894 17.6745 18.2913 17.6808 18.1933C17.6872 18.0953 17.7181 18.0004 17.7708 17.9175L17.7745 17.9121C18.3236 17.0721 18.5508 16.2485 18.5017 15.4394C18.4599 14.7313 18.2063 14.0358 17.7745 13.3731C17.6905 13.2443 17.6606 13.0876 17.6912 12.9369C17.7218 12.7862 17.8105 12.6535 17.9381 12.5677L17.9463 12.5622C18.1672 12.4177 18.3708 12.0486 18.4735 11.5441C18.5869 10.9475 18.5573 10.3326 18.3872 9.74961C18.2008 9.11326 17.8599 8.58237 17.3827 8.21965C16.8418 7.80694 16.1254 7.60786 15.2191 7.66513C15.1006 7.67283 14.9825 7.64481 14.8801 7.58469C14.7776 7.52457 14.6956 7.4351 14.6446 7.32787C14.3591 6.72334 13.9428 6.29063 13.4237 6.02245C12.9254 5.77373 12.3674 5.6692 11.8128 5.72064C10.6811 5.81064 9.68292 6.4488 9.38565 7.25332C9.3436 7.36655 9.26796 7.46423 9.16885 7.53328C9.06975 7.60233 8.95191 7.63945 8.83113 7.63967C7.86116 7.64149 7.11027 7.86876 6.5612 8.27874C6.08667 8.63328 5.76304 9.12872 5.59214 9.72233C5.43749 10.2811 5.41632 10.8684 5.53032 11.4368C5.63214 11.9441 5.83122 12.3641 6.0594 12.5904L6.06667 12.5968C6.25939 12.785 6.3003 13.0786 6.16576 13.3104C5.8385 13.8758 5.59396 14.7185 5.55396 15.5285C5.50851 16.4539 5.72304 17.2575 6.20757 17.8339L6.22212 17.8512C6.29524 17.9364 6.34227 18.0408 6.35759 18.1521C6.3729 18.2633 6.35585 18.3766 6.30848 18.4784C5.78486 19.602 5.62396 20.5256 5.79759 21.2529C5.8288 21.4041 5.79976 21.5615 5.71665 21.6917C5.63355 21.8218 5.50294 21.9144 5.35261 21.9497C5.20229 21.985 5.04413 21.9602 4.91178 21.8807C4.77943 21.8011 4.68335 21.6731 4.64399 21.5238C4.42309 20.5983 4.57308 19.5384 5.07397 18.3439L5.0867 18.3121L5.07943 18.3011C4.83325 17.9375 4.64952 17.5353 4.53581 17.1112L4.53126 17.0939C4.39328 16.5647 4.33899 16.0172 4.37036 15.4712C4.41036 14.644 4.62308 13.7967 4.9358 13.1168L4.94671 13.0931L4.94489 13.0913C4.67853 12.7113 4.48127 12.225 4.37218 11.6868L4.36763 11.665C4.21733 10.9143 4.2463 10.1388 4.45218 9.40144C4.69035 8.56964 5.15852 7.85512 5.8485 7.33877C5.90304 7.29787 5.96031 7.25696 6.01758 7.21878C5.87304 5.86155 5.9094 4.73704 6.1194 3.88252C6.23485 3.41163 6.40484 3.01891 6.63029 2.71256C6.87574 2.37802 7.18845 2.14712 7.55299 2.04258C7.7948 1.97349 8.04388 1.98985 8.27751 2.08167ZM12.0192 10.345C12.8701 10.345 13.6555 10.6296 14.2428 11.1223C14.8155 11.6014 15.1564 12.245 15.1564 12.8859C15.1564 13.6931 14.7873 14.3222 14.1264 14.724C13.5628 15.0649 12.8074 15.2303 11.9419 15.2303C11.0247 15.2303 10.2411 14.9949 9.67565 14.5631C9.11475 14.1358 8.80022 13.5358 8.80022 12.8859C8.80022 12.2432 9.16203 11.5977 9.76019 11.1168C10.3674 10.6287 11.1692 10.345 12.0192 10.345ZM12.0192 11.1596C11.3885 11.1541 10.7746 11.3623 10.2774 11.7505C9.85837 12.0868 9.6211 12.5095 9.6211 12.8868C9.6211 13.2759 9.81201 13.6404 10.1756 13.9177C10.5893 14.2331 11.1974 14.4158 11.9419 14.4158C12.6683 14.4158 13.281 14.2822 13.6982 14.0286C14.1191 13.774 14.3346 13.4049 14.3346 12.8859C14.3346 12.5013 14.111 12.0768 13.7137 11.7441C13.2737 11.3759 12.6774 11.1596 12.0192 11.1596ZM12.621 12.2595L12.6246 12.2632C12.7337 12.4004 12.711 12.5995 12.5737 12.7086L12.3083 12.9177V13.3231C12.3078 13.4134 12.2716 13.4998 12.2075 13.5633C12.1434 13.6269 12.0567 13.6625 11.9665 13.6622C11.8762 13.6625 11.7896 13.6269 11.7255 13.5633C11.6614 13.4998 11.6252 13.4134 11.6247 13.3231V12.905L11.3783 12.7068C11.3458 12.6807 11.3188 12.6485 11.2988 12.612C11.2788 12.5755 11.2663 12.5353 11.2619 12.4939C11.2575 12.4525 11.2613 12.4106 11.2732 12.3707C11.2851 12.3308 11.3047 12.2936 11.331 12.2613C11.3847 12.196 11.462 12.1545 11.5461 12.1458C11.6301 12.1372 11.7143 12.162 11.7801 12.215L11.9756 12.3713L12.1756 12.2132C12.2412 12.1613 12.3245 12.1371 12.4077 12.1458C12.4909 12.1545 12.5674 12.1953 12.621 12.2595ZM8.03933 10.515C8.47387 10.515 8.82749 10.8696 8.82749 11.3068C8.82773 11.5164 8.74476 11.7175 8.59681 11.866C8.44886 12.0145 8.24802 12.0981 8.03843 12.0986C7.82914 12.0979 7.62868 12.0143 7.48095 11.866C7.33322 11.7178 7.25027 11.517 7.25027 11.3077C7.24979 11.0981 7.33252 10.8969 7.48031 10.7483C7.62809 10.5997 7.82974 10.5158 8.03933 10.515ZM15.9536 10.515C16.39 10.515 16.7427 10.8696 16.7427 11.3068C16.7429 11.5164 16.66 11.7175 16.512 11.866C16.3641 12.0145 16.1632 12.0981 15.9536 12.0986C15.7443 12.0979 15.5439 12.0143 15.3962 11.866C15.2484 11.7178 15.1655 11.517 15.1655 11.3077C15.165 11.0981 15.2477 10.8969 15.3955 10.7483C15.5433 10.5997 15.744 10.5158 15.9536 10.515ZM7.8548 3.18163L7.85207 3.18345C7.74675 3.22925 7.65682 3.30435 7.59299 3.39981L7.58844 3.40526C7.46299 3.57708 7.3539 3.82979 7.27209 4.1616C7.11755 4.79067 7.07573 5.64428 7.15936 6.69061C7.55026 6.57425 7.97661 6.50153 8.43569 6.47516L8.44478 6.47426L8.46205 6.44335C8.50386 6.3688 8.54841 6.29699 8.59659 6.22608C8.7084 5.5252 8.61659 4.68795 8.3666 4.00433C8.24478 3.67344 8.09661 3.41344 7.95479 3.26527C7.92552 3.23446 7.89289 3.20702 7.85752 3.18345L7.8548 3.18163ZM16.1945 3.218L16.1927 3.21891C16.1573 3.24247 16.1247 3.26991 16.0954 3.30072C15.9536 3.4489 15.8045 3.7098 15.6836 4.0407C15.42 4.76249 15.3318 5.65519 15.4746 6.3788L15.5273 6.46698L15.5345 6.47971H15.5618C16.013 6.47983 16.4618 6.54473 16.8945 6.67243C16.9727 5.65065 16.9291 4.81522 16.7781 4.19796C16.6963 3.86616 16.5872 3.61344 16.4609 3.44163L16.4572 3.43617C16.3935 3.34037 16.3036 3.26495 16.1982 3.21891L16.1945 3.218Z" fill="#323544"/>
</svg>
