<svg width="24" height="24" viewBox="0 0 24 24" fill="none" xmlns="http://www.w3.org/2000/svg">
<path d="M4.2173 9.42519L4.29647 8.87498C4.48964 7.56634 5.0256 6.41049 5.87428 5.38923C6.60041 4.50077 7.51531 3.78519 8.55252 3.29446C9.47641 2.85903 10.4486 2.58036 11.4857 2.51703C12.385 2.46161 13.2598 2.53999 14.1243 2.77353C14.5805 2.89646 15.0223 3.06736 15.4425 3.28337C15.9927 3.56679 16.0703 4.00459 15.6238 4.4218C14.5906 5.39521 13.4455 6.24243 12.2124 6.94566C11.2069 7.51419 10.1504 7.98756 9.05682 8.3596C8.11437 8.67663 7.15162 8.92974 6.17512 9.11723C5.81966 9.1869 5.16652 9.28982 4.21651 9.42598L4.2173 9.42519Z" fill="#323544"/>
<path d="M5.78403 9.76799C7.17659 10.0926 8.58973 10.2905 10.014 10.3926C11.2585 10.4821 12.5077 10.4797 13.7562 10.4211C14.9999 10.3633 16.2246 10.1947 17.4438 9.97066C17.8682 9.89307 18.279 9.76324 18.7208 9.77511C19.6273 9.79807 20.2519 10.2778 20.4688 11.1328C20.7815 12.3607 20.7974 13.591 20.4633 14.811C20.1357 16.0286 19.5084 17.1448 18.6385 18.0576C17.71 19.0408 16.5665 19.7957 15.2976 20.2632C13.9399 20.7699 12.5323 20.933 11.0859 20.8016C10.7122 20.7729 10.3415 20.7136 9.97754 20.6242C9.93823 20.6144 9.89729 20.6131 9.85743 20.6203C9.81756 20.6275 9.7797 20.6432 9.74637 20.6662C8.77815 21.2378 7.72522 21.5077 6.59787 21.4998C6.27985 21.4947 5.96272 21.4645 5.64945 21.4096C5.03985 21.3098 4.82294 20.758 5.19977 20.2775C5.40561 20.0162 5.59244 19.7471 5.70803 19.4351C5.76107 19.2926 5.81095 19.1493 5.8537 19.0029C5.88932 18.8996 5.89352 18.788 5.86576 18.6824C5.838 18.5767 5.77953 18.4816 5.69774 18.4091C4.99631 17.7275 4.40889 16.9604 4.00118 16.0769C3.14775 14.2291 3.05908 12.3425 3.76209 10.4275C3.89197 10.0804 4.04647 9.74309 4.22443 9.41807L4.28143 9.42678C5.01056 9.59065 5.51169 9.70465 5.78403 9.76799Z" fill="#323544"/>
</svg>
