<svg width="24" height="24" viewBox="0 0 24 24" fill="none" xmlns="http://www.w3.org/2000/svg">
<path d="M15.9893 3.65625L22 7.07367V7.14609L15.9277 10.5269L15.9419 8.76448L15.2584 8.7395C14.3768 8.71619 13.9172 8.74117 13.3703 8.83108C12.4845 8.97676 11.6737 9.31143 10.7504 9.95662L8.94722 11.2095C8.71079 11.3719 8.53513 11.4892 8.38112 11.5883L7.95238 11.8564L7.62188 12.0512L7.94239 12.2427L8.38362 12.524C8.77989 12.7855 9.35764 13.1867 10.6322 14.0775C11.5563 14.7227 12.3663 15.0573 13.2521 15.203L13.5018 15.2405C14.0796 15.3163 14.6465 15.3188 15.8536 15.268L15.872 13.4706L21.8826 16.888V16.9604L15.8104 20.3421L15.822 18.7919L15.2934 18.8103C14.1395 18.8452 13.5143 18.8119 12.681 18.6754C11.2707 18.4423 9.96703 17.9045 8.61755 16.9613L6.82101 15.7125C6.61436 15.57 6.40481 15.4318 6.19247 15.2979L5.8037 15.0648C5.59373 14.9439 5.38282 14.8245 5.171 14.7069C4.42091 14.2898 2.4687 13.7786 2 13.7786V10.2588L2.11655 10.2621C2.58608 10.2563 4.53913 9.74433 5.28755 9.32641L6.13337 8.84356L6.498 8.61546C6.85431 8.38236 7.39044 8.01106 8.7341 7.07283C10.0836 6.12961 11.3864 5.59098 12.7975 5.35871C13.7566 5.20054 14.4409 5.18139 15.9727 5.24383L15.9893 3.65625Z" fill="#323544"/>
</svg>
