<svg width="24" height="24" viewBox="0 0 24 24" fill="none" xmlns="http://www.w3.org/2000/svg">
<path d="M16.7475 12C16.7475 16.1417 13.4458 19.5 9.37333 19.5C5.30167 19.5 2 16.1417 2 12C2 7.85833 5.30167 4.5 9.37333 4.5C13.4458 4.5 16.7475 7.85833 16.7475 12ZM13.7175 12C13.7175 9.56 11.7733 7.5825 9.37333 7.5825C6.975 7.5825 5.03 9.56 5.03 12C5.03 14.44 6.975 16.4175 9.37333 16.4175C11.7725 16.4175 13.7175 14.44 13.7175 12Z" fill="#323544"/>
<path d="M22 4.5H19.1717V19.5H22V4.5Z" fill="#323544"/>
</svg>
