<svg width="24" height="24" viewBox="0 0 24 24" fill="none" xmlns="http://www.w3.org/2000/svg">
<path d="M12.9898 4.64058C14.4719 3.15852 16.6111 2.72712 18.4983 3.33978C18.5828 3.36837 18.6589 3.41777 18.7189 3.48386C18.7788 3.54996 18.8208 3.63058 18.841 3.71748C18.8612 3.80444 18.8591 3.89543 18.8345 3.98123C18.8098 4.06704 18.7635 4.14538 18.7002 4.20834L15.4669 7.4408C15.9915 7.26901 16.5514 7.17624 17.1324 7.17624C19.2286 7.17639 21.0455 8.38526 21.9457 10.1523C21.9852 10.2322 22.0037 10.3212 21.9994 10.4103C21.995 10.4994 21.9683 10.5862 21.9212 10.6619C21.8741 10.7376 21.808 10.8001 21.7299 10.8434C21.652 10.8865 21.5642 10.9086 21.4752 10.9085H16.2956C16.7667 11.1412 17.1998 11.45 17.576 11.8259C18.2035 12.4536 18.6469 13.2413 18.8573 14.1035C19.0676 14.9658 19.0373 15.8696 18.7694 16.7157C18.6643 17.0483 18.2379 17.1463 17.9912 16.8997L13.3993 12.307V19.5289C13.3993 20.3024 12.7734 20.9289 12 20.9291C11.2265 20.9291 10.5999 20.3033 10.5999 19.5306V12.3078L6.00802 16.8997C5.95161 16.9565 5.8815 16.9981 5.80452 17.0201C5.72744 17.0422 5.64567 17.0442 5.56764 17.0258C5.48966 17.0074 5.41748 16.9693 5.35844 16.9151C5.29935 16.8609 5.25569 16.7919 5.23064 16.7157C4.96264 15.8695 4.93158 14.9659 5.14191 14.1035C5.35224 13.2413 5.79576 12.4536 6.42317 11.8259C6.79948 11.4499 7.23316 11.1412 7.70443 10.9085H2.52484C2.43574 10.9087 2.34802 10.8865 2.27006 10.8434C2.19205 10.8002 2.12592 10.7376 2.07876 10.6619C2.03166 10.5862 2.00501 10.4994 2.00062 10.4103C1.99629 10.3212 2.01479 10.2323 2.05434 10.1523C2.95456 8.3852 4.7713 7.1763 6.86762 7.17624C7.44874 7.17624 8.00839 7.26973 8.5331 7.44161L5.29983 4.20834C5.23648 4.14537 5.19021 4.06706 5.16551 3.98123C5.14083 3.8954 5.13799 3.80447 5.15819 3.71748C5.17841 3.63055 5.22115 3.54999 5.28111 3.48386C5.34106 3.41784 5.41721 3.36834 5.5017 3.33978C7.38872 2.72727 9.52736 3.15876 11.0093 4.64058C11.4204 5.05185 11.7504 5.5139 12 6.0065C12.2496 5.51396 12.5788 5.05181 12.9898 4.64058Z" fill="#323544"/>
</svg>
