<svg width="24" height="24" viewBox="0 0 24 24" fill="none" xmlns="http://www.w3.org/2000/svg">
<path d="M11.4883 16.6631L6.48828 21.668V15.915H4.33789V7.75293H6.48828V2.03027L11.4883 7.0332V2H12.4883V7.05762L17.5117 2.03027V7.75293H19.6621V15.915H17.5117V21.668L12.4883 16.6387V22H11.4883V16.6631ZM7.48828 13.4756V19.252L11.4883 15.249V9.47266L7.48828 13.4756ZM12.5 15.2363L16.5117 19.252L16.5107 13.4746L12.5 9.45996V15.2363ZM13.208 8.75391L17.5117 13.0615V14.915H18.6621V8.75293L13.208 8.75391ZM5.33789 14.915H6.48828V13.0615L10.793 8.75391L5.33789 8.75293V14.915ZM13.208 7.75293H16.5117V4.44531L13.208 7.75293ZM7.48828 7.75293H10.793L7.48828 4.44434V7.75293Z" fill="#323544"/>
</svg>
