<svg width="24" height="24" viewBox="0 0 24 24" fill="none" xmlns="http://www.w3.org/2000/svg">
<path d="M3.6228 4.5768C3 5.4921 3 6.7737 3 9.336V14.664C3 17.2263 3 18.507 3.6228 19.4232C3.87784 19.7985 4.20152 20.1222 4.5768 20.3772C5.4921 21 6.7737 21 9.336 21H14.664C17.2263 21 18.507 21 19.4232 20.3772C19.7985 20.1222 20.1222 19.7985 20.3772 19.4232C21 18.5079 21 17.2263 21 14.664V9.336C21 6.7737 21 5.493 20.3772 4.5768C20.1222 4.20152 19.7985 3.87784 19.4232 3.6228C18.5079 3 17.2263 3 14.664 3H9.336C6.7737 3 5.493 3 4.5768 3.6228C4.20152 3.87784 3.87784 4.20152 3.6228 4.5768ZM18.5358 14.907C18.5655 16.2867 18.2199 17.3865 17.3109 18.0327C16.4451 18.6483 15.2535 18.7068 13.953 18.5133C13.7788 18.4824 13.6235 18.3848 13.5201 18.2412C13.4167 18.0976 13.3735 17.9193 13.3995 17.7443C13.4255 17.5693 13.5188 17.4113 13.6595 17.304C13.8001 17.1967 13.9771 17.1485 14.1528 17.1696C15.3651 17.3505 16.1031 17.2254 16.5243 16.9248C16.9032 16.6566 17.2029 16.1103 17.1768 14.9358C17.173 14.7556 17.2409 14.5812 17.3656 14.4511C17.4904 14.321 17.6617 14.2457 17.8419 14.2419C18.0221 14.2381 18.1965 14.306 18.3266 14.4307C18.391 14.4925 18.4427 14.5663 18.4786 14.6481C18.5145 14.7298 18.5339 14.8178 18.5358 14.907Z" fill="#323544"/>
</svg>
