<svg width="24" height="24" viewBox="0 0 24 24" fill="none" xmlns="http://www.w3.org/2000/svg">
<path d="M5.10277 5.78564V22H8.14182V15.4228C8.14182 15.4228 8.14765 15.4228 8.14765 15.4286V15.0003C9.18844 16.0011 10.4959 16.6952 11.9433 16.9327C12.2917 16.9844 12.6466 17.0135 13.0066 17.0135C16.6107 16.9094 19.7314 14.237 20.2555 10.5696C20.3977 9.59319 20.344 8.59822 20.0975 7.64278C19.8509 6.68734 19.4166 5.79058 18.8197 5.00483C18.2258 4.21432 17.4816 3.54882 16.6299 3.04648C15.7782 2.54414 14.8358 2.21483 13.8566 2.07745C12.8764 1.93566 11.8778 1.98892 10.9183 2.23417C9.95874 2.47943 9.0571 2.91183 8.26515 3.50656C8.06682 3.65072 7.88183 3.80655 7.701 3.96904L5.57358 2.26828L3.66699 4.62818L5.10277 5.78564ZM12.8333 4.75568C13.8237 4.75451 14.7897 5.06354 15.5955 5.63939C16.4014 6.21523 17.0067 7.02897 17.3265 7.96638C17.5329 8.57719 17.6119 9.22386 17.5584 9.8664C17.5049 10.5089 17.3201 11.1337 17.0155 11.7019C16.7109 12.2702 16.2929 12.7699 15.7873 13.1701C15.2818 13.5703 14.6996 13.8625 14.0766 14.0286C13.6714 14.1385 13.2531 14.1929 12.8333 14.1903C12.02 14.1903 11.2584 13.9878 10.5901 13.6295C9.97987 13.3097 9.44933 12.8569 9.03761 12.3045C8.56158 11.6799 8.25527 10.9427 8.14848 10.1646C8.11324 9.9369 8.09569 9.70677 8.09599 9.47633C8.09599 6.86726 10.2176 4.75568 12.8333 4.75568Z" fill="#323544"/>
</svg>
