<svg width="24" height="24" viewBox="0 0 24 24" fill="none" xmlns="http://www.w3.org/2000/svg">
<path d="M16.9065 9.84156C17.3076 9.84156 17.6335 10.1675 17.6335 10.5686V13.7999L21.1808 10.739C21.2334 10.6934 21.2981 10.6638 21.3671 10.6539C21.4362 10.6439 21.5066 10.6541 21.57 10.683C21.6334 10.712 21.6871 10.7586 21.7248 10.8173C21.7625 10.876 21.7825 10.9442 21.7824 11.014V19.9819C21.7824 20.0507 21.7629 20.1181 21.7262 20.1762C21.6895 20.2344 21.6371 20.281 21.5751 20.3106C21.513 20.3402 21.4438 20.3517 21.3755 20.3437C21.3072 20.3356 21.2426 20.3084 21.1891 20.2652L17.6335 17.3898V20.6413C17.6334 20.8144 17.5714 20.9818 17.4589 21.1134L17.3862 21.1869C17.3085 21.2551 17.2172 21.3059 17.1184 21.3361C17.0195 21.3662 16.9154 21.3749 16.8129 21.3616L7.69868 20.1833V21.273C7.69868 21.4657 7.6222 21.6505 7.48604 21.7868C7.34988 21.9231 7.16518 21.9998 6.97252 22H2.94477C2.75211 22 2.56732 21.9235 2.431 21.7874C2.29469 21.6512 2.21799 21.4665 2.21777 21.2738V10.5694C2.21777 10.1683 2.54367 9.8424 2.94477 9.84156H16.9065ZM11.7607 13.4749H8.04881C7.95255 13.4749 7.86022 13.5131 7.79207 13.5811C7.72393 13.649 7.68553 13.7413 7.68531 13.8376V16.2166C7.68531 16.4171 7.84826 16.5793 8.04881 16.5793H11.7607C11.9612 16.5793 12.1233 16.4171 12.1242 16.2166V13.8376C12.124 13.7413 12.0856 13.649 12.0174 13.5811C11.9493 13.5131 11.8569 13.4749 11.7607 13.4749ZM12.9356 2C13.9005 2 14.826 2.38332 15.5083 3.06564C16.1906 3.74797 16.5739 4.67339 16.5739 5.63834C16.5739 6.60329 16.1906 7.52871 15.5083 8.21103C14.826 8.89335 13.9005 9.27668 12.9356 9.27668C11.9706 9.27668 11.0452 8.89335 10.3629 8.21103C9.68057 7.52871 9.29724 6.60329 9.29724 5.63834C9.29724 4.67339 9.68057 3.74797 10.3629 3.06564C11.0452 2.38332 11.9706 2 12.9356 2ZM6.26724 3.09718C6.66537 3.09718 7.05959 3.1756 7.42741 3.32796C7.79523 3.48031 8.12944 3.70362 8.41096 3.98514C8.69247 4.26666 8.91578 4.60086 9.06814 4.96868C9.2205 5.3365 9.29891 5.73073 9.29891 6.12885C9.29891 6.52698 9.2205 6.92121 9.06814 7.28902C8.91578 7.65684 8.69247 7.99105 8.41096 8.27257C8.12944 8.55409 7.79523 8.7774 7.42741 8.92975C7.05959 9.08211 6.66537 9.16052 6.26724 9.16052C5.46319 9.16052 4.69208 8.84112 4.12353 8.27257C3.55498 7.70402 3.23557 6.9329 3.23557 6.12885C3.23557 5.32481 3.55498 4.55369 4.12353 3.98514C4.69208 3.41659 5.46319 3.09718 6.26724 3.09718Z" fill="#323544"/>
</svg>
