<svg width="24" height="24" viewBox="0 0 24 24" fill="none" xmlns="http://www.w3.org/2000/svg">
<path d="M19.8486 9.55579C19.7827 10.1625 19.6044 11.1352 18.9667 12.0288C18.1757 13.1386 17.1084 13.4552 16.6905 13.5522C16.4119 13.5841 16.0029 13.6263 15.5079 13.662C13.769 13.7942 12.5818 13.7437 11.1624 13.7168C10.2213 13.6993 8.88762 13.6878 7.24808 13.7168C7.23772 16.4729 7.22706 19.2295 7.21608 21.9863L4.10547 22V15.5492C4.10924 14.2676 4.11582 12.4414 4.14123 10.1729C5.65748 10.1773 14.306 10.1268 15.3366 10.1812C15.5446 10.1938 16.0656 10.2146 16.3964 9.83768C16.6152 9.59084 16.705 9.19314 16.7121 8.59792C16.7197 8.13325 16.7267 7.66531 16.7121 7.20339C16.6801 6.11004 16.3244 5.69971 15.3795 5.69586C12.329 5.69147 9.27538 5.62016 6.22501 5.69586C5.79018 5.70408 5.05371 5.71671 4.12711 5.68763V2C4.55817 2.00823 5.29794 2.02523 6.21795 2.01645C10.5685 1.98354 12.2415 2.01262 15.1926 2.01645C18.1677 2.02084 19.8886 4.04624 19.8886 7.53694C19.8858 8.21115 19.9216 8.89415 19.8486 9.55579Z" fill="#323544"/>
<path d="M19.8949 18.8421H10.4213V22H19.8949V18.8421Z" fill="#323544"/>
</svg>
