<svg width="24" height="24" viewBox="0 0 24 24" fill="none" xmlns="http://www.w3.org/2000/svg">
<path d="M21.7298 10.1723C21.9056 10.3981 21.9999 10.6784 22 10.965V13.9606C22.0012 14.1179 21.9707 14.2742 21.9104 14.4196C21.8502 14.5649 21.7614 14.6966 21.6492 14.8069C21.537 14.9173 21.4034 15.0038 21.257 15.0617C21.1107 15.1194 20.9544 15.1477 20.7972 15.1438H20.7882C20.3416 15.1457 19.9143 15.3245 19.5993 15.6411C19.2842 15.9577 19.1073 16.3859 19.1077 16.8325C19.11 16.9877 19.0814 17.1424 19.0239 17.2866C18.9664 17.4306 18.8808 17.5622 18.7724 17.6731C18.6641 17.784 18.535 17.8727 18.3924 17.9336C18.2496 17.9944 18.0959 18.0265 17.9407 18.028H9.73763L8.07666 20.104V20.1023C7.99526 20.1937 7.88203 20.2507 7.76009 20.261C7.63826 20.2714 7.51716 20.2347 7.42155 20.1585C7.32591 20.0822 7.26274 19.972 7.24577 19.8509C7.22882 19.7297 7.25937 19.6063 7.33041 19.5066L9.13786 17.2467H17.3401C17.4955 17.2453 17.6489 17.2132 17.7918 17.1523C17.9347 17.0913 18.0649 17.0031 18.1735 16.8919C18.282 16.7807 18.3674 16.6489 18.4249 16.5045C18.4825 16.3602 18.511 16.2058 18.5088 16.0504C18.509 15.6039 18.686 15.1753 19.0011 14.859C19.3162 14.5429 19.7437 14.3644 20.1901 14.3626H20.1958C20.353 14.3658 20.5094 14.3377 20.6556 14.2796C20.8017 14.2215 20.9349 14.1351 21.047 14.0249C21.1591 13.9146 21.2477 13.7826 21.3082 13.6375C21.3687 13.4924 21.4 13.3366 21.3994 13.1793V9.74022L21.7298 10.1723Z" fill="#323544"/>
<path d="M20.6328 8.74087C20.8078 8.96835 20.9021 9.2469 20.9021 9.5327V12.5275C20.9026 12.6846 20.8723 12.8406 20.8118 12.9857C20.7514 13.1306 20.6625 13.262 20.5506 13.3722C20.4386 13.4824 20.3051 13.5696 20.1591 13.6277C20.0133 13.6858 19.8572 13.7137 19.7002 13.7107H19.692C19.2457 13.713 18.8179 13.8924 18.5031 14.2088C18.1884 14.5251 18.0115 14.9532 18.0115 15.3994C18.0138 15.5548 17.9853 15.7091 17.9277 15.8535C17.8702 15.9978 17.7848 16.1297 17.6762 16.2409C17.5677 16.3519 17.4382 16.4404 17.2954 16.5013C17.1525 16.5621 16.999 16.5943 16.8437 16.5957H8.64144L7.04476 18.5952C6.95205 18.711 6.8171 18.7855 6.6696 18.8019C6.52228 18.8182 6.37445 18.7756 6.25863 18.6831C6.14281 18.5904 6.06842 18.4553 6.05193 18.3079C6.03552 18.1604 6.07807 18.012 6.17074 17.8961L6.16993 17.8945L7.93669 15.6858H16.1398C16.2953 15.6845 16.4492 15.6524 16.5923 15.5914C16.7353 15.5304 16.8653 15.4423 16.9739 15.331C17.0825 15.2197 17.1679 15.0874 17.2254 14.9428C17.2828 14.7984 17.3109 14.6441 17.3084 14.4887C17.3084 13.5588 18.0582 12.8044 18.9865 12.8009H18.997C19.1543 12.8042 19.3107 12.776 19.4568 12.7179C19.603 12.6598 19.7362 12.5728 19.8483 12.4624C19.9603 12.3519 20.0492 12.2203 20.1095 12.075C20.1698 11.9296 20.2001 11.7734 20.199 11.616V8.17447L20.6328 8.74087Z" fill="#323544"/>
<path d="M13.425 7.5397C14.0799 7.5397 14.6098 8.07131 14.6098 8.7246V9.9103C14.6098 10.2246 14.4854 10.5263 14.2632 10.7485C14.0409 10.9707 13.7392 11.0952 13.425 11.0952C13.1108 11.0951 12.8097 10.9706 12.5876 10.7485C12.3653 10.5263 12.2401 10.2246 12.2401 9.9103V8.72541C12.2403 8.41132 12.3654 8.11003 12.5876 7.88801C12.8097 7.66606 13.1109 7.5414 13.425 7.54133V7.5397Z" fill="#323544"/>
<path d="M8.17676 7.5397C8.83172 7.5397 9.3616 8.07131 9.36165 8.7246V9.90949C9.36165 10.2237 9.23718 10.5255 9.01497 10.7477C8.79274 10.9699 8.49104 11.0944 8.17676 11.0944C7.86264 11.0943 7.56154 10.9698 7.33936 10.7477C7.11713 10.5255 6.99187 10.2238 6.99187 9.90949V8.7246C6.99234 8.4105 7.11784 8.10906 7.34017 7.8872C7.56247 7.66555 7.86365 7.54115 8.17757 7.54133L8.17676 7.5397Z" fill="#323544"/>
<path d="M15.5449 3.73438C15.7002 3.73611 15.8538 3.76839 15.9966 3.82959C16.1393 3.89083 16.2691 3.97946 16.3774 4.09082C16.4858 4.20218 16.5708 4.33459 16.6281 4.479C16.6853 4.62331 16.7136 4.77789 16.7111 4.9331C16.7107 5.15422 16.7537 5.37322 16.838 5.57763C16.9224 5.78209 17.0464 5.96796 17.2026 6.12451C17.359 6.2811 17.545 6.406 17.7495 6.49072C17.9538 6.57533 18.1729 6.61857 18.394 6.61848H18.3989C18.5578 6.61524 18.7162 6.64449 18.8636 6.70393C19.0108 6.76336 19.1446 6.85188 19.2566 6.96435C19.4875 7.19599 19.6041 7.49847 19.6041 7.80093V10.8372C19.605 10.9946 19.5743 11.1509 19.5138 11.2962C19.4533 11.4415 19.364 11.5733 19.2518 11.6836C19.1394 11.7938 19.0059 11.8805 18.8595 11.9383C18.7131 11.9961 18.5563 12.0243 18.3989 12.0205C17.4641 12.0206 16.7112 12.7743 16.7111 13.7075V13.7091C16.7135 13.8643 16.6847 14.019 16.6273 14.1632C16.5699 14.3073 16.4849 14.4388 16.3766 14.5498C16.2682 14.6608 16.1385 14.7493 15.9957 14.8102C15.8529 14.8711 15.6993 14.9033 15.5441 14.9046H7.3418L5.63282 17.0433C5.57884 17.1105 5.50499 17.1595 5.42205 17.1832C5.33907 17.2069 5.25037 17.2045 5.16896 17.1759C5.08767 17.1473 5.01695 17.0941 4.96713 17.0237C4.91733 16.9534 4.89065 16.869 4.89064 16.7828V13.7051C4.8895 13.2583 4.71135 12.83 4.39503 12.5145C4.07876 12.199 3.6503 12.0222 3.20363 12.0221C3.04646 12.0254 2.88996 11.9971 2.74383 11.9391C2.59764 11.8811 2.46454 11.7939 2.35239 11.6836C2.2403 11.5733 2.15081 11.4422 2.09035 11.297C2.02992 11.1519 1.99936 10.996 2.00002 10.8388V7.80337C1.99911 7.64593 2.02994 7.48979 2.09035 7.34439C2.15072 7.19913 2.2395 7.0674 2.35158 6.95702C2.46383 6.84656 2.59745 6.75958 2.74383 6.70149C2.89023 6.6434 3.04698 6.61503 3.20444 6.61848V6.61685C3.65185 6.61658 4.08111 6.43843 4.39747 6.12206C4.71372 5.80567 4.89123 5.37639 4.89145 4.92903C4.88907 4.7739 4.91787 4.61989 4.97527 4.47575C5.03274 4.33146 5.1182 4.19947 5.22674 4.08838C5.33522 3.97741 5.4648 3.88873 5.60759 3.82796C5.75044 3.76721 5.90403 3.73557 6.05925 3.73438H15.5449ZM6.0503 6.09928C5.60589 6.09969 5.17953 6.27564 4.86378 6.58837C4.54806 6.90113 4.36795 7.32563 4.36329 7.77001V10.8706C4.36779 11.3151 4.54788 11.7403 4.86378 12.053C5.17974 12.3657 5.60659 12.5413 6.05112 12.5413H15.5522C15.9967 12.5413 16.4236 12.3657 16.7396 12.053C17.0555 11.7403 17.2356 11.3151 17.24 10.8706H17.2384V7.77001C17.2338 7.32537 17.054 6.90036 16.7379 6.58756C16.4218 6.27471 15.9945 6.09925 15.5498 6.09928H6.0503Z" fill="#323544"/>
</svg>
