<svg width="24" height="24" viewBox="0 0 24 24" fill="none" xmlns="http://www.w3.org/2000/svg">
<path d="M11.8524 20.4555C11.9582 20.6155 12.0332 20.7905 12.0824 20.978C12.1649 21.258 12.1132 21.5722 11.7682 21.5822C11.5357 21.6055 11.3466 21.4772 11.3182 21.2514C11.2632 20.9264 11.4057 20.6264 11.5674 20.3489L11.5766 20.3339C11.5974 20.303 11.6241 20.273 11.6557 20.2689H11.6624C11.7241 20.263 11.7949 20.3705 11.8524 20.4555ZM13.1824 19.4164C13.8074 19.6747 13.9741 20.4547 13.1124 20.463H13.0999C12.6666 20.4772 12.3449 20.0697 12.6107 19.6964C12.7357 19.5197 12.9582 19.3464 13.1824 19.4164ZM9.85822 18.9214C10.0716 18.9489 10.2849 19.0047 10.4932 19.0547L10.5241 19.0639C10.6991 19.1122 10.9057 19.1555 10.9824 19.3114C11.1991 19.7989 10.5907 20.2222 10.1691 20.2305H10.1457C9.80155 20.2389 9.47155 20.1247 9.36072 19.7839C9.26905 19.5505 9.28989 19.2814 9.46739 19.0947L9.47905 19.0822C9.57655 18.9788 9.71406 18.9055 9.85822 18.9214ZM14.9366 19.1189V19.1305C14.9332 19.3822 14.8132 19.6372 14.5866 19.7564C14.4316 19.8339 14.2391 19.748 14.0966 19.6314C13.9541 19.5089 13.8607 19.3347 13.7782 19.158L13.7449 19.0855C13.5841 18.748 13.8182 18.6255 14.0824 18.563L14.1157 18.5547C14.1641 18.5447 14.2124 18.5364 14.2599 18.528L14.2949 18.5213C14.7766 18.4338 14.9549 18.6463 14.9366 19.1189ZM4.35571 4.49381C5.31404 5.21048 6.26071 5.93881 7.16905 6.71881C9.23239 8.52382 9.95739 11.3588 10.0457 14.0238C10.0857 14.943 10.1357 15.8613 10.2116 16.7788L10.2149 16.8122C10.2307 16.9638 10.2799 17.2813 10.4232 17.2472L10.4291 17.2447C10.4766 17.2113 10.5007 17.1422 10.5199 17.0847C10.6149 16.8047 10.6816 16.5072 10.7891 16.2297C10.8641 16.0497 10.9591 15.943 11.1032 15.8872C11.3532 15.7872 11.6882 15.8355 11.8282 16.0922C11.8591 16.1338 11.8891 16.1947 11.9199 16.2605L11.9499 16.3255L11.9666 16.3622L12.0007 16.4305C12.0841 16.588 12.1866 16.7172 12.3507 16.6505C12.4482 16.6013 12.5349 16.4922 12.6166 16.4147C12.7832 16.2313 13.0374 16.1713 13.2107 16.3705C13.6474 16.8838 13.6274 17.6088 13.2107 18.1255C12.8349 18.613 12.2257 18.7089 11.6591 18.6138L11.6141 18.6055C10.8041 18.4705 10.3182 17.8055 9.93489 17.123L9.90989 17.0772C9.47783 16.3567 9.03808 15.6408 8.59072 14.9297L8.56572 14.8922C8.46905 14.7547 8.34572 14.6005 8.20738 14.5213C8.14905 14.5088 8.20238 14.6272 8.21488 14.6655C8.60405 15.7097 9.10655 16.6863 9.84906 17.5213L9.85822 17.538C9.92989 17.678 9.82072 17.6397 9.69989 17.5722L9.68655 17.5638L9.66405 17.5513L9.64822 17.5422C9.61275 17.5201 9.57774 17.4974 9.54322 17.4738L9.48072 17.4322C9.24357 17.2713 9.0255 17.084 8.83072 16.8738C8.18738 16.1488 7.64738 15.3422 7.11905 14.5272L6.66905 13.8313C6.3743 13.3714 6.06583 12.9203 5.74404 12.4788C5.39821 12.0063 5.00237 11.5688 4.66237 11.0905C4.01737 10.198 3.61987 9.16382 3.39654 8.08215C3.28237 7.61548 3.14904 7.15382 3.03154 6.68881L2.98153 6.48881C2.9032 6.17215 2.8432 5.83548 2.87403 5.51131C2.9432 4.76631 3.5532 3.87047 4.35571 4.49381ZM19.5807 16.5222C18.7074 17.5022 16.8316 18.628 15.7399 18.3172L15.7416 18.3155C15.7532 18.2997 15.8457 18.2797 15.8891 18.2697C16.5874 18.1097 17.1849 17.7372 17.7932 17.388C18.2566 17.1422 18.6666 16.8197 19.0641 16.4713L19.0974 16.4447C19.1858 16.3705 19.2832 16.2947 19.3907 16.2663C19.5791 16.2222 19.7474 16.358 19.5807 16.5222ZM3.67654 11.5013C5.04904 11.8372 5.83404 12.933 6.55571 14.068L6.64571 14.2097L6.83405 14.508C7.04238 14.8397 7.25238 15.1663 7.47571 15.4705C7.65322 15.7247 7.84405 15.9688 8.03072 16.2155C8.07072 16.2638 8.12655 16.3905 8.07238 16.3955H8.06322C8.02072 16.3955 7.95738 16.3438 7.91988 16.3072C7.71559 16.1157 7.51363 15.9218 7.31405 15.7255L7.11405 15.5288C6.81597 15.2334 6.50945 14.9466 6.19488 14.6688C6.05738 14.603 6.11738 14.783 6.17238 14.8672C6.32821 15.1055 6.55821 15.2813 6.75155 15.4897C7.04571 15.783 7.34405 16.073 7.66322 16.338C8.33405 16.888 9.06322 17.3647 9.77489 17.8647L9.82156 17.8997C9.90406 17.9613 9.99739 18.043 9.99239 18.133C9.98822 18.373 8.82822 18.3722 8.60655 18.3622H8.59988C7.10238 18.3013 5.87488 17.5188 4.71654 16.6497L4.60154 16.5622L4.52071 16.5013C4.44082 16.4404 4.3611 16.3793 4.28154 16.318L3.86404 15.9955C3.6257 15.8088 3.38654 15.6263 3.15737 15.428C2.38653 14.7513 2.02653 13.7497 2.0082 12.7363C1.9107 11.6363 2.6957 11.2288 3.67654 11.5013ZM20.9333 12.0805L20.9866 12.0922C21.2941 12.1572 21.5474 12.3322 21.7358 12.6072C21.9466 12.9155 22.0583 13.2963 21.9691 13.6572C21.7474 14.3822 21.2974 15.008 20.7641 15.5405C20.6391 15.663 20.5066 15.7763 20.3724 15.8888C20.2241 16.0013 20.0849 16.1647 19.8966 16.2022C19.7382 16.2305 19.5616 16.0897 19.3991 16.0947C19.2674 16.0947 19.1574 16.1713 19.0574 16.2555C18.3857 16.8947 17.5741 17.3272 16.7474 17.7263L16.4374 17.8747L16.2307 17.9722L16.2166 17.978C16.0591 18.0413 15.5616 18.313 15.4916 18.173L15.4882 18.1672C15.4599 18.1088 15.5132 17.9913 15.5641 17.9188C16.3707 16.8822 16.9124 15.6972 17.4357 14.5047L17.6132 14.0997L17.8257 13.6197L17.9282 13.403C18.0866 13.0697 18.2591 12.7305 18.5332 12.488C19.1749 11.9463 20.1366 11.913 20.9333 12.0805ZM19.6641 5.98465C19.7982 6.26381 19.8474 6.55965 19.9366 6.86298C19.9549 6.93298 19.9699 7.00548 19.9699 7.07715V7.08715C19.9692 7.14808 19.9617 7.20874 19.9474 7.26798L19.8866 7.51798C19.8169 7.8309 19.7247 8.13837 19.6108 8.43799C19.3441 9.10215 19.0841 9.76882 18.8257 10.4372L18.5149 11.2388C17.9416 12.7188 17.3641 14.198 16.7232 15.6488C16.3457 16.443 15.8199 17.1605 15.2307 17.8072C15.0666 17.9963 14.8532 18.1438 14.5832 18.0763C14.1582 17.973 14.0916 17.6963 14.2366 17.3113C14.3924 16.8563 14.5866 16.4113 14.7091 15.948C14.9474 14.9597 15.0274 13.9413 14.8757 12.9247C14.7974 12.3247 14.4941 12.2472 14.0899 11.9255C14.0273 11.8734 13.9787 11.8064 13.9486 11.7308C13.9184 11.6551 13.9077 11.573 13.9174 11.4922C13.9457 11.2113 14.0491 10.9222 14.1374 10.6505L14.1499 10.6122C14.4441 9.70216 14.9941 8.93299 15.5724 8.18549L15.7057 8.01382L15.8407 7.84215C15.9407 7.71382 16.0416 7.58548 16.1407 7.45632C16.3257 7.20965 16.5816 7.03965 16.8407 6.88298C17.2407 6.61631 17.5007 6.20298 17.8891 5.92798C18.3607 5.56381 19.3124 5.37298 19.6641 5.98465ZM11.3416 17.608C11.3474 18.058 12.1457 18.2147 12.1716 17.6513V17.6405C12.2024 17.1288 11.3799 17.1422 11.3416 17.608ZM6.52488 16.8713H6.52321C7.18988 17.3905 7.97072 17.8563 8.82072 17.9797C8.82072 17.963 8.74572 17.9305 8.71822 17.9163C7.98822 17.5738 7.25821 17.198 6.52488 16.8713ZM2.6332 13.7888L2.6407 13.8055C3.37404 15.403 4.74321 16.3613 6.26904 17.058L6.31488 17.0797L6.31571 17.0788L6.10488 16.9463L5.97821 16.8672L5.89488 16.8138L5.81488 16.7638C4.59321 15.9888 3.41237 15.1522 2.6757 13.8388L2.63487 13.7655C2.59487 13.6963 2.5957 13.7072 2.6332 13.7888ZM14.4282 12.4972C14.6724 12.8313 14.6991 13.2747 14.7041 13.673V13.6838C14.6907 14.1995 14.616 14.7117 14.4816 15.2097C14.4582 15.2772 14.4399 15.3522 14.4199 15.4272L14.4107 15.4622L14.4007 15.4955C14.3574 15.6455 14.2991 15.788 14.1724 15.8655C13.9082 16.0038 13.8024 15.6805 13.8274 15.4638C13.8507 14.6305 13.8924 13.7955 13.9341 12.9638C13.9474 12.798 13.9449 12.628 13.9841 12.4638C14.0007 12.3997 14.0299 12.3447 14.0724 12.3197C14.2082 12.2555 14.3474 12.398 14.4282 12.4972ZM15.5724 4.96714C16.0799 5.29464 16.3691 5.80298 16.4491 6.39715L16.4532 6.42548C16.4664 6.511 16.4594 6.59841 16.4328 6.68074C16.4062 6.76307 16.3607 6.83804 16.2999 6.89965C14.3249 8.80465 13.4532 11.5355 13.2957 14.2372L13.2741 14.4072C13.2366 14.6905 13.1957 14.9738 13.1366 15.2522C13.0616 15.5663 12.7716 15.6355 12.5866 15.3555C12.4932 15.2138 12.4849 15.0322 12.4716 14.8663C12.4394 14.3466 12.4122 13.8266 12.3899 13.3063C12.3532 12.768 12.4799 12.558 12.8799 12.2247C13.0957 12.0055 13.1299 11.7288 13.0732 11.4288L13.0549 11.3438C12.9907 11.0505 12.9157 10.748 12.7216 10.5138C12.4199 10.1538 11.8382 10.0522 11.4757 10.3822C11.0124 10.8113 10.9391 11.5022 11.1749 12.0663L11.1832 12.0872C11.3766 12.5422 11.5541 13.0105 11.6274 13.4997L11.6349 13.5505C11.6882 13.9063 11.6766 14.273 11.6266 14.628L11.6157 14.708C11.5941 14.8688 11.5807 15.0605 11.4799 15.1697C11.4057 15.253 11.2657 15.2772 11.1557 15.238C11.0116 15.1922 10.9882 15.0188 10.9866 14.8822C10.9849 14.3513 10.8582 13.8438 10.7199 13.3388L10.6499 13.0855C10.5978 12.9007 10.5495 12.7148 10.5049 12.528L10.3216 11.7372C10.1549 11.0122 9.99156 10.2855 9.85072 9.55382C9.43072 7.89965 9.96572 6.38881 11.3941 5.44214C11.7024 5.25214 12.0541 5.08048 12.4241 5.08048C12.9016 5.07714 13.3874 5.36381 13.5907 5.81381C13.6591 5.97048 13.6682 6.14215 13.6624 6.31131V6.33465C13.6366 7.01465 13.6032 7.69548 13.5707 8.37632L13.5541 8.71965L13.5432 8.94799C13.5241 9.32966 13.5082 9.71049 13.5132 10.093C13.5157 10.1872 13.5091 10.293 13.5266 10.3822C13.5349 10.4213 13.5457 10.4405 13.5574 10.4322L13.5599 10.4313L13.5582 10.4297C13.5816 10.4097 13.5999 10.3055 13.6032 10.2563C13.6191 10.103 13.6349 9.94882 13.6482 9.79549C13.7332 8.72049 13.7832 7.64382 13.8816 6.57048C13.9441 5.82131 14.6757 4.38631 15.5732 4.96631L15.5724 4.96714ZM3.5332 4.69881C3.2582 4.77798 3.22904 5.12298 3.26654 5.36881L3.2832 5.50798C3.3207 5.83298 3.3657 6.15798 3.43904 6.47465L3.48404 6.66131C3.5257 6.83048 3.56154 7.00048 3.54904 7.17548C3.52404 7.38632 3.4757 7.59132 3.5432 7.79715C3.6907 8.38049 3.91737 8.93299 4.19321 9.46299L4.20487 9.47966C4.29404 9.60466 4.26571 9.44132 4.23237 9.36716L4.06987 8.96549C4.0157 8.83215 3.96154 8.69799 3.91154 8.56299L3.8432 8.38215C3.7057 8.01049 3.58737 7.63632 3.67404 7.23215C3.74237 7.00882 3.7407 6.78465 3.6432 6.56881C3.4532 6.06465 3.3407 5.52714 3.45154 4.99381C3.6432 4.21464 5.01321 5.72715 5.18654 6.01881C5.35738 6.26048 5.50238 6.53048 5.61321 6.80882C5.82738 7.35465 6.03404 7.89548 6.23238 8.44549C6.93988 10.3422 7.32571 12.333 7.65988 14.333L7.66072 14.3338C7.6653 14.2576 7.66223 14.1811 7.65155 14.1055L7.64988 14.0955C7.59155 13.618 7.53738 13.1372 7.47571 12.6605C7.27155 10.9088 6.77821 9.21716 6.17404 7.56632L6.14321 7.48048C5.93906 6.89722 5.63973 6.35178 5.25737 5.86631L5.23821 5.84381C4.92154 5.45964 4.0332 4.56381 3.5332 4.69881ZM8.27322 13.5863C8.37238 14.1413 8.58405 14.1005 9.07655 14.133H9.08739C9.35155 14.158 9.50655 14.0372 9.55322 13.7813L9.55572 13.7655C9.67739 13.0655 9.23489 12.1697 8.50405 12.0422C7.85322 11.9763 8.21488 13.223 8.27322 13.5863ZM8.83155 12.5988C9.00989 12.7738 9.16489 13.0613 9.12572 13.348L9.12322 13.3572C9.06822 13.5372 8.79239 13.4963 8.68989 13.4022C8.65386 13.3613 8.62865 13.312 8.61655 13.2588C8.55822 13.0547 8.50488 12.8363 8.51072 12.6222C8.52988 12.4022 8.73072 12.4905 8.83155 12.5988ZM12.1866 10.723C12.5199 10.8455 12.5957 11.3347 12.4141 11.6213C12.1407 12.0372 11.5732 11.9322 11.6091 11.3722V11.3597C11.6141 11.0522 11.8374 10.6213 12.1866 10.723ZM18.1557 6.36465V6.37298C18.1441 6.51715 18.1641 6.66881 18.1791 6.81382C18.3024 7.86298 18.3207 8.91215 18.1666 9.95966C18.1332 10.193 18.0891 10.4222 18.0416 10.653C18.0216 10.7988 17.9516 10.9947 17.9632 11.1288L17.9649 11.1305C17.9732 11.138 17.9949 11.1038 18.0174 11.0463C18.0624 10.9297 18.0941 10.7963 18.1224 10.673C18.4257 9.23716 18.5382 7.75298 18.3757 6.29381C18.3132 6.08881 18.1674 6.19381 18.1557 6.36465ZM17.3541 6.93465C17.5799 7.40548 17.6216 7.91382 17.6457 8.42132L17.6549 8.65299C17.6616 8.79632 17.6682 8.93799 17.6799 9.07882C17.7966 8.36049 17.7757 7.60715 17.3891 6.95882L17.3724 6.92965C17.3282 6.85965 17.3191 6.85465 17.3541 6.93465ZM19.2082 6.10631C19.1907 6.11465 19.1916 6.18548 19.1882 6.21715C19.1657 6.80465 19.1274 7.35882 19.1166 7.91132L19.1624 7.70882C19.2657 7.23382 19.3549 6.74215 19.2482 6.21715L19.2407 6.18715C19.2324 6.15381 19.2216 6.11215 19.2082 6.10631ZM8.77155 4.27297C9.00572 4.48714 9.20572 4.74548 9.33822 5.03714C9.57322 5.57548 9.17489 5.92381 8.66238 5.92298H8.63572C8.17738 5.93548 7.72238 5.58714 7.65238 5.12714L7.65072 5.11048C7.55905 4.53464 8.23822 3.79714 8.77155 4.27297ZM13.5716 3.02797L13.5774 3.03797C13.6557 3.16297 13.7191 3.30047 13.7832 3.43381L13.7974 3.46381C13.8507 3.57714 13.9066 3.67464 13.8791 3.79297L13.8774 3.80131L13.8632 3.85547C13.8324 3.97131 13.7907 4.10714 13.7074 4.19214C13.5182 4.41214 13.1374 4.37547 12.9849 4.13131L12.9774 4.11881C12.7782 3.79047 12.8541 3.25297 13.1357 2.9988C13.2582 2.88797 13.4774 2.8813 13.5716 3.02797ZM18.9474 2.41797C19.7474 2.4363 19.5149 3.4263 18.8224 3.38464C18.7595 3.377 18.6987 3.35679 18.6437 3.32521C18.5887 3.29362 18.5406 3.25131 18.5023 3.20079C18.464 3.15027 18.4362 3.09256 18.4206 3.03109C18.405 2.96962 18.402 2.90565 18.4116 2.84297C18.4407 2.56797 18.6441 2.42214 18.9199 2.41797H18.9474Z" fill="#323544"/>
</svg>
