<svg width="24" height="24" viewBox="0 0 24 24" fill="none" xmlns="http://www.w3.org/2000/svg">
<path d="M12.0017 2C6.48113 2 2.00049 6.47481 2.00049 11.9946C2.00049 14.7161 3.09128 17.1877 4.8587 18.9901V12.0046C4.8587 10.098 5.60284 8.2989 6.95028 6.95229C7.61253 6.2866 8.40035 5.75901 9.26805 5.40011C10.1358 5.04121 11.0661 4.85815 12.0051 4.86155H12.0634L12.0017 4.86821C15.9474 4.86821 19.1473 8.06808 19.1473 12.0104C19.1473 12.3546 19.1223 12.6921 19.0748 13.0262L15.0383 8.97638C14.6407 8.57828 14.1683 8.26276 13.6484 8.04795C13.1284 7.83315 12.571 7.72331 12.0084 7.72476C11.4456 7.72358 10.8882 7.83362 10.3681 8.04856C9.84797 8.2635 9.37546 8.57909 8.9777 8.97721C8.57787 9.37456 8.26097 9.84739 8.04539 10.3682C7.82982 10.8891 7.71986 11.4476 7.72192 12.0112C7.72192 13.1579 8.16857 14.2328 8.9777 15.0445C9.37522 15.4429 9.84767 15.7588 10.3678 15.9739C10.888 16.189 11.4455 16.2991 12.0084 16.2977C12.5712 16.2989 13.1286 16.1889 13.6487 15.9739C14.1688 15.759 14.6414 15.4434 15.0391 15.0453C15.7852 14.3014 16.2294 13.3075 16.2857 12.2554L18.654 14.6328C17.6073 17.2827 15.0266 19.1601 12.0059 19.1601C10.4401 19.1601 8.94687 18.6601 7.71858 17.7318V21.0375C9.01853 21.6558 10.4685 22 11.9992 22C17.519 21.9992 21.9997 17.5244 21.9997 12.0046C22.0063 6.47731 17.529 2.00333 12.0051 2.00333L12.0017 2Z" fill="#323544"/>
</svg>
