<svg width="24" height="24" viewBox="0 0 24 24" fill="none" xmlns="http://www.w3.org/2000/svg">
<path d="M17.5997 2.44539C17.7961 2.47669 17.9825 2.55383 18.1433 2.67081C18.3041 2.7878 18.4347 2.94123 18.525 3.11841C18.6153 3.29565 18.6625 3.49161 18.6625 3.69052L18.6674 8.95427L18.6691 8.9559V8.95915L21.7591 13.2203C22.2622 13.9136 21.9417 14.8954 21.1276 15.1604L16.1161 16.7937L13.0187 21.0492C12.5146 21.7408 11.4819 21.7408 10.9785 21.0492L7.87625 16.7889L2.8713 15.1572C2.05712 14.8913 1.73807 13.9096 2.24141 13.2162L5.33471 8.94857L5.34122 3.69703C5.3413 3.49812 5.38847 3.30216 5.47876 3.12492C5.56901 2.94775 5.69966 2.79431 5.86044 2.67732C6.02125 2.56037 6.20771 2.48322 6.40407 2.4519C6.60048 2.42061 6.80159 2.43628 6.99082 2.49747L11.9925 4.11696L17.0129 2.49096C17.2022 2.42973 17.4032 2.41409 17.5997 2.44539ZM11.3504 13.5084L11.3488 13.5092L11.3016 16.1899C11.298 16.3871 11.2479 16.581 11.1559 16.7555C11.064 16.9299 10.9324 17.0805 10.7718 17.1949C10.6111 17.3094 10.4256 17.384 10.2306 17.4139C10.195 17.4193 10.159 17.4213 10.1232 17.4236L11.999 19.9994L13.8716 17.4269C13.8372 17.4245 13.8025 17.4232 13.7683 17.4179C13.5733 17.3881 13.3877 17.3126 13.2271 17.1982C13.0666 17.0838 12.9349 16.9331 12.843 16.7587C12.7511 16.5844 12.7017 16.391 12.6981 16.194L12.6485 13.51L11.999 13.2862L11.3504 13.5084ZM14.1345 15.9238L15.225 15.5681L15.9053 14.6339L14.0995 14.0105L14.1345 15.9238ZM8.09191 14.6339L8.76657 15.5608L8.76738 15.5616L9.8644 15.9197L9.89858 14.0105L8.09191 14.6339ZM14.0596 11.7912L14.0718 12.4756L16.606 13.3505C17.2481 13.5721 17.5695 14.2402 17.4166 14.8495H17.419L17.4174 14.8528L20.4464 13.8665L18.5771 11.2891C18.5639 11.322 18.5516 11.3558 18.5356 11.3876C18.447 11.5637 18.3188 11.7169 18.1604 11.8344C18.0019 11.9518 17.8177 12.0303 17.6233 12.0639C17.4289 12.0974 17.2293 12.0848 17.0406 12.0272L14.4722 11.2435L14.0596 11.7912ZM6.96316 12.0329C6.77442 12.0905 6.57411 12.1031 6.37965 12.0695C6.1854 12.036 6.00174 11.9574 5.84335 11.8401C5.68491 11.7226 5.55599 11.5695 5.46737 11.3933C5.44984 11.3584 5.43514 11.322 5.42098 11.2858L3.55246 13.8632L6.57659 14.8479H6.57985C6.57156 14.8146 6.56344 14.781 6.55788 14.747C6.52607 14.5524 6.54026 14.3532 6.59938 14.1651C6.65851 13.977 6.76063 13.8052 6.89805 13.6638C7.03557 13.5224 7.20478 13.4149 7.39122 13.3505L9.92625 12.4748L9.93927 11.788L9.53237 11.2492L6.96316 12.0329ZM11.8745 10.2547C11.7129 10.4855 11.4779 10.6565 11.2088 10.7381L11.0013 10.8008L11.1283 10.9693C11.298 11.1945 11.3873 11.4702 11.3822 11.7522L11.3781 11.9743L11.5872 11.9027C11.8538 11.8111 12.1435 11.8112 12.41 11.9027L12.62 11.9751L12.6167 11.7554C12.6117 11.4737 12.7014 11.1967 12.8714 10.9717L13.0025 10.7967L13.0017 10.7951L12.7941 10.7325C12.5242 10.6504 12.2895 10.4801 12.1276 10.249L12.0023 10.07L11.8745 10.2547ZM6.77679 9.4157L6.77598 10.5827L8.60787 10.0236L7.44982 8.48877L6.77679 9.4157ZM15.3975 10.0179L17.2286 10.5762L17.227 9.42628L16.5499 8.49284L15.3975 10.0179ZM6.77923 7.11749C6.80829 7.09935 6.83738 7.08118 6.86794 7.06541C7.04312 6.97502 7.23724 6.92654 7.43435 6.92462C7.63159 6.92275 7.82705 6.96771 8.00402 7.05483C8.18089 7.14194 8.3353 7.26937 8.45406 7.42674L10.0744 9.57277L10.0768 9.57521L10.7287 9.37827L11.1234 8.81185L9.58608 6.61049C9.47304 6.44884 9.39941 6.26289 9.37123 6.06767C9.34307 5.8725 9.36145 5.67358 9.42413 5.48661C9.48685 5.29957 9.59236 5.12978 9.73256 4.991C9.75625 4.96756 9.78126 4.94568 9.80662 4.92426L6.78249 3.94525L6.77923 7.11749ZM14.1906 4.91857L14.1923 4.9202L14.1866 4.92182C14.2155 4.94569 14.2444 4.97023 14.2712 4.99669C14.4113 5.13529 14.5169 5.30472 14.5796 5.49149C14.6424 5.67854 14.6607 5.87807 14.6325 6.07337C14.6044 6.26864 14.5307 6.45449 14.4177 6.61618L12.8828 8.81104L13.2751 9.37176L13.9286 9.57033L15.5456 7.43C15.6643 7.27267 15.8181 7.14522 15.9949 7.05808C16.1718 6.9709 16.3673 6.92609 16.5645 6.92787C16.7616 6.92971 16.9557 6.97835 17.1309 7.06866C17.1633 7.08533 17.1939 7.10469 17.2245 7.124L17.2213 3.93874L14.1906 4.91857ZM10.9077 5.98385L12.0039 7.55288L13.0969 5.99036L11.9917 5.63228L10.9077 5.98385Z" fill="#323544"/>
</svg>
