<svg width="24" height="24" viewBox="0 0 24 24" fill="none" xmlns="http://www.w3.org/2000/svg">
<path d="M13.5767 2.91016C15.7584 2.91025 17.8294 3.70515 19.0721 5.47141C20.3137 7.23771 20.3728 9.46595 19.6474 11.5385C19.5659 11.7708 19.4726 12.0017 19.3713 12.2319C19.3714 12.2346 19.372 12.2372 19.3722 12.2399L19.3695 12.2363C18.5653 14.0603 17.1463 15.7995 15.2564 17.1458C14.1088 17.9633 12.8832 18.5665 11.6555 18.9515C11.8348 18.9598 12.0159 18.9657 12.1989 18.9657C14.4298 18.9657 16.4011 18.3409 17.7866 17.3881C19.1782 16.4309 19.8888 15.2182 19.8889 14.0092C19.8879 13.7002 19.843 13.3929 19.753 13.0975C20.3003 12.273 20.6309 11.3688 20.6728 10.427C21.4964 11.4479 22 12.6638 22 14.0092C22 16.1256 20.7543 17.9206 18.9789 19.1415C17.1998 20.3679 14.7988 21.0911 12.1998 21.0911C9.60166 21.091 7.20061 20.3678 5.41975 19.1415C4.93831 18.8102 4.49684 18.4356 4.10761 18.0247C3.71033 17.7043 3.35283 17.3273 3.04582 16.891C1.80222 15.1247 1.74426 12.8947 2.46965 10.8239L2.47142 10.823C3.19867 8.75033 4.73253 6.73387 6.8624 5.21662C8.99149 3.69753 11.3913 2.91016 13.5767 2.91016ZM12.2015 9.05362C9.97076 9.05367 8.00013 9.67854 6.61382 10.6312C5.22291 11.5885 4.51162 12.8001 4.50889 14.0092C4.50889 14.7865 4.80481 15.5643 5.38424 16.2757C6.14742 16.9228 7.23103 17.2896 8.54209 17.2896C10.2329 17.2895 12.2045 16.6708 14.0153 15.38C15.827 14.0891 17.0605 12.4248 17.6215 10.8194C17.6504 10.737 17.6761 10.6542 17.7014 10.5726C16.3202 9.65345 14.3848 9.05362 12.2015 9.05362ZM13.5776 5.07191C11.8867 5.07191 9.9144 5.68982 8.10352 6.97976C7.61094 7.33072 7.16197 7.71055 6.75676 8.10813C8.32758 7.35486 10.206 6.92652 12.2015 6.92649C14.3137 6.92649 16.2947 7.40417 17.918 8.24041C17.8299 7.67316 17.6289 7.15995 17.3196 6.71964C16.5869 5.68062 15.2711 5.07199 13.5776 5.07191Z" fill="#323544"/>
</svg>
