<svg width="24" height="24" viewBox="0 0 24 24" fill="none" xmlns="http://www.w3.org/2000/svg">
<path d="M22 5.38028C21.869 5.33763 21.7294 5.32854 21.594 5.35386C21.4586 5.37918 21.3318 5.43809 21.2251 5.52519C19.6848 7.34501 17.6411 8.6692 15.3508 9.3315C13.0605 9.9938 10.6255 9.96468 8.35165 9.2478L7.84132 7.38829C7.7642 7.17095 7.61205 6.98826 7.41224 6.8731C7.21243 6.75793 6.97809 6.71785 6.75136 6.76006L6.99437 8.72217C5.35988 7.97783 4.91256 7.87072 3.7659 6.51705C3.60569 6.39644 2.33572 5.26508 2 5.38028C2.95917 7.9333 4.85568 10.0245 7.30309 11.2279L7.96733 16.6012C7.96733 16.6012 8.26434 18.6587 10.1932 18.6587H14.3208C16.2505 18.6587 16.5475 16.6012 16.5475 16.6012L17.0137 12.749C15.76 12.65 14.9724 13.5203 14.7222 14.3817C14.3037 15.8344 14.3037 15.9262 14.2209 16.18C14.0517 16.6975 13.4954 16.7596 13.4954 16.7596H11.0176C11.0176 16.7596 10.4623 16.6966 10.2922 16.18C10.1841 15.8461 9.63782 13.8939 9.09059 11.9137C11.6696 12.6406 14.4276 12.3724 16.8183 11.1622C19.2089 9.95202 21.0579 7.88817 21.9991 5.37938L22 5.38028Z" fill="#323544"/>
</svg>
