<svg width="24" height="24" viewBox="0 0 24 24" fill="none" xmlns="http://www.w3.org/2000/svg">
<path fill-rule="evenodd" clip-rule="evenodd" d="M15.1127 18.6568C15.3816 18.6568 15.6394 18.7635 15.8295 18.9536C16.0196 19.1437 16.1265 19.4017 16.1265 19.6706C16.1265 19.9394 16.0196 20.1972 15.8295 20.3874C15.6394 20.5774 15.3816 20.6842 15.1127 20.6842C14.8438 20.6842 14.5859 20.5775 14.3958 20.3874C14.2057 20.1973 14.0989 19.9394 14.0989 19.6706C14.0989 19.4017 14.2057 19.1437 14.3958 18.9536C14.5859 18.7635 14.8438 18.6568 15.1127 18.6568ZM15.1125 19.09C14.9581 19.0901 14.81 19.1514 14.7009 19.2606C14.5918 19.3698 14.5305 19.5179 14.5304 19.6722C14.5352 19.8235 14.5985 19.967 14.7072 20.0723C14.8158 20.1776 14.9612 20.2364 15.1125 20.2364C15.2638 20.2364 15.4092 20.1776 15.5179 20.0723C15.6266 19.9669 15.6901 19.8235 15.6948 19.6722C15.6945 19.5179 15.6331 19.3699 15.524 19.2608C15.4149 19.1517 15.2669 19.0903 15.1125 19.09Z" fill="#323544"/>
<path d="M9.17713 11.3438C9.29523 11.3438 9.4122 11.3671 9.52133 11.4122C9.63048 11.4574 9.72966 11.5236 9.8132 11.6072C9.89673 11.6907 9.96296 11.7899 10.0081 11.899C10.0533 12.0081 10.0766 12.1251 10.0765 12.2432C10.0763 12.4817 9.98165 12.7105 9.81301 12.8791C9.64437 13.0477 9.41562 13.1424 9.17713 13.1426C9.05899 13.1427 8.94191 13.1194 8.83275 13.0742C8.72362 13.0291 8.62439 12.9628 8.54088 12.8793C8.45737 12.7958 8.39109 12.6966 8.34593 12.5874C8.30078 12.4783 8.2775 12.3613 8.27757 12.2432C8.27752 12.1251 8.30094 12.0082 8.34611 11.899C8.3913 11.7899 8.45753 11.6907 8.54106 11.6072C8.62459 11.5236 8.72379 11.4574 8.83293 11.4122C8.94206 11.3671 9.05903 11.3438 9.17713 11.3438Z" fill="#323544"/>
<path d="M14.8273 11.3438C14.9454 11.3438 15.0624 11.3671 15.1715 11.4122C15.2806 11.4574 15.3798 11.5236 15.4634 11.6072C15.5469 11.6907 15.6131 11.7899 15.6583 11.899C15.7035 12.0081 15.7267 12.1251 15.7267 12.2432C15.7265 12.4817 15.6316 12.7105 15.463 12.8791C15.2944 13.0477 15.0657 13.1424 14.8273 13.1426C14.7092 13.1427 14.5921 13.1194 14.4829 13.0742C14.3738 13.0291 14.2746 12.9628 14.191 12.8793C14.1075 12.7958 14.0413 12.6966 13.9961 12.5874C13.9509 12.4783 13.9277 12.3613 13.9277 12.2432C13.9277 12.1251 13.9509 12.0081 13.9961 11.899C14.0413 11.7899 14.1075 11.6907 14.191 11.6072C14.2746 11.5237 14.3738 11.4574 14.4829 11.4122C14.5921 11.367 14.7092 11.3438 14.8273 11.3438Z" fill="#323544"/>
<path d="M12.0002 2C17.5244 2 22.0021 6.47743 22.0004 12.0009C22.0004 17.5048 17.5526 21.9704 12.0551 22C12.3044 21.9981 12.5535 21.9872 12.8019 21.9665V19.0902H6.98001V20.6468C8.21328 21.3653 9.58317 21.8082 10.9956 21.9504C5.94455 21.4465 2.00001 17.1838 2 11.9994C2 6.47727 6.47744 2 12.0002 2ZM7.25972 17.0655C7.10594 17.0655 6.98185 17.1901 6.98185 17.3437V18.6568H13.2353V21.9222C14.5712 21.7584 15.8599 21.3245 17.0228 20.6468V17.3437C17.0228 17.19 16.8985 17.0655 16.7447 17.0655H7.25972ZM17.4556 20.3818C17.8401 20.1297 18.2073 19.8521 18.5547 19.551C18.2651 18.9329 17.7712 18.6468 17.4556 18.6468V20.3818ZM6.54644 18.6468C6.23098 18.6469 5.73713 18.933 5.4477 19.551C5.79423 19.8526 6.1613 20.1297 6.54644 20.3802V18.6468ZM10.4336 16.629H13.4949L13.4951 16.0451H10.4336V16.629ZM6.94481 8.79129C6.79123 8.79129 6.66677 8.91557 6.66676 9.06934V15.3388C6.66675 15.3753 6.67401 15.4114 6.68795 15.4451C6.70191 15.4788 6.72242 15.5094 6.74821 15.5352C6.77402 15.561 6.80476 15.5815 6.8385 15.5955C6.87221 15.6094 6.90833 15.6167 6.94481 15.6167H17.0578C17.2115 15.6167 17.3358 15.4925 17.3358 15.3388V9.06934C17.3358 8.91576 17.2115 8.79129 17.0578 8.79129H6.94481ZM15.5483 3.3803C14.7946 3.34427 14.2026 3.54219 13.9867 3.65503C13.9786 3.65993 13.9769 3.66814 13.9769 3.67474L14.0129 4.05248C14.0161 4.07528 13.9851 4.08512 13.9753 4.06556L13.838 3.8251C13.8331 3.81699 13.8233 3.81214 13.815 3.81552C13.4291 3.89382 12.9188 4.51848 12.7028 4.83245C12.6981 4.83734 12.6982 4.84542 12.6996 4.85033L12.878 5.30029C12.886 5.31988 12.8631 5.33633 12.8452 5.32314L12.5966 5.11695C12.5885 5.11206 12.5788 5.10894 12.5707 5.11695C12.4429 5.2362 12.1289 5.84804 11.9768 6.1571C11.9736 6.16535 11.9736 6.17174 11.9801 6.17663L12.2417 6.56413C12.255 6.58206 12.2319 6.60516 12.2139 6.59196L11.8688 6.36145C11.8607 6.35655 11.8492 6.35647 11.8428 6.36476C11.7364 6.48892 11.6905 6.96807 11.6807 7.21015C11.6807 7.215 11.6841 7.21985 11.689 7.22471L11.9245 7.45042C11.9392 7.46344 11.9293 7.48805 11.9097 7.48654L11.6466 7.46351C11.6368 7.4603 11.627 7.46844 11.6236 7.47825C11.4813 8.13577 11.6972 8.47399 11.887 8.59984C12.3203 7.04983 13.4536 5.153 14.1306 4.43187L14.1453 4.41234C14.1498 4.4055 14.1559 4.39976 14.163 4.39575C14.1701 4.39177 14.1781 4.38958 14.1863 4.38931C14.2564 4.391 14.2612 4.42381 14.2644 4.45324L14.2336 4.49231C13.2949 5.6778 12.4789 7.13998 12.1109 8.67207C12.7079 8.77679 13.071 8.29417 13.2476 7.90831C13.2524 7.8985 13.2442 7.88222 13.2329 7.88049L12.9287 7.80365C12.9091 7.79873 12.9091 7.76767 12.9287 7.76275L13.2966 7.66638C13.5223 7.61562 13.7888 7.12993 13.9065 6.89783C13.9098 6.88802 13.9066 6.87473 13.8968 6.86982L13.5975 6.70804C13.5937 6.70603 13.5905 6.70276 13.5887 6.69883C13.5869 6.69492 13.5865 6.69051 13.5874 6.6863C13.5883 6.68205 13.5905 6.67806 13.5939 6.67524C13.5972 6.67244 13.6013 6.67087 13.6056 6.67063L14.1765 6.61959C14.1814 6.61957 14.1895 6.61472 14.1912 6.60983L14.5314 6.01651C14.5395 6.00332 14.5346 5.99029 14.5216 5.98537L14.1894 5.84791C14.1699 5.83806 14.1716 5.81021 14.1944 5.80701L14.6506 5.76628C14.6555 5.76628 14.6638 5.76141 14.6653 5.75652L14.9907 5.20042C14.9956 5.19061 14.9939 5.1775 14.9826 5.1726L14.6506 4.96991C14.6327 4.9601 14.6408 4.92892 14.6639 4.93232L15.0416 4.96328C15.0497 4.96326 15.0594 4.95832 15.0611 4.94854L15.568 3.40314C15.5714 3.39015 15.563 3.37709 15.5483 3.3803Z" fill="#323544"/>
<path d="M11.9563 19.5823C12.0709 19.5823 12.164 19.6754 12.164 19.79C12.164 19.9043 12.0708 19.9975 11.9563 19.9975H7.82539C7.71107 19.9975 7.61795 19.9043 7.61792 19.7898C7.61792 19.6738 7.71105 19.5821 7.82539 19.5821L11.9563 19.5823Z" fill="#323544"/>
</svg>
