<svg width="24" height="24" viewBox="0 0 24 24" fill="none" xmlns="http://www.w3.org/2000/svg">
<path d="M12.3202 2.12109C12.4682 2.12111 12.6026 2.19986 12.6732 2.32612L13.8602 4.40385H19.0069C19.155 4.40385 19.2895 4.48272 19.3601 4.60901L20.7534 6.95158C20.8647 7.14713 20.8647 7.38889 20.7534 7.58444L19.3601 9.92701L22 14.5103L21.5329 13.914C21.6443 14.1096 21.6443 14.3513 21.5329 14.5469L20.1396 16.8895C20.069 17.0158 19.9345 17.0945 19.7865 17.0945H17.429L14.789 21.6765C14.7184 21.8027 14.584 21.8815 14.436 21.8815H11.9998L17.429 11.7387L18.8088 14.175H21.4487L18.8088 9.59307L20.2021 7.2505H9.57154L10.9648 4.81431L9.57154 2.32639L6.57848 7.2505H3.47681L9.21851 16.906H6.57848L5.00046 19.3938H10.1474L11.6871 21.8813C11.5391 21.8813 11.4048 21.8027 11.3342 21.6765L10.1474 19.5987H5.00046C4.85246 19.5987 4.71805 19.52 4.64743 19.3937L3.25401 17.0511C3.14266 16.8556 3.14268 16.6138 3.25401 16.4183L4.44094 14.3405L2.08352 10.0885C1.97216 9.89298 1.97216 9.65123 2.08352 9.45568L3.47681 7.11311C3.54742 6.98684 3.68184 6.90809 3.82984 6.90808H6.57848L9.21838 2.32612C9.289 2.19983 9.42352 2.12109 9.57154 2.12109H12.3202Z" fill="#323544"/>
<path d="M15.6229 10.5827L11.9997 16.3244L8.59932 10.5827H15.6229Z" fill="#323544"/>
</svg>
