<svg width="24" height="24" viewBox="0 0 24 24" fill="none" xmlns="http://www.w3.org/2000/svg">
<path d="M2.09348 10.5583C2.04598 10.8917 2.01514 11.2283 2.00098 11.565H17.1926C17.1365 11.4628 17.0706 11.3662 16.996 11.2767C14.3993 7.92167 13.0018 8.2125 11.0043 8.12667C10.3376 8.1 9.88514 8.08833 7.23348 8.08833C5.81348 8.08833 4.27098 8.0925 2.76764 8.09667C2.57348 8.62167 2.38598 9.13 2.29431 9.54417H10.0793V10.5583H2.09348ZM17.3118 12.58H2.00931C2.02598 12.8508 2.05098 13.1175 2.08764 13.3808H16.216C16.846 13.3808 17.1985 13.0233 17.3126 12.5808L17.3118 12.58ZM2.88014 16.1467C2.88014 16.1467 5.22181 21.8983 11.9901 22C16.0351 22 19.511 19.5975 21.0901 16.1467H2.88014Z" fill="#323544"/>
<path d="M11.9901 2C8.25098 2 4.99514 4.05417 3.27681 7.09C4.61931 7.0875 7.23514 7.08583 7.23514 7.08583L7.23598 7.085C10.3276 7.085 10.4426 7.09833 11.0468 7.12333L11.4218 7.1375C12.7235 7.18083 14.3251 7.32083 15.5851 8.27417C16.2685 8.79083 17.256 9.9325 17.8451 10.745C18.3893 11.4967 18.5451 12.3617 18.1751 13.19C17.8351 13.9508 17.1026 14.405 16.2151 14.405H2.32598C2.32598 14.405 2.40931 14.755 2.53264 15.1425H21.491C21.8273 14.1303 21.9989 13.0707 21.9993 12.0042C22.001 6.47917 17.5193 2 11.9901 2Z" fill="#323544"/>
</svg>
