<svg width="24" height="24" viewBox="0 0 24 24" fill="none" xmlns="http://www.w3.org/2000/svg">
<path d="M18.4641 9.19565C18.4641 5.22174 14.8554 2 10.4032 2C8.86063 2 7.60932 5.22174 7.60932 9.19565C7.60932 10.1896 7.68759 11.1374 7.82932 11.9991H5.0928L2.23193 22H10.4058V16.3939C14.8554 16.3939 18.4632 13.1704 18.4632 9.19826L18.4641 9.19565ZM10.4032 3.31739C11.2119 3.31739 11.8658 5.95043 11.8658 9.19565C11.8658 12.4417 11.2119 15.0739 10.4041 15.0739C9.59541 15.0739 8.94237 12.4417 8.94237 9.19565C8.94237 5.95043 9.59628 3.31739 10.4032 3.31739Z" fill="#323544"/>
<path d="M18.6215 16.393H10.4128L13.5606 22H21.7676L18.6215 16.393Z" fill="#323544"/>
</svg>
