<svg width="24" height="24" viewBox="0 0 24 24" fill="none" xmlns="http://www.w3.org/2000/svg">
<path d="M14.3463 12.9497C16.162 12.3072 17 9.98881 17 7.81006C17 4.29053 15.1006 2 11.4693 2H8.75978C7.61452 2 7 2.61452 7 3.75977V20.0447C7 21.1061 7.86592 22 8.9553 22C10.0447 22 10.9106 21.1061 10.9106 20.0447C10.9106 17.0838 10.8548 15.2961 10.7151 13.229L12.4469 20.4636C12.6983 21.4972 13.4805 21.972 14.3184 21.972C15.3519 21.972 16.3854 21.2737 16.3854 20.1005C16.3854 19.905 16.3575 19.7095 16.3017 19.486C15.2961 15.7989 14.7095 13.9273 14.3463 12.9497ZM10.9106 10.8547V5.54749H11.1899C12.3911 5.54749 13.0894 6.63684 13.0894 8.2849C13.0894 9.62567 12.3911 10.8547 11.1899 10.8547H10.9106Z" fill="#323544"/>
</svg>
