<svg width="24" height="24" viewBox="0 0 24 24" fill="none" xmlns="http://www.w3.org/2000/svg">
<path d="M3.6665 3.25C3.6665 2.55964 4.22615 2 4.9165 2H10.7498C11.4402 2 11.9998 2.55964 11.9998 3.25V8.66667H4.9165C4.22615 8.66667 3.6665 8.10702 3.6665 7.41667V3.25Z" fill="#323544"/>
<path d="M11.9998 8.66667H19.0832C19.7735 8.66667 20.3332 9.22631 20.3332 9.91667V14.0833C20.3332 14.7737 19.7735 15.3333 19.0832 15.3333H11.9998V8.66667Z" fill="#323544"/>
<path d="M3.6665 16.5833C3.6665 15.893 4.22615 15.3333 4.9165 15.3333H11.9998V20.75C11.9998 21.4403 11.4402 22 10.7498 22H4.9165C4.22615 22 3.6665 21.4403 3.6665 20.75V16.5833Z" fill="#323544"/>
</svg>
