<svg width="24" height="24" viewBox="0 0 24 24" fill="none" xmlns="http://www.w3.org/2000/svg">
<path opacity="0.5" d="M15.2727 3H8.72727C5.56419 3 3 5.56353 3 8.7258V15.2696C3 18.4319 5.56419 20.9954 8.72727 20.9954H15.2727C18.4358 20.9954 21 18.4319 21 15.2696V8.7258C21 5.56353 18.4358 3 15.2727 3Z" fill="#323544"/>
<path opacity="0.5" fill-rule="evenodd" clip-rule="evenodd" d="M3.10636 7.62099C3.03764 7.97926 3 8.34898 3 8.72852V15.2723C3 16.7909 3.60341 18.2473 4.67748 19.3211C5.75155 20.3949 7.2083 20.9981 8.72727 20.9981H15.2727C15.6446 20.9985 16.0156 20.9629 16.3805 20.8918C17.0002 19.5682 17.3203 18.1243 17.3182 16.6629C17.3182 11.1514 12.8493 6.68359 7.33636 6.68359C5.82436 6.68359 4.39091 7.01896 3.10636 7.62099Z" fill="#323544"/>
<path d="M7.29597 20.424C9.35197 20.424 11.0187 18.7577 11.0187 16.7022C11.0187 14.6468 9.35197 12.9805 7.29597 12.9805C5.23996 12.9805 3.57324 14.6468 3.57324 16.7022C3.57324 18.7577 5.23996 20.424 7.29597 20.424Z" fill="#323544"/>
</svg>
