<svg width="24" height="24" viewBox="0 0 24 24" fill="none" xmlns="http://www.w3.org/2000/svg">
<path d="M16.7933 20.9889C14.6101 21.1893 12.7959 18.6364 11.3972 17.3457C10.6896 22.4342 3.00244 21.9581 3.00244 16.7911V7.21275C3.00244 6.4594 3.20202 5.69052 3.60201 5.04515C4.33981 3.79939 5.76961 2.98388 7.21494 3.00024H16.7933C21.9595 3.00024 22.4519 10.6874 17.347 11.3786L19.7764 13.7924C22.4364 16.2987 20.4373 21.096 16.7941 20.988L16.7933 20.9889ZM15.6252 17.9452C17.1319 19.4977 19.5302 17.0995 17.9777 15.5928L13.7799 11.395H11.4274V13.7474L15.6252 17.9452ZM5.55448 16.7764C5.52422 18.9292 8.92203 18.9292 8.87541 16.7764V7.19802C8.90649 6.12158 7.7687 5.27581 6.73889 5.59891C6.69227 5.61445 6.64646 5.62917 6.6162 5.64471C5.97001 5.89092 5.52422 6.53629 5.53894 7.22829V16.7764H5.55448ZM16.7933 8.85848C18.9462 8.88875 18.9462 5.50648 16.7933 5.53756H11.0896C11.5199 6.44468 11.4127 7.87448 11.4274 8.85848H16.7933Z" fill="#323544"/>
</svg>
