<svg width="24" height="24" viewBox="0 0 24 24" fill="none" xmlns="http://www.w3.org/2000/svg">
<path d="M14.7362 20.5963C14.8176 20.8579 15.0328 21.0802 15.0381 21.3803C15.0573 21.4739 14.9935 21.7452 14.8911 21.5641C14.6732 20.8361 14.6023 21.5334 13.9592 20.5281C13.8209 20.2542 13.5838 20.4799 13.3791 20.4931C12.7718 20.2936 12.9503 20.2367 12.5872 20.7556C12.3116 20.8326 12.5443 20.1929 12.6756 20.1221C12.9293 19.9051 13.3309 20.0468 13.4779 19.8106C13.7247 18.8104 12.9179 17.5644 12.4647 16.7043C12.3168 16.4733 12.4761 16.1994 12.4428 15.95C12.3116 15.593 12.2783 15.6858 12.3999 15.3078C12.2013 14.8939 11.6448 15.5405 11.3324 15.5309C11.0831 15.5344 10.8748 15.1372 10.5511 15.1109C9.38292 15.1144 8.29266 15.8179 7.11578 15.698C6.9029 15.7003 6.6955 15.7658 6.5199 15.8862C6.15765 16.0804 5.72452 16.0638 5.39289 16.3429C5.28877 16.426 5.15664 16.4339 5.03064 16.4287C4.79439 16.4637 4.61326 16.7524 4.34464 16.7262C4.07163 16.6308 3.84938 16.7953 3.59213 16.776C3.29463 16.5267 2.90875 16.7262 2.56487 16.783C2.52054 16.8026 2.47147 16.8089 2.42363 16.8012C2.37579 16.7934 2.33123 16.7719 2.29537 16.7393C2.21662 16.6763 2.06437 16.6675 2.01187 16.5844C1.98562 16.5328 2.03637 16.4575 2.09937 16.4059C2.5605 16.0515 3.09425 15.8232 3.60438 15.5537C4.60714 15.0339 5.45764 14.2735 6.3694 13.6129C6.42715 13.5691 6.44378 13.5079 6.33877 13.5088C4.92827 13.6269 3.58601 14.4258 2.19125 14.3943C2.03725 14.4144 1.89462 14.5054 1.73449 14.5255C0.96799 14.3636 2.30325 13.5105 2.56925 13.4221C4.06026 12.8 5.71752 12.6845 7.10528 11.8156C7.26978 11.7001 6.95653 11.5811 7.10178 11.3519C7.44303 10.2231 8.48079 9.77249 9.49492 9.44086C10.0147 9.23874 10.4898 8.85286 11.0673 8.84673C11.3517 8.86073 11.6221 8.74786 11.8128 8.53173C12.8304 7.5946 13.9496 6.77122 15.0276 5.90759C16.264 4.34746 17.0243 1.37944 19.5916 2.70857C20.3966 3.0542 21.3189 3.02795 22.0478 3.56258C22.3076 3.72795 22.7976 4.23195 22.2543 4.30633C20.765 4.56096 20.0212 4.10508 19.953 5.57859C19.9267 5.91984 20.009 6.23484 19.8147 6.52884C19.8025 7.1361 20.1227 7.84835 19.7412 8.39173C19.4227 8.94299 19.673 9.62812 19.4087 10.1829C19.2162 10.6501 18.84 10.9966 18.4909 11.3405C17.3498 12.7668 16.5081 14.382 16.2255 16.216C16.1187 16.7647 15.8072 17.581 16.3103 18.015C16.8415 18.5505 17.4041 19.2908 18.2179 18.9005C18.4856 18.778 18.9914 18.7352 18.9529 19.1403C18.9091 19.2129 18.7271 19.0546 18.6282 19.0913C18.4882 19.1806 18.6912 19.3678 18.6536 19.4982C18.6344 19.6207 18.5364 19.6032 18.4524 19.5454C18.2065 19.4474 17.853 19.5472 17.573 19.5367C17.3472 19.5761 17.125 19.6784 16.9062 19.5804C16.8047 19.5376 16.7058 19.4929 16.5947 19.4903C16.2535 19.4711 15.8212 19.6496 15.6296 19.3617C15.4178 18.9644 15.3732 19.2707 15.1641 19.4037C14.9585 19.3906 15.1055 19.0974 15.1763 19.0012C15.3942 18.5024 16.7916 19.4536 16.2115 18.6232C14.2077 16.8644 15.5316 16.2729 14.7712 16.2694C14.6225 16.1915 14.6811 15.915 14.451 16.118C14.1578 16.4243 14.0484 16.0323 14.0484 15.768C14.0134 15.6149 13.8936 15.5055 13.9391 15.3489C13.9583 15.0076 13.5051 15.4233 13.6066 15.7077C13.6564 16.2467 13.4911 16.7795 13.5173 17.3115C13.7273 18.428 13.8761 19.8464 15.1483 20.1781C15.3032 20.2446 15.5535 20.5561 15.3697 20.6724C15.2883 20.6637 15.2297 20.5762 15.1571 20.5386C15.0556 20.4703 14.9322 20.5464 14.8263 20.5543C14.7966 20.5613 14.7493 20.5604 14.7388 20.5946L14.7362 20.5963Z" fill="#323544"/>
</svg>
