<svg width="24" height="24" viewBox="0 0 24 24" fill="none" xmlns="http://www.w3.org/2000/svg">
<path d="M15.2998 6.69763C16.4001 6.69773 17.2996 7.64668 17.2997 8.74699V20.9976H16.2993V8.75019C16.2993 8.20046 15.8484 7.70034 15.351 7.70034H8.74988C8.20016 7.70034 7.80161 8.15217 7.8015 8.64952C7.8015 9.14691 8.25128 9.59863 8.80101 9.5987H9.45057C12.6004 9.5987 15.1504 12.1482 15.1504 15.249C15.1013 18.4479 12.4997 20.9968 9.3499 20.9968V21H3.00049V19.9989H9.3499C11.9483 19.9989 14.0493 17.8981 14.0494 15.3489C14.0494 12.7995 11.9483 10.6981 9.3499 10.6981H8.70034C8.17023 10.697 7.66183 10.4865 7.28696 10.1116C6.91212 9.73679 6.70167 9.22836 6.70052 8.69826C6.70182 8.16812 6.9129 7.65974 7.28776 7.28488C7.66257 6.91017 8.17036 6.69897 8.70034 6.69763H15.2998Z" fill="#323544"/>
<path d="M15.3486 3C18.4469 3 20.9997 5.65024 20.9997 8.75019V20.9992H19.9994V8.75019C19.9994 6.19927 17.8982 3.99961 15.2998 3.99951H8.74988C6.15145 3.99951 4.05034 6.09848 4.05034 8.65192C4.05043 11.2036 6.1515 13.3019 8.74988 13.3019H9.39944C10.5006 13.3021 11.3993 14.2022 11.3993 15.3017C11.3992 16.4028 10.4997 17.303 9.39944 17.3032H3.00049V16.3021H9.3499C9.89888 16.3021 10.351 15.8511 10.351 15.3529C10.3508 14.8049 9.89878 14.4045 9.3499 14.4045H8.70034C5.59969 14.3496 3.00057 11.8 3.00049 8.65271C3.00049 5.50204 5.5992 3 8.74988 3H15.3486Z" fill="#323544"/>
<path d="M15.2942 4.84722C17.395 4.84739 19.094 6.64704 19.0941 8.74779V20.996H18.0938V8.69746C18.0938 7.19789 16.8445 5.8477 15.2942 5.84753H8.69475C8.32714 5.84721 7.963 5.9195 7.62333 6.06006C7.28365 6.20067 6.97477 6.40723 6.7149 6.66727C6.45498 6.92742 6.24884 7.2366 6.10848 7.5765C5.96813 7.9164 5.89611 8.28099 5.89676 8.64872C5.89681 9.09928 5.9964 9.49842 6.14603 9.89831C6.36478 10.3682 6.71209 10.7671 7.14714 11.0488C7.59717 11.3474 8.39738 11.5482 8.74748 11.5482C8.93389 11.5629 9.11654 11.5688 9.29478 11.5753C9.74137 11.5909 10.1693 11.6056 10.5987 11.7487C11.0985 11.9475 11.5481 12.1976 11.9482 12.5485C12.2991 12.8987 12.6474 13.3481 12.8478 13.7989C13.0988 14.2987 13.1993 14.7984 13.1993 15.3481C13.1993 17.4483 11.4509 19.1472 9.3499 19.1472H3.00049V18.1469H9.40184C10.9505 18.1468 12.2006 16.8477 12.2006 15.3481C12.2006 13.8476 10.8496 12.5976 9.45057 12.5485H9.44738C9.39781 12.5484 8.94879 12.4969 8.24812 12.4478C7.94963 12.3963 7.7002 12.347 7.44995 12.2465C7.00079 12.0485 6.50101 11.7985 6.15003 11.4483C5.76463 11.1005 5.45833 10.674 5.25119 10.1979C5.00008 9.69734 4.89969 9.19672 4.89964 8.64872C4.89964 6.5469 6.64808 4.84722 8.74908 4.84722H15.2942Z" fill="#323544"/>
</svg>
