<svg width="24" height="24" viewBox="0 0 24 24" fill="none" xmlns="http://www.w3.org/2000/svg">
<path d="M12.7535 21.6844H11.2483V14.3667H12.7544V21.6835L12.7535 21.6844ZM9.7395 17.5997C9.73829 18.3588 9.43616 19.0864 8.89936 19.623C8.36255 20.1596 7.63487 20.4615 6.87583 20.4625H6.12417V18.9546H6.87675C7.62475 18.9546 8.23342 18.3459 8.23342 17.5979V13.5554H9.74042V17.5979L9.7395 17.5997ZM15.7666 17.5997C15.7666 18.3468 16.3753 18.9564 17.1233 18.9564H17.8758V20.4625H17.1233C16.3641 20.4615 15.6364 20.1595 15.0997 19.6226C14.563 19.0858 14.2612 18.3579 14.2605 17.5988V13.5554H15.7666V17.5997ZM12 2.3125C15.74 2.3125 18.7797 5.354 18.7797 9.09217V15.6097C18.7926 15.9608 18.9412 16.2933 19.1942 16.5372C19.4472 16.7811 19.7849 16.9174 20.1363 16.9174C20.4878 16.9174 20.8255 16.7811 21.0785 16.5372C21.3315 16.2933 21.4801 15.9608 21.493 15.6097V11.9925H23V15.6106C23 17.1891 21.7167 18.4733 20.1373 18.4733C19.3781 18.4726 18.6503 18.1708 18.1135 17.6341C17.5766 17.0974 17.2746 16.3697 17.2736 15.6106V9.09308C17.2721 7.6948 16.7161 6.3542 15.7274 5.36538C14.7388 4.37656 13.3983 3.82028 12 3.81858C10.602 3.82028 9.26181 4.37631 8.27321 5.36473C7.28462 6.35315 6.72836 7.69329 6.72642 9.09125V15.6087C6.72545 16.3681 6.4233 17.0961 5.88627 17.6329C5.34924 18.1698 4.62119 18.4717 3.86183 18.4724C3.10313 18.4714 2.37577 18.1696 1.83928 17.6331C1.3028 17.0966 1.00097 16.3693 1 15.6106V11.9925H2.507V15.6106C2.507 16.3577 3.11475 16.9672 3.86183 16.9672C4.61075 16.9672 5.2185 16.3577 5.2185 15.6106V9.09308C5.21942 5.35308 8.26183 2.3125 12 2.3125ZM10.9238 11.9925H9.19592V9.248H10.9238V11.9925ZM14.8032 9.24708V11.9925H13.0771V9.248L14.8032 9.24708Z" fill="#323544"/>
</svg>
