<svg width="24" height="24" viewBox="0 0 24 24" fill="none" xmlns="http://www.w3.org/2000/svg">
<path d="M12 2C6.4775 2 2 6.47667 2 12C2 17.5233 6.4775 22 12 22C17.5225 22 22 17.5225 22 12C22 6.47667 17.5225 2 12 2ZM14.9842 16.2258C14.3008 16.81 13.3367 17.1017 12.09 17.1017C10.8167 17.1017 9.815 16.8142 9.085 16.2392C8.355 15.6633 7.99083 14.8725 7.99083 13.8667H9.92C9.9825 14.3083 10.105 14.6383 10.2883 14.8583C10.6233 15.2558 11.1967 15.455 12.01 15.455C12.4967 15.455 12.8917 15.4025 13.1958 15.2967C13.7725 15.0958 14.06 14.7217 14.06 14.175C14.06 13.8567 13.9183 13.6083 13.6367 13.4333C13.3542 13.2633 12.9067 13.1117 12.2942 12.9817L11.2467 12.7517C10.2175 12.5233 9.51083 12.2767 9.12583 12.01C8.47333 11.5642 8.14833 10.8667 8.14833 9.91667C8.14833 9.05 8.46667 8.33167 9.10417 7.75833C9.74167 7.185 10.6792 6.89833 11.9142 6.89833C12.9467 6.89833 13.8258 7.16833 14.555 7.70917C15.2833 8.24917 15.665 9.03417 15.7008 10.0617H13.7583C13.7225 9.48 13.4625 9.06667 12.9783 8.82167C12.655 8.66 12.2533 8.57833 11.7742 8.57833C11.24 8.57833 10.8142 8.68333 10.4958 8.89333C10.1775 9.10333 10.0183 9.39667 10.0183 9.7725C10.0183 10.1183 10.175 10.3767 10.4892 10.5467C10.6908 10.6608 11.1192 10.7942 11.7742 10.9467L13.4717 11.3467C14.215 11.5217 14.7733 11.7567 15.1442 12.0492C15.7208 12.5042 16.0092 13.1625 16.0092 14.0242C16.0092 14.9075 15.6675 15.6417 14.9842 16.2258Z" fill="#323544"/>
</svg>
