<svg width="24" height="24" viewBox="0 0 24 24" fill="none" xmlns="http://www.w3.org/2000/svg">
<path d="M21.13 7.21875H12.435C11.9542 7.21875 11.565 7.60875 11.565 8.08875V10.6971C11.565 11.1779 11.1767 11.5671 10.6958 11.5671H2.87C2.38917 11.5671 2 11.9562 2 12.4371V15.9154C2 16.3954 2.38917 16.7846 2.87 16.7846H11.565C12.0458 16.7846 12.435 16.3954 12.435 15.9154V13.3071C12.435 12.8254 12.8233 12.4371 13.3042 12.4371H21.13C21.6108 12.4371 22 12.0479 22 11.5671V8.08875C22 7.60875 21.6108 7.21875 21.13 7.21875Z" fill="#323544"/>
</svg>
