<svg width="24" height="24" viewBox="0 0 24 24" fill="none" xmlns="http://www.w3.org/2000/svg">
<path d="M13.1947 3.67464C11.9087 2.67248 10.3105 2.15585 8.68124 2.21559C7.05196 2.27534 5.49592 2.90764 4.28676 4.00129C2.92165 5.23587 2.1024 6.96183 2.00896 8.80004C1.91553 10.6382 2.55556 12.4384 3.78845 13.805C4.88039 15.0159 6.36431 15.8031 7.97926 16.0281C9.5942 16.253 11.2368 15.9014 12.6181 15.035L7.23247 9.06606L13.1947 3.67464Z" fill="#323544"/>
<path d="M10.8073 20.3289C12.0932 21.3306 13.691 21.847 15.3199 21.7872C16.9488 21.7275 18.5045 21.0955 19.7136 20.0022C21.0785 18.7675 21.8976 17.0416 21.991 15.2035C22.0845 13.3653 21.4446 11.5652 20.2119 10.1985C19.12 8.98759 17.636 8.20043 16.0211 7.97547C14.4061 7.75051 12.7636 8.10216 11.3823 8.96857L16.7679 14.9375L10.8056 20.3289H10.8073Z" fill="#323544"/>
</svg>
