<svg width="24" height="24" viewBox="0 0 24 24" fill="none" xmlns="http://www.w3.org/2000/svg">
<path d="M10.7632 4.64453L20.2472 4.65707C20.4043 4.65707 21.7411 4.63617 21.777 4.65707C21.8662 4.69745 21.9384 4.76787 21.981 4.85603C21.981 5.1737 22.027 6.87572 21.976 7.07133C21.9542 7.15242 21.874 7.22431 21.8205 7.26778C21.6315 7.42411 21.4067 7.53947 21.2052 7.66904C20.7855 7.93906 20.3684 8.21409 19.9529 8.49497L17.797 9.88936C17.3288 10.1903 16.8323 10.4745 16.3775 10.8039C16.3264 10.8376 16.2817 10.88 16.2454 10.9293C15.539 10.9577 14.8276 10.9368 14.1196 10.9368H10.5759L10.5734 10.9101C10.5283 10.4854 10.5559 9.91026 10.5559 9.46386V6.65586C10.5559 6.48449 10.5442 4.74735 10.5684 4.71475C10.6127 4.65623 10.703 4.65373 10.7632 4.64453ZM10.8159 13.3753C11.5298 13.3544 12.2487 13.3753 12.9626 13.3753C13.8429 13.3753 14.7257 13.3594 15.6059 13.372C15.6369 13.372 15.6996 13.3686 15.7246 13.3887C15.8032 13.4531 15.8977 13.6219 15.9687 13.7131L16.7019 14.6368C17.1073 15.1517 17.5219 15.6575 17.9324 16.1666C18.1188 16.3965 18.3094 16.6222 18.49 16.8605C18.5343 16.919 18.6062 17.0042 18.6221 17.0837C18.6572 17.2508 18.6346 17.5384 18.6346 17.7182C18.6355 18.1746 18.6346 18.6319 18.6304 19.0891C18.6079 19.1376 18.5853 19.1894 18.5535 19.2304C18.518 19.2788 18.4674 19.314 18.4097 19.3307C18.1949 19.3734 17.8471 19.3416 17.6156 19.3416H15.9186V17.0778L15.5482 16.6038C15.4404 16.4634 15.3342 16.3104 15.2164 16.1833H12.8029C12.3415 16.1825 11.88 16.175 11.4194 16.1858C11.3325 16.2761 11.2572 16.3948 11.1787 16.4951C11.0366 16.679 10.8861 16.8521 10.7523 17.0469L10.7532 19.3416C9.89881 19.3416 9.04111 19.3617 8.18676 19.3366C8.14284 19.3099 8.10469 19.2747 8.07454 19.2331C8.0444 19.1914 8.02286 19.1442 8.0112 19.0941C7.9577 18.8994 7.99449 18.4479 7.99281 18.2239C7.99281 17.9781 7.96188 17.2233 8.01622 17.0435C8.04715 16.9415 8.13827 16.832 8.19679 16.7534C8.36816 16.5202 8.55625 16.3037 8.73264 16.0772L10.2984 14.0859C10.4455 13.8978 10.7289 13.6052 10.8159 13.3753ZM9.34206 5.98876C9.42983 5.98876 9.51761 5.98792 9.60455 5.98458L9.60622 10.9753C8.09062 10.9393 6.53824 10.3149 5.21324 9.39029C4.85127 9.13783 4.51521 8.84357 4.16578 8.56687C3.61149 8.04894 3.0745 7.51279 2.55571 6.95931C2.38685 6.77958 2.16365 6.5848 2.03574 6.35909C2.00452 6.30871 1.99319 6.24851 2.00398 6.19023C2.01902 6.10161 2.08841 6.0456 2.14609 6.00464L8.63734 6.00297C8.86472 6.00297 9.11885 6.03139 9.34206 5.98876Z" fill="#323544"/>
</svg>
