<svg width="24" height="24" viewBox="0 0 24 24" fill="none" xmlns="http://www.w3.org/2000/svg">
<path d="M21.377 10.6375L19.0079 12.0008L21.377 13.36C21.5191 13.4404 21.6437 13.5484 21.7434 13.6776C21.8432 13.8068 21.9161 13.9547 21.9579 14.1125C22.0003 14.2706 22.0111 14.4356 21.9897 14.5979C21.9682 14.7602 21.9149 14.9167 21.8329 15.0583C21.6645 15.3433 21.3912 15.5508 21.0729 15.6358C20.7542 15.7203 20.4151 15.6754 20.1295 15.5108L15.8879 13.0742C15.6153 12.9189 15.4125 12.6651 15.3212 12.365C15.2795 12.2345 15.2603 12.0978 15.2645 11.9608C15.2714 11.7491 15.332 11.5425 15.4406 11.3606C15.5492 11.1787 15.7022 11.0274 15.8854 10.9208L20.127 8.48666C20.2688 8.40473 20.4253 8.35153 20.5876 8.33009C20.75 8.30866 20.9149 8.31942 21.0731 8.36174C21.2313 8.40407 21.3796 8.47715 21.5095 8.5768C21.6394 8.67644 21.7485 8.80071 21.8304 8.9425C21.913 9.08328 21.9668 9.23907 21.9887 9.40082C22.0106 9.56258 22.0002 9.72708 21.958 9.88477C21.9159 10.0425 21.8428 10.1902 21.743 10.3194C21.6433 10.4486 21.5189 10.5568 21.377 10.6375ZM19.1337 17.2433L14.8945 14.81C14.6761 14.6829 14.4238 14.6262 14.172 14.6475C13.8596 14.6687 13.567 14.8082 13.3537 15.0375C13.1395 15.2675 13.0204 15.57 13.0179 15.885V20.7575C13.0178 20.9211 13.05 21.0831 13.1127 21.2343C13.1754 21.3854 13.2674 21.5226 13.3833 21.6381C13.4992 21.7536 13.6368 21.845 13.7882 21.9071C13.9396 21.9692 14.1017 22.0008 14.2654 22C14.9554 22 15.5129 21.4433 15.5129 20.7575V18.0325L17.887 19.3958C18.0286 19.4782 18.185 19.5318 18.3473 19.5536C18.5096 19.5754 18.6746 19.5649 18.8328 19.5228C18.9911 19.4807 19.1394 19.4078 19.2694 19.3082C19.3994 19.2086 19.5085 19.0843 19.5904 18.9425C19.6724 18.801 19.7257 18.6447 19.7471 18.4825C19.7686 18.3203 19.7578 18.1556 19.7153 17.9976C19.6729 17.8396 19.5997 17.6916 19.4998 17.562C19.4 17.4324 19.2756 17.3247 19.1337 17.2433ZM14.242 12.4775L12.4787 14.2292C12.4184 14.2853 12.3402 14.3183 12.2579 14.3225H11.7404C11.6582 14.3179 11.5801 14.2849 11.5195 14.2292L9.75703 12.4775C9.70204 12.4176 9.66963 12.3404 9.66537 12.2592V11.7425C9.66974 11.6606 9.7021 11.5826 9.75703 11.5217L11.5187 9.76999C11.5793 9.715 11.657 9.68262 11.7387 9.67833H12.2579C12.3399 9.68215 12.4181 9.71458 12.4787 9.76999L14.242 11.5217C14.2967 11.5827 14.3287 11.6607 14.3329 11.7425V12.2592C14.3281 12.3403 14.2966 12.4173 14.242 12.4775ZM12.8337 11.9917C12.828 11.9093 12.7949 11.8312 12.7395 11.77L12.2295 11.2642C12.1683 11.2091 12.0901 11.1767 12.0079 11.1725H11.9879C11.9062 11.1768 11.8284 11.2092 11.7679 11.2642L11.2579 11.77C11.204 11.8317 11.1726 11.9098 11.1687 11.9917V12.0117C11.1687 12.0825 11.2079 12.18 11.2579 12.23L11.7679 12.7383C11.8187 12.7883 11.917 12.83 11.9879 12.83H12.0079C12.09 12.8255 12.1682 12.7932 12.2295 12.7383L12.7395 12.23C12.7946 12.17 12.8275 12.0929 12.8329 12.0117L12.8337 11.9917ZM4.8637 6.75333L9.10453 9.19C9.33287 9.32083 9.5862 9.37249 9.82787 9.35249C10.1404 9.33083 10.4329 9.19083 10.647 8.96083C10.8604 8.73166 10.9804 8.4275 10.9829 8.11333V3.24083C10.9837 2.55583 10.4254 2 9.73703 2C9.0462 2 8.4887 2.55583 8.4887 3.24167V5.96666L6.1137 4.60083C5.97195 4.51873 5.81541 4.46538 5.65302 4.44382C5.49064 4.42225 5.32559 4.4329 5.16733 4.47516C5.00906 4.51741 4.86067 4.59045 4.73065 4.69008C4.60062 4.78972 4.4915 4.914 4.40954 5.05583C4.32771 5.1971 4.27456 5.35314 4.25315 5.51499C4.23173 5.67683 4.24246 5.84132 4.28473 5.99901C4.327 6.15671 4.39997 6.30451 4.49947 6.43395C4.59896 6.56339 4.72219 6.67192 4.8637 6.75333ZM14.172 9.35249C14.4137 9.37249 14.667 9.32083 14.8937 9.19L19.1329 6.75416C19.2748 6.67361 19.3993 6.56558 19.499 6.43638C19.5987 6.30717 19.6717 6.15939 19.7137 6.00166C19.7993 5.68239 19.7547 5.34218 19.5895 5.05583C19.4238 4.76976 19.1513 4.56121 18.8319 4.47604C18.5125 4.39087 18.1723 4.43606 17.8862 4.60166L15.5129 5.96666V3.24083C15.5129 2.55583 14.9554 2 14.2654 2C13.5737 2 13.0179 2.55583 13.0179 3.24167V8.1125C13.0179 8.4267 13.137 8.72922 13.3512 8.95915C13.5653 9.18907 13.8586 9.33016 14.172 9.35249ZM9.82787 14.6475C9.57588 14.6259 9.32335 14.6823 9.10453 14.8092L4.8637 17.2425C4.72179 17.3234 4.59742 17.4317 4.49783 17.5612C4.39825 17.6907 4.32546 17.8387 4.2837 17.9967C4.198 18.3158 4.24235 18.656 4.40704 18.9425C4.57299 19.2283 4.84563 19.4365 5.16504 19.5213C5.48444 19.6062 5.82446 19.5607 6.11037 19.395L8.4862 18.0317V20.7567C8.4862 21.4442 9.04453 21.9992 9.73453 21.9992C10.4229 21.9992 10.9812 21.4433 10.9812 20.7575V15.885C10.9804 15.5705 10.8611 15.2679 10.647 15.0375C10.4338 14.8081 10.1403 14.6686 9.82787 14.6475ZM8.67787 12.3642C8.71953 12.2342 8.73787 12.0975 8.73453 11.9608C8.72739 11.7485 8.66615 11.5416 8.55663 11.3596C8.44711 11.1776 8.29293 11.0266 8.1087 10.9208L3.87204 8.4875C3.58549 8.32244 3.24519 8.27773 2.92574 8.36318C2.60628 8.44862 2.33375 8.65725 2.16787 8.94333C2.08565 9.08442 2.03224 9.24042 2.01074 9.4023C1.98924 9.56418 2.00009 9.72871 2.04264 9.88637C2.08519 10.044 2.15861 10.1917 2.25864 10.3208C2.35867 10.4498 2.48332 10.5578 2.62537 10.6383L4.99287 12.0017L2.62537 13.3608C2.48315 13.4411 2.35842 13.5491 2.25853 13.6783C2.15864 13.8075 2.0856 13.9555 2.04371 14.1133C2.00124 14.2714 1.99042 14.4364 2.01187 14.5987C2.03333 14.761 2.08662 14.9175 2.16871 15.0592C2.33704 15.345 2.61037 15.5525 2.92871 15.6367C3.24704 15.7217 3.5862 15.6767 3.87204 15.5117L8.11037 13.075C8.39787 12.9125 8.5912 12.6542 8.68037 12.365L8.67787 12.3642Z" fill="#323544"/>
</svg>
