<svg width="24" height="24" viewBox="0 0 24 24" fill="none" xmlns="http://www.w3.org/2000/svg">
<path d="M5.69995 16.7982C6.38511 16.788 7.04671 17.0492 7.54079 17.524C8.03488 17.9989 8.32189 18.6497 8.33889 19.3348C8.34737 19.6782 8.28766 20.0199 8.16334 20.3401C8.03894 20.6605 7.85207 20.953 7.61393 21.2008C7.37578 21.4486 7.09119 21.6473 6.77601 21.7843C6.46088 21.9213 6.12155 21.9946 5.77797 21.9997C5.4343 22.0048 5.09258 21.9412 4.77343 21.8136C4.45439 21.686 4.1638 21.4966 3.91844 21.2561C3.6731 21.0155 3.47772 20.7289 3.34384 20.4124C3.20996 20.0959 3.13993 19.7556 3.13822 19.412C3.13482 18.7267 3.40216 18.0678 3.88187 17.5785C4.36153 17.0892 5.01486 16.8085 5.69995 16.7982Z" fill="#323544"/>
<path d="M18.3071 2C18.9886 2.01219 19.6385 2.29151 20.1162 2.77778C20.5938 3.26402 20.8614 3.91837 20.8615 4.59993C20.8615 5.28163 20.5939 5.93656 20.1162 6.42289C19.6385 6.90916 18.9886 7.18848 18.3071 7.20067H11.5557L14.8643 10.9181C14.8919 10.9434 14.9191 10.9696 14.9456 10.9961C15.1869 11.2375 15.3782 11.5244 15.5088 11.8397C15.6394 12.1551 15.7063 12.4932 15.7063 12.8345C15.7063 13.1759 15.6394 13.5139 15.5088 13.8293C15.3782 14.1447 15.1869 14.4315 14.9456 14.6729C14.7043 14.9143 14.4173 15.1055 14.102 15.2362C13.7867 15.3668 13.4485 15.4344 13.1072 15.4345H5.73896C5.04941 15.4345 4.38825 15.1604 3.90056 14.6729C3.41285 14.1854 3.13844 13.5241 3.13822 12.8345C3.13844 12.1449 3.41285 11.4837 3.90056 10.9961C4.38825 10.5086 5.0494 10.2346 5.73896 10.2346H7.29372L4.00052 6.53423L3.99971 6.53261C3.96588 6.50216 3.93209 6.47149 3.89975 6.43914C3.41202 5.95141 3.13822 5.28968 3.13822 4.59993C3.13832 4.2584 3.20572 3.91983 3.33652 3.60433C3.46728 3.28905 3.65915 3.00283 3.90056 2.76153C4.14208 2.52016 4.42868 2.32809 4.74417 2.19749C5.05974 2.0669 5.39825 1.9999 5.73977 2H18.3071Z" fill="#323544"/>
</svg>
