<svg width="24" height="24" viewBox="0 0 24 24" fill="none" xmlns="http://www.w3.org/2000/svg">
<path d="M9.47274 11.2896C9.56291 11.2896 9.64986 11.326 9.71362 11.3897C9.77722 11.4535 9.81287 11.5398 9.8129 11.6298C9.8129 11.72 9.77738 11.8069 9.71362 11.8707C9.64986 11.9344 9.56286 11.97 9.47274 11.97C9.38277 11.9699 9.29634 11.9342 9.23267 11.8707C9.16891 11.8069 9.13339 11.72 9.13339 11.6298C9.13341 11.5397 9.16899 11.4535 9.23267 11.3897C9.29636 11.326 9.38267 11.2897 9.47274 11.2896Z" fill="#323544"/>
<path d="M8.00792 9.28773C8.04531 9.27778 8.08045 9.29038 8.11452 9.32435C8.27702 9.49101 8.43945 9.65658 8.60361 9.82157C8.618 9.83518 8.63586 9.84531 8.65488 9.85087L9.32951 10.025C9.37618 10.0367 9.40496 10.0608 9.41496 10.0983C9.42563 10.1364 9.41312 10.1733 9.37915 10.2065L8.88193 10.694C8.87506 10.7014 8.86952 10.7102 8.86484 10.7192C8.85952 10.7276 8.8547 10.7365 8.85182 10.746C8.79348 10.971 8.73514 11.1965 8.67848 11.4215C8.66679 11.4672 8.6419 11.4961 8.60361 11.5061C8.56614 11.5161 8.53031 11.5037 8.497 11.4687C8.33456 11.3029 8.17203 11.138 8.00792 10.9731C7.99322 10.9596 7.97574 10.9495 7.95665 10.9438L7.28121 10.7696C7.23465 10.758 7.20661 10.733 7.19576 10.6948C7.18659 10.6581 7.19903 10.6223 7.23319 10.5882C7.39981 10.4265 7.56465 10.2632 7.7296 10.1007C7.73698 10.0934 7.74355 10.0847 7.74832 10.0755C7.75329 10.0672 7.75703 10.0579 7.75971 10.0486C7.81802 9.82374 7.87641 9.59887 7.93305 9.37399C7.94472 9.32732 7.96959 9.29856 8.00792 9.28773Z" fill="#323544"/>
<path d="M15.1888 9.75728C15.2348 9.75502 15.2807 9.76246 15.3239 9.77844C15.367 9.79448 15.4068 9.81915 15.4402 9.85087C15.4737 9.8827 15.501 9.92155 15.5192 9.96399C15.5373 10.0063 15.546 10.0522 15.546 10.0983C15.546 10.1443 15.5373 10.1902 15.5192 10.2325C15.501 10.275 15.4737 10.313 15.4402 10.3448C15.4068 10.3766 15.3671 10.4012 15.3239 10.4173C15.2807 10.4333 15.2348 10.4407 15.1888 10.4384C15.0984 10.4384 15.0118 10.4022 14.9479 10.3383C14.884 10.2744 14.8478 10.1878 14.8478 10.0974C14.8478 10.0071 14.884 9.92046 14.9479 9.85657C15.0118 9.79272 15.0984 9.75728 15.1888 9.75728Z" fill="#323544"/>
<path d="M13.7256 7.76106C13.7637 7.75127 13.8006 7.7637 13.8338 7.79768C13.9955 7.96435 14.1572 8.12991 14.3197 8.29491C14.3342 8.30869 14.3517 8.31922 14.3709 8.32502L15.0439 8.49998C15.0903 8.5117 15.1186 8.53746 15.1294 8.57485C15.1393 8.61231 15.1269 8.64816 15.0919 8.68146L14.5955 9.16729C14.5821 9.18182 14.5717 9.19899 14.5654 9.21774L14.3905 9.89156C14.3788 9.938 14.3537 9.9661 14.3156 9.97701C14.2781 9.98617 14.2415 9.97374 14.2082 9.93957C14.0466 9.773 13.8839 9.60807 13.7223 9.44316C13.715 9.43586 13.7071 9.42919 13.6979 9.42445C13.6896 9.41928 13.6805 9.41562 13.6711 9.41305L12.9981 9.23809C12.9514 9.22643 12.9226 9.20148 12.9126 9.16322C12.9026 9.12579 12.9152 9.09071 12.9492 9.05661C13.1159 8.89495 13.2815 8.73328 13.4465 8.57078C13.4538 8.56348 13.4596 8.55476 13.4644 8.54555C13.4697 8.53727 13.4736 8.52811 13.4766 8.5187L13.6515 7.84732C13.6632 7.79983 13.6881 7.7719 13.7256 7.76106Z" fill="#323544"/>
<path d="M8.73789 2.38193C9.54052 2.05195 10.4144 1.93289 11.2761 2.03607C12.3868 2.16356 13.3773 2.6355 14.2464 3.45206C14.2581 3.46321 14.2723 3.47144 14.2879 3.47566C14.3034 3.47985 14.3195 3.48013 14.3351 3.47647C15.5093 3.18815 16.6372 3.28999 17.7205 3.78164L17.7709 3.80606L17.9003 3.87035C19.031 4.45613 19.8419 5.34403 20.3319 6.53387C20.5635 7.10046 20.6801 7.69056 20.6827 8.3063C20.6991 8.76412 20.6487 9.2221 20.5329 9.66533C20.5271 9.68779 20.5271 9.71205 20.5329 9.7345C20.5388 9.75682 20.5504 9.77718 20.5663 9.7939C21.2213 10.4584 21.6768 11.2938 21.8806 12.2043C22.2021 13.7883 21.8733 15.2158 20.8951 16.4873L20.7445 16.6704C20.0967 17.4117 19.2465 17.948 18.2983 18.2125C18.2777 18.2187 18.2583 18.2293 18.2429 18.2443C18.2276 18.2592 18.2163 18.2777 18.2096 18.298C17.9971 18.9113 17.7827 19.4348 17.386 19.9581C16.3869 21.2762 14.9181 22.0098 13.2634 21.9999C11.9443 21.9941 10.7751 21.5112 9.75512 20.553C9.73972 20.5387 9.72028 20.529 9.69978 20.5245C9.6793 20.52 9.6579 20.5205 9.63793 20.5269C9.20639 20.6661 8.77157 20.6866 8.30088 20.6816C7.5503 20.6754 6.81041 20.4981 6.13865 20.1632C5.43531 19.8143 4.82326 19.3058 4.35076 18.6788C4.18159 18.4538 4.0143 18.2436 3.89097 17.9944C3.7224 17.6511 3.58441 17.2936 3.47919 16.9259C3.25747 16.0896 3.25213 15.2102 3.46454 14.3715C3.47121 14.3516 3.47388 14.3303 3.47105 14.3096C3.46717 14.2894 3.45632 14.2712 3.44094 14.2575C2.92724 13.7381 2.53461 13.1112 2.29106 12.4224C2.12966 11.9982 2.036 11.551 2.01356 11.0976C1.97339 10.5015 2.02589 9.90255 2.16981 9.32272C2.54479 8.08528 3.26078 7.11431 4.31821 6.41099C4.55318 6.25434 4.77556 6.13228 4.9847 6.04479C5.21927 5.94735 5.45933 5.86328 5.70327 5.79251C5.72043 5.78749 5.7362 5.77829 5.74884 5.76566C5.76148 5.75302 5.77067 5.73723 5.7757 5.72008C5.95742 5.06536 6.2701 4.45406 6.69528 3.92406C7.26187 3.21999 7.94302 2.7061 8.73789 2.38193ZM9.54191 8.75388C8.58032 8.07087 7.26732 8.40993 6.78317 9.48304C6.53234 10.038 6.48339 10.6234 6.63506 11.2384L6.7555 11.7266L6.97197 12.5185C7.05948 12.9625 7.2306 13.3685 7.48221 13.7367L7.50744 13.7725C7.64065 13.9298 7.7863 14.0739 7.94363 14.2038C9.09861 15.153 10.673 14.5194 10.9872 13.1011L11.0287 12.9237L11.0393 12.857C11.0892 12.5238 11.0737 12.1971 10.9945 11.878C10.8553 11.3127 10.7036 10.7505 10.5396 10.1918C10.3588 9.57686 10.0261 9.09721 9.54191 8.75388ZM15.4622 7.38265C14.7439 6.71437 13.6365 6.68997 12.9232 7.36068C12.6449 7.62228 12.4513 7.97385 12.3421 8.41454C12.2336 8.86221 12.2336 9.32995 12.3421 9.77763L12.3535 9.82239L12.3999 9.97212C12.5058 10.3221 12.6037 10.6673 12.6937 11.0064C12.787 11.3588 12.8625 11.5944 12.9191 11.7144C13.3975 12.7194 14.4356 13.4431 15.5664 12.9831C16.6171 12.5548 16.9334 11.3084 16.6951 10.3001C16.6593 10.1477 16.6204 9.99591 16.5787 9.84517C16.4702 9.40554 16.3515 8.96817 16.2223 8.53416C16.0873 8.1109 15.8338 7.7276 15.4622 7.38265Z" fill="#323544"/>
</svg>
