<svg width="24" height="24" viewBox="0 0 24 24" fill="none" xmlns="http://www.w3.org/2000/svg">
<path d="M10.0991 3.84448C9.78427 7.67154 11.557 9.46826 12.9762 10.9039C14.0988 12.0405 14.9996 12.9516 14.4665 14.4655C13.6056 16.9134 10.7761 16.1602 10.4753 15.6323C10.4753 15.6323 11.5288 15.9343 11.6794 14.8799C11.7516 14.3808 11.3152 13.9894 10.6918 13.4329C10.0005 12.8155 9.07974 11.9925 8.36668 10.5863C6.10575 13.1847 7.53726 18.4194 12.0191 18.4194C16.1616 18.4192 17.7441 14.1256 16.2745 11.3778C16.2745 11.3778 19.8143 11.9795 20.1163 14.6906C20.4172 17.4028 16.9529 22.111 12.2076 21.998C7.4623 21.885 3.7334 18.3823 3.7334 13.3734C3.7334 9.98379 6.1433 7.53589 10.0991 3.84448Z" fill="#323544"/>
<path d="M17.5177 7.31095C19.589 9.34397 19.9727 10.5654 20.2666 12.6584C19.2258 11.1524 18.7222 10.9023 16.3501 10.2484C12.8465 9.28224 11.6425 7.15927 12.0947 2L17.5177 7.31095Z" fill="#323544"/>
</svg>
