<svg width="24" height="24" viewBox="0 0 24 24" fill="none" xmlns="http://www.w3.org/2000/svg">
<path d="M7.65727 20.18C11.5227 20.18 14.0373 18.1619 14.0373 15.1255C14.0373 12.771 12.5082 11.2746 9.77364 10.6546L8.01909 10.1355C6.47909 9.79459 5.58 9.3855 5.79182 8.34004C5.96818 7.47004 6.49455 6.97913 7.72091 6.97913C11.6164 6.97913 13.06 8.34004 13.06 8.34004V5.06732C13.06 5.06732 11.6545 3.81641 7.72091 3.81641C4.01182 3.81641 2 5.69822 2 8.61004C2 10.9646 3.39455 12.3346 6.22273 12.9846L6.52636 13.06C6.95636 13.191 7.53727 13.3646 8.26818 13.58C9.71364 13.921 10.0855 14.2828 10.0855 15.3673C10.0855 16.3582 9.04 16.9219 7.65818 16.9219C3.67364 16.9219 2 14.9355 2 14.9355V18.5619C2 18.5619 3.04727 20.18 7.65727 20.18Z" fill="#323544"/>
<path d="M19.6127 19.9346C20.9809 19.9346 22 18.9591 22 17.6382C22 16.2891 21.01 15.3419 19.6127 15.3419C18.2445 15.3419 17.2545 16.2891 17.2545 17.6382C17.2545 18.9873 18.2445 19.9346 19.6127 19.9346Z" fill="#323544"/>
</svg>
