<svg width="24" height="24" viewBox="0 0 24 24" fill="none" xmlns="http://www.w3.org/2000/svg">
<path d="M15.2166 6.97941C16.0563 6.80905 16.9292 6.94007 17.682 7.34946C18.4347 7.75885 19.0191 8.42041 19.3324 9.21791C20.3849 9.49102 21.3166 10.1066 21.9806 10.9676C22.6447 11.8287 23.0033 12.8862 23 13.9736C22.9991 16.6796 20.8211 18.875 18.1316 18.875C17.1666 18.873 16.224 18.584 15.4237 18.0449C14.6234 17.5057 14.0015 16.7408 13.6372 15.8472C13.4068 15.2926 13.2827 14.6996 13.2714 14.0992H12.0403C12.0212 14.0993 12.0024 14.0936 11.9865 14.083C11.9705 14.0724 11.9581 14.0572 11.9508 14.0395C11.9435 14.0218 11.9417 14.0023 11.9456 13.9835C11.9494 13.9648 11.9588 13.9476 11.9725 13.9342L14.4777 11.4115C14.4888 11.4003 14.502 11.3914 14.5166 11.3853C14.5311 11.3792 14.5468 11.3761 14.5625 11.3761C14.5783 11.3761 14.5939 11.3792 14.6085 11.3853C14.623 11.3914 14.6362 11.4003 14.6473 11.4115L17.1535 13.936C17.2131 13.9965 17.1709 14.101 17.0856 14.101L15.784 14.1001C15.8271 14.4099 15.9233 14.717 16.0819 15.0076C16.2491 15.3163 16.477 15.5881 16.7519 15.8066C17.0267 16.0251 17.3429 16.1858 17.6814 16.2791C18.0198 16.3724 18.3737 16.3964 18.7217 16.3496C19.0696 16.3028 19.4046 16.1862 19.7064 16.0067C20.8229 15.344 21.2941 13.9076 20.7853 12.7067C20.5397 12.1209 20.0893 11.6443 19.5182 11.366C18.9471 11.0877 18.2943 11.0267 17.6815 11.1942C17.8072 10.7892 17.7907 10.3533 17.6348 9.95891C17.479 9.56448 17.193 9.23513 16.8244 9.02541C16.4565 8.81768 16.0281 8.74354 15.6118 8.81554C15.1955 8.88754 14.8168 9.10127 14.5401 9.4205C13.9167 7.92725 12.374 6.96383 10.6992 7.16275C8.88974 7.37725 7.54408 8.87691 7.44233 10.6479C6.97729 10.3937 6.45182 10.2709 5.92228 10.2927C5.39275 10.3145 4.87914 10.4801 4.43658 10.7717C3.91058 11.1197 3.5086 11.6256 3.28852 12.2167C3.06844 12.8077 3.04162 13.4534 3.21191 14.0607C3.38373 14.6809 3.75393 15.2278 4.26593 15.6178C4.77793 16.0078 5.40355 16.2194 6.04716 16.2203L12.6041 16.2231C12.6545 16.2231 12.6994 16.2533 12.7187 16.2992C13.0226 17.016 13.4642 17.6663 14.0185 18.2132C14.0671 18.2617 14.035 18.3433 13.9672 18.3433L6.04441 18.3406C3.25775 18.3397 0.999084 16.0608 1 13.254C1.00092 10.4444 3.26233 8.17016 6.04808 8.172H6.05541C6.52834 7.25477 7.2445 6.48533 8.12549 5.94791C9.00649 5.41049 10.0183 5.1258 11.0503 5.125C12.7012 5.125 14.1862 5.84092 15.2166 6.97941Z" fill="#323544"/>
</svg>
