<svg width="24" height="24" viewBox="0 0 24 24" fill="none" xmlns="http://www.w3.org/2000/svg">
<path d="M11.5609 2.01392C13.2757 1.94045 14.0087 2.15333 14.1322 2.7611C14.2157 3.17936 13.9085 3.56004 11.7254 5.74149L9.57564 7.88787L8.96454 7.89622C8.5012 7.90289 8.27663 7.94464 8.03953 8.07153C7.10952 8.56659 6.68709 9.62267 7.02436 10.6103C7.29819 11.4151 8.10966 11.9761 8.9779 11.9627C9.15739 11.9586 9.37528 11.9302 9.54392 11.8901L9.52138 11.8985L9.59902 11.8734C10.3704 11.648 10.9849 10.7781 10.989 9.90485C10.9907 9.61766 11.0416 9.38307 11.136 9.23029C11.2153 9.10006 12.3465 7.93128 13.6505 6.63143C16.2669 4.02505 16.3637 3.95158 17.2295 3.94908C17.9166 3.94658 18.2789 4.13692 19.0611 4.9175C20.0559 5.90318 20.8324 7.08698 21.3402 8.39211L21.3411 8.39044L21.4371 8.62503C21.6091 9.04579 21.847 10.0518 21.9397 10.7439C22.0515 11.5787 21.9898 13.2484 21.8203 14.0315C21.4151 15.9445 20.4646 17.6994 19.0837 19.0839C17.7187 20.4581 16.0131 21.3906 14.0521 21.8339C13.4577 21.9692 11.1017 22.0551 10.6609 21.9591C9.92795 21.7989 9.61321 21.2746 9.91208 20.7119C9.97386 20.595 11.0057 19.5222 12.2046 18.3259L14.3843 16.1528L15.0464 16.1311C15.4888 16.1177 15.7936 16.066 15.9622 15.9758C16.3153 15.788 16.7094 15.3764 16.8839 15.0141C16.9966 14.7803 17.0659 14.3379 17.0675 13.9881C17.0331 13.5364 16.8492 13.109 16.5449 12.7734C15.574 11.6989 13.8317 11.9344 13.1989 13.2259C13.0319 13.5681 12.991 13.7602 12.9952 14.1868L13.0002 14.7202L12.9442 14.7728L10.4923 17.2273C7.77489 19.9472 7.61376 20.0716 6.79061 20.0682C6.48923 20.0665 6.1937 20.0098 5.9758 19.9113C5.55504 19.7193 4.53486 18.7408 3.95298 17.9694C3.20579 16.9776 2.58384 15.6427 2.22736 14.2778L2.15974 14.0039L2.11382 13.791C2.07066 13.5522 2.04443 13.3106 2.03534 13.0681C2.05455 13.3335 2.08126 13.5773 2.11632 13.7852C1.94101 12.7425 1.9719 10.753 2.1948 9.85643C2.17869 9.92145 2.16421 9.98687 2.15139 10.0526C2.23738 9.58176 2.37679 9.13011 2.59803 8.52569C3.46626 6.15306 5.21609 4.20371 7.5069 3.05496C8.86352 2.3754 10.0048 2.08237 11.5609 2.01392Z" fill="#323544"/>
</svg>
