<svg width="24" height="24" viewBox="0 0 24 24" fill="none" xmlns="http://www.w3.org/2000/svg">
<path d="M12.0046 14.0982C9.94385 14.0982 8.29523 12.4122 8.29523 10.3514C8.29523 10.1266 8.48257 9.93923 8.70738 9.93923C8.9322 9.93923 9.11954 10.1266 9.11954 10.3514C9.11954 11.9625 10.4309 13.2739 12.0046 13.2739C13.6158 13.2739 14.8897 11.9625 14.8897 10.3514C14.8897 10.1266 15.077 9.93923 15.3019 9.93923C15.5267 9.93923 15.714 10.1266 15.714 10.3514C15.714 12.4122 14.0654 14.0982 12.0046 14.0982ZM10.8806 9.90176C11.2178 9.90176 11.4801 10.164 11.4801 10.5387C11.4801 10.8759 11.2178 11.1757 10.8806 11.1757C10.5433 11.1757 10.2811 10.9134 10.2811 10.5387C10.2436 10.2015 10.5433 9.90176 10.8806 9.90176ZM13.1287 9.90176C13.4659 9.90176 13.7282 10.164 13.7282 10.5387C13.7282 10.8759 13.4659 11.1757 13.1287 11.1757C12.7915 11.1757 12.5292 10.9134 12.5292 10.5387C12.5292 10.2015 12.7915 9.90176 13.1287 9.90176ZM16.6882 7.95339H14.5525L15.7515 2.3331C15.9014 1.69614 15.152 1.24651 14.6649 1.65867L5.07293 9.90176C2.63747 12 4.09875 16.0466 7.32105 16.0466H9.45676L8.25776 21.6669C8.10789 22.3039 8.85726 22.7535 9.34435 22.3413L18.9363 14.0982C21.3718 12 19.873 7.95339 16.6882 7.95339Z" fill="#323544"/>
</svg>
