<svg width="24" height="24" viewBox="0 0 24 24" fill="none" xmlns="http://www.w3.org/2000/svg">
<path d="M16.8132 3C19.116 3 20.9827 4.86674 20.9827 7.16948V8.26866L19.1183 8.84176V7.16262C19.1146 5.89272 18.084 4.8644 16.8132 4.8644H7.1861C5.91304 4.8644 4.88102 5.89642 4.88102 7.16948V11.6153C4.88102 12.3877 4.88102 12.7739 4.66874 13.0613C4.45647 13.3486 4.08732 13.462 3.34901 13.689L3.0166 13.7912L3.01661 7.16948C3.01661 4.86674 4.88335 3 7.1861 3H16.8132Z" fill="#323544"/>
<path d="M20.6503 10.3179L20.9827 10.2157V16.8305C20.9827 19.1333 19.116 21 16.8132 21H7.1861C4.88335 21 3.0166 19.1333 3.0166 16.8305L3.0166 15.7382L4.88102 15.1651V16.8373C4.88468 18.1072 5.9153 19.1356 7.1861 19.1356H16.8132C18.0863 19.1356 19.1183 18.1036 19.1183 16.8305V12.3916C19.1183 11.6191 19.1183 11.2329 19.3306 10.9456C19.5428 10.6583 19.912 10.5448 20.6503 10.3179Z" fill="#323544"/>
<path d="M8.0404 14.8255V11.3442C8.0404 10.4268 8.23192 10.2353 9.14936 10.2353H9.49246C10.41 10.2353 10.6014 10.4267 10.6014 11.3442V14.8255C10.6014 15.743 10.41 15.9345 9.49246 15.9345H9.14936C8.23192 15.9345 8.0404 15.743 8.0404 14.8255Z" fill="#323544"/>
<path d="M14.5067 8.06758C13.5892 8.06758 13.3977 8.2591 13.3977 9.17656V14.8255C13.3977 15.743 13.5892 15.9344 14.5067 15.9344H14.8498C15.7673 15.9344 15.9588 15.743 15.9588 14.8255V9.17656C15.9588 8.25904 15.7673 8.06758 14.8498 8.06758H14.5067Z" fill="#323544"/>
</svg>
