<svg width="24" height="24" viewBox="0 0 24 24" fill="none" xmlns="http://www.w3.org/2000/svg">
<path d="M12.0007 15.3275V18.6375C7.68325 18.6375 4.18408 16.3983 4.18408 13.6458C4.18408 13.0658 4.33992 12.51 4.62575 11.9917C5.69658 13.9333 8.59325 15.3275 12.0007 15.3275ZM12.0007 2V5.3625C8.60575 5.3625 5.71742 6.7375 4.63825 8.6625C4.34484 8.1509 4.18841 7.57225 4.18408 6.9825C4.18408 4.23 7.68325 2 12.0007 2ZM6.18075 10.325C5.50242 10.805 4.96992 11.3692 4.62575 11.9917C4.3397 11.4864 4.18766 10.9172 4.18408 10.3367C4.18408 9.75667 4.34408 9.185 4.63742 8.66167C4.98158 9.28 5.51075 9.84417 6.18158 10.3242L6.18075 10.325ZM6.18075 10.325C7.61158 9.31083 9.68908 8.67333 11.9991 8.67333V12.0008C9.68742 12.0008 7.61158 11.3517 6.18075 10.325ZM12.0007 8.6725V5.3625C16.3174 5.3625 19.8157 7.60167 19.8157 10.3542C19.8157 10.9342 19.6599 11.49 19.3741 12.0083C18.3032 10.0667 15.4074 8.6725 12.0007 8.6725ZM12.0007 22V18.6375C15.3941 18.6375 18.2824 17.2625 19.3624 15.3375C19.6557 15.8642 19.8157 16.43 19.8157 17.0175C19.8157 19.77 16.3174 22 12.0007 22ZM17.8191 13.675C18.4974 13.195 19.0299 12.6308 19.3741 12.0083C19.6599 12.5267 19.8157 13.0825 19.8157 13.6633C19.8157 14.2433 19.6557 14.815 19.3632 15.3383C19.0182 14.72 18.4899 14.155 17.8191 13.675ZM17.8191 13.675C16.3874 14.6892 14.3107 15.3267 11.9999 15.3267V11.9992C14.3116 11.9992 16.3874 12.6483 17.8191 13.675Z" fill="#323544"/>
</svg>
