<svg width="24" height="24" viewBox="0 0 24 24" fill="none" xmlns="http://www.w3.org/2000/svg">
<path d="M11.7261 2.05373C11.9348 1.97001 12.1723 1.98422 12.3716 2.09572L20.6362 6.72072C20.8732 6.85333 21.02 7.10446 21.02 7.376V16.625C21.02 16.8966 20.8732 17.1467 20.6362 17.2793L12.3716 21.9043C12.1442 22.0316 11.8667 22.0314 11.6392 21.9043L7.59717 19.6465C7.56451 19.6339 7.53253 19.6189 7.50146 19.6016L3.36377 17.2891C3.12685 17.1565 2.98004 16.9063 2.97998 16.6348V7.37502C2.97998 7.10382 3.12633 6.85346 3.36279 6.72072L7.45361 4.42678L7.54248 4.38478C7.55206 4.38096 7.56208 4.37843 7.57178 4.37502L11.6382 2.09572L11.7261 2.05373ZM9.41162 18.9414L12.0044 20.3906L19.52 16.1846V13.2793L9.41162 18.9414ZM8.61279 17.669L18.73 12.002L8.57373 6.35256L8.61279 17.669ZM4.47998 7.81447V16.1934L7.11279 17.666L7.07373 6.35939L4.47998 7.81447ZM9.37646 5.08303L19.52 10.7237V7.81545L12.0054 3.60939L9.37646 5.08303Z" fill="#323544"/>
</svg>
