<svg width="24" height="24" viewBox="0 0 24 24" fill="none" xmlns="http://www.w3.org/2000/svg">
<path d="M20.3372 10.0362L17.2298 7.42182V5.0071L20.3372 7.62148V10.0362ZM20.3372 14.4742L14.8905 19.0774C14.1243 18.248 13.0525 17.7794 11.9175 17.7794C10.809 17.7794 9.76568 18.2257 9.00361 19.0163L3.66278 14.5231V11.701L7.39788 8.54459L11.5915 11.9027C11.8238 12.0901 12.1539 12.0901 12.3882 11.9027L16.5818 8.54254L20.3372 11.703V14.4742ZM11.9888 21.5287L9.9817 19.8395C10.4973 19.3362 11.188 19.0529 11.9175 19.0529C12.6775 19.0529 13.3949 19.3606 13.9145 19.9027L11.9888 21.5287ZM3.66278 7.57259L6.74995 5.00301V7.42182L3.66278 10.0321V7.57259ZM8.02347 4.28173L11.351 4.2756V10.0769L8.02347 7.41161V4.28173ZM12.6266 4.2756H15.9541V7.41161L12.6266 10.0769V4.2756ZM21.5619 7.07738C21.5557 7.06104 21.5477 7.04279 21.5375 7.02849C21.5293 7.01025 21.5191 6.9939 21.5068 6.97755C21.4927 6.95522 21.4763 6.93275 21.4579 6.91231C21.4539 6.90618 21.4498 6.90224 21.4457 6.89816C21.4274 6.87772 21.407 6.85729 21.3847 6.83905L21.3745 6.82883L17.0077 3.15485L17.0015 3.15077C16.973 3.12639 16.9424 3.10596 16.9098 3.08757C16.8956 3.07735 16.8793 3.06933 16.8609 3.06115C16.8426 3.05094 16.8223 3.04276 16.8018 3.03663C16.7876 3.0305 16.7733 3.02656 16.757 3.02248C16.7407 3.01839 16.7224 3.01431 16.704 3.01022C16.6877 3.00817 16.6715 3.00409 16.6572 3.00409C16.6368 3.00204 16.6144 3 16.592 3L11.9888 3.00204L7.38567 3.00817C7.36327 3.00817 7.34287 3.01022 7.32046 3.01226C7.30416 3.01226 7.2899 3.01431 7.27564 3.01839C7.2573 3.02029 7.23894 3.02452 7.22064 3.0305C7.20433 3.03474 7.18803 3.03868 7.17171 3.04685C7.1004 3.07137 7.03518 3.108 6.97817 3.15485L2.62358 6.77789L2.61748 6.78403C2.55226 6.83701 2.50134 6.90224 2.46258 6.97347C2.45243 6.98981 2.44428 7.0082 2.43818 7.02645C2.40351 7.10395 2.38721 7.18947 2.38721 7.275V14.8186C2.38721 15.0081 2.47079 15.1854 2.61542 15.3077L11.5792 22.8493C11.6974 22.9491 11.8421 23 11.9888 23C12.1355 23 12.2822 22.9491 12.4004 22.8493L21.3867 15.2567C21.5293 15.1365 21.6128 14.9572 21.6128 14.7697V7.32608C21.6128 7.24041 21.5966 7.15693 21.5619 7.07738Z" fill="#323544"/>
</svg>
