<svg width="24" height="24" viewBox="0 0 24 24" fill="none" xmlns="http://www.w3.org/2000/svg">
<path d="M17.628 3H6.372C5.47782 3 4.62025 3.35516 3.9879 3.98737C3.35555 4.61958 3.0002 5.47707 3 6.37125V17.6265C3 18.5208 3.35526 19.3785 3.98764 20.0109C4.62001 20.6432 5.47769 20.9985 6.372 20.9985H17.628C18.5223 20.9985 19.38 20.6432 20.0124 20.0109C20.6447 19.3785 21 18.5208 21 17.6265V6.372C21 5.47762 20.6448 4.61986 20.0124 3.98737C19.3801 3.35488 18.5224 3.0002 17.628 3ZM17.2395 6.8505C17.2425 6.84638 17.2468 6.8434 17.2517 6.84203C17.2566 6.84067 17.2618 6.84101 17.2665 6.843C17.2701 6.84455 17.2733 6.84703 17.2757 6.85019C17.278 6.85335 17.2795 6.85708 17.28 6.861C17.2838 6.891 17.2868 6.921 17.2875 6.951C17.2965 7.4085 17.2988 7.86675 17.295 8.325C17.2953 8.8855 17.1542 9.43702 16.8848 9.9285C16.5072 10.592 15.8997 11.0941 15.177 11.34C14.922 11.43 14.6587 11.4817 14.3872 11.4937C11.8433 11.4967 9.29925 11.4967 6.7545 11.4937C6.70125 11.4907 6.64275 11.4638 6.63525 11.4113C6.63484 11.4078 6.63459 11.4043 6.6345 11.4008C6.612 10.6005 6.87225 9.90975 7.416 9.32775C7.89361 8.81484 8.54127 8.49288 9.2385 8.42175C10.7505 8.40975 12.2633 8.403 13.776 8.40225C14.139 8.3835 14.4982 8.33475 14.8537 8.256C15.3104 8.16796 15.7501 8.00797 16.1565 7.782C16.3125 7.6995 16.4633 7.60725 16.6065 7.506C16.7603 7.389 16.902 7.2585 17.031 7.113C17.1015 7.026 17.1705 6.93825 17.2395 6.8505ZM17.2568 11.5605C17.265 11.9828 17.2688 12.405 17.2688 12.8273C17.2725 13.1535 17.2403 13.476 17.1698 13.7948C16.9895 14.5671 16.5159 15.239 15.849 15.6683C15.479 15.9074 15.0635 16.0675 14.6287 16.1385C14.5472 16.1481 14.4654 16.1559 14.3835 16.1618C11.8215 16.1648 9.25875 16.1648 6.696 16.1618C6.65625 16.1603 6.62775 16.1408 6.61125 16.1048C6.603 16.0778 6.597 16.05 6.5955 16.0223C6.59552 15.461 6.75271 14.911 7.04925 14.4345C7.33637 13.9915 7.73323 13.6303 8.20125 13.386C8.3829 13.2927 8.57398 13.219 8.77125 13.1663C8.93983 13.125 9.11297 13.1054 9.2865 13.1077L13.7167 13.0702C14.5931 13.0464 15.4518 12.8178 16.224 12.4028C16.53 12.2232 16.8076 11.999 17.0475 11.7375C17.0994 11.6762 17.1492 11.6132 17.1968 11.5485C17.2148 11.523 17.2523 11.529 17.2568 11.5605Z" fill="#323544"/>
</svg>
