<svg width="24" height="24" viewBox="0 0 24 24" fill="none" xmlns="http://www.w3.org/2000/svg">
<path d="M16.177 16.3987C15.166 16.3987 15.2454 14.9727 16.177 14.9727C17.1087 14.9727 17.188 16.3987 16.177 16.3987ZM7.82297 16.3987C6.81197 16.3987 6.8913 14.9727 7.82297 14.9727C8.75463 14.9727 8.83396 16.3987 7.82297 16.3987ZM19.2315 11.1304H18.889C18.2747 11.1304 17.7472 10.7636 17.5111 10.2379C17.275 10.7636 16.7475 11.1304 16.1334 11.1304C15.5191 11.1304 14.9917 10.7636 14.7556 10.2379C14.5195 10.7636 13.992 11.1304 13.3777 11.1304C12.7636 11.1304 12.2361 10.7636 12 10.2379C11.7639 10.7636 11.2364 11.1304 10.6223 11.1304C10.008 11.1304 9.48062 10.7636 9.24439 10.2379C9.00829 10.7636 8.48088 11.1304 7.86665 11.1304C7.25241 11.1304 6.72501 10.7636 6.48891 10.2379C6.25281 10.7636 5.72527 11.1304 5.11104 11.1304H4.77243C4.25869 11.6826 4.58457 12.1491 5.85324 12.1491V14.9848C5.85324 17.6498 8.92494 18.9823 11.9967 18.9823C15.0684 18.9823 18.1401 17.6498 18.1401 14.9848V12.1491C19.4098 12.1491 19.7412 11.6826 19.2315 11.1304Z" fill="#323544"/>
<path d="M12.0984 2.00781C11.6486 2.00781 11.2181 2.14864 10.8606 2.39629C10.6123 2.29964 10.3451 2.2485 10.07 2.2485C9.8804 2.2485 9.69093 2.27353 9.50682 2.3228C9.07173 2.43926 8.69186 2.68718 8.41047 3.01956C8.33087 3.01059 8.25075 3.00604 8.17048 3.00604C7.79061 3.00604 7.41529 3.10671 7.08525 3.29707C6.69533 3.52196 6.39277 3.85943 6.20705 4.25299C5.7512 4.32153 5.33059 4.53264 4.99855 4.86435C4.67964 5.18282 4.47476 5.58763 4.39758 6.0164C3.98032 6.19992 3.62322 6.51236 3.38899 6.91784C3.16375 7.30752 3.07062 7.75102 3.10693 8.18474C2.75265 8.46813 2.48868 8.86102 2.36621 9.31737C2.24963 9.75216 2.27456 10.2046 2.42195 10.6143C2.15329 10.9796 2 11.4275 2 11.8998C2 12.3498 2.14123 12.7803 2.38979 13.1379C2.22484 13.5602 2.19282 14.0324 2.31516 14.4888C2.43187 14.9235 2.67989 15.3027 3.01247 15.5839C2.96262 16.0344 3.05401 16.4988 3.29051 16.908C3.51508 17.2968 3.85262 17.6001 4.24777 17.7861C4.31651 18.234 4.52501 18.6589 4.85933 18.9929C5.17783 19.3109 5.57767 19.5181 6.01222 19.5951C6.19472 20.0093 6.50586 20.3648 6.91468 20.6007C7.24484 20.7912 7.62016 20.8919 8.00004 20.8919C8.06181 20.8919 8.12318 20.8892 8.18415 20.8841C8.46768 21.2372 8.86056 21.5004 9.31668 21.6225C9.50079 21.6718 9.69026 21.6968 9.87986 21.6968C10.1345 21.6968 10.3834 21.6525 10.617 21.5684C10.9822 21.8357 11.4298 21.9883 11.9016 21.9883C12.3514 21.9883 12.7819 21.8475 13.1394 21.5999C13.3877 21.6967 13.655 21.7477 13.93 21.7477C14.1196 21.7477 14.3091 21.7228 14.4932 21.6734C14.9283 21.5569 15.3081 21.309 15.5894 20.9766C15.6691 20.9856 15.7493 20.9901 15.8295 20.9901C16.2094 20.9901 16.5847 20.8895 16.9147 20.6991C17.3048 20.4742 17.6072 20.1367 17.793 19.7432C18.2489 19.6746 18.6694 19.4635 19.0015 19.1318C19.3202 18.8133 19.5251 18.4085 19.6024 17.9798C20.0197 17.7964 20.3768 17.4839 20.611 17.0785C20.8363 16.6888 20.9294 16.2453 20.8931 15.8116C21.2473 15.5282 21.5113 15.1353 21.6338 14.6788C21.7504 14.244 21.7254 13.7915 21.578 13.382C21.8467 13.0166 22 12.5688 22 12.0964C22 11.6465 21.8586 11.2158 21.6102 10.8584C21.7752 10.4361 21.8072 9.9638 21.6847 9.50732C21.5681 9.07266 21.3201 8.69343 20.9875 8.41231C21.0374 7.96172 20.946 7.49734 20.7095 7.08812C20.4848 6.69937 20.1474 6.39617 19.7522 6.2101C19.6835 5.76219 19.475 5.33743 19.1407 5.00344C18.8222 4.68524 18.4223 4.47802 17.9878 4.40118C17.8054 3.987 17.4943 3.63133 17.0853 3.39546C16.7553 3.2051 16.38 3.10443 16.0001 3.10443C15.9383 3.10443 15.8768 3.10698 15.8159 3.11206C15.5323 2.75906 15.1394 2.49575 14.6833 2.37367C14.4992 2.3244 14.3097 2.29937 14.1203 2.29937C13.8655 2.29937 13.6166 2.34368 13.383 2.42788C13.0178 2.16042 12.5702 2.00781 12.0984 2.00781ZM12.0984 3.07873C12.5505 3.07873 12.9383 3.35088 13.1085 3.73989C13.1255 3.77871 13.1633 3.8 13.2012 3.8C13.2283 3.8 13.2555 3.78902 13.275 3.76573C13.4823 3.51834 13.7917 3.37029 14.1201 3.37029C14.2145 3.37029 14.3104 3.3826 14.4058 3.40804C14.8433 3.52517 15.1476 3.88928 15.2106 4.31002C15.2181 4.36035 15.263 4.39302 15.3095 4.39302C15.3284 4.39302 15.3477 4.38753 15.3648 4.37561C15.5512 4.2451 15.7736 4.17535 16 4.17535C16.1866 4.17535 16.3758 4.22287 16.5493 4.32287C16.9415 4.5491 17.1412 4.97948 17.093 5.40209C17.0861 5.46179 17.136 5.51119 17.192 5.51119C17.2028 5.51119 17.214 5.50932 17.2249 5.5053C17.3471 5.46086 17.4756 5.4385 17.604 5.4385C17.8859 5.4385 18.1676 5.54573 18.3827 5.76071C18.7029 6.08065 18.7842 6.54797 18.6283 6.94368C18.603 7.0078 18.6531 7.07794 18.7203 7.07794C18.7233 7.07794 18.7261 7.07781 18.7289 7.07754C18.7612 7.07473 18.7934 7.07326 18.8257 7.07326C19.2066 7.07326 19.577 7.27017 19.7812 7.62358C20.0076 8.0154 19.965 8.48781 19.7118 8.8297C19.6692 8.8874 19.7037 8.97267 19.7745 8.98512C20.1837 9.057 20.5346 9.35713 20.6493 9.78456C20.7666 10.2216 20.6031 10.667 20.2699 10.9318C20.2137 10.9764 20.225 11.0677 20.2901 11.098C20.6667 11.2733 20.928 11.654 20.928 12.0964C20.928 12.5482 20.6558 12.9355 20.2664 13.1055C20.1996 13.1347 20.1846 13.2252 20.2404 13.2719C20.5591 13.5385 20.7131 13.974 20.5984 14.4016C20.4812 14.8386 20.1167 15.1426 19.6955 15.2055C19.6245 15.2161 19.5888 15.3009 19.6299 15.3596C19.8684 15.6995 19.9042 16.1597 19.6827 16.543C19.4785 16.8963 19.1082 17.0932 18.7273 17.0932C18.6858 17.0932 18.644 17.0908 18.6024 17.0861C18.5988 17.0857 18.595 17.0854 18.5916 17.0854C18.5255 17.0854 18.4758 17.154 18.4991 17.2179C18.6414 17.6079 18.5567 18.0617 18.2434 18.3745C18.0284 18.5895 17.7467 18.6967 17.4649 18.6967C17.3272 18.6967 17.1894 18.671 17.0593 18.6199C17.0478 18.6154 17.036 18.6132 17.0245 18.6132C16.9696 18.6132 16.9201 18.6614 16.9253 18.7206C16.9618 19.1339 16.7624 19.5504 16.3788 19.7717C16.2054 19.8717 16.0162 19.9192 15.8295 19.9192C15.594 19.9192 15.3624 19.8436 15.1715 19.7025C15.154 19.6896 15.1342 19.6837 15.1147 19.6837C15.0691 19.6837 15.0246 19.7156 15.0159 19.765C14.9439 20.1738 14.6435 20.5245 14.2157 20.639C14.1201 20.6646 14.0243 20.6767 13.93 20.6767C13.5922 20.6767 13.2746 20.5201 13.0673 20.2599C13.0479 20.2355 13.0196 20.2239 12.9914 20.2239C12.9546 20.2239 12.9181 20.2434 12.9011 20.2801C12.7255 20.6564 12.3444 20.9174 11.9016 20.9174C11.4493 20.9174 11.0617 20.6454 10.8915 20.2564C10.8745 20.2176 10.8367 20.1963 10.7988 20.1963C10.7717 20.1963 10.7445 20.2071 10.725 20.2304C10.5177 20.4778 10.2083 20.6259 9.87986 20.6259C9.78553 20.6259 9.68959 20.6137 9.59418 20.5881C9.15669 20.471 8.85238 20.1069 8.78941 19.6863C8.7819 19.6358 8.73701 19.6031 8.69052 19.6031C8.67162 19.6031 8.65233 19.6086 8.63518 19.6207C8.44879 19.7512 8.22636 19.8209 8.00004 19.8209C7.81339 19.8209 7.62418 19.7734 7.45066 19.6733C7.05845 19.4471 6.85894 19.0167 6.90704 18.5941C6.91387 18.5344 6.86403 18.4851 6.80802 18.4851C6.79716 18.4851 6.78604 18.4868 6.77506 18.4909C6.65285 18.5354 6.52435 18.5577 6.39598 18.5577C6.11406 18.5577 5.8324 18.4504 5.61734 18.2356C5.29709 17.9155 5.21575 17.4482 5.37172 17.0525C5.39705 16.9885 5.34693 16.9182 5.27967 16.9182C5.27672 16.9182 5.27391 16.9184 5.27109 16.9186C5.2388 16.9214 5.20664 16.9229 5.17435 16.9229C4.7934 16.9229 4.42304 16.726 4.21883 16.3726C3.99238 15.9808 4.03499 15.5084 4.28824 15.1665C4.33085 15.1088 4.29628 15.0235 4.22553 15.011C3.81631 14.9392 3.46537 14.639 3.35067 14.2116C3.23343 13.7745 3.3969 13.3292 3.73015 13.0645C3.78629 13.0198 3.77504 12.9285 3.70991 12.8983C3.33325 12.723 3.07196 12.3423 3.07196 11.8998C3.07196 11.4481 3.34424 11.0607 3.73376 10.8907C3.80036 10.8615 3.81537 10.771 3.75963 10.7244C3.44085 10.4578 3.28689 10.0222 3.40159 9.5946C3.51884 9.15753 3.8833 8.85353 4.30445 8.79061C4.37547 8.78004 4.41124 8.6953 4.37011 8.63653C4.1316 8.29665 4.09582 7.83642 4.31731 7.4533C4.52152 7.0999 4.89175 6.90312 5.2727 6.90312C5.31424 6.90312 5.35591 6.90539 5.39758 6.91021C5.4012 6.91061 5.40495 6.91075 5.40857 6.91075C5.4745 6.91075 5.52421 6.84221 5.50089 6.77835C5.35859 6.38827 5.44328 5.93447 5.75642 5.62163C5.97162 5.40664 6.25328 5.29955 6.53507 5.29955C6.67282 5.29955 6.81056 5.32512 6.94067 5.37639C6.9522 5.38094 6.96399 5.38295 6.97551 5.38295C7.03045 5.38295 7.07989 5.33476 7.07467 5.27572C7.03822 4.86221 7.23761 4.44576 7.62124 4.22448C7.79463 4.12448 7.98383 4.07696 8.17048 4.07696C8.40605 4.07696 8.63772 4.1526 8.82853 4.29382C8.84595 4.30654 8.86578 4.31243 8.88535 4.31243C8.93091 4.31243 8.97539 4.2807 8.9841 4.23117C9.05606 3.82235 9.35647 3.47176 9.78432 3.35717C9.87986 3.3316 9.97567 3.31942 10.07 3.31942C10.4078 3.31942 10.7254 3.47604 10.9327 3.73628C10.9521 3.76077 10.9804 3.77242 11.0086 3.77242C11.0454 3.77242 11.0819 3.75274 11.0991 3.71606C11.2745 3.33977 11.6556 3.07873 12.0984 3.07873Z" fill="#323544"/>
</svg>
