<svg width="24" height="24" viewBox="0 0 24 24" fill="none" xmlns="http://www.w3.org/2000/svg">
<path d="M8.83221 13.8942C9.18798 13.894 9.52933 14.0348 9.78138 14.2859L9.81471 14.3209L9.85138 14.3567C9.97598 14.4813 10.0748 14.6292 10.1423 14.792C10.2097 14.9548 10.2444 15.1293 10.2444 15.3055C10.2444 15.4817 10.2097 15.6562 10.1423 15.819C10.0748 15.9818 9.97598 16.1297 9.85138 16.2543L7.29053 18.8151L7.97053 19.4951C8.47054 19.9951 8.22304 20.8509 7.53303 21.0068L3.23384 21.9776C3.10469 22.0071 2.97058 22.0075 2.84128 21.9786C2.71198 21.9498 2.59073 21.8925 2.48633 21.811L2.40133 21.736C2.29358 21.629 2.2149 21.4964 2.17275 21.3505C2.13061 21.2047 2.12639 21.0505 2.1605 20.9026L3.1305 16.6043C3.16601 16.4474 3.24292 16.303 3.35322 16.186C3.46352 16.069 3.60317 15.9838 3.75763 15.9391C3.91208 15.8944 4.07569 15.892 4.23141 15.932C4.38714 15.972 4.52927 16.0531 4.64301 16.1668L5.32302 16.8476L7.8847 14.2859C8.13633 14.0352 8.47701 13.8944 8.83221 13.8942ZM16.3397 13.0384C16.3397 12.3301 17.1189 11.9001 17.7173 12.2784L21.4423 14.6317C21.7223 14.8084 21.8614 15.1001 21.8614 15.3909C21.8614 15.6826 21.7223 15.9743 21.4439 16.1518L17.7173 18.5051C17.5813 18.5907 17.4248 18.6384 17.2642 18.643C17.1036 18.6477 16.9446 18.6092 16.8039 18.5316C16.6632 18.4541 16.5458 18.3402 16.4641 18.2018C16.3823 18.0635 16.3391 17.9058 16.3389 17.7451V16.7826H10.483C10.7914 16.4493 10.9872 16.0309 11.0472 15.5843L11.0656 15.3909C11.0893 14.8944 10.9449 14.4043 10.6555 14.0001H16.3397V13.0384ZM8.96137 2C9.25304 2 9.54471 2.14001 9.72221 2.41917L12.0747 6.1442C12.1605 6.28013 12.2083 6.43658 12.2132 6.59726C12.218 6.75794 12.1796 6.91697 12.1021 7.0578C12.0246 7.19863 11.9107 7.3161 11.7724 7.39798C11.6341 7.47986 11.4763 7.52316 11.3156 7.52337H10.3522V13.1001H8.96054C8.46531 13.0725 7.97534 13.2135 7.57053 13.5001V7.5242H6.60886C5.90135 7.5242 5.47052 6.7442 5.84885 6.14586L8.20137 2.41917C8.28198 2.29047 8.39406 2.18443 8.52704 2.11109C8.66002 2.03775 8.80951 1.99951 8.96137 2Z" fill="#323544"/>
</svg>
