<svg width="24" height="24" viewBox="0 0 24 24" fill="none" xmlns="http://www.w3.org/2000/svg">
<path d="M12.0002 4.48828C14.786 4.48844 17.2344 6.24134 18.163 8.74564C17.572 8.74564 16.8961 8.91291 16.3051 8.9964C16.3051 9.07752 16.2255 9.00054 16.2212 8.9964C15.4615 7.41034 13.8574 6.32486 12.0002 6.32471C9.80524 6.32471 7.94782 7.82759 7.52569 9.91462C7.36509 9.91462 7.18521 9.89527 7.00459 9.87546C7.82533 9.98505 8.56222 10.304 9.29873 10.8338C9.80527 11.2511 10.7335 12.0021 11.3244 12.5863V12.6702L10.0585 13.9221H9.97364C9.63583 13.5882 8.70798 12.9202 8.37026 12.5863C7.61046 11.835 6.85019 11.752 6.34366 11.752C5.49951 11.752 4.82408 12.002 4.23316 12.5863C3.13566 13.7551 3.13607 15.5919 4.31799 16.7607C4.7401 17.178 5.41519 17.5116 6.51238 17.595H7.56857C9.74487 15.4924 13.0413 12.3081 13.2662 12.0857C13.6882 11.5849 14.1945 11.2506 14.5321 10.9167C15.4608 10.2489 16.474 9.83169 17.6559 9.83165C19.0066 9.83165 20.2729 10.4161 21.1172 11.3344C22.9744 13.1709 22.975 16.2598 21.0333 18.0965C20.1047 18.9313 19.007 19.3489 17.9095 19.4324C17.4031 19.5159 16.8965 19.5153 16.2212 19.5153H7.01857C6.59651 19.5153 6.08983 19.5159 5.66781 19.4324C4.65501 19.3488 3.81128 18.9307 2.96723 18.1795C1.02551 16.2594 1.0251 13.2545 2.8824 11.3344C3.56676 10.5899 4.52839 10.0644 5.58764 9.89224C6.10337 6.89726 8.71591 4.48828 12.0002 4.48828ZM17.572 11.8349C16.9811 11.8349 16.3057 11.919 15.4615 12.6702C15.0394 13.0041 14.6171 13.4214 14.4482 13.5884C14.2793 13.7554 12.422 15.5082 10.2272 17.595H17.4872C18.6691 17.595 19.3448 17.0946 19.6825 16.7607C20.8642 15.6755 20.8641 13.7554 19.6825 12.6702C19.0916 12.1694 18.4161 11.835 17.572 11.8349ZM6.39306 9.83165C6.43149 9.832 6.4697 9.83327 6.50772 9.83445C6.48065 9.83352 6.45369 9.83072 6.42755 9.83072C6.41596 9.83072 6.40446 9.83146 6.39306 9.83165Z" fill="#323544"/>
</svg>
