<svg width="24" height="24" viewBox="0 0 24 24" fill="none" xmlns="http://www.w3.org/2000/svg">
<path d="M7.70427 7.72848C9.35143 7.73149 10.6971 9.05784 10.6986 10.6832V14.4771C10.7002 16.885 12.6855 18.8452 15.1249 18.8484H20.4848L20.5199 18.8418L20.5668 18.8411C20.6274 18.8416 20.6878 18.8565 20.742 18.8836C20.7961 18.9106 20.8437 18.9492 20.8805 18.9972C20.9364 19.0612 20.9724 19.1403 20.9846 19.2243C20.9967 19.3084 20.9841 19.3942 20.9486 19.4713C20.9131 19.5485 20.8555 19.6134 20.7838 19.6589C20.7121 19.7043 20.629 19.7286 20.5441 19.7278L20.5287 19.7263H15.1183C13.9995 19.7259 12.9084 19.3762 11.9979 18.726C11.0855 19.3742 9.99457 19.7239 8.87533 19.7263H3.44435L3.42896 19.7249H3.41577C3.30071 19.7183 3.19299 19.6664 3.11531 19.5812C3.03766 19.4961 2.99634 19.3842 3.00026 19.269C3.00419 19.1539 3.05255 19.0445 3.13583 18.9649C3.21912 18.8853 3.33058 18.8413 3.44581 18.8425L3.46047 18.8447H8.8724C9.73368 18.845 10.577 18.5954 11.2995 18.1266C11.0333 17.8573 10.7972 17.5597 10.5945 17.2398C9.89219 17.7227 9.05932 17.9812 8.20699 17.9807H3.47293C3.35506 17.9815 3.2418 17.9352 3.15781 17.8525C3.07385 17.7698 3.02547 17.6574 3.02444 17.5396C3.02543 17.4219 3.07328 17.3092 3.15708 17.2267C3.24093 17.1441 3.3545 17.0983 3.4722 17.0991H8.21432C8.92796 17.0991 9.62326 16.8709 10.1981 16.4484C10.054 16.0946 9.94948 15.7259 9.88663 15.3491C9.60527 15.6429 9.26722 15.8766 8.89292 16.0358C8.51858 16.195 8.11544 16.2758 7.70867 16.2747H3.43409C3.31991 16.2685 3.21228 16.2184 3.13436 16.1347C3.05648 16.0511 3.01373 15.9405 3.01564 15.8262C3.01759 15.7119 3.06391 15.6024 3.14462 15.5214C3.22533 15.4404 3.33446 15.394 3.44875 15.3917L3.4634 15.3939H7.70354C8.86138 15.3924 9.80443 14.4605 9.80675 13.3192V10.6862C9.80525 9.54254 8.86291 8.61154 7.70427 8.61154H3.47366C3.41526 8.61194 3.35701 8.6013 3.30291 8.5793C3.24887 8.5573 3.20006 8.5243 3.15855 8.4833C3.11701 8.44224 3.08373 8.3935 3.06108 8.33966C3.03845 8.28584 3.02693 8.22803 3.02664 8.16965C3.02704 8.11134 3.0384 8.05335 3.06108 7.99963C3.08375 7.94602 3.11712 7.89762 3.15855 7.85673C3.20008 7.81576 3.2496 7.78342 3.30365 7.76146C3.35764 7.73956 3.4154 7.72809 3.47366 7.72848H7.70427Z" fill="#323544"/>
<path d="M8.21139 6.0166C10.5359 6.02127 12.4265 7.89262 12.4266 10.1849V13.8124C12.4255 14.2452 12.511 14.6743 12.678 15.0736C12.9335 15.6764 13.3619 16.1898 13.9084 16.5503C14.455 16.9107 15.096 17.1017 15.7507 17.0991H20.495C20.5535 17.0985 20.6116 17.1102 20.6658 17.1321C20.7199 17.154 20.7693 17.1863 20.8109 17.2274C20.8524 17.2684 20.8858 17.3172 20.9083 17.371C20.9309 17.4249 20.9427 17.4833 20.9428 17.5418C20.9415 17.6594 20.8933 17.7716 20.8094 17.854C20.7254 17.9364 20.612 17.9825 20.4943 17.9815H15.7595C13.4302 17.9815 11.5362 16.1109 11.5362 13.8146V10.1842C11.5376 8.37365 10.0452 6.89764 8.21065 6.89746H3.47513C3.35787 6.89784 3.24496 6.85301 3.16148 6.77068C3.07797 6.6883 3.03076 6.57579 3.02957 6.45849C3.03019 6.34092 3.0773 6.2284 3.16074 6.14558C3.2443 6.06273 3.35746 6.01622 3.47513 6.0166H8.21139Z" fill="#323544"/>
<path d="M8.88339 4.26954C10.0015 4.26954 11.1048 4.62521 12.003 5.27132C12.915 4.62169 14.0066 4.27158 15.1263 4.26954H20.5273C20.5856 4.26915 20.644 4.28056 20.698 4.30252C20.752 4.32448 20.8009 4.35688 20.8424 4.39779C20.8838 4.43868 20.9172 4.48706 20.9399 4.54069C20.9625 4.5944 20.9746 4.6524 20.975 4.7107C20.9738 4.82837 20.926 4.94086 20.8424 5.02362C20.7586 5.1064 20.645 5.1528 20.5273 5.1526H15.1263C14.2668 5.15448 13.4258 5.40461 12.7051 5.87297C12.9715 6.14086 13.209 6.43928 13.4093 6.75895C14.1128 6.27743 14.9451 6.01907 15.7976 6.01807H20.5273C20.645 6.01766 20.7586 6.06365 20.8424 6.14631C20.9261 6.22896 20.9738 6.34156 20.975 6.45923C20.9738 6.5769 20.926 6.68938 20.8424 6.77214C20.7586 6.85493 20.645 6.90133 20.5273 6.90112H15.7976C15.0803 6.90115 14.3761 7.13238 13.8058 7.55334C13.9513 7.90746 14.0549 8.27592 14.1187 8.65404C14.3991 8.35966 14.7371 8.12564 15.111 7.96592C15.4848 7.80624 15.8872 7.72464 16.2937 7.72555H20.5273C20.6002 7.72535 20.6724 7.74271 20.7369 7.77685C20.8013 7.81099 20.8566 7.86079 20.8974 7.92122C20.938 7.98158 20.9631 8.05108 20.9706 8.12348C20.9782 8.19594 20.968 8.26923 20.9406 8.33673C20.9063 8.41767 20.8484 8.48699 20.775 8.53533C20.7016 8.58359 20.6151 8.60908 20.5273 8.60861H16.3025C15.7489 8.60587 15.2165 8.82232 14.8222 9.21099C14.4279 9.59969 14.2038 10.1289 14.1986 10.6825V13.317C14.2016 14.4591 15.1455 15.3908 16.3025 15.3917H20.569L20.5837 15.3931C20.7009 15.4006 20.8108 15.4539 20.8886 15.5419C20.9663 15.6299 21.0062 15.7456 20.9992 15.8629C20.9907 15.9747 20.9394 16.0791 20.857 16.1553C20.7747 16.2313 20.6665 16.2736 20.5544 16.2732H16.3018C14.6532 16.2701 13.3097 14.9453 13.3082 13.3185V9.52391C13.3037 7.11737 11.3193 5.15855 8.88119 5.15553L8.88192 5.1548H3.47513C3.35744 5.15439 3.24469 5.10757 3.16148 5.02435C3.0783 4.94113 3.03143 4.82837 3.03103 4.7107C3.03185 4.59318 3.07942 4.48047 3.16294 4.39779C3.24645 4.31529 3.3592 4.26916 3.47659 4.26954H8.88339Z" fill="#323544"/>
</svg>
