<svg width="24" height="24" viewBox="0 0 24 24" fill="none" xmlns="http://www.w3.org/2000/svg">
<path d="M14.3596 3C12.8904 3 11.4483 3.51563 10.3087 4.44918C9.20213 5.35566 8.41338 6.61766 8.08375 8.02446C5.17832 8.74964 3.16406 11.3631 3.16406 14.4216V21H9.63417C12.5667 21 15.1048 19.0234 15.8665 16.1733L20.8356 16.1568V9.55605C20.8074 5.9431 17.9078 3 14.3596 3ZM14.3761 16.1509H14.5327C13.7934 18.27 11.8592 19.6768 9.62946 19.6768H4.43901V14.3992C4.43901 12.1589 5.85406 10.1541 7.91187 9.41831C7.91187 9.47835 7.91187 9.53368 7.91187 9.59372C7.92718 13.2137 10.8279 16.1509 14.3761 16.1509ZM9.63417 7.82668H9.61769C9.55883 7.82668 9.50468 7.82668 9.44464 7.82668C10.1686 5.73473 12.1452 4.29614 14.3431 4.29614C17.2003 4.29614 19.5336 6.65768 19.5489 9.55723V14.856H16.076C16.0866 14.6971 16.0972 14.5369 16.0972 14.3898C16.0984 10.7698 13.1989 7.82668 9.63417 7.82668ZM9.19153 9.1499C9.34222 9.13931 9.4882 9.12753 9.63417 9.12753H9.65065C12.4972 9.12753 14.8246 11.4891 14.8411 14.3886C14.8411 14.5428 14.8305 14.7018 14.8199 14.8548H14.3773C11.5201 14.8548 9.18682 12.4933 9.17152 9.59372C9.16916 9.44657 9.17976 9.29823 9.19153 9.1499Z" fill="#323544"/>
</svg>
