<svg width="24" height="24" viewBox="0 0 24 24" fill="none" xmlns="http://www.w3.org/2000/svg">
<path d="M11.3967 1C14.4162 1 17.0328 2.08495 19.1723 4.22445C21.3118 6.36395 22.3958 8.9805 22.3958 12C22.3958 15.0204 21.3118 17.6425 19.1714 19.7764C17.031 21.9104 14.4208 23 11.3967 23L11.3958 22.0332C14.155 22.0332 16.5414 21.0441 18.4884 19.0925C20.4344 17.14 21.4299 14.7592 21.4299 12C21.4299 9.24175 20.4399 6.85995 18.4884 4.90837C16.5377 2.95587 14.1504 1.9659 11.3967 1.9659V1Z" fill="#323544"/>
<path d="M10.5687 7.93229L10.5678 9.9554H8.94572V16.0677H6.37207V9.9554H4.75V7.93229H10.5687Z" fill="#323544"/>
<path d="M13.9731 7.93229V16.0677H11.4003V7.93229H13.9731Z" fill="#323544"/>
<path d="M18.2091 7.93229V16.0677H15.6363V7.93229H18.2091Z" fill="#323544"/>
</svg>
