<svg width="24" height="24" viewBox="0 0 24 24" fill="none" xmlns="http://www.w3.org/2000/svg">
<path opacity="0.5" fill-rule="evenodd" clip-rule="evenodd" d="M16.8465 11.307C17.9481 11.307 19.0045 10.8694 19.7835 10.0905C20.5624 9.31154 21 8.25508 21 7.1535C21 6.05192 20.5624 4.99546 19.7835 4.21653C19.0045 3.4376 17.9481 3 16.8465 3C15.7449 3 14.6885 3.4376 13.9095 4.21653C13.1306 4.99546 12.693 6.05192 12.693 7.1535C12.693 8.25508 13.1306 9.31154 13.9095 10.0905C14.6885 10.8694 15.7449 11.307 16.8465 11.307ZM16.8465 21C17.9481 21 19.0045 20.5624 19.7835 19.7835C20.5624 19.0045 21 17.9481 21 16.8465C21 15.7449 20.5624 14.6885 19.7835 13.9095C19.0045 13.1306 17.9481 12.693 16.8465 12.693C15.7449 12.693 14.6885 13.1306 13.9095 13.9095C13.1306 14.6885 12.693 15.7449 12.693 16.8465C12.693 17.9481 13.1306 19.0045 13.9095 19.7835C14.6885 20.5624 15.7449 21 16.8465 21ZM7.1535 21C8.25508 21 9.31154 20.5624 10.0905 19.7835C10.8694 19.0045 11.307 17.9481 11.307 16.8465C11.307 15.7449 10.8694 14.6885 10.0905 13.9095C9.31154 13.1306 8.25508 12.693 7.1535 12.693C6.05192 12.693 4.99546 13.1306 4.21653 13.9095C3.4376 14.6885 3 15.7449 3 16.8465C3 17.9481 3.4376 19.0045 4.21653 19.7835C4.99546 20.5624 6.05192 21 7.1535 21Z" fill="#323544"/>
<path d="M7.15332 3C9.44718 3 11.3065 4.85949 11.3066 7.15332C11.3066 9.44724 9.44724 11.3066 7.15332 11.3066C4.85949 11.3065 3 9.44718 3 7.15332C3.0001 4.85955 4.85955 3.0001 7.15332 3Z" fill="#323544"/>
</svg>
