<svg width="24" height="24" viewBox="0 0 24 24" fill="none" xmlns="http://www.w3.org/2000/svg">
<path d="M3.42744 3.65399C3.47142 3.62016 3.50661 3.62699 3.53486 3.67352C5.95573 7.79857 8.43641 12.0307 10.9764 16.3699C11.4515 17.1797 12.5892 17.133 13.0509 16.3463L17.8329 8.18453C17.8422 8.16719 17.8566 8.15289 17.8736 8.14303C17.8906 8.13319 17.9101 8.12779 17.9297 8.12838H21.4552C21.4693 8.12849 21.4797 8.14034 21.478 8.1536C21.478 8.15775 21.4772 8.16168 21.4756 8.16418C19.3047 11.8576 17.1155 15.586 14.9088 19.3477C13.8396 21.1736 11.344 21.4455 9.75978 20.1371C9.50311 19.9255 9.20532 19.5313 8.86865 18.9563C6.76446 15.3529 4.62041 11.6976 2.43539 7.98759C1.54964 6.48508 2.08244 4.69815 3.42744 3.65399Z" fill="#323544"/>
<path d="M18.663 3.0485C20.4037 3.0485 21.7454 4.33177 21.9988 6.04662C22.0055 6.09816 21.9835 6.12381 21.9329 6.12393H16.3737C16.3446 6.12421 16.316 6.13144 16.2907 6.14591C16.2653 6.16051 16.2438 6.18173 16.2288 6.20694C15.0505 8.21524 13.8789 10.2094 12.714 12.1885C12.4806 12.5819 11.9472 12.705 11.5697 12.4734C11.4115 12.3767 11.2722 12.2203 11.1514 12.0062C10.9159 11.5871 10.6709 11.1731 10.4165 10.7652C10.2316 10.4685 10.2214 10.1761 10.3872 9.88867C10.7455 9.26786 11.1049 8.64769 11.4656 8.02828L12.5504 6.17358C12.555 6.16606 12.5565 6.15694 12.5544 6.14835C12.5524 6.13986 12.5472 6.13262 12.5398 6.128C12.5348 6.12517 12.5292 6.12383 12.5235 6.12393H7.41272C7.38521 6.1242 7.35781 6.11699 7.33378 6.10359C7.30975 6.09014 7.28938 6.07021 7.27518 6.04662L5.53686 3.09001C5.53507 3.08676 5.53403 3.08312 5.53361 3.07943C5.53318 3.07564 5.53333 3.07169 5.53442 3.06803C5.53551 3.06439 5.53769 3.0612 5.54012 3.05827C5.54255 3.05533 5.54568 3.05269 5.54907 3.05094C5.55307 3.04867 5.5575 3.04725 5.56209 3.04688C10.1388 3.04688 14.5063 3.04684 18.663 3.0485Z" fill="#323544"/>
</svg>
