<svg width="24" height="24" viewBox="0 0 24 24" fill="none" xmlns="http://www.w3.org/2000/svg">
<path d="M19.5822 5.84929L13.586 2.42162C13.1031 2.14534 12.5565 2 12.0001 2C11.4438 2 10.8971 2.14534 10.4142 2.42162L4.41808 5.84929C3.93725 6.12259 3.53732 6.51829 3.25892 6.99619C2.98052 7.4741 2.83358 8.01717 2.83301 8.57025V15.4289C2.83301 16.5515 3.4372 17.589 4.41808 18.149L10.4142 21.5784C10.8971 21.8547 11.4438 22 12.0001 22C12.5565 22 13.1031 21.8547 13.586 21.5784L19.5822 18.149C20.063 17.876 20.463 17.4805 20.7414 17.0027C21.0199 16.5249 21.1668 15.9819 21.1672 15.4289V8.57025C21.1663 8.01736 21.0191 7.47456 20.7408 6.99686C20.4624 6.51916 20.0627 6.12272 19.5822 5.84929ZM20.0863 15.3314L13.136 19.3066C13.121 19.3149 13.106 19.3191 13.0902 19.3258C13.086 19.3274 13.0835 19.3316 13.0777 19.3366C12.3876 19.7275 11.6609 19.7683 10.9884 19.3749C10.9842 19.3733 10.9776 19.3666 10.9734 19.3641C10.9601 19.3574 10.9467 19.3533 10.9359 19.3474L3.90889 15.3297C3.82487 15.2822 3.75114 15.2184 3.69199 15.1422C3.63283 15.0659 3.58943 14.9786 3.56431 14.8854C3.53918 14.7922 3.53284 14.6949 3.54564 14.5992C3.55844 14.5035 3.59014 14.4114 3.63888 14.328L3.65555 14.3005C3.75473 14.1317 3.91653 14.0088 4.10581 13.9585C4.2951 13.9083 4.49656 13.9347 4.66643 14.0322L7.91659 15.8914V13.143L4.41142 11.1387C4.32566 11.0902 4.25036 11.0251 4.18988 10.9473C4.12941 10.8695 4.08494 10.7805 4.05906 10.6855C4.03318 10.5904 4.02639 10.4911 4.0391 10.3934C4.0518 10.2957 4.08374 10.2015 4.13307 10.1162C4.23452 9.94361 4.39987 9.81798 4.5933 9.7665C4.78673 9.71502 4.99266 9.74184 5.16645 9.84115L9.06331 12.0704C9.17096 12.1136 9.26321 12.188 9.32813 12.2841C9.39305 12.3803 9.42766 12.4936 9.42749 12.6096V16.7565L11.2851 17.8182V10.637L7.70991 8.59192C7.62414 8.5434 7.54884 8.47835 7.48838 8.40053C7.42792 8.32272 7.3835 8.23368 7.35769 8.13858C7.33188 8.04347 7.3252 7.94419 7.33802 7.84649C7.35084 7.74878 7.38292 7.65459 7.4324 7.56937C7.53368 7.39687 7.69889 7.27126 7.89219 7.21978C8.08548 7.1683 8.29128 7.19509 8.46495 7.29436L11.2851 8.90777V5.96262C11.2851 5.54927 11.6234 5.21425 12.0401 5.21425C12.4568 5.21425 12.796 5.54927 12.796 5.96262V8.86276L15.5378 7.29436C15.7113 7.19491 15.917 7.16802 16.1102 7.21952C16.3035 7.27103 16.4685 7.39676 16.5695 7.56937C16.6192 7.65448 16.6516 7.74864 16.6646 7.84636C16.6776 7.94408 16.671 8.04341 16.6452 8.13857C16.6195 8.23373 16.5751 8.32281 16.5146 8.40065C16.4541 8.47848 16.3787 8.54349 16.2928 8.59192L12.796 10.592V17.7707L14.5961 16.7415V12.6096C14.5961 12.3646 14.7469 12.1579 14.9611 12.0713L18.8571 9.84115C19.0308 9.74118 19.2369 9.71399 19.4305 9.76552C19.6242 9.81705 19.7895 9.9431 19.8905 10.1162C19.9401 10.2014 19.9723 10.2955 19.9851 10.3933C19.998 10.491 19.9914 10.5903 19.9655 10.6855C19.9397 10.7806 19.8953 10.8696 19.8347 10.9475C19.7742 11.0253 19.6988 11.0903 19.613 11.1387L16.107 13.143V15.8748L19.3271 14.0322C19.4973 13.9349 19.699 13.9085 19.8884 13.9587C20.0779 14.0089 20.24 14.1317 20.3397 14.3005L20.3547 14.3255C20.5605 14.6764 20.438 15.1256 20.0847 15.3297L20.0863 15.3314Z" fill="#323544"/>
</svg>
