<svg width="24" height="24" viewBox="0 0 24 24" fill="none" xmlns="http://www.w3.org/2000/svg">
<path d="M14.9531 3.01565C15.1191 2.99922 15.2975 3.01722 15.465 3.01878L16.4119 3.01957C17.7267 3.02035 19.0517 3.05322 20.3657 3L20.3649 9.9887V12.0642C20.3649 12.6464 20.3751 13.2271 20.314 13.807C20.2461 14.4642 20.0922 15.1097 19.8562 15.7268C19.362 17.035 18.4852 18.164 17.3401 18.9668C17.1139 19.1241 16.869 19.297 16.6162 19.4082C15.9811 19.7549 15.3011 20.0119 14.5955 20.172C14.313 20.237 14.0258 20.2745 13.744 20.341C13.4458 20.0977 13.1766 19.7979 12.9051 19.5248L11.4236 18.0433C10.8585 17.483 10.2849 16.9343 9.72454 16.3685C9.48741 16.1306 9.22445 15.8958 9.01471 15.6344C9.09767 16.1776 9.05149 17.004 9.05149 17.58C9.05697 18.7203 9.05384 19.8597 9.04132 21C9.02903 20.9913 9.01703 20.9821 9.00532 20.9726C8.82062 20.8278 8.65549 20.6377 8.4888 20.4702C8.16793 20.1454 7.84471 19.823 7.51915 19.5021L5.17836 17.1707C4.75576 16.7481 4.31906 16.3333 3.90741 15.9005C3.85263 15.8426 3.73915 15.7362 3.72897 15.6571C3.76238 15.6511 3.79662 15.6514 3.82993 15.6579L3.82602 15.6485C4.5061 15.6094 5.20341 15.6383 5.88428 15.6383C6.92671 15.6383 7.96993 15.6243 9.01158 15.6391C7.21319 13.8778 5.42905 12.102 3.65932 10.3119C3.62254 10.0325 3.64367 9.73278 3.64367 9.45026L3.64445 7.95157L3.63428 3.1393C3.63428 3.108 3.6421 3.08061 3.65619 3.05165C3.70236 3.02035 3.73758 3.02191 3.79315 3.01878C4.2001 2.9953 4.62271 3.01878 5.03123 3.01957C6.21454 3.01957 7.40723 3.05243 8.58897 3.01487C8.74315 3.00391 8.89967 3.00626 9.05384 3.00313L9.05149 11.2839C9.05854 12.7388 9.05384 14.1929 9.03741 15.647C9.3708 15.6125 9.73393 15.6391 10.0705 15.6391H12.2398C12.9943 15.6337 13.6931 15.4904 14.2418 14.9317C14.6628 14.5028 14.8397 13.9487 14.9305 13.3664C14.9931 12.9673 14.9633 12.5212 14.9625 12.1166L14.961 10.0466C14.9602 7.70348 14.9813 5.35878 14.9531 3.01565Z" fill="#323544"/>
</svg>
