<svg width="24" height="24" viewBox="0 0 24 24" fill="none" xmlns="http://www.w3.org/2000/svg">
<path d="M10.3638 16.3777C10.4275 16.3777 10.4843 16.391 10.53 16.4158C10.5764 16.4413 10.6122 16.4756 10.6377 16.5205C10.6647 16.5655 10.6787 16.618 10.6787 16.678C10.6796 16.7305 10.666 16.7826 10.6399 16.8281C10.6138 16.8735 10.5757 16.9109 10.53 16.9365C10.4791 16.9625 10.4224 16.9753 10.3652 16.9739L10.3638 16.9746H9.98291V16.3777H10.3638Z" fill="#323544"/>
<path d="M17.2046 16.3623C17.3463 16.3623 17.4688 16.3742 17.5715 16.4297C17.6743 16.4867 17.7541 16.5496 17.8103 16.6523C17.8711 16.759 17.9016 16.8804 17.8982 17.0032C17.901 17.1257 17.8705 17.2473 17.8103 17.354C17.7547 17.451 17.6714 17.5294 17.5715 17.5796C17.4688 17.6358 17.3463 17.6638 17.2039 17.6638H16.9373V16.3623H17.2046Z" fill="#323544"/>
<path d="M6.84082 11.5276C6.89823 11.526 6.9552 11.5388 7.00635 11.5649C7.0517 11.5888 7.08887 11.6257 7.11401 11.6704C7.14101 11.7154 7.15503 11.7679 7.15503 11.8279C7.15611 11.8804 7.14302 11.9324 7.11694 11.978C7.09078 12.0237 7.05232 12.0614 7.00635 12.0872C6.9599 12.1119 6.90448 12.1245 6.84082 12.1245H6.45923V11.5276H6.84082Z" fill="#323544"/>
<path d="M21 21H3V3H21V21ZM5.89966 15.9214V17.2961C5.89757 17.4462 5.93665 17.594 6.01318 17.7231C6.09078 17.8474 6.2 17.9493 6.32959 18.0176C6.47073 18.091 6.6283 18.1275 6.78735 18.1245C6.94642 18.1275 7.10397 18.091 7.24512 18.0176C7.37682 17.9491 7.48697 17.8448 7.56299 17.7173C7.63889 17.5898 7.67741 17.4437 7.67505 17.2954V15.9214H7.22461V17.2668C7.22542 17.348 7.20516 17.4279 7.16602 17.499C7.12868 17.5664 7.07381 17.6224 7.00708 17.6609C6.94035 17.6993 6.86436 17.7188 6.78735 17.7173C6.72845 17.7184 6.66969 17.7076 6.61523 17.6851C6.56093 17.6626 6.51182 17.6291 6.47095 17.5869C6.43001 17.5446 6.39784 17.4941 6.3772 17.439C6.35658 17.3838 6.34776 17.3249 6.35083 17.2661V15.9214H5.89966ZM9.53174 18.0894H9.98291V17.3994H10.3008L10.678 18.0894H11.1848L10.7542 17.3218C10.8658 17.272 10.9609 17.1909 11.0281 17.0889C11.0955 16.9839 11.1299 16.8257 11.1299 16.678C11.1344 16.5442 11.1001 16.4118 11.031 16.2971C10.965 16.1936 10.8733 16.0838 10.7571 16.0312C10.6323 15.9768 10.4969 15.9502 10.3608 15.9529H9.53174V18.0894ZM13.4451 15.9207V18.0894H14.7905V17.6477H13.897V17.2148H14.603V16.7893H13.897V16.3623H14.7905V15.9207H13.4451ZM16.4854 18.0894H17.1929C17.4284 18.0894 17.6319 18.0432 17.8052 17.9495C17.9776 17.8565 18.1106 17.7277 18.2058 17.5649C18.301 17.3999 18.3486 17.2124 18.3486 17.0024C18.3486 16.7933 18.301 16.607 18.2058 16.4443C18.1108 16.2812 17.9721 16.1479 17.8052 16.0598C17.6161 15.9628 17.4053 15.9152 17.1929 15.9207H16.4854V18.0894ZM14.1848 11.05C14.0273 11.05 13.8825 11.078 13.7483 11.1343C13.6163 11.189 13.5008 11.266 13.4019 11.3672C13.3029 11.4662 13.2259 11.5845 13.1719 11.7217C13.1171 11.8582 13.0898 12.0072 13.0898 12.1677C13.0864 12.3152 13.112 12.4619 13.166 12.5991C13.2201 12.7366 13.3016 12.8619 13.4048 12.9675C13.5038 13.0688 13.6192 13.1479 13.7512 13.2041C13.8847 13.2596 14.0296 13.2883 14.1848 13.2883C14.3422 13.2883 14.4823 13.2624 14.6067 13.21C14.7276 13.1618 14.8378 13.0898 14.9304 12.9983C15.023 12.9068 15.0968 12.7978 15.1465 12.6775L14.7473 12.4849C14.7097 12.5852 14.6416 12.6714 14.5525 12.731C14.4446 12.8061 14.3163 12.8465 14.1848 12.8481C14.0573 12.8481 13.9447 12.8349 13.8472 12.7742C13.7497 12.7137 13.6711 12.6271 13.6201 12.5244C13.5657 12.4136 13.5386 12.2912 13.5417 12.1677C13.5417 12.026 13.5676 11.919 13.6201 11.814C13.671 11.711 13.7496 11.6241 13.8472 11.5635C13.9446 11.5035 14.0574 11.4734 14.1848 11.4734C14.3166 11.4734 14.4281 11.4925 14.5195 11.562C14.6125 11.6295 14.6937 11.7324 14.7305 11.8374L15.1296 11.6455C15.085 11.5297 15.0162 11.4246 14.9275 11.3379C14.8357 11.2474 14.7263 11.1758 14.6067 11.1277C14.4727 11.0737 14.3292 11.0475 14.1848 11.05ZM10.8787 12.4131C10.8795 12.4943 10.8592 12.5748 10.8201 12.646C10.7827 12.7133 10.7278 12.7694 10.6611 12.8079C10.5944 12.8463 10.5184 12.8656 10.4414 12.8643C10.3825 12.8653 10.3237 12.8538 10.2693 12.8313C10.215 12.8088 10.1658 12.7754 10.125 12.7332C10.0841 12.6908 10.0527 12.6403 10.032 12.5852C10.0113 12.5301 10.0019 12.4711 10.0049 12.4124V11.0698H9.55518V12.4438C9.55518 12.6028 9.59227 12.7456 9.66797 12.8716C9.74596 12.9961 9.85164 13.0948 9.98511 13.1667L9.98438 13.1638C10.1186 13.2358 10.2711 13.2722 10.4421 13.2722C10.6124 13.2722 10.7649 13.2365 10.8992 13.1653C11.0304 13.0962 11.1396 12.9917 11.2156 12.8643C11.2915 12.7368 11.3307 12.5907 11.3291 12.4424V11.0684H10.8787V12.4131ZM16.5688 11.5122H17.1841V13.2715H17.6345V11.5122H18.2571V11.0867H16.5688V11.5122ZM6.00806 11.1028V13.2393H6.45923V12.55H6.77783L7.1543 13.2393H7.66113L7.23047 12.4709C7.34202 12.4212 7.43722 12.3408 7.50439 12.2388C7.57186 12.1338 7.60617 11.9756 7.6062 11.8279C7.61076 11.6941 7.5764 11.5617 7.50732 11.447C7.44132 11.3435 7.34965 11.2337 7.2334 11.1812C7.11876 11.1287 6.9877 11.1028 6.83789 11.1028H6.00806ZM16.519 6.24976V6.67529H17.1343V8.43384L17.5862 8.43457V6.67529H18.2087V6.24976H16.519ZM14.0662 6.18164C13.9184 6.18164 13.7869 6.20965 13.6721 6.2644C13.5649 6.31419 13.4735 6.39246 13.4077 6.49072C13.3445 6.59177 13.3122 6.70921 13.3147 6.82837C13.3147 6.97378 13.3581 7.09917 13.4458 7.20337C13.5328 7.30683 13.6637 7.38589 13.8362 7.44287L14.2603 7.58203C14.3163 7.59702 14.3672 7.62756 14.4067 7.66992C14.4376 7.70502 14.454 7.75061 14.4529 7.79736C14.454 7.84128 14.441 7.88462 14.4155 7.92041C14.3879 7.95485 14.3518 7.98152 14.3108 7.99805C14.26 8.01895 14.2053 8.02919 14.1504 8.02808C14.0355 8.02838 13.9229 7.99263 13.8296 7.92554C13.7447 7.86419 13.6757 7.78338 13.6274 7.69043L13.2751 7.90869C13.3681 8.10799 13.5328 8.26481 13.7366 8.34741C13.8566 8.39616 13.9853 8.42065 14.1211 8.42065C14.2748 8.42063 14.4085 8.39333 14.5232 8.33936C14.6331 8.28844 14.7274 8.20897 14.7964 8.10938C14.8626 8.00944 14.897 7.89162 14.8953 7.77173C14.8989 7.63646 14.8523 7.50455 14.7642 7.40186C14.6787 7.30072 14.5491 7.22223 14.3745 7.16602L13.9578 7.03198C13.9015 7.01632 13.8506 6.98584 13.8098 6.94409C13.7776 6.90714 13.7597 6.8598 13.76 6.81079C13.759 6.7671 13.772 6.72407 13.7974 6.68848C13.8242 6.65016 13.8622 6.62118 13.9058 6.60425C13.9565 6.58401 14.0108 6.57402 14.0654 6.57495C14.1562 6.5755 14.2453 6.60059 14.3225 6.64819C14.3996 6.69578 14.4622 6.76377 14.5034 6.84448L14.8381 6.60571C14.7452 6.44379 14.5994 6.31776 14.4258 6.24902C14.3114 6.20361 14.1893 6.18072 14.0662 6.18164ZM5.97949 7.57544C5.97953 7.73503 6.01734 7.87729 6.09375 8.00244C6.171 8.12769 6.27664 8.22561 6.41089 8.29761C6.54437 8.36957 6.69694 8.40454 6.86865 8.40454C7.0387 8.4045 7.19084 8.36876 7.32422 8.29688C7.45549 8.22792 7.56527 8.12385 7.64136 7.99658C7.7174 7.86923 7.75712 7.72303 7.75562 7.57471V6.20068H7.30444V7.54614C7.30551 7.62718 7.28545 7.7072 7.24658 7.77832C7.20929 7.84561 7.15427 7.90174 7.08765 7.94019C7.021 7.97859 6.94482 7.998 6.86792 7.99658C6.79081 7.99749 6.71443 7.97769 6.64746 7.93945C6.58057 7.90122 6.52471 7.84586 6.48633 7.77905C6.44895 7.7072 6.43039 7.62713 6.4314 7.54614V6.20068H5.97949V7.57544ZM9.58008 8.37012H10.0312V7.05176L11.0061 8.36938H11.3555V6.20068H10.905V7.48975L9.92651 6.20068H9.58008V8.37012Z" fill="#323544"/>
</svg>
