<svg width="24" height="24" viewBox="0 0 24 24" fill="none" xmlns="http://www.w3.org/2000/svg">
<path d="M18.5302 2L18.2194 3.08083H20.381L20.6894 2H18.5302ZM15.5544 3.89167L15.241 4.97333H19.841L20.1494 3.89167H15.5544ZM12.8085 5.78333L12.4952 6.865H19.3002L19.6085 5.78333H12.8085ZM4.43603 7.675L4.12187 8.75667H18.7594L19.0677 7.67583H4.43437L4.43603 7.675ZM5.2977 9.5675L4.98437 10.6483H18.2194L18.5277 9.5675H5.29603H5.2977ZM5.4677 22L5.78104 20.9192H3.61604L3.31104 22H5.4677ZM8.44603 20.1083L8.75937 19.0275H4.15687L3.8527 20.1083H8.44603ZM11.1919 18.2158L11.5052 17.135H4.69687L4.39187 18.2158H11.1919ZM19.5652 16.3242L19.8785 15.2433H5.2377L4.9327 16.3242H19.5652ZM18.7002 14.4325L19.0135 13.3517H5.77853L5.47353 14.4325H18.7002ZM17.716 12.5408L18.0294 11.46H5.61104L5.30604 12.5408H17.716Z" fill="#323544"/>
</svg>
