<svg width="24" height="24" viewBox="0 0 24 24" fill="none" xmlns="http://www.w3.org/2000/svg">
<path d="M15.7189 2.5H15.8591C16.3626 2.5 16.8376 2.60767 17.2682 2.81825C17.5588 2.9837 17.805 3.18795 18.0124 3.43258C18.3528 3.85928 18.5998 4.36515 18.7391 4.95098C18.8682 5.46239 18.9291 6.0316 18.9347 6.62851C18.9402 7.02671 18.9347 7.41859 18.9188 7.80017C18.9188 7.81125 18.9402 7.80017 18.9909 7.77721C19.2814 7.62917 19.5609 7.4645 19.83 7.28242C20.0873 7.16842 20.3335 7.16842 20.5402 7.27134C20.6518 7.31646 20.708 7.44154 20.708 7.66954C20.708 7.95375 20.6573 8.20391 20.5623 8.43745C20.4277 8.77787 20.21 9.09057 19.9029 9.3637C19.6095 9.62096 19.2721 9.82317 18.907 9.96061C18.8626 9.97802 18.8341 10.0065 18.8341 10.0398L18.6995 11.4394C18.5958 12.4548 18.4223 13.4618 18.1802 14.4533C17.9223 15.3485 17.5967 16.2229 17.2065 17.0689C16.8591 17.8397 16.3908 18.55 15.8195 19.1732C15.3558 19.6739 14.8207 20.1034 14.2314 20.4477C13.5254 20.8572 12.7558 21.1454 11.9546 21.3003C11.1495 21.4706 10.3159 21.5276 9.46562 21.488C8.63856 21.4587 7.8285 21.245 7.0946 20.8626C6.71105 20.6447 6.36536 20.3661 6.07098 20.0377C5.63128 19.4842 5.34391 18.8254 5.23736 18.1266C5.1826 17.8262 5.15084 17.5221 5.14236 17.217C5.11431 16.9124 5.133 16.6054 5.19778 16.3066C5.35532 15.4769 5.55086 14.6298 5.78044 13.7598L6.63544 10.2907C6.75758 9.78184 6.86582 9.26971 6.96002 8.75491C7.10568 8.01629 7.15001 7.31092 7.08906 6.65147C7.07424 6.2584 6.95243 5.87684 6.73677 5.54789C6.57448 5.36581 6.38448 5.26369 6.16677 5.26369C5.91488 5.2474 5.66579 5.32432 5.46694 5.47981L4.41562 6.24772C4.23062 6.38846 4.00921 6.47334 3.77754 6.49234C3.61604 6.50343 3.49809 6.46859 3.41971 6.38943C3.34688 6.3158 3.30809 6.19626 3.297 6.0316C3.25742 5.36027 3.43159 4.7689 3.81712 4.25749C4.05479 3.95858 4.3402 3.70099 4.66183 3.49512C5.12052 3.17619 5.63424 2.94483 6.17706 2.81271C6.64177 2.69871 7.14526 2.66467 7.68755 2.68762C8.22984 2.72721 8.71117 2.89266 9.14183 3.18795C9.44345 3.41516 9.70074 3.70016 9.89628 4.02949C10.3832 4.80294 10.6009 5.67297 10.5565 6.62851C10.5387 7.54558 10.4165 8.45764 10.1924 9.34707L9.34291 13.0433C9.18941 13.7249 9.05872 14.4114 8.95104 15.1016C8.87461 15.7299 8.85976 16.3641 8.90671 16.9953C8.95104 17.3935 9.13629 17.7173 9.45454 17.973C9.63345 18.11 9.84641 18.201 10.0815 18.258C10.2937 18.3031 10.5288 18.3316 10.7972 18.3372C11.6158 18.3318 12.412 18.0692 13.0732 17.5867C13.4089 17.3476 13.7224 17.0753 14.0129 16.7681C14.4554 16.2814 14.8315 15.7384 15.1315 15.1531C15.6133 14.1862 15.9706 13.162 16.1947 12.1052C16.3256 11.5155 16.4376 10.9217 16.5304 10.3248C15.7368 10.2908 14.9616 10.075 14.2647 9.69382C13.9641 9.50949 13.6911 9.28346 13.454 9.02249C13.1805 8.72329 12.9575 8.38158 12.7938 8.01075C12.5434 7.42203 12.4106 6.79004 12.4027 6.15035C12.3725 5.66657 12.4291 5.1813 12.5697 4.71744C12.7668 4.1434 13.1146 3.6329 13.5767 3.23941C13.9179 2.95441 14.3153 2.7565 14.7626 2.63617C15.0706 2.557 15.3888 2.51108 15.7134 2.50554L15.7189 2.5ZM16.0214 4.68973C15.9548 4.68598 15.8885 4.70107 15.8301 4.73328C15.7717 4.76548 15.7236 4.8135 15.6912 4.87181C15.6627 4.91694 15.6461 4.96206 15.6239 5.01352L15.5788 5.16156L15.5567 5.31989V5.49089C15.5561 5.60484 15.5616 5.71875 15.5733 5.8321C15.5852 5.93501 15.6018 6.04822 15.6295 6.1448L15.6627 6.3158C15.6802 6.3728 15.6912 6.4298 15.7189 6.48601C15.73 6.54301 15.753 6.59447 15.7744 6.64593L15.8417 6.79872L15.9256 6.94676C15.9541 6.99821 15.9873 7.0378 16.0206 7.08371L16.133 7.21434L16.2557 7.33942C16.3349 7.41859 16.4235 7.48746 16.5019 7.55C16.5811 7.61254 16.6697 7.66321 16.7592 7.71467C16.7826 7.23733 16.7977 6.75962 16.8043 6.28176V5.99676C16.8043 5.90651 16.7877 5.81468 16.7758 5.72997L16.7362 5.47427L16.6808 5.22885C16.6695 5.18111 16.6508 5.13543 16.6254 5.09348L16.5359 4.9399C16.4642 4.82685 16.3553 4.74232 16.228 4.70082L16.0934 4.67786H16.0269L16.0214 4.68973Z" fill="#323544"/>
</svg>
