<svg width="24" height="24" viewBox="0 0 24 24" fill="none" xmlns="http://www.w3.org/2000/svg">
<path d="M3.92051 13.7847C4.11835 13.753 4.32156 13.7953 4.49017 13.9035L11.3871 18.9686C11.5786 18.8882 11.7859 18.8457 11.9975 18.8457C12.2086 18.8457 12.4152 18.8886 12.6062 18.9686L19.5056 13.9027C19.675 13.7969 19.8774 13.7563 20.0745 13.7879C20.2718 13.8196 20.4508 13.9212 20.5782 14.0744C20.692 14.2414 20.7402 14.4447 20.7125 14.6449C20.6848 14.845 20.5833 15.0277 20.4285 15.1576L13.5616 20.2259C13.5572 20.1907 13.5513 20.1557 13.5445 20.1209C13.5638 20.2197 13.5746 20.3207 13.5746 20.4229C13.5746 20.8411 13.4082 21.242 13.1124 21.5378C12.8167 21.8335 12.4157 22 11.9975 22C11.5793 22 11.1783 21.8335 10.8826 21.5378C10.5868 21.242 10.4204 20.8411 10.4204 20.4229C10.4204 20.3296 10.4303 20.2375 10.4464 20.147C10.4431 20.1654 10.4393 20.1837 10.4366 20.2023L3.5893 15.147C3.42969 15.0236 3.32252 14.8441 3.29063 14.6449C3.25884 14.4458 3.30457 14.2422 3.41758 14.0752C3.5439 13.9199 3.72286 13.8164 3.92051 13.7847ZM11.8535 19.6522C11.703 19.6807 11.5646 19.7539 11.4555 19.8613C11.3464 19.9689 11.2714 20.1067 11.2407 20.2568C11.21 20.4069 11.2249 20.5627 11.283 20.7044C11.3411 20.8461 11.4399 20.9674 11.567 21.0527C11.6942 21.1381 11.8443 21.1837 11.9975 21.1838C12.0983 21.1852 12.1985 21.1668 12.2921 21.1292C12.3857 21.0916 12.4709 21.0356 12.5427 20.9648C12.6146 20.894 12.6723 20.8097 12.7112 20.7166C12.7502 20.6235 12.7698 20.523 12.7698 20.422C12.7719 20.2689 12.7288 20.1183 12.6453 19.9899C12.5618 19.8616 12.4418 19.7611 12.301 19.701C12.1601 19.6409 12.004 19.6236 11.8535 19.6522ZM13.2784 19.5057C13.2698 19.4937 13.2613 19.4817 13.2524 19.4699C13.2496 19.4663 13.2462 19.4629 13.2434 19.4593C13.2553 19.4747 13.2671 19.4899 13.2784 19.5057Z" fill="#323544"/>
<path d="M11.9975 16.0055C12.2136 16.0055 12.4208 16.092 12.5737 16.2448C12.7265 16.3976 12.8129 16.6048 12.8129 16.821C12.8129 17.0371 12.7265 17.2443 12.5737 17.3971C12.4208 17.5499 12.2136 17.6356 11.9975 17.6356C11.7814 17.6356 11.5741 17.55 11.4213 17.3971C11.2685 17.2443 11.1829 17.0371 11.1829 16.821C11.1829 16.6048 11.2685 16.3976 11.4213 16.2448C11.5741 16.092 11.7814 16.0056 11.9975 16.0055Z" fill="#323544"/>
<path d="M12.0032 11.6908C12.203 11.6908 12.396 11.7638 12.5452 11.8966C12.6945 12.0296 12.7899 12.2132 12.8129 12.4118V14.439C12.8146 14.5469 12.7945 14.6545 12.7543 14.7547C12.7141 14.8549 12.6544 14.9464 12.5786 15.0233C12.5027 15.1001 12.412 15.1608 12.3124 15.2023C12.2127 15.2439 12.1055 15.2652 11.9975 15.265C11.7851 15.2621 11.5821 15.1767 11.4319 15.0265C11.2817 14.8763 11.1963 14.6733 11.1935 14.4609V12.4118C11.2165 12.2132 11.3119 12.0296 11.4612 11.8966C11.6104 11.7639 11.8034 11.6908 12.0032 11.6908Z" fill="#323544"/>
<path d="M8.76915 13.582C8.98526 13.582 9.19248 13.6677 9.34532 13.8205C9.49815 13.9733 9.58456 14.1805 9.58458 14.3966C9.58458 14.6128 9.49816 14.82 9.34532 14.9728C9.19248 15.1256 8.98529 15.2121 8.76915 15.2121C8.55303 15.2121 8.34579 15.1256 8.19297 14.9728C8.04018 14.82 7.95453 14.6128 7.95453 14.3966C7.95454 14.1805 8.04016 13.9733 8.19297 13.8205C8.34579 13.6677 8.55303 13.5821 8.76915 13.582Z" fill="#323544"/>
<path d="M15.2259 13.5812C15.442 13.5812 15.6492 13.6669 15.802 13.8197C15.9549 13.9725 16.0413 14.1797 16.0413 14.3958C16.0413 14.612 15.9549 14.8192 15.802 14.972C15.6492 15.1248 15.442 15.2113 15.2259 15.2113C15.0097 15.2112 14.8025 15.1248 14.6497 14.972C14.4969 14.8192 14.4112 14.6119 14.4112 14.3958C14.4112 14.1797 14.4969 13.9725 14.6497 13.8197C14.8025 13.6668 15.0097 13.5813 15.2259 13.5812Z" fill="#323544"/>
<path d="M18.4542 11.2432C18.5612 11.2432 18.667 11.2649 18.7659 11.3058C18.8648 11.3468 18.9547 11.4067 19.0304 11.4824C19.106 11.5581 19.166 11.6481 19.207 11.7469C19.2479 11.8457 19.2688 11.9516 19.2688 12.0586C19.2688 12.1656 19.2479 12.2714 19.207 12.3703C19.166 12.4691 19.106 12.5591 19.0304 12.6348C18.9547 12.7104 18.8648 12.7704 18.7659 12.8114C18.667 12.8523 18.5612 12.8732 18.4542 12.8732C18.2381 12.8732 18.0309 12.7876 17.878 12.6348C17.7252 12.4819 17.6388 12.2747 17.6388 12.0586C17.6388 11.8424 17.7252 11.6353 17.878 11.4824C18.0309 11.3296 18.2381 11.2432 18.4542 11.2432Z" fill="#323544"/>
<path d="M5.54079 11.2318C5.75694 11.2318 5.96412 11.3182 6.11697 11.471C6.26981 11.6239 6.35622 11.831 6.35622 12.0472C6.35621 12.2633 6.26979 12.4705 6.11697 12.6234C5.96413 12.7762 5.75691 12.8618 5.54079 12.8618C5.32467 12.8618 5.11744 12.7762 4.96462 12.6234C4.8118 12.4705 4.72619 12.2633 4.72618 12.0472C4.72618 11.8311 4.81182 11.6239 4.96462 11.471C5.11744 11.3182 5.32467 11.2318 5.54079 11.2318Z" fill="#323544"/>
<path d="M8.76915 9.20622C8.98242 9.20622 9.18718 9.2906 9.33799 9.44141C9.48876 9.59221 9.57318 9.79701 9.57318 10.0103V12.0472C9.56761 12.2549 9.48179 12.453 9.33392 12.599C9.18609 12.7448 8.98736 12.828 8.77973 12.8309C8.56923 12.831 8.36679 12.7496 8.21495 12.6038C8.06298 12.4578 7.9733 12.2578 7.96511 12.0472V10.0103C7.96511 9.79705 8.04959 9.5922 8.2003 9.44141C8.35109 9.29062 8.5559 9.20624 8.76915 9.20622Z" fill="#323544"/>
<path d="M15.2259 11.2C15.4419 11.2 15.6492 11.2858 15.802 11.4385C15.9548 11.5912 16.0412 11.7986 16.0413 12.0146C16.0413 12.2308 15.9549 12.4388 15.802 12.5916C15.6492 12.7443 15.4419 12.8301 15.2259 12.8301C15.0098 12.83 14.8025 12.7443 14.6497 12.5916C14.4968 12.4388 14.4112 12.2308 14.4112 12.0146C14.4113 11.7986 14.4969 11.5912 14.6497 11.4385C14.8025 11.2857 15.0098 11.2001 15.2259 11.2Z" fill="#323544"/>
<path d="M11.9975 9.23796C12.2136 9.23796 12.4208 9.32359 12.5737 9.4764C12.7265 9.62923 12.8129 9.83643 12.8129 10.0526C12.8129 10.2687 12.7265 10.4759 12.5737 10.6287C12.4208 10.7816 12.2136 10.868 11.9975 10.868C11.7814 10.868 11.5741 10.7816 11.4213 10.6287C11.2685 10.4759 11.1829 10.2687 11.1829 10.0526C11.1829 9.83644 11.2685 9.62923 11.4213 9.4764C11.5741 9.32358 11.7814 9.23798 11.9975 9.23796Z" fill="#323544"/>
<path d="M5.54079 8.86198C5.64769 8.86198 5.7537 8.88297 5.85248 8.92383C5.95136 8.96479 6.04129 9.02556 6.11697 9.10124C6.1925 9.1768 6.25262 9.26622 6.29356 9.36491C6.33452 9.46379 6.35622 9.57038 6.35622 9.67741C6.35619 9.78435 6.33448 9.8903 6.29356 9.9891C6.2526 10.0879 6.1926 10.1779 6.11697 10.2536C6.04132 10.3292 5.95128 10.3892 5.85248 10.4302C5.75368 10.4711 5.64772 10.492 5.54079 10.492C5.32472 10.492 5.11743 10.4063 4.96462 10.2536C4.81184 10.1008 4.72625 9.89346 4.72618 9.67741C4.72618 9.46134 4.81189 9.25406 4.96462 9.10124C5.11744 8.94842 5.32467 8.862 5.54079 8.86198Z" fill="#323544"/>
<path d="M15.3911 6.76807C15.5607 6.80469 15.7147 6.89441 15.8297 7.02441C15.9059 7.11018 15.9628 7.21124 15.9973 7.32064C16.0319 7.43021 16.0431 7.54584 16.0299 7.65999V9.6766C16.027 9.89086 15.9399 10.0957 15.7874 10.2463C15.6349 10.3966 15.4294 10.4806 15.2153 10.4806C15.0029 10.4778 14.7999 10.3924 14.6497 10.2422C14.4995 10.092 14.414 9.889 14.4112 9.6766V7.65999C14.3907 7.48768 14.4258 7.31295 14.5113 7.16195C14.5969 7.01116 14.7283 6.89188 14.8865 6.82096C15.0448 6.74999 15.2215 6.73147 15.3911 6.76807Z" fill="#323544"/>
<path d="M18.4542 8.83024C18.6703 8.83026 18.8776 8.91595 19.0304 9.06869C19.1831 9.22144 19.2687 9.42884 19.2688 9.64486C19.2688 9.86101 19.1832 10.069 19.0304 10.2218C18.8776 10.3746 18.6702 10.4603 18.4542 10.4603C18.2382 10.4603 18.0308 10.3745 17.878 10.2218C17.7252 10.069 17.6388 9.86101 17.6388 9.64486C17.6389 9.42884 17.7253 9.22144 17.878 9.06869C18.0309 8.91599 18.2382 8.83024 18.4542 8.83024Z" fill="#323544"/>
<path d="M8.76915 6.85677C8.9852 6.85677 9.19249 6.9425 9.34532 7.09521C9.49809 7.24799 9.58449 7.45535 9.58458 7.67139C9.58458 7.88754 9.49816 8.09553 9.34532 8.24837C9.1925 8.40103 8.98516 8.48682 8.76915 8.48682C8.55313 8.48679 8.34577 8.40106 8.19297 8.24837C8.04013 8.09553 7.95453 7.88754 7.95453 7.67139C7.95461 7.45535 8.0402 7.24798 8.19297 7.09521C8.34578 6.94246 8.55308 6.8568 8.76915 6.85677Z" fill="#323544"/>
<path d="M11.9975 6.85677C12.2135 6.85677 12.4209 6.94252 12.5737 7.09521C12.7264 7.24797 12.8128 7.45537 12.8129 7.67139C12.8129 7.88754 12.7265 8.09553 12.5737 8.24837C12.4209 8.40105 12.2135 8.48682 11.9975 8.48682C11.7815 8.48679 11.5741 8.40109 11.4213 8.24837C11.2685 8.09553 11.1829 7.88754 11.1829 7.67139C11.183 7.45537 11.2686 7.24797 11.4213 7.09521C11.5741 6.94249 11.7814 6.85679 11.9975 6.85677Z" fill="#323544"/>
<path d="M5.54079 6.48079C5.75691 6.48079 5.96413 6.56644 6.11697 6.71924C6.26979 6.87207 6.35621 7.07928 6.35622 7.29541C6.35622 7.51156 6.26981 7.71874 6.11697 7.87158C5.96412 8.02442 5.75694 8.11084 5.54079 8.11084C5.32467 8.11082 5.11744 8.0244 4.96462 7.87158C4.81183 7.71875 4.72618 7.51153 4.72618 7.29541C4.72619 7.07929 4.8118 6.87206 4.96462 6.71924C5.11744 6.56642 5.32467 6.48082 5.54079 6.48079Z" fill="#323544"/>
<path d="M18.433 4.45361C18.6462 4.45361 18.8511 4.53809 19.0019 4.6888C19.1527 4.83959 19.2371 5.0444 19.2371 5.25765V7.27425C19.2387 7.38086 19.2198 7.48698 19.1801 7.58594C19.1404 7.6849 19.0808 7.7753 19.006 7.85124C18.9312 7.92695 18.8421 7.9868 18.7439 8.02783C18.6455 8.06893 18.5397 8.09062 18.433 8.09049C18.2187 8.08758 18.0139 7.99983 17.8634 7.84717C17.713 7.69448 17.6288 7.48855 17.629 7.27425V5.25765C17.629 5.0444 17.7142 4.83959 17.865 4.6888C18.0157 4.53825 18.22 4.45368 18.433 4.45361Z" fill="#323544"/>
<path d="M8.76915 4.46419C8.98539 4.46419 9.19322 4.54974 9.34613 4.70264C9.49905 4.85556 9.58458 5.06336 9.58458 5.27962C9.58457 5.49571 9.49883 5.70291 9.34613 5.85579C9.19321 6.00871 8.98541 6.09505 8.76915 6.09505C8.55292 6.09503 8.34587 6.00869 8.19297 5.85579C8.04008 5.70288 7.95372 5.49586 7.95372 5.27962C7.95372 5.06336 8.04005 4.85556 8.19297 4.70264C8.34584 4.54996 8.55308 4.46422 8.76915 4.46419Z" fill="#323544"/>
<path d="M15.2259 4.46419C15.3328 4.46419 15.4388 4.48518 15.5375 4.52604C15.6363 4.56695 15.7264 4.62708 15.802 4.70264C15.8776 4.77825 15.9377 4.86835 15.9786 4.96712C16.0195 5.06588 16.0412 5.17191 16.0413 5.27881C16.0413 5.38584 16.0196 5.49243 15.9786 5.59131C15.9377 5.69007 15.8776 5.78019 15.802 5.85579C15.7264 5.93134 15.6363 5.99148 15.5375 6.03239C15.4388 6.07325 15.3327 6.09424 15.2259 6.09424C15.0098 6.0942 14.8025 6.00851 14.6497 5.85579C14.4968 5.70295 14.4112 5.49496 14.4112 5.27881C14.4113 5.0628 14.4969 4.85539 14.6497 4.70264C14.8025 4.5499 15.0098 4.46423 15.2259 4.46419Z" fill="#323544"/>
<path d="M5.56765 2C5.68259 2 5.79643 2.02458 5.90131 2.07161C6.0061 2.11861 6.09995 2.1869 6.17637 2.27262C6.25283 2.35845 6.31018 2.46006 6.34483 2.56966C6.37942 2.67919 6.3906 2.79491 6.37738 2.90902V4.92562C6.3745 5.1398 6.28733 5.344 6.13487 5.49447C5.98239 5.64492 5.77697 5.72962 5.56277 5.72966C5.35045 5.72685 5.14736 5.64131 4.99717 5.49121C4.847 5.34104 4.76157 5.13797 4.75873 4.92562V2.90902C4.74552 2.79498 4.75592 2.67914 4.79047 2.56966C4.82511 2.46006 4.88328 2.35845 4.95974 2.27262C5.03614 2.18694 5.13005 2.11859 5.2348 2.07161C5.33955 2.02467 5.45287 2.00004 5.56765 2Z" fill="#323544"/>
<path d="M18.4542 2.0944C18.5611 2.09441 18.6671 2.11535 18.7659 2.15625C18.8647 2.19718 18.9547 2.25724 19.0304 2.33285C19.106 2.40847 19.166 2.49853 19.207 2.59733C19.2479 2.69609 19.2688 2.80212 19.2688 2.90902C19.2688 3.01604 19.2479 3.12264 19.207 3.22152C19.166 3.3203 19.106 3.41038 19.0304 3.486C18.9547 3.5616 18.8647 3.62167 18.7659 3.6626C18.6671 3.7035 18.5611 3.72444 18.4542 3.72445C18.2382 3.72445 18.0308 3.63868 17.878 3.486C17.7252 3.33316 17.6388 3.12517 17.6388 2.90902C17.6389 2.693 17.7253 2.4856 17.878 2.33285C18.0309 2.18015 18.2382 2.0944 18.4542 2.0944Z" fill="#323544"/>
</svg>
