<svg width="24" height="24" viewBox="0 0 24 24" fill="none" xmlns="http://www.w3.org/2000/svg">
<path d="M19.8898 3.37501C17.2159 2.48951 14.916 4.36867 14.3798 6.08834C14.3798 6.08834 12.4502 12.285 11.6279 14.87C11.2356 16.1038 10.263 18.1223 8.43154 18.1223C6.94013 18.1223 6.17379 16.7226 5.85021 15.8884L3.62638 9.96033C3.3688 9.33608 3.6383 8.09033 4.67138 7.71725C5.77504 7.32125 6.48454 8.24433 6.66788 8.73475L9.43804 15.8297C10.098 14.9791 10.5179 13.5949 10.791 12.615L8.97237 7.83917C8.10979 5.61076 5.82821 4.59692 3.7153 5.37609C2.00389 6.00675 0.356641 8.16642 1.25222 10.8807L3.54755 16.784C3.89588 17.6786 5.2718 20.6001 8.38296 20.6001C12.1165 20.6001 13.5172 17.4165 14.2945 14.9002C14.6832 13.6417 16.8144 6.83634 16.8144 6.83634C17.1243 5.81976 18.3819 5.52734 19.1684 5.784C19.723 5.96367 20.7249 6.72909 20.4013 7.91525C20.3408 8.13158 18.6413 13.6068 18.0144 15.2724C17.6871 16.1414 16.8575 18.0279 14.9674 17.7657C14.3917 19.0399 13.9132 19.7815 13.189 20.447C15.5467 21.5635 18.9823 20.4387 20.4288 16.069C20.966 14.4437 22.8525 8.5835 22.8525 8.5835C23.4007 6.78409 22.4226 4.21284 19.8898 3.37501Z" fill="#323544"/>
</svg>
