<svg width="24" height="24" viewBox="0 0 24 24" fill="none" xmlns="http://www.w3.org/2000/svg">
<path d="M1.03739 4.88778L11.5273 20.6062C11.553 20.6445 11.5878 20.676 11.6286 20.6977C11.6693 20.7195 11.7148 20.7309 11.761 20.7309C11.8073 20.7309 11.8527 20.7195 11.8935 20.6977C11.9343 20.676 11.9691 20.6445 11.9948 20.6062L12.8601 19.321L13.6411 20.4457L13.642 20.4467C13.6741 20.4934 13.7153 20.5466 13.7648 20.5897C13.817 20.6337 13.9023 20.6868 14.015 20.6868C14.1071 20.6854 14.1956 20.651 14.2644 20.5897C14.3116 20.5475 14.3532 20.4994 14.3881 20.4467L22.4196 8.61113V8.6093C23.2574 7.40668 23.1511 6.0079 22.339 5.13343C21.7358 4.48446 20.7899 4.16822 19.6551 4.39096C18.875 3.76857 17.754 3.39092 16.4459 3.44683L13.9197 3.60724C13.4444 3.64174 12.9669 3.62792 12.4944 3.566L10.2266 3.26809C10.1767 3.26142 10.126 3.26834 10.0797 3.2881C10.0335 3.30787 9.99339 3.33975 9.96373 3.38039C9.93407 3.42103 9.91593 3.46892 9.91121 3.51901C9.9065 3.5691 9.91539 3.61953 9.93695 3.66499C10.2577 4.34243 10.7454 4.92723 11.3542 5.36447C11.963 5.80172 12.673 6.07706 13.4174 6.16464L17.0014 6.58629C17.0613 6.59323 17.1185 6.61545 17.1673 6.65081C17.2162 6.68618 17.2552 6.73352 17.2805 6.78827C17.3058 6.84303 17.3166 6.90337 17.3119 6.96351C17.3071 7.02364 17.287 7.08155 17.2535 7.13169L12.8335 13.7479L7.58946 6.10689C7.08898 5.38001 6.12652 5.00144 5.29147 4.96386L4.25109 4.91528C3.90902 4.75842 3.5406 4.66702 3.16489 4.64579L1.22163 4.55962C1.18244 4.55761 1.14347 4.56658 1.1091 4.58551C1.07473 4.60444 1.04633 4.63259 1.02709 4.66679C1.00785 4.70098 0.998531 4.73987 1.00019 4.77908C1.00185 4.81828 1.01441 4.85624 1.03647 4.88869L1.03739 4.88778ZM13.1974 18.8196L20.282 8.28573C21.0896 7.09777 20.9411 5.83007 20.1638 4.88961C20.9429 4.83736 21.5452 5.10777 21.9256 5.5175C22.5379 6.17564 22.6607 7.27835 21.9567 8.28848L21.9558 8.29031L14.0132 19.9938L13.1974 18.8196ZM5.11639 5.51934L5.2658 5.52575C5.98719 5.55875 6.75533 5.88874 7.12473 6.42588L12.4962 14.253L11.8188 15.2668C11.8123 15.2762 11.8036 15.284 11.7935 15.2893C11.7833 15.2947 11.7721 15.2974 11.7606 15.2974C11.7491 15.2974 11.7378 15.2947 11.7277 15.2893C11.7176 15.284 11.7089 15.2762 11.7024 15.2668L5.3208 5.77599C5.25938 5.68505 5.19163 5.59922 5.11639 5.51934Z" fill="#323544"/>
</svg>
