<svg width="24" height="24" viewBox="0 0 24 24" fill="none" xmlns="http://www.w3.org/2000/svg">
<g opacity="0.5">
<path d="M7.80664 6.87447L4.04166 21.7608C4.0355 21.7888 4.0356 21.8178 4.04192 21.8458C4.04825 21.8738 4.06066 21.9 4.07828 21.9227C4.09589 21.9453 4.11827 21.9638 4.14383 21.9768C4.16939 21.9898 4.19751 21.9971 4.22618 21.998H11.7616C11.7912 21.9989 11.8207 21.9929 11.8477 21.9807C11.8747 21.9684 11.8985 21.9501 11.9174 21.9272C11.9363 21.9044 11.9496 21.8775 11.9565 21.8486C11.9634 21.8197 11.9635 21.7897 11.957 21.7608L8.17932 6.87356C8.16731 6.83347 8.14269 6.79832 8.10912 6.77334C8.07556 6.74835 8.03482 6.73486 7.99298 6.73486C7.95113 6.73486 7.9104 6.74835 7.87683 6.77334C7.84326 6.79832 7.81864 6.83438 7.80664 6.87447Z" fill="#323544"/>
<path d="M14.3058 2.1387C14.2938 2.09861 14.2692 2.06347 14.2356 2.03848C14.2021 2.0135 14.1613 2 14.1195 2C14.0776 2 14.0369 2.0135 14.0033 2.03848C13.9698 2.06347 13.9451 2.09861 13.9331 2.1387L8.78469 21.7626C8.77819 21.7914 8.77835 21.8214 8.78517 21.8502C8.79198 21.879 8.80527 21.9058 8.82403 21.9287C8.84279 21.9516 8.86651 21.9699 8.8934 21.9822C8.92029 21.9945 8.94964 22.0006 8.97922 21.9998H19.2688C19.2985 22.0007 19.3279 21.9948 19.3549 21.9825C19.3819 21.9702 19.4058 21.952 19.4246 21.9291C19.4435 21.9062 19.4569 21.8793 19.4637 21.8504C19.4706 21.8216 19.4708 21.7915 19.4643 21.7626L14.3058 2.1387Z" fill="#323544"/>
</g>
<path d="M5.31847 16.7095L4.04045 21.7616C4.03413 21.7896 4.0341 21.8187 4.04036 21.8467C4.04662 21.8748 4.05902 21.9011 4.07666 21.9238C4.09431 21.9465 4.11676 21.965 4.1424 21.9779C4.16805 21.9909 4.19625 21.998 4.22497 21.9988H2.28795C2.25847 21.9995 2.22922 21.9935 2.20241 21.9812C2.1756 21.9689 2.15194 21.9507 2.1332 21.928C2.11446 21.9052 2.10114 21.8785 2.09425 21.8498C2.08736 21.8211 2.08708 21.7913 2.09343 21.7625L4.16135 13.6172C4.1736 13.5774 4.19826 13.5427 4.23171 13.518C4.26517 13.4933 4.30565 13.4799 4.34723 13.4799C4.38881 13.4799 4.4293 13.4933 4.46275 13.518C4.49621 13.5427 4.52087 13.5774 4.53312 13.6172L5.31847 16.7095Z" fill="#323544"/>
<path d="M19.2694 21.9997C19.299 22.0003 19.3284 21.9942 19.3553 21.9817C19.3822 21.9693 19.4059 21.9509 19.4246 21.928C19.4434 21.905 19.4566 21.8781 19.4634 21.8493C19.4703 21.8205 19.4704 21.7905 19.464 21.7616L17.7923 15.4051L18.8504 11.2311C18.8622 11.1906 18.8867 11.1551 18.9204 11.1298C18.9541 11.1045 18.9951 11.0908 19.0372 11.0908C19.0793 11.0908 19.1203 11.1045 19.154 11.1298C19.1877 11.1551 19.2122 11.1906 19.224 11.2311L21.9064 21.7625C21.9129 21.7913 21.9127 21.8213 21.9059 21.8501C21.8991 21.8789 21.8858 21.9057 21.867 21.9286C21.8483 21.9515 21.8246 21.9698 21.7977 21.9821C21.7708 21.9944 21.7414 22.0005 21.7119 21.9997H19.2694Z" fill="#323544"/>
<path d="M10.5224 9.03864L7.25641 21.7598C7.24942 21.7888 7.24921 21.8191 7.2558 21.8482C7.26239 21.8773 7.27561 21.9046 7.29442 21.9278C7.31323 21.951 7.33713 21.9695 7.36428 21.982C7.39142 21.9945 7.42107 22.0006 7.45093 21.9997H13.9683C14.0131 22.0005 14.0568 21.986 14.0921 21.9586C14.1275 21.9311 14.1525 21.8924 14.1628 21.8488C14.1696 21.8195 14.1696 21.7891 14.1628 21.7598L10.8941 9.03955C10.8819 8.99982 10.8572 8.96505 10.8238 8.94036C10.7903 8.91567 10.7498 8.90234 10.7082 8.90234C10.6667 8.90234 10.6262 8.91567 10.5927 8.94036C10.5593 8.96505 10.5346 8.99891 10.5224 9.03864Z" fill="#323544"/>
</svg>
