<svg width="24" height="24" viewBox="0 0 24 24" fill="none" xmlns="http://www.w3.org/2000/svg">
<path d="M6.089 2V2.055C6.06697 2.12106 6.05352 2.18968 6.049 2.25917C6.03984 2.35083 6.03567 2.4325 6.03567 2.505C6.03567 2.7875 6.0715 3.10083 6.14234 3.44667C6.22317 3.78417 6.37067 4.20667 6.58484 4.71667L12.5223 18.355L18.259 4.825C18.3932 4.48833 18.5365 4.12 18.6882 3.71917C18.8398 3.31917 18.9157 2.91417 18.9157 2.50417C18.9188 2.35037 18.8916 2.19746 18.8357 2.05417V2H21.5832V2.055C21.4132 2.2275 21.2082 2.53667 20.9665 2.98333C20.7248 3.42917 20.4615 3.97917 20.1757 4.635L12.4957 22H11.4232L4.14567 5.30417C3.97567 4.9125 3.79734 4.535 3.609 4.17083C3.43067 3.80667 3.26067 3.47917 3.10067 3.1875C2.939 2.8875 2.7965 2.6375 2.6715 2.4375C2.59281 2.30537 2.50771 2.17716 2.4165 2.05333V2H6.089Z" fill="#323544"/>
</svg>
