<svg width="24" height="24" viewBox="0 0 24 24" fill="none" xmlns="http://www.w3.org/2000/svg">
<path d="M12 2C12.2162 2 12.4289 2.05487 12.6179 2.15981L20.4734 6.56341C20.8559 6.77618 21.0913 7.17234 21.0913 7.60039V16.4005C21.0913 16.8295 20.856 17.2265 20.4734 17.4401L12.6179 21.8402C12.4289 21.9452 12.2163 22 12 22C11.7838 22 11.5711 21.9452 11.3821 21.8402L3.52662 17.4401C3.34042 17.338 3.18516 17.1876 3.07649 17.0051C2.96778 16.8224 2.9096 16.6131 2.90869 16.4005V7.5995C2.90871 7.17145 3.14409 6.77532 3.52662 6.56164L11.3821 2.1607C11.5711 2.05576 11.7838 2 12 2ZM12 5.32401C11.7837 5.32401 11.5709 5.37915 11.3821 5.48471L6.49461 8.22453C6.11187 8.43818 5.8758 8.83329 5.8758 9.2624V14.742C5.87593 15.1692 6.11197 15.5645 6.49461 15.7799L9.03556 17.204V11.173C9.03563 11.1883 9.03766 11.2039 9.03822 11.2192C9.03941 11.2557 9.04216 11.2921 9.04622 11.3284C9.04792 11.3431 9.04848 11.358 9.05065 11.3728C9.05796 11.4234 9.0689 11.4733 9.08173 11.5228C9.08514 11.5359 9.08859 11.5489 9.09238 11.5619C9.10738 11.6134 9.1256 11.664 9.14654 11.7137C9.14968 11.7211 9.15303 11.7285 9.15631 11.7359C9.17981 11.789 9.20598 11.8411 9.23621 11.8912C9.51074 12.353 10.0091 12.6112 10.5218 12.6113C10.7736 12.6113 11.0295 12.5495 11.2622 12.4186L12.0009 12.0031L12 18.8651L17.5081 15.7799C17.6943 15.6777 17.8504 15.5274 17.9591 15.3449C18.0677 15.1625 18.1266 14.9543 18.1278 14.742V8.57078L12.0027 11.9996V11.1721L12 11.1712C12 10.3757 11.3365 9.73117 10.5173 9.73117C10.284 9.73114 10.0542 9.78504 9.84614 9.88831L15.1615 6.90966L12.6197 5.4856L12.6179 5.48471C12.4291 5.37915 12.2163 5.32401 12 5.32401Z" fill="#323544"/>
</svg>
