<svg width="24" height="24" viewBox="0 0 24 24" fill="none" xmlns="http://www.w3.org/2000/svg">
<path d="M22.7983 5.5857H22.5893C22.3259 5.58654 22.0652 5.63929 21.8222 5.74093C21.5792 5.84257 21.3586 5.99111 21.173 6.17806C20.9874 6.36501 20.8405 6.5867 20.7406 6.83046C20.6408 7.07422 20.5899 7.33528 20.591 7.5987V12.1014C20.591 12.9997 19.854 13.7284 18.9777 13.7284C18.7126 13.7262 18.4519 13.6607 18.2173 13.5374C17.9826 13.4142 17.7807 13.2368 17.6283 13.0199L13.0707 6.45286C12.8854 6.18412 12.6376 5.96443 12.3485 5.81273C12.0595 5.66103 11.7379 5.58186 11.4115 5.58203C10.372 5.58203 9.437 6.47303 9.437 7.57395V12.1023C9.437 13.0006 8.70642 13.7294 7.82367 13.7294C7.30117 13.7294 6.78233 13.4644 6.47433 13.0208L1.374 5.67186C1.2585 5.50686 1 5.58845 1 5.79103V9.71803C1 9.91603 1.0605 10.1085 1.17233 10.2717L6.19108 17.5033C6.48808 17.9304 6.92442 18.2476 7.4295 18.3631C8.69175 18.6528 9.85408 17.6719 9.85408 16.4225V11.8979C9.85408 10.9995 10.5755 10.2708 11.4674 10.2708H11.4692C12.0064 10.2708 12.5097 10.5348 12.8186 10.9794L17.3762 17.5454C17.5588 17.8169 17.8061 18.0386 18.0957 18.1907C18.3854 18.3427 18.7083 18.4202 19.0354 18.4163C20.0969 18.4163 21.0072 17.5244 21.0072 16.4244V11.8969C21.0072 10.9986 21.7286 10.2699 22.6205 10.2699H22.7983C22.9102 10.2699 23 10.1782 23 10.0664V5.78828C23.0001 5.76168 22.995 5.73531 22.9849 5.71069C22.9749 5.68606 22.96 5.66366 22.9413 5.64476C22.9226 5.62587 22.9003 5.61084 22.8758 5.60055C22.8513 5.59026 22.8249 5.58582 22.7983 5.5857Z" fill="#323544"/>
</svg>
