<svg width="24" height="24" viewBox="0 0 24 24" fill="none" xmlns="http://www.w3.org/2000/svg">
<path d="M12.2826 10.9518C12.1792 11.0635 12.0854 11.2234 12.0013 11.382C11.8317 11.7088 11.7104 12.0742 11.6263 12.4478C11.4581 13.1951 11.4484 13.9907 11.589 14.7477C11.6359 14.9821 11.6924 15.2055 11.7669 15.4302C11.9075 15.1779 12.0385 14.9159 12.1516 14.6539C12.3115 14.2885 12.4329 13.9149 12.5363 13.5219C12.6397 13.1386 12.7142 12.7457 12.7431 12.3623C12.7624 12.1665 12.7721 11.979 12.7624 11.7832C12.7624 11.5957 12.7431 11.4096 12.7059 11.2414C12.6866 11.1573 12.6687 11.0731 12.6397 11.0083C12.6121 10.9339 12.5832 10.8774 12.5556 10.8305C12.5459 10.8208 12.5363 10.8112 12.5363 10.8029L12.517 10.7836C12.5073 10.7739 12.5073 10.7739 12.4977 10.7643C12.488 10.7643 12.4508 10.7836 12.4136 10.8112C12.386 10.8387 12.3295 10.8953 12.2826 10.9518Z" fill="#323544"/>
<path d="M18.1164 8.52068C18.1067 8.83919 18.0971 9.15631 18.0792 9.47482C18.0516 9.90501 18.0047 10.3449 17.9482 10.7737C17.8351 11.634 17.6669 12.4944 17.4228 13.3355C17.3015 13.756 17.1609 14.1766 17.0009 14.5792C16.9265 14.7846 16.8327 14.9901 16.7389 15.1873C16.6452 15.3927 16.5514 15.5899 16.4384 15.7857C16.2233 16.1786 15.9792 16.5619 15.6883 16.9177C15.5476 17.0955 15.3877 17.2734 15.2098 17.432C15.032 17.6002 14.8444 17.7505 14.628 17.8897C14.4129 18.0207 14.1785 18.1421 13.9055 18.2165C13.6421 18.291 13.3429 18.3199 13.0616 18.2731L12.9582 18.2538C12.921 18.2441 12.8838 18.2344 12.8548 18.2262C12.7804 18.2069 12.7142 18.1793 12.648 18.16C12.517 18.1035 12.386 18.0387 12.2729 17.9642C12.0386 17.8153 11.851 17.6278 11.6911 17.4403C11.6539 17.3934 11.6166 17.3465 11.578 17.2913L11.5215 17.2072L11.5118 17.2169C11.1837 17.534 10.8086 17.8153 10.3964 18.04C10.3398 18.0676 10.293 18.0966 10.2364 18.1145C10.1799 18.1421 10.133 18.1614 10.0765 18.1889C9.96343 18.2358 9.8614 18.2731 9.74833 18.3103C9.63527 18.3475 9.51393 18.3765 9.3926 18.404C9.27126 18.4316 9.1389 18.4413 8.99826 18.4413C8.85762 18.4413 8.70733 18.422 8.55703 18.3668C8.40674 18.3199 8.25645 18.2358 8.14477 18.1241C8.02343 18.0207 7.92967 17.8897 7.86349 17.7684C7.79731 17.6471 7.74215 17.5161 7.7132 17.3948C7.63874 17.1521 7.60979 16.9177 7.60014 16.6847C7.58083 16.4599 7.59048 16.2352 7.60014 16.0118C7.61944 15.572 7.66632 15.1418 7.72147 14.7309C7.778 14.3103 7.83453 13.8994 7.88969 13.4872L7.90899 13.3369C7.91864 13.2804 7.91864 13.2431 7.91864 13.1962L7.92829 13.1218V12.9164C7.92829 12.7385 7.90072 12.5606 7.85384 12.431C7.82488 12.3745 7.79731 12.3276 7.76973 12.3C7.74215 12.2724 7.7325 12.2628 7.69527 12.2628C7.65805 12.2628 7.60151 12.2628 7.53533 12.2821C7.4981 12.3014 7.46915 12.3097 7.43192 12.329C7.41262 12.3386 7.39469 12.3469 7.37539 12.3566L7.31886 12.3938C7.17822 12.4875 7.02793 12.6089 6.89694 12.7495C6.76595 12.8902 6.63496 13.0391 6.5026 13.1976C6.25855 13.5161 6.02415 13.8622 5.7994 14.2069C5.75252 14.2717 5.66841 14.291 5.60223 14.2538C5.5457 14.2166 5.52777 14.1504 5.5457 14.0952C5.61188 13.8898 5.67668 13.6844 5.77044 13.4872C5.85455 13.2914 5.94831 13.0942 6.06137 12.8984C6.17444 12.7123 6.29577 12.5248 6.43641 12.3469C6.57705 12.169 6.737 12.0008 6.94244 11.8519L7.0169 11.7954C7.04447 11.7761 7.07343 11.7581 7.101 11.7485C7.15753 11.7113 7.22372 11.6823 7.27887 11.6547C7.40986 11.5982 7.56015 11.561 7.73802 11.5803C7.7849 11.5899 7.82212 11.5899 7.869 11.5996C7.91588 11.6092 7.95311 11.6272 7.99999 11.6368C8.03722 11.6561 8.0841 11.674 8.12133 11.703C8.15856 11.7306 8.19579 11.7595 8.22474 11.7871C8.35573 11.8988 8.43984 12.0394 8.49637 12.1704C8.60943 12.4324 8.63701 12.6751 8.64666 12.9191V13.1811L8.63701 13.2652C8.63701 13.3217 8.62735 13.3865 8.62735 13.4334L8.60805 13.592C8.57082 14.0222 8.51429 14.433 8.46741 14.8453C8.42053 15.2562 8.3833 15.6685 8.37365 16.0697C8.364 16.2655 8.37365 16.4627 8.3833 16.6585C8.40261 16.846 8.43018 17.0321 8.47706 17.1824C8.50464 17.2569 8.53359 17.3327 8.56117 17.3879C8.5984 17.4444 8.63563 17.4899 8.67423 17.5188C8.71146 17.5464 8.74869 17.5754 8.80522 17.5836C8.8521 17.603 8.91829 17.6112 8.98309 17.6112C9.26437 17.6112 9.65871 17.4609 9.97722 17.2941C10.3054 17.1162 10.606 16.8832 10.8776 16.6116C10.9438 16.5468 10.9989 16.4902 11.0555 16.4241C11.0279 16.3675 10.9989 16.3027 10.981 16.2462C10.8031 15.8257 10.6721 15.3858 10.5963 14.9377C10.5122 14.4882 10.4832 14.0304 10.4929 13.5823C10.5025 13.1328 10.5591 12.6751 10.6611 12.2366C10.7631 11.7981 10.9148 11.3583 11.1299 10.9364C11.243 10.7309 11.374 10.5158 11.5518 10.32C11.6456 10.2166 11.7393 10.1242 11.8703 10.0401C12.0013 9.95603 12.1516 9.87192 12.3584 9.83469C12.4618 9.81539 12.5749 9.81539 12.6769 9.83469C12.79 9.854 12.8838 9.89122 12.9775 9.94638C13.0244 9.97395 13.0616 10.0029 13.0989 10.0305C13.1361 10.0581 13.1733 10.087 13.2023 10.1242L13.2492 10.1711C13.2671 10.1904 13.2767 10.1987 13.2864 10.218C13.314 10.2456 13.3333 10.2842 13.3608 10.3118C13.4449 10.4428 13.5111 10.5737 13.5484 10.7047C13.5952 10.8357 13.6242 10.9571 13.6518 11.0784C13.6986 11.3211 13.7179 11.5555 13.7179 11.7885C13.7179 12.0215 13.7083 12.2462 13.6807 12.471C13.6338 12.9191 13.5497 13.3493 13.427 13.7795C13.314 14.2097 13.165 14.6206 12.9858 15.0328C12.8079 15.4354 12.6011 15.827 12.3571 16.2021C12.3102 16.2765 12.2633 16.3427 12.2164 16.4172L12.2633 16.4916L12.3378 16.6033L12.4122 16.7067L12.4963 16.8101C12.6094 16.9411 12.7211 17.0432 12.8521 17.119C12.9182 17.1562 12.9734 17.1838 13.0396 17.2127C13.0671 17.2224 13.1058 17.232 13.1333 17.2403C13.1526 17.2403 13.1609 17.25 13.1802 17.25L13.2271 17.2596C13.2933 17.2693 13.3581 17.2693 13.4243 17.2596C13.4904 17.2596 13.5552 17.2403 13.6311 17.2224C13.7717 17.1755 13.9124 17.1107 14.053 17.017C14.3343 16.8308 14.5963 16.5675 14.8224 16.2696C14.9354 16.1193 15.0471 15.9608 15.1505 15.8022C15.254 15.634 15.3477 15.4658 15.4415 15.2976C15.7972 14.5958 16.0606 13.8388 16.2577 13.0625C16.6424 11.5017 16.7458 9.86503 16.6424 8.24767V8.2201C16.6328 8.08911 16.5955 7.61204 16.5114 7.14462C15.2264 6.29389 13.6876 5.80717 12.0275 5.80717C7.50638 5.77959 3.86768 9.41553 3.86768 13.8939C3.86768 18.3723 7.50638 22 11.9999 22C16.4921 22 20.1322 18.3723 20.1322 13.8939C20.1515 11.8298 19.3821 9.95051 18.1164 8.52068Z" fill="#323544"/>
<path d="M19.5325 2.61113L17.7979 2.73246L17.2354 1.0503C17.2078 0.975848 17.0947 0.9855 17.0851 1.06961L16.8135 3.09785L15.3781 4.1361C15.3216 4.18298 15.3505 4.26709 15.4153 4.27674L16.9072 4.39808L17.5263 5.89409C17.5539 5.96855 17.6573 5.96027 17.6766 5.87479L18.0323 4.07957L19.5987 2.76142C19.6455 2.69523 19.6083 2.60285 19.5325 2.61113Z" fill="#323544"/>
</svg>
