<svg width="24" height="24" viewBox="0 0 24 24" fill="none" xmlns="http://www.w3.org/2000/svg">
<path d="M15.6273 3.21875H13.6864V7.48239L15.6264 7.48784L15.6273 3.21875ZM11.1455 5.68148L13.1673 7.7042L11.7909 9.06966L9.77455 7.0533L11.1473 5.68057L11.1455 5.68148ZM7.31364 9.59239H11.5827L11.5764 11.5315H7.31273V9.5933L7.31364 9.59239ZM9.77727 14.0724L11.7973 12.0506L13.1655 13.4269L11.1491 15.4424L9.77636 14.0706L9.77727 14.0724ZM13.6864 17.9051V13.636L15.6264 13.6424V17.906L13.6864 17.9051ZM18.1664 15.4451L16.1436 13.4224L17.52 12.0551L19.5382 14.0733L18.1655 15.446L18.1664 15.4451ZM22 11.5315H17.7309L17.7373 9.59239H22V11.5315ZM19.5373 7.0533L17.5164 9.0742L16.1491 7.69875L18.1673 5.68057L19.5373 7.0533ZM4 3.65693V4.75148H2.90364V6.50511H4V7.59966H5.75182V6.50511H6.84636V4.75239H5.75182V3.65693H4ZM4 20.7797V18.7797H2V17.0278H4V15.0297H5.75182V17.0278H7.75182V18.7797H5.75182V20.7797H4Z" fill="#323544"/>
</svg>
