<svg width="24" height="24" viewBox="0 0 24 24" fill="none" xmlns="http://www.w3.org/2000/svg">
<g opacity="0.4">
<path d="M8.52145 5.76253H19.5954L19.7646 5.06134C20.0064 3.97329 19.1602 2.93359 18.0479 2.93359H7.28833C5.88595 2.93359 4.70118 3.90075 4.38686 5.25477L2.0415 16.1111C1.79971 17.1992 2.64598 18.2388 3.75821 18.2388H4.41104L6.80475 7.14072C6.974 6.34282 7.69937 5.76253 8.52145 5.76253Z" fill="#323544"/>
<path d="M20.2482 5.76253H19.5954L17.2017 16.8606C17.0324 17.6586 16.3071 18.2388 15.485 18.2388H4.41104L4.24178 18.94C4 20.0281 4.84626 21.0678 5.95849 21.0678H16.7181C18.1205 21.0678 19.3052 20.1006 19.6196 18.7466L21.9649 7.89027C22.1825 6.77804 21.3605 5.76253 20.2482 5.76253Z" fill="#323544"/>
</g>
<path d="M17.1776 16.8599C17.0083 17.6578 16.3071 18.2379 15.485 18.2379H4.41113L6.80494 7.13996C6.97419 6.34206 7.69947 5.76172 8.52155 5.76172H19.5714L17.1776 16.8599ZM15.7268 9.70307C14.8322 9.70307 14.1311 10.1142 14.0102 10.8879C13.9619 11.4682 14.1311 11.7824 14.5179 12.0242C14.7838 12.1934 14.9289 12.2419 15.2432 12.3628C15.4124 12.4353 15.5091 12.4595 15.5575 12.4836C15.7509 12.5803 15.8478 12.6771 15.8236 12.7979C15.7753 13.0155 15.5093 13.1365 15.2192 13.1365C14.7598 13.1365 14.3728 12.9431 14.0827 12.5805L13.4298 13.3299C13.8408 13.8618 14.4211 14.1278 15.1464 14.1037C15.6058 14.1037 16.0169 13.9827 16.3554 13.7651C16.718 13.5475 16.9116 13.2332 16.9842 12.8222C17.1292 12.2178 16.6455 11.8066 16.2345 11.6374C16.1136 11.5649 15.9686 11.5165 15.7752 11.444C15.606 11.3715 15.4609 11.323 15.4125 11.2988C15.2433 11.2263 15.1707 11.1055 15.1948 10.9604C15.219 10.767 15.3883 10.6943 15.6784 10.6943C16.0169 10.6943 16.3312 10.8153 16.5972 11.057L17.25 10.3075C16.839 9.89652 16.3313 9.70307 15.7268 9.70307ZM8.01389 14.0073H9.07762L10.3109 11.5651L10.8185 14.0073H11.8582L13.8893 9.84852H12.632L11.4955 12.4357L10.9878 9.84852H10.1416L8.86015 12.4357L8.47314 9.84852H7.21603L8.01389 14.0073Z" fill="#323544"/>
</svg>
