<svg width="24" height="24" viewBox="0 0 24 24" fill="none" xmlns="http://www.w3.org/2000/svg">
<path d="M6.53084 10.0765C7.07418 11.5724 8.13503 12.8899 9.36087 13.8874C10.5959 14.9116 12.0726 15.6958 13.6292 16.0983C14.1838 16.2402 14.7516 16.3245 15.3234 16.3499C16.4084 16.3916 17.5843 16.1783 18.4551 15.4833C19.536 14.6199 19.831 13.2957 19.5535 11.9749C19.3793 11.1474 19.0193 10.3665 18.5493 9.65237C18.4522 9.50341 18.3505 9.3575 18.2443 9.21487L18.2455 9.21134L18.2485 9.20903H18.2518C18.2535 9.20903 18.2551 9.20903 18.2568 9.2107L18.5851 9.5482C19.3809 10.3687 20.0758 11.2813 20.6551 12.2666C21.1377 13.0941 21.5077 13.9716 21.701 14.8866C22.0085 16.3424 21.7593 17.8416 20.6126 18.8675C20.0093 19.4075 19.2335 19.735 18.4543 19.8966C17.3734 20.1191 16.2468 20.0866 15.1501 19.9025C14.5926 19.8091 14.0543 19.6858 13.5359 19.5333C11.3892 18.9033 9.3592 17.8241 7.58335 16.4691C6.5137 15.6676 5.53954 14.746 4.67999 13.7224C3.80248 12.6774 3.04998 11.4966 2.58414 10.2107C2.2783 9.3707 2.1058 8.43736 2.20747 7.55235C2.42997 5.63067 3.85748 4.50732 5.68583 4.16898C6.74001 3.97398 7.84752 4.01398 8.91837 4.19982C10.0585 4.39978 11.1712 4.73319 12.2334 5.19316V5.19649L12.2322 5.19858L12.2301 5.19983H12.2267C11.4482 4.98994 10.6407 4.90832 9.83588 4.95816C9.16337 4.99816 8.44753 5.17733 7.87169 5.50483C7.01001 5.99484 6.48001 6.72401 6.28251 7.69235C6.22641 7.99447 6.2071 8.30227 6.22501 8.60903C6.24584 9.09237 6.36084 9.60737 6.53084 10.0765Z" fill="#323544"/>
<path d="M17.1951 8.02902C17.1959 8.03776 17.1938 8.04651 17.1893 8.05402C16.8051 8.81736 16.4201 9.5807 16.0343 10.3432C15.6809 11.0407 15.4134 11.5407 15.2301 11.8432C14.5436 12.979 13.7084 14.0179 12.7467 14.9324C12.7435 14.9355 12.7393 14.9376 12.7349 14.9384C12.7304 14.9391 12.7258 14.9385 12.7217 14.9366C11.4106 14.4074 10.219 13.6205 9.21754 12.6224C9.10087 12.5057 8.9842 12.3824 8.86753 12.2499C8.8651 12.2468 8.86365 12.243 8.86337 12.2391C8.86337 12.2349 8.86337 12.2307 8.86587 12.2274C9.27734 11.5293 9.74559 10.8662 10.2659 10.2449C10.9394 9.44567 11.6933 8.71794 12.5159 8.07319C12.8559 7.80652 13.6742 7.16151 14.9743 6.13734L20.2218 2.00146L20.226 2L20.2301 2.00146C20.2317 2.00245 20.2329 2.00391 20.2335 2.00563C20.234 2.00726 20.234 2.009 20.2335 2.01063L17.1934 8.02902H17.1951Z" fill="#323544"/>
<path d="M3.86748 22C3.86915 22 3.87082 22 3.87165 21.9983L8.74086 18.1816C8.74305 18.18 8.7448 18.1778 8.74597 18.1754C8.74713 18.1729 8.74767 18.1702 8.74753 18.1675C8.74735 18.1647 8.74649 18.1621 8.74504 18.1597C8.74358 18.1574 8.74158 18.1555 8.7392 18.1541C7.99166 17.6855 7.27261 17.173 6.58584 16.6191H6.58084L6.57668 16.6208C6.57521 16.6218 6.57406 16.6233 6.57334 16.6249L3.86165 21.9892C3.86114 21.9908 3.86114 21.9925 3.86165 21.9942C3.86165 21.9958 3.86165 21.9975 3.86332 21.9983C3.86473 21.9995 3.86567 22.0001 3.86748 22Z" fill="#323544"/>
</svg>
