<svg width="24" height="24" viewBox="0 0 24 24" fill="none" xmlns="http://www.w3.org/2000/svg">
<path d="M2 7.88021C2 7.19188 2.74417 6.75855 3.34333 7.10021L8.84917 10.2335C9.13 10.3935 9.30333 10.6919 9.30333 11.0152V18.8069C9.30333 19.3035 8.90083 19.706 8.40417 19.706H2.9C2.78178 19.7062 2.6647 19.683 2.55546 19.6378C2.44621 19.5926 2.34695 19.5263 2.26336 19.4427C2.17977 19.3591 2.11348 19.2598 2.06829 19.1506C2.0231 19.0414 1.99989 18.9243 2 18.806V7.88021Z" fill="#323544"/>
<path d="M10.09 11.011C10.09 10.6902 10.2617 10.3927 10.54 10.2327L20.6525 4.41271C20.7892 4.33409 20.9442 4.29279 21.1019 4.29297C21.2595 4.29315 21.4144 4.33479 21.5509 4.41373C21.6874 4.49267 21.8008 4.60612 21.8796 4.7427C21.9584 4.87928 22 5.03419 22 5.19188V18.806C22 19.3027 21.5975 19.7052 21.1008 19.7052H10.9892C10.871 19.7053 10.754 19.6821 10.6448 19.637C10.5356 19.5919 10.4364 19.5257 10.3528 19.4421C10.2692 19.3586 10.2029 19.2595 10.1577 19.1503C10.1125 19.0412 10.0892 18.9242 10.0892 18.806L10.09 11.011Z" fill="#323544"/>
</svg>
