<svg width="24" height="24" viewBox="0 0 24 24" fill="none" xmlns="http://www.w3.org/2000/svg">
<path fill-rule="evenodd" clip-rule="evenodd" d="M5.73882 10.5945H4.55985L3.86892 12.2401L3.17799 10.5945H1.99902C2.42729 11.6145 2.85539 12.6346 3.28383 13.6545L2.80924 14.7848H3.9882C4.57777 13.3806 5.15305 11.9896 5.73879 10.5945L5.73882 10.5945ZM20.7302 9.2246H21.999L20.8517 11.997H19.5829L20.7302 9.2246ZM19.8948 12.2643C20.2898 12.2643 20.6101 12.5846 20.6101 12.9797C20.6101 13.3747 20.2898 13.695 19.8948 13.695C19.4997 13.695 19.1794 13.3747 19.1794 12.9797C19.1794 12.5846 19.4997 12.2643 19.8948 12.2643ZM17.4 10.5113C18.2885 10.5113 19.0086 11.2315 19.0086 12.1199C19.0086 13.0083 18.2884 13.7285 17.4 13.7285C16.5116 13.7285 15.7914 13.0083 15.7914 12.1199C15.7914 11.2315 16.5116 10.5113 17.4 10.5113ZM17.4 11.4918C17.7469 11.4918 18.0281 11.773 18.0281 12.1199C18.0281 12.4668 17.7469 12.748 17.4 12.748C17.0531 12.748 16.7719 12.4668 16.7719 12.1199C16.7719 11.773 17.0531 11.4918 17.4 11.4918ZM13.9466 10.5113C14.835 10.5113 15.5552 11.2315 15.5552 12.1199C15.5552 13.0083 14.835 13.7285 13.9466 13.7285C13.0581 13.7285 12.338 13.0083 12.338 12.1199C12.338 11.2315 13.0582 10.5113 13.9466 10.5113ZM13.9466 11.4918C14.2935 11.4918 14.5747 11.773 14.5747 12.1199C14.5747 12.4668 14.2935 12.748 13.9466 12.748C13.5997 12.748 13.3184 12.4668 13.3184 12.1199C13.3184 11.773 13.5997 11.4918 13.9466 11.4918ZM9.19747 9.21585H10.2612V10.8696C10.2612 10.8696 10.4473 10.5113 11.0621 10.5113C11.6768 10.5113 12.0711 10.7818 12.079 11.8893V13.695H11.0153V11.8893C11.0153 11.6811 10.8465 11.5123 10.6382 11.5123C10.4252 11.5123 10.256 11.6874 10.2613 11.9L10.2612 13.695H9.19744V9.21582L9.19747 9.21585ZM7.74903 10.5945H8.81277V13.695H7.74903V13.4028C7.51081 13.6072 7.21394 13.7286 6.89202 13.7286C6.10754 13.7286 5.4716 13.0084 5.4716 12.1199C5.4716 11.2315 6.10754 10.5113 6.89202 10.5113C7.21394 10.5113 7.51084 10.6327 7.74903 10.8371V10.5946V10.5945ZM7.14987 11.4918C7.49677 11.4918 7.778 11.773 7.778 12.1199C7.778 12.4668 7.49677 12.748 7.14987 12.748C6.80297 12.748 6.52175 12.4668 6.52175 12.1199C6.52175 11.773 6.80297 11.4918 7.14987 11.4918Z" fill="#323544"/>
</svg>
