<svg width="24" height="24" viewBox="0 0 24 24" fill="none" xmlns="http://www.w3.org/2000/svg">
<path d="M18.62 13.9268C19.231 13.9268 19.727 14.4318 19.727 15.0548V20.8718C19.727 21.4948 19.231 21.9998 18.619 21.9998C18.4722 21.9985 18.327 21.9682 18.1919 21.9108C18.0568 21.8535 17.9342 21.77 17.8314 21.6653C17.7285 21.5605 17.6472 21.4365 17.5922 21.3004C17.5373 21.1642 17.5097 21.0186 17.511 20.8718V15.0548C17.511 14.4318 18.007 13.9268 18.619 13.9268H18.62ZM16.59 3.05176C16.683 2.93909 16.7976 2.84617 16.927 2.7785C17.0565 2.71083 17.1982 2.66977 17.3438 2.65774C17.4894 2.64572 17.6359 2.66298 17.7747 2.70849C17.9135 2.75401 18.0418 2.82687 18.152 2.92276C18.618 3.32676 18.674 4.03876 18.278 4.51276L12.34 11.6238V20.7708C12.34 21.3948 11.844 21.8998 11.232 21.8998C11.0851 21.8985 10.9399 21.8682 10.8047 21.8108C10.6695 21.7533 10.5469 21.6697 10.444 21.5649C10.3411 21.46 10.2599 21.3359 10.205 21.1997C10.1501 21.0634 10.1225 20.9177 10.124 20.7708V11.2938L10.127 11.2058L10.137 11.1188C10.152 10.8868 10.239 10.6568 10.398 10.4648L16.59 3.05176ZM2.90599 2.25576C3.01788 2.16193 3.14742 2.09144 3.28698 2.04846C3.42654 2.00548 3.5733 1.99087 3.71859 2.00551C3.86389 2.02014 4.00478 2.06371 4.13297 2.13366C4.26116 2.2036 4.37405 2.2985 4.46499 2.41276L8.85199 7.86276C9.03824 8.09525 9.12628 8.39131 9.09732 8.68779C9.06836 8.98428 8.9247 9.25771 8.69698 9.44976C8.58509 9.5436 8.45555 9.61409 8.31599 9.65707C8.17643 9.70005 8.02967 9.71465 7.88438 9.70002C7.73908 9.68539 7.59819 9.64182 7.47 9.57187C7.34181 9.50193 7.22892 9.40703 7.13799 9.29276L2.75099 3.84276C2.579 3.62767 2.49038 3.35775 2.50141 3.08257C2.51243 2.80739 2.62235 2.54542 2.81099 2.34476L2.90599 2.25576Z" fill="#323544"/>
<path d="M20.146 12.0708C20.8938 12.0708 21.5 11.4534 21.5 10.6918C21.5 9.93016 20.8938 9.31276 20.146 9.31276C19.3982 9.31276 18.792 9.93016 18.792 10.6918C18.792 11.4534 19.3982 12.0708 20.146 12.0708Z" fill="#323544"/>
</svg>
