<svg width="24" height="24" viewBox="0 0 24 24" fill="none" xmlns="http://www.w3.org/2000/svg">
<path d="M5.2 8.54047C5.2 7.22964 4.10833 6.16797 2.76 6.16797H2V14.2371C2 16.2238 3.65667 17.8346 5.7 17.8346C7.74333 17.8346 9.4 16.2238 9.4 14.2371V10.0955C9.4 9.00047 10.3133 8.11214 11.44 8.11214C12.5667 8.11214 13.48 9.00047 13.48 10.0955V16.2788C13.48 17.138 14.1967 17.8346 15.08 17.8346H16.84V10.2705C16.84 8.00464 14.9508 6.16797 12.62 6.16797C10.2892 6.16797 8.4 8.00464 8.4 10.2705V14.3346C8.4 15.1938 7.68333 15.8905 6.8 15.8905C5.91667 15.8905 5.2 15.193 5.2 14.3346V8.54047ZM17.3517 8.20464C18.3308 8.95214 18.98 10.113 18.98 11.418V16.2788C18.98 17.138 19.6967 17.8346 20.58 17.8346H22V11.8063C22 11.6766 21.993 11.5469 21.9792 11.418C21.7792 9.55964 20.1633 8.11214 18.2 8.11214C17.9147 8.11173 17.6303 8.1433 17.3517 8.20464Z" fill="#323544"/>
</svg>
