<svg width="24" height="24" viewBox="0 0 24 24" fill="none" xmlns="http://www.w3.org/2000/svg">
<path d="M12 2C17.5225 2 22 6.4775 22 12C22 17.5225 17.5225 22 12 22C6.4775 22 2 17.5225 2 12C2 6.4775 6.4775 2 12 2ZM13.3767 2.93583L13.3683 2.935C13.8125 3.01583 14.2208 3.12917 14.5433 3.27167C19.6133 5.5075 20.7067 10.95 15.8775 15.22C15.2515 15.7735 14.4312 16.0557 13.5971 16.0044C12.7631 15.9532 11.9835 15.5727 11.43 14.9467C11.1246 14.6063 10.8998 14.2015 10.7723 13.7624C10.6448 13.3232 10.6178 12.861 10.6933 12.41C9.08167 12.91 7.9475 14.3308 7.75667 16.1183C7.58667 17.7117 8.02667 19.4883 9.47 20.8133L9.67417 20.8692C10.4167 21.0633 11.1967 21.1667 12 21.1667C17.0625 21.1667 21.1667 17.0625 21.1667 12C21.1667 7.40583 17.7867 3.6 13.3767 2.93583ZM4.29 7.175C4.14167 7.39917 4 7.62167 3.865 7.84417L3.66917 8.1725L3.73417 8.03333C3.13945 9.271 2.83153 10.6269 2.83333 12C2.83333 16.0992 5.52333 19.5692 9.235 20.7417L9.41333 20.7958C4.93583 17.44 4.36667 13.7908 7.39167 9.23333C7.53299 9.02981 7.63226 8.80013 7.68366 8.55774C7.73506 8.31536 7.73756 8.06515 7.69102 7.82179C7.64447 7.57843 7.54981 7.3468 7.41259 7.1405C7.27536 6.93419 7.09834 6.75735 6.89189 6.62035C6.68544 6.48334 6.45372 6.38893 6.2103 6.34264C5.96689 6.29635 5.71669 6.29911 5.47436 6.35077C5.23203 6.40243 5.00245 6.50194 4.79908 6.64347C4.5957 6.78501 4.42263 6.96571 4.29 7.175ZM12.7542 2.865C16.4275 3.97333 15.7625 7.37333 14.7933 8.635C14.0767 9.56583 12.3583 9.85167 11.7033 10.5C11.1483 11.0475 10.8058 11.7192 10.6933 12.41C11.1167 12.2802 11.5572 12.2139 12 12.215C13.1523 12.2162 14.2654 11.7964 15.13 11.0345C15.9945 10.2727 16.551 9.22121 16.6947 8.07786C16.8384 6.93452 16.5595 5.77805 15.9104 4.8259C15.2614 3.87376 14.2868 3.19153 13.17 2.9075C13.0315 2.88974 12.8925 2.87529 12.7533 2.86417L12.7542 2.865Z" fill="#323544"/>
</svg>
