<svg width="24" height="24" viewBox="0 0 24 24" fill="none" xmlns="http://www.w3.org/2000/svg">
<path d="M11.2724 1.88059C12.3093 1.84076 14.4076 1.97787 16.0862 3.48516C17.4634 4.7216 17.9377 7.01387 17.6169 8.79129C17.3227 10.4206 16.6295 11.7537 16.901 12.988C17.1725 14.2223 17.8635 14.8308 18.4513 15.0865C19.019 15.3332 19.5679 15.2592 19.4634 15.7282C19.3588 16.1972 18.6488 16.3701 18.1303 16.3701C17.846 16.3701 16.9862 16.2959 16.6047 16.0491C16.154 15.7573 16.0535 15.4959 15.8819 15.2857C15.8528 15.25 15.8013 15.2749 15.8082 15.3204C15.8864 15.8374 16.102 16.7147 16.4517 17.2588C16.7347 17.699 16.8516 18.02 17.4999 18.5631C18.1483 19.1061 18.4512 19.5999 17.8208 19.9496C17.2608 20.2601 16.0434 19.6246 15.3275 18.8387C14.6832 18.1313 14.2346 17.2587 14.0571 16.6909C13.9623 16.3874 13.8673 15.8652 13.7724 15.4382C13.7599 15.382 13.683 15.391 13.6814 15.4485C13.6498 16.5355 13.479 17.5736 13.2292 18.6865C13.0493 19.4877 12.612 20.4639 12.217 21.0564C11.7354 21.7788 11.0204 22.0042 10.489 21.8067C10.064 21.6487 10.3656 21.1116 10.489 20.6465C10.6124 20.1816 10.8594 19.2089 11.0257 18.1434C11.1762 17.1789 11.216 16.2241 11.149 15.3195C11.1448 15.2643 11.06 15.2558 11.0429 15.3084C10.9043 15.7327 10.6432 16.4361 10.4527 16.8638C10.0554 17.7559 9.76137 18.1474 8.94672 19.0856C8.21409 19.9292 6.10694 21.1222 5.83629 19.9496C5.76225 19.6287 6.15026 19.4881 6.50809 19.2089C7.04597 18.7893 7.49545 18.0446 7.92162 17.1353C8.30429 16.3188 8.49879 15.5289 8.52855 15.0247C8.53137 14.9761 8.47031 14.9577 8.44292 14.9979C8.26578 15.2577 8.00495 15.6093 7.71765 15.9009C7.23775 16.3881 6.70547 16.8896 6.08819 17.1353C5.09572 17.5303 4.08364 17.2587 4.15763 16.543C4.21948 15.9449 4.88706 16.0687 5.7181 15.1621C6.53275 14.2733 6.8042 13.582 6.85357 12.8167C6.89303 12.2045 6.2941 10.7514 5.98963 10.1013C5.50412 9.06446 5.14536 6.12185 6.6068 4.22594C8.43354 1.85611 10.6305 1.90527 11.2724 1.88059ZM8.42273 6.0248C7.74304 6.0248 7.4032 6.54649 7.40318 7.19C7.40318 7.83351 7.78079 8.3552 8.42273 8.3552C9.06465 8.35519 9.44228 7.83351 9.44228 7.19C9.44225 6.5465 9.10241 6.0248 8.42273 6.0248ZM13.9574 6.0248C13.2777 6.0248 12.9379 6.54649 12.9379 7.19C12.9379 7.83351 13.3155 8.3552 13.9574 8.3552C14.5994 8.35519 14.977 7.83351 14.977 7.19C14.977 6.5465 14.6371 6.0248 13.9574 6.0248Z" fill="#323544"/>
</svg>
