<svg width="24" height="24" viewBox="0 0 24 24" fill="none" xmlns="http://www.w3.org/2000/svg">
<path d="M5.80883 11.9987C5.80883 12.7659 5.73 13.4232 5.57325 13.9704C5.41558 14.5186 5.16075 14.9375 4.806 15.229C4.45217 15.5196 3.98283 15.6654 3.39983 15.6654C2.57392 15.6654 1.96708 15.3418 1.58025 14.6946C1.19342 14.0474 1 13.1491 1 11.9987C1 11.2314 1.07883 10.5742 1.23558 10.0269C1.39325 9.47878 1.64808 9.05986 1.99825 8.76836C2.34933 8.4787 2.81592 8.33203 3.39983 8.33203C4.21933 8.33203 4.82525 8.65378 5.21942 9.29728C5.61267 9.94078 5.80883 10.8419 5.80883 11.9987ZM2.24942 11.9987C2.24942 12.875 2.33192 13.5277 2.49967 13.9549C2.66742 14.3829 2.96717 14.5965 3.39983 14.5965C3.82608 14.5965 4.12583 14.3857 4.29908 13.9604C4.47325 13.5359 4.56033 12.8824 4.56033 11.9987C4.56033 11.1224 4.47325 10.4697 4.29908 10.0425C4.12492 9.61445 3.82608 9.40086 3.39983 9.40086C2.96717 9.40086 2.6665 9.61445 2.49967 10.0425C2.33283 10.4697 2.24942 11.1224 2.24942 11.9987ZM10.0594 15.4554H8.80725L8.81733 9.68503L7.14625 9.98203V8.85545L9.01625 8.43653H10.0576V15.4554H10.0594ZM12.3483 13.9888H12.8461C13.1211 13.9888 13.3438 14.2234 13.3438 14.5131V15.0365C13.3473 15.172 13.2968 15.3034 13.2035 15.4017C13.1101 15.5 12.9816 15.5573 12.8461 15.5609H12.3483C12.2128 15.5573 12.0843 15.5 11.991 15.4017C11.8976 15.3034 11.8471 15.172 11.8506 15.0365V14.5131C11.8506 14.2234 12.0733 13.9888 12.3483 13.9888ZM21.8056 8.43653H23V15.5609H21.8056V8.43653ZM18.4212 8.43653L20.8101 15.5609H19.6157L18.9832 13.6744H16.1663L15.5337 15.5609H14.3393L16.7282 8.43653H18.4212ZM18.5963 12.5221L17.5742 9.47603L16.5531 12.5221H18.5963Z" fill="#323544"/>
</svg>
