<svg width="24" height="24" viewBox="0 0 24 24" fill="none" xmlns="http://www.w3.org/2000/svg">
<path d="M11.9927 21.5858C11.9656 21.5853 11.9386 21.5904 11.9135 21.6006C11.8884 21.6109 11.8657 21.6262 11.8467 21.6455C11.8276 21.6648 11.8127 21.6878 11.8029 21.7131C11.793 21.7383 11.7884 21.7654 11.7893 21.7925C11.7883 21.8196 11.7928 21.8467 11.8026 21.8721C11.8124 21.8974 11.8273 21.9205 11.8463 21.94C11.8654 21.9594 11.8882 21.9747 11.9133 21.985C11.9385 21.9953 11.9655 22.0004 11.9927 22C12.0199 22.0005 12.047 21.9955 12.0723 21.9853C12.0975 21.975 12.1204 21.9597 12.1395 21.9403C12.1587 21.9208 12.1736 21.8977 12.1835 21.8723C12.1933 21.8469 12.1979 21.8197 12.1968 21.7925C12.1985 21.7412 12.1804 21.6912 12.1463 21.6529C12.1122 21.6146 12.0646 21.5909 12.0135 21.5866L11.9927 21.5858ZM10.0593 6.47087C10.4163 6.58521 10.7132 6.83655 10.8849 7.16968C11.0566 7.50281 11.0891 7.89048 10.9752 8.24753L10.916 8.39086L10.9027 8.4242L10.8877 8.4692C10.8293 8.60253 10.801 8.73586 10.801 8.88419C10.7718 9.47586 11.1927 9.95002 11.7893 9.97919H12.0943C13.1852 10.0234 14.0427 10.9567 13.9993 12.0817C13.956 13.1917 13.0393 14.065 11.9343 14.0208H11.7893C11.1935 14.0358 10.7277 14.5542 10.7568 15.1608C10.7568 15.2642 10.7718 15.3525 10.801 15.4417C10.9752 15.7525 11.251 15.99 11.601 16.1083C12.226 16.3 12.8652 16.0042 13.1843 15.4567L13.1993 15.4275C13.5343 14.8942 14.1743 14.6275 14.7993 14.835C15.511 15.0717 15.9476 15.8567 15.7151 16.6408C15.6619 16.8149 15.5749 16.9767 15.4591 17.1171C15.3433 17.2575 15.2009 17.3736 15.0402 17.4589C14.8794 17.5442 14.7034 17.597 14.5222 17.6142C14.3411 17.6314 14.1583 17.6127 13.9843 17.5591C13.6714 17.455 13.4043 17.2456 13.2285 16.9666L13.2143 16.9375C13.0477 16.6683 12.8285 16.4542 12.5052 16.345L12.4585 16.33C12.1571 16.2288 11.8299 16.2355 11.5329 16.3489C11.2359 16.4623 10.9875 16.6754 10.8302 16.9516C10.7332 17.1124 10.6045 17.2518 10.4519 17.3613C10.2993 17.4707 10.1261 17.548 9.94268 17.5883C9.58164 17.6657 9.20466 17.597 8.8941 17.3973C8.58353 17.1976 8.36462 16.8831 8.28519 16.5225C8.11102 15.7675 8.56185 14.9975 9.33268 14.82C9.41374 14.8022 9.49636 14.7924 9.57934 14.7908H9.59434C10.161 14.7317 10.5535 14.2725 10.5243 13.68C10.5174 13.4735 10.4517 13.2732 10.3352 13.1025C10.1209 12.7512 10.0149 12.3446 10.0302 11.9333C10.0398 11.5765 10.1451 11.2288 10.3352 10.9267C10.4518 10.7642 10.5102 10.5567 10.5243 10.3492C10.5393 9.75752 10.1027 9.29836 9.53601 9.23919L9.47768 9.22419C9.39277 9.21375 9.30923 9.19419 9.22851 9.16586L9.18685 9.15003C8.84173 9.02634 8.55801 8.77369 8.3953 8.44517C8.23259 8.11664 8.20358 7.73784 8.31435 7.38837C8.42543 7.03622 8.67114 6.74222 8.99796 6.57038C9.32479 6.39854 9.70627 6.36278 10.0593 6.47087ZM5.41354 14.8958C5.6302 14.6758 5.94603 14.59 6.24186 14.6708C6.5377 14.7508 6.76936 14.9867 6.84853 15.2875C6.92769 15.5892 6.84269 15.9108 6.62603 16.1317C6.29103 16.4733 5.74853 16.4733 5.41354 16.1317C5.25258 15.9664 5.16251 15.7448 5.16251 15.5142C5.16251 15.2835 5.25258 15.0611 5.41354 14.8958ZM17.7843 14.6508C18.0835 14.5758 18.3993 14.6708 18.611 14.8983C18.8226 15.1267 18.8976 15.4525 18.8085 15.7525C18.7193 16.0525 18.4785 16.2808 18.1785 16.3508C17.7193 16.4575 17.2618 16.1675 17.1535 15.7C17.1003 15.4772 17.1366 15.2425 17.2545 15.0462C17.3725 14.8499 17.5627 14.7085 17.7843 14.6508ZM17.731 10.9925C17.9926 11.2592 18.1393 11.62 18.1393 11.9975C18.1393 12.3742 17.9926 12.7358 17.731 13.0025C17.4685 13.2692 17.1143 13.4192 16.7435 13.4192C16.3735 13.4192 16.0185 13.2692 15.7568 13.0025C15.4946 12.7337 15.3478 12.373 15.3478 11.9975C15.3478 11.622 15.4946 11.2613 15.7568 10.9925C15.8852 10.8608 16.0387 10.756 16.2082 10.6845C16.3778 10.613 16.5599 10.5762 16.7439 10.5762C16.9279 10.5762 17.11 10.613 17.2795 10.6845C17.4491 10.756 17.6026 10.8608 17.731 10.9925ZM8.36185 11.1283C8.66518 11.5317 8.73435 12.0683 8.54352 12.5375C8.47559 12.7087 8.37426 12.8647 8.24541 12.9964C8.11657 13.128 7.96281 13.2327 7.79308 13.3043C7.62336 13.3759 7.44108 13.413 7.25688 13.4134C7.07267 13.4138 6.89023 13.3775 6.72019 13.3067C6.0077 13.0067 5.6702 12.175 5.96437 11.45C6.05642 11.2209 6.20743 11.0202 6.40207 10.8683C6.59672 10.7164 6.82808 10.6187 7.07269 10.585C7.56686 10.5184 8.05852 10.7259 8.36185 11.1283ZM17.9826 7.61087C18.2893 7.61087 18.5726 7.77753 18.726 8.04753C18.8793 8.31753 18.8793 8.65086 18.726 8.92086C18.6518 9.05297 18.544 9.16301 18.4134 9.23974C18.2828 9.31646 18.1341 9.35711 17.9826 9.35752C17.5093 9.35752 17.1243 8.96586 17.1243 8.4842C17.1243 8.0017 17.5093 7.61087 17.9826 7.61087ZM6.0177 7.61087C6.32436 7.61087 6.60686 7.77753 6.76019 8.04753C6.91353 8.31753 6.91353 8.65086 6.76019 8.92086C6.68615 9.05284 6.5784 9.16281 6.44795 9.23953C6.31751 9.31624 6.16903 9.35696 6.0177 9.35752C5.54353 9.35752 5.15937 8.96586 5.15937 8.4842C5.15937 8.0017 5.54353 7.61087 6.0177 7.61087ZM14.3768 6.38171C15.1476 6.38171 15.7726 7.01837 15.7726 7.80337C15.7726 8.58836 15.1476 9.22419 14.3768 9.22419C13.606 9.22419 12.9818 8.58836 12.9818 7.80337C12.9818 7.01837 13.6068 6.38171 14.3768 6.38171ZM12.1885 5.81171C12.4902 5.74338 12.7327 5.51505 12.8227 5.21338C12.8671 5.06569 12.8722 4.90894 12.8374 4.75868C12.8026 4.60841 12.7292 4.46985 12.6243 4.35672C12.5208 4.24508 12.389 4.16341 12.243 4.1203C12.0969 4.07718 11.9419 4.07422 11.7943 4.11172C11.3385 4.22839 11.0602 4.69505 11.1677 5.15921C11.276 5.62421 11.7302 5.91504 12.1885 5.81171ZM12.1885 19.875C12.4877 19.8025 12.7252 19.575 12.8135 19.275C12.8567 19.1284 12.8612 18.9732 12.8266 18.8244C12.792 18.6756 12.7194 18.5383 12.616 18.4258C12.5138 18.3148 12.3839 18.233 12.2396 18.1889C12.0954 18.1448 11.9419 18.14 11.7952 18.175C11.6459 18.2093 11.5084 18.2828 11.3968 18.3878C11.2852 18.4928 11.2035 18.6255 11.1602 18.7725C11.0702 19.0733 11.146 19.4008 11.3593 19.6291C11.5635 19.8483 11.8643 19.9433 12.1535 19.8833L12.1885 19.875ZM16.3251 4.91672C16.3946 4.91639 16.4633 4.9023 16.5273 4.87526C16.5913 4.84822 16.6494 4.80877 16.698 4.75917C16.7467 4.70958 16.785 4.65084 16.8109 4.58634C16.8367 4.52184 16.8495 4.45286 16.8485 4.38339C16.8485 4.08755 16.616 3.85006 16.3251 3.85006C16.2557 3.85038 16.1869 3.86447 16.1229 3.89151C16.0589 3.91855 16.0009 3.95801 15.9523 4.0076C15.9036 4.05719 15.8653 4.11593 15.8394 4.18043C15.8136 4.24493 15.8008 4.31391 15.8018 4.38339C15.8018 4.67922 16.0351 4.91672 16.3251 4.91672ZM7.67519 4.91672C7.74467 4.91639 7.81339 4.9023 7.87739 4.87526C7.94139 4.84822 7.9994 4.80877 8.04806 4.75917C8.09672 4.70958 8.13508 4.65084 8.1609 4.58634C8.18673 4.52184 8.19951 4.45286 8.19852 4.38339C8.19852 4.08755 7.96519 3.85006 7.67519 3.85006C7.60571 3.85038 7.53699 3.86447 7.47298 3.89151C7.40898 3.91855 7.35098 3.95801 7.30232 4.0076C7.25365 4.05719 7.2153 4.11593 7.18948 4.18043C7.16365 4.24493 7.15087 4.31391 7.15186 4.38339C7.15186 4.67922 7.38436 4.91672 7.67519 4.91672ZM3.35688 11.46C3.2874 11.4603 3.21868 11.4744 3.15468 11.5015C3.09068 11.5285 3.03267 11.568 2.98401 11.6176C2.93534 11.6671 2.89699 11.7259 2.87117 11.7904C2.84534 11.8549 2.83256 11.9239 2.83355 11.9933C2.83355 12.2883 3.06688 12.5258 3.35688 12.5258C3.49229 12.5253 3.62225 12.4724 3.71961 12.3783C3.81698 12.2842 3.87422 12.1562 3.87938 12.0208L3.88021 11.9925C3.88247 11.9227 3.87055 11.8532 3.84518 11.7881C3.81981 11.723 3.78151 11.6638 3.73259 11.6139C3.68368 11.5641 3.62517 11.5247 3.56059 11.4981C3.49601 11.4715 3.42671 11.4591 3.35688 11.46ZM7.67519 19.0683C7.60571 19.0686 7.53699 19.0827 7.47298 19.1098C7.40898 19.1368 7.35098 19.1763 7.30232 19.2258C7.25365 19.2754 7.2153 19.3342 7.18948 19.3987C7.16365 19.4632 7.15087 19.5322 7.15186 19.6016C7.15186 19.8975 7.38436 20.135 7.67519 20.135C7.74467 20.1346 7.81339 20.1206 7.87739 20.0935C7.94139 20.0665 7.9994 20.027 8.04806 19.9774C8.09672 19.9278 8.13508 19.8691 8.1609 19.8046C8.18673 19.7401 8.19951 19.6711 8.19852 19.6016C8.19852 19.3058 7.96519 19.0683 7.67519 19.0683ZM16.3251 19.0833C16.2557 19.0836 16.1869 19.0977 16.1229 19.1248C16.0589 19.1518 16.0009 19.1913 15.9523 19.2408C15.9036 19.2904 15.8653 19.3492 15.8394 19.4137C15.8136 19.4782 15.8008 19.5472 15.8018 19.6166C15.8018 19.9125 16.0351 20.15 16.3251 20.15C16.3946 20.1496 16.4633 20.1355 16.5273 20.1085C16.5913 20.0815 16.6494 20.042 16.698 19.9924C16.7467 19.9428 16.785 19.8841 16.8109 19.8196C16.8367 19.7551 16.8495 19.6861 16.8485 19.6166C16.8485 19.3208 16.616 19.0833 16.3251 19.0833ZM20.6434 11.46C20.574 11.4603 20.5052 11.4744 20.4412 11.5015C20.3772 11.5285 20.3192 11.568 20.2706 11.6176C20.2219 11.6671 20.1836 11.7259 20.1577 11.7904C20.1319 11.8549 20.1191 11.9239 20.1201 11.9933C20.1201 12.2883 20.3526 12.5258 20.6434 12.5258C20.7129 12.5255 20.7817 12.5114 20.8457 12.4844C20.9097 12.4573 20.9677 12.4179 21.0163 12.3683C21.065 12.3187 21.1033 12.26 21.1292 12.1955C21.155 12.131 21.1678 12.062 21.1668 11.9925C21.1668 11.6967 20.9334 11.46 20.6434 11.46ZM20.3235 7.30004C20.3506 7.30051 20.3776 7.29543 20.4028 7.28512C20.428 7.2748 20.4507 7.25947 20.4698 7.24005C20.4888 7.22063 20.5037 7.19753 20.5135 7.17217C20.5233 7.1468 20.5278 7.11971 20.5268 7.09254C20.5278 7.06537 20.5233 7.03827 20.5135 7.01291C20.5037 6.98755 20.4888 6.96445 20.4698 6.94503C20.4507 6.92561 20.428 6.91027 20.4028 6.89996C20.3776 6.88964 20.3506 6.88457 20.3235 6.88504C20.2963 6.88457 20.2693 6.88964 20.2441 6.89996C20.2189 6.91027 20.1962 6.92561 20.1771 6.94503C20.1581 6.96445 20.1432 6.98755 20.1334 7.01291C20.1236 7.03827 20.1191 7.06537 20.1201 7.09254C20.1201 7.21087 20.2218 7.30004 20.3235 7.30004ZM11.9927 2.41423C12.0198 2.41481 12.0469 2.40985 12.0721 2.39963C12.0973 2.38942 12.1201 2.37418 12.1392 2.35483C12.1583 2.33549 12.1733 2.31246 12.1832 2.28714C12.1931 2.26181 12.1977 2.23474 12.1968 2.20756C12.1979 2.18025 12.1933 2.15301 12.1834 2.12754C12.1735 2.10206 12.1585 2.07888 12.1392 2.05944C12.12 2.03999 12.097 2.02469 12.0717 2.01448C12.0463 2.00427 12.0192 1.99936 11.9918 2.00007C11.9646 1.99959 11.9376 2.00467 11.9125 2.01498C11.8873 2.0253 11.8645 2.04064 11.8455 2.06006C11.8265 2.07948 11.8116 2.10257 11.8018 2.12794C11.792 2.1533 11.7875 2.18039 11.7885 2.20756C11.7885 2.3184 11.8785 2.40423 11.9743 2.4134L11.9927 2.41423ZM3.67604 7.30004C3.7033 7.30062 3.73039 7.29563 3.75565 7.28537C3.7809 7.27511 3.80379 7.25979 3.82291 7.24035C3.84204 7.22092 3.85698 7.19778 3.86683 7.17237C3.87669 7.14695 3.88124 7.11978 3.88021 7.09254C3.88123 7.06537 3.87671 7.03827 3.8669 7.01291C3.8571 6.98755 3.84223 6.96445 3.8232 6.94503C3.80417 6.92561 3.78138 6.91027 3.75622 6.89996C3.73106 6.88964 3.70406 6.88457 3.67688 6.88504C3.64969 6.88457 3.62269 6.88964 3.59754 6.89996C3.57238 6.91027 3.54959 6.92561 3.53056 6.94503C3.51152 6.96445 3.49665 6.98755 3.48685 7.01291C3.47705 7.03827 3.47252 7.06537 3.47355 7.09254C3.47252 7.11971 3.47705 7.1468 3.48685 7.17217C3.49665 7.19753 3.51152 7.22063 3.53056 7.24005C3.54959 7.25947 3.57238 7.2748 3.59754 7.28512C3.62269 7.29543 3.64886 7.30051 3.67604 7.30004ZM3.67604 16.6858C3.649 16.6855 3.62217 16.6906 3.59716 16.7009C3.57216 16.7112 3.54951 16.7265 3.53058 16.7458C3.51165 16.7651 3.49684 16.7881 3.48703 16.8133C3.47723 16.8385 3.47264 16.8655 3.47355 16.8925C3.47252 16.9197 3.47705 16.9467 3.48685 16.9721C3.49665 16.9975 3.51152 17.0206 3.53056 17.04C3.54959 17.0594 3.57238 17.0747 3.59754 17.0851C3.62269 17.0954 3.64969 17.1005 3.67688 17.1C3.70406 17.1005 3.73106 17.0954 3.75622 17.0851C3.78138 17.0747 3.80417 17.0594 3.8232 17.04C3.84223 17.0206 3.8571 16.9975 3.8669 16.9721C3.87671 16.9467 3.88123 16.9197 3.88021 16.8925C3.87938 16.8385 3.85779 16.7869 3.81993 16.7484C3.78207 16.7099 3.73 16.6875 3.67604 16.6858ZM20.3385 16.6708C20.3113 16.6702 20.2843 16.6752 20.2591 16.6854C20.2339 16.6956 20.211 16.7109 20.1919 16.7302C20.1728 16.7496 20.1578 16.7726 20.1479 16.7979C20.138 16.8232 20.1334 16.8503 20.1343 16.8775C20.1331 16.9048 20.1376 16.9321 20.1474 16.9576C20.1572 16.9831 20.1721 17.0063 20.1913 17.0258C20.2104 17.0454 20.2333 17.0608 20.2586 17.0711C20.284 17.0814 20.3111 17.0864 20.3385 17.0858C20.3657 17.0863 20.3928 17.0812 20.418 17.0708C20.4432 17.0605 20.466 17.045 20.4851 17.0255C20.5041 17.006 20.519 16.9828 20.5287 16.9574C20.5385 16.9319 20.5429 16.9047 20.5418 16.8775C20.541 16.8235 20.5194 16.7719 20.4815 16.7334C20.4436 16.6949 20.3924 16.6725 20.3385 16.6708Z" fill="#323544"/>
</svg>
