<svg width="24" height="25" viewBox="0 0 24 25" fill="none" xmlns="http://www.w3.org/2000/svg">
<path opacity="0.4" d="M8.36533 7.25H15.6347H17.4657H19.75C20.9926 7.25 22 8.25736 22 9.5V10.2851C22 10.9634 21.694 11.6056 21.1671 12.0328L20.0045 12.9754L19.2012 19.2842C19.0581 20.4079 18.102 21.25 16.9692 21.25H7.03079C5.89803 21.25 4.94189 20.4079 4.79881 19.2842L3.99548 12.9754L2.83295 12.0328C2.30604 11.6056 2 10.9634 2 10.2851V9.5C2 8.25736 3.00736 7.25 4.25 7.25H6.53432H8.36533ZM14.25 12C13.8358 12 13.5 12.3358 13.5 12.75V16.75C13.5 17.1642 13.8358 17.5 14.25 17.5C14.6642 17.5 15 17.1642 15 16.75V12.75C15 12.3358 14.6642 12 14.25 12ZM9.75 12C9.33579 12 9 12.3358 9 12.75V16.75C9 17.1642 9.33579 17.5 9.75 17.5C10.1642 17.5 10.5 17.1642 10.5 16.75V12.75C10.5 12.3358 10.1642 12 9.75 12Z" fill="#323544"/>
<path d="M10.4999 12.7501C10.4999 12.3359 10.1641 12.0001 9.74986 12.0001C9.33564 12.0001 8.99986 12.3359 8.99986 12.7501V16.7501C8.99986 17.1643 9.33564 17.5001 9.74986 17.5001C10.1641 17.5001 10.4999 17.1643 10.4999 16.7501V12.7501Z" fill="#323544"/>
<path d="M14.2499 12.0001C14.6641 12.0001 14.9999 12.3359 14.9999 12.7501V16.7501C14.9999 17.1643 14.6641 17.5001 14.2499 17.5001C13.8356 17.5001 13.4999 17.1643 13.4999 16.7501V12.7501C13.4999 12.3359 13.8356 12.0001 14.2499 12.0001Z" fill="#323544"/>
<path d="M10.8642 3.68017C11.1018 3.34084 11.0192 2.87319 10.6799 2.63565C10.3406 2.39811 9.87292 2.48062 9.63538 2.81996L6.53418 7.25006H8.36519L10.8642 3.68017Z" fill="#323544"/>
<path d="M13.1355 3.68017L15.6345 7.25006H17.4655L14.3643 2.81996C14.1268 2.48062 13.6591 2.39811 13.3198 2.63565C12.9805 2.87319 12.898 3.34084 13.1355 3.68017Z" fill="#323544"/>
</svg>
