<svg width="24" height="25" viewBox="0 0 24 25" fill="none" xmlns="http://www.w3.org/2000/svg">
<path d="M3.25 10.0957C3.56503 10.1975 3.9011 10.2525 4.25 10.2525H19.75C20.0989 10.2525 20.435 10.1975 20.75 10.0957V19.0025C20.75 20.2451 19.7426 21.2525 18.5 21.2525H5.5C4.25736 21.2525 3.25 20.2451 3.25 19.0025V10.0957ZM9.25 13.7525C9.25 14.1667 9.58579 14.5025 10 14.5025H14C14.4142 14.5025 14.75 14.1667 14.75 13.7525C14.75 13.3382 14.4142 13.0025 14 13.0025H10C9.58579 13.0025 9.25 13.3382 9.25 13.7525Z" fill="#323544"/>
<path opacity="0.4" d="M20.75 9.01807C20.7744 9.00594 20.7986 8.99337 20.8225 8.98039C21.5239 8.59938 22 7.85627 22 7.00195V6.00195C22 4.75931 20.9926 3.75195 19.75 3.75195H4.25C3.00736 3.75195 2 4.75931 2 6.00195V7.00195C2 7.88538 2.50914 8.6499 3.25 9.01807C3.55124 9.16778 3.89079 9.25195 4.25 9.25195H19.75C20.1092 9.25195 20.4488 9.16778 20.75 9.01807Z" fill="#323544"/>
</svg>
