<svg width="24" height="25" viewBox="0 0 24 25" fill="none" xmlns="http://www.w3.org/2000/svg">
<path d="M7.5 5.11914C7.5 3.66939 8.67525 2.49414 10.125 2.49414C10.8595 2.49414 11.5236 2.79582 12 3.28202C12.4764 2.79582 13.1405 2.49414 13.875 2.49414C15.3247 2.49414 16.5 3.66939 16.5 5.11914C16.5 5.53641 16.4026 5.93093 16.2294 6.28124H18.5081C19.7507 6.28124 20.7581 7.2886 20.7581 8.53124V8.99414C20.7581 9.04508 20.7564 9.09562 20.7531 9.14571C20.7031 9.89713 20.2842 10.5476 19.6759 10.9177C19.3355 11.1248 18.9357 11.2441 18.5081 11.2441H5.49219C5.06455 11.2441 4.66478 11.1248 4.32434 10.9177C3.67551 10.5229 3.24219 9.80915 3.24219 8.99414V8.53124C3.24219 7.2886 4.24955 6.28124 5.49219 6.28124H7.7706C7.59736 5.93093 7.5 5.53641 7.5 5.11914ZM12.75 6.24414H13.875C14.4963 6.24414 15 5.74046 15 5.11914C15 4.49782 14.4963 3.99414 13.875 3.99414C13.2537 3.99414 12.75 4.49782 12.75 5.11914V6.24414ZM11.25 5.11914C11.25 4.49782 10.7463 3.99414 10.125 3.99414C9.50368 3.99414 9 4.49782 9 5.11914C9 5.74046 9.50368 6.24414 10.125 6.24414H11.25V5.11914Z" fill="#323544"/>
<path opacity="0.4" d="M4.32422 12.0273V19.4935C4.32422 20.7361 5.33158 21.7435 6.57422 21.7435H17.4258C18.6684 21.7435 19.6758 20.7361 19.6758 19.4935V12.0273C19.3134 12.167 18.9196 12.2435 18.508 12.2435H5.49206C5.08042 12.2435 4.68666 12.167 4.32422 12.0273Z" fill="#323544"/>
</svg>
