<svg width="24" height="25" viewBox="0 0 24 25" fill="none" xmlns="http://www.w3.org/2000/svg">
<path d="M1.56641 4.48242C1.56641 4.06821 1.90219 3.73242 2.31641 3.73242H3.49696C4.61854 3.73242 5.56885 4.55844 5.72504 5.6691L5.7862 6.10403H19.7507C21.3714 6.10403 22.4605 7.76586 21.8137 9.25196L19.1464 15.3803C18.789 16.2014 17.9788 16.7324 17.0833 16.7324L7.72179 16.7324C6.60021 16.7324 5.6499 15.9064 5.49371 14.7957L4.23965 5.87798C4.18759 5.50776 3.87082 5.23242 3.49696 5.23242H2.31641C1.90219 5.23242 1.56641 4.89664 1.56641 4.48242Z" fill="#323544"/>
<g opacity="0.4">
<path d="M7.7832 18.2324C6.8167 18.2324 6.0332 19.0159 6.0332 19.9824C6.0332 20.9489 6.8167 21.7324 7.7832 21.7324H7.7932C8.7597 21.7324 9.5432 20.9489 9.5432 19.9824C9.5432 19.0159 8.7597 18.2324 7.7932 18.2324H7.7832Z" fill="#323544"/>
<path d="M16.3203 18.2324C15.3538 18.2324 14.5703 19.0159 14.5703 19.9824C14.5703 20.9489 15.3538 21.7324 16.3203 21.7324H16.3303C17.2968 21.7324 18.0803 20.9489 18.0803 19.9824C18.0803 19.0159 17.2968 18.2324 16.3303 18.2324H16.3203Z" fill="#323544"/>
</g>
</svg>
