<svg width="24" height="25" viewBox="0 0 24 25" fill="none" xmlns="http://www.w3.org/2000/svg">
<path opacity="0.4" d="M12.75 2.5C12.75 2.08579 12.4142 1.75 12 1.75C11.5858 1.75 11.25 2.08579 11.25 2.5V3.36106C11.1327 3.40253 11.0181 3.45404 10.9073 3.51557L5.6573 6.43223C4.94301 6.82907 4.5 7.58196 4.5 8.39909V20.2509C4.5 21.4935 5.50736 22.5009 6.75 22.5009H17.25C18.4926 22.5009 19.5 21.4935 19.5 20.2509V8.39909C19.5 7.58196 19.057 6.82907 18.3427 6.43223L13.0927 3.51557C12.9819 3.45404 12.8673 3.40253 12.75 3.36106V2.5ZM12.0001 5.35352C12.4972 5.35352 12.9002 5.75646 12.9002 6.25352C12.9002 6.75057 12.4973 7.15352 12.0002 7.15352C11.5031 7.15352 11.1001 6.75057 11.1001 6.25352C11.1001 5.75646 11.503 5.35352 12.0001 5.35352ZM12.75 9.5V9.93778C13.7408 10.0884 14.5 10.944 14.5 11.9768C14.5 12.3911 14.1642 12.7268 13.75 12.7268C13.3358 12.7268 13 12.3911 13 11.9768C13 11.6661 12.7481 11.4142 12.4374 11.4142H11.75C11.3358 11.4142 11 11.75 11 12.1642V12.4293C11 12.7419 11.1939 13.0218 11.4866 13.1316L13.0401 13.7141C13.9182 14.0435 14.5 14.883 14.5 15.8209V16.0859C14.5 17.1567 13.752 18.0528 12.75 18.2802V18.75C12.75 19.1642 12.4142 19.5 12 19.5C11.5858 19.5 11.25 19.1642 11.25 18.75V18.3124C10.2592 18.1618 9.5 17.3062 9.5 16.2733C9.5 15.8591 9.83579 15.5233 10.25 15.5233C10.6642 15.5233 11 15.8591 11 16.2733C11 16.5841 11.2519 16.8359 11.5626 16.8359H12.25C12.6642 16.8359 13 16.5002 13 16.0859V15.8209C13 15.5082 12.8061 15.2284 12.5134 15.1186L10.9599 14.536C10.0818 14.2067 9.5 13.3672 9.5 12.4293V12.1642C9.5 11.0934 10.248 10.1974 11.25 9.97V9.5C11.25 9.08579 11.5858 8.75 12 8.75C12.4142 8.75 12.75 9.08579 12.75 9.5Z" fill="#323544"/>
<path d="M12 8.75C12.4142 8.75 12.75 9.08579 12.75 9.5V9.93778C13.7408 10.0884 14.5 10.944 14.5 11.9768C14.5 12.3911 14.1642 12.7268 13.75 12.7268C13.3358 12.7268 13 12.3911 13 11.9768C13 11.6661 12.7481 11.4142 12.4374 11.4142H11.75C11.3358 11.4142 11 11.75 11 12.1642V12.4293C11 12.7419 11.1939 13.0218 11.4866 13.1316L13.0401 13.7141C13.9182 14.0435 14.5 14.883 14.5 15.8209V16.0859C14.5 17.1567 13.752 18.0528 12.75 18.2802V18.75C12.75 19.1642 12.4142 19.5 12 19.5C11.5858 19.5 11.25 19.1642 11.25 18.75V18.3124C10.2592 18.1618 9.5 17.3062 9.5 16.2733C9.5 15.8591 9.83579 15.5233 10.25 15.5233C10.6642 15.5233 11 15.8591 11 16.2733C11 16.5841 11.2519 16.8359 11.5626 16.8359H12.25C12.6642 16.8359 13 16.5002 13 16.0859V15.8209C13 15.5082 12.8061 15.2284 12.5134 15.1186L10.9599 14.536C10.0818 14.2067 9.5 13.3672 9.5 12.4293V12.1642C9.5 11.0934 10.248 10.1974 11.25 9.97V9.5C11.25 9.08579 11.5858 8.75 12 8.75Z" fill="#323544"/>
</svg>
