<svg width="24" height="25" viewBox="0 0 24 25" fill="none" xmlns="http://www.w3.org/2000/svg">
<path d="M3.25 6.125C3.25 4.67525 4.42525 3.5 5.875 3.5H8.18737C8.80869 3.5 9.31237 4.00368 9.31237 4.625C9.31237 5.24632 8.80869 5.75 8.18737 5.75H5.875C5.66789 5.75 5.5 5.91789 5.5 6.125V8.43772C5.5 9.05904 4.99632 9.56272 4.375 9.56272C3.75368 9.56272 3.25 9.05904 3.25 8.43772V6.125ZM14.6871 4.625C14.6871 4.00368 15.1908 3.5 15.8121 3.5H18.1245C19.5742 3.5 20.7495 4.67525 20.7495 6.125L20.7495 8.43772C20.7495 9.05904 20.2458 9.56272 19.6245 9.56272C19.0032 9.56272 18.4995 9.05904 18.4995 8.43772L18.4995 6.125C18.4995 5.91789 18.3316 5.75 18.1245 5.75H15.8121C15.1908 5.75 14.6871 5.24632 14.6871 4.625ZM4.375 14.9382C4.99632 14.9382 5.5 15.4418 5.5 16.0632V18.3759C5.5 18.583 5.66789 18.7509 5.875 18.7509H8.18737C8.80869 18.7509 9.31237 19.2545 9.31237 19.8759C9.31237 20.4972 8.80869 21.0009 8.18737 21.0009H5.875C4.42525 21.0009 3.25 19.8256 3.25 18.3759V16.0632C3.25 15.4418 3.75368 14.9382 4.375 14.9382ZM19.6245 14.9382C20.2458 14.9381 20.7495 15.4418 20.7495 16.0631L20.7495 18.3759C20.7495 19.8256 19.5742 21.0009 18.1245 21.0009H15.8121C15.1908 21.0009 14.6871 20.4972 14.6871 19.8759C14.6871 19.2545 15.1908 18.7509 15.8121 18.7509H18.1245C18.3316 18.7509 18.4995 18.583 18.4995 18.3759L18.4995 16.0632C18.4995 15.4418 19.0032 14.9382 19.6245 14.9382Z" fill="#323544"/>
</svg>
