<svg width="24" height="25" viewBox="0 0 24 25" fill="none" xmlns="http://www.w3.org/2000/svg">
<path d="M4 3.5C3.80102 3.5 3.6102 3.57907 3.46954 3.7198C3.32888 3.86053 3.2499 4.05139 3.25 4.25037L3.25195 8.25037C3.2521 8.55365 3.43489 8.827 3.71513 8.94299C3.99536 9.05897 4.31786 8.99477 4.53231 8.78031L6.00095 7.31153L10.9401 12.2505L6.00177 17.1893L4.53231 15.7197C4.31781 15.5052 3.99522 15.441 3.71496 15.5571C3.43469 15.6732 3.25195 15.9466 3.25195 16.25V20.25C3.25195 20.6642 3.58774 21 4.00195 21H8.00159C8.30493 21 8.57841 20.8173 8.6945 20.537C8.81059 20.2568 8.74643 19.9342 8.53195 19.7197L7.06238 18.25L12.0008 13.3112L16.9399 18.2502L15.4705 19.7197C15.256 19.9342 15.1919 20.2568 15.308 20.537C15.4241 20.8173 15.6975 21 16.0009 21H20.0005C20.1994 21 20.3902 20.921 20.5308 20.7803C20.6715 20.6397 20.7505 20.4489 20.7505 20.25L20.7505 16.25C20.7505 15.9466 20.5678 15.6732 20.2875 15.5571C20.0072 15.441 19.6846 15.5052 19.4701 15.7197L18.0005 17.1894L13.0614 12.2505L18.0007 7.31071L19.4701 8.78031C19.6846 8.99482 20.0072 9.059 20.2875 8.94292C20.5678 8.82683 20.7505 8.55335 20.7505 8.25L20.7505 4.25C20.7505 3.83579 20.4147 3.5 20.0005 3.5H16.0009C15.6975 3.5 15.424 3.68272 15.308 3.96297C15.1919 4.24322 15.256 4.5658 15.4705 4.78031L16.9401 6.25L12.0007 11.1898L7.06156 6.25082L8.53194 4.78031C8.74643 4.5658 8.81058 4.24322 8.69449 3.96297C8.5784 3.68272 8.30493 3.5 8.00159 3.5H4Z" fill="#323544"/>
</svg>
