<svg width="25" height="24" viewBox="0 0 25 24" fill="none" xmlns="http://www.w3.org/2000/svg">
<path d="M6.3125 2C5.06986 2 4.0625 3.00736 4.0625 4.25V5.61053C4.0625 6.43304 4.33292 7.23275 4.83212 7.88645L9.15858 13.5521C9.25842 13.6828 9.3125 13.8427 9.3125 14.0072V18.9124C9.3125 19.7028 9.72717 20.4352 10.4049 20.8418L11.9121 21.7461C13.0786 22.446 14.5625 21.6058 14.5625 20.2455V14.0072C14.5625 13.8427 14.6166 13.6828 14.7164 13.5521L19.0429 7.88645C19.5421 7.23275 19.8125 6.43304 19.8125 5.61053V4.25C19.8125 3.00736 18.8051 2 17.5625 2H6.3125Z" fill="#323544"/>
</svg>
