<svg width="24" height="25" viewBox="0 0 24 25" fill="none" xmlns="http://www.w3.org/2000/svg">
<path d="M7.25132 3.27236C7.07313 3.01789 6.72238 2.95605 6.46791 3.13424C5.70449 3.66882 5.51897 4.72105 6.05355 5.48448L10.6057 11.9853L8.16317 15.4736L8.16081 15.4769C7.97673 15.4436 7.7871 15.4262 7.5934 15.4262C5.84721 15.4262 4.43164 16.8417 4.43164 18.5879C4.43164 20.3341 5.84721 21.7497 7.5934 21.7497C9.33959 21.7497 10.7552 20.3341 10.7552 18.5879C10.7552 17.8559 10.5064 17.182 10.0888 16.6462L11.9791 13.9467L13.8889 16.6741C13.4844 17.2054 13.2441 17.8686 13.2441 18.5879C13.2441 20.3341 14.6597 21.7497 16.4059 21.7497C18.1521 21.7497 19.5677 20.3341 19.5677 18.5879C19.5677 16.8417 18.1521 15.4262 16.4059 15.4262C16.1994 15.4262 15.9976 15.446 15.8022 15.4837L7.25132 3.27236ZM5.93164 18.5879C5.93164 17.6702 6.67563 16.9262 7.5934 16.9262C8.51116 16.9262 9.25515 17.6702 9.25515 18.5879C9.25515 19.5057 8.51116 20.2497 7.5934 20.2497C6.67563 20.2497 5.93164 19.5057 5.93164 18.5879ZM14.7441 18.5879C14.7441 17.6702 15.4881 16.9262 16.4059 16.9262C17.3237 16.9262 18.0677 17.6702 18.0677 18.5879C18.0677 19.5057 17.3237 20.2497 16.4059 20.2497C15.4881 20.2497 14.7441 19.5057 14.7441 18.5879Z" fill="#323544"/>
<path d="M12.59 9.15131L13.9634 11.1126L17.9064 5.4813C18.441 4.71786 18.2554 3.66563 17.492 3.13107C17.2375 2.95288 16.8868 3.01473 16.7086 3.26922L12.59 9.15131Z" fill="#323544"/>
</svg>
