<svg width="24" height="25" viewBox="0 0 24 25" fill="none" xmlns="http://www.w3.org/2000/svg">
<path d="M17.4146 3.16251C17.6949 3.04647 18.0176 3.11078 18.232 3.32544L21.3415 6.43817C21.4947 6.57549 21.5911 6.77492 21.5911 6.99686C21.5911 7.21896 21.4946 7.41852 21.3412 7.55585L18.2317 10.6649C18.0172 10.8794 17.6946 10.9436 17.4144 10.8275C17.1341 10.7114 16.9514 10.4379 16.9514 10.1346V7.74686H11.109C10.4828 7.74686 9.97526 8.25445 9.97526 8.88058V12.0937C9.97526 12.5079 9.63948 12.8437 9.22526 12.8437C8.81105 12.8437 8.47526 12.5079 8.47526 12.0937V8.88058C8.47526 7.42602 9.65442 6.24686 11.109 6.24686H16.9514V3.85549C16.9514 3.55207 17.1342 3.27855 17.4146 3.16251ZM4 15.4092C4.41421 15.4092 4.75 15.745 4.75 16.1592V18.6592C4.75 19.0734 5.08579 19.4092 5.5 19.4092H18.5009C18.9151 19.4092 19.2509 19.0734 19.2509 18.6592V16.1592C19.2509 15.745 19.5867 15.4092 20.0009 15.4092C20.4151 15.4092 20.7509 15.745 20.7509 16.1592V18.6592C20.7509 19.9018 19.7435 20.9092 18.5009 20.9092H5.5C4.25736 20.9092 3.25 19.9018 3.25 18.6592V16.1592C3.25 15.745 3.58579 15.4092 4 15.4092Z" fill="#323544"/>
</svg>
