<svg width="25" height="25" viewBox="0 0 25 25" fill="none" xmlns="http://www.w3.org/2000/svg">
<path d="M15.0928 2.37789C14.8783 2.1634 14.5558 2.09923 14.2755 2.21532C13.9952 2.3314 13.8125 2.60488 13.8125 2.90823V6.75455C7.39629 7.14206 2.3125 12.4683 2.3125 18.982C2.3125 19.8676 2.4066 20.7321 2.58563 21.5657C2.65986 21.9113 2.96538 22.1582 3.31891 22.1582C3.67244 22.1582 3.97796 21.9113 4.05219 21.5657C5.04239 16.955 8.99081 13.4426 13.8125 13.1102V16.9082C13.8125 17.2116 13.9952 17.4851 14.2755 17.6011C14.5558 17.7172 14.8783 17.6531 15.0928 17.4386L22.0929 10.4386C22.2335 10.2979 22.3125 10.1071 22.3125 9.90823C22.3125 9.70932 22.2335 9.51855 22.0929 9.3779L15.0928 2.37789Z" fill="#323544"/>
</svg>
