<svg width="24" height="24" viewBox="0 0 24 24" fill="none" xmlns="http://www.w3.org/2000/svg">
<path d="M12 3.25V5.25M12 5.25H4.75M12 5.25H19.25M4.75 5.25H19.25M4.75 5.25C3.92157 5.25 3.25 5.92157 3.25 6.75V15C3.25 15.8284 3.92157 16.5 4.75 16.5H8.95731M19.25 5.25C20.0784 5.25 20.75 5.92157 20.75 6.75V15C20.75 15.8284 20.0784 16.5 19.25 16.5H15.0429M16.5001 20.7501L15.0429 16.5M7.50012 20.7501L8.95731 16.5M12 16.5V21.25M12 16.5H15.0429M12 16.5H8.95731M15.0429 16.5H8.95731" stroke="#323544" stroke-width="1.5" stroke-linecap="round" stroke-linejoin="round"/>
</svg>
