<svg width="24" height="24" viewBox="0 0 24 24" fill="none" xmlns="http://www.w3.org/2000/svg">
<path d="M8.08333 17.25V7.75C8.08333 6.92157 7.41176 6.25 6.58333 6.25H4.25C3.42157 6.25 2.75 6.92157 2.75 7.75V17.25C2.75 18.0784 3.42157 18.75 4.25 18.75H6.58333C7.41176 18.75 8.08333 18.0784 8.08333 17.25ZM8.08333 17.25L8.08301 5.5C8.08301 4.67157 8.75458 4 9.58301 4H11.1663C11.9948 4 12.6663 4.67157 12.6663 5.5V17.25C12.6663 18.0784 11.9948 18.75 11.1663 18.75H9.58301C8.75458 18.75 8.08333 18.0784 8.08333 17.25ZM14.3957 5.78365L16.6496 5.17974C17.4498 4.96532 18.2723 5.4402 18.4867 6.2404L21.2043 16.3826C21.4187 17.1828 20.9438 18.0053 20.1436 18.2197L17.8898 18.8236C17.0896 19.0381 16.2671 18.5632 16.0527 17.763L13.3351 7.62076C13.1207 6.82056 13.5955 5.99806 14.3957 5.78365Z" stroke="#323544" stroke-width="1.5" stroke-linecap="round" stroke-linejoin="round"/>
</svg>
