<svg width="24" height="24" viewBox="0 0 24 24" fill="none" xmlns="http://www.w3.org/2000/svg">
<path d="M12 2.75V4.75M5.99998 21.25L10.6171 9.61097M18 21.25L13.3828 9.61097M5.12012 10.0372C6.18786 12.7947 8.86557 14.75 12 14.75C15.1344 14.75 17.8121 12.7947 18.8798 10.0372M13.3828 9.61097C13.1165 9.8527 12.763 10 12.375 10H11.625C11.237 10 10.8834 9.8527 10.6171 9.61097M13.3828 9.61097C13.6851 9.33655 13.875 8.94044 13.875 8.5V6.25C13.875 5.42157 13.2034 4.75 12.375 4.75H11.625C10.7965 4.75 10.125 5.42157 10.125 6.25V8.5C10.125 8.94044 10.3148 9.33655 10.6171 9.61097" stroke="#323544" stroke-width="1.5" stroke-linecap="round" stroke-linejoin="round"/>
</svg>
