<svg width="24" height="24" viewBox="0 0 24 24" fill="none" xmlns="http://www.w3.org/2000/svg">
<path d="M18.598 3.3752L20.6245 5.40176M13.7344 4H5.5C4.67157 4 4 4.67157 4 5.5V18.5C4 19.3284 4.67157 20 5.5 20H18.5C19.3284 20 20 19.3284 20 18.5V10.2676M13.1524 10.8473L14.8993 10.6583C15.2394 10.6215 15.5567 10.4696 15.7986 10.2277L20.9568 5.06945C21.3474 4.67893 21.3474 4.04576 20.9568 3.65524L20.3445 3.04289C19.954 2.65237 19.3208 2.65237 18.9303 3.04289L13.7721 8.20113C13.5302 8.44302 13.3782 8.76032 13.3414 9.10042L13.1524 10.8473Z" stroke="#323544" stroke-width="1.5" stroke-linecap="round" stroke-linejoin="round"/>
</svg>
