<svg width="24" height="24" viewBox="0 0 24 24" fill="none" xmlns="http://www.w3.org/2000/svg">
<path d="M3.25 9C3.25 6.10051 5.60051 3.75 8.5 3.75H15.5C18.3995 3.75 20.75 6.10051 20.75 9V9.40675C20.435 9.30498 20.0989 9.25 19.75 9.25H4.25C3.90109 9.25 3.56503 9.30498 3.25 9.40675V9Z" fill="#323544"/>
<path d="M3.25 10.4839C2.50914 10.8521 2 11.6166 2 12.5C2 13.3834 2.50914 14.1479 3.25 14.5161C3.55124 14.6658 3.89079 14.75 4.25 14.75H19.75C20.1092 14.75 20.4488 14.6658 20.75 14.5161C21.4909 14.1479 22 13.3834 22 12.5C22 11.6166 21.4909 10.8521 20.75 10.4839C20.4488 10.3342 20.1092 10.25 19.75 10.25H4.25C3.89079 10.25 3.55124 10.3342 3.25 10.4839Z" fill="#323544"/>
<path d="M20.75 15.5933C20.435 15.695 20.0989 15.75 19.75 15.75H4.25C3.9011 15.75 3.56503 15.695 3.25 15.5933V18C3.25 19.2426 4.25736 20.25 5.5 20.25H18.5C19.7426 20.25 20.75 19.2426 20.75 18V15.5933Z" fill="#323544"/>
</svg>
