<svg width="24" height="24" viewBox="0 0 24 24" fill="none" xmlns="http://www.w3.org/2000/svg">
<path d="M10.6689 14.9387C10.6689 13.6961 11.6763 12.6887 12.9189 12.6887H17.8291C19.0717 12.6887 20.0791 13.6961 20.0791 14.9387V14.9698C20.0529 14.9686 20.0265 14.968 20 14.968H10.75C10.7228 14.968 10.6958 14.9686 10.6689 14.9699V14.9387Z" fill="#323544"/>
<path d="M10.6689 18.4662V19.9988C10.6689 20.413 11.0047 20.7488 11.4189 20.7488H19.3291C19.7433 20.7488 20.0791 20.413 20.0791 19.9988V18.4663C20.0529 18.4674 20.0265 18.468 20 18.468H16.3943L15.9069 18.9554C15.2238 19.6385 14.1163 19.6388 13.4328 18.9561L12.9442 18.468H10.75C10.7228 18.468 10.6958 18.4674 10.6689 18.4662Z" fill="#323544"/>
<path d="M10 16.718C10 16.3038 10.3358 15.968 10.75 15.968H20C20.4142 15.968 20.75 16.3038 20.75 16.718C20.75 17.1322 20.4142 17.468 20 17.468H15.9801L15.1998 18.2483C14.9071 18.5411 14.4324 18.5412 14.1395 18.2486L13.358 17.468H10.75C10.3358 17.468 10 17.1322 10 16.718Z" fill="#323544"/>
<path d="M11.856 4C11.5408 4 11.2593 4.19709 11.1514 4.49326L10.5796 6.0625H15.027C15.2387 6.0625 15.4405 6.15196 15.5827 6.30879C15.7249 6.46563 15.7941 6.67525 15.7734 6.88592L15.3503 11.1875H12.9189C10.8479 11.1875 9.16895 12.8664 9.16895 14.9375V15.1179C8.75594 15.5258 8.5 16.0924 8.5 16.7188C8.5 17.3451 8.75594 17.9117 9.16895 18.3196V19.9976C9.16895 20.2621 9.21459 20.5159 9.29844 20.7517H6.657C5.49966 20.7517 4.53109 19.8737 4.4178 18.7219L3.25361 6.88592C3.23288 6.67525 3.30215 6.46563 3.44432 6.30879C3.58649 6.15196 3.78832 6.0625 4 6.0625H8.9832L9.74198 3.97979C10.0657 3.09128 10.9104 2.5 11.856 2.5H14.2655C14.6798 2.5 15.0155 2.83579 15.0155 3.25C15.0155 3.66421 14.6798 4 14.2655 4H11.856Z" fill="#323544"/>
</svg>
