<svg width="24" height="24" viewBox="0 0 24 24" fill="none" xmlns="http://www.w3.org/2000/svg">
<path d="M8.25 2C6.17893 2 4.5 3.67893 4.5 5.75V12.5C4.5 13.7426 5.50736 14.75 6.75 14.75H8.25L8.25 21.25C8.25 21.6642 8.58579 22 9 22C9.41421 22 9.75 21.6642 9.75 21.25V2.75C9.75 2.33579 9.41421 2 9 2H8.25Z" fill="#323544"/>
<path d="M13.5 2.75C13.5 2.33579 13.1642 2 12.75 2C12.3358 2 12 2.33579 12 2.75V7.75C12 9.56422 13.2883 11.0775 15 11.425V21.25C15 21.6642 15.3358 22 15.75 22C16.1642 22 16.5 21.6642 16.5 21.25V11.425C18.2117 11.0775 19.5 9.56422 19.5 7.75V2.75C19.5 2.33579 19.1642 2 18.75 2C18.3358 2 18 2.33579 18 2.75V7.75C18 8.99264 16.9926 10 15.75 10C14.5074 10 13.5 8.99264 13.5 7.75V2.75Z" fill="#323544"/>
<path d="M16.5 2.75C16.5 2.33579 16.1642 2 15.75 2C15.3358 2 15 2.33579 15 2.75V7.75C15 8.16421 15.3358 8.5 15.75 8.5C16.1642 8.5 16.5 8.16421 16.5 7.75V2.75Z" fill="#323544"/>
</svg>
