<svg width="24" height="24" viewBox="0 0 24 24" fill="none" xmlns="http://www.w3.org/2000/svg">
<path d="M21.1786 5.60434C15.8531 1.63189 8.14632 1.63189 2.82081 5.60434C1.87527 6.30964 1.75746 7.59338 2.35416 8.50425L3.31996 9.97852L3.94886 9.39697C8.40202 5.36765 15.5939 5.36769 20.0471 9.39701L20.0532 9.40254L20.6781 9.98063L21.6453 8.50425C22.242 7.59339 22.1242 6.30964 21.1786 5.60434Z" fill="#323544"/>
<path d="M10.1176 20.355L4.15338 11.2507L4.1635 11.2415L4.95825 10.5066C8.83932 6.99782 15.1566 6.99782 19.0377 10.5066L19.8321 11.2414L19.8447 11.2528L13.8818 20.355C12.9935 21.7111 11.006 21.7111 10.1176 20.355ZM12.3516 14.9594C11.8545 14.9594 11.4516 15.3623 11.4516 15.8594C11.4516 16.3564 11.8545 16.7594 12.3516 16.7594C12.8486 16.7594 13.2517 16.3564 13.2517 15.8594C13.2517 15.3623 12.8486 14.9594 12.3516 14.9594ZM8.55859 12C8.55859 12.9665 9.3422 13.75 10.3087 13.75C11.2752 13.75 12.0587 12.9665 12.0587 12C12.0587 11.0335 11.2751 10.25 10.3086 10.25C9.3421 10.25 8.55859 11.0335 8.55859 12ZM14.6289 10.0195C13.9385 10.0195 13.3789 10.5792 13.3789 11.2695C13.3789 11.9599 13.9385 12.5195 14.6289 12.5195C15.3193 12.5195 15.879 11.9599 15.879 11.2695C15.879 10.5792 15.3193 10.0195 14.6289 10.0195Z" fill="#323544"/>
</svg>
