<svg width="24" height="24" viewBox="0 0 24 24" fill="none" xmlns="http://www.w3.org/2000/svg">
<path d="M9.25 5.25C9.25 4.83579 9.58579 4.5 10 4.5H14C14.4142 4.5 14.75 4.83579 14.75 5.25C14.75 5.66421 14.4142 6 14 6L12.75 6V7.53169C17.2314 7.91212 20.75 11.6702 20.75 16.25V17H3.25V16.25C3.25 11.6702 6.7686 7.91212 11.25 7.53169V6L10 6C9.58579 6 9.25 5.66421 9.25 5.25Z" fill="#323544"/>
<path d="M21.25 18H2.75C2.33579 18 2 18.3358 2 18.75C2 19.1642 2.33579 19.5 2.75 19.5H21.25C21.6642 19.5 22 19.1642 22 18.75C22 18.3358 21.6642 18 21.25 18Z" fill="#323544"/>
</svg>
