<svg width="25" height="24" viewBox="0 0 25 24" fill="none" xmlns="http://www.w3.org/2000/svg">
<path opacity="0.4" d="M6.27344 2.75C6.27344 2.33579 5.93765 2 5.52344 2C5.10922 2 4.77344 2.33579 4.77344 2.75V21.25C4.77344 21.6642 5.10922 22 5.52344 22C5.93765 22 6.27344 21.6642 6.27344 21.25V15.25V3.75V2.75Z" fill="#323544"/>
<path d="M19.0234 3.75H6.27344V15.25H19.0234C19.2779 15.25 19.5151 15.1209 19.6533 14.9072C19.7914 14.6935 19.8118 14.4243 19.7074 14.1922L17.7344 9.80777C17.6463 9.61204 17.6463 9.38796 17.7344 9.19223L19.7074 4.80777C19.8118 4.57569 19.7914 4.30649 19.6533 4.09277C19.5151 3.87906 19.2779 3.75 19.0234 3.75Z" fill="#323544"/>
</svg>
