<svg width="24" height="24" viewBox="0 0 24 24" fill="none" xmlns="http://www.w3.org/2000/svg">
<path d="M5.25 2C5.66421 2 6 2.33579 6 2.75V3.75H10.5C11.7426 3.75 12.75 4.75736 12.75 6V14.5C12.75 14.9142 12.4142 15.25 12 15.25H6V21.25C6 21.6642 5.66421 22 5.25 22C4.83579 22 4.5 21.6642 4.5 21.25V2.75C4.5 2.33579 4.83579 2 5.25 2Z" fill="#323544"/>
<path opacity="0.4" d="M11.4834 16.25C11.8516 16.9909 12.6161 17.5 13.4995 17.5H18.7495C19.004 17.5 19.2411 17.3709 19.3793 17.1572C19.5175 16.9435 19.5379 16.6743 19.4335 16.4422L17.4605 12.0578C17.3724 11.862 17.3724 11.638 17.4605 11.4422L19.4335 7.05777C19.5379 6.82569 19.5175 6.55649 19.3793 6.34277C19.2411 6.12906 19.004 6 18.7495 6H13.7495V14.5C13.7495 15.4665 12.966 16.25 11.9995 16.25H11.4834Z" fill="#323544"/>
</svg>
