<svg width="25" height="25" viewBox="0 0 25 25" fill="none" xmlns="http://www.w3.org/2000/svg">
<path opacity="0.4" d="M5.03125 9.89198C5.03125 5.76528 8.3766 2.41992 12.5033 2.41992C16.63 2.41992 19.9754 5.76528 19.9754 9.89198C19.9754 12.694 18.9108 15.2454 17.6454 17.2938C16.3778 19.3458 14.8791 20.941 13.9389 21.8454C13.139 22.6148 11.9045 22.6163 11.1026 21.8493C10.1581 20.9458 8.65084 19.3507 7.37569 17.2982C6.1028 15.2493 5.03125 12.6963 5.03125 9.89198ZM9.50391 9.89062C9.50391 11.5475 10.8471 12.8906 12.5039 12.8906C14.1608 12.8906 15.5039 11.5475 15.5039 9.89062C15.5039 8.23377 14.1608 6.89062 12.5039 6.89062C10.8471 6.89062 9.50391 8.23377 9.50391 9.89062Z" fill="#323544"/>
<path d="M12.5039 6.89062C10.8471 6.89062 9.50391 8.23377 9.50391 9.89062C9.50391 11.5475 10.8471 12.8906 12.5039 12.8906C14.1608 12.8906 15.5039 11.5475 15.5039 9.89062C15.5039 8.23377 14.1608 6.89062 12.5039 6.89062Z" fill="#323544"/>
</svg>
