<svg width="25" height="25" viewBox="0 0 25 25" fill="none" xmlns="http://www.w3.org/2000/svg">
<g opacity="0.4">
<path d="M6.94795 5.17894C6.83907 5.61196 6.78125 6.06526 6.78125 6.53206C6.78125 8.54162 7.61088 10.2638 8.43945 11.4975V20.5885L4.02728 19.508C3.02055 19.2614 2.3125 18.3591 2.3125 17.3226V6.91123C2.3125 5.4519 3.68027 4.37868 5.09771 4.72581L6.94795 5.17894Z" fill="#323544"/>
<path d="M16.193 11.4971C17.0181 10.263 17.8442 8.54081 17.8442 6.53206C17.8442 5.90655 17.7403 5.30529 17.549 4.74458L20.5972 5.4911C21.604 5.73766 22.312 6.64004 22.312 7.67652V18.0879C22.312 19.5472 20.9443 20.6204 19.5268 20.2733L16.193 19.4568V11.4971Z" fill="#323544"/>
<path d="M10.9074 14.2492L10.9085 14.2501C11.7347 14.9167 12.9144 14.9151 13.7388 14.2464L13.7399 14.2455L13.7436 14.2425L13.7496 14.2376L13.7652 14.2248C13.7771 14.2149 13.7922 14.2023 13.8102 14.1871C13.8462 14.1567 13.8939 14.1157 13.9517 14.0647C14.067 13.9628 14.2235 13.8198 14.4074 13.6396C14.4961 13.5528 14.5918 13.4566 14.693 13.3514V19.4495L9.93945 20.5903V13.3449C10.045 13.4542 10.1448 13.554 10.2369 13.6437C10.4217 13.8239 10.5789 13.9668 10.6948 14.0686C10.7528 14.1196 10.8007 14.1605 10.8369 14.1909C10.8549 14.2061 10.8701 14.2186 10.8821 14.2285L10.8977 14.2413L10.9037 14.2462L10.9074 14.2492Z" fill="#323544"/>
</g>
<path d="M12.9586 12.9399C12.9095 12.9833 12.8701 13.017 12.8422 13.0407L12.7934 13.0801C12.5186 13.303 12.125 13.3032 11.8496 13.081L11.8019 13.0419C11.7738 13.0183 11.7343 12.9846 11.6849 12.9412C11.5863 12.8546 11.4483 12.7292 11.2838 12.5689C10.9558 12.2493 10.5186 11.7866 10.0801 11.2121C9.21625 10.0802 8.28125 8.4276 8.28125 6.53146C8.28125 4.30494 10.0862 2.5 12.3127 2.5C14.5392 2.5 16.3442 4.30494 16.3442 6.53146C16.3442 8.42636 15.4146 10.0784 14.5551 11.2105C14.119 11.7851 13.684 12.2478 13.3577 12.5676C13.1941 12.7278 13.0567 12.8533 12.9586 12.9399ZM11.0625 6.53125C11.0625 7.22161 11.6221 7.78125 12.3125 7.78125H12.3225C13.0129 7.78125 13.5725 7.22161 13.5725 6.53125C13.5725 5.84089 13.0129 5.28125 12.3225 5.28125H12.3125C11.6221 5.28125 11.0625 5.84089 11.0625 6.53125Z" fill="#323544"/>
</svg>
