<svg width="25" height="25" viewBox="0 0 25 25" fill="none" xmlns="http://www.w3.org/2000/svg">
<path d="M5.98344 10.8127C5.70863 11.0356 5.31541 11.0361 5.04002 10.8139L5.03922 10.8132L5.03818 10.8124L5.03544 10.8102L5.02733 10.8035L5.00095 10.7816C4.97901 10.7631 4.94852 10.7371 4.91069 10.7039C4.83511 10.6374 4.7299 10.5419 4.60493 10.4201C4.35583 10.1773 4.02381 9.82597 3.69055 9.38932C3.03708 8.53314 2.3125 7.26215 2.3125 5.78967C2.3125 4.02677 3.74161 2.59766 5.50451 2.59766C7.26742 2.59766 8.69653 4.02677 8.69653 5.78967C8.69653 7.26091 7.97631 8.53136 7.3261 9.3878C6.99458 9.82447 6.66428 10.1759 6.41643 10.4187C6.29209 10.5405 6.1874 10.6361 6.11218 10.7026C6.07455 10.7358 6.0442 10.7618 6.02236 10.7803L5.99609 10.8023L5.98801 10.8089L5.98528 10.8112L5.98425 10.812L5.98344 10.8127ZM5.50436 4.8897C5.0073 4.8897 4.60436 5.29264 4.60436 5.7897C4.60436 6.28675 5.0073 6.6897 5.50436 6.6897H5.5118C6.00886 6.6897 6.4118 6.28675 6.4118 5.7897C6.4118 5.29264 6.00886 4.8897 5.5118 4.8897H5.50436Z" fill="#323544"/>
<path d="M18.6559 22.4308C18.9312 22.653 19.3248 22.6528 19.5997 22.4298L19.6005 22.4292L19.6015 22.4283L19.6042 22.4261L19.6123 22.4195L19.6386 22.3975C19.6604 22.379 19.6908 22.353 19.7284 22.3197C19.8036 22.2533 19.9083 22.1577 20.0326 22.0359C20.2805 21.793 20.6108 21.4417 20.9423 21.005C21.5925 20.1486 22.3127 18.8781 22.3127 17.4069C22.3127 15.644 20.8836 14.2148 19.1207 14.2148C17.3578 14.2148 15.9287 15.644 15.9287 17.4069C15.9287 18.8793 16.6533 20.1503 17.3068 21.0065C17.64 21.4432 17.972 21.7945 18.2211 22.0373C18.3461 22.1591 18.4513 22.2546 18.5269 22.3211C18.5647 22.3543 18.5952 22.3803 18.6172 22.3987L18.6435 22.4207L18.6517 22.4273L18.6544 22.4296L18.6559 22.4308ZM18.2206 17.4069C18.2206 16.9098 18.6235 16.5069 19.1206 16.5069H19.128C19.6251 16.5069 20.028 16.9098 20.028 17.4069C20.028 17.9039 19.6251 18.3069 19.128 18.3069H19.1206C18.6235 18.3069 18.2206 17.9039 18.2206 17.4069Z" fill="#323544"/>
<path opacity="0.4" d="M12.8625 13.1377C12.8625 11.9484 11.8984 10.9844 10.7092 10.9844H7.95035C8.13168 10.7826 8.32577 10.5517 8.5208 10.2948C8.69884 10.0603 8.88926 9.78889 9.07555 9.48438H10.7092C12.7269 9.48438 14.3625 11.12 14.3625 13.1377C14.3625 15.1554 12.7269 16.791 10.7092 16.791H5.96973C4.78048 16.791 3.81641 17.7551 3.81641 18.9443C3.81641 20.1336 4.78048 21.0977 5.96973 21.0977H15.4934C15.6824 21.4058 15.8758 21.6801 16.0563 21.9166C16.2496 22.1699 16.442 22.3979 16.6221 22.5977H5.96973C3.95205 22.5977 2.31641 20.962 2.31641 18.9443C2.31641 16.9267 3.95206 15.291 5.96973 15.291H10.7092C11.8984 15.291 12.8625 14.3269 12.8625 13.1377Z" fill="#323544"/>
</svg>
