<svg width="24" height="25" viewBox="0 0 24 25" fill="none" xmlns="http://www.w3.org/2000/svg">
<path d="M7.74996 5.75C7.74996 4.50736 8.75732 3.5 9.99996 3.5H14C15.2426 3.5 16.25 4.50736 16.25 5.75V6.5H19.25C20.4926 6.5 21.5 7.50736 21.5 8.75V11H14.5816C14.3007 10.4088 13.6981 10 13 10H11C10.3019 10 9.69927 10.4088 9.41841 11H2.49976V8.75C2.49976 7.50736 3.50712 6.5 4.74976 6.5H7.74996V5.75ZM9.24996 6.5H14.75V5.75C14.75 5.33579 14.4142 5 14 5H9.99996C9.58574 5 9.24996 5.33579 9.24996 5.75V6.5Z" fill="#323544"/>
<path d="M2.49976 12.5V17.75C2.49976 18.9926 3.50712 20 4.74976 20H19.25C20.4926 20 21.5 18.9926 21.5 17.75V12.5H14.5816C14.3007 13.0912 13.6981 13.5 13 13.5H11C10.3019 13.5 9.69927 13.0912 9.41841 12.5H2.49976Z" fill="#323544"/>
</svg>
