<svg width="24" height="25" viewBox="0 0 24 25" fill="none" xmlns="http://www.w3.org/2000/svg">
<path fill-rule="evenodd" clip-rule="evenodd" d="M5.39462 7.02887C5.39476 4.3205 7.59036 2.125 10.2987 2.125C13.0072 2.125 15.2028 4.32064 15.2028 7.02911V16.2692C15.2028 18.0376 13.7693 19.4711 12.0009 19.4711C10.2325 19.4711 8.79897 18.0376 8.79897 16.2692V8.15388C8.79897 7.53256 9.30265 7.02888 9.92397 7.02888C10.5453 7.02888 11.049 7.53256 11.049 8.15388V16.2692C11.049 16.7949 11.4752 17.2211 12.0009 17.2211C12.5266 17.2211 12.9528 16.7949 12.9528 16.2692V14.228C12.9525 14.2161 12.9523 14.2041 12.9523 14.1921L12.9528 7.02911C12.9528 5.56329 11.7646 4.375 10.2987 4.375C8.83296 4.375 7.64469 5.56321 7.64462 7.02898L7.64453 10.0325C7.64472 10.0409 7.64481 10.0493 7.64481 10.0578V16.2692C7.64481 18.6748 9.59498 20.625 12.0006 20.625C14.4063 20.625 16.3564 18.6748 16.3564 16.2692V10.0578C16.3564 9.43643 16.8601 8.93275 17.4814 8.93275C18.1028 8.93275 18.6064 9.43643 18.6064 10.0578V16.2692C18.6064 19.9175 15.6489 22.875 12.0006 22.875C8.35233 22.875 5.39481 19.9175 5.39481 16.2692V12.0267C5.39462 12.0183 5.39453 12.0099 5.39453 12.0014L5.39462 7.02887Z" fill="#323544"/>
</svg>
