<svg width="24" height="24" viewBox="0 0 24 24" fill="none" xmlns="http://www.w3.org/2000/svg">
<path d="M11.9985 2.50098C9.90741 2.50098 7.8747 3.19099 6.21568 4.464C4.55666 5.737 3.36406 7.52186 2.82283 9.54175C2.71563 9.94185 2.95306 10.3531 3.35316 10.4603C3.75326 10.5675 4.16451 10.3301 4.27172 9.92998C4.72749 8.22904 5.73177 6.72602 7.12882 5.65403C8.52587 4.58203 10.2376 4.00098 11.9985 4.00098C13.7595 4.00098 15.4712 4.58203 16.8683 5.65403C17.6571 6.25932 18.3207 7.00205 18.8311 7.84024L17.2784 8.27435C16.9863 8.35603 16.7721 8.60564 16.7358 8.90679C16.6994 9.20794 16.8481 9.50134 17.1124 9.65017L20.1931 11.3849C20.3664 11.4825 20.5714 11.5072 20.763 11.4537C20.9546 11.4001 21.117 11.2727 21.2146 11.0993L22.9492 8.01828C23.0981 7.75395 23.073 7.426 22.8857 7.18735C22.6985 6.9487 22.3859 6.84636 22.0938 6.92804L20.3225 7.42325C19.6932 6.27881 18.8306 5.26905 17.7814 4.464C16.1224 3.19099 14.0897 2.50098 11.9985 2.50098Z" fill="#323544"/>
<path d="M12.7499 8.55835C12.7499 8.14414 12.4141 7.80835 11.9999 7.80835C11.5857 7.80835 11.2499 8.14414 11.2499 8.55835V8.79461C10.49 9.07225 9.94758 9.80156 9.94758 10.6576C9.94758 11.4841 10.4603 12.2239 11.2341 12.5141L12.239 12.8909C12.4274 12.9616 12.5522 13.1417 12.5522 13.343C12.5522 13.6096 12.3361 13.8258 12.0694 13.8258H11.6744C11.5491 13.8258 11.4476 13.7242 11.4476 13.599C11.4476 13.1848 11.1118 12.849 10.6976 12.849C10.2834 12.849 9.94758 13.1848 9.94758 13.599C9.94758 14.4062 10.5015 15.0841 11.2499 15.2732V15.4421C11.2499 15.8563 11.5857 16.1921 11.9999 16.1921C12.4141 16.1921 12.7499 15.8563 12.7499 15.4421V15.2059C13.5098 14.9283 14.0522 14.199 14.0522 13.343C14.0522 12.5165 13.5396 11.7767 12.7657 11.4865L11.7608 11.1096C11.5724 11.0389 11.4476 10.8588 11.4476 10.6576C11.4476 10.3909 11.6637 10.1748 11.9304 10.1748H12.3254C12.4507 10.1748 12.5522 10.2763 12.5522 10.4016C12.5522 10.8158 12.888 11.1516 13.3022 11.1516C13.7164 11.1516 14.0522 10.8158 14.0522 10.4016C14.0522 9.59436 13.4984 8.9165 12.7499 8.72733V8.55835Z" fill="#323544"/>
<path d="M3.79695 12.6155C3.62362 12.5179 3.41862 12.4932 3.22704 12.5467C3.03547 12.6003 2.87301 12.7278 2.77542 12.9011L1.0408 15.9821C0.891979 16.2465 0.917043 16.5744 1.1043 16.8131C1.29157 17.0517 1.60414 17.1541 1.89629 17.0724L3.67618 16.5747C4.30559 17.72 5.16861 18.7305 6.21839 19.536C7.87741 20.809 9.91012 21.499 12.0013 21.499C14.0924 21.499 16.1251 20.809 17.7841 19.536C19.4431 18.263 20.6358 16.4781 21.177 14.4582C21.2842 14.0581 21.0468 13.6469 20.6467 13.5397C20.2466 13.4325 19.8353 13.6699 19.7281 14.07C19.2723 15.7709 18.268 17.274 16.871 18.346C15.4739 19.418 13.7622 19.999 12.0013 19.999C10.2403 19.999 8.52859 19.418 7.13154 18.346C6.34208 17.7402 5.67803 16.9968 5.16752 16.1578L6.71162 15.7261C7.00375 15.6444 7.21793 15.3948 7.25427 15.0936C7.29061 14.7925 7.14198 14.4991 6.87766 14.3502L3.79695 12.6155Z" fill="#323544"/>
</svg>
