<svg width="24" height="25" viewBox="0 0 24 25" fill="none" xmlns="http://www.w3.org/2000/svg">
<path d="M9.09885 4.8875C9.01961 3.5932 10.0479 2.5 11.3446 2.5H12.6554C13.9521 2.5 14.9804 3.5932 14.9011 4.8875L14.3585 13.75H9.64145L9.09885 4.8875Z" fill="#323544"/>
<path d="M5.5 14.75C4.25736 14.75 3.25 15.7574 3.25 17V18.75C3.25 19.1642 3.58579 19.5 4 19.5H20C20.4142 19.5 20.75 19.1642 20.75 18.75V17C20.75 15.7574 19.7426 14.75 18.5 14.75H5.5Z" fill="#323544"/>
<path d="M19.5 20.5H4.5V21.75C4.5 22.1642 4.83579 22.5 5.25 22.5H18.75C19.1642 22.5 19.5 22.1642 19.5 21.75V20.5Z" fill="#323544"/>
</svg>
