<svg width="24" height="25" viewBox="0 0 24 25" fill="none" xmlns="http://www.w3.org/2000/svg">
<path d="M12.75 3.5C12.75 3.08579 12.4142 2.75 12 2.75C11.5858 2.75 11.25 3.08579 11.25 3.5V4.75H4.75C3.50736 4.75 2.5 5.75736 2.5 7V15.25C2.5 16.4926 3.50736 17.5 4.75 17.5H7.90742L6.79074 20.757C6.6564 21.1488 6.86514 21.5753 7.25696 21.7097C7.64878 21.844 8.07532 21.6353 8.20966 21.2434L9.49313 17.5H11.25V21.5C11.25 21.9142 11.5858 22.25 12 22.25C12.4142 22.25 12.75 21.9142 12.75 21.5V17.5H14.5073L15.7907 21.2434C15.9251 21.6353 16.3516 21.844 16.7434 21.7097C17.1353 21.5753 17.344 21.1488 17.2097 20.757L16.093 17.5H19.25C20.4926 17.5 21.5 16.4926 21.5 15.25V7C21.5 5.75736 20.4926 4.75 19.25 4.75H12.75V3.5Z" fill="#323544"/>
</svg>
