<svg width="24" height="25" viewBox="0 0 24 25" fill="none" xmlns="http://www.w3.org/2000/svg">
<path d="M6.33301 6L4.25 6C3.00736 6 2 7.00736 2 8.25V17.75C2 18.9926 3.00736 20 4.25 20H6.58333C6.78518 20 6.98082 19.9734 7.16694 19.9236C6.64867 19.3477 6.33335 18.5856 6.33333 17.75L6.33301 6Z" fill="#323544"/>
<path d="M8.08324 19.4272C8.48119 19.7834 9.00673 20 9.58301 20H11.1663C12.409 20 13.4163 18.9926 13.4163 17.75V15.1865L11.6447 8.57457C11.2569 7.12745 11.9096 5.64668 13.1442 4.92645C12.763 4.22565 12.0202 3.75 11.1663 3.75H9.58301C8.34037 3.75 7.33301 4.75736 7.33301 6L7.33333 17.75C7.33334 18.4164 7.62294 19.0151 8.08324 19.4272Z" fill="#323544"/>
<path d="M12.6106 8.31575C12.289 7.11545 13.0013 5.88169 14.2016 5.56007L16.4554 4.95616C17.6557 4.63454 18.8895 5.34598 19.2111 6.54628L21.9287 16.6885C22.2503 17.8888 21.538 19.1226 20.3377 19.4442L18.0839 20.0481C16.8836 20.3697 15.6499 19.6574 15.3282 18.4571L12.6106 8.31575Z" fill="#323544"/>
</svg>
