<svg width="24" height="24" viewBox="0 0 24 24" fill="none" xmlns="http://www.w3.org/2000/svg">
<path d="M11.0443 3.12928C11.6657 2.05312 13.0417 1.6844 14.1179 2.30572L18.881 5.05572C19.9572 5.67705 20.3259 7.05312 19.7046 8.12928L14.8886 16.4709C14.6814 16.8296 14.2224 16.9523 13.8637 16.7452L6.50249 12.4952C6.2743 12.3635 6.14153 12.1299 6.12843 11.8851C6.12106 11.7416 6.15501 11.5978 6.22793 11.4715L11.0443 3.12928Z" fill="#323544"/>
<path d="M6.21918 13.4864L5.59572 14.5662C5.49627 14.7385 5.46932 14.9432 5.5208 15.1353C5.57228 15.3275 5.69798 15.4913 5.87024 15.5907L11.4994 18.8407C11.8581 19.0478 12.3168 18.9249 12.5239 18.5662L13.1474 17.4864L6.21918 13.4864Z" fill="#323544"/>
<path d="M4.5 21.25C4.5 20.8358 4.83579 20.5 5.25 20.5H18.75C19.1642 20.5 19.5 20.8358 19.5 21.25C19.5 21.6642 19.1642 22 18.75 22H5.25C4.83579 22 4.5 21.6642 4.5 21.25Z" fill="#323544"/>
</svg>
