<svg width="24" height="24" viewBox="0 0 24 24" fill="none" xmlns="http://www.w3.org/2000/svg">
<path d="M9.01834 3.39964C9.37706 3.19254 9.49997 2.73384 9.29286 2.37513C9.08575 2.01641 8.62706 1.8935 8.26834 2.10061C4.14091 4.48358 2.72675 9.7613 5.10972 13.8887C6.46677 16.2392 8.7626 17.7098 11.2502 18.1002V20.5004H7.25015C6.83594 20.5004 6.50015 20.8362 6.50015 21.2504C6.50015 21.6646 6.83594 22.0004 7.25015 22.0004H16.7502C17.1644 22.0004 17.5002 21.6646 17.5002 21.2504C17.5002 20.8362 17.1644 20.5004 16.7502 20.5004H12.7502V18.2035C14.1624 18.1774 15.588 17.8036 16.8978 17.0473C17.2566 16.8402 17.3795 16.3815 17.1724 16.0228C16.9653 15.6641 16.5066 15.5412 16.1478 15.7483C12.7379 17.7171 8.37752 16.5487 6.40876 13.1387C4.44 9.72874 5.60835 5.3684 9.01834 3.39964Z" fill="#323544"/>
<path d="M17.4154 6.78505C15.8747 4.11648 12.4624 3.20216 9.79384 4.74286C7.12527 6.28356 6.21095 9.69585 7.75165 12.3644C9.29235 15.033 12.7046 15.9473 15.3732 14.4066C18.0418 12.8659 18.9561 9.45363 17.4154 6.78505Z" fill="#323544"/>
</svg>
