<svg width="24" height="24" viewBox="0 0 24 24" fill="none" xmlns="http://www.w3.org/2000/svg">
<path d="M15.5412 3.25H5.5C4.25736 3.25 3.25 4.25736 3.25 5.5V18.5C3.25 19.7426 4.25736 20.75 5.5 20.75H18.5C19.7426 20.75 20.75 19.7426 20.75 18.5V8.45825L17.3896 11.8187C16.7848 12.4234 15.9916 12.8033 15.1413 12.8953L13.3944 13.0843C12.7171 13.1576 12.0431 12.9201 11.5614 12.4383C11.0797 11.9566 10.8421 11.2826 10.9154 10.6053L11.1044 8.85838C11.1964 8.00813 11.5763 7.21487 12.181 6.61014L15.5412 3.25Z" fill="#323544"/>
<path d="M20.8748 2.51256C20.1914 1.82914 19.0833 1.82915 18.3999 2.51256L17.7143 3.19812L20.8016 6.28534L21.4871 5.59978C22.1705 4.91637 22.1705 3.80833 21.4871 3.12491L20.8748 2.51256Z" fill="#323544"/>
<path d="M19.7409 7.346L16.6537 4.25878L13.2417 7.6708C12.8788 8.03363 12.6509 8.50959 12.5957 9.01974L12.4067 10.7667C12.3823 10.9924 12.4614 11.2171 12.622 11.3777C12.7826 11.5382 13.0073 11.6174 13.233 11.593L14.9799 11.404C15.4901 11.3488 15.9661 11.1209 16.3289 10.758L19.7409 7.346Z" fill="#323544"/>
</svg>
