<svg width="24" height="24" viewBox="0 0 24 24" fill="none" xmlns="http://www.w3.org/2000/svg">
<path d="M13.803 6.09787L5.83373 14.0672C5.57259 14.3283 5.37974 14.6497 5.27221 15.003L4.05204 19.0121C3.9714 19.2771 4.04336 19.565 4.23922 19.7608C4.43508 19.9567 4.72294 20.0287 4.98792 19.948L8.99703 18.7279C9.35035 18.6203 9.67176 18.4275 9.93291 18.1663L17.9022 10.1971L13.803 6.09787Z" fill="#323544"/>
<path d="M18.9628 9.13643L20.22 7.87928C21.0986 7.0006 21.0986 5.57598 20.22 4.6973L19.3028 3.7801C18.4241 2.90142 16.9995 2.90142 16.1208 3.7801L14.8637 5.03721L18.9628 9.13643Z" fill="#323544"/>
</svg>
