<svg width="24" height="25" viewBox="0 0 24 25" fill="none" xmlns="http://www.w3.org/2000/svg">
<path d="M22 6C22 5.58579 21.6642 5.25 21.25 5.25C20.8358 5.25 20.5 5.58579 20.5 6V12H16.5C15.2574 12 14.25 13.0074 14.25 14.25V19.5C14.25 19.9142 14.5858 20.25 15 20.25C15.4142 20.25 15.75 19.9142 15.75 19.5V14.25C15.75 13.8358 16.0858 13.5 16.5 13.5H20.5V19.5C20.5 19.9142 20.8358 20.25 21.25 20.25C21.6642 20.25 22 19.9142 22 19.5V6Z" fill="#323544"/>
<path d="M2.75 6.75C2.33579 6.75 2 7.08579 2 7.5V19.5C2 19.9142 2.33579 20.25 2.75 20.25C3.16421 20.25 3.5 19.9142 3.5 19.5V12H11.25V19.5C11.25 19.9142 11.5858 20.25 12 20.25C12.4142 20.25 12.75 19.9142 12.75 19.5V7.5C12.75 7.08579 12.4142 6.75 12 6.75H2.75Z" fill="#323544"/>
</svg>
