<svg width="24" height="24" viewBox="0 0 24 24" fill="none" xmlns="http://www.w3.org/2000/svg">
<path d="M18.5762 13.5V10.5771C18.5762 6.94469 15.6315 4 11.999 4M5.42188 13.5V10.5771C5.42188 6.94469 8.36656 4 11.999 4M11.999 4C13.6559 4 15 5.34315 15 7C15 8.65685 13.6569 10 12 10C10.3431 10 9 8.65685 9 7C9 5.34315 10.3422 4 11.999 4ZM7 15V18.5C7 19.3284 6.32843 20 5.5 20C4.67157 20 4 19.3284 4 18.5V15C4 14.1716 4.67157 13.5 5.5 13.5C6.32843 13.5 7 14.1716 7 15ZM20 15V18.5C20 19.3284 19.3284 20 18.5 20C17.6716 20 17 19.3284 17 18.5V15C17 14.1716 17.6716 13.5 18.5 13.5C19.3284 13.5 20 14.1716 20 15Z" stroke="#323544" stroke-width="1.5" stroke-linecap="round" stroke-linejoin="round"/>
</svg>
