<svg width="24" height="24" viewBox="0 0 24 24" fill="none" xmlns="http://www.w3.org/2000/svg">
<path opacity="0.4" d="M6.40587 5.01796C10.1037 4.33386 13.8957 4.33386 17.5936 5.01796L19.1592 5.30761C20.1274 5.48672 20.8666 6.2745 20.9839 7.25207L22.1511 16.9817C22.3117 18.321 21.266 19.4997 19.9171 19.4997H17.8201C17.0395 19.4997 16.3147 19.0951 15.9049 18.4307L14.4714 16.106C14.3348 15.8845 14.0932 15.7497 13.833 15.7497H10.1664C9.90622 15.7497 9.66461 15.8845 9.52804 16.106L8.0945 18.4307C7.68477 19.0951 6.95995 19.4997 6.17936 19.4997H4.08234C2.73345 19.4997 1.68769 18.321 1.84836 16.9817L3.01555 7.25207C3.13282 6.2745 3.87207 5.48672 4.84023 5.30761L6.40587 5.01796ZM10.0567 8.48899C10.0567 8.07477 9.72091 7.73899 9.3067 7.73899C8.89248 7.73899 8.5567 8.07477 8.5567 8.48899V9.49289H7.55125C7.13703 9.49289 6.80125 9.82868 6.80125 10.2429C6.80125 10.6571 7.13703 10.9929 7.55125 10.9929H8.5567V11.9998C8.5567 12.414 8.89248 12.7498 9.3067 12.7498C9.72091 12.7498 10.0567 12.414 10.0567 11.9998V10.9929H11.062C11.4763 10.9929 11.812 10.6571 11.812 10.2429C11.812 9.82868 11.4763 9.49289 11.062 9.49289H10.0567V8.48899ZM15.2327 7.98899C14.8185 7.98899 14.4827 8.32477 14.4827 8.73899C14.4827 9.1532 14.8185 9.48899 15.2327 9.48899H16.1104C16.5246 9.48899 16.8604 9.1532 16.8604 8.73899C16.8604 8.32477 16.5246 7.98899 16.1104 7.98899H15.2327ZM15.2327 10.9962C14.8185 10.9962 14.4827 11.332 14.4827 11.7462C14.4827 12.1604 14.8185 12.4962 15.2327 12.4962H16.1104C16.5246 12.4962 16.8604 12.1604 16.8604 11.7462C16.8604 11.332 16.5246 10.9962 16.1104 10.9962H15.2327Z" fill="#323544"/>
<path d="M9.30623 7.73877C9.72044 7.73877 10.0562 8.07456 10.0562 8.48877V9.49268H11.0616C11.4758 9.49268 11.8116 9.82846 11.8116 10.2427C11.8116 10.6569 11.4758 10.9927 11.0616 10.9927H10.0562V11.9996C10.0562 12.4138 9.72044 12.7496 9.30623 12.7496C8.89202 12.7496 8.55623 12.4138 8.55623 11.9996V10.9927H7.55078C7.13657 10.9927 6.80078 10.6569 6.80078 10.2427C6.80078 9.82846 7.13657 9.49268 7.55078 9.49268H8.55623V8.48877C8.55623 8.07456 8.89202 7.73877 9.30623 7.73877Z" fill="#323544"/>
<path d="M14.4822 11.746C14.4822 11.3318 14.818 10.996 15.2322 10.996H16.1099C16.5241 10.996 16.8599 11.3318 16.8599 11.746C16.8599 12.1602 16.5241 12.496 16.1099 12.496H15.2322C14.818 12.496 14.4822 12.1602 14.4822 11.746Z" fill="#323544"/>
<path d="M14.4822 8.73877C14.4822 8.32456 14.818 7.98877 15.2322 7.98877H16.1099C16.5241 7.98877 16.8599 8.32456 16.8599 8.73877C16.8599 9.15298 16.5241 9.48877 16.1099 9.48877H15.2322C14.818 9.48877 14.4822 9.15298 14.4822 8.73877Z" fill="#323544"/>
</svg>
