<svg width="24" height="24" viewBox="0 0 24 24" fill="none" xmlns="http://www.w3.org/2000/svg">
<path opacity="0.4" d="M2 17.25L2.00098 14.3154C2.00105 13.9012 2.33676 13.5654 2.75098 13.5654C3.165 13.5656 3.50091 13.9014 3.50098 14.3154L3.5 17.25L3.50391 17.3271C3.54252 17.7051 3.86186 18 4.25 18H19.75C20.1642 18 20.5 17.6642 20.5 17.25V14.3154C20.5001 13.9013 20.8358 13.5655 21.25 13.5654C21.6642 13.5654 21.9999 13.9013 22 14.3154V17.25C22 18.4926 20.9926 19.5 19.75 19.5H4.25C3.08519 19.5 2.12713 18.6148 2.01172 17.4805L2 17.25ZM20.5 9.68555V6.75C20.5 6.33579 20.1642 6 19.75 6H4.25C3.83581 6.00003 3.5 6.3358 3.5 6.75V9.68555L3.49609 9.7627C3.45747 10.1407 3.13816 10.4355 2.75 10.4355C2.36186 10.4355 2.04252 10.1407 2.00391 9.7627L2 9.68555V6.75C2 5.50738 3.00738 4.50003 4.25 4.5H19.75C20.9926 4.5 22 5.50736 22 6.75V9.68555C22 10.0998 21.6642 10.4355 21.25 10.4355C20.8358 10.4355 20.5 10.0997 20.5 9.68555Z" fill="#323544"/>
<path d="M4.31543 12.001C4.31543 11.1369 3.61456 10.4355 2.75 10.4355C2.33579 10.4355 2 10.0998 2 9.68555C2 9.27133 2.33579 8.93555 2.75 8.93555C4.44252 8.93555 5.81543 10.308 5.81543 12.001C5.8152 13.6934 4.44339 15.0652 2.75098 15.0654C2.33676 15.0654 2.00098 14.7296 2.00098 14.3154C2.00104 13.9013 2.3368 13.5654 2.75098 13.5654C3.61496 13.5652 4.3152 12.865 4.31543 12.001ZM18.1855 12.001C18.1855 10.3085 19.5576 8.93594 21.25 8.93555C21.6641 8.93554 21.9999 9.27139 22 9.68555C22 10.0997 21.6642 10.4355 21.25 10.4355C20.3859 10.4358 19.6855 11.1368 19.6855 12.001C19.6858 12.8109 20.3011 13.4772 21.0898 13.5576L21.25 13.5654L21.3271 13.5693C21.7051 13.608 21.9999 13.9273 22 14.3154C21.9999 14.7039 21.7045 15.0234 21.3262 15.0615L21.25 15.0654L21.0918 15.0615C19.473 14.9789 18.1858 13.6403 18.1855 12.001Z" fill="#323544"/>
</svg>
