<svg width="24" height="24" viewBox="0 0 24 24" fill="none" xmlns="http://www.w3.org/2000/svg">
<path opacity="0.4" d="M4.91879 5.06641C4.91879 4.65219 5.25457 4.31641 5.66879 4.31641H18.3321C18.7464 4.31641 19.0821 4.65219 19.0821 5.06641C19.0821 6.4019 20.1647 7.48485 21.5001 7.48507C21.9143 7.48514 22.25 7.8209 22.25 8.23507V15.7627C22.25 16.1769 21.9143 16.5126 21.5001 16.5127C20.1646 16.5129 19.082 17.5955 19.082 18.9311C19.082 19.3453 18.7462 19.6813 18.332 19.6813H5.66879C5.25457 19.6813 4.91879 19.3455 4.91879 18.9313C4.91879 17.5956 3.83604 16.5127 2.50041 16.5127C2.0862 16.5127 1.75 16.1769 1.75 15.7627V8.23519C1.75 7.82098 2.08579 7.48519 2.5 7.48519C3.83563 7.48519 4.91879 6.40204 4.91879 5.06641ZM6.34717 5.81641C6.0444 7.37927 4.81287 8.61081 3.25 8.91357V15.0843C4.8128 15.3871 6.04429 16.6185 6.34713 18.1813H17.6537C17.9565 16.6188 19.1876 15.3875 20.75 15.0845V8.91327C19.1876 8.6102 17.9565 7.3789 17.6538 5.81641H6.34717Z" fill="#323544"/>
<path d="M9.56992 6.89746C10.067 6.89746 10.4699 7.3004 10.4699 7.79746C10.4699 8.29452 10.067 8.69756 9.56992 8.69756C9.07287 8.69756 8.66992 8.29462 8.66992 7.79756C8.66992 7.3005 9.07287 6.89746 9.56992 6.89746Z" fill="#323544"/>
<path d="M10.4699 10.5982C10.4699 10.1012 10.067 9.69824 9.56992 9.69824C9.07287 9.69824 8.66992 10.1012 8.66992 10.5982C8.66992 11.0953 9.07287 11.4983 9.56992 11.4983C10.067 11.4983 10.4699 11.0953 10.4699 10.5982Z" fill="#323544"/>
<path d="M9.56992 12.498C10.067 12.498 10.4699 12.901 10.4699 13.398C10.4699 13.8951 10.067 14.2981 9.56992 14.2981C9.07287 14.2981 8.66992 13.8952 8.66992 13.3981C8.66992 12.9011 9.07287 12.498 9.56992 12.498Z" fill="#323544"/>
<path d="M10.4699 16.1979C10.4699 15.7008 10.067 15.2979 9.56992 15.2979C9.07287 15.2979 8.66992 15.7008 8.66992 16.1979C8.66992 16.6949 9.07287 17.098 9.56992 17.098C10.067 17.098 10.4699 16.6949 10.4699 16.1979Z" fill="#323544"/>
</svg>
