<svg width="24" height="24" viewBox="0 0 24 24" fill="none" xmlns="http://www.w3.org/2000/svg">
<path d="M7 5.75L8.08541 3.57918C8.3395 3.071 8.85889 2.75 9.42705 2.75H14.5729C15.1411 2.75 15.6605 3.071 15.9146 3.57918L17 5.75M17 18.25L15.9146 20.4207C15.6605 20.9288 15.1411 21.2498 14.573 21.2498H9.42703C8.85888 21.2498 8.3395 20.9288 8.0854 20.4207L7 18.25M8.55814 12.102H9.43858C9.58256 12.102 9.71362 12.0189 9.77508 11.8887L10.777 9.7658C10.9266 9.44888 11.3913 9.49558 11.4749 9.83592L12.5372 14.1641C12.6193 14.4987 13.0729 14.5516 13.2298 14.2448L14.2219 12.3047C14.2856 12.1802 14.4135 12.102 14.5532 12.102H15.4419M6.75 18.25H17.25C18.0784 18.25 18.75 17.5784 18.75 16.75V7.25C18.75 6.42157 18.0784 5.75 17.25 5.75H6.75C5.92157 5.75 5.25 6.42157 5.25 7.25V16.75C5.25 17.5784 5.92157 18.25 6.75 18.25Z" stroke="#323544" stroke-width="1.5" stroke-linecap="round" stroke-linejoin="round"/>
</svg>
