<svg width="25" height="24" viewBox="0 0 25 24" fill="none" xmlns="http://www.w3.org/2000/svg">
<path d="M8.66699 9H7.83398C6.59134 9 5.58398 10.0074 5.58398 11.25V13.5H4.75C3.50736 13.5 2.5 14.5074 2.5 15.75V18.75C2.5 19.1642 2.83579 19.5 3.25 19.5H21.7497C22.1639 19.5 22.4997 19.1642 22.4997 18.75V15.75C22.4997 14.5074 21.4923 13.5 20.2497 13.5H19.4167V11.25C19.4167 10.0074 18.4093 9 17.1667 9H16.3337H14.8337H10.167H8.66699ZM7.08398 11.25C7.08398 10.8358 7.41977 10.5 7.83398 10.5H11.7507V13.5H7.08398V11.25ZM13.2507 13.5V10.5H17.1667C17.5809 10.5 17.9167 10.8358 17.9167 11.25V13.5H13.2507ZM4 15.75C4 15.3358 4.33579 15 4.75 15H8.66667V18H4V15.75ZM10.1667 18V15H14.8337V18H10.1667ZM16.3337 18V15H20.2497C20.6639 15 20.9997 15.3358 20.9997 15.75V18H16.3337Z" fill="#323544"/>
<path opacity="0.4" d="M10.917 4.5C9.67435 4.5 8.66699 5.50736 8.66699 6.75V9H10.167V6.75C10.167 6.33579 10.5028 6 10.917 6H14.0837C14.4979 6 14.8337 6.33579 14.8337 6.75V9H16.3337V6.75C16.3337 5.50736 15.3263 4.5 14.0837 4.5H10.917Z" fill="#323544"/>
</svg>
