<svg width="24" height="24" viewBox="0 0 24 24" fill="none" xmlns="http://www.w3.org/2000/svg">
<path d="M6.76013 14.8658C7.76885 15.8509 8.51679 16.914 8.5625 18.0453V19.75C8.5625 20.9926 9.56986 22 10.8125 22H13.1855C14.4282 22 15.4355 20.9926 15.4355 19.75V18.1544C15.4355 16.9822 16.1988 15.8824 17.2399 14.8655C18.6333 13.5046 19.4997 11.6027 19.4997 9.49987C19.4997 5.35781 16.1419 2 11.9999 2C7.85781 2 4.5 5.35781 4.5 9.49987C4.5 11.6029 5.36655 13.5048 6.76013 14.8658ZM7.80817 13.7927C6.69168 12.7023 6 11.1825 6 9.49987C6 6.18624 8.68624 3.5 11.9999 3.5C15.3135 3.5 17.9997 6.18624 17.9997 9.49987C17.9997 11.1824 17.3082 12.7021 16.1918 13.7925C15.4506 14.5164 14.6802 15.4257 14.2589 16.5H12.75H11.25H9.74118C9.31983 15.4258 8.54933 14.5165 7.80817 13.7927ZM10.0625 19.75V18.2129C10.064 18.1938 10.0647 18.1744 10.0647 18.1549C10.0647 18.1088 10.064 18.063 10.0625 18.0175V18H13.9355V19.75C13.9355 20.1642 13.5998 20.5 13.1855 20.5H10.8125C10.3983 20.5 10.0625 20.1642 10.0625 19.75Z" fill="#323544"/>
<path opacity="0.4" d="M12.75 16.5V11.8412C13.0571 11.7329 13.3453 11.5559 13.5909 11.3103L14.4363 10.4649C14.7292 10.172 14.7292 9.69713 14.4363 9.40424C14.1434 9.11135 13.6686 9.11135 13.3757 9.40424L12.5303 10.2497C12.2374 10.5425 11.7625 10.5425 11.4696 10.2497L10.624 9.40421C10.3311 9.11133 9.85626 9.11136 9.56339 9.40427C9.27051 9.69719 9.27054 10.1721 9.56345 10.4649L10.409 11.3104C10.6547 11.556 10.9429 11.7329 11.25 11.8412L11.25 16.5H12.75Z" fill="#323544"/>
</svg>
