<svg width="24" height="24" viewBox="0 0 24 24" fill="none" xmlns="http://www.w3.org/2000/svg">
<path d="M10.25 5.5H18.5C19.7426 5.5 20.75 6.50736 20.75 7.75C20.75 8.90823 19.8748 9.86206 18.7497 9.9863L17.2497 10L10.25 10V18.75C10.25 19.1642 9.91421 19.5 9.5 19.5H5.5C5.08579 19.5 4.75 19.1642 4.75 18.75V10H4.25C3.00736 10 2 8.99264 2 7.75C2 6.50736 3.00736 5.5 4.25 5.5L4.75 5.5C4.75 4.25736 5.75736 3.25 7 3.25H8C9.24264 3.25 10.25 4.25736 10.25 5.5ZM7 4.75C6.58579 4.75 6.25 5.08579 6.25 5.5H8.75C8.75 5.08579 8.41421 4.75 8 4.75H7ZM17.9997 8.49924C18.0111 8.49924 18.0225 8.49949 18.0339 8.5H18.5C18.9142 8.5 19.25 8.16421 19.25 7.75C19.25 7.33579 18.9142 7 18.5 7L4.25 7C3.83578 7 3.5 7.33579 3.5 7.75C3.5 8.16421 3.83578 8.5 4.25 8.5L17.9655 8.5C17.9769 8.49949 17.9882 8.49924 17.9997 8.49924ZM6.25 10V18H8.75V10H6.25Z" fill="#323544"/>
<path opacity="0.4" d="M17.2497 10L17.2499 12.8743C17.2499 13.3829 17.4755 13.7919 17.7231 14.0893C17.9679 14.3832 18.2708 14.6134 18.5231 14.7835C18.7748 14.9533 18.9378 15.2388 18.9378 15.5621C18.9378 16.0801 18.5179 16.5 17.9999 16.5C17.4819 16.5 17.062 16.0801 17.062 15.5621C17.062 15.1479 16.7262 14.8121 16.312 14.8121C15.8978 14.8121 15.562 15.1479 15.562 15.5621C15.562 16.9086 16.6535 18 17.9999 18C19.3463 18 20.4378 16.9086 20.4378 15.5621C20.4378 14.7192 20.0093 13.9766 19.3617 13.5399C19.1561 13.4012 18.9878 13.2639 18.8758 13.1294C18.7666 12.9983 18.7499 12.918 18.7499 12.8743L18.7497 9.98633L17.2497 10Z" fill="#323544"/>
</svg>
