<svg width="25" height="24" viewBox="0 0 25 24" fill="none" xmlns="http://www.w3.org/2000/svg">
<path d="M14.335 4.00098H6.66406C6.24985 4.00098 5.91406 4.33676 5.91406 4.75098V8.93457C5.91406 9.34878 6.24985 9.68457 6.66406 9.68457H18.3349C18.7492 9.68457 19.0849 9.34878 19.0849 8.93457V8.75098C19.0849 6.12762 16.9583 4.00098 14.335 4.00098ZM17.5358 8.18457H7.41406V5.50098H14.335C15.9367 5.50098 17.2678 6.65966 17.5358 8.18457Z" fill="#323544"/>
<g opacity="0.4">
<path d="M10.374 9.6843L9.83569 19.6291C9.76595 20.9176 10.792 22.0007 12.0824 22.0007H12.9156C14.2061 22.0007 15.2321 20.9176 15.1623 19.6291L14.624 9.6843L13.1218 9.6843L13.6645 19.7102C13.6878 20.1397 13.3458 20.5007 12.9156 20.5007H12.0824C11.6523 20.5007 11.3103 20.1397 11.3335 19.7102L11.8762 9.6843L10.374 9.6843Z" fill="#323544"/>
<path d="M13.3744 4.00071L13.276 3.40799C13.2129 3.02834 12.8845 2.75 12.4996 2.75C12.1151 2.75 11.7868 3.02793 11.7234 3.40722L11.6243 4.00071H13.3744Z" fill="#323544"/>
</g>
</svg>
