<svg width="25" height="24" viewBox="0 0 25 24" fill="none" xmlns="http://www.w3.org/2000/svg">
<path d="M5.91406 2.75C5.91406 2.33579 6.24985 2 6.66406 2H14.335C16.9583 2 19.0849 4.12665 19.0849 6.75V6.93359C19.0849 7.34781 18.7492 7.68359 18.3349 7.68359H6.66406C6.24985 7.68359 5.91406 7.34781 5.91406 6.93359V2.75ZM11.1648 6.18359H17.5358C17.2678 4.65869 15.9367 3.5 14.335 3.5H7.41406V6.18359H11.1648Z" fill="#323544"/>
<path opacity="0.4" d="M10.3799 7.68359L9.82292 19.6453C9.76321 20.9277 10.7868 22 12.0705 22H12.9275C14.2113 22 15.2348 20.9277 15.1751 19.6453L14.6181 7.68359H13.1165L13.6767 19.7151C13.6966 20.1426 13.3554 20.5 12.9275 20.5H12.0705C11.6426 20.5 11.3014 20.1426 11.3213 19.7151L11.8816 7.68359H10.3799Z" fill="#323544"/>
</svg>
