<svg width="25" height="24" viewBox="0 0 25 24" fill="none" xmlns="http://www.w3.org/2000/svg">
<path d="M15.2464 4.62222C15.1802 3.43903 14.1998 2.5 13 2.5H12C10.8002 2.5 9.81981 3.43903 9.75357 4.62222C6.12617 5.7833 3.5 9.1827 3.5 13.1955V14.6094H3.25C2.83579 14.6094 2.5 14.9452 2.5 15.3594V16.8594C2.5 17.2736 2.83579 17.6094 3.25 17.6094L21.75 17.6094C22.1642 17.6094 22.5 17.2736 22.5 16.8594V15.3594C22.5 14.9452 22.1642 14.6094 21.75 14.6094H21.5V13.1955C21.5 9.1827 18.8738 5.7833 15.2464 4.62222ZM12 4H13C13.4142 4 13.75 4.33579 13.75 4.75V7.25C13.75 7.66421 14.0858 8 14.5 8C14.9142 8 15.25 7.66421 15.25 7.25V6.21568C18.0317 7.31251 20 10.0241 20 13.1955V14.6094L5 14.6094V13.1955C5 10.0241 6.96835 7.31251 9.75 6.21568V7.25C9.75 7.66421 10.0858 8 10.5 8C10.9142 8 11.25 7.66421 11.25 7.25V4.75C11.25 4.33579 11.5858 4 12 4Z" fill="#323544"/>
<g opacity="0.4">
<path d="M10.25 14.6094V12.8594C10.25 12.4452 9.91421 12.1094 9.5 12.1094C9.08579 12.1094 8.75 12.4452 8.75 12.8594V14.6094H10.25Z" fill="#323544"/>
<path d="M13.25 14.6094V12.8594C13.25 12.4452 12.9142 12.1094 12.5 12.1094C12.0858 12.1094 11.75 12.4452 11.75 12.8594V14.6094L13.25 14.6094Z" fill="#323544"/>
<path d="M16.25 14.6094V12.8594C16.25 12.4452 15.9142 12.1094 15.5 12.1094C15.0858 12.1094 14.75 12.4452 14.75 12.8594V14.6094H16.25Z" fill="#323544"/>
</g>
</svg>
