<svg width="24" height="24" viewBox="0 0 24 24" fill="none" xmlns="http://www.w3.org/2000/svg">
<path d="M3.25 5.5C3.25 4.25736 4.25736 3.25 5.5 3.25H7.5C8.74264 3.25 9.75 4.25736 9.75 5.5V12C9.75 13.2426 10.7574 14.25 12 14.25C13.2426 14.25 14.25 13.2426 14.25 12V5.5C14.25 4.25736 15.2574 3.25 16.5 3.25H18.5C19.7426 3.25 20.75 4.25736 20.75 5.5V12C20.75 16.8325 16.8325 20.75 12 20.75C7.16751 20.75 3.25 16.8325 3.25 12V5.5ZM5.5 4.75C5.08579 4.75 4.75 5.08579 4.75 5.5V7.75V9.25V12C4.75 16.0041 7.99594 19.25 12 19.25C16.0041 19.25 19.25 16.0041 19.25 12V9.25V7.75V5.5C19.25 5.08579 18.9142 4.75 18.5 4.75H16.5C16.0858 4.75 15.75 5.08579 15.75 5.5V7.75V9.25V12C15.75 14.0711 14.0711 15.75 12 15.75C9.92893 15.75 8.25 14.0711 8.25 12V9.25V7.75V5.5C8.25 5.08579 7.91421 4.75 7.5 4.75H5.5Z" fill="#323544"/>
<g opacity="0.4">
<path d="M8.25 7.75H4.75V9.25H8.25V7.75Z" fill="#323544"/>
<path d="M15.75 9.25L19.25 9.25V7.75L15.75 7.75V9.25Z" fill="#323544"/>
</g>
</svg>
