<svg width="25" height="24" viewBox="0 0 25 24" fill="none" xmlns="http://www.w3.org/2000/svg">
<path d="M18.9591 9.89805C19.1057 9.88858 19.2529 9.92222 19.382 9.99668C20.0259 10.3685 21.0025 11.003 21.6837 11.8258C22.0279 12.2414 22.329 12.7441 22.4474 13.3199C22.5546 13.8415 22.5038 14.3863 22.2531 14.9234L22.1329 15.1529C21.4561 16.3252 20.0086 16.7752 18.7999 16.232L18.5617 16.11C18.0171 15.7956 17.6513 15.3623 17.4415 14.86L14.4396 20.0602C13.857 21.0691 12.6106 21.4565 11.5704 20.9889L11.3663 20.8834L3.62514 16.4146C3.15379 16.1425 2.81776 15.7243 2.64174 15.2516L2.57631 15.0455L2.56068 14.9703C2.50048 14.5951 2.73244 14.2276 3.10756 14.1275L3.12904 14.1217L18.8136 9.92149L18.9591 9.89805ZM4.64076 15.2691L12.1163 19.5846L12.1837 19.6197C12.5305 19.7758 12.9465 19.6465 13.1408 19.3102L17.4542 11.8385L4.64076 15.2691ZM19.2931 11.7096C19.0466 12.2226 18.8276 12.7981 18.7511 13.3336C18.699 13.6984 18.7197 13.9986 18.8038 14.232C18.8818 14.4484 19.0273 14.647 19.3117 14.8111L19.4132 14.8629C19.9284 15.0945 20.5456 14.9026 20.8341 14.4029L20.8908 14.2945C21.0081 14.0463 21.021 13.8276 20.9787 13.6217C20.9261 13.366 20.7774 13.0836 20.5285 12.7828C20.1946 12.3796 19.7384 12.0128 19.2931 11.7096Z" fill="#323544"/>
<path opacity="0.4" d="M6.10767 3.19039C6.30251 2.8543 6.71815 2.726 7.0647 2.88277L7.13208 2.91793L9.04419 4.02633L19.385 9.99117C19.4141 10.0079 19.4411 10.027 19.467 10.0468C19.4381 10.0298 19.4099 10.0131 19.3821 9.99703C19.253 9.92258 19.1058 9.88895 18.9592 9.8984L18.8137 9.92184L17.0725 10.3877L8.94458 5.69918L4.25708 13.8193L3.12915 14.122L3.10767 14.1279C2.73255 14.2279 2.50059 14.5954 2.56079 14.9707L2.57154 15.0254C2.43038 14.4762 2.49572 13.8714 2.80201 13.3408L7.64576 4.9482L6.38013 4.21481L6.31568 4.17379C6.00776 3.95092 5.91297 3.52635 6.10767 3.19039Z" fill="#323544"/>
</svg>
