<svg width="24" height="24" viewBox="0 0 24 24" fill="none" xmlns="http://www.w3.org/2000/svg">
<path d="M15.5 5.73242H14L10 5.73242H8.5L5 5.73242C4.58579 5.73242 4.25 6.06821 4.25 6.48242C4.25 6.89664 4.58579 7.23242 5 7.23242H5.5L5.5 12.2324C5.5 15.5686 8.01342 18.3178 11.25 18.6896V21.2495C11.25 21.6637 11.5858 21.9995 12 21.9995C12.4142 21.9995 12.75 21.6637 12.75 21.2495V18.6896C15.9866 18.3178 18.5 15.5686 18.5 12.2324L18.5 7.23242H19C19.4142 7.23242 19.75 6.89664 19.75 6.48242C19.75 6.06821 19.4142 5.73242 19 5.73242L15.5 5.73242ZM7 7.23242L17 7.23242L17 12.2324C17 14.9938 14.7614 17.2324 12 17.2324C9.23858 17.2324 7 14.9938 7 12.2324L7 7.23242Z" fill="#323544"/>
<g opacity="0.4">
<path d="M8.5 2.75L8.5 5.73291H10L10 2.75C10 2.33579 9.66421 2 9.25 2C8.83579 2 8.5 2.33579 8.5 2.75Z" fill="#323544"/>
<path d="M14.75 2C14.3358 2 14 2.33579 14 2.75V5.73291H15.5V2.75C15.5 2.33579 15.1642 2 14.75 2Z" fill="#323544"/>
</g>
</svg>
