<svg width="24" height="24" viewBox="0 0 24 24" fill="none" xmlns="http://www.w3.org/2000/svg">
<path d="M13.4684 2.6551C14.3471 1.77642 15.7717 1.77642 16.6504 2.6551L21.344 7.34864C22.2226 8.22732 22.2226 9.65194 21.344 10.5306L10.5345 21.3401C9.65584 22.2187 8.23122 22.2187 7.35255 21.34L2.65901 16.6465C1.78033 15.7678 1.78033 14.3432 2.65901 13.4645C6.26218 9.86137 9.86532 6.25823 13.4684 2.6551ZM3.71967 14.5252C3.42678 14.8181 3.42678 15.293 3.71967 15.5859L8.41321 20.2794C8.7061 20.5723 9.18097 20.5723 9.47386 20.2794L20.2833 9.46996C20.5762 9.17707 20.5762 8.70219 20.2833 8.4093L15.5898 3.71576C15.2969 3.42287 14.822 3.42287 14.5291 3.71576L3.71967 14.5252Z" fill="#323544"/>
<g opacity="0.4">
<path d="M8.59977 15.9258L5.45965 12.7856L4.39899 13.8463L7.53911 16.9864C7.832 17.2793 8.30688 17.2793 8.59977 16.9864C8.89266 16.6935 8.89266 16.2187 8.59977 15.9258Z" fill="#323544"/>
<path d="M8.86217 11.9943L7.55657 10.6887L6.49591 11.7494L7.80151 13.055C8.0944 13.3479 8.56928 13.3479 8.86217 13.055C9.15506 12.7621 9.15506 12.2872 8.86217 11.9943Z" fill="#323544"/>
<path d="M12.7936 11.7324L9.65325 8.59204L8.59259 9.6527L11.733 12.7931C12.0258 13.086 12.5007 13.086 12.7936 12.7931C13.0865 12.5002 13.0865 12.0253 12.7936 11.7324Z" fill="#323544"/>
<path d="M10.6915 7.55382L11.9954 8.85771C12.2882 9.15061 12.7631 9.15061 13.056 8.85771C13.3489 8.56482 13.3489 8.08995 13.056 7.79705L11.7521 6.49316L10.6915 7.55382Z" fill="#323544"/>
<path d="M16.9875 7.53514L13.8488 4.39648L12.7881 5.45714L15.9268 8.5958C16.2197 8.88869 16.6946 8.88869 16.9875 8.5958C17.2804 8.30291 17.2804 7.82803 16.9875 7.53514Z" fill="#323544"/>
</g>
</svg>
