<svg width="25" height="24" viewBox="0 0 25 24" fill="none" xmlns="http://www.w3.org/2000/svg">
<path d="M21.3829 5.9473C21.947 4.2012 20.2963 2.55042 18.5502 3.11455L10.9972 5.55474C9.39691 6.07175 8.90876 8.09761 10.0979 9.28676L12.1235 11.3124L13.1842 10.2517L11.1586 8.2261C10.7622 7.82971 10.9249 7.15443 11.4583 6.98209L19.0113 4.5419C19.5933 4.35386 20.1436 4.90412 19.9556 5.48615L17.5154 13.0391C17.343 13.5726 16.6677 13.7353 16.2714 13.3389L14.2449 11.3124L13.1842 12.373L15.2107 14.3995C16.3999 15.5887 18.4257 15.1006 18.9427 13.5003L21.3829 5.9473Z" fill="#323544"/>
<path opacity="0.4" d="M11.653 13.9046L13.1842 12.3733L14.2449 11.3127L15.4335 10.1241C15.7264 9.83119 15.7264 9.35631 15.4335 9.06342C15.1406 8.77053 14.6657 8.77053 14.3728 9.06342L13.1842 10.252L12.1236 11.3127L10.5917 12.8446C9.73292 12.3556 8.6209 12.4775 7.88834 13.21L4.15901 16.9393C3.28033 17.818 3.28033 19.2426 4.15901 20.1213L4.37795 20.3403C5.25663 21.2189 6.68125 21.2189 7.55993 20.3403L11.2893 16.6109C12.0227 15.8775 12.1439 14.7637 11.653 13.9046ZM10.0097 14.2707L10.2286 14.4896C10.5215 14.7825 10.5215 15.2574 10.2286 15.5503L6.49927 19.2796C6.20638 19.5725 5.7315 19.5725 5.43861 19.2796L5.21967 19.0607C4.92678 18.7678 4.92678 18.2929 5.21967 18L8.949 14.2707C9.24189 13.9778 9.71676 13.9778 10.0097 14.2707Z" fill="#323544"/>
</svg>
