<svg width="24" height="24" viewBox="0 0 24 24" fill="none" xmlns="http://www.w3.org/2000/svg">
<path d="M21.2492 7.10645H5.68433L5.68437 8.60645H19.8352L17.1238 12.6084C16.9859 12.5918 16.8455 12.5832 16.7031 12.5832C15.1633 12.5832 13.8571 13.5831 13.3983 14.969L5.68437 12.879L5.68433 14.433L13.2476 16.4823C13.4544 18.2071 14.9226 19.5441 16.7031 19.5441C18.6252 19.5441 20.1835 17.9858 20.1835 16.0636C20.1835 14.8329 19.5447 13.7514 18.5806 13.1326L21.8701 8.27712C22.0258 8.04729 22.0419 7.75026 21.9118 7.50502C21.7817 7.25978 21.5268 7.10645 21.2492 7.10645ZM14.7227 16.0636C14.7227 14.9699 15.6093 14.0832 16.7031 14.0832C17.7968 14.0832 18.6835 14.9699 18.6835 16.0636C18.6835 17.1574 17.7968 18.0441 16.7031 18.0441C15.6093 18.0441 14.7227 17.1574 14.7227 16.0636Z" fill="#323544"/>
<path opacity="0.4" d="M2.75 4.45703C2.33579 4.45703 2 4.79282 2 5.20703C2 5.62124 2.33579 5.95703 2.75 5.95703H3.43433C3.84854 5.95703 4.18433 6.29282 4.18433 6.70703V17.5273C4.18433 18.6398 5.08626 19.5418 6.19885 19.5418C7.07242 19.5418 7.84644 18.9788 8.11546 18.1477L9.02495 15.3379L7.57545 14.9452L6.68837 17.6857C6.61966 17.898 6.42197 18.0418 6.19885 18.0418C5.91469 18.0418 5.68433 17.8114 5.68433 17.5273V14.4328L5.68437 12.8787V8.60621L5.68433 7.10621V6.70703C5.68433 5.46439 4.67697 4.45703 3.43433 4.45703H2.75Z" fill="#323544"/>
</svg>
