<svg width="24" height="25" viewBox="0 0 24 25" fill="none" xmlns="http://www.w3.org/2000/svg">
<path d="M7.30687 2.5C6.768 2.5 6.24703 2.6934 5.83869 3.04502L1.76064 6.55667C1.49276 6.78735 1.42233 7.17378 1.59161 7.48414L3.46661 10.9216C3.56287 11.0981 3.72594 11.2286 3.91925 11.2837C4.11255 11.3389 4.31991 11.3141 4.4948 11.215L5.25004 10.787V20.25C5.25004 21.4926 6.2574 22.5 7.50004 22.5H16.5C17.7427 22.5 18.75 21.4926 18.75 20.25V10.787L19.5053 11.215C19.6802 11.3141 19.8875 11.3389 20.0808 11.2837C20.2741 11.2286 20.4372 11.0981 20.5335 10.9216L22.4085 7.48414C22.5777 7.17378 22.5073 6.78735 22.2394 6.55667L18.1614 3.04502C17.753 2.6934 17.2321 2.5 16.6932 2.5H14.9586C14.5922 2.5 14.2795 2.76463 14.2189 3.12591C14.0405 4.18948 13.1142 5 12 5C10.8859 5 9.95961 4.18948 9.78118 3.12591C9.72057 2.76463 9.40784 2.5 9.04152 2.5H7.30687Z" fill="#323544"/>
</svg>
