<svg width="24" height="24" viewBox="0 0 24 24" fill="none" xmlns="http://www.w3.org/2000/svg">
<path d="M20 14V18C20 18.8284 19.3284 19.5 18.5 19.5H5.5C4.67157 19.5 4 18.8284 4 18V14M20 11V9C20 6.51472 17.9853 4.5 15.5 4.5H8.5C6.01472 4.5 4 6.51472 4 9V11M4.25 11H19.75C20.5784 11 21.25 11.6716 21.25 12.5C21.25 13.3284 20.5784 14 19.75 14H4.25C3.42157 14 2.75 13.3284 2.75 12.5C2.75 11.6716 3.42157 11 4.25 11Z" stroke="#323544" stroke-width="1.5" stroke-linecap="round" stroke-linejoin="round"/>
</svg>
