<svg width="24" height="24" viewBox="0 0 24 24" fill="none" xmlns="http://www.w3.org/2000/svg">
<path d="M15.3087 2C15.7229 2 16.0587 2.33579 16.0587 2.75V2.91898C16.8071 3.10815 17.361 3.78601 17.361 4.59323C17.361 5.00744 17.0252 5.34323 16.611 5.34323C16.1968 5.34323 15.861 5.00744 15.861 4.59323C15.861 4.46796 15.7594 4.36641 15.6342 4.36641H15.2391C14.9725 4.36641 14.7563 4.58257 14.7563 4.84921C14.7563 5.05046 14.8812 5.2306 15.0696 5.30127L16.0745 5.67811C16.8483 5.96833 17.361 6.70814 17.361 7.53464C17.361 8.39065 16.8186 9.11996 16.0587 9.39759V9.63372C16.0587 10.0479 15.7229 10.3837 15.3087 10.3837C14.8945 10.3837 14.5587 10.0479 14.5587 9.63372V9.46488C13.8102 9.2757 13.2563 8.59785 13.2563 7.79062C13.2563 7.37641 13.5921 7.04062 14.0063 7.04062C14.4206 7.04062 14.7563 7.37641 14.7563 7.79062C14.7563 7.91589 14.8579 8.01744 14.9832 8.01744H15.3782C15.6448 8.01744 15.861 7.80129 15.861 7.53464C15.861 7.3334 15.7362 7.15326 15.5477 7.08259L14.5429 6.70575C13.769 6.41552 13.2563 5.67571 13.2563 4.84921C13.2563 3.99321 13.7988 3.2639 14.5587 2.98626V2.75C14.5587 2.33579 14.8945 2 15.3087 2Z" fill="#323544"/>
<path opacity="0.4" d="M19.4266 11.0839C20.0839 10.5508 21.0447 10.6311 21.6044 11.2659C22.1114 11.841 22.1317 12.6974 21.6525 13.2959L17.7859 18.1245C17.4104 18.5934 16.8423 18.8663 16.2417 18.8663H10.0685C9.8825 18.8663 9.70317 18.9354 9.56527 19.0601L9.04042 19.535C9.14503 19.8636 9.01125 20.232 8.7004 20.4114L6.1238 21.899C5.76508 22.1062 5.30638 21.9832 5.09928 21.6245L2.10061 16.4307C1.8935 16.072 2.01641 15.6133 2.37513 15.4062L4.95173 13.9186C5.18986 13.7811 5.47206 13.789 5.69546 13.9148L7.38764 12.5621C7.94114 12.1196 8.64057 11.8146 9.41278 11.8112C10.2262 11.8075 11.5119 11.8794 12.6754 12.3041H15.2732C15.9345 12.3041 16.512 12.6632 16.8212 13.1971L19.4266 11.0839ZM8.55886 17.9479C8.97255 17.5735 9.51056 17.3663 10.0685 17.3663H16.2417C16.3869 17.3663 16.5242 17.3003 16.615 17.1869L20.4816 12.3583C20.5053 12.3287 20.5043 12.2864 20.4792 12.2579C20.4515 12.2265 20.404 12.2225 20.3715 12.2489L16.5205 15.3723C16.1984 15.6861 15.7583 15.8794 15.2732 15.8794H12.5383C12.1241 15.8794 11.7883 15.5436 11.7883 15.1294C11.7883 14.7151 12.1241 14.3794 12.5383 14.3794H15.2732C15.3195 14.3794 15.3633 14.3684 15.4021 14.3489C15.4102 14.3418 15.4184 14.3348 15.4269 14.3279L15.5 14.2686C15.5381 14.2198 15.5608 14.1584 15.5608 14.0917C15.5608 13.9329 15.432 13.8041 15.2732 13.8041H12.5912C12.4613 13.8041 12.3365 13.7795 12.222 13.7359C11.296 13.383 10.1887 13.3077 9.41955 13.3111C9.04628 13.3128 8.66549 13.461 8.32425 13.7338L6.53627 15.1631L8.2864 18.1944L8.55886 17.9479ZM3.77464 16.3302L6.02332 20.225L7.30088 19.4874L5.05221 15.5926L3.77464 16.3302Z" fill="#323544"/>
</svg>
