<svg width="24" height="24" viewBox="0 0 24 24" fill="none" xmlns="http://www.w3.org/2000/svg">
<path d="M13.4423 4.05183C13.4423 3.02111 14.2778 2.18555 15.3085 2.18555C16.3393 2.18555 17.1748 3.02111 17.1748 4.05183C17.1748 5.08254 16.3393 5.91811 15.3085 5.91811C14.2778 5.91811 13.4423 5.08254 13.4423 4.05183ZM15.3085 3.68555C15.1062 3.68555 14.9423 3.84954 14.9423 4.05183C14.9423 4.25412 15.1062 4.41811 15.3085 4.41811C15.5108 4.41811 15.6748 4.25412 15.6748 4.05183C15.6748 3.84954 15.5108 3.68555 15.3085 3.68555Z" fill="#323544"/>
<path d="M14.0943 6.27857C12.8581 6.27857 11.856 7.28072 11.856 8.51694V9.44718C11.856 9.86139 12.1917 10.1972 12.606 10.1972H18.011C18.4252 10.1972 18.761 9.86139 18.761 9.44718V8.51694C18.761 7.28072 17.7589 6.27857 16.5226 6.27857H14.0943ZM13.356 8.51694C13.356 8.10915 13.6865 7.77857 14.0943 7.77857H16.5226C16.9304 7.77857 17.261 8.10915 17.261 8.51694V8.69718H13.356V8.51694Z" fill="#323544"/>
<path opacity="0.4" d="M19.4266 11.0829C20.0839 10.5499 21.0447 10.6301 21.6044 11.2649C22.1114 11.84 22.1317 12.6964 21.6525 13.2949L17.7859 18.1236C17.4104 18.5924 16.8423 18.8653 16.2417 18.8653H10.0685C9.8825 18.8653 9.70317 18.9344 9.56527 19.0592L9.04042 19.534C9.14503 19.8626 9.01125 20.231 8.7004 20.4105L6.1238 21.8981C5.76508 22.1052 5.30638 21.9823 5.09928 21.6236L2.10061 16.4297C1.8935 16.071 2.01641 15.6123 2.37513 15.4052L4.95173 13.9176C5.18986 13.7801 5.47206 13.788 5.69546 13.9139L7.38764 12.5611C7.94114 12.1187 8.64057 11.8137 9.41278 11.8102C10.2262 11.8065 11.5119 11.8785 12.6754 12.3031H15.2732C15.9345 12.3031 16.512 12.6622 16.8212 13.1961L19.4266 11.0829ZM8.55886 17.9469C8.97255 17.5726 9.51056 17.3653 10.0685 17.3653H16.2417C16.3869 17.3653 16.5242 17.2993 16.615 17.186L20.4816 12.3573C20.5053 12.3277 20.5043 12.2854 20.4792 12.2569C20.4515 12.2255 20.404 12.2216 20.3715 12.2479L16.5205 15.3713C16.1984 15.6851 15.7583 15.8784 15.2732 15.8784H12.5383C12.1241 15.8784 11.7883 15.5426 11.7883 15.1284C11.7883 14.7142 12.1241 14.3784 12.5383 14.3784H15.2732C15.3195 14.3784 15.3633 14.3674 15.4021 14.3479C15.4102 14.3408 15.4184 14.3338 15.4269 14.3269L15.5 14.2677C15.5381 14.2189 15.5608 14.1575 15.5608 14.0907C15.5608 13.9319 15.432 13.8031 15.2732 13.8031H12.5912C12.4613 13.8031 12.3365 13.7785 12.222 13.7349C11.296 13.382 10.1887 13.3067 9.41955 13.3102C9.04628 13.3118 8.66549 13.46 8.32425 13.7328L6.53627 15.1621L8.2864 18.1934L8.55886 17.9469ZM3.77464 16.3292L6.02332 20.224L7.30088 19.4864L5.05221 15.5916L3.77464 16.3292Z" fill="#323544"/>
</svg>
