<svg width="24" height="24" viewBox="0 0 24 24" fill="none" xmlns="http://www.w3.org/2000/svg">
<path opacity="0.4" d="M11.8839 6.40122C13.2788 5.12811 15.419 5.08826 16.8624 6.33579L18.5489 7.7938L18.6583 7.87193C18.7729 7.93948 18.9045 7.97636 19.0391 7.97642H21.251L21.3272 7.98032C21.7053 8.01883 22.001 8.33817 22.001 8.72642V15.1688C22.0008 15.5826 21.6648 15.9184 21.251 15.9188H17.7862L17.9991 15.5282L18.0303 15.4706L18.1134 15.3016C18.2386 15.0182 18.3004 14.7177 18.3038 14.4188H20.501V9.47642H19.0391C18.5667 9.47635 18.1076 9.32717 17.7266 9.05357L17.5684 8.92857L15.8809 7.47056C15.0428 6.74628 13.8136 6.74532 12.9766 7.43833L12.8145 7.58579L9.84968 10.5672C9.55337 10.8655 9.55987 11.3495 9.86433 11.6395L9.93269 11.704L10.0401 11.7889C10.3048 11.9617 10.6568 11.9521 10.9132 11.7508L13.505 9.7147L14.0421 9.2938C14.3677 9.03816 14.8389 9.09431 15.0948 9.41978C15.3503 9.7455 15.2934 10.2177 14.9678 10.4735L11.8399 12.9305C11.0158 13.5778 9.86262 13.5657 9.05476 12.9266L8.89851 12.7899L8.83015 12.7254C7.91658 11.8554 7.89676 10.4043 8.7862 9.50962L11.751 6.52818L11.8839 6.40122Z" fill="#323544"/>
<path d="M7.59473 5.97172C8.60509 5.24274 9.97384 5.21043 11.0225 5.91508L11.8164 6.44926L11.8252 6.4561L11.751 6.52837L10.7471 7.53715L10.1855 7.1602C9.66123 6.80797 8.97682 6.82402 8.47168 7.18852L8.37305 7.26665L6.4248 8.93462C6.01707 9.28393 5.49784 9.47661 4.96094 9.47661H3.5V14.0059H4.83789C5.48452 14.006 6.10023 14.2841 6.52734 14.7696L8.86621 17.4288L8.96777 17.5254C9.22169 17.7238 9.58163 17.7399 9.85547 17.5508L10.8506 16.8633L10.9258 16.8184C11.107 16.7225 11.321 16.7039 11.5176 16.7706L12.6084 17.1407L12.7256 17.17C13.0017 17.2162 13.2848 17.1045 13.4541 16.8731L14.1875 15.8711L14.2539 15.793C14.4182 15.623 14.6553 15.5382 14.8936 15.5704L15.6611 15.6739L15.7764 15.6807C16.0426 15.6756 16.2897 15.5289 16.4199 15.2901L16.6826 14.8096L16.7139 14.752L16.7637 14.6377C16.8443 14.4041 16.8046 14.1448 16.6572 13.9463L16.5752 13.8526L13.918 11.2979L14.9678 10.4737C15.0158 10.436 15.0556 10.3917 15.0918 10.3457L17.6143 12.7715L17.7451 12.9082C18.3232 13.5655 18.4671 14.5011 18.1133 15.3018L18.0303 15.4707L17.999 15.5284L17.7373 16.0088C17.3186 16.7763 16.4964 17.2272 15.6338 17.1778L15.4609 17.1612L15.1338 17.1163L14.665 17.7588C14.121 18.5023 13.1836 18.8349 12.3018 18.6133L12.126 18.5616L11.3916 18.3125L10.708 18.7852C9.82797 19.3929 8.65221 19.2928 7.8877 18.5723L7.74023 18.42L5.40039 15.7608C5.25806 15.599 5.05334 15.506 4.83789 15.5059H2.75C2.33581 15.5059 2.00003 15.1701 2 14.7559V8.72661L2.00391 8.64946C2.04248 8.27144 2.36179 7.97661 2.75 7.97661H4.96094C5.1399 7.97661 5.31331 7.91237 5.44922 7.79594L7.39746 6.127L7.59473 5.97172Z" fill="#323544"/>
</svg>
