<svg width="24" height="24" viewBox="0 0 24 24" fill="none" xmlns="http://www.w3.org/2000/svg">
<path d="M14.864 2.12882C14.9095 2.10698 14.9465 2.09012 14.9736 2.07812L15.0239 2.05611C15.2063 1.9813 15.4108 1.9813 15.5932 2.05611L15.6437 2.07812C15.6708 2.09012 15.7078 2.10698 15.7533 2.12882C15.8441 2.17245 15.9696 2.23631 16.1181 2.32148C16.4136 2.49096 16.8088 2.74953 17.2066 3.10758C18.0015 3.82292 18.8512 4.9805 18.8512 6.63136C18.8512 8.65152 17.3153 10.3833 15.3086 10.3833C13.302 10.3833 11.7661 8.65152 11.7661 6.63136C11.7661 4.9805 12.6158 3.82292 13.4107 3.10758C13.8085 2.74953 14.2037 2.49096 14.4992 2.32148C14.6477 2.23631 14.7731 2.17245 14.864 2.12882ZM16.2032 4.22253C15.9029 3.95226 15.5999 3.75348 15.3719 3.62269C15.35 3.61015 15.3289 3.59828 15.3086 3.58708C15.2884 3.59828 15.2673 3.61015 15.2454 3.62269C15.0174 3.75348 14.7144 3.95226 14.4141 4.22253C13.8127 4.76382 13.2661 5.54675 13.2661 6.63136C13.2661 7.61379 13.8207 8.40106 14.5586 8.72433V6.10612C14.5586 5.69191 14.8944 5.35612 15.3086 5.35612C15.7229 5.35612 16.0586 5.69191 16.0586 6.10612V8.72433C16.7966 8.40106 17.3512 7.61379 17.3512 6.63136C17.3512 5.54675 16.8046 4.76382 16.2032 4.22253Z" fill="#323544"/>
<path opacity="0.4" d="M19.4266 11.0829C20.0839 10.5499 21.0447 10.6301 21.6044 11.2649C22.1114 11.84 22.1317 12.6964 21.6525 13.2949L17.7859 18.1236C17.4104 18.5924 16.8423 18.8653 16.2417 18.8653H10.0685C9.8825 18.8653 9.70317 18.9344 9.56527 19.0592L9.04042 19.534C9.14503 19.8626 9.01125 20.231 8.7004 20.4105L6.1238 21.8981C5.76508 22.1052 5.30638 21.9823 5.09928 21.6236L2.10061 16.4297C1.8935 16.071 2.01641 15.6123 2.37513 15.4052L4.95173 13.9176C5.18986 13.7801 5.47206 13.788 5.69546 13.9139L7.38764 12.5611C7.94114 12.1187 8.64057 11.8137 9.41278 11.8102C10.2262 11.8065 11.5119 11.8785 12.6754 12.3031H15.2732C15.9345 12.3031 16.512 12.6622 16.8212 13.1961L19.4266 11.0829ZM8.55886 17.9469C8.97255 17.5726 9.51056 17.3653 10.0685 17.3653H16.2417C16.3869 17.3653 16.5242 17.2993 16.615 17.186L20.4816 12.3573C20.5053 12.3277 20.5043 12.2854 20.4792 12.2569C20.4515 12.2255 20.404 12.2216 20.3715 12.2479L16.5205 15.3713C16.1984 15.6851 15.7583 15.8784 15.2732 15.8784H12.5383C12.1241 15.8784 11.7883 15.5426 11.7883 15.1284C11.7883 14.7142 12.1241 14.3784 12.5383 14.3784H15.2732C15.3195 14.3784 15.3633 14.3674 15.4021 14.3479C15.4102 14.3408 15.4184 14.3338 15.4269 14.3269L15.5 14.2677C15.5381 14.2189 15.5608 14.1575 15.5608 14.0907C15.5608 13.9319 15.432 13.8031 15.2732 13.8031H12.5912C12.4613 13.8031 12.3365 13.7785 12.222 13.7349C11.296 13.382 10.1887 13.3067 9.41955 13.3102C9.04628 13.3118 8.66549 13.46 8.32425 13.7328L6.53627 15.1621L8.2864 18.1934L8.55886 17.9469ZM3.77464 16.3292L6.02332 20.224L7.30088 19.4864L5.05221 15.5916L3.77464 16.3292Z" fill="#323544"/>
</svg>
