<svg width="24" height="24" viewBox="0 0 24 24" fill="none" xmlns="http://www.w3.org/2000/svg">
<path d="M12 4.94862L11.8227 4.77124C9.5756 2.52417 5.93237 2.52417 3.6853 4.77124C1.43823 7.01831 1.43823 10.6615 3.6853 12.9086L10.409 19.6324C10.8483 20.0718 11.4242 20.2915 12 20.2914V18.7914C11.8081 18.7914 11.6161 18.7182 11.4697 18.5718L4.74596 11.848C3.08468 10.1867 3.08468 7.49319 4.74596 5.8319C6.40725 4.17062 9.10073 4.17062 10.762 5.8319L11.4697 6.53961C11.6104 6.68026 11.8011 6.75928 12 6.75928L12 4.94862Z" fill="#323544"/>
<path opacity="0.4" d="M19.254 11.8479L12.5303 18.5717C12.3838 18.7181 12.1919 18.7913 12 18.7913V20.2913C12.5758 20.2913 13.1516 20.0716 13.5909 19.6323L20.3146 12.9086C22.5617 10.6615 22.5617 7.01831 20.3146 4.77124C18.0676 2.52417 14.4243 2.52417 12.1773 4.77124L12 4.94851L12 6.75917C12.1989 6.75917 12.3897 6.68016 12.5303 6.5395L13.2379 5.8319C14.8992 4.17062 17.5927 4.17062 19.254 5.8319C20.9153 7.49319 20.9153 10.1867 19.254 11.8479Z" fill="#323544"/>
</svg>
