<svg width="24" height="25" viewBox="0 0 24 25" fill="none" xmlns="http://www.w3.org/2000/svg">
<path d="M13.1428 5.69652C12.9146 5.18697 12.662 4.72556 12.3869 4.32239C11.6806 3.28738 10.724 2.5 9.54883 2.5C8.6909 2.5 7.94362 2.9252 7.33827 3.54669C6.73524 4.1658 6.22673 5.02267 5.81564 6.02052C4.992 8.01974 4.5 10.7298 4.5 13.6846C4.5 16.4658 4.93606 19.0359 5.67811 21H4C3.58579 21 3.25 21.3358 3.25 21.75C3.25 22.1642 3.58579 22.5 4 22.5H9.36009L9.16642 21.5592L9.16291 21.5413C8.83339 19.7784 8.87253 17.624 9.25241 15.3656C9.38493 14.5778 9.56012 13.7699 9.77907 12.9528C9.95526 12.2953 10.1529 11.6573 10.3688 11.0433C10.7779 9.8798 11.2544 8.79655 11.7781 7.82654C12.1949 7.0545 12.6522 6.33468 13.1428 5.69652Z" fill="#323544"/>
<path d="M16.9084 3.97807C16.3177 4.14256 15.752 4.48301 15.24 4.91404C14.3117 5.69549 13.4274 6.87654 12.658 8.30161C12.2203 9.11242 11.8143 10.0123 11.455 10.9797L15.6211 10.0624C16.3358 9.90506 17.0823 10.1051 17.6226 10.5987L20.7741 13.4783C21.1528 11.2457 21.1768 9.16669 20.8547 7.52783C20.5264 5.85791 19.767 4.34231 18.3304 3.95738C17.8501 3.82868 17.3715 3.84929 16.9084 3.97807Z" fill="#323544"/>
<path d="M20.4209 15.1874L16.6108 11.7061C16.4307 11.5416 16.1818 11.4749 15.9436 11.5273L11.2487 12.5611C11.1396 12.5852 11.0308 12.5841 10.9283 12.5618C10.8648 12.7759 10.8037 12.9926 10.745 13.2116C10.5804 13.8258 10.4417 14.4338 10.3283 15.0307L14.5384 14.1036C15.2531 13.9462 15.9997 14.1463 16.54 14.6399L19.7244 17.5495C19.9246 16.9758 20.1086 16.3797 20.2732 15.7653C20.325 15.572 20.3742 15.3793 20.4209 15.1874Z" fill="#323544"/>
<path d="M19.1427 19.0498L15.5282 15.7473C15.3481 15.5827 15.0992 15.5161 14.861 15.5685L10.2072 16.5933C10.1657 16.6024 10.1242 16.6079 10.0831 16.61C9.87194 18.3767 9.89415 20.0108 10.1459 21.3575L10.3811 22.5H20C20.4142 22.5 20.75 22.1642 20.75 21.75C20.75 21.3358 20.4142 21 20 21H18.1805C18.5212 20.3994 18.8441 19.7461 19.1427 19.0498Z" fill="#323544"/>
</svg>
