<svg width="24" height="24" viewBox="0 0 24 24" fill="none" xmlns="http://www.w3.org/2000/svg">
<path d="M7.7858 6.50191C6.5846 6.54884 5.6252 7.53746 5.6252 8.75016V9.48177L4.22835 9.03571C3.83377 8.9097 3.41175 9.12743 3.28575 9.52201C3.15974 9.9166 3.37747 10.3386 3.77205 10.4646L5.6252 11.0564V13.1253H4.0002C3.58599 13.1253 3.2502 13.4611 3.2502 13.8753C3.2502 14.2896 3.58599 14.6253 4.0002 14.6253H5.6252V15.6252C5.6252 15.9799 5.65418 16.3279 5.70989 16.6669L3.77205 17.2857C3.37747 17.4117 3.15974 17.8337 3.28575 18.2283C3.41175 18.6229 3.83377 18.8406 4.22835 18.7146L6.12692 18.1083C7.09511 20.3955 9.36026 22.0002 12.0002 22.0002C14.6401 22.0002 16.9053 20.3955 17.8735 18.1083L19.7721 18.7146C20.1666 18.8406 20.5887 18.6229 20.7147 18.2283C20.8407 17.8337 20.6229 17.4117 20.2284 17.2857L18.2905 16.6669C18.3462 16.3279 18.3752 15.9799 18.3752 15.6252V14.6252H20.0002C20.4144 14.6252 20.7502 14.2894 20.7502 13.8752C20.7502 13.461 20.4144 13.1252 20.0002 13.1252H18.3752V11.0564L20.2284 10.4646C20.6229 10.3386 20.8407 9.9166 20.7147 9.52201C20.5887 9.12743 20.1666 8.9097 19.7721 9.03571L18.3752 9.48177V8.75016C18.3752 7.53746 17.4148 6.54693 16.2136 6.5L7.7858 6.50191Z" fill="#323544"/>
<path opacity="0.4" d="M9.11046 2.07934C9.48094 1.8941 9.93144 2.04427 10.1167 2.41475L10.6594 3.50024L10.6776 3.50016H13.3235C13.3758 3.50016 13.4279 3.50198 13.4796 3.50557L14.025 2.41475C14.2103 2.04427 14.6608 1.8941 15.0313 2.07934C15.4018 2.26459 15.5519 2.71509 15.3667 3.08557L14.8575 4.10404C15.0507 4.28408 15.2138 4.49958 15.336 4.74393L15.714 5.5H8.28711L8.66514 4.74393C8.8074 4.45942 9.0051 4.21402 9.24134 4.01817L8.77504 3.08557C8.5898 2.71509 8.73997 2.26459 9.11046 2.07934Z" fill="#323544"/>
</svg>
