<svg width="24" height="24" viewBox="0 0 24 24" fill="none" xmlns="http://www.w3.org/2000/svg">
<path d="M6.95481 2.05347C6.57393 1.89067 6.13319 2.06747 5.9704 2.44835C5.8076 2.82923 5.9844 3.26997 6.36528 3.43276C6.71532 3.58237 7.04592 3.92261 7.3769 4.56052C7.42718 4.65743 7.47628 4.75883 7.52447 4.86465C6.92777 4.70097 6.30216 4.66478 5.75102 4.74818C4.45893 4.9437 3.38727 5.6939 2.74245 6.71758C2.52169 7.06806 2.62684 7.53115 2.97732 7.75191C3.3278 7.97268 3.79088 7.86752 4.01165 7.51705C4.434 6.84653 5.13245 6.35886 5.97545 6.23129C6.38201 6.16977 6.89412 6.21364 7.35686 6.38472C7.47102 6.42692 7.57815 6.47525 7.67749 6.52922C6.60195 7.09075 5.76196 7.98073 5.25242 9.03423C5.07206 9.40711 5.22814 9.8556 5.60103 10.036C5.97392 10.2163 6.42241 10.0602 6.60276 9.68735C7.00978 8.84583 7.70275 8.14977 8.59306 7.75192C9.04277 8.83889 9.38427 9.83096 9.57787 10.9881C9.79085 12.2612 9.82987 13.7682 9.59713 15.842C7.15513 16.3701 5.00652 17.6864 3.4319 19.5099C3.24014 19.7319 3.19548 20.0454 3.31758 20.3122C3.43969 20.579 3.70615 20.7501 3.99954 20.7501H19.9998C20.2932 20.7501 20.5596 20.579 20.6817 20.3122C20.8038 20.0454 20.7592 19.7319 20.5674 19.5099C18.4935 17.1082 15.4239 15.5863 11.9997 15.5863C11.7068 15.5863 11.4164 15.5975 11.1291 15.6194C11.3269 13.6363 11.2842 12.0968 11.0573 10.7406C10.8521 9.51421 10.5 8.46234 10.0702 7.40076C10.9589 7.35995 11.8188 7.61556 12.5305 8.09902C12.8731 8.33178 13.3395 8.2427 13.5723 7.90006C13.8051 7.55743 13.716 7.09098 13.3733 6.85823C12.3331 6.15156 11.0567 5.79924 9.74859 5.91966C9.78994 5.8229 9.84751 5.72292 9.92236 5.6196C10.1806 5.26314 10.5911 4.95531 10.9796 4.7855C11.7609 4.44409 12.6118 4.48443 13.3265 4.82663C13.7001 5.0055 14.148 4.84763 14.3269 4.47403C14.5057 4.10043 14.3479 3.65256 13.9743 3.47369C12.8831 2.95125 11.5764 2.88773 10.379 3.41101C9.88932 3.62499 9.37658 3.97385 8.96813 4.42066C8.88544 4.22887 8.79914 4.04468 8.70835 3.8697C8.30723 3.0966 7.76692 2.40057 6.95481 2.05347Z" fill="#323544"/>
<path opacity="0.4" d="M18 7.50073C16.4812 7.50073 15.25 8.73195 15.25 10.2507C15.25 11.7695 16.4812 13.0007 18 13.0007C19.5188 13.0007 20.75 11.7695 20.75 10.2507C20.75 8.73195 19.5188 7.50073 18 7.50073Z" fill="#323544"/>
</svg>
