<svg width="24" height="24" viewBox="0 0 24 24" fill="none" xmlns="http://www.w3.org/2000/svg">
<path fill-rule="evenodd" clip-rule="evenodd" d="M3.25 2.75C3.25 2.33579 3.58579 2 4 2H6.5C8.87635 2 10.9429 3.32622 12 5.27888C13.0571 3.32622 15.1237 2 17.5 2H20C20.4142 2 20.75 2.33579 20.75 2.75V5.25C20.75 8.70178 17.9518 11.5 14.5 11.5H12.75H11.25H9.5C6.04822 11.5 3.25 8.70178 3.25 5.25V2.75Z" fill="#323544"/>
<path opacity="0.4" d="M11.25 11.5L11.25 21.25C11.25 21.6642 11.5858 22 12 22C12.4142 22 12.75 21.6642 12.75 21.25L12.75 11.5H11.25Z" fill="#323544"/>
</svg>
