<svg width="24" height="24" viewBox="0 0 24 24" fill="none" xmlns="http://www.w3.org/2000/svg">
<path opacity="0.4" d="M11.8537 5.68724C11.0057 4.10295 8.73426 4.10295 7.88627 5.68724L2.2655 16.1884C1.46324 17.6873 2.54916 19.5002 4.24921 19.5002L19.7463 19.5003C21.4002 19.5003 22.4889 17.776 21.7777 16.2828L19.3509 11.1877C18.5365 9.47768 16.1027 9.47769 15.2882 11.1877L15.0573 11.6725L11.8537 5.68724Z" fill="#323544"/>
<path d="M7.88627 5.68755C8.73426 4.10326 11.0057 4.10325 11.8537 5.68754L15.0573 11.6728L15.2882 11.188C16.1027 9.47799 18.5365 9.47799 19.3509 11.188L21.7777 16.2831C22.4889 17.7763 21.4002 19.5006 19.7463 19.5006H12.517C12.5124 19.5006 12.5079 19.5006 12.5034 19.5005H4.24921C2.54916 19.5005 1.46324 17.6876 2.2655 16.1887L7.88627 5.68755ZM12.5306 18.0006H19.7463C20.2976 18.0006 20.6605 17.4258 20.4235 16.9281L17.9967 11.833C17.7252 11.263 16.9139 11.263 16.6425 11.833L15.7735 13.6575C15.6518 13.913 15.3968 14.0782 15.1139 14.0848C14.8311 14.0915 14.5686 13.9384 14.4351 13.689L10.5312 6.3954C10.2486 5.86731 9.49141 5.8673 9.20874 6.3954L3.58798 16.8966C3.32056 17.3962 3.68253 18.0005 4.24921 18.0005H12.517C12.5215 18.0005 12.5261 18.0006 12.5306 18.0006Z" fill="#323544"/>
</svg>
