<svg width="24" height="24" viewBox="0 0 24 24" fill="none" xmlns="http://www.w3.org/2000/svg">
<path d="M8.68945 2.5C6.0661 2.5 3.93945 4.62665 3.93945 7.25C3.93945 8.22992 4.23681 9.14149 4.74556 9.898C4.01917 10.7799 3.58203 11.9109 3.58203 13.1433C3.58203 15.7092 5.47428 17.8331 7.93945 18.1958L7.93945 20.75C7.93945 21.1642 8.27524 21.5 8.68945 21.5C9.10367 21.5 9.43945 21.1642 9.43945 20.75V18.1957C9.99912 18.1133 10.5293 17.9401 11.0144 17.6916C11.6144 17.3843 12.1456 16.9617 12.5788 16.4531C12.583 16.4481 12.5873 16.4431 12.5915 16.4381C13.3432 15.5488 13.7963 14.3989 13.7963 13.1433C13.7963 11.9111 13.3593 10.7802 12.6331 9.89838C13.142 9.14178 13.4395 8.23008 13.4395 7.25C13.4395 7.20957 13.4389 7.16926 13.4379 7.12907C13.3738 4.56161 11.2724 2.5 8.68945 2.5Z" fill="#323544"/>
<path opacity="0.4" d="M14.3783 6.40507C14.419 6.68083 14.44 6.96296 14.44 7.25C14.44 8.17943 14.2184 9.05952 13.8256 9.83793C14.4396 10.7905 14.7969 11.9263 14.7969 13.1433C14.7969 14.7766 14.1557 16.2601 13.1113 17.356C13.7092 18.1505 14.592 18.7185 15.608 18.9082V20.75C15.608 21.1642 15.9437 21.5 16.358 21.5C16.7722 21.5 17.108 21.1642 17.108 20.75V18.9082C18.9922 18.5563 20.4184 16.9031 20.4184 14.9168C20.4184 13.9818 20.1018 13.1201 19.571 12.4341C20.1018 11.7479 20.4185 10.8862 20.4185 9.95112C20.4185 7.70857 18.6006 5.89062 16.358 5.89062C15.6392 5.89062 14.964 6.07741 14.3783 6.40507Z" fill="#323544"/>
</svg>
