<svg width="24" height="25" viewBox="0 0 24 25" fill="none" xmlns="http://www.w3.org/2000/svg">
<path d="M12.75 21.75V18.963V17.4536V15.2518C13.0569 15.1435 13.345 14.9666 13.5905 14.7211L14.6094 13.7022C14.9023 13.4093 14.9023 12.9344 14.6094 12.6415C14.3165 12.3487 13.8417 12.3487 13.5488 12.6415L12.5299 13.6605C12.237 13.9533 11.7621 13.9533 11.4692 13.6605L10.4502 12.6415C10.1573 12.3486 9.68247 12.3487 9.38958 12.6416C9.09669 12.9345 9.0967 13.4093 9.3896 13.7022L10.4086 14.7211C10.6543 14.9669 10.9428 15.1439 11.25 15.2522V17.4536L11.25 18.963V21.75C11.25 22.1642 11.5858 22.5 12 22.5C12.4142 22.5 12.75 22.1642 12.75 21.75Z" fill="#323544"/>
<path opacity="0.4" d="M12 2.5C16.1421 2.5 19.5 5.85786 19.5 10V11.5C19.5 15.389 16.54 18.5866 12.75 18.9629V15.252C13.0569 15.1436 13.3453 14.9662 13.5908 14.7207L14.6094 13.7021C14.9023 13.4093 14.9023 12.9345 14.6094 12.6416C14.3165 12.3487 13.8417 12.3487 13.5488 12.6416L12.5303 13.6602C12.2374 13.953 11.7616 13.953 11.4688 13.6602L10.4502 12.6416C10.1573 12.3487 9.68254 12.3487 9.38965 12.6416C9.09677 12.9345 9.09676 13.4093 9.38965 13.7021L10.4082 14.7207C10.6539 14.9664 10.9428 15.1437 11.25 15.252V18.9629C7.46001 18.5866 4.5 15.389 4.5 11.5V10C4.5 5.85786 7.85786 2.5 12 2.5Z" fill="#323544"/>
</svg>
