<svg width="24" height="24" viewBox="0 0 24 24" fill="none" xmlns="http://www.w3.org/2000/svg">
<path d="M13.0703 8.91016C13.0703 8.54324 13.0232 8.18823 12.9346 7.85059L12.832 7.51953C12.2594 5.90493 10.7188 4.75 8.91016 4.75C6.61257 4.75 4.75 6.61257 4.75 8.91016C4.75 10.3805 5.24938 11.8636 6.0459 12.9658C6.84741 14.0749 7.87432 14.707 8.91016 14.707C9.93721 14.707 10.9549 14.0854 11.7539 12.9932L11.9023 12.7822C12.624 11.7022 13.0703 10.3005 13.0703 8.91016ZM14.5703 8.91016C14.5703 10.5997 14.0341 12.2925 13.1465 13.6191L12.9648 13.8789C12.1406 15.0057 10.9982 15.8893 9.66016 16.1357V20C9.66016 20.4142 9.32437 20.75 8.91016 20.75C8.49594 20.75 8.16016 20.4142 8.16016 20V16.1357C6.80864 15.8869 5.65655 14.9883 4.83008 13.8447C3.84949 12.4878 3.25 10.6972 3.25 8.91016C3.25 5.78414 5.78414 3.25 8.91016 3.25C11.3736 3.25 13.4678 4.82328 14.2461 7.01758L14.3203 7.24219C14.483 7.77027 14.5703 8.33064 14.5703 8.91016Z" fill="#323544"/>
<path opacity="0.4" d="M15.8701 5.79688C18.5644 5.79688 20.749 7.98151 20.749 10.6758C20.7489 12.2034 20.2365 13.7334 19.3975 14.8945C18.7103 15.8453 17.7524 16.6102 16.6201 16.8506V20C16.6201 20.4142 16.2843 20.75 15.8701 20.75C15.4561 20.7497 15.1201 20.414 15.1201 20V16.8506C13.9305 16.5992 12.9366 15.7681 12.2305 14.7266C12.4959 14.4663 12.7421 14.1821 12.9639 13.8789L13.1455 13.6191C13.1738 13.5769 13.2 13.5332 13.2275 13.4902C13.9013 14.7087 14.8968 15.4304 15.8701 15.4307C16.69 15.4307 17.5216 14.929 18.1816 14.0156C18.8366 13.1092 19.2489 11.8867 19.249 10.6758C19.249 8.80993 17.736 7.29688 15.8701 7.29688C15.3507 7.29695 14.8598 7.4143 14.4209 7.62305C14.391 7.49449 14.3579 7.36729 14.3193 7.24219L14.2451 7.01758C14.147 6.74105 14.0276 6.47462 13.8896 6.21973C14.4955 5.94981 15.1652 5.79695 15.8701 5.79688Z" fill="#323544"/>
</svg>
