<svg width="24" height="24" viewBox="0 0 24 24" fill="none" xmlns="http://www.w3.org/2000/svg">
<path d="M20.25 7.7494V6.75C20.25 5.50736 19.2426 4.5 18 4.5H6C4.75736 4.5 3.75 5.50736 3.75 6.75V7.7494C3.74973 7.761 3.74973 7.77257 3.75 7.78411V10.8058C2.74801 11.0331 2 11.9292 2 13V18.75C2 19.1642 2.33579 19.5 2.75 19.5H21.25C21.6642 19.5 22 19.1642 22 18.75V13C22 11.9292 21.252 11.0331 20.25 10.8058V7.78411C20.2503 7.77257 20.2503 7.761 20.25 7.7494ZM6 6H18C18.4142 6 18.75 6.33579 18.75 6.75V7.22139V8.7983V10.75H5.25V8.7983V7.22139V6.75C5.25 6.33579 5.58579 6 6 6ZM4.25 12.25H19.75C20.1642 12.25 20.5 12.5858 20.5 13V13.8298V15.4067V18H3.5V15.4067V13.8298V13C3.5 12.5858 3.83579 12.25 4.25 12.25Z" fill="#323544"/>
<g opacity="0.4">
<path d="M20.5 13.8299L17.5505 14.7865C16.9489 14.9816 16.3011 14.9816 15.6995 14.7865L13.3883 14.0369C12.4859 13.7442 11.5141 13.7442 10.6117 14.0369L8.30051 14.7865C7.69893 14.9816 7.05107 14.9816 6.44949 14.7865L3.5 13.8299V15.4068L5.98673 16.2133C6.88911 16.506 7.86089 16.506 8.76327 16.2133L11.0745 15.4637C11.6761 15.2686 12.3239 15.2686 12.9255 15.4637L15.2367 16.2133C16.1391 16.506 17.1109 16.506 18.0133 16.2133L20.5 15.4068V13.8299Z" fill="#323544"/>
<path d="M7.32449 7.89428L5.25 7.22147V8.79839L6.86173 9.32112C7.76411 9.61378 8.73589 9.61378 9.63827 9.32112L11.0745 8.85532C11.6761 8.66021 12.3239 8.66021 12.9255 8.85532L14.3617 9.32112C15.2641 9.61378 16.2359 9.61378 17.1383 9.32112L18.75 8.79839V7.22147L16.6755 7.89428C16.0739 8.08939 15.4261 8.08939 14.8245 7.89428L13.3883 7.42848C12.4859 7.13582 11.5141 7.13582 10.6117 7.42848L9.17552 7.89428C8.57393 8.08939 7.92607 8.08939 7.32449 7.89428Z" fill="#323544"/>
</g>
</svg>
