<svg width="24" height="24" viewBox="0 0 24 24" fill="none" xmlns="http://www.w3.org/2000/svg">
<path d="M17.0014 3.33953C13.9523 1.57912 10.0534 2.62382 8.29297 5.67294L9.59201 6.42294C10.9382 4.09126 13.9197 3.29237 16.2514 4.63857C18.5831 5.98476 19.3819 8.96626 18.0358 11.2979L16.0983 14.6538C15.8911 15.0125 15.4325 15.1354 15.0737 14.9283C14.715 14.7212 14.5921 14.2625 14.7992 13.9038L16.7367 10.5479C17.6687 8.9337 17.1156 6.86958 15.5014 5.9376C13.8871 5.00562 11.823 5.5587 10.891 7.17294L12.1901 7.92294C12.7078 7.02614 13.8546 6.71887 14.7514 7.23664C15.6482 7.75441 15.9554 8.90114 15.4377 9.79794L13.5002 13.1538C12.8789 14.2299 13.2476 15.606 14.3237 16.2273C15.3999 16.8487 16.776 16.4799 17.3973 15.4038L19.3348 12.0479C21.0952 8.99882 20.0505 5.09993 17.0014 3.33953Z" fill="#323544"/>
<path opacity="0.4" d="M6.50167 17.7739L12.1892 7.92285L10.8901 7.17285L5.20263 17.0239C4.99552 17.3826 4.53683 17.5055 4.17811 17.2984C3.81939 17.0913 3.69648 16.6326 3.90359 16.2739L9.59109 6.42285L8.29205 5.67285L2.60455 15.5239C1.98323 16.6 2.35195 17.9761 3.42811 18.5974C4.50427 19.2188 5.88035 18.85 6.50167 17.7739Z" fill="#323544"/>
</svg>
