<svg width="24" height="24" viewBox="0 0 24 24" fill="none" xmlns="http://www.w3.org/2000/svg">
<path opacity="0.4" d="M2.40234 7.58588C2.6494 7.45654 2.94747 7.475 3.17676 7.63373L6.42676 9.88373L6.4873 9.93061C6.77641 10.1775 6.83726 10.6074 6.61621 10.9267C6.39522 11.2458 5.9714 11.3406 5.63867 11.1572L5.57324 11.1162L3.5 9.68061V14.3183L5.57324 12.8837C5.91377 12.648 6.38041 12.7327 6.61621 13.0732C6.85196 13.4137 6.76724 13.8804 6.42676 14.1162L3.17676 16.3662C2.94747 16.5249 2.6494 16.5433 2.40234 16.414C2.15525 16.2845 2 16.0289 2 15.7499V8.24995L2.00684 8.14643C2.03989 7.90886 2.18618 7.69914 2.40234 7.58588ZM20.9121 7.58002C21.1262 7.47201 21.3815 7.47274 21.5977 7.58588C21.8448 7.71535 22 7.97099 22 8.24995V15.7499C22 16.0289 21.8448 16.2845 21.5977 16.414C21.3506 16.5433 21.0525 16.5249 20.8232 16.3662L17.5732 14.1162L17.5127 14.0693C17.2236 13.8224 17.1627 13.3925 17.3838 13.0732C17.6048 12.7541 18.0286 12.6593 18.3613 12.8427L18.4268 12.8837L20.5 14.3183V9.68061L18.4268 11.1162C18.0862 11.3519 17.6196 11.2672 17.3838 10.9267C17.148 10.5862 17.2328 10.1195 17.5732 9.88373L20.8232 7.63373L20.9121 7.58002Z" fill="#323544"/>
<path d="M17.25 12C17.25 9.19148 15.0448 6.89756 12.2715 6.75684L12.001 6.75C9.10213 6.75011 6.75195 9.10087 6.75195 12C6.75195 14.8991 9.10213 17.2499 12.001 17.25C14.8999 17.25 17.25 14.8992 17.25 12ZM18.75 12C18.75 15.7274 15.7286 18.75 12.001 18.75C8.27345 18.7499 5.25195 15.7273 5.25195 12C5.25195 8.2727 8.27345 5.25011 12.001 5.25L12.3486 5.25879C15.9148 5.43968 18.75 8.38916 18.75 12Z" fill="#323544"/>
</svg>
