<svg width="24" height="24" viewBox="0 0 24 24" fill="none" xmlns="http://www.w3.org/2000/svg">
<path d="M17.8206 2.75813C19.1903 2.65761 20.3297 3.79704 20.2292 5.16678L19.7709 11.4115C19.7494 11.7041 19.5593 11.9573 19.2844 12.0596C19.0094 12.1619 18.7 12.0944 18.4926 11.887L17.5465 10.9409L11.0516 17.4358C10.7587 17.7287 10.2838 17.7287 9.99095 17.4358L9.1342 16.579L8.07353 15.5184L7.47067 14.9155L6.41105 13.8559L5.55561 13.0004C5.26271 12.7075 5.26271 12.2327 5.55561 11.9398L7.36243 10.1329C7.38872 10.102 7.41717 10.0737 7.44742 10.048L9.58172 7.91366C9.60709 7.88401 9.63446 7.85671 9.66351 7.83186L12.0505 5.44489L11.1003 4.49475C10.8929 4.2873 10.8255 3.97795 10.9277 3.70297C11.03 3.428 11.2832 3.2379 11.5758 3.21643L17.8206 2.75813ZM18.7332 5.05699C18.7667 4.60041 18.3869 4.2206 17.9303 4.25411L13.3194 4.5925L18.3948 9.66791L18.7332 5.05699ZM9.68771 15.0112L10.5213 15.8448L12.2699 14.0962L13.3632 13.0029L14.4875 11.8785L15.5808 10.7852L16.4832 9.88282L13.1086 6.50813L11.3625 8.25421L10.2692 9.34751L9.14484 10.4719L8.05153 11.5652L7.1466 12.4701L9.64134 14.9648C9.64936 14.9722 9.65725 14.9798 9.66502 14.9875C9.67279 14.9953 9.68036 15.0032 9.68771 15.0112Z" fill="#323544"/>
<g opacity="0.4">
<path d="M8.14132 17.573L9.13514 16.5792L8.07448 15.5185L7.08066 16.5124C5.99676 17.5963 5.99676 19.3536 7.08066 20.4375C8.16456 21.5214 9.92191 21.5214 11.0058 20.4375C11.2987 20.1446 11.2987 19.6697 11.0058 19.3769C10.7129 19.084 10.238 19.084 9.94515 19.3769C9.44704 19.875 8.63943 19.875 8.14132 19.3769C7.64321 18.8787 7.64321 18.0711 8.14132 17.573Z" fill="#323544"/>
<path d="M7.44843 14.9399C7.45638 14.932 7.4641 14.9239 7.47162 14.9157L6.412 13.8561C6.40379 13.8636 6.39572 13.8713 6.38777 13.8792L3.98529 16.2817C3.6924 16.5746 3.6924 17.0495 3.98529 17.3424C4.27819 17.6353 4.75306 17.6353 5.04596 17.3424L7.44843 14.9399Z" fill="#323544"/>
<path d="M8.05248 11.5654L12.2708 14.0964L13.3641 13.0031L9.14578 10.472L8.05248 11.5654Z" fill="#323544"/>
<path d="M10.2701 9.3477L14.4885 11.8787L15.5818 10.7854L11.3634 8.25439L10.2701 9.3477Z" fill="#323544"/>
</g>
</svg>
