<svg width="24" height="24" viewBox="0 0 24 24" fill="none" xmlns="http://www.w3.org/2000/svg">
<path d="M6.75 19.75V13.75V12.25V11.5C6.75 8.60051 9.10051 6.25 12 6.25C14.8995 6.25 17.25 8.60051 17.25 11.5V12.25V13.75V19.75C17.25 20.1642 16.9142 20.5 16.5 20.5H7.5C7.08579 20.5 6.75 20.1642 6.75 19.75ZM16.5 22C17.7426 22 18.75 20.9926 18.75 19.75V11.5C18.75 7.77208 15.7279 4.75 12 4.75C8.27208 4.75 5.25 7.77208 5.25 11.5V19.75C5.25 20.9926 6.25736 22 7.5 22H16.5Z" fill="#323544"/>
<g opacity="0.4">
<path d="M17.25 13.75H6.75V12.25H17.25V13.75Z" fill="#323544"/>
<path d="M12.8271 2.00391C13.1194 2.03377 13.3591 2.23245 13.4541 2.5H14C14.4142 2.5 14.75 2.83579 14.75 3.25C14.75 3.66421 14.4142 4 14 4H13.5V4.91895C13.0175 4.80943 12.5157 4.75 12 4.75C11.4843 4.75 10.9825 4.80943 10.5 4.91895V2.75L10.5039 2.67285C10.5425 2.29488 10.8618 2 11.25 2H12.75L12.8271 2.00391Z" fill="#323544"/>
</g>
</svg>
