<svg width="24" height="24" viewBox="0 0 24 24" fill="none" xmlns="http://www.w3.org/2000/svg">
<path d="M21.0129 8.04979C21.3734 7.92915 21.774 8.09922 21.9338 8.45311C22.0936 8.80701 21.956 9.21951 21.6272 9.41015L21.5588 9.4453H21.5578L21.5568 9.44628C21.5559 9.4467 21.5543 9.4476 21.5529 9.44823C21.5502 9.44946 21.5466 9.45116 21.5422 9.45311C21.5329 9.45723 21.5197 9.46257 21.5031 9.46972C21.4697 9.48413 21.4215 9.50484 21.3596 9.53026C21.2355 9.58115 21.0553 9.65251 20.8234 9.73729C20.3599 9.90685 19.6886 10.1302 18.8459 10.3535C17.1619 10.7997 14.7837 11.2461 12.0002 11.2461C9.21665 11.2461 6.83849 10.7997 5.1545 10.3535C4.31182 10.1302 3.64053 9.90685 3.17696 9.73729C2.94514 9.65251 2.76485 9.58115 2.64082 9.53026C2.57886 9.50484 2.53068 9.48413 2.49727 9.46972C2.4807 9.46257 2.46752 9.45723 2.45821 9.45311C2.45378 9.45116 2.45022 9.44946 2.44746 9.44823C2.44605 9.4476 2.4445 9.4467 2.44356 9.44628L2.44258 9.4453H2.4416L2.37324 9.41015C2.0444 9.21951 1.90685 8.80701 2.0666 8.45311C2.23708 8.07565 2.68131 7.90771 3.05879 8.07811L3.06465 8.08104C3.07019 8.08349 3.07959 8.08741 3.092 8.09276C3.11743 8.10373 3.15695 8.12073 3.21016 8.14257C3.31726 8.18652 3.47989 8.25032 3.69258 8.32811C4.11805 8.48373 4.74488 8.69403 5.53828 8.90429C7.12687 9.32524 9.37407 9.74608 12.0002 9.74608C14.6263 9.74608 16.8735 9.32524 18.4621 8.90429C19.2555 8.69403 19.8823 8.48373 20.3078 8.32811C20.5205 8.25032 20.6831 8.18652 20.7902 8.14257C20.8434 8.12073 20.883 8.10373 20.9084 8.09276C20.9208 8.08741 20.9302 8.08349 20.9357 8.08104L20.9416 8.07811L21.0129 8.04979Z" fill="#323544"/>
<path opacity="0.4" d="M21.9922 8.86816C21.9861 8.91014 21.9774 8.95244 21.9639 8.99414L20.2129 14.374C20.1343 14.6153 19.9385 14.8005 19.6934 14.8662C19.4484 14.9316 19.1866 14.8688 18.998 14.6992L15.3672 11.4326L12.6289 15.6475C12.4905 15.86 12.2537 15.9883 12 15.9883C11.7464 15.9881 11.5094 15.86 11.3711 15.6475L8.63281 11.4336L5.00195 14.7012C4.81332 14.8706 4.55156 14.9337 4.30664 14.8682C4.06161 14.8024 3.86562 14.6163 3.78711 14.375L2.03711 8.99609L2.0166 8.92188C2.01388 8.90932 2.01378 8.89635 2.01172 8.88379C2.04748 9.09882 2.17461 9.29506 2.37305 9.41016L2.44141 9.44531L2.44336 9.44629L2.44727 9.44824C2.44999 9.44946 2.45366 9.4512 2.45801 9.45312C2.46729 9.45722 2.48058 9.46261 2.49707 9.46973C2.53045 9.48413 2.57875 9.50488 2.64062 9.53027C2.76462 9.58115 2.94503 9.65254 3.17676 9.7373C3.38858 9.81478 3.64436 9.90227 3.93945 9.99707L4.85645 12.8135L7.10645 10.7891C8.04931 10.9642 9.10922 11.1104 10.2617 11.1865L12 13.8613L13.7373 11.1865C14.8902 11.1104 15.9504 10.9643 16.8936 10.7891L19.1426 12.8125L20.0586 9.99805C20.3546 9.90298 20.6109 9.81498 20.8232 9.7373C21.0549 9.65256 21.2354 9.58116 21.3594 9.53027C21.4212 9.50489 21.4695 9.48414 21.5029 9.46973C21.5194 9.46262 21.5327 9.45723 21.542 9.45312C21.5463 9.45121 21.55 9.44947 21.5527 9.44824L21.5566 9.44629L21.5576 9.44531L21.627 9.41016C21.8303 9.29226 21.9602 9.08943 21.9922 8.86816Z" fill="#323544"/>
</svg>
