<svg width="25" height="25" viewBox="0 0 25 25" fill="none" xmlns="http://www.w3.org/2000/svg">
<path d="M12.0484 7.12597C11.4971 7.12597 11.0502 7.57368 11.0502 8.12597C11.0502 8.67825 11.4975 9.12597 12.0488 9.12597C12.6001 9.12597 13.0474 8.67825 13.0474 8.12597C13.0474 7.57368 12.5997 7.12597 12.0484 7.12597Z" fill="#323544"/>
<path d="M4.07302 4.37598C2.41576 6.44704 2.41576 9.80491 4.07302 11.876M7.56522 6.3418C6.57982 7.32719 6.57982 8.92484 7.56522 9.91023M20.0254 4.37598C21.6826 6.44704 21.6826 9.80491 20.0254 11.876M16.5324 6.3418C17.5178 7.32719 17.5178 8.92484 16.5324 9.91023M12.0488 9.12597V20.376M12.0488 9.12597C12.6001 9.12597 13.0474 8.67825 13.0474 8.12597C13.0474 7.57368 12.5997 7.12597 12.0484 7.12597C11.4971 7.12597 11.0502 7.57368 11.0502 8.12597C11.0502 8.67825 11.4975 9.12597 12.0488 9.12597Z" stroke="#323544" stroke-width="1.5" stroke-linecap="round" stroke-linejoin="round"/>
</svg>
