<svg width="24" height="24" viewBox="0 0 24 24" fill="none" xmlns="http://www.w3.org/2000/svg">
<path fill-rule="evenodd" clip-rule="evenodd" d="M11.9996 3.50098C7.30561 3.50098 3.5 7.30619 3.5 12C3.5 16.6939 7.30561 20.4991 11.9996 20.4991C16.6935 20.4991 20.4991 16.6939 20.4991 12C20.4991 7.30619 16.6935 3.50098 11.9996 3.50098ZM2 12C2 6.47766 6.47729 2.00098 11.9996 2.00098C17.5218 2.00098 21.9991 6.47766 21.9991 12C21.9991 17.5224 17.5218 21.9991 11.9996 21.9991C6.47729 21.9991 2 17.5224 2 12ZM12.2584 8.8172C12.5514 8.52441 13.0262 8.52458 13.319 8.81757L15.9311 11.4315C16.0898 11.569 16.1902 11.772 16.1902 11.9985C16.1902 12.2123 16.1007 12.4052 15.9572 12.5419L13.319 15.1817C13.0262 15.4747 12.5513 15.4748 12.2584 15.182C11.9654 14.8892 11.9652 14.4144 12.258 14.1214L13.63 12.7485L8.55957 12.7485C8.14536 12.7485 7.80957 12.4127 7.80957 11.9985C7.80957 11.5843 8.14536 11.2485 8.55957 11.2485L13.6277 11.2485L12.258 9.87786C11.9652 9.58487 11.9654 9.10999 12.2584 8.8172Z" fill="#323544"/>
</svg>
