<svg width="24" height="24" viewBox="0 0 24 24" fill="none" xmlns="http://www.w3.org/2000/svg">
<path fill-rule="evenodd" clip-rule="evenodd" d="M11.9996 3.50098C7.30561 3.50098 3.5 7.30619 3.5 12C3.5 16.6939 7.30561 20.4991 11.9996 20.4991C16.6935 20.4991 20.4991 16.6939 20.4991 12C20.4991 7.30619 16.6935 3.50098 11.9996 3.50098ZM2 12C2 6.47766 6.47729 2.00098 11.9996 2.00098C17.5218 2.00098 21.9991 6.47766 21.9991 12C21.9991 17.5224 17.5218 21.9991 11.9996 21.9991C6.47729 21.9991 2 17.5224 2 12ZM11.7414 8.81722C12.0344 9.11002 12.0345 9.58489 11.7417 9.87788L10.3698 11.2507L15.4402 11.2507C15.8544 11.2507 16.1902 11.5865 16.1902 12.0007C16.1902 12.415 15.8544 12.7507 15.4402 12.7507L10.3721 12.7507L11.7418 14.1214C12.0346 14.4144 12.0344 14.8893 11.7414 15.1821C11.4484 15.4748 10.9735 15.4747 10.6807 15.1817L8.06867 12.5678C7.90996 12.4303 7.80957 12.2272 7.80957 12.0007C7.80957 11.7869 7.89904 11.594 8.04258 11.4574L10.6808 8.81756C10.9736 8.52457 11.4484 8.52442 11.7414 8.81722Z" fill="#323544"/>
</svg>
