<svg width="24" height="24" viewBox="0 0 24 24" fill="none" xmlns="http://www.w3.org/2000/svg">
<path fill-rule="evenodd" clip-rule="evenodd" d="M11.8253 6.45518C11.8222 6.45304 11.8191 6.45092 11.816 6.44882L11.0226 5.91552C9.90385 5.16349 8.42087 5.25001 7.39716 6.12703L5.44921 7.79585C5.3133 7.91229 5.14023 7.97629 4.96126 7.97629H2.75C2.33579 7.97629 2 8.31207 2 8.72629V14.7558C2 15.17 2.33579 15.5058 2.75 15.5058H4.83766C5.05324 15.5058 5.2584 15.5986 5.40079 15.7604L7.74003 18.4197C8.49372 19.2765 9.76945 19.4335 10.7083 18.7849L11.3925 18.3122L12.1263 18.5611C13.0569 18.8769 14.0847 18.5522 14.665 17.7591L15.135 17.1168L15.4611 17.1608C16.3853 17.2854 17.2905 16.827 17.7371 16.0084L17.7859 15.9188H21.25C21.6642 15.9188 22 15.583 22 15.1688V8.72629C22 8.31207 21.6642 7.97629 21.25 7.97629H19.0388C18.8587 7.97629 18.6846 7.91148 18.5483 7.79371L16.8614 6.3357C15.3979 5.07079 13.2183 5.12952 11.8253 6.45518ZM10.1858 7.16041C9.62641 6.78439 8.88492 6.82765 8.37306 7.26616L6.42512 8.93498C6.01738 9.28429 5.49817 9.47629 4.96126 9.47629H3.5V14.0058H4.83766C5.48441 14.0058 6.09989 14.2841 6.52706 14.7697L8.8663 17.429C9.11753 17.7146 9.54277 17.7669 9.85573 17.5507L10.8502 16.8637C11.0453 16.7289 11.2928 16.6943 11.5174 16.7706L12.6083 17.1407C12.9185 17.2459 13.2611 17.1377 13.4545 16.8733L14.1879 15.8711C14.3502 15.6492 14.6209 15.534 14.8934 15.5707L15.6616 15.6743C15.9696 15.7158 16.2714 15.563 16.4202 15.2901L16.675 14.823C16.6795 14.8144 16.6841 14.8059 16.6889 14.7975L16.7135 14.7524C16.8754 14.4556 16.8186 14.0871 16.5749 13.8527L13.918 11.2977L11.839 12.9305C10.9599 13.621 9.70712 13.5613 8.8976 12.7904L8.82951 12.7255C7.91585 11.8554 7.89611 10.4043 8.78576 9.50962L10.7469 7.53756L10.1858 7.16041ZM18.305 14.4188H20.5V9.47629H19.0388C18.4985 9.47629 17.9762 9.28187 17.5675 8.92857L15.8805 7.47056C14.9865 6.69784 13.6471 6.74839 12.8138 7.58629L9.84938 10.5673C9.55282 10.8655 9.5594 11.3493 9.86396 11.6393L9.93205 11.7041C10.2019 11.9611 10.6195 11.981 10.9125 11.7508L13.4755 9.73786C13.4946 9.72126 13.5144 9.70578 13.5347 9.69143L14.041 9.29373C14.3668 9.03789 14.8383 9.09456 15.0941 9.42031C15.3122 9.69806 15.3032 10.0818 15.0939 10.3474L17.6146 12.7715C18.0737 13.2129 18.3116 13.813 18.305 14.4188Z" fill="#323544"/>
</svg>
