<svg width="24" height="24" viewBox="0 0 24 24" fill="none" xmlns="http://www.w3.org/2000/svg">
<g opacity="0.4">
<path d="M18.3652 6.69431C18.6581 6.40142 18.6581 5.92654 18.3652 5.63365C18.0723 5.34076 17.5974 5.34076 17.3045 5.63365C17.0117 5.92654 17.0116 6.40149 17.3045 6.69438C17.5974 6.98727 18.0723 6.9872 18.3652 6.69431Z" fill="#323544"/>
<path d="M17.0995 18.5712C17.5056 18.9774 18.1641 18.9774 18.5703 18.5712C18.9764 18.1651 18.9764 17.5066 18.5703 17.1005C18.1641 16.6943 17.5056 16.6942 17.0994 17.1004C16.6933 17.5065 16.6933 18.1651 17.0995 18.5712Z" fill="#323544"/>
<path d="M7.10541 18.7763C7.62481 18.2569 7.62481 17.4148 7.10541 16.8954C6.58601 16.376 5.7439 16.376 5.22451 16.8954C4.70511 17.4148 4.70504 18.257 5.22443 18.7764C5.74383 19.2958 6.58601 19.2957 7.10541 18.7763Z" fill="#323544"/>
<path d="M5.01944 7.30949C5.65209 7.94214 6.67782 7.94214 7.31047 7.30949C7.94312 6.67684 7.94312 5.65112 7.31047 5.01847C6.67782 4.38582 5.65202 4.38575 5.01937 5.0184C4.38672 5.65105 4.38679 6.67684 5.01944 7.30949Z" fill="#323544"/>
</g>
<path d="M13.7507 3.74805C13.7507 2.78155 12.9672 1.99805 12.0007 1.99805C11.0342 1.99805 10.2507 2.78155 10.2507 3.74805C10.2507 4.71455 11.0342 5.49815 12.0007 5.49815C12.9672 5.49815 13.7507 4.71455 13.7507 3.74805Z" fill="#323544"/>
<path d="M21.1477 12C21.1477 12.4943 20.747 12.895 20.2527 12.895C19.7584 12.895 19.3576 12.4943 19.3576 12C19.3576 11.5057 19.7583 11.105 20.2526 11.105C20.7469 11.105 21.1477 11.5057 21.1477 12Z" fill="#323544"/>
<path d="M12.0007 19.067C12.6552 19.067 13.1857 19.5975 13.1857 20.252C13.1857 20.9064 12.6552 21.4371 12.0007 21.4371C11.3463 21.4371 10.8157 20.9065 10.8157 20.2521C10.8157 19.5976 11.3463 19.067 12.0007 19.067Z" fill="#323544"/>
<path d="M5.22354 12C5.22354 12.8146 4.56316 13.475 3.74854 13.475C2.93392 13.475 2.27344 12.8146 2.27344 12C2.27344 11.1854 2.93382 10.525 3.74844 10.525C4.56306 10.525 5.22354 11.1854 5.22354 12Z" fill="#323544"/>
</svg>
