<svg width="25" height="24" viewBox="0 0 25 24" fill="none" xmlns="http://www.w3.org/2000/svg">
<path d="M17.75 15.5366V10.9635M17.75 15.5366L20.9765 17.6445C21.3091 17.8618 21.75 17.6231 21.75 17.2259V9.27416C21.75 8.87692 21.3091 8.63831 20.9765 8.85557L17.75 10.9635M17.75 15.5366V17.25C17.75 18.0784 17.0784 18.75 16.25 18.75H4.75C3.92157 18.75 3.25 18.0784 3.25 17.25V9.25C3.25 8.42157 3.92157 7.75 4.75 7.75H16.25C17.0784 7.75 17.75 8.42157 17.75 9.25V10.9635M15 5.25C15 6.63071 13.8807 7.75 12.5 7.75C11.1193 7.75 10 6.63071 10 5.25C10 3.86929 11.1193 2.75 12.5 2.75C13.8807 2.75 15 3.86929 15 5.25ZM10 5.75C10 6.85457 9.10457 7.75 8 7.75C6.89543 7.75 6 6.85457 6 5.75C6 4.64543 6.89543 3.75 8 3.75C9.10457 3.75 10 4.64543 10 5.75Z" stroke="#323544" stroke-width="1.5" stroke-linecap="round" stroke-linejoin="round"/>
</svg>
