<svg width="24" height="24" viewBox="0 0 24 24" fill="none" xmlns="http://www.w3.org/2000/svg">
<path d="M9.52744 8.55957C9.52744 9.04174 9.13656 9.43262 8.65439 9.43262C8.17222 9.43262 7.78134 9.04174 7.78134 8.55957C7.78134 8.0774 8.17222 7.68652 8.65439 7.68652C9.13656 7.68652 9.52744 8.0774 9.52744 8.55957Z" fill="#323544"/>
<path d="M20.0022 13.6181V5.5C20.0022 4.67157 19.3306 4 18.5022 4H5.5022C4.67377 4 4.0022 4.67157 4.0022 5.5V17.7958M20.0022 13.6181V18.5C20.0022 19.3284 19.3306 20 18.5022 20H5.5022C4.67377 20 4.0022 19.3284 4.0022 18.5V17.7958M20.0022 13.6181L17.5718 10.2565C16.8821 9.30236 15.4123 9.47848 14.9674 10.5685L12.9897 15.4149C12.5502 16.492 11.105 16.6805 10.4039 15.7521L9.18835 14.1425C8.59024 13.3505 7.40167 13.3473 6.79926 14.136L4.0022 17.7958M9.52744 8.55957C9.52744 9.04174 9.13656 9.43262 8.65439 9.43262C8.17222 9.43262 7.78134 9.04174 7.78134 8.55957C7.78134 8.0774 8.17222 7.68652 8.65439 7.68652C9.13656 7.68652 9.52744 8.0774 9.52744 8.55957Z" stroke="#323544" stroke-width="1.5" stroke-linecap="round" stroke-linejoin="round"/>
</svg>
