<svg width="25" height="24" viewBox="0 0 25 24" fill="none" xmlns="http://www.w3.org/2000/svg">
<path d="M8.5 16.7712V6.25L20.5 4V14.5212M8.5 10L20.25 7.75M8.5 16.75C8.5 17.8546 7.32475 18.75 5.875 18.75C4.42525 18.75 3.25 17.8546 3.25 16.75C3.25 15.6454 4.42525 14.75 5.875 14.75C7.32475 14.75 8.5 15.6454 8.5 16.75ZM20.5 14.5C20.5 15.6046 19.3247 16.5 17.875 16.5C16.4253 16.5 15.25 15.6046 15.25 14.5C15.25 13.3954 16.4253 12.5 17.875 12.5C19.3247 12.5 20.5 13.3954 20.5 14.5Z" stroke="#323544" stroke-width="1.5" stroke-linecap="round" stroke-linejoin="round"/>
</svg>
