<svg width="25" height="24" viewBox="0 0 25 24" fill="none" xmlns="http://www.w3.org/2000/svg">
<path d="M8.75 4H7C6.17157 4 5.5 4.67157 5.5 5.5V18.4999C5.5 19.3284 6.17157 19.9999 7 19.9999H8.75C9.57843 19.9999 10.25 19.3284 10.25 18.4999V5.5C10.25 4.67157 9.57843 4 8.75 4Z" stroke="#323544" stroke-width="1.5" stroke-linecap="round" stroke-linejoin="round"/>
<path d="M18 4H16.25C15.4216 4 14.75 4.67157 14.75 5.5V18.4999C14.75 19.3284 15.4216 19.9999 16.25 19.9999H18C18.8284 19.9999 19.5 19.3284 19.5 18.4999V5.5C19.5 4.67157 18.8284 4 18 4Z" stroke="#323544" stroke-width="1.5" stroke-linecap="round" stroke-linejoin="round"/>
</svg>
