<svg width="25" height="24" viewBox="0 0 25 24" fill="none" xmlns="http://www.w3.org/2000/svg">
<path d="M8.76 11.75C8.76 12.0261 8.53614 12.25 8.26 12.25C7.98386 12.25 7.76 12.0261 7.76 11.75C7.76 11.4739 7.98386 11.25 8.26 11.25C8.53614 11.25 8.76 11.4739 8.76 11.75Z" fill="#323544"/>
<path d="M8.5 8H15C15.8284 8 16.5 8.67157 16.5 9.5V16M8.5 8V5.5C8.5 4.67157 9.17157 4 10 4H19C19.8284 4 20.5 4.67157 20.5 5.5V14.5C20.5 15.3284 19.8284 16 19 16H16.5M8.5 8H6C5.17157 8 4.5 8.67157 4.5 9.5V18.5C4.5 19.3284 5.17157 20 6 20H15C15.8284 20 16.5 19.3284 16.5 18.5V16M4.5 17.6752L11.2636 14.169C11.8258 13.8776 12.5105 13.9706 12.9746 14.4015L16.5 17.6752M8.76 11.75C8.76 12.0261 8.53614 12.25 8.26 12.25C7.98386 12.25 7.76 12.0261 7.76 11.75C7.76 11.4739 7.98386 11.25 8.26 11.25C8.53614 11.25 8.76 11.4739 8.76 11.75Z" stroke="#323544" stroke-width="1.5" stroke-linecap="round" stroke-linejoin="round"/>
</svg>
