<svg width="25" height="24" viewBox="0 0 25 24" fill="none" xmlns="http://www.w3.org/2000/svg">
<path d="M21.7501 6.4999L19.5 8.75M21.7501 6.4999L19.5002 4.25M21.7501 6.4999L17.1865 6.5C16.7506 6.5 16.3362 6.68965 16.0513 7.01957L11.75 12M21.7501 17.4999L19.5 19.75M21.7501 17.4999L19.5002 15.25M21.7501 17.4999L17.1865 17.5C16.7506 17.5 16.3362 17.3104 16.0513 16.9804L11.75 12M11.75 12L7.44872 7.01957C7.16379 6.68965 6.74942 6.5 6.31349 6.5H3.25M11.75 12L7.44872 16.9804C7.16379 17.3104 6.74942 17.5 6.31349 17.5H3.25" stroke="#323544" stroke-width="1.5" stroke-linecap="round" stroke-linejoin="round"/>
</svg>
