<svg width="24" height="24" viewBox="0 0 24 24" fill="none" xmlns="http://www.w3.org/2000/svg">
<path d="M17.1349 8.33471C18.4988 9.85361 18.8392 12.0807 18.1562 13.9531M15.043 10.1511C15.3961 10.5437 15.6171 11.013 15.706 11.5016M2.75049 2.75L7.47068 7.4702M21.2495 21.249L12.5 12.4995M7.47068 7.4702L12.5 12.4995M7.47068 7.4702L6.59373 8.24971H4.25C3.42157 8.24971 2.75 8.92128 2.75 9.74971V14.2497C2.75 15.0781 3.42157 15.7497 4.25 15.7497H6.59377L10.0035 18.7805C10.9708 19.6404 12.5 18.9537 12.5 17.6594V12.4995M9.69414 5.49379L10.0035 5.21884C10.9708 4.35898 12.5 5.04568 12.5 6.33996V8.29297" stroke="#323544" stroke-width="1.5" stroke-linecap="round" stroke-linejoin="round"/>
</svg>
