<svg width="24" height="24" viewBox="0 0 24 24" fill="none" xmlns="http://www.w3.org/2000/svg">
<path d="M17.1349 8.33459C18.9524 10.3587 18.9524 13.6405 17.1349 15.6646M19.3343 6.62459C21.8886 9.59312 21.8886 14.4061 19.3343 17.3746M15.043 10.151C15.987 11.2007 15.987 12.7985 15.043 13.8482M10.0035 5.21873L6.59373 8.2496H4.25C3.42157 8.2496 2.75 8.92117 2.75 9.7496V14.2496C2.75 15.078 3.42157 15.7496 4.25 15.7496H6.59377L10.0035 18.7804C10.9708 19.6403 12.5 18.9536 12.5 17.6593V6.33985C12.5 5.04557 10.9708 4.35887 10.0035 5.21873Z" stroke="#323544" stroke-width="1.5" stroke-linecap="round" stroke-linejoin="round"/>
</svg>
