<svg width="24" height="24" viewBox="0 0 24 24" fill="none" xmlns="http://www.w3.org/2000/svg">
<path d="M5.15851 4.46952L3.05283 8.50541C2.93501 8.73121 2.85854 8.97059 2.82227 9.21354H7.47978L5.15851 4.46952Z" fill="#323544"/>
<path d="M2.89883 10.2135C2.98755 10.4995 3.13409 10.7701 3.33637 11.007L11.3539 20.3989L7.92237 10.2135H2.89883Z" fill="#323544"/>
<path d="M12.6466 20.3971L20.6625 11.007C20.8647 10.7701 21.0113 10.4994 21.1 10.2135H16.0774L12.6466 20.3971Z" fill="#323544"/>
<path d="M21.1765 9.21354C21.1402 8.97055 21.0638 8.7311 20.946 8.5054L18.8407 4.47027L16.5198 9.21354H21.1765Z" fill="#323544"/>
<path d="M18.1267 3.65417C17.756 3.39574 17.309 3.25 16.8401 3.25H13.1108L15.7176 8.5777L18.1267 3.65417Z" fill="#323544"/>
<path d="M10.889 3.25H7.15869C6.6901 3.25 6.24333 3.39559 5.87265 3.65377L8.28205 8.5779L10.889 3.25Z" fill="#323544"/>
<path d="M11.9999 19.1844L8.9776 10.2135H15.0222L11.9999 19.1844Z" fill="#323544"/>
<path d="M14.9155 9.21354L11.9999 3.25493L9.08432 9.21354H14.9155Z" fill="#323544"/>
</svg>
