<svg width="24" height="24" viewBox="0 0 24 24" fill="none" xmlns="http://www.w3.org/2000/svg">
<path d="M21.25 18.75H4.25C3.42157 18.75 2.75 18.0784 2.75 17.25V5.25M8.25 15.7501H5.75V12.2773C5.75 11.587 6.30964 11.0273 7 11.0273C7.69036 11.0273 8.25 11.587 8.25 12.2773V15.7501ZM13.75 15.7501H11.25V6.5C11.25 5.80964 11.8096 5.25 12.5 5.25C13.1904 5.25 13.75 5.80964 13.75 6.5V15.7501ZM16.75 15.7501V10.0586C16.75 9.36824 17.3096 8.80859 18 8.80859C18.6904 8.80859 19.25 9.36824 19.25 10.0586V15.7501H16.75Z" stroke="#323544" stroke-width="1.5" stroke-linecap="round" stroke-linejoin="round"/>
</svg>
