<svg width="24" height="24" viewBox="0 0 24 24" fill="none" xmlns="http://www.w3.org/2000/svg">
<path d="M17.8076 8.76744H17.4821C16.9426 8.76744 16.5053 8.33011 16.5053 7.79062M17.8076 8.76744H17.8771C18.558 8.76744 19.1099 8.2155 19.1099 7.53464C19.1099 7.02077 18.7912 6.56079 18.31 6.38035L17.3052 6.00351C16.824 5.82306 16.5053 5.36309 16.5053 4.84921C16.5053 4.16836 17.0572 3.61641 17.7381 3.61641H17.8076M17.8076 8.76744V9.63372M17.8076 3.61641H18.1331C18.6726 3.61641 19.1099 4.05375 19.1099 4.59323M17.8076 3.61641V2.75M5.83333 20H5.5C4.67157 20 4 19.3284 4 18.5V5.5C4 4.67157 4.67157 4 5.5 4H5.83333C6.66176 4 7.33333 4.67157 7.33333 5.5V18.5C7.33333 19.3284 6.66176 20 5.83333 20ZM12.1663 20H11.833C11.0046 20 10.333 19.3284 10.333 18.5V11.8837C10.333 11.0553 11.0046 10.3837 11.833 10.3837H12.1663C12.9948 10.3837 13.6663 11.0553 13.6663 11.8837V18.5C13.6663 19.3284 12.9948 20 12.1663 20ZM18.4993 20H18.166C17.3376 20 16.666 19.3284 16.666 18.5V14.9218C16.666 14.0934 17.3376 13.4218 18.166 13.4218H18.4993C19.3278 13.4218 19.9993 14.0934 19.9993 14.9218V18.5C19.9993 19.3284 19.3278 20 18.4993 20Z" stroke="#323544" stroke-width="1.5" stroke-linecap="round" stroke-linejoin="round"/>
</svg>
