<svg width="24" height="24" viewBox="0 0 24 24" fill="none" xmlns="http://www.w3.org/2000/svg">
<path d="M9.00003 19.0781H15M12 15.3281V19.0781M4.25 15.3281H19.75C20.5784 15.3281 21.25 14.6566 21.25 13.8281V6.42188C21.25 5.59345 20.5784 4.92188 19.75 4.92188H4.25C3.42157 4.92188 2.75 5.59345 2.75 6.42187V13.8281C2.75 14.6566 3.42157 15.3281 4.25 15.3281Z" stroke="#323544" stroke-width="1.5" stroke-linecap="round" stroke-linejoin="round"/>
<path d="M9 7.875H7.3125C7.00184 7.875 6.75 8.12684 6.75 8.4375V9.5625C6.75 9.87316 7.00184 10.125 7.3125 10.125H8.4375C8.74816 10.125 9 10.3768 9 10.6875V11.8125C9 12.1232 8.74816 12.375 8.4375 12.375H6.75M13.125 7.875H10.875V10.125M10.875 10.125V12.375H13.125M10.875 10.125H13.125M15.5625 12.375H16.6875C16.9982 12.375 17.25 12.1232 17.25 11.8125V8.4375C17.25 8.12684 16.9982 7.875 16.6875 7.875H15.5625C15.2518 7.875 15 8.12684 15 8.4375V11.8125C15 12.1232 15.2518 12.375 15.5625 12.375Z" stroke="#323544" stroke-width="1.3" stroke-linecap="round" stroke-linejoin="round"/>
</svg>
