<svg width="24" height="24" viewBox="0 0 24 24" fill="none" xmlns="http://www.w3.org/2000/svg">
<path d="M12.0001 10.7354C11.5168 10.7354 11.1251 10.3437 11.1251 9.86042C11.1251 9.37717 11.5168 8.98542 12.0001 8.98542C12.4833 8.98542 12.8751 9.37717 12.8751 9.86042C12.8751 10.3437 12.4833 10.7354 12.0001 10.7354Z" fill="#323544"/>
<path d="M12 2V5.25M22 12H18.75M12 18.75V22M5.25 12H2M12 20C7.58172 20 4 16.4183 4 12C4 7.58172 7.58172 4 12 4C16.4183 4 20 7.58172 20 12C20 16.4183 16.4183 20 12 20ZM14.7025 15.2558H9.29742V14.3256C9.29742 13.5036 9.96379 12.8372 10.7858 12.8372H13.2141C14.0361 12.8372 14.7025 13.5036 14.7025 14.3256V15.2558ZM12.0001 10.7354C11.5168 10.7354 11.1251 10.3437 11.1251 9.86042C11.1251 9.37717 11.5168 8.98542 12.0001 8.98542C12.4833 8.98542 12.8751 9.37717 12.8751 9.86042C12.8751 10.3437 12.4833 10.7354 12.0001 10.7354Z" stroke="#323544" stroke-width="1.5" stroke-linecap="round" stroke-linejoin="round"/>
</svg>
