<svg width="25" height="24" viewBox="0 0 25 24" fill="none" xmlns="http://www.w3.org/2000/svg">
<path d="M8.89453 6.93457C7.99707 6.93457 7.26953 7.66211 7.26953 8.55957C7.26953 9.45703 7.99707 10.1846 8.89453 10.1846H8.90453C9.80199 10.1846 10.5295 9.45703 10.5295 8.55957C10.5295 7.66211 9.80199 6.93457 8.90453 6.93457H8.89453Z" fill="#343C54"/>
<path fill-rule="evenodd" clip-rule="evenodd" d="M3.5 5.5C3.5 4.25736 4.50736 3.25 5.75 3.25H18.75C19.9926 3.25 21 4.25736 21 5.5V18.5C21 19.7426 19.9926 20.75 18.75 20.75H5.75C4.50736 20.75 3.5 19.7426 3.5 18.5V5.5ZM5.75 4.75C5.33579 4.75 5 5.08579 5 5.5V15.5807L6.45103 13.6808C7.35463 12.4977 9.13749 12.5025 10.0347 13.6905L11.2502 15.3001C11.6008 15.7643 12.3234 15.6701 12.5431 15.1315L14.5208 10.2852C15.1881 8.65008 17.3928 8.3859 18.4274 9.81704L19.5 11.3006V5.5C19.5 5.08579 19.1642 4.75 18.75 4.75H5.75ZM5 18.5V18.0031C5.0557 17.962 5.10659 17.9124 5.15073 17.8546L7.64311 14.5913C7.94431 14.1969 8.5386 14.1985 8.83766 14.5945L10.0532 16.2041C11.1048 17.5966 13.2726 17.3139 13.9319 15.6983L15.9096 10.8519C16.1321 10.3069 16.867 10.2188 17.2118 10.6959L19.5 13.8608V18.5C19.5 18.9142 19.1642 19.25 18.75 19.25H5.75C5.33579 19.25 5 18.9142 5 18.5Z" fill="#343C54"/>
</svg>
