<svg width="25" height="24" viewBox="0 0 25 24" fill="none" xmlns="http://www.w3.org/2000/svg">
<path d="M8.25016 10.5C7.5598 10.5 7.00016 11.0596 7.00016 11.75C7.00016 12.4404 7.5598 13 8.25016 13H8.26016C8.95051 13 9.51016 12.4404 9.51016 11.75C9.51016 11.0596 8.95051 10.5 8.26016 10.5H8.25016Z" fill="#323544"/>
<path fill-rule="evenodd" clip-rule="evenodd" d="M7.75016 5.5C7.75016 4.25736 8.75751 3.25 10.0002 3.25H19.0002C20.2428 3.25 21.2502 4.25736 21.2502 5.5V14.5C21.2502 15.7426 20.2428 16.75 19.0002 16.75H17.2502V18.5C17.2502 19.7426 16.2428 20.75 15.0002 20.75H6.00016C4.75751 20.75 3.75016 19.7426 3.75016 18.5V17.6916C3.74995 17.6814 3.74995 17.6712 3.75016 17.6611V9.5C3.75016 8.25736 4.75751 7.25 6.00016 7.25H7.75016V5.5ZM15.7502 9.5V15.9558L13.4851 13.8525C12.789 13.206 11.7619 13.0665 10.9186 13.5037L5.25016 16.4421L5.25016 9.5C5.25016 9.08579 5.58594 8.75 6.00016 8.75H15.0002C15.4144 8.75 15.7502 9.08579 15.7502 9.5ZM5.25016 18.5V18.1317L11.6089 14.8354C11.89 14.6896 12.2324 14.7362 12.4644 14.9516L15.7502 18.0028V18.5C15.7502 18.9142 15.4144 19.25 15.0002 19.25H6.00016C5.58594 19.25 5.25016 18.9142 5.25016 18.5ZM9.25016 7.25H15.0002C16.2428 7.25 17.2502 8.25736 17.2502 9.5V15.25H19.0002C19.4144 15.25 19.7502 14.9142 19.7502 14.5V5.5C19.7502 5.08579 19.4144 4.75 19.0002 4.75H10.0002C9.58594 4.75 9.25016 5.08579 9.25016 5.5V7.25Z" fill="#323544"/>
</svg>
