<svg width="24" height="25" viewBox="0 0 24 25" fill="none" xmlns="http://www.w3.org/2000/svg">
<path d="M16.9084 3.97763C16.3177 4.14212 15.752 4.48257 15.24 4.9136C14.3117 5.69505 13.4274 6.8761 12.658 8.30118C12.2203 9.11199 11.8143 10.0118 11.455 10.9793L15.6211 10.062C16.3358 9.90462 17.0823 10.1047 17.6226 10.5983L20.7741 13.4778C21.1528 11.2453 21.1768 9.16625 20.8547 7.5274C20.5264 5.85747 19.767 4.34187 18.3304 3.95694C17.8501 3.82825 17.3715 3.84886 16.9084 3.97763Z" fill="#323544"/>
<path d="M20.4209 15.187L16.6108 11.7057C16.4307 11.5411 16.1818 11.4744 15.9436 11.5269L11.2487 12.5607C11.1396 12.5847 11.0308 12.5836 10.9283 12.5613C10.8648 12.7755 10.8037 12.9922 10.745 13.2112C10.5804 13.8254 10.4417 14.4334 10.3283 15.0302L14.5384 14.1032C15.2531 13.9458 15.9997 14.1459 16.54 14.6395L19.7244 17.5491C19.9246 16.9753 20.1086 16.3792 20.2732 15.7648C20.325 15.5715 20.3742 15.3789 20.4209 15.187Z" fill="#323544"/>
<path d="M19.1427 19.0494L15.5282 15.7469C15.3481 15.5823 15.0992 15.5156 14.861 15.5681L10.2072 16.5928C10.1657 16.602 10.1242 16.6075 10.0831 16.6096C9.87194 18.3762 9.89415 20.0104 10.1459 21.3571L10.3811 22.4996H20C20.4142 22.4996 20.75 22.1638 20.75 21.7496C20.75 21.3353 20.4142 20.9996 20 20.9996H18.1805C18.5212 20.399 18.8441 19.7457 19.1427 19.0494Z" fill="#323544"/>
<path opacity="0.4" d="M13.1428 5.69652C12.9146 5.18697 12.662 4.72556 12.3869 4.32239C11.6806 3.28738 10.724 2.5 9.54883 2.5C8.6909 2.5 7.94362 2.9252 7.33827 3.54669C6.73524 4.1658 6.22673 5.02267 5.81564 6.02052C4.992 8.01974 4.5 10.7298 4.5 13.6846C4.5 16.4658 4.93606 19.0359 5.67811 21H4C3.58579 21 3.25 21.3358 3.25 21.75C3.25 22.1642 3.58579 22.5 4 22.5H9.36009L9.16642 21.5592L9.16291 21.5413C8.83339 19.7784 8.87253 17.624 9.25241 15.3656C9.38493 14.5778 9.56012 13.7699 9.77907 12.9528C9.95526 12.2953 10.1529 11.6573 10.3688 11.0433C10.7779 9.8798 11.2544 8.79655 11.7781 7.82654C12.1949 7.0545 12.6522 6.33468 13.1428 5.69652Z" fill="#323544"/>
</svg>
