<svg width="24" height="24" viewBox="0 0 24 24" fill="none" xmlns="http://www.w3.org/2000/svg">
<path d="M8.91016 3.25C5.78414 3.25 3.25 5.78414 3.25 8.91016C3.25 10.6972 3.84969 12.4875 4.83027 13.8444C5.65685 14.9882 6.80837 15.8898 8.16016 16.1385V20C8.16016 20.4142 8.49594 20.75 8.91016 20.75C9.32437 20.75 9.66016 20.4142 9.66016 20V16.1385C10.0333 16.0699 10.3912 15.9514 10.7312 15.7919C11.2808 15.5341 11.7837 15.1688 12.2287 14.7327L12.2312 14.7303C12.4972 14.4693 12.7425 14.183 12.9648 13.8792C13.9605 12.5179 14.5703 10.7122 14.5703 8.91016C14.5703 8.24779 14.4562 7.61044 14.246 7.01772C14.1475 6.74011 14.028 6.47244 13.8894 6.21664C12.932 4.45046 11.062 3.25 8.91016 3.25Z" fill="#323544"/>
<path opacity="0.4" d="M14.8549 5.90331C14.9822 6.15464 15.0941 6.41511 15.1893 6.68344C15.4371 7.382 15.5712 8.13232 15.5712 8.91016C15.5712 10.9248 14.8936 12.9373 13.7727 14.4696C13.5035 14.8376 13.1981 15.1907 12.8594 15.5138C13.4848 16.1741 14.2516 16.6683 15.1224 16.8521V20C15.1224 20.4142 15.4582 20.75 15.8724 20.75C16.2866 20.75 16.6224 20.4142 16.6224 20V16.8514C17.7548 16.611 18.7125 15.845 19.3996 14.8941C20.2387 13.7329 20.7508 12.203 20.7508 10.6753C20.7508 7.98102 18.5667 5.79688 15.8724 5.79688C15.5237 5.79688 15.1832 5.83357 14.8549 5.90331Z" fill="#323544"/>
</svg>
