<svg width="24" height="25" viewBox="0 0 24 25" fill="none" xmlns="http://www.w3.org/2000/svg">
<path d="M20.13 6.52301C19.8277 5.63712 18.9882 5 18 5H6C5.01141 5 4.17174 5.63756 3.86972 6.52394L7.32353 7.64383C7.92512 7.83894 8.57298 7.83894 9.17456 7.64383L10.6108 7.17803C11.5132 6.88537 12.4849 6.88537 13.3873 7.17803L14.8235 7.64383C15.4251 7.83894 16.073 7.83894 16.6745 7.64383L20.13 6.52301Z" fill="#323544"/>
<path d="M20.25 8.06106V11.0382C20.087 11.0131 19.92 11 19.75 11H4.25C4.07997 11 3.91298 11.0131 3.75 11.0382V8.06193L6.86077 9.07067C7.76315 9.36333 8.73494 9.36333 9.63732 9.07067L11.0735 8.60487C11.6751 8.40976 12.323 8.40976 12.9246 8.60487L14.3608 9.07067C15.2632 9.36333 16.2349 9.36333 17.1373 9.07067L20.25 8.06106Z" fill="#323544"/>
<g opacity="0.4">
<path d="M3.75 12.0558C2.74801 12.2831 2 13.1792 2 14.25V14.5929L6.44853 16.0357C7.05011 16.2308 7.69797 16.2308 8.29956 16.0357L10.6108 15.2861C11.5132 14.9935 12.4849 14.9935 13.3873 15.2861L15.6985 16.0357C16.3001 16.2308 16.948 16.2308 17.5495 16.0357L22 14.5923V14.25C22 13.1792 21.252 12.2831 20.25 12.0558C20.0892 12.0193 19.9218 12 19.75 12H4.25C4.07815 12 3.91081 12.0193 3.75 12.0558Z" fill="#323544"/>
<path d="M22 16.1693V19.25C22 19.6642 21.6642 20 21.25 20H2.75C2.33579 20 2 19.6642 2 19.25V16.1699L5.98577 17.4626C6.88815 17.7552 7.85994 17.7552 8.76232 17.4626L11.0735 16.713C11.6751 16.5179 12.323 16.5179 12.9246 16.713L15.2358 17.4626C16.1381 17.7552 17.1099 17.7552 18.0123 17.4626L22 16.1693Z" fill="#323544"/>
</g>
</svg>
