<svg width="24" height="25" viewBox="0 0 24 25" fill="none" xmlns="http://www.w3.org/2000/svg">
<path d="M18.75 12.5C18.75 16.2274 15.7286 19.25 12.001 19.25C8.27345 19.2499 5.25195 16.2273 5.25195 12.5C5.25195 8.7727 8.27345 5.75011 12.001 5.75L12.3486 5.75879C15.9148 5.93968 18.75 8.88916 18.75 12.5Z" fill="#323544"/>
<g opacity="0.4">
<path d="M2.40234 8.08588C2.6494 7.95654 2.94747 7.975 3.17676 8.13373L5.76172 9.9228C5.4334 10.7169 5.25195 11.5873 5.25195 12.4999C5.25196 13.4123 5.4336 14.2822 5.76172 15.0761L3.17676 16.8662C2.94749 17.0249 2.64937 17.0433 2.40234 16.914C2.15528 16.7846 2.00004 16.5289 2 16.2499V8.74995L2.00684 8.64643C2.03989 8.40887 2.1862 8.19915 2.40234 8.08588Z" fill="#323544"/>
<path d="M20.9121 8.08002C21.1262 7.97201 21.3815 7.97274 21.5977 8.08588C21.8447 8.21536 22 8.471 22 8.74995V16.2499C22 16.5289 21.8447 16.7846 21.5977 16.914C21.3506 17.0433 21.0525 17.0249 20.8232 16.8662L18.2393 15.0771C18.5677 14.2829 18.75 13.4128 18.75 12.4999C18.75 11.5868 18.5679 10.7163 18.2393 9.92182L20.8232 8.13373L20.9121 8.08002Z" fill="#323544"/>
</g>
</svg>
