<svg width="24" height="25" viewBox="0 0 24 25" fill="none" xmlns="http://www.w3.org/2000/svg">
<path opacity="0.4" d="M17.0005 3.83953C13.9513 2.07912 10.0525 3.12382 8.29205 6.17294L2.60455 16.024C1.98323 17.1001 2.35195 18.4762 3.42811 19.0975C4.50427 19.7189 5.88035 19.3501 6.50167 18.274L12.1892 8.42294C12.7069 7.52614 13.8537 7.21887 14.7505 7.73664C15.6473 8.25441 15.9545 9.40114 15.4368 10.2979L13.4993 13.6538C12.8779 14.7299 13.2467 16.106 14.3228 16.7273C15.399 17.3487 16.7751 16.9799 17.3964 15.9038L19.3339 12.5479C21.0943 9.49882 20.0496 5.59994 17.0005 3.83953Z" fill="#323544"/>
<path d="M8.29205 6.17294C10.0525 3.12382 13.9513 2.07912 17.0005 3.83953C20.0496 5.59993 21.0943 9.49882 19.3339 12.5479L17.3964 15.9038C16.7751 16.9799 15.399 17.3487 14.3228 16.7273C13.2467 16.106 12.8779 14.7299 13.4993 13.6538L15.4368 10.2979C15.9545 9.40114 15.6473 8.25441 14.7505 7.73664C13.8537 7.21887 12.7069 7.52614 12.1892 8.42294L6.50167 18.274C5.88035 19.3501 4.50427 19.7189 3.42811 19.0975C2.35195 18.4762 1.98323 17.1001 2.60455 16.024L8.29205 6.17294ZM16.2505 5.13857C13.9188 3.79237 10.9373 4.59126 9.59109 6.92294L3.90359 16.774C3.69648 17.1327 3.81939 17.5914 4.17811 17.7985C4.53683 18.0056 4.99552 17.8827 5.20263 17.524L10.8901 7.67294C11.8221 6.0587 13.8862 5.50562 15.5005 6.4376C17.1147 7.36958 17.6678 9.4337 16.7358 11.0479L14.7983 14.4038C14.5912 14.7625 14.7141 15.2212 15.0728 15.4283C15.4315 15.6354 15.8902 15.5125 16.0973 15.1538L18.0348 11.7979C19.381 9.46626 18.5821 6.48476 16.2505 5.13857Z" fill="#323544"/>
</svg>
