<svg width="24" height="25" viewBox="0 0 24 25" fill="none" xmlns="http://www.w3.org/2000/svg">
<path d="M5.25 14.25V20.25C5.25 21.4926 6.25736 22.5 7.5 22.5H16.5C17.7426 22.5 18.75 21.4926 18.75 20.25V14.25H5.25Z" fill="#323544"/>
<path opacity="0.4" d="M10.5 3.25C10.5 2.83579 10.8358 2.5 11.25 2.5H12.75C13.0766 2.5 13.3544 2.7087 13.4573 3H14C14.4142 3 14.75 3.33579 14.75 3.75C14.75 4.16421 14.4142 4.5 14 4.5H13.5V5.41726C16.506 6.09936 18.75 8.78762 18.75 12V12.75H5.25V12C5.25 8.78762 7.49402 6.09936 10.5 5.41726V3.25Z" fill="#323544"/>
</svg>
