<svg width="24" height="25" viewBox="0 0 24 25" fill="none" xmlns="http://www.w3.org/2000/svg">
<path d="M21.0129 8.54979C21.3734 8.42915 21.774 8.59922 21.9338 8.95311C22.0936 9.30701 21.956 9.71951 21.6272 9.91015L21.5588 9.9453C21.5578 9.94572 21.5602 9.94467 21.5588 9.9453C21.556 9.94653 21.5466 9.95116 21.5422 9.95311C21.5329 9.95723 21.5197 9.96257 21.5031 9.96972C21.4697 9.98413 21.4215 10.0048 21.3596 10.0303C21.2355 10.0812 21.0553 10.1525 20.8234 10.2373C20.6109 10.315 20.3547 10.4041 20.0584 10.4992C19.7083 10.6116 19.3023 10.7326 18.8459 10.8535C18.2727 11.0054 17.6192 11.1573 16.8966 11.2916C15.9524 11.467 14.8905 11.6125 13.7361 11.6886C13.1781 11.7255 12.5985 11.7461 12.0002 11.7461C11.4013 11.7461 10.8213 11.7247 10.2628 11.6879C9.109 11.6117 8.04753 11.467 7.10384 11.2916C6.38123 11.1573 5.72766 11.0054 5.1545 10.8535C4.69735 10.7324 4.29064 10.6112 3.94016 10.4986C3.64461 10.4037 3.38904 10.3149 3.17696 10.2373C2.94514 10.1525 2.76485 10.0812 2.64082 10.0303C2.57886 10.0048 2.53068 9.98413 2.49727 9.96972C2.4807 9.96257 2.46752 9.95723 2.45821 9.95311C2.45378 9.95116 2.45022 9.94946 2.44746 9.94823C2.44605 9.9476 2.44841 9.94865 2.44746 9.94823L2.37324 9.91015C2.0444 9.71951 1.90685 9.30701 2.0666 8.95311C2.23708 8.57565 2.68131 8.40771 3.05879 8.57811C3.06433 8.58056 3.07959 8.58741 3.092 8.59276C3.11743 8.60373 3.15695 8.62073 3.21016 8.64257C3.31726 8.68652 3.47989 8.75032 3.69258 8.82811C4.11805 8.98373 4.74488 9.19403 5.53828 9.40429C7.12687 9.82524 9.37407 10.2461 12.0002 10.2461C14.6263 10.2461 16.8735 9.82524 18.4621 9.40429C19.2555 9.19403 19.8823 8.98373 20.3078 8.82811C20.5205 8.75032 20.6831 8.68652 20.7902 8.64257C20.8434 8.62073 20.883 8.60373 20.9084 8.59276C20.9208 8.58741 20.9302 8.58349 20.9357 8.58104L21.0129 8.54979Z" fill="#323544"/>
<path opacity="0.4" d="M2.01172 9.38379C2.04748 9.59882 2.17461 9.79506 2.37305 9.91016L2.44141 9.94531C2.44413 9.94653 2.45366 9.9512 2.45801 9.95312C2.46729 9.95722 2.48058 9.96261 2.49707 9.96973C2.53045 9.98413 2.57875 10.0049 2.64062 10.0303C2.76462 10.0812 2.94503 10.1525 3.17676 10.2373C3.38858 10.3148 3.64436 10.4023 3.93945 10.4971V10.499C4.28979 10.6116 4.6964 10.7324 5.15332 10.8535C5.72648 11.0054 6.38091 11.1567 7.10352 11.291L7.10645 11.2891C8.04931 11.4642 9.10922 11.6104 10.2617 11.6865L10.2627 11.6885C10.8206 11.7257 11.4003 11.7461 11.999 11.7461C12.5973 11.7461 13.1774 11.7253 13.7354 11.6885L13.7373 11.6865C14.8902 11.6104 15.9504 11.4643 16.8936 11.2891L16.8965 11.291C17.619 11.1567 18.2726 11.0054 18.8457 10.8535C19.3021 10.7326 19.7085 10.6114 20.0586 10.499C20.3546 10.404 20.6109 10.315 20.8232 10.2373C21.0549 10.1526 21.2354 10.0812 21.3594 10.0303C21.4212 10.0049 21.4695 9.98414 21.5029 9.96973C21.5194 9.96262 21.5327 9.95723 21.542 9.95312C21.5463 9.95121 21.55 9.94947 21.5527 9.94824L21.627 9.91016C21.7989 9.81049 21.9166 9.64964 21.9688 9.46875C21.9664 9.47699 21.9665 9.48594 21.9639 9.49414L20.2129 14.874C20.1343 15.1153 19.9385 15.3005 19.6934 15.3662C19.4484 15.4316 19.1866 15.3688 18.998 15.1992L15.3672 11.9326L12.6289 16.1475C12.4905 16.36 12.2537 16.4883 12 16.4883C11.7464 16.4881 11.5094 16.36 11.3711 16.1475L8.63281 11.9336L5.00195 15.2012C4.81332 15.3706 4.55156 15.4337 4.30664 15.3682C4.06161 15.3024 3.86562 15.1163 3.78711 14.875L2.03711 9.49609L2.0166 9.42188C2.01388 9.40932 2.01378 9.39635 2.01172 9.38379Z" fill="#323544"/>
</svg>
