<svg width="24" height="24" viewBox="0 0 24 24" fill="none" xmlns="http://www.w3.org/2000/svg">
<path opacity="0.4" d="M6.38688 7.48329C6.45702 4.44302 8.94354 2 12.0007 2C15.0578 2 17.5444 4.44308 17.6144 7.48338C20.0688 7.67706 22.0001 9.7301 22.0001 12.2342C22.0001 12.2685 21.9997 12.3027 21.999 12.3368C21.4783 11.685 20.8414 11.13 20.1197 10.7032C19.571 9.67117 18.4847 8.96844 17.2343 8.96844H16.866C16.4518 8.96844 16.116 8.63266 16.116 8.21844V7.6153C16.116 5.34248 14.2735 3.5 12.0007 3.5C9.72784 3.5 7.88536 5.34248 7.88536 7.6153V8.21844C7.88536 8.63266 7.54957 8.96844 7.13536 8.96844H6.76578C4.96214 8.96844 3.5 10.4306 3.5 12.2342C3.5 14.0379 4.96214 15.5 6.76577 15.5H9.84159C9.78134 15.8661 9.75 16.2419 9.75 16.625C9.75 16.7508 9.75338 16.8758 9.76005 17H6.76577C4.13371 17 2 14.8663 2 12.2342C2 9.72969 3.93195 7.67638 6.38688 7.48329Z" fill="#323544"/>
<path d="M12.0226 15.7447C11.6334 15.6029 11.433 15.1724 11.5749 14.7832C11.8572 14.0089 12.3154 13.3058 12.9181 12.7319C13.7401 11.949 14.789 11.4464 15.9142 11.2963C17.0395 11.1461 18.1834 11.356 19.182 11.8959C20.1662 12.4281 20.9595 13.2539 21.4518 14.2577C21.5047 14.3523 21.5377 14.4595 21.5452 14.5738C21.5659 14.8715 21.4064 15.1655 21.1209 15.3023C20.9959 15.3622 20.8625 15.3844 20.7337 15.3734H19.064C18.6497 15.3734 18.314 15.0376 18.314 14.6234C18.314 14.2092 18.6497 13.8734 19.064 13.8734H19.355C19.094 13.6145 18.7959 13.3924 18.4686 13.2154C17.7486 12.8262 16.9239 12.6748 16.1126 12.7831C15.3014 12.8913 14.5452 13.2537 13.9525 13.8181C13.518 14.2319 13.1877 14.7388 12.9841 15.2971C12.8422 15.6862 12.4117 15.8866 12.0226 15.7447Z" fill="#323544"/>
<path d="M14.7813 20.0342C14.4522 19.8563 14.1528 19.6328 13.8908 19.3722H14.1854C14.5996 19.3722 14.9354 19.0364 14.9354 18.6222C14.9354 18.2079 14.5996 17.8722 14.1854 17.8722H12.4531C12.0553 17.8722 11.7298 18.1819 11.7046 18.5733C11.6961 18.6982 11.7188 18.8269 11.7767 18.9478C12.2672 19.9716 13.0693 20.8138 14.0679 21.3537C15.0665 21.8936 16.2104 22.1035 17.3357 21.9534C18.4609 21.8032 19.5098 21.3007 20.3318 20.5178C20.9352 19.9432 21.3937 19.2392 21.6759 18.4639C21.8176 18.0747 21.617 17.6443 21.2278 17.5026C20.8385 17.3609 20.4081 17.5616 20.2664 17.9508C20.0629 18.5098 19.7324 19.0173 19.2974 19.4315C18.7047 19.996 17.9485 20.3583 17.1373 20.4665C16.326 20.5748 15.5013 20.4235 14.7813 20.0342Z" fill="#323544"/>
</svg>
