<svg width="24" height="24" viewBox="0 0 24 24" fill="none" xmlns="http://www.w3.org/2000/svg">
<path opacity="0.4" d="M20.5 13.8438C20.4999 11.726 18.9157 9.97718 16.8682 9.71973L16.668 9.7002L16.5918 9.69043C16.2179 9.6229 15.9487 9.28157 15.9785 8.89453C16.0084 8.50732 16.327 8.21133 16.707 8.20215L16.7842 8.2041L17.0557 8.23145C19.8439 8.58189 21.9999 10.9609 22 13.8438C22 16.9677 19.4677 19.5 16.3438 19.5H6.76562C4.13363 19.4999 2 17.3664 2 14.7344C2.00007 12.1024 4.13367 9.96883 6.76562 9.96875H7.13574L7.21191 9.97266C7.59016 10.011 7.88574 10.3304 7.88574 10.7188C7.88573 11.1071 7.59016 11.4265 7.21191 11.4648L7.13574 11.4688H6.76562C4.9621 11.4688 3.50007 12.9308 3.5 14.7344C3.5 16.538 4.96206 17.9999 6.76562 18H16.3438C18.6392 18 20.5 16.1393 20.5 13.8438Z" fill="#323544"/>
<path d="M6.38477 10.7188V10.1152C6.3848 7.01404 8.89881 4.50004 12 4.5C14.5572 4.5 16.7134 6.20881 17.3926 8.5459L17.4541 8.77344L17.4688 8.84863C17.5217 9.22512 17.2814 9.58808 16.9043 9.68066C16.5271 9.77319 16.1469 9.56234 16.0195 9.2041L15.9971 9.13086L15.9004 8.7998C15.3517 7.17189 13.812 6 12 6C9.72723 6.00004 7.8848 7.84247 7.88477 10.1152V10.7188C7.88477 11.133 7.54898 11.4688 7.13477 11.4688C6.72055 11.4688 6.38477 11.133 6.38477 10.7188Z" fill="#323544"/>
</svg>
