<svg width="24" height="24" viewBox="0 0 24 24" fill="none" xmlns="http://www.w3.org/2000/svg">
<path opacity="0.4" d="M7.49805 15.833V18.2489C7.49805 18.6631 7.16226 18.9989 6.74805 18.9989H6.25796C6.02989 18.6954 5.66689 18.4991 5.25805 18.4991H5.24805C4.55769 18.4991 3.99805 19.0588 3.99805 19.7491C3.99805 20.4395 4.55769 20.9991 5.24805 20.9991H5.25805C5.66711 20.9991 6.03028 20.8026 6.25832 20.4989H6.74805C7.99069 20.4989 8.99805 19.4915 8.99805 18.2489V15.833H7.49805ZM11.248 15.833V19.749C10.9444 19.9771 10.748 20.3402 10.748 20.7491C10.748 21.4395 11.3077 21.9991 11.998 21.9991H12.008C12.6984 21.9991 13.258 21.4395 13.258 20.7491C13.258 20.3357 13.0573 19.9691 12.748 19.7416V15.833H11.248ZM14.998 15.833V18.2489C14.998 19.4915 16.0054 20.4989 17.248 20.4989H17.738C17.966 20.8026 18.3292 20.9991 18.7383 20.9991H18.7483C19.4386 20.9991 19.9983 20.4395 19.9983 19.7491C19.9983 19.0588 19.4386 18.4991 18.7483 18.4991H18.7383C18.3294 18.4991 17.9664 18.6954 17.7384 18.9989H17.248C16.8338 18.9989 16.498 18.6631 16.498 18.2489V15.833H14.998Z" fill="#323544"/>
<path d="M13.5784 3.61827C12.3561 2.30712 10.4745 1.68444 8.61288 2.15759C6.10638 2.79463 4.51439 5.19526 4.82582 7.69667C3.60618 8.48241 2.79688 9.85313 2.79688 11.414C2.79688 13.8546 4.77535 15.8331 7.21593 15.8331H7.49829H8.99829H11.2483H12.7483H14.9983H16.4983H16.7806C19.2212 15.8331 21.1997 13.8546 21.1997 11.414C21.1997 9.88466 20.4227 8.53784 19.2442 7.74502C19.5117 5.92951 18.4831 4.11402 16.6928 3.45537C15.6338 3.06578 14.5156 3.15767 13.5784 3.61827ZM7.21593 14.3331C5.60378 14.3331 4.29688 13.0262 4.29688 11.414C4.29688 10.2459 4.98306 9.23645 5.97763 8.7697C6.30019 8.61832 6.47171 8.2609 6.38801 7.91457C5.92891 6.01486 7.0829 4.09413 8.98236 3.61137C10.4633 3.23497 11.9653 3.84287 12.7935 5.02699C12.9097 5.19307 13.0881 5.30507 13.2882 5.33748C13.4882 5.36989 13.6929 5.31995 13.8556 5.19903C14.5014 4.7189 15.3662 4.56562 16.1748 4.86312C17.4081 5.31685 18.06 6.65513 17.6763 7.89564C17.5672 8.24848 17.7312 8.62826 18.0628 8.79076C19.0338 9.26645 19.6997 10.2632 19.6997 11.414C19.6997 13.0262 18.3928 14.3331 16.7806 14.3331H7.21593Z" fill="#323544"/>
</svg>
