<svg width="24" height="24" viewBox="0 0 24 24" fill="none" xmlns="http://www.w3.org/2000/svg">
<path opacity="0.4" d="M6.38688 7.48329C6.45702 4.44302 8.94354 2 12.0007 2C15.0578 2 17.5444 4.44308 17.6144 7.48338C19.1767 7.60666 20.527 8.48325 21.3022 9.74999H19.3543C18.7838 9.26268 18.0434 8.96844 17.2343 8.96844H16.866C16.4518 8.96844 16.116 8.63266 16.116 8.21844V7.6153C16.116 5.34248 14.2735 3.5 12.0007 3.5C9.72784 3.5 7.88536 5.34248 7.88536 7.6153V8.21844C7.88536 8.63266 7.54957 8.96844 7.13536 8.96844H6.76578C4.96214 8.96844 3.5 10.4306 3.5 12.2342C3.5 14.0379 4.96214 15.5 6.76577 15.5H9.75V17H6.76577C4.13371 17 2 14.8663 2 12.2342C2 9.72969 3.93195 7.67638 6.38688 7.48329Z" fill="#323544"/>
<path d="M20.6547 12C20.6547 12.4142 20.3189 12.75 19.9047 12.75L13.3438 12.75C12.9295 12.75 12.5938 12.4142 12.5938 12C12.5938 11.5858 12.9295 11.25 13.3438 11.25H19.9047C20.3189 11.25 20.6547 11.5858 20.6547 12Z" fill="#323544"/>
<path d="M16.0968 14.4664C16.3897 14.1738 16.8642 14.1738 17.1571 14.4665L19.3751 16.6831C19.6681 16.9759 19.6683 17.4508 19.3755 17.7438C19.0827 18.0368 18.6078 18.0369 18.3148 17.7441L17.3769 16.8068L17.3769 21.251C17.3769 21.6652 17.0411 22.001 16.6269 22.001C16.2127 22.001 15.8769 21.6652 15.8769 21.251L15.8769 16.8067L14.9389 17.7441C14.6459 18.0369 14.171 18.0368 13.8782 17.7438C13.5854 17.4508 13.5855 16.9759 13.8785 16.6831L16.0968 14.4664Z" fill="#323544"/>
</svg>
