<svg width="24" height="24" viewBox="0 0 24 24" fill="none" xmlns="http://www.w3.org/2000/svg">
<path d="M20 9C20.4142 9 20.75 9.33579 20.75 9.75C20.75 10.1642 20.4142 10.5 20 10.5L4 10.5C3.58579 10.5 3.25 10.1642 3.25 9.75C3.25 9.33579 3.58579 9 4 9L20 9Z" fill="#323544"/>
<path d="M20 18C20.4142 18 20.75 18.3358 20.75 18.75C20.75 19.1642 20.4142 19.5 20 19.5L4 19.5C3.58579 19.5 3.25 19.1642 3.25 18.75C3.25 18.3358 3.58579 18 4 18L20 18Z" fill="#323544"/>
<g opacity="0.4">
<path d="M20 4.5C20.4142 4.5 20.75 4.83579 20.75 5.25C20.75 5.66421 20.4142 6 20 6L9 6C8.58579 6 8.25 5.66421 8.25 5.25C8.25 4.83579 8.58579 4.5 9 4.5H20Z" fill="#323544"/>
<path d="M20.75 14.25C20.75 13.8358 20.4142 13.5 20 13.5L9 13.5C8.58579 13.5 8.25 13.8358 8.25 14.25C8.25 14.6642 8.58579 15 9 15L20 15C20.4142 15 20.75 14.6642 20.75 14.25Z" fill="#323544"/>
</g>
</svg>
