<svg width="24" height="24" viewBox="0 0 24 24" fill="none" xmlns="http://www.w3.org/2000/svg">
<path d="M20 9C20.4142 9 20.75 9.33579 20.75 9.75C20.75 10.1642 20.4142 10.5 20 10.5L4 10.5C3.58579 10.5 3.25 10.1642 3.25 9.75C3.25 9.33579 3.58579 9 4 9L20 9Z" fill="#323544"/>
<path d="M20 18C20.4142 18 20.75 18.3358 20.75 18.75C20.75 19.1642 20.4142 19.5 20 19.5L4 19.5C3.58579 19.5 3.25 19.1642 3.25 18.75C3.25 18.3358 3.58579 18 4 18L20 18Z" fill="#323544"/>
<g opacity="0.4">
<path d="M17.5 4.5C17.9142 4.5 18.25 4.83579 18.25 5.25C18.25 5.66421 17.9142 6 17.5 6L6.5 6C6.08579 6 5.75 5.66421 5.75 5.25C5.75 4.83579 6.08579 4.5 6.5 4.5H17.5Z" fill="#323544"/>
<path d="M18.25 14.25C18.25 13.8358 17.9142 13.5 17.5 13.5L6.5 13.5C6.08579 13.5 5.75 13.8358 5.75 14.25C5.75 14.6642 6.08579 15 6.5 15L17.5 15C17.9142 15 18.25 14.6642 18.25 14.25Z" fill="#323544"/>
</g>
</svg>
