<svg width="24" height="24" viewBox="0 0 24 24" fill="none" xmlns="http://www.w3.org/2000/svg">
<path d="M2.57036 17.3315L2.56645 17.3324C2.56798 17.332 2.57097 17.3308 2.57524 17.3295H2.57621C2.58091 17.3281 2.58714 17.3262 2.59477 17.3236C2.62586 17.3133 2.68067 17.293 2.75493 17.2602C2.90362 17.1944 3.13265 17.0755 3.40922 16.8735C3.95916 16.4716 4.71833 15.7264 5.42387 14.3744L5.46 14.3139L5.63774 14.059C6.55656 12.8395 7.87526 12.4639 9.08989 12.6625L9.4102 12.7279C10.1509 12.9124 10.8363 13.3054 11.3604 13.8295L11.4795 13.9555C12.0603 14.5977 12.3534 15.4078 12.3868 16.2377L12.3897 16.4623C12.3723 17.5875 11.8889 18.7394 10.9981 19.6303C10.2658 20.3626 9.40804 20.7193 8.53813 20.8295L8.16411 20.8617C6.67731 20.9342 5.18942 20.3479 4.12895 19.7992C3.58746 19.5191 3.13196 19.2358 2.81157 19.0219C2.651 18.9147 2.52345 18.8237 2.43461 18.7592C2.3903 18.727 2.35546 18.7014 2.3311 18.683C2.31918 18.6741 2.30966 18.6668 2.30278 18.6615C2.29932 18.6589 2.29609 18.6563 2.29399 18.6547C2.29294 18.6539 2.29177 18.6533 2.29106 18.6527L2.29008 18.6518C2.06245 18.4748 1.95574 18.1826 2.01664 17.9008C2.07736 17.6209 2.29264 17.4 2.57036 17.3315ZM8.8477 14.143C8.09008 14.0191 7.29656 14.2498 6.72954 15.1127C5.92585 16.6372 5.02756 17.5494 4.29399 18.0854C4.26982 18.103 4.2445 18.1183 4.22075 18.1352C4.40222 18.2424 4.60281 18.3557 4.8184 18.4672C5.80298 18.9766 7.00406 19.4168 8.09184 19.3637L8.34477 19.3422C8.92977 19.2693 9.46982 19.0375 9.93754 18.5697C10.5675 17.9397 10.8782 17.1552 10.8897 16.4399L10.8887 16.2983C10.8694 15.8167 10.7127 15.3794 10.4288 15.0326L10.2989 14.8901C9.96408 14.5553 9.52081 14.3016 9.05082 14.184L8.8477 14.143Z" fill="#323544"/>
<path opacity="0.4" d="M18.668 3.5464C19.489 2.93302 20.6503 3.00447 21.3896 3.74366C22.1288 4.48281 22.2009 5.64433 21.5879 6.46534L21.4561 6.6255L12.3848 16.5601C12.386 16.5275 12.3891 16.495 12.3896 16.4624L12.3867 16.2378C12.3659 15.7197 12.2438 15.2093 12.0137 14.7427L20.3477 5.61378L20.417 5.52198C20.5539 5.29563 20.523 4.99809 20.3291 4.80421C20.1352 4.61041 19.8376 4.5794 19.6113 4.71632L19.5195 4.78566L10.3955 13.1138C10.0859 12.9458 9.75432 12.8137 9.41016 12.728L9.08984 12.6626C8.9648 12.6422 8.83861 12.6286 8.71191 12.6206L18.5088 3.67823L18.668 3.5464Z" fill="#323544"/>
</svg>
