<svg width="24" height="24" viewBox="0 0 24 24" fill="none" xmlns="http://www.w3.org/2000/svg">
<path opacity="0.4" d="M14.0468 2.5301C13.1681 1.65142 11.7435 1.65142 10.8648 2.5301L5.56128 7.83364L6.62194 8.8943L11.9255 3.59076C12.2184 3.29787 12.6932 3.29787 12.9861 3.59076L13.5162 4.12087L10.511 7.12607C10.2181 7.41896 10.2181 7.89384 10.511 8.18673C10.8039 8.47962 11.2788 8.47962 11.5717 8.18673L14.5769 5.18153L15.6373 6.24196L14.3999 7.4794C14.107 7.77229 14.107 8.24716 14.3999 8.54006C14.6928 8.83295 15.1677 8.83295 15.4606 8.54006L16.698 7.30262L20.4106 11.0153C20.7035 11.3081 20.7035 11.783 20.4106 12.0759L15.1071 17.3795L16.1678 18.4401L21.4713 13.1366C22.35 12.2579 22.35 10.8333 21.4713 9.9546L14.0468 2.5301Z" fill="#323544"/>
<path d="M10.8648 20.5614C11.7434 21.4401 13.1681 21.4401 14.0467 20.5614L16.1677 18.4405L15.107 17.3798L6.62187 8.89464L5.56121 7.83398L3.44026 9.95494C2.56158 10.8336 2.56158 12.2582 3.44026 13.1369L5.56118 15.2578L3.61642 17.2026C2.73774 18.0813 2.73774 19.5059 3.61642 20.3846C4.4951 21.2633 5.91972 21.2633 6.7984 20.3846L8.74316 18.4398L10.8648 20.5614ZM5.56121 9.9553L14.0464 18.4405L12.9861 19.5007C12.6932 19.7936 12.2183 19.7936 11.9254 19.5007L4.50092 12.0763C4.20803 11.7834 4.20803 11.3085 4.50092 11.0156L5.56121 9.9553ZM6.62176 16.3186L7.68242 17.3792L5.73774 19.3239C5.44485 19.6168 4.96998 19.6168 4.67708 19.3239C4.38419 19.031 4.38419 18.5562 4.67708 18.2633L6.62176 16.3186Z" fill="#323544"/>
</svg>
