<svg width="24" height="24" viewBox="0 0 24 24" fill="none" xmlns="http://www.w3.org/2000/svg">
<path opacity="0.4" d="M2 12C2 6.47715 6.47715 2 12 2C17.5228 2 22 6.47715 22 12C22 12.7351 21.3922 13.2734 20.7117 13.2734H17.0138C15.3547 13.2734 14.0098 14.6184 14.0098 16.2775C14.0098 17.0726 14.325 17.8353 14.8864 18.3984C15.4257 18.9393 15.6251 19.6836 15.4766 20.3542C15.3242 21.042 14.8035 21.6373 13.993 21.8012C13.3483 21.9317 12.6818 22 12 22C6.47715 22 2 17.5228 2 12ZM12 3.5C7.30558 3.5 3.5 7.30558 3.5 12C3.5 16.6944 7.30558 20.5 12 20.5C12.5813 20.5 13.1482 20.4418 13.6955 20.331C13.8842 20.2929 13.9788 20.18 14.0121 20.0297C14.0492 19.8622 14.0046 19.6385 13.8241 19.4575C12.9824 18.6132 12.5098 17.4696 12.5098 16.2775C12.5098 13.79 14.5263 11.7734 17.0138 11.7734H20.497C20.3769 7.18374 16.6187 3.5 12 3.5Z" fill="#323544"/>
<path d="M15.0044 7.22641C15.4925 6.73826 16.284 6.73826 16.7722 7.22641C17.2603 7.71457 17.2604 8.50609 16.7722 8.99425C16.2841 9.4824 15.4926 9.4824 15.0045 8.99425C14.5163 8.50609 14.5162 7.71457 15.0044 7.22641Z" fill="#323544"/>
<path d="M8.99482 15.0049C8.50666 14.5167 7.7152 14.5167 7.22705 15.0049C6.73889 15.493 6.73889 16.2845 7.22705 16.7726C7.7152 17.2608 8.50673 17.2608 8.99489 16.7727C9.48304 16.2845 9.48297 15.493 8.99482 15.0049Z" fill="#323544"/>
<path d="M7.01063 9.36859C7.67746 9.54726 8.07319 10.2327 7.89451 10.8995C7.71583 11.5663 7.03039 11.9622 6.36355 11.7835C5.69672 11.6048 5.30099 10.9194 5.47967 10.2526C5.65835 9.58573 6.34379 9.18991 7.01063 9.36859Z" fill="#323544"/>
<path d="M10.8993 7.89424C11.5661 7.71556 11.9619 7.03014 11.7832 6.36331C11.6045 5.69648 10.9191 5.30075 10.2523 5.47943C9.58542 5.6581 9.18959 6.34355 9.36827 7.01038C9.54695 7.67722 10.2325 8.07292 10.8993 7.89424Z" fill="#323544"/>
</svg>
