<svg width="24" height="24" viewBox="0 0 24 24" fill="none" xmlns="http://www.w3.org/2000/svg">
<path d="M20.2196 2.71964C20.5125 2.42677 20.9873 2.4268 21.2802 2.71964C21.5731 3.01253 21.5731 3.4873 21.2802 3.78019L6.21964 18.8407C5.92675 19.1336 5.45199 19.1336 5.15909 18.8407C4.86626 18.5478 4.86622 18.0731 5.15909 17.7802L20.2196 2.71964Z" fill="#323544"/>
<g opacity="0.4">
<path d="M19.5 18H21.25L21.3271 18.0039C21.7051 18.0425 22 18.3618 22 18.75C22 19.1382 21.7051 19.4575 21.3271 19.4961L21.25 19.5H19.5V21.25C19.5 21.6642 19.1642 22 18.75 22C18.3358 22 18 21.6642 18 21.25V19.5H6.75C6.14309 19.5 5.59318 19.2588 5.18848 18.8682C5.48292 19.1331 5.93637 19.1242 6.21973 18.8408L7.06055 18H18V7.06055L19.5 5.56055V18Z" fill="#323544"/>
<path d="M5.25 2C5.63817 2 5.95747 2.29488 5.99609 2.67285L6 2.75V4.5H18.4395L16.9395 6H6V16.9395L5.15918 17.7803C4.87479 18.0647 4.8669 18.5201 5.13477 18.8145C4.79263 18.4613 4.56429 17.9972 4.51172 17.4805L4.5 17.25V6H2.75C2.33579 6 2 5.66421 2 5.25C2 4.83579 2.33579 4.5 2.75 4.5H4.5V2.75C4.5 2.33579 4.83579 2 5.25 2Z" fill="#323544"/>
</g>
</svg>
