<svg width="24" height="24" viewBox="0 0 24 24" fill="none" xmlns="http://www.w3.org/2000/svg">
<path opacity="0.4" d="M10.6742 17.5687C10.8149 17.7093 11.0056 17.7884 11.2046 17.7884C11.4035 17.7884 11.5942 17.7093 11.7349 17.5687L20.2202 9.0834C21.0988 8.20472 21.0988 6.7801 20.2202 5.90142L18.0988 3.7801C17.2202 2.90142 15.7955 2.90142 14.9169 3.7801L6.43158 12.2654C6.13869 12.5583 6.13869 13.0332 6.43158 13.326L6.60856 13.503L7.66922 14.5637L9.43699 16.3314L10.4976 17.3921L10.6742 17.5687ZM11.0418 15.8149L11.0282 15.8009L8.19973 12.9725L8.1856 12.9587L8.02257 12.7957L15.9775 4.84076C16.2704 4.54787 16.7453 4.54787 17.0382 4.84076L19.1595 6.96208C19.4524 7.25498 19.4524 7.72985 19.1595 8.02274L11.2046 15.9777L11.0418 15.8149Z" fill="#323544"/>
<path d="M8.9068 18.9828L10.4976 17.392L9.43695 16.3314L7.84614 17.9222C7.7485 18.0198 7.59021 18.0198 7.49258 17.9222L6.07837 16.508C5.98074 16.4103 5.98074 16.252 6.07837 16.1544L7.66918 14.5636L6.60852 13.5029L5.01771 15.0937C4.51933 15.5921 4.38439 16.3163 4.6129 16.937C4.5684 16.9656 4.52626 16.9993 4.48734 17.0382L3.19259 18.333C2.99756 18.528 2.92531 18.8143 3.00447 19.0786C3.08362 19.3428 3.30141 19.5422 3.57154 19.5979L5.9167 20.0812C6.16382 20.1321 6.41999 20.0553 6.5984 19.8769L6.96221 19.5131C7.00062 19.4747 7.03442 19.4326 7.06328 19.3875C7.68401 19.6162 8.40834 19.4813 8.9068 18.9828Z" fill="#323544"/>
</svg>
