<svg width="24" height="24" viewBox="0 0 24 24" fill="none" xmlns="http://www.w3.org/2000/svg">
<path opacity="0.4" d="M11.2715 2C10.125 2 9.16182 2.86205 9.03522 4.00153L7.87705 14.425C7.80513 15.0723 8.01721 15.719 8.45849 16.1979L8.86448 16.6386C8.95981 16.7421 9.02411 16.8703 9.05004 17.0086L9.42382 19.0021C9.49121 19.3615 9.80506 19.622 10.1708 19.622H10.3303H13.6729H13.8393C14.205 19.622 14.5189 19.3615 14.5863 19.0021L14.9617 16.9996C14.9876 16.8613 15.0519 16.7331 15.1473 16.6296L15.545 16.1979C15.9863 15.719 16.1983 15.0723 16.1264 14.425L14.9683 4.00153C14.8417 2.86206 13.8785 2 12.732 2H11.2715ZM10.526 4.16717C10.5682 3.78735 10.8893 3.5 11.2715 3.5H12.732C13.1142 3.5 13.4352 3.78735 13.4774 4.16718L14.4083 12.5449H9.59518L10.526 4.16717ZM9.42851 14.0449H14.575L14.6356 14.5906C14.6596 14.8064 14.5889 15.0219 14.4418 15.1816L14.0441 15.6133C13.7581 15.9237 13.5652 16.3083 13.4874 16.7232L13.2251 18.122H10.7849L10.5243 16.7322C10.4466 16.3173 10.2537 15.9327 9.96768 15.6223L9.56169 15.1816C9.4146 15.0219 9.34391 14.8064 9.36788 14.5906L9.42851 14.0449Z" fill="#323544"/>
<path d="M13.6729 20.5591V19.6221H10.3303L10.3303 21.25C10.3303 21.496 10.4509 21.7264 10.6531 21.8665C10.8553 22.0066 11.1133 22.0387 11.3437 21.9523L13.1862 21.2613C13.4789 21.1516 13.6729 20.8717 13.6729 20.5591Z" fill="#323544"/>
</svg>
