<svg width="24" height="24" viewBox="0 0 24 24" fill="none" xmlns="http://www.w3.org/2000/svg">
<path d="M12.8375 4.96984C12.2958 4.77568 11.7035 4.77568 11.1619 4.96984L2.88741 7.93598C1.7146 8.3564 1.71462 10.015 2.88742 10.4354L11.1619 13.4016C11.7035 13.5957 12.2958 13.5957 12.8375 13.4016L21.1119 10.4354C22.2847 10.015 22.2847 8.3564 21.1119 7.93598L12.8375 4.96984ZM11.668 6.38186C11.8824 6.305 12.1169 6.305 12.3313 6.38186L20.153 9.1857L12.3313 11.9895C12.1169 12.0664 11.8824 12.0664 11.668 11.9895L3.84633 9.1857L11.668 6.38186Z" fill="#323544"/>
<path opacity="0.4" d="M2.88741 13.5652L5.03054 12.7969L7.25314 13.5936L3.84633 14.8149L11.668 17.6187C11.8824 17.6956 12.1169 17.6956 12.3313 17.6187L20.153 14.8149L16.7461 13.5936L18.9687 12.7969L21.1119 13.5652C22.2847 13.9856 22.2847 15.6442 21.1119 16.0646L12.8375 19.0307C12.2958 19.2249 11.7035 19.2249 11.1619 19.0307L2.88742 16.0646C1.71462 15.6442 1.7146 13.9856 2.88741 13.5652Z" fill="#323544"/>
</svg>
