<svg width="24" height="24" viewBox="0 0 24 24" fill="none" xmlns="http://www.w3.org/2000/svg">
<path d="M3.25 5.5C3.25 4.25736 4.25736 3.25 5.5 3.25H18.5C19.7426 3.25 20.75 4.25736 20.75 5.5V18.5C20.75 19.7426 19.7426 20.75 18.5 20.75H5.5C4.25736 20.75 3.25 19.7426 3.25 18.5V5.5ZM5.5 4.75C5.08579 4.75 4.75 5.08579 4.75 5.5V18.5C4.75 18.9142 5.08579 19.25 5.5 19.25H18.5C18.9142 19.25 19.25 18.9142 19.25 18.5V5.5C19.25 5.08579 18.9142 4.75 18.5 4.75H5.5Z" fill="#323544"/>
<path opacity="0.4" d="M19.25 8.58301L4.75 8.58301V10.083H8.58301L8.58301 19.25H10.083V15.416H19.25V13.916H10.083V10.083L19.25 10.083V8.58301Z" fill="#323544"/>
</svg>
