<svg width="24" height="24" viewBox="0 0 24 24" fill="none" xmlns="http://www.w3.org/2000/svg">
<path opacity="0.4" d="M4.5 21.25V2.75C4.5 2.33579 4.83579 2 5.25 2C5.63817 2 5.95747 2.29488 5.99609 2.67285L6 2.75V21.25L5.99609 21.3271C5.95747 21.7051 5.63817 22 5.25 22C4.86183 22 4.54253 21.7051 4.50391 21.3271L4.5 21.25ZM11.25 21.25V2.75C11.25 2.33579 11.5858 2 12 2C12.4142 2 12.75 2.33579 12.75 2.75V21.25C12.75 21.6642 12.4142 22 12 22C11.5858 22 11.25 21.6642 11.25 21.25ZM18 21.25V2.75C18 2.33579 18.3358 2 18.75 2C19.1642 2 19.5 2.33579 19.5 2.75V21.25C19.5 21.6642 19.1642 22 18.75 22C18.3358 22 18 21.6642 18 21.25Z" fill="#323544"/>
<path d="M21.25 18L21.3271 18.0039C21.7051 18.0425 22 18.3618 22 18.75C22 19.1382 21.7051 19.4575 21.3271 19.4961L21.25 19.5H2.75C2.33579 19.5 2 19.1642 2 18.75C2 18.3358 2.33579 18 2.75 18H21.25ZM21.25 11.25L21.3271 11.2539C21.7051 11.2925 22 11.6118 22 12C22 12.3882 21.7051 12.7075 21.3271 12.7461L21.25 12.75H2.75C2.33579 12.75 2 12.4142 2 12C2 11.5858 2.33579 11.25 2.75 11.25H21.25ZM21.25 4.5L21.3271 4.50391C21.7051 4.54253 22 4.86183 22 5.25C22 5.63817 21.7051 5.95747 21.3271 5.99609L21.25 6H2.75C2.33579 6 2 5.66421 2 5.25C2 4.83579 2.33579 4.5 2.75 4.5H21.25Z" fill="#323544"/>
</svg>
