<svg width="24" height="24" viewBox="0 0 24 24" fill="none" xmlns="http://www.w3.org/2000/svg">
<path d="M13.1244 14.9363L13.1243 12.815L13.1243 10.9328V8.81152L2.21803 19.7177L2.21888 19.7186C2.00503 19.9331 1.94117 20.2552 2.05711 20.5351C2.1732 20.8154 2.44668 20.9981 2.75002 20.9981H10.8745C12.1171 20.9981 13.1245 19.9907 13.1245 18.7481L13.1244 14.9363ZM11.6243 12.4345L11.6245 18.7481C11.6245 19.1623 11.2887 19.4981 10.8745 19.4981H4.56068L11.6243 12.4345Z" fill="#323544"/>
<path opacity="0.4" d="M20.7785 4.22019C19.9329 3.37452 18.5618 3.37452 17.7161 4.22019L13.1243 8.81201V10.9333L18.7767 5.28085C19.0366 5.02097 19.458 5.02097 19.7179 5.28085C19.9778 5.54074 19.9778 5.96209 19.7179 6.22198L13.1243 12.8155L13.1244 14.9368L20.7785 7.28264C21.6242 6.43697 21.6242 5.06586 20.7785 4.22019Z" fill="#323544"/>
</svg>
