<svg width="24" height="24" viewBox="0 0 24 24" fill="none" xmlns="http://www.w3.org/2000/svg">
<path d="M7.25 15C7.66421 15 8 15.3358 8 15.75V18.75C8 19.1642 7.66421 19.5 7.25 19.5H4.25C3.83579 19.5 3.5 19.1642 3.5 18.75V15.75L3.50391 15.6729C3.54253 15.2949 3.86183 15 4.25 15H7.25ZM19.75 15C20.1642 15 20.5 15.3358 20.5 15.75V18.75C20.5 19.1642 20.1642 19.5 19.75 19.5H16.75C16.3358 19.5 16 19.1642 16 18.75V15.75C16 15.3358 16.3358 15 16.75 15H19.75ZM17.5 18H19V16.5H17.5V18ZM5 18H6.5V16.5H5V18ZM13.25 7.25C13.25 6.55964 12.6904 6 12 6C11.3096 6 10.75 6.55964 10.75 7.25C10.75 7.94036 11.3096 8.5 12 8.5C12.6904 8.5 13.25 7.94036 13.25 7.25ZM5 6.5H3.5V8H5V6.5ZM21.25 5L21.3271 5.00391C21.7051 5.04253 22 5.36183 22 5.75V8.75C22 9.16421 21.6642 9.5 21.25 9.5H18.25C17.8358 9.5 17.5 9.16421 17.5 8.75V5.75L17.5039 5.67285C17.5425 5.29488 17.8618 5 18.25 5H21.25ZM6.5 8.75C6.5 9.16421 6.16421 9.5 5.75 9.5H2.75C2.33579 9.5 2 9.16421 2 8.75V5.75L2.00391 5.67285C2.04253 5.29488 2.36183 5 2.75 5H5.75L5.82715 5.00391C6.20512 5.04253 6.5 5.36183 6.5 5.75V8.75ZM14.75 7.25C14.75 8.76878 13.5188 10 12 10C10.4812 10 9.25 8.76878 9.25 7.25C9.25 5.73122 10.4812 4.5 12 4.5C13.5188 4.5 14.75 5.73122 14.75 7.25ZM19 8H20.5V6.5H19V8Z" fill="#323544"/>
<g opacity="0.4">
<path d="M14.2646 8.80664C14.9405 9.00604 15.5297 9.29491 16.041 9.64941C17.051 10.3498 17.7123 11.2759 18.1445 12.1748C18.5756 13.0714 18.7873 13.9588 18.8926 14.6152C18.9147 14.7534 18.9313 14.8824 18.9453 15H17.4316C17.425 14.9529 17.4202 14.9038 17.4121 14.8535C17.322 14.2913 17.143 13.5533 16.793 12.8252C16.444 12.0993 15.9331 11.4001 15.1855 10.8818C14.4442 10.3679 13.4249 10 12 10C10.5751 10 9.5558 10.3679 8.81445 10.8818C8.06691 11.4001 7.55602 12.0993 7.20703 12.8252C6.85703 13.5533 6.67798 14.2913 6.58789 14.8535C6.57983 14.9038 6.57499 14.9529 6.56836 15H5.05469C5.06874 14.8824 5.08528 14.7534 5.10742 14.6152C5.21266 13.9588 5.42441 13.0714 5.85547 12.1748C6.28768 11.2759 6.949 10.3498 7.95898 9.64941C8.47006 9.29507 9.05893 9.00603 9.73438 8.80664C10.2302 9.52696 11.0594 10 12 10C12.9404 10 13.7688 9.52671 14.2646 8.80664Z" fill="#323544"/>
<path d="M17.5 8H14.6436C14.7111 7.76136 14.75 7.51029 14.75 7.25C14.75 6.98971 14.7111 6.73864 14.6436 6.5H17.5V8Z" fill="#323544"/>
<path d="M9.35645 6.5C9.28887 6.73864 9.25 6.98971 9.25 7.25C9.25 7.51029 9.28887 7.76136 9.35645 8H6.5V6.5H9.35645Z" fill="#323544"/>
</g>
</svg>
