<svg width="24" height="24" viewBox="0 0 24 24" fill="none" xmlns="http://www.w3.org/2000/svg">
<path d="M18.75 17.5C19.1642 17.5 19.5 17.8358 19.5 18.25V21.25C19.5 21.6642 19.1642 22 18.75 22H15.75C15.3358 22 15 21.6642 15 21.25V18.25C15 17.8358 15.3358 17.5 15.75 17.5H18.75ZM16.5 20.5H18V19H16.5V20.5ZM8.25 9.75C8.66421 9.75 9 10.0858 9 10.5V13.5C9 13.9142 8.66421 14.25 8.25 14.25H5.25C4.83579 14.25 4.5 13.9142 4.5 13.5V10.5L4.50391 10.4229C4.54253 10.0449 4.86183 9.75 5.25 9.75H8.25ZM18.75 9.75C19.1642 9.75 19.5 10.0858 19.5 10.5V13.5C19.5 13.9142 19.1642 14.25 18.75 14.25H15.75C15.3358 14.25 15 13.9142 15 13.5V10.5C15 10.0858 15.3358 9.75 15.75 9.75H18.75ZM16.5 12.75H18V11.25H16.5V12.75ZM6 12.75H7.5V11.25H6V12.75ZM8.25 2L8.32715 2.00391C8.70512 2.04253 9 2.36183 9 2.75V5.75C9 6.16421 8.66421 6.5 8.25 6.5H5.25C4.83579 6.5 4.5 6.16421 4.5 5.75V2.75L4.50391 2.67285C4.54253 2.29488 4.86183 2 5.25 2H8.25ZM6 5H7.5V3.5H6V5Z" fill="#323544"/>
<g opacity="0.4">
<path d="M18 17.5H16.5V14.25H18V17.5Z" fill="#323544"/>
<path d="M15 12.75H9V11.25H15V12.75Z" fill="#323544"/>
<path d="M7.46094 9.75H5.96094V6.5H7.46094V9.75Z" fill="#323544"/>
</g>
</svg>
