<svg width="24" height="24" viewBox="0 0 24 24" fill="none" xmlns="http://www.w3.org/2000/svg">
<path d="M12 6.38477C15.8552 6.38492 19.0541 9.19043 19.669 12.8711H22L22.1338 12.8828C22.4394 12.938 22.6853 13.1799 22.7393 13.4951C22.8007 13.8549 22.5941 14.2064 22.25 14.3281L21.7949 14.4893C20.929 14.7949 20.254 15.4788 19.957 16.3408L19.9024 16.5156L19.749 17.0654C19.6485 17.4267 19.2964 17.6582 18.9248 17.6074C18.5535 17.5565 18.2764 17.2391 18.2764 16.8643V14.3711H5.72267V16.8643L5.70997 17.002C5.6519 17.3146 5.39928 17.563 5.07423 17.6074C4.70251 17.658 4.35022 17.426 4.25001 17.0645L4.09767 16.5156L4.04298 16.3408C3.76585 15.5363 3.15963 14.8872 2.37599 14.5557L2.20509 14.4893L1.75001 14.3281C1.40591 14.2064 1.19936 13.8549 1.26075 13.4951C1.32244 13.135 1.63466 12.8711 2.00001 12.8711H4.33107C4.94601 9.19038 8.14469 6.38477 12 6.38477ZM12 7.88477C8.97579 7.88477 6.45168 10.0237 5.85646 12.8711H18.1436C17.5484 10.0237 15.0241 7.88491 12 7.88477Z" fill="#323544"/>
<g opacity="0.4">
<path d="M14.4941 8.40039C15.0386 8.63644 15.5428 8.94744 15.9941 9.32031V12.8711H14.4941V8.40039Z" fill="#323544"/>
<path d="M12 7.88477C12.2539 7.88478 12.504 7.90136 12.75 7.93066V12.8711H11.25V7.93066C11.496 7.90137 11.7461 7.88477 12 7.88477Z" fill="#323544"/>
<path d="M9.50586 12.8711H8.00586V9.32031C8.45722 8.94743 8.96144 8.63644 9.50586 8.40039V12.8711Z" fill="#323544"/>
</g>
</svg>
