<svg width="24" height="24" viewBox="0 0 24 24" fill="none" xmlns="http://www.w3.org/2000/svg">
<path opacity="0.4" d="M13.5 20V17C13.5 16.1716 12.8284 15.5 12 15.5C11.1716 15.5 10.5 16.1716 10.5 17V20C10.5 20.4142 10.1642 20.75 9.75 20.75C9.33579 20.75 9 20.4142 9 20V17C9 15.3431 10.3431 14 12 14C13.6569 14 15 15.3431 15 17V20C15 20.4142 14.6642 20.75 14.25 20.75C13.8358 20.75 13.5 20.4142 13.5 20Z" fill="#323544"/>
<path d="M10.8037 3.59797C11.5865 3.10607 12.5997 3.14125 13.3496 3.70344L19.8496 8.57844L19.9531 8.66047C20.4567 9.08638 20.7499 9.7143 20.75 10.3782V18.4993C20.75 19.742 19.7426 20.7493 18.5 20.7493H14.2695C14.6746 20.739 14.9998 20.4079 15 20.0003V19.2493H18.5C18.9142 19.2493 19.25 18.9135 19.25 18.4993V10.3782C19.2499 10.172 19.165 9.97583 19.0176 9.83527L18.9502 9.77863L12.4502 4.90363C12.217 4.72883 11.9066 4.70619 11.6543 4.83723L11.5498 4.90363L5.0498 9.77863C4.86124 9.92021 4.75012 10.1424 4.75 10.3782V18.4993C4.75 18.9135 5.08579 19.2493 5.5 19.2493H9V20.0003C9.00016 20.4079 9.32539 20.739 9.73047 20.7493H5.5C4.25736 20.7493 3.25 19.742 3.25 18.4993V10.3782C3.25012 9.67018 3.58393 9.00328 4.15039 8.57844L10.6504 3.70344L10.8037 3.59797Z" fill="#323544"/>
</svg>
