<svg width="24" height="24" viewBox="0 0 24 24" fill="none" xmlns="http://www.w3.org/2000/svg">
<path opacity="0.4" d="M13.35 3.70391C12.55 3.10391 11.45 3.10391 10.65 3.70391L4.15 8.57891C3.58344 9.00383 3.25 9.6707 3.25 10.3789V18.5003C3.25 19.743 4.25736 20.7503 5.5 20.7503H18.5C19.7426 20.7503 20.75 19.743 20.75 18.5003V10.3789C20.75 9.6707 20.4166 9.00383 19.85 8.57891L13.35 3.70391ZM11.55 4.90391C11.8167 4.70391 12.1833 4.70391 12.45 4.90391L18.95 9.77891C19.1389 9.92055 19.25 10.1428 19.25 10.3789V18.5003C19.25 18.9145 18.9142 19.2503 18.5 19.2503H5.5C5.08579 19.2503 4.75 18.9145 4.75 18.5003V10.3789C4.75 10.1428 4.86115 9.92055 5.05 9.77891L11.55 4.90391Z" fill="#323544"/>
<path d="M10.9192 10.4189C10.9192 10.0047 10.5833 9.66891 10.1691 9.66895C9.7549 9.66898 9.41915 10.0048 9.41919 10.419V15.5815C9.41915 15.9957 9.7549 16.3316 10.1691 16.3316C10.5833 16.3316 10.9192 15.9959 10.9192 15.5817L10.9194 13.7503H13.0806L13.0806 15.5816C13.0806 15.9958 13.4164 16.3316 13.8306 16.3316C14.2448 16.3316 14.5806 15.9958 14.5806 15.5816L14.5806 10.4189C14.5806 10.0047 14.2448 9.66895 13.8306 9.66895C13.4164 9.66895 13.0806 10.0047 13.0806 10.4189V12.2503H10.9194L10.9192 10.4189Z" fill="#323544"/>
</svg>
