<svg width="24" height="25" viewBox="0 0 24 25" fill="none" xmlns="http://www.w3.org/2000/svg">
<path opacity="0.4" d="M18.5 4.14062C18.799 4.14062 19.0844 4.19895 19.3454 4.30484L11.9299 11.7203L9.63761 9.42801C8.75893 8.54934 7.33431 8.54935 6.45563 9.42803C5.57696 10.3067 5.57696 11.7313 6.45565 12.61L10.3389 16.4932C11.2176 17.3719 12.6422 17.3719 13.5209 16.4932L20.75 9.26412V19.3906C20.75 20.6333 19.7426 21.6406 18.5 21.6406H5.5C4.25736 21.6406 3.25 20.6333 3.25 19.3906V6.39062C3.25 5.14798 4.25736 4.14062 5.5 4.14062H18.5Z" fill="#323544"/>
<path d="M20.4839 7.40924C20.7768 7.11634 20.7768 6.64147 20.4839 6.34858C20.191 6.05568 19.7162 6.05568 19.4233 6.34858L11.9299 13.842L8.57696 10.4891C8.28406 10.1962 7.80919 10.1962 7.5163 10.4891C7.22341 10.782 7.22341 11.2568 7.5163 11.5497L11.3996 15.4329C11.6925 15.7258 12.1673 15.7258 12.4602 15.4329L20.4839 7.40924Z" fill="#323544"/>
</svg>
