<svg width="24" height="25" viewBox="0 0 24 25" fill="none" xmlns="http://www.w3.org/2000/svg">
<path opacity="0.4" d="M2 12.8906C2 7.36778 6.47715 2.89062 12 2.89062C17.5228 2.89062 22 7.36778 22 12.8906C22 18.4135 17.5228 22.8906 12 22.8906C6.47715 22.8906 2 18.4135 2 12.8906ZM15.5071 10.3545C15.2142 10.0616 14.7393 10.0616 14.4464 10.3545L10.9649 13.836L9.55359 12.4247C9.2607 12.1318 8.78582 12.1318 8.49293 12.4247C8.20004 12.7176 8.20004 13.1925 8.49294 13.4854L10.4346 15.427C10.7275 15.7199 11.2023 15.7199 11.4952 15.427L15.5071 11.4151C15.8 11.1222 15.8 10.6474 15.5071 10.3545Z" fill="#323544"/>
<path d="M15.507 11.4151C15.7999 11.1222 15.7999 10.6473 15.507 10.3544C15.2141 10.0615 14.7392 10.0615 14.4464 10.3544L10.9648 13.836L9.55352 12.4247C9.26063 12.1318 8.78575 12.1318 8.49286 12.4247C8.19997 12.7176 8.19997 13.1924 8.49287 13.4853L10.4345 15.427C10.7274 15.7198 11.2023 15.7198 11.4952 15.4269L15.507 11.4151Z" fill="#323544"/>
</svg>
