<svg width="24" height="25" viewBox="0 0 24 25" fill="none" xmlns="http://www.w3.org/2000/svg">
<path opacity="0.4" d="M3.39854 11.6458C2.33012 11.0289 1.96404 9.66271 2.5809 8.59428L4.09689 5.9685C4.71388 4.89984 6.08042 4.53388 7.14894 5.15079C7.63842 5.4334 8.25011 5.08009 8.25011 4.51524C8.25011 3.28144 9.2503 2.28125 10.4841 2.28125H13.5165C14.7502 2.28125 15.7501 3.28149 15.7501 4.51502C15.7501 5.07981 16.3615 5.43263 16.8503 5.15041C17.9185 4.53366 19.2845 4.89967 19.9012 5.96792L21.4176 8.59435C22.0345 9.66276 21.6684 11.0289 20.6 11.6458C20.1108 11.9282 20.1108 12.6343 20.6 12.9167C21.6684 13.5336 22.0344 14.8998 21.4176 15.9682L19.9012 18.5946C19.2845 19.6629 17.9185 20.0289 16.8503 19.4121C16.3615 19.1299 15.7501 19.4827 15.7501 20.0475C15.7501 21.281 14.7502 22.2812 13.5165 22.2812H10.4841C9.2503 22.2812 8.25011 21.2811 8.25011 20.0473C8.25011 19.4824 7.63844 19.1291 7.14896 19.4117C6.08044 20.0286 4.71391 19.6627 4.09692 18.594L2.58092 15.9682C1.96407 14.8998 2.33013 13.5336 3.39856 12.9168C3.88776 12.6343 3.88777 11.9282 3.39854 11.6458ZM11.9992 8.44618C9.88118 8.44618 8.16419 10.1632 8.16419 12.2812C8.16419 14.3992 9.88118 16.1162 11.9992 16.1162C14.1172 16.1162 15.8342 14.3992 15.8342 12.2812C15.8342 10.1632 14.1172 8.44618 11.9992 8.44618Z" fill="#323544"/>
<path d="M8.16431 12.2803C8.16431 10.1623 9.8813 8.44531 11.9993 8.44531C14.1173 8.44531 15.8343 10.1623 15.8343 12.2803C15.8343 14.3983 14.1173 16.1153 11.9993 16.1153C9.8813 16.1153 8.16431 14.3983 8.16431 12.2803Z" fill="#323544"/>
</svg>
