<svg width="24" height="25" viewBox="0 0 24 25" fill="none" xmlns="http://www.w3.org/2000/svg">
<path d="M7.65822 17.5746C7.15194 16.6977 7.45271 15.5766 8.32933 15.0705C8.55153 14.9422 8.55116 14.6218 8.3296 14.4939C7.45298 13.9877 7.15263 12.8668 7.65874 11.9902L8.76498 10.0741C9.27105 9.19759 10.3919 8.89741 11.2683 9.40341C11.49 9.53143 11.767 9.37134 11.767 9.11561C11.767 8.1036 12.5874 7.2832 13.5994 7.2832H15.8121C16.8244 7.2832 17.6448 8.10401 17.6448 9.11605C17.6448 9.37229 17.9222 9.53206 18.1435 9.40423C19.02 8.89821 20.1407 9.1985 20.6468 10.075L21.7533 11.9916C22.2593 12.8679 21.959 13.9885 21.0827 14.4944C20.8616 14.6221 20.8612 14.9419 21.083 15.0699C21.9593 15.5759 22.26 16.6966 21.7539 17.5732L20.6476 19.4893C20.1415 20.3659 19.0206 20.6663 18.144 20.1602C17.9223 20.0322 17.6448 20.1922 17.6448 20.4485C17.6448 21.4607 16.8243 22.2814 15.812 22.2814H13.5996C12.5875 22.2814 11.767 21.461 11.767 20.4489C11.767 20.1931 11.4899 20.0328 11.2679 20.161C10.3914 20.667 9.27035 20.3669 8.76417 19.4902L7.65822 17.5746ZM11.6406 14.7818C11.6406 16.4746 13.0129 17.8468 14.7056 17.8468C16.3984 17.8468 17.7706 16.4746 17.7706 14.7818C17.7706 13.089 16.3984 11.7168 14.7056 11.7168C13.0129 11.7168 11.6406 13.089 11.6406 14.7818Z" fill="#323544"/>
<path opacity="0.4" d="M7.99183 2.28125C8.81111 2.28125 9.47615 2.94166 9.48364 3.75917C10.1954 3.3569 11.0998 3.60264 11.5095 4.31216L12.2675 5.62514C12.3366 5.74481 12.3872 5.87008 12.4203 5.99764C11.6205 6.30029 10.9676 6.90186 10.5979 7.66602C9.92129 7.61647 9.24412 7.77548 8.66147 8.11763C8.70841 7.97228 8.73377 7.81722 8.73377 7.65625C8.73377 6.82782 8.0622 6.15625 7.23377 6.15625C6.40534 6.15625 5.73377 6.82782 5.73377 7.65625C5.73377 8.48468 6.40534 9.15625 7.23377 9.15625C7.35989 9.15625 7.48238 9.14068 7.59942 9.11137C7.55268 9.17999 7.50814 9.25086 7.46596 9.32393L6.35972 11.24C6.05356 11.7703 5.90969 12.3497 5.9127 12.9208C5.37194 12.7003 4.98962 12.1716 4.98394 11.5529C4.27222 11.9551 3.36782 11.7094 2.95819 10.9999L2.20013 9.6869C1.7905 8.97738 2.0299 8.07125 2.73413 7.65601C2.0299 7.24076 1.79048 6.33462 2.20012 5.6251L2.95817 4.31212C3.3678 3.60262 4.27222 3.35688 4.98393 3.75912C4.99145 2.94163 5.65647 2.28125 6.47573 2.28125H7.99183Z" fill="#323544"/>
</svg>
