<svg width="24" height="25" viewBox="0 0 24 25" fill="none" xmlns="http://www.w3.org/2000/svg">
<path opacity="0.4" d="M2 12.8906C2 7.36778 6.47715 2.89062 12 2.89062C17.5228 2.89062 22 7.36778 22 12.8906C22 18.4135 17.5228 22.8906 12 22.8906C6.47715 22.8906 2 18.4135 2 12.8906ZM7.80814 12.8906C7.80814 13.3048 8.14393 13.6406 8.55814 13.6406H15.4419C15.8561 13.6406 16.1919 13.3048 16.1919 12.8906C16.1919 12.4764 15.8561 12.1406 15.4419 12.1406H8.55814C8.14393 12.1406 7.80814 12.4764 7.80814 12.8906Z" fill="#323544"/>
<path d="M8.55811 12.1406C8.14389 12.1406 7.80811 12.4764 7.80811 12.8906C7.80811 13.3048 8.14389 13.6406 8.55811 13.6406H15.4418C15.856 13.6406 16.1918 13.3048 16.1918 12.8906C16.1918 12.4764 15.856 12.1406 15.4418 12.1406H8.55811Z" fill="#323544"/>
</svg>
