<svg width="24" height="25" viewBox="0 0 24 25" fill="none" xmlns="http://www.w3.org/2000/svg">
<path opacity="0.4" d="M2 12.8906C2 7.36778 6.47715 2.89062 12 2.89062C17.5228 2.89062 22 7.36778 22 12.8906C22 18.4135 17.5228 22.8906 12 22.8906C6.47715 22.8906 2 18.4135 2 12.8906ZM12 10.2485C12.5965 10.2485 13.08 10.7321 13.08 11.3285C13.08 11.6942 12.8989 12.0177 12.6182 12.2142C12.3475 12.4037 12.0204 12.6568 11.7572 12.9747C11.491 13.2962 11.25 13.7332 11.25 14.2747C11.25 14.689 11.5858 15.0247 12 15.0247C12.4142 15.0247 12.75 14.689 12.75 14.2747C12.75 14.1997 12.7807 14.0905 12.9125 13.9314C13.0471 13.7688 13.2442 13.607 13.4785 13.443C14.143 12.9777 14.58 12.2042 14.58 11.3285C14.58 9.90363 13.4249 8.74855 12 8.74855C10.5751 8.74855 9.42006 9.90363 9.42006 11.3285C9.42006 11.7427 9.75584 12.0785 10.1701 12.0785C10.5843 12.0785 10.9201 11.7427 10.9201 11.3285C10.9201 10.7321 11.4036 10.2485 12 10.2485ZM11.2493 16.2827C11.2493 16.6969 11.5851 17.0327 11.9993 17.0327C12.4135 17.0327 12.75 16.6969 12.75 16.2827C12.75 15.8685 12.4135 15.5327 11.9993 15.5327C11.5851 15.5327 11.2493 15.8685 11.2493 16.2827Z" fill="#323544"/>
<path d="M11.9994 15.5322C11.5852 15.5322 11.2494 15.868 11.2494 16.2822C11.2494 16.6964 11.5852 17.0322 11.9994 17.0322C12.4136 17.0322 12.7501 16.6964 12.7501 16.2822C12.7501 15.868 12.4136 15.5322 11.9994 15.5322Z" fill="#323544"/>
<path d="M10.9202 11.328C10.9202 10.7316 11.4037 10.248 12.0001 10.248C12.5966 10.248 13.0801 10.7316 13.0801 11.328C13.0801 11.6937 12.899 12.0172 12.6183 12.2137C12.3476 12.4032 12.0205 12.6563 11.7573 12.9742C11.4911 13.2957 11.2501 13.7327 11.2501 14.2742C11.2501 14.6885 11.5859 15.0242 12.0001 15.0242C12.4143 15.0242 12.7501 14.6885 12.7501 14.2742C12.7501 14.1992 12.7808 14.09 12.9126 13.9309C13.0472 13.7683 13.2443 13.6065 13.4787 13.4425C14.1431 12.9772 14.5801 12.2037 14.5801 11.328C14.5801 9.90313 13.425 8.74805 12.0001 8.74805C10.5753 8.74805 9.42017 9.90313 9.42017 11.328C9.42017 11.7422 9.75595 12.078 10.1702 12.078C10.5844 12.078 10.9202 11.7422 10.9202 11.328Z" fill="#323544"/>
</svg>
