<svg width="24" height="25" viewBox="0 0 24 25" fill="none" xmlns="http://www.w3.org/2000/svg">
<path opacity="0.4" d="M4.9751 10.957L5.54071 20.384C5.612 21.5721 6.59637 22.4992 7.78667 22.4992H16.2113C17.4016 22.4992 18.3859 21.5721 18.4572 20.384L19.0229 10.957C18.852 10.9848 18.6767 10.9992 18.498 10.9992H5.49995C5.32127 10.9992 5.14595 10.9848 4.9751 10.957ZM10.7739 13.933L10.9981 18.4897C11.0185 18.9034 10.6996 19.2553 10.2859 19.2756C9.87215 19.296 9.52027 18.9771 9.49992 18.5634L9.27576 14.0067C9.25541 13.593 9.57429 13.2412 9.988 13.2208C10.4017 13.2004 10.7536 13.5193 10.7739 13.933ZM14.01 13.2208C14.4237 13.2412 14.7426 13.593 14.7223 14.0067L14.4981 18.5634C14.4778 18.9771 14.1259 19.296 13.7122 19.2756C13.2984 19.2553 12.9796 18.9034 12.9999 18.4897L13.2241 13.933C13.2444 13.5193 13.5963 13.2004 14.01 13.2208Z" fill="#323544"/>
<path d="M7.99902 4.75C7.99902 3.50736 9.00638 2.5 10.249 2.5H13.749C14.9917 2.5 15.999 3.50736 15.999 4.75V5.5H18.498C19.7407 5.5 20.748 6.50736 20.748 7.75C20.748 8.78958 20.043 9.66449 19.085 9.92267C18.8979 9.9731 18.7011 10 18.498 10H5.5C5.29694 10 5.10016 9.9731 4.91303 9.92267C3.95503 9.66449 3.25 8.78958 3.25 7.75C3.25 6.50736 4.25736 5.5 5.5 5.5H7.99902V4.75ZM14.499 5.5V4.75C14.499 4.33579 14.1632 4 13.749 4H10.249C9.83481 4 9.49902 4.33579 9.49902 4.75V5.5H14.499Z" fill="#323544"/>
</svg>
