<svg width="24" height="24" viewBox="0 0 24 24" fill="none" xmlns="http://www.w3.org/2000/svg">
<path opacity="0.4" d="M12.7516 2.75098C12.7516 2.33676 12.4158 2.00098 12.0016 2.00098C11.5874 2.00098 11.2516 2.33676 11.2516 2.75098V3.53801C7.46161 3.9143 4.5016 7.11197 4.5016 11.001V14.115L3.80936 15.9609C3.25776 17.4319 4.34514 19.001 5.9161 19.001H18.0871C19.6581 19.001 20.7454 17.4319 20.1938 15.9609L19.5016 14.115V11.001C19.5016 7.11197 16.5416 3.9143 12.7516 3.53801V2.75098ZM6.0016 14.1168V11.001C6.0016 7.68727 8.68789 5.00098 12.0016 5.00098C15.3153 5.00098 18.0016 7.68727 18.0016 11.001V14.1168C18.0016 14.2955 18.0337 14.4727 18.0965 14.64L18.7893 16.4876C18.9732 16.9779 18.6108 17.501 18.0871 17.501H5.9161C5.39244 17.501 5.02998 16.9779 5.21385 16.4876L5.90673 14.64C5.96946 14.4727 6.0016 14.2955 6.0016 14.1168Z" fill="#323544"/>
<path d="M11.9997 21.9995C13.67 21.9995 15.0287 20.6631 15.0627 19.001H13.5621C13.5285 19.8339 12.8422 20.4995 11.9997 20.4995C11.1573 20.4995 10.471 19.8339 10.4374 19.001H8.93677C8.97083 20.6631 10.3295 21.9995 11.9997 21.9995Z" fill="#323544"/>
</svg>
