<svg width="24" height="24" viewBox="0 0 24 24" fill="none" xmlns="http://www.w3.org/2000/svg">
<path d="M13.5784 3.61827C12.3561 2.30712 10.4745 1.68444 8.61288 2.15759C6.10638 2.79463 4.51439 5.19526 4.82582 7.69667C3.60618 8.48241 2.79688 9.85313 2.79688 11.414C2.79688 13.8546 4.77535 15.8331 7.21593 15.8331H7.49829V18.249C7.49829 18.6632 7.1625 18.999 6.74829 18.999H6.2582C6.03014 18.6955 5.66714 18.4992 5.25829 18.4992H5.24829C4.55793 18.4992 3.99829 19.0589 3.99829 19.7492C3.99829 20.4396 4.55793 20.9992 5.24829 20.9992H5.25829C5.66736 20.9992 6.03053 20.8027 6.25857 20.499H6.74829C7.99093 20.499 8.99829 19.4916 8.99829 18.249V15.8331H11.2483V19.7491C10.9447 19.9772 10.7483 20.3403 10.7483 20.7492C10.7483 21.4396 11.3079 21.9992 11.9983 21.9992H12.0083C12.6986 21.9992 13.2583 21.4396 13.2583 20.7492C13.2583 20.3358 13.0576 19.9692 12.7483 19.7417V15.8331H14.9983V18.249C14.9983 19.4916 16.0057 20.499 17.2483 20.499H17.7383C17.9663 20.8027 18.3295 20.9992 18.7385 20.9992H18.7485C19.4389 20.9992 19.9985 20.4396 19.9985 19.7492C19.9985 19.0589 19.4389 18.4992 18.7485 18.4992H18.7385C18.3297 18.4992 17.9667 18.6955 17.7386 18.999H17.2483C16.8341 18.999 16.4983 18.6632 16.4983 18.249V15.8331H16.7806C19.2212 15.8331 21.1997 13.8546 21.1997 11.414C21.1997 9.88466 20.4227 8.53784 19.2442 7.74502C19.5117 5.92951 18.4831 4.11402 16.6928 3.45537C15.6338 3.06578 14.5156 3.15767 13.5784 3.61827Z" fill="#323544"/>
</svg>
