<svg width="24" height="24" viewBox="0 0 24 24" fill="none" xmlns="http://www.w3.org/2000/svg">
<path d="M19.5 18.75C19.5 19.3904 19.147 19.9079 18.7136 20.2874C18.2788 20.6681 17.6928 20.9769 17.0335 21.2211C15.7089 21.7116 13.9292 22 12 22C10.0708 22 8.29107 21.7116 6.96654 21.2211C6.30718 20.9769 5.7212 20.6681 5.28636 20.2874C4.853 19.9079 4.5 19.3904 4.5 18.75V16.423C4.54246 16.4636 4.58508 16.5025 4.62758 16.5397C5.18674 17.0293 5.895 17.3906 6.61923 17.6588C8.08111 18.2003 9.98384 18.5 12 18.5C14.0162 18.5 15.9189 18.2003 17.3808 17.6588C18.105 17.3906 18.8133 17.0293 19.3724 16.5397C19.4149 16.5025 19.4575 16.4636 19.5 16.423V18.75Z" fill="#323544"/>
<path d="M19.5 14.25V11.923C19.4575 11.9636 19.4149 12.0025 19.3724 12.0397C18.8133 12.5293 18.105 12.8906 17.3808 13.1588C15.9189 13.7003 14.0162 14 12 14C9.98384 14 8.08111 13.7003 6.61923 13.1588C5.895 12.8906 5.18674 12.5293 4.62758 12.0397C4.58508 12.0025 4.54246 11.9636 4.5 11.923V14.25C4.5 14.8904 4.853 15.4079 5.28636 15.7874C5.7212 16.1681 6.30718 16.4769 6.96654 16.7211C8.29107 17.2116 10.0708 17.5 12 17.5C13.9292 17.5 15.7089 17.2116 17.0335 16.7211C17.6928 16.4769 18.2788 16.1681 18.7136 15.7874C19.147 15.4079 19.5 14.8904 19.5 14.25Z" fill="#323544"/>
<path d="M4.5 9.75C4.5 10.3904 4.853 10.9079 5.28636 11.2874C5.7212 11.6681 6.30718 11.9769 6.96654 12.2211C8.29107 12.7116 10.0708 13 12 13C13.9292 13 15.7089 12.7116 17.0335 12.2211C17.6928 11.9769 18.2788 11.6681 18.7136 11.2874C19.147 10.9079 19.5 10.3904 19.5 9.75V7.42305C19.4575 7.4636 19.4149 7.50248 19.3724 7.5397C18.8133 8.02933 18.105 8.39059 17.3808 8.65883C15.9189 9.20027 14.0162 9.5 12 9.5C9.98384 9.5 8.08111 9.20027 6.61923 8.65883C5.895 8.39059 5.18674 8.02933 4.62758 7.5397C4.58508 7.50248 4.54246 7.4636 4.5 7.42305V9.75Z" fill="#323544"/>
<path d="M4.5 5.25C4.5 5.89042 4.853 6.40788 5.28636 6.78736C5.7212 7.16813 6.30718 7.47687 6.96654 7.72108C8.29107 8.21164 10.0708 8.5 12 8.5C13.9292 8.5 15.7089 8.21164 17.0335 7.72108C17.6928 7.47687 18.2788 7.16813 18.7136 6.78736C19.147 6.40788 19.5 5.89042 19.5 5.25C19.5 4.60958 19.147 4.09212 18.7136 3.71264C18.2788 3.33187 17.6928 3.02313 17.0335 2.77892C15.7089 2.28836 13.9292 2 12 2C10.0708 2 8.29107 2.28836 6.96654 2.77892C6.30718 3.02313 5.7212 3.33187 5.28636 3.71264C4.853 4.09212 4.5 4.60958 4.5 5.25Z" fill="#323544"/>
</svg>
