<svg width="24" height="25" viewBox="0 0 24 25" fill="none" xmlns="http://www.w3.org/2000/svg">
<path d="M6.7832 9.00661C7.06356 9.00408 7.32207 9.15816 7.45312 9.40602L9.61133 13.49L9.64355 13.5603C9.78608 13.9125 9.6418 14.3222 9.29883 14.5037C8.95558 14.6851 8.53492 14.5738 8.32422 14.2576L8.28516 14.1912L6.80469 11.3904L5.39746 14.1785C5.26995 14.4311 5.01145 14.5905 4.72852 14.5906H1.84961C1.4354 14.5906 1.09961 14.2548 1.09961 13.8406C1.09975 13.4265 1.43548 13.0906 1.84961 13.0906H4.2666L6.12012 9.41872L6.17383 9.32887C6.3113 9.13081 6.53787 9.00889 6.7832 9.00661ZM22 13.0906L22.0771 13.0945C22.455 13.1331 22.7499 13.4525 22.75 13.8406C22.75 14.2288 22.4551 14.5481 22.0771 14.5867L22 14.5906H19.1211C18.707 14.5904 18.3711 14.2547 18.3711 13.8406C18.3712 13.4266 18.7071 13.0907 19.1211 13.0906H22Z" fill="#323544"/>
<path d="M11.8994 14.0125C11.8047 14.4155 11.4011 14.6655 10.998 14.5711C10.5949 14.4763 10.3449 14.0728 10.4395 13.6697L12.6338 4.3279L12.6748 4.20387C12.794 3.92579 13.0727 3.74161 13.3838 3.74977C13.7392 3.75915 14.0396 4.01704 14.1025 4.36696L15.7832 13.7078L15.793 13.784C15.8222 14.163 15.5599 14.51 15.1777 14.5789C14.7956 14.6476 14.4291 14.4139 14.3242 14.0486L14.3066 13.9734L13.2656 8.19215L11.8994 14.0125Z" fill="#323544"/>
<g opacity="0.4">
<path d="M18.4258 13.5596C18.3906 13.6464 18.3711 13.7414 18.3711 13.8408C18.3712 14.2548 18.7071 14.5907 19.1211 14.5908H19.6143L16.9316 20.7969C16.8004 21.1004 16.4857 21.2829 16.1572 21.2451C15.8288 21.2071 15.5635 20.9582 15.5049 20.6328L14.3066 13.9736L14.3242 14.0488C14.4291 14.414 14.7957 14.6478 15.1777 14.5791C15.5598 14.5102 15.8221 14.1631 15.793 13.7842L15.7832 13.708L16.541 17.9199L18.4258 13.5596Z" fill="#323544"/>
<path d="M9.61133 13.4902L10.2129 14.6299L10.4395 13.6689C10.345 14.072 10.595 14.4766 10.998 14.5713C11.376 14.6598 11.7541 14.4453 11.8779 14.0859L11.8994 14.0127L11.2158 16.9219C11.1443 17.2263 10.8912 17.4543 10.5811 17.4941C10.3097 17.5289 10.0447 17.413 9.88477 17.1982L9.82227 17.1006L8.28516 14.1914L8.32422 14.2578C8.53494 14.5739 8.95566 14.6852 9.29883 14.5039C9.64174 14.3224 9.78595 13.9126 9.64355 13.5605L9.61133 13.4902Z" fill="#323544"/>
</g>
</svg>
