<svg width="24" height="24" viewBox="0 0 24 24" fill="none" xmlns="http://www.w3.org/2000/svg">
<path opacity="0.4" d="M7.75 5.25C7.75 4.00736 8.75736 3 10 3H14C15.2426 3 16.25 4.00736 16.25 5.25V6H19.2502C20.4928 6 21.5002 7.00736 21.5002 8.25V17.25C21.5002 18.4926 20.4928 19.5 19.2502 19.5H4.75C3.50736 19.5 2.5 18.4926 2.5 17.25V8.25C2.5 7.00736 3.50736 6 4.75 6H7.75V5.25ZM14.75 5.25C14.75 4.83579 14.4142 4.5 14 4.5H10C9.58579 4.5 9.25 4.83579 9.25 5.25V6H14.75V5.25ZM4.75 7.5C4.33579 7.5 4 7.83579 4 8.25V17.25C4 17.6642 4.33579 18 4.75 18H19.2502C19.6644 18 20.0002 17.6642 20.0002 17.25V8.25C20.0002 7.83579 19.6644 7.5 19.2502 7.5H4.75Z" fill="#323544"/>
<path d="M12 8.55957C11.5858 8.55957 11.25 8.89536 11.25 9.30957V12H8.55957C8.14536 12 7.80957 12.3358 7.80957 12.75C7.80957 13.1643 8.14536 13.5 8.55957 13.5H11.25V16.191C11.25 16.6052 11.5858 16.941 12 16.941C12.4143 16.941 12.75 16.6052 12.75 16.191V13.5H15.441C15.8552 13.5 16.191 13.1643 16.191 12.75C16.191 12.3358 15.8552 12 15.441 12H12.75V9.30957C12.75 8.89536 12.4143 8.55957 12 8.55957Z" fill="#323544"/>
</svg>
