<svg width="24" height="24" viewBox="0 0 24 24" fill="none" xmlns="http://www.w3.org/2000/svg">
<path d="M12 2C8.8934 2 6.375 4.5184 6.375 7.625V16.375C6.375 19.4816 8.8934 22 12 22C15.1066 22 17.625 19.4816 17.625 16.375V7.625C17.625 4.5184 15.1066 2 12 2ZM7.875 7.625C7.875 5.34683 9.72183 3.5 12 3.5C14.2782 3.5 16.125 5.34683 16.125 7.625V11.25V12.75V16.375C16.125 18.6532 14.2782 20.5 12 20.5C9.72183 20.5 7.875 18.6532 7.875 16.375V12.75V11.25V7.625Z" fill="#323544"/>
<path opacity="0.4" d="M16.125 11.25H7.875V12.75H16.125V11.25Z" fill="#323544"/>
</svg>
