<svg width="24" height="24" viewBox="0 0 24 24" fill="none" xmlns="http://www.w3.org/2000/svg">
<path d="M14.7148 4.17285C14.6762 3.79488 14.3569 3.5 13.9688 3.5H10.0312C9.61704 3.5 9.28125 3.83579 9.28125 4.25V4.71875C9.28125 5.13296 9.61704 5.46875 10.0312 5.46875H13.9688C14.3569 5.46875 14.6762 5.17387 14.7148 4.7959L14.7188 4.71875V4.25L14.7148 4.17285ZM16.2188 4.71875L16.207 4.94922C16.0916 6.08359 15.1336 6.96875 13.9688 6.96875H10.0312C8.78861 6.96875 7.78125 5.96139 7.78125 4.71875V4.25C7.78125 3.00736 8.78861 2 10.0312 2H13.9688C15.2114 2 16.2187 3.00736 16.2188 4.25V4.71875Z" fill="#323544"/>
<path opacity="0.4" d="M7.83887 3.75C7.80232 3.91093 7.78125 4.07801 7.78125 4.25V4.71875C7.78125 4.90203 7.8063 5.07943 7.84766 5.25H6.75C6.33579 5.25 6 5.58579 6 6V19.75C6 20.1642 6.33579 20.5 6.75 20.5H17.25C17.6382 20.5 17.9575 20.2051 17.9961 19.8271L18 19.75V6C18 5.58579 17.6642 5.25001 17.25 5.25H16.1533C16.1771 5.15192 16.1966 5.05185 16.207 4.94922L16.2188 4.71875V4.25C16.2188 4.07801 16.1977 3.91093 16.1611 3.75H17.25C18.4926 3.75001 19.5 4.75736 19.5 6V19.75L19.4883 19.9805C19.3729 21.1148 18.4148 22 17.25 22H6.75C5.50736 22 4.5 20.9926 4.5 19.75V6C4.5 4.75736 5.50736 3.75 6.75 3.75H7.83887Z" fill="#323544"/>
</svg>
