<svg width="24" height="24" viewBox="0 0 24 24" fill="none" xmlns="http://www.w3.org/2000/svg">
<path opacity="0.4" d="M11.9999 4.5C7.68801 4.5 3.97429 7.05632 2.27757 10.7351C1.90748 11.5375 1.90748 12.4627 2.27757 13.2652C3.97428 16.9439 7.68801 19.5002 11.9999 19.5002C16.3119 19.5002 20.0256 16.9439 21.7223 13.2652C22.0924 12.4627 22.0924 11.5375 21.7223 10.7351C20.0256 7.05633 16.3119 4.5 11.9999 4.5ZM3.63968 11.3633C5.10129 8.19429 8.29674 6 11.9999 6C15.7032 6 18.8986 8.19429 20.3602 11.3633C20.5464 11.7671 20.5464 12.2331 20.3602 12.6369C18.8986 15.8059 15.7032 18.0002 11.9999 18.0002C8.29674 18.0002 5.10129 15.8059 3.63968 12.6369C3.45344 12.2331 3.45344 11.7671 3.63968 11.3633Z" fill="#323544"/>
<path d="M12 7.625C9.58375 7.625 7.625 9.58375 7.625 12C7.625 14.4162 9.58375 16.375 12 16.375C14.4162 16.375 16.375 14.4162 16.375 12C16.375 9.58375 14.4162 7.625 12 7.625ZM9.125 12C9.125 10.4122 10.4122 9.125 12 9.125C13.5878 9.125 14.875 10.4122 14.875 12C14.875 13.5878 13.5878 14.875 12 14.875C10.4122 14.875 9.125 13.5878 9.125 12Z" fill="#323544"/>
</svg>
