<svg width="24" height="24" viewBox="0 0 24 24" fill="none" xmlns="http://www.w3.org/2000/svg">
<path d="M7.97039 18.8187L5.18284 16.0313L4.10893 17.1029C3.96828 17.2435 3.88926 17.4343 3.88926 17.6332C3.88926 17.8321 3.96828 18.0229 4.10893 18.1635L4.44289 18.4975L2.21772 20.7227C1.92482 21.0156 1.92482 21.4904 2.21772 21.7833C2.51061 22.0762 2.98548 22.0762 3.27838 21.7833L5.50355 19.5582L5.83809 19.8927C6.13099 20.1856 6.60586 20.1856 6.89875 19.8927C7.25405 19.5374 7.97039 18.8187 7.97039 18.8187Z" fill="#323544"/>
<path d="M17.631 2.21967C17.3381 1.92678 16.8632 1.92678 16.5703 2.21967C16.2774 2.51256 16.2774 2.98744 16.5703 3.28033L17.2314 3.94141L15.5254 5.64738L16.5861 6.70804L18.2921 5.00207L18.9992 5.70917L17.2932 7.41515L18.3538 8.47581L20.0598 6.76983L20.7203 7.43032C21.0132 7.72322 21.4881 7.72322 21.781 7.43032C22.0739 7.13743 22.0739 6.66256 21.781 6.36966L17.631 2.21967Z" fill="#323544"/>
<path opacity="0.4" d="M19.0614 9.18301L18.3542 8.47581L17.2935 7.41515L16.5864 6.70804L15.5258 5.64738L14.8188 4.94037C14.5259 4.64748 14.051 4.64748 13.7581 4.94037L5.48128 13.2172C4.71681 13.9817 4.61744 15.1594 5.18318 16.0313L7.97073 18.8187C8.8426 19.3843 10.0202 19.2849 10.7846 18.5205L19.0614 10.2437C19.3543 9.95078 19.3543 9.47591 19.0614 9.18301ZM14.9898 7.23271L14.9954 7.2384L16.7632 9.00617L16.7689 9.01183L17.4704 9.71334L9.72392 17.4598C9.43102 17.7527 8.95615 17.7527 8.66326 17.4598L6.54194 15.3385C6.24904 15.0456 6.24904 14.5708 6.54194 14.2779L14.2884 6.53136L14.9898 7.23271Z" fill="#323544"/>
</svg>
