<svg width="24" height="24" viewBox="0 0 24 24" fill="none" xmlns="http://www.w3.org/2000/svg">
<path d="M12.3642 3.12538C12.9855 2.04922 14.3616 1.6805 15.4377 2.30182L16.3037 2.80182C17.3799 3.42314 17.7486 4.79922 17.1273 5.87538L16.8322 6.38643L16.0586 7.72636L14.3163 10.7441C13.695 11.8202 12.3189 12.189 11.2428 11.5676L10.3768 11.0676C9.30061 10.4463 8.93189 9.07023 9.55321 7.99407L12.3642 3.12538ZM8.40125 15.2658H10.6387C11.0529 15.2658 11.3887 14.93 11.3887 14.5158C11.3887 14.1016 11.0529 13.7658 10.6387 13.7658H3.63867C3.22446 13.7658 2.88867 14.1016 2.88867 14.5158C2.88867 14.93 3.22446 15.2658 3.63867 15.2658H6.65381H8.40125ZM14.6877 3.60086C14.329 3.39375 13.8703 3.51666 13.6632 3.87538L10.8522 8.74407C10.6451 9.10279 10.768 9.56149 11.1268 9.76859L11.9928 10.2686C12.3515 10.4757 12.8102 10.3528 13.0173 9.99407L15.8283 5.12538C16.0354 4.76666 15.9125 4.30796 15.5537 4.10086L14.6877 3.60086Z" fill="#323544"/>
<path opacity="0.4" d="M16.0591 7.72616C17.0399 8.74172 17.6419 10.1229 17.6419 11.6448C17.6419 14.7586 15.1196 17.2833 12.0066 17.2869L12.0005 17.2869L11.9939 17.2869C10.4935 17.2849 9.26139 16.5051 8.40174 15.2656H6.6543C7.58494 17.0444 9.14882 18.4639 11.2505 18.7387V20.5019H8.00049C7.58627 20.5019 7.25049 20.8377 7.25049 21.2519C7.25049 21.6661 7.58627 22.0019 8.00049 22.0019H11.9644C11.9763 22.0024 11.9884 22.0027 12.0005 22.0027C12.0126 22.0027 12.0246 22.0024 12.0366 22.0019H16.0005C16.4147 22.0019 16.7505 21.6661 16.7505 21.2519C16.7505 20.8377 16.4147 20.5019 16.0005 20.5019H12.7505V18.748C16.3421 18.3728 19.1419 15.3358 19.1419 11.6448C19.1419 9.56392 18.2513 7.69072 16.8327 6.38623L16.0591 7.72616Z" fill="#323544"/>
</svg>
