<svg width="24" height="25" viewBox="0 0 24 25" fill="none" xmlns="http://www.w3.org/2000/svg">
<path d="M19.75 13.0996C19.75 12.5473 19.3023 12.0996 18.75 12.0996C18.1977 12.0996 17.75 12.5473 17.75 13.0996C17.75 13.6519 18.1977 14.0996 18.75 14.0996C19.3023 14.0996 19.75 13.6519 19.75 13.0996ZM4.5 7.25V4.75C4.5 3.50736 5.50736 2.5 6.75 2.5H7L7.07715 2.50391C7.45512 2.54253 7.75 2.86183 7.75 3.25C7.75 3.63817 7.45512 3.95747 7.07715 3.99609L7 4H6.75C6.33579 4 6 4.33579 6 4.75V7.25L6.00586 7.46875C6.11972 9.71429 7.97616 11.5 10.25 11.5L10.4688 11.4941C12.6418 11.384 14.384 9.64183 14.4941 7.46875L14.5 7.25V4.75C14.5 4.33579 14.1642 4 13.75 4H13.5C13.0858 4 12.75 3.66421 12.75 3.25C12.75 2.83579 13.0858 2.5 13.5 2.5H13.75C14.9926 2.5 16 3.50736 16 4.75V7.25L15.9922 7.5459C15.8431 10.486 13.486 12.8431 10.5459 12.9922L10.25 13C7.17361 13 4.66183 10.584 4.50781 7.5459L4.5 7.25ZM21.25 13.0996C21.25 14.4803 20.1307 15.5996 18.75 15.5996C17.3693 15.5996 16.25 14.4803 16.25 13.0996C16.25 11.7189 17.3693 10.5996 18.75 10.5996C20.1307 10.5996 21.25 11.7189 21.25 13.0996Z" fill="#323544"/>
<path opacity="0.4" d="M11 17L11.0049 17.1797C11.0984 19.0292 12.6273 20.5 14.5 20.5L14.6797 20.4951C16.4697 20.4046 17.9046 18.9697 17.9951 17.1797L18 17V15.4844C18.2368 15.5588 18.4886 15.5996 18.75 15.5996C19.0114 15.5996 19.2632 15.5588 19.5 15.4844V17L19.4932 17.2568C19.3638 19.8138 17.3138 21.8638 14.7568 21.9932L14.5 22C11.8247 22 9.64053 19.8989 9.50684 17.2568L9.5 17V12.9492C9.74557 12.9812 9.99571 13 10.25 13L10.5459 12.9922C10.699 12.9844 10.8503 12.9687 11 12.9492V17Z" fill="#323544"/>
</svg>
