<svg width="24" height="24" viewBox="0 0 24 24" fill="none" xmlns="http://www.w3.org/2000/svg">
<path d="M15.25 6.75C15.25 6.42574 15.203 6.11349 15.1152 5.81934L15.0137 5.53125C14.5309 4.33895 13.3627 3.5 12 3.5C10.7222 3.5 9.61499 4.23752 9.08398 5.3125L8.98633 5.53125C8.8344 5.90658 8.75 6.31763 8.75 6.75C8.75 8.54493 10.2051 10 12 10C13.7949 10 15.25 8.54493 15.25 6.75ZM12.4697 5.21973C12.7626 4.92683 13.2374 4.92683 13.5303 5.21973C13.8232 5.51262 13.8232 5.98738 13.5303 6.28027L12.5303 7.28027C12.2374 7.57317 11.7626 7.57317 11.4697 7.28027C11.1768 6.98738 11.1768 6.51262 11.4697 6.21973L12.4697 5.21973ZM16.75 6.75C16.75 9.37335 14.6234 11.5 12 11.5C9.37665 11.5 7.25 9.37335 7.25 6.75C7.25 6.1215 7.37264 5.51983 7.5957 4.96875L7.73926 4.64844C8.51415 3.08028 10.1301 2 12 2C13.9946 2 15.7002 3.22936 16.4043 4.96875L16.4834 5.17773C16.6563 5.67066 16.75 6.20009 16.75 6.75Z" fill="#323544"/>
<path opacity="0.4" d="M7.73926 4.64844L7.5957 4.96875C7.46315 5.29622 7.36752 5.64179 7.31055 6H5.5C5.08579 6 4.75 6.33579 4.75 6.75V18.5C4.75 18.9142 5.08579 19.25 5.5 19.25H18.5C18.9142 19.25 19.25 18.9142 19.25 18.5V6.75C19.25 6.33579 18.9142 6 18.5 6H16.6904C16.6455 5.71709 16.5761 5.44212 16.4834 5.17773L16.4043 4.96875C16.339 4.80747 16.2626 4.65194 16.1807 4.5H18.5C19.7426 4.5 20.75 5.50736 20.75 6.75V18.5C20.75 19.7426 19.7426 20.75 18.5 20.75H5.5C4.25736 20.75 3.25 19.7426 3.25 18.5V6.75C3.25 5.50736 4.25736 4.5 5.5 4.5H7.81934C7.79267 4.54944 7.7642 4.59797 7.73926 4.64844Z" fill="#323544"/>
</svg>
