<svg width="25" height="25" viewBox="0 0 25 25" fill="none" xmlns="http://www.w3.org/2000/svg">
<path d="M13.6182 16.3154C13.6181 15.2619 13.2712 14.291 12.6846 13.5088L12.5635 13.3545C11.7033 12.3018 10.3967 11.6318 8.93359 11.6318C8.45407 11.6319 7.99259 11.7038 7.55859 11.8369L7.375 11.8975C5.55382 12.5402 4.25019 14.2766 4.25 16.3154C4.25 18.9022 6.34687 20.9998 8.93359 21C11.5205 21 13.6182 18.9024 13.6182 16.3154ZM19.125 20C19.125 19.5858 18.7892 19.25 18.375 19.25C17.9608 19.25 17.625 19.5858 17.625 20C17.625 20.4142 17.9608 20.75 18.375 20.75C18.7892 20.75 19.125 20.4142 19.125 20ZM20.625 20C20.625 21.2426 19.6176 22.25 18.375 22.25C17.1324 22.25 16.125 21.2426 16.125 20C16.125 18.7574 17.1324 17.75 18.375 17.75C19.6176 17.75 20.625 18.7574 20.625 20ZM15.1182 16.3154C15.1182 19.7308 12.3489 22.5 8.93359 22.5C5.51845 22.4998 2.75 19.7306 2.75 16.3154C2.75019 13.6211 4.47315 11.3313 6.875 10.4834L7.11914 10.4023C7.69369 10.2262 8.30326 10.1319 8.93359 10.1318C10.8662 10.1318 12.5928 11.0196 13.7256 12.4062L13.8848 12.6094C14.659 13.642 15.1181 14.926 15.1182 16.3154Z" fill="#323544"/>
<g opacity="0.4">
<path d="M22 18.875C22.4142 18.875 22.75 19.2108 22.75 19.625C22.75 20.0392 22.4142 20.375 22 20.375H20.5908C20.6113 20.2529 20.625 20.1279 20.625 20C20.625 19.5897 20.5131 19.2062 20.3213 18.875H22Z" fill="#323544"/>
<path d="M5.625 2.5C6.86764 2.5 7.875 3.50736 7.875 4.75V6.875H16.875C18.1176 6.875 19.125 7.88236 19.125 9.125V17.8809C18.8902 17.7977 18.6383 17.75 18.375 17.75C18.1117 17.75 17.8598 17.7977 17.625 17.8809V13.6309H14.5059C14.3314 13.2694 14.1232 12.9274 13.8848 12.6094L13.7256 12.4062C13.6485 12.3119 13.5678 12.2205 13.4854 12.1309H17.625V9.125C17.625 8.71079 17.2892 8.375 16.875 8.375H7.875V10.2227C7.61741 10.2671 7.36502 10.327 7.11914 10.4023L6.875 10.4834C6.70473 10.5435 6.53807 10.6113 6.375 10.6855V4.75C6.375 4.33579 6.03921 4 5.625 4H4.125C3.71079 4 3.375 3.66421 3.375 3.25C3.375 2.83579 3.71079 2.5 4.125 2.5H5.625Z" fill="#323544"/>
</g>
</svg>
