<svg width="24" height="25" viewBox="0 0 24 25" fill="none" xmlns="http://www.w3.org/2000/svg">
<g opacity="0.4">
<path d="M15.5939 21.0225L12.1044 17.5329C12.0705 17.5336 12.0366 17.5339 12.0027 17.5339C11.9676 17.5339 11.9325 17.5336 11.8976 17.5329L8.40751 21.0229C10.6997 21.988 13.3018 21.9878 15.5939 21.0225Z" fill="#323544"/>
<path d="M3.47439 16.0881C2.51052 13.7967 2.51106 11.1957 3.47602 8.90459L6.96402 12.3926L6.96338 12.4322C6.96313 12.4529 6.96301 12.4736 6.96301 12.4943C6.96301 12.5291 6.96336 12.5638 6.96407 12.5985L3.47439 16.0881Z" fill="#323544"/>
<path d="M8.41139 3.97207C10.7013 3.00917 13.3002 3.00931 15.59 3.9725L12.1069 7.45567C12.0722 7.45496 12.0375 7.45461 12.0027 7.45461C11.9667 7.45461 11.9309 7.45499 11.8951 7.45574L8.41139 3.97207Z" fill="#323544"/>
<path d="M20.5248 8.90562C21.4892 11.1962 21.4897 13.7962 20.5264 16.0871L17.0412 12.6019L17.0418 12.5697L17.0423 12.5222L17.0423 12.4993L17.0423 12.4943C17.0423 12.4653 17.0421 12.4363 17.0416 12.4074L17.0413 12.3892L20.5248 8.90562Z" fill="#323544"/>
</g>
<path d="M3.46857 18.44C3.4687 17.9491 3.62849 17.4582 3.94794 17.0519C4.00312 16.9817 4.06287 16.9137 4.12758 16.849L7.14321 13.8334C7.61301 15.5413 8.95476 16.8833 10.6625 17.3535L7.64731 20.3687C6.76863 21.2474 5.34401 21.2474 4.46533 20.3687L4.12758 20.031C3.70197 19.6054 3.48252 19.0517 3.46922 18.494C3.46879 18.476 3.46857 18.458 3.46857 18.44Z" fill="#323544"/>
<path d="M16.5539 4.446C17.4369 3.75189 18.7194 3.81183 19.5333 4.62581L19.8711 4.96356C20.3108 5.40331 20.5305 5.97979 20.5301 6.55615C20.5295 7.13125 20.3099 7.70618 19.8711 8.14497L16.8617 11.1543C16.3915 9.44657 15.0495 8.10482 13.3416 7.63502L16.3514 4.62524C16.4159 4.56067 16.4839 4.50108 16.5539 4.446Z" fill="#323544"/>
<path d="M20.0531 17.0506C19.998 16.9806 19.9382 16.913 19.8737 16.8485L16.8613 13.8361C16.3906 15.5436 15.0482 16.885 13.34 17.3543L16.3539 20.3682C17.2326 21.2469 18.6572 21.2469 19.5359 20.3682L19.8737 20.0305C20.3118 19.5923 20.5315 19.0183 20.5327 18.444C20.5335 17.9514 20.3738 17.4582 20.0531 17.0506Z" fill="#323544"/>
<path d="M8.0671 13.409C8.41385 14.906 9.59027 16.0826 11.0871 16.4297C11.2262 16.462 11.368 16.4868 11.5118 16.5042C11.644 16.5203 11.778 16.5299 11.9134 16.5329C11.9431 16.5335 11.9728 16.5338 12.0026 16.5338C12.0232 16.5338 12.0438 16.5337 12.0643 16.5334L12.1114 16.5324C12.2392 16.529 12.3655 16.5196 12.4903 16.5046C12.634 16.4873 12.7757 16.4626 12.9147 16.4305C14.412 16.0847 15.5893 14.909 15.9373 13.4125C15.9543 13.3398 15.9692 13.2663 15.9821 13.1923C15.9918 13.1366 16.0004 13.0805 16.0078 13.0242L16.0124 12.9873C16.018 12.9419 16.0227 12.8963 16.0267 12.8505C16.037 12.733 16.0423 12.6141 16.0423 12.4942C16.0423 12.3905 16.0384 12.2876 16.0307 12.1857C16.0279 12.1497 16.0247 12.1137 16.021 12.0779C16.0036 11.9085 15.9757 11.742 15.9379 11.5789C15.5908 10.0821 14.4142 8.90566 12.9172 8.55891C12.6513 8.49731 12.3758 8.46183 12.094 8.45552C12.0636 8.45484 12.0331 8.4545 12.0026 8.4545C11.9818 8.4545 11.961 8.45466 11.9402 8.45497C11.923 8.45524 11.9058 8.45561 11.8886 8.45609C11.6134 8.46379 11.3444 8.49927 11.0846 8.55972C9.58809 8.90775 8.41232 10.0851 8.06651 11.5824C8.0258 11.7587 7.99666 11.939 7.97986 12.1226C7.96867 12.2451 7.96296 12.3691 7.96296 12.4942C7.96296 12.5977 7.96687 12.7004 7.97456 12.8021L7.97706 12.8336C7.98126 12.884 7.9864 12.9342 7.99245 12.9841C7.99653 13.0179 8.00103 13.0515 8.00594 13.085C8.01413 13.1408 8.02346 13.1963 8.03391 13.2514C8.04394 13.3043 8.05501 13.3568 8.0671 13.409Z" fill="#323544"/>
<path d="M3.94781 7.94642C4.00289 8.01645 4.06271 8.08396 4.12727 8.14852L7.13964 11.1609C7.61037 9.45337 8.95276 8.11199 10.6609 7.64273L7.647 4.62879C6.76832 3.75012 5.3437 3.75011 4.46502 4.62879L4.12727 4.96654C3.68908 5.40473 3.46941 5.97869 3.46827 6.55301C3.4674 7.04562 3.62713 7.5388 3.94781 7.94642Z" fill="#323544"/>
</svg>
