<svg width="24" height="25" viewBox="0 0 24 25" fill="none" xmlns="http://www.w3.org/2000/svg">
<path d="M12.0003 2.84412C12.2453 2.84412 12.4719 2.92239 12.6566 3.05529L18.9434 7.48505C19.2423 7.69572 19.4202 8.03857 19.4204 8.40431C19.4205 8.77005 19.2428 9.11303 18.944 9.32389L13.9506 12.8473L18.9233 16.3562C19.2221 16.567 19.3998 16.91 19.3997 17.2757C19.3996 17.6415 19.2216 17.9843 18.9227 18.195L12.804 22.5064C12.5998 22.7148 12.3152 22.8441 12.0003 22.8441C11.832 22.8441 11.6723 22.8071 11.5289 22.7409C11.3469 22.6613 11.1837 22.5326 11.0609 22.3583C10.8782 22.099 10.8205 21.7892 10.8753 21.5004L10.8753 15.0173V10.6774L10.8753 3.96912C10.8753 3.3478 11.379 2.84412 12.0003 2.84412ZM13.1253 6.13799V10.6759L16.3431 8.40534L13.1253 6.13799ZM16.3225 17.2747L13.1253 15.0188L13.1253 19.5275L16.3225 17.2747Z" fill="#323544"/>
<path opacity="0.4" d="M10.876 10.6774L6.35573 7.48781C5.84807 7.1296 5.14614 7.25075 4.78792 7.75841C4.42971 8.26607 4.55086 8.968 5.05852 9.32622L10.0486 12.8473L5.0792 16.3539C4.57154 16.7121 4.45039 17.414 4.8086 17.9217C5.16682 18.4293 5.86875 18.5505 6.37641 18.1923L10.876 15.0173V10.6774Z" fill="#323544"/>
</svg>
