<svg width="25" height="25" viewBox="0 0 25 25" fill="none" xmlns="http://www.w3.org/2000/svg">
<path d="M5.57496 6.25037C5.57496 5.62905 6.07864 5.12537 6.69996 5.12537C14.1395 5.12537 20.1704 11.1563 20.1704 18.5958C20.1704 19.2171 19.6667 19.7208 19.0454 19.7208C18.4241 19.7208 17.9204 19.2171 17.9204 18.5958C17.9204 12.3989 12.8968 7.37537 6.69996 7.37537C6.07864 7.37537 5.57496 6.87169 5.57496 6.25037ZM5.55629 13.6208C5.5892 13.0004 6.11885 12.5241 6.7393 12.557C9.97457 12.7286 12.5661 15.32 12.7376 18.5553C12.7705 19.1758 12.2943 19.7054 11.6738 19.7383C11.0534 19.7712 10.5237 19.2949 10.4908 18.6745C10.3801 16.5881 8.70651 14.9145 6.62013 14.8038C5.99969 14.7709 5.52339 14.2413 5.55629 13.6208Z" fill="#323544"/>
<g opacity="0.4">
<path d="M5.88705 18.036C5.88705 17.2766 6.50266 16.661 7.26205 16.661C8.02144 16.661 8.63715 17.2766 8.63715 18.036C8.63715 18.7954 8.02154 19.411 7.26215 19.411C6.50276 19.411 5.88705 18.7954 5.88705 18.036Z" fill="#323544"/>
<path d="M6.54688 8.84015C5.92555 8.84015 5.42188 9.34383 5.42188 9.96515C5.42188 10.5865 5.92555 11.0901 6.54688 11.0901C10.777 11.0901 14.2061 14.5193 14.2061 18.7494C14.2061 19.3707 14.7098 19.8744 15.3311 19.8744C15.9524 19.8744 16.4561 19.3707 16.4561 18.7494C16.4561 13.2767 12.0196 8.84015 6.54688 8.84015Z" fill="#323544"/>
</g>
</svg>
