<svg width="24" height="24" viewBox="0 0 24 24" fill="none" xmlns="http://www.w3.org/2000/svg">
<path d="M9.53516 8.38888C9.53516 7.02801 10.6384 5.9248 11.9992 5.9248C13.3601 5.9248 14.4633 7.02801 14.4633 8.38888C14.4633 9.14771 14.1217 9.82569 13.5797 10.2795C13.061 10.7138 12.4004 11.2694 11.8773 11.9191C11.3484 12.576 10.8742 13.4322 10.8742 14.478V15.3003C10.8742 15.9216 11.3779 16.4253 11.9992 16.4253C12.6206 16.4253 13.1242 15.9216 13.1242 15.3003V14.478C13.1242 14.143 13.2721 13.7744 13.6298 13.3302C13.9933 12.8787 14.4841 12.4567 15.0241 12.0046C16.0548 11.1417 16.7133 9.84165 16.7133 8.38888C16.7133 5.78537 14.6027 3.6748 11.9992 3.6748C9.39572 3.6748 7.28516 5.78537 7.28516 8.38888C7.28516 9.0102 7.78884 9.51388 8.41016 9.51388C9.03148 9.51388 9.53516 9.0102 9.53516 8.38888Z" fill="#323544"/>
<path d="M11.998 17.7758C11.2939 17.7758 10.723 18.3466 10.723 19.0508C10.723 19.7549 11.2939 20.3258 11.998 20.3258C12.7022 20.3258 13.274 19.7549 13.274 19.0508C13.274 18.3466 12.7022 17.7758 11.998 17.7758Z" fill="#323544"/>
</svg>
