<svg width="24" height="24" viewBox="0 0 24 24" fill="none" xmlns="http://www.w3.org/2000/svg">
<path d="M5.9545 5.95548C6.39384 5.51614 7.10616 5.51614 7.5455 5.95548L11.999 10.409L16.4524 5.95561C16.8918 5.51627 17.6041 5.51627 18.0434 5.95561C18.4827 6.39495 18.4827 7.10726 18.0434 7.5466L13.59 12L18.0434 16.4534C18.4827 16.8927 18.4827 17.605 18.0434 18.0444C17.6041 18.4837 16.8918 18.4837 16.4524 18.0444L11.999 13.591L7.5455 18.0445C7.10616 18.4839 6.39384 18.4839 5.9545 18.0445C5.51517 17.6052 5.51516 16.8929 5.9545 16.4535L10.408 12L5.9545 7.54647C5.51516 7.10713 5.51517 6.39482 5.9545 5.95548Z" fill="#323544"/>
</svg>
