<svg width="24" height="24" viewBox="0 0 24 24" fill="none" xmlns="http://www.w3.org/2000/svg">
<path d="M12.0039 4.74805C11.4516 4.74805 11.0039 4.30033 11.0039 3.74805C11.0039 3.19576 11.4516 2.74805 12.0039 2.74805C12.5562 2.74805 13.0039 3.19576 13.0039 3.74805C13.0039 4.30033 12.5562 4.74805 12.0039 4.74805Z" fill="#323544" stroke="#323544" stroke-width="1.5" stroke-linecap="round" stroke-linejoin="round"/>
<path d="M6.16797 7.04108C5.68364 7.04108 5.29102 6.64845 5.29102 6.16412C5.29102 5.6798 5.68364 5.28717 6.16797 5.28717C6.6523 5.28717 7.04492 5.6798 7.04492 6.16412C7.04492 6.64845 6.6523 7.04108 6.16797 7.04108Z" fill="#323544" stroke="#323544" stroke-width="1.5" stroke-linecap="round" stroke-linejoin="round"/>
<path d="M3.75195 12.748C3.33882 12.748 3.00391 12.4131 3.00391 12C3.00391 11.5869 3.33882 11.252 3.75195 11.252C4.16509 11.252 4.5 11.5869 4.5 12C4.5 12.4131 4.16509 12.748 3.75195 12.748Z" fill="#323544" stroke="#323544" stroke-width="1.5" stroke-linecap="round" stroke-linejoin="round"/>
<path d="M6.16797 18.414C5.84868 18.414 5.58984 18.1552 5.58984 17.8359C5.58984 17.5166 5.84868 17.2578 6.16797 17.2578C6.48726 17.2578 6.74609 17.5166 6.74609 17.8359C6.74609 18.1552 6.48726 18.414 6.16797 18.414Z" fill="#323544" stroke="#323544" stroke-width="1.5" stroke-linecap="round" stroke-linejoin="round"/>
<path d="M12.0039 20.6896C11.7623 20.6896 11.5664 20.4937 11.5664 20.2521C11.5664 20.0105 11.7623 19.8146 12.0039 19.8146C12.2455 19.8146 12.4414 20.0105 12.4414 20.2521C12.4414 20.4937 12.2455 20.6896 12.0039 20.6896Z" fill="#323544" stroke="#323544" stroke-width="1.5" stroke-linecap="round" stroke-linejoin="round"/>
<path d="M17.8394 18.1227C17.6811 18.1227 17.5527 17.9944 17.5527 17.836C17.5527 17.6777 17.6811 17.5493 17.8394 17.5493C17.9978 17.5493 18.1261 17.6777 18.1261 17.836C18.1261 17.9944 17.9978 18.1227 17.8394 18.1227Z" fill="#323544" stroke="#323544" stroke-width="1.5" stroke-linecap="round" stroke-linejoin="round"/>
<path d="M20.2563 12.1469C20.1751 12.1469 20.1094 12.0811 20.1094 12C20.1094 11.9189 20.1751 11.8531 20.2563 11.8531C20.3374 11.8531 20.4032 11.9189 20.4032 12C20.4032 12.0811 20.3374 12.1469 20.2563 12.1469Z" fill="#323544" stroke="#323544" stroke-width="1.5" stroke-linecap="round" stroke-linejoin="round"/>
<path d="M17.8394 6.16373L17.8398 6.16414L17.8394 6.16455L17.839 6.16414L17.8394 6.16373Z" fill="#323544" stroke="#323544" stroke-width="1.5" stroke-linecap="round" stroke-linejoin="round"/>
</svg>
