<svg width="24" height="24" viewBox="0 0 24 24" fill="none" xmlns="http://www.w3.org/2000/svg">
<path d="M4 21.25H6.83M20 21.25H16.8266M11.1198 21.25H6.83M11.1198 21.25C11.0025 21.097 10.9192 20.918 10.8822 20.72C10.6004 19.2123 10.621 17.2731 10.9771 15.1561M11.1198 21.25H16.8266M6.83 21.25C6.80324 21.2083 6.77877 21.1646 6.7568 21.119C5.83457 19.2051 5.25 16.3606 5.25 13.1846C5.25 7.42171 7.17465 2.75 9.54883 2.75C11.1723 2.75 12.5855 4.93432 13.317 8.15821M16.8266 21.25C17.5731 20.175 18.271 18.8158 18.8491 17.2655M13.317 8.15821C14.802 5.40764 16.6389 3.7806 18.1363 4.18183C20.1143 4.71184 20.8358 8.60325 19.9632 13.253M13.317 8.15821C12.8403 9.04104 12.3999 10.0396 12.0187 11.124M19.9632 13.253C19.8514 13.8484 19.7135 14.4563 19.5488 15.0711C19.344 15.8355 19.1086 16.5697 18.8491 17.2655M19.9632 13.253L19.8957 13.1914L17.1173 10.6527C16.7571 10.3236 16.2594 10.1903 15.7829 10.2952L12.0187 11.124M12.0187 11.124C11.8177 11.6956 11.6332 12.2911 11.4684 12.906C11.2636 13.6703 11.1003 14.4239 10.9771 15.1561M10.9771 15.1561L14.7003 14.3364C15.1767 14.2314 15.6745 14.3648 16.0346 14.6939L18.8131 17.2326L18.8491 17.2655" stroke="#323544" stroke-width="1.5" stroke-linecap="round" stroke-linejoin="round"/>
</svg>
