<svg width="24" height="25" viewBox="0 0 24 25" fill="none" xmlns="http://www.w3.org/2000/svg">
<path d="M17.8076 2.5C18.2218 2.5 18.5576 2.83579 18.5576 3.25V3.41898C19.3061 3.60815 19.8599 4.28601 19.8599 5.09323C19.8599 5.50744 19.5242 5.84323 19.1099 5.84323C18.6957 5.84323 18.3599 5.50744 18.3599 5.09323C18.3599 4.96796 18.2584 4.86641 18.1331 4.86641H17.7381C17.4714 4.86641 17.2553 5.08257 17.2553 5.34921C17.2553 5.55046 17.3801 5.7306 17.5686 5.80127L18.5734 6.17811C19.3473 6.46833 19.8599 7.20814 19.8599 8.03464C19.8599 8.89065 19.3175 9.61996 18.5576 9.89759V10.1337C18.5576 10.5479 18.2218 10.8837 17.8076 10.8837C17.3934 10.8837 17.0576 10.5479 17.0576 10.1337V9.96488C16.3092 9.7757 15.7553 9.09785 15.7553 8.29062C15.7553 7.87641 16.0911 7.54062 16.5053 7.54062C16.9195 7.54062 17.2553 7.87641 17.2553 8.29062C17.2553 8.41589 17.3568 8.51744 17.4821 8.51744H17.8771C18.1438 8.51744 18.3599 8.30129 18.3599 8.03464C18.3599 7.8334 18.2351 7.65326 18.0467 7.58259L17.0418 7.20575C16.268 6.91552 15.7553 6.17571 15.7553 5.34921C15.7553 4.49321 16.2977 3.7639 17.0576 3.48626V3.25C17.0576 2.83579 17.3934 2.5 17.8076 2.5Z" fill="#323544"/>
<path d="M5.5 3.75045C4.25736 3.75045 3.25 4.75781 3.25 6.00045V19.0005C3.25 20.2431 4.25736 21.2505 5.5 21.2505H5.83333C7.07597 21.2505 8.08333 20.2431 8.08333 19.0005V6.00045C8.08333 4.75781 7.07598 3.75045 5.83333 3.75045H5.5Z" fill="#323544"/>
<path d="M9.58301 12.3842C9.58301 11.1416 10.5904 10.1342 11.833 10.1342H12.1663C13.409 10.1342 14.4163 11.1416 14.4163 12.3842V19.0005C14.4163 20.2432 13.409 21.2505 12.1663 21.2505H11.833C10.5904 21.2505 9.58301 20.2432 9.58301 19.0005V12.3842Z" fill="#323544"/>
<path d="M15.916 15.4223C15.916 14.1797 16.9234 13.1723 18.166 13.1723H18.4993C19.742 13.1723 20.7493 14.1797 20.7493 15.4223V19.0005C20.7493 20.2432 19.742 21.2505 18.4993 21.2505H18.166C16.9234 21.2505 15.916 20.2432 15.916 19.0005V15.4223Z" fill="#323544"/>
</svg>
