<svg width="25" height="25" viewBox="0 0 25 25" fill="none" xmlns="http://www.w3.org/2000/svg">
<path d="M17.1371 9.025H16.1871V12.225H17.1371V9.025Z" fill="#323544"/>
<path d="M2.53711 6.92187C2.53711 5.67923 3.54447 4.67188 4.78711 4.67188H20.2871C21.5298 4.67188 22.5371 5.67923 22.5371 6.92188V14.3281C22.5371 15.5708 21.5298 16.5781 20.2871 16.5781H13.2871V18.8281H15.5371C15.9514 18.8281 16.2871 19.1639 16.2871 19.5781C16.2871 19.9923 15.9514 20.3281 15.5371 20.3281H9.53714C9.12293 20.3281 8.78714 19.9923 8.78714 19.5781C8.78714 19.1639 9.12293 18.8281 9.53714 18.8281H11.7871V16.5781H4.78711C3.54447 16.5781 2.53711 15.5708 2.53711 14.3281V6.92187ZM6.63711 8.9375V10.0625C6.63711 10.7321 7.17996 11.275 7.84961 11.275H8.88711V12.225H7.28711C6.92812 12.225 6.63711 12.516 6.63711 12.875C6.63711 13.234 6.92812 13.525 7.28711 13.525H8.97461C9.64425 13.525 10.1871 12.9821 10.1871 12.3125V11.1875C10.1871 10.5179 9.64425 9.975 8.97461 9.975H7.93711V9.025H9.53711C9.89609 9.025 10.1871 8.73398 10.1871 8.375C10.1871 8.01602 9.89609 7.725 9.53711 7.725H7.84961C7.17996 7.725 6.63711 8.26785 6.63711 8.9375ZM10.7621 8.375V12.875C10.7621 13.234 11.0531 13.525 11.4121 13.525H13.6621C14.0211 13.525 14.3121 13.234 14.3121 12.875C14.3121 12.516 14.0211 12.225 13.6621 12.225H12.0621V11.275H13.6621C14.0211 11.275 14.3121 10.984 14.3121 10.625C14.3121 10.266 14.0211 9.975 13.6621 9.975H12.0621V9.025H13.6621C14.0211 9.025 14.3121 8.73398 14.3121 8.375C14.3121 8.01602 14.0211 7.725 13.6621 7.725H11.4121C11.0531 7.725 10.7621 8.01602 10.7621 8.375ZM14.8871 8.9375V12.3125C14.8871 12.9821 15.43 13.525 16.0996 13.525H17.2246C17.8943 13.525 18.4371 12.9821 18.4371 12.3125V8.9375C18.4371 8.26785 17.8943 7.725 17.2246 7.725H16.0996C15.43 7.725 14.8871 8.26785 14.8871 8.9375Z" fill="#323544"/>
</svg>
