<svg width="24" height="25" viewBox="0 0 24 25" fill="none" xmlns="http://www.w3.org/2000/svg">
<path d="M12 1.75C12.4142 1.75 12.75 2.08579 12.75 2.5V3.78169C16.9842 4.14113 20.3589 7.51581 20.7183 11.75H22C22.4142 11.75 22.75 12.0858 22.75 12.5C22.75 12.9142 22.4142 13.25 22 13.25H20.7183C20.3589 17.4842 16.9842 20.8589 12.75 21.2183V22.5C12.75 22.9142 12.4142 23.25 12 23.25C11.5858 23.25 11.25 22.9142 11.25 22.5V21.2183C7.01581 20.8589 3.64113 17.4842 3.28169 13.25H2C1.58579 13.25 1.25 12.9142 1.25 12.5C1.25 12.0858 1.58579 11.75 2 11.75H3.28169C3.64113 7.51581 7.01581 4.14113 11.25 3.78169V2.5C11.25 2.08579 11.5858 1.75 12 1.75ZM12.0001 8.74414C11.1074 8.74414 10.3838 9.46777 10.3838 10.3604C10.3838 11.2531 11.1074 11.9767 12.0001 11.9767C12.8927 11.9767 13.6163 11.2531 13.6163 10.3604C13.6163 9.46777 12.8927 8.74414 12.0001 8.74414ZM8.54785 14.8253V15.7555C8.54785 16.1697 8.88364 16.5055 9.29785 16.5055H14.7029C15.1171 16.5055 15.4529 16.1697 15.4529 15.7555V14.8253C15.4529 13.5891 14.4508 12.5869 13.2145 12.5869H10.7862C9.55 12.5869 8.54785 13.5891 8.54785 14.8253Z" fill="#323544"/>
</svg>
