<svg width="24" height="25" viewBox="0 0 24 25" fill="none" xmlns="http://www.w3.org/2000/svg">
<path d="M4 3.75C4.41421 3.75 4.75 4.08579 4.75 4.5V8.77091L9.19963 13.2205L12.622 9.7982C12.9148 9.50537 13.3896 9.50529 13.6825 9.79803L16.9787 13.0922L18.2167 11.8542C18.4312 11.6397 18.7538 11.5755 19.0341 11.6916C19.3143 11.8076 19.497 12.0811 19.4971 12.3844L19.4973 15.92C19.4973 16.1189 19.4183 16.3097 19.2777 16.4503C19.137 16.591 18.9462 16.67 18.7473 16.67H15.2115C14.9082 16.67 14.6347 16.4873 14.5186 16.207C14.4025 15.9268 14.4667 15.6042 14.6812 15.3897L15.918 14.1529L13.1525 11.389L9.72996 14.8115C9.58931 14.9522 9.39855 15.0312 9.19963 15.0312C9.00072 15.0312 8.80996 14.9522 8.6693 14.8115L4.75 10.8922V19C4.75 19.4142 5.08579 19.75 5.5 19.75H20.0005C20.4147 19.75 20.7505 20.0858 20.7505 20.5C20.7505 20.9142 20.4147 21.25 20.0005 21.25H5.5C4.25736 21.25 3.25 20.2426 3.25 19V4.5C3.25 4.08579 3.58579 3.75 4 3.75Z" fill="#323544"/>
</svg>
