<svg width="24" height="25" viewBox="0 0 24 25" fill="none" xmlns="http://www.w3.org/2000/svg">
<path d="M4 3.75C4.41421 3.75 4.75 4.08579 4.75 4.5V14.1085L8.6693 10.1891C8.80996 10.0485 9.00072 9.96948 9.19963 9.96948C9.39855 9.96948 9.58931 10.0485 9.72996 10.1891L13.1523 13.6115L15.917 10.8468L14.6812 9.611C14.4667 9.39648 14.4025 9.07386 14.5187 8.79359C14.6348 8.51332 14.9083 8.33061 15.2117 8.33067L18.7433 8.33135C19.1571 8.33143 19.4927 8.66668 19.4931 9.08051L19.4971 12.6154C19.4974 12.9189 19.3148 13.1926 19.0345 13.3089C18.7541 13.4252 18.4313 13.3611 18.2167 13.1465L16.9777 11.9075L13.6826 15.2025C13.542 15.3431 13.3512 15.4222 13.1523 15.4222C12.9534 15.4222 12.7626 15.3431 12.622 15.2025L9.19963 11.7801L4.75 16.2298V19C4.75 19.4142 5.08579 19.75 5.5 19.75H20.0005C20.4147 19.75 20.7505 20.0858 20.7505 20.5C20.7505 20.9142 20.4147 21.25 20.0005 21.25H5.5C4.25736 21.25 3.25 20.2426 3.25 19V4.5C3.25 4.08579 3.58579 3.75 4 3.75Z" fill="#323544"/>
</svg>
