<svg width="24" height="24" viewBox="0 0 24 24" fill="none" xmlns="http://www.w3.org/2000/svg">
<path opacity="0.4" d="M20.001 6.22493C20.3892 6.21493 20.7166 6.50207 20.7646 6.87923L20.7705 6.9554L20.7763 7.38704C20.7907 11.7449 19.3297 17.4951 13.6494 21.1546L13.0674 21.514C12.4514 21.8771 11.6965 21.9024 11.0605 21.5902L10.9355 21.5238C4.43179 17.7708 3.09402 11.4928 3.22752 6.95247L3.23338 6.8763C3.28288 6.4995 3.61097 6.21367 3.999 6.22493C4.41304 6.2371 4.73871 6.58336 4.72654 6.99739L4.7197 7.39778C4.68456 11.5839 6.0247 16.9577 11.6845 20.224L11.7588 20.2601C11.9356 20.3328 12.1385 20.3196 12.3056 20.221L12.8291 19.8988C17.9428 16.6063 19.2903 11.4375 19.2763 7.39485L19.2705 6.99446L19.2724 6.91731C19.3012 6.53839 19.6129 6.23498 20.001 6.22493Z" fill="#323544"/>
<path d="M11.348 2.22068C11.8435 2.07078 12.3782 2.09503 12.8607 2.2949L19.4085 5.00779L19.5511 5.07322C20.2057 5.39949 20.6812 6.03473 20.7591 6.79099L20.7699 6.95506L20.7679 7.0322C20.739 7.41102 20.4274 7.71359 20.0394 7.72361C19.6512 7.73361 19.3239 7.44732 19.2757 7.07029L19.2699 6.99314L19.2611 6.90134C19.228 6.7182 19.111 6.54773 18.93 6.44138L18.8343 6.39353L12.2865 3.68064C12.1487 3.62358 11.998 3.61012 11.8538 3.63865L11.7122 3.68064L5.16439 6.39353C4.89602 6.50472 4.73433 6.74596 4.72689 6.99607L4.72006 7.07322C4.67034 7.44989 4.34243 7.73502 3.95443 7.72361C3.5406 7.71121 3.21472 7.36602 3.22689 6.95213L3.23861 6.78904C3.3243 5.98091 3.86223 5.30938 4.59017 5.00779L11.138 2.2949L11.348 2.22068Z" fill="#323544"/>
</svg>
