<svg width="24" height="24" viewBox="0 0 24 24" fill="none" xmlns="http://www.w3.org/2000/svg">
<path fill-rule="evenodd" clip-rule="evenodd" d="M3.75 1.625C3.12868 1.625 2.625 2.12868 2.625 2.75C2.625 3.37132 3.12868 3.875 3.75 3.875H4.125H6.375H12.625C14.558 3.875 16.125 5.442 16.125 7.375C16.125 9.308 14.558 10.875 12.625 10.875H6.375V13.125H14.125C16.058 13.125 17.625 14.692 17.625 16.625C17.625 18.558 16.058 20.125 14.125 20.125H6.375H4.125H3.75C3.12868 20.125 2.625 20.6287 2.625 21.25C2.625 21.8713 3.12868 22.375 3.75 22.375H14.125C17.3006 22.375 19.875 19.8006 19.875 16.625C19.875 14.3616 18.5672 12.4036 16.6661 11.4655C17.7212 10.4231 18.375 8.9754 18.375 7.375C18.375 4.19936 15.8006 1.625 12.625 1.625H3.75Z" fill="#323544"/>
<path opacity="0.4" d="M6.375 10.875V3.875H4.125V20.125H6.375V13.125V10.875Z" fill="#323544"/>
</svg>
