<svg width="24" height="24" viewBox="0 0 24 24" fill="none" xmlns="http://www.w3.org/2000/svg">
<g opacity="0.4">
<path d="M4 2.875C3.37868 2.875 2.875 3.37868 2.875 4C2.875 4.62132 3.37868 5.125 4 5.125L20 5.125C20.6213 5.125 21.125 4.62132 21.125 4C21.125 3.37868 20.6213 2.875 20 2.875H4Z" fill="#323544"/>
<path d="M12.7141 8.20825C12.0928 8.20825 11.5891 8.71193 11.5891 9.33325C11.5891 9.95457 12.0928 10.4583 12.7141 10.4583H20C20.6213 10.4583 21.125 9.95457 21.125 9.33325C21.125 8.71193 20.6213 8.20825 20 8.20825H12.7141Z" fill="#323544"/>
<path d="M12.7141 15.7916L20 15.7916C20.6213 15.7916 21.125 15.2879 21.125 14.6666C21.125 14.0453 20.6213 13.5416 20 13.5416L12.7141 13.5416C12.0928 13.5416 11.5891 14.0453 11.5891 14.6666C11.5891 15.2879 12.0928 15.7916 12.7141 15.7916Z" fill="#323544"/>
<path d="M4 18.875C3.37868 18.875 2.875 19.3787 2.875 20C2.875 20.6213 3.37868 21.125 4 21.125H20C20.6213 21.125 21.125 20.6213 21.125 20C21.125 19.3787 20.6213 18.875 20 18.875H4Z" fill="#323544"/>
</g>
<path d="M5.7806 7.7321C4.52364 6.92846 2.875 7.83118 2.875 9.3231V14.6776C2.875 16.1695 4.52363 17.0722 5.7806 16.2686L9.96798 13.5913C11.1295 12.8487 11.1295 11.152 9.96798 10.4093L5.7806 7.7321Z" fill="#323544"/>
</svg>
