<svg width="24" height="24" viewBox="0 0 24 24" fill="none" xmlns="http://www.w3.org/2000/svg">
<path d="M6.20692 3.20423C6.6462 2.76525 7.35811 2.76526 7.79738 3.20425L10.7993 6.20425C11.1212 6.52594 11.2176 7.00988 11.0435 7.43035C10.8694 7.85082 10.4591 8.125 10.004 8.125H8.12699L8.12699 15.875H10.0041C10.4592 15.875 10.8694 16.1492 11.0435 16.5697C11.2176 16.9901 11.1212 17.4741 10.7993 17.7958L7.79718 20.7958C7.35789 21.2348 6.64599 21.2347 6.20672 20.7957L3.20481 17.7957C2.88291 17.4741 2.78653 16.9901 2.96062 16.5696C3.13471 16.1492 3.54497 15.875 4.00005 15.875H5.87699L5.87699 8.125H4.00003C3.54494 8.125 3.13468 7.85082 2.96059 7.43034C2.78651 7.00986 2.88291 6.52591 3.20482 6.20423L6.20692 3.20423Z" fill="#323544"/>
<g opacity="0.4">
<path d="M19.9999 5.125L13.0039 5.125C12.3826 5.125 11.8789 4.62132 11.8789 4C11.8789 3.37868 12.3826 2.875 13.0039 2.875H19.9999C20.6212 2.875 21.1249 3.37868 21.1249 4C21.1249 4.62132 20.6212 5.125 19.9999 5.125Z" fill="#323544"/>
<path d="M19.9999 10.4583L13.0039 10.4583C12.3826 10.4583 11.8789 9.95461 11.8789 9.33329C11.8789 8.71197 12.3826 8.20829 13.0039 8.20829L19.9999 8.20829C20.6212 8.20829 21.1249 8.71197 21.1249 9.33329C21.1249 9.95461 20.6212 10.4583 19.9999 10.4583Z" fill="#323544"/>
<path d="M19.9999 15.7917L13.0039 15.7917C12.3826 15.7917 11.8789 15.288 11.8789 14.6667C11.8789 14.0454 12.3826 13.5417 13.0039 13.5417L19.9999 13.5417C20.6212 13.5417 21.1249 14.0454 21.1249 14.6667C21.1249 15.288 20.6212 15.7917 19.9999 15.7917Z" fill="#323544"/>
<path d="M11.8789 20C11.8789 19.3787 12.3826 18.875 13.0039 18.875H19.9999C20.6212 18.875 21.1249 19.3787 21.1249 20C21.1249 20.6213 20.6212 21.125 19.9999 21.125H13.0039C12.3826 21.125 11.8789 20.6213 11.8789 20Z" fill="#323544"/>
</g>
</svg>
