<svg width="24" height="25" viewBox="0 0 24 25" fill="none" xmlns="http://www.w3.org/2000/svg">
<path d="M3.12461 10.9707C3.82877 10.9707 4.39961 11.5415 4.39961 12.2457V12.2553C4.39961 12.9595 3.82877 13.5303 3.12461 13.5303C2.42045 13.5303 1.84961 12.9595 1.84961 12.2553V12.2457C1.84961 11.5415 2.42045 10.9707 3.12461 10.9707ZM10.225 10.9707C10.9291 10.9707 11.5 11.5415 11.5 12.2457V12.2553C11.5 12.9595 10.9291 13.5303 10.225 13.5303C9.52082 13.5303 8.94998 12.9595 8.94998 12.2553V12.2457C8.94998 11.5415 9.52082 10.9707 10.225 10.9707ZM17.3235 10.9707C18.0276 10.9707 18.5985 11.5415 18.5985 12.2457V12.2553C18.5985 12.9595 18.0276 13.5303 17.3235 13.5303C16.6193 13.5303 16.0485 12.9595 16.0485 12.2553V12.2457C16.0485 11.5415 16.6193 10.9707 17.3235 10.9707Z" fill="#323544"/>
<g opacity="0.4">
<path d="M6.67344 10.9707C7.3776 10.9707 7.94844 11.5415 7.94844 12.2457V12.2553C7.94844 12.9595 7.3776 13.5303 6.67344 13.5303C5.96927 13.5303 5.39844 12.9595 5.39844 12.2553V12.2457C5.39844 11.5415 5.96927 10.9707 6.67344 10.9707Z" fill="#323544"/>
<path d="M13.7738 10.9707C14.478 10.9707 15.0488 11.5415 15.0488 12.2457V12.2553C15.0488 12.9595 14.478 13.5303 13.7738 13.5303C13.0696 13.5303 12.4988 12.9595 12.4988 12.2553V12.2457C12.4988 11.5415 13.0696 10.9707 13.7738 10.9707Z" fill="#323544"/>
<path d="M20.8742 10.9707C21.5784 10.9707 22.1492 11.5415 22.1492 12.2457V12.2553C22.1492 12.9595 21.5784 13.5303 20.8742 13.5303C20.17 13.5303 19.5992 12.9595 19.5992 12.2553V12.2457C19.5992 11.5415 20.17 10.9707 20.8742 10.9707Z" fill="#323544"/>
</g>
</svg>
