<svg width="24" height="25" viewBox="0 0 24 25" fill="none" xmlns="http://www.w3.org/2000/svg">
<g opacity="0.4">
<path d="M15.7812 2.21875H8.28125C7.03861 2.21875 6.03125 3.22611 6.03125 4.46875L6.03125 7.74902C6.03125 8.99166 7.03861 9.99902 8.28125 9.99902L15.7812 9.99902C17.0239 9.99902 18.0312 8.99166 18.0312 7.74902V4.46875C18.0312 3.22611 17.0239 2.21875 15.7812 2.21875Z" fill="#323544"/>
<path d="M8.28125 14.499C7.03861 14.499 6.03125 15.5064 6.03125 16.749L6.03125 20.0293C6.03125 21.2719 7.03861 22.2793 8.28125 22.2793H15.7812C17.0239 22.2793 18.0312 21.2719 18.0312 20.0293V16.749C18.0312 15.5064 17.0239 14.499 15.7812 14.499H8.28125Z" fill="#323544"/>
</g>
<path d="M5.25 11.5293C4.83579 11.5293 4.5 11.8651 4.5 12.2793C4.5 12.6935 4.83579 13.0293 5.25 13.0293H7.75C8.16421 13.0293 8.5 12.6935 8.5 12.2793C8.5 11.8651 8.16421 11.5293 7.75 11.5293H5.25Z" fill="#323544"/>
<path d="M10.75 11.5293C10.3358 11.5293 10 11.8651 10 12.2793C10 12.6935 10.3358 13.0293 10.75 13.0293H13.25C13.6642 13.0293 14 12.6935 14 12.2793C14 11.8651 13.6642 11.5293 13.25 11.5293H10.75Z" fill="#323544"/>
<path d="M16.2812 11.5293C15.867 11.5293 15.5312 11.8651 15.5312 12.2793C15.5312 12.6935 15.867 13.0293 16.2812 13.0293H18.7812C19.1955 13.0293 19.5312 12.6935 19.5312 12.2793C19.5312 11.8651 19.1955 11.5293 18.7812 11.5293H16.2812Z" fill="#323544"/>
</svg>
