<svg width="24" height="25" viewBox="0 0 24 25" fill="none" xmlns="http://www.w3.org/2000/svg">
<path d="M10.4585 20.25L10.4583 5.375L13.5415 5.375H15.7915L20.0002 5.375C20.6215 5.375 21.1252 4.87132 21.1252 4.25C21.1252 3.62868 20.6215 3.125 20.0002 3.125L7.11111 3.125C4.77157 3.125 2.875 5.02157 2.875 7.36111C2.875 9.70065 4.77157 11.5972 7.11111 11.5972H8.20841L8.2085 20.25C8.2085 20.8713 8.71219 21.375 9.33351 21.375C9.95483 21.375 10.4585 20.8713 10.4585 20.25ZM7.11111 5.375H8.20834L8.20839 9.34722H7.11111C6.01421 9.34722 5.125 8.45801 5.125 7.36111C5.125 6.26421 6.01421 5.375 7.11111 5.375Z" fill="#323544"/>
<path opacity="0.4" d="M15.791 20.25V5.375H13.541V20.25C13.541 20.8713 14.0447 21.375 14.666 21.375C15.2873 21.375 15.791 20.8713 15.791 20.25Z" fill="#323544"/>
</svg>
