<svg width="24" height="24" viewBox="0 0 24 24" fill="none" xmlns="http://www.w3.org/2000/svg">
<path d="M7.00197 3.375C7.62329 3.375 8.12697 3.87868 8.12697 4.5L8.12697 15.875L10.004 15.875C10.4591 15.875 10.8694 16.1492 11.0435 16.5697C11.2176 16.9901 11.1212 17.4741 10.7993 17.7958L7.79716 20.7958C7.35787 21.2348 6.64597 21.2347 6.2067 20.7957L3.20479 17.7957C2.88289 17.4741 2.78651 16.9901 2.9606 16.5696C3.13469 16.1492 3.54495 15.875 4.00003 15.875L5.87697 15.875L5.87697 4.5C5.87697 3.87868 6.38065 3.375 7.00197 3.375Z" fill="#323544"/>
<g opacity="0.4">
<path d="M19.9999 5.125L13.0039 5.125C12.3826 5.125 11.8789 4.62132 11.8789 4C11.8789 3.37868 12.3826 2.875 13.0039 2.875H19.9999C20.6212 2.875 21.1249 3.37868 21.1249 4C21.1249 4.62132 20.6212 5.125 19.9999 5.125Z" fill="#323544"/>
<path d="M18.4999 10.4583L13.0039 10.4583C12.3826 10.4583 11.8789 9.95461 11.8789 9.33329C11.8789 8.71197 12.3826 8.20829 13.0039 8.20829L18.4999 8.20829C19.1212 8.20829 19.6249 8.71197 19.6249 9.33329C19.6249 9.95461 19.1212 10.4583 18.4999 10.4583Z" fill="#323544"/>
<path d="M16.9999 15.7917L13.0039 15.7917C12.3826 15.7917 11.8789 15.288 11.8789 14.6667C11.8789 14.0454 12.3826 13.5417 13.0039 13.5417L16.9999 13.5417C17.6212 13.5417 18.1249 14.0454 18.1249 14.6667C18.1249 15.288 17.6212 15.7917 16.9999 15.7917Z" fill="#323544"/>
<path d="M11.8789 20C11.8789 19.3787 12.3826 18.875 13.0039 18.875H15.4999C16.1212 18.875 16.6249 19.3787 16.6249 20C16.6249 20.6213 16.1212 21.125 15.4999 21.125H13.0039C12.3826 21.125 11.8789 20.6213 11.8789 20Z" fill="#323544"/>
</g>
</svg>
