<svg width="24" height="24" viewBox="0 0 24 24" fill="none" xmlns="http://www.w3.org/2000/svg">
<path d="M6.20692 3.20423C6.6462 2.76525 7.35811 2.76526 7.79738 3.20425L10.7993 6.20425C11.1212 6.52594 11.2176 7.00988 11.0435 7.43035C10.8694 7.85082 10.4591 8.125 10.004 8.125H8.12699L8.12699 15.875H10.0041C10.4592 15.875 10.8694 16.1492 11.0435 16.5697C11.2176 16.9901 11.1212 17.4741 10.7993 17.7958L7.79718 20.7958C7.35789 21.2348 6.64599 21.2347 6.20672 20.7957L3.20481 17.7957C2.88291 17.4741 2.78653 16.9901 2.96062 16.5696C3.13471 16.1492 3.54497 15.875 4.00005 15.875H5.87699L5.87699 8.125H4.00003C3.54494 8.125 3.13468 7.85082 2.96059 7.43034C2.78651 7.00986 2.88291 6.52591 3.20482 6.20423L6.20692 3.20423Z" fill="#323544"/>
<g opacity="0.4">
<path d="M14.1211 15.2457C13.4998 15.2457 12.9961 14.7421 12.9961 14.1207C12.9961 13.4994 13.4998 12.9957 14.1211 12.9957H20.0002C20.4552 12.9957 20.8654 13.2698 21.0396 13.6902C21.2137 14.1106 21.1174 14.5945 20.7957 14.9162L16.8371 18.8748H20.0002C20.6215 18.8748 21.1252 19.3785 21.1252 19.9998C21.1252 20.6211 20.6215 21.1248 20.0002 21.1248H14.1211C13.6661 21.1248 13.2559 20.8507 13.0818 20.4303C12.9076 20.0099 13.0039 19.5261 13.3256 19.2043L17.2842 15.2457H14.1211Z" fill="#323544"/>
<path fill-rule="evenodd" clip-rule="evenodd" d="M18.1038 3.57857C17.932 3.15337 17.5193 2.875 17.0607 2.875C16.6021 2.875 16.1894 3.15336 16.0176 3.57857L13.2364 10.4623C13.0037 11.0384 13.282 11.694 13.8581 11.9268C14.4342 12.1596 15.0898 11.8812 15.3226 11.3052L15.6951 10.3832L18.4264 10.3832L18.7989 11.3053C19.0316 11.8814 19.6873 12.1597 20.2634 11.9269C20.8395 11.6942 21.1178 11.0385 20.8851 10.4624L18.1038 3.57857ZM16.6041 8.13318L17.5173 8.13321L17.0607 7.00315L16.6041 8.13318Z" fill="#323544"/>
</g>
</svg>
