<svg width="24" height="24" viewBox="0 0 24 24" fill="none" xmlns="http://www.w3.org/2000/svg">
<path d="M20.4549 4.4545C20.8942 4.01516 21.6065 4.01517 22.0459 4.4545C22.4852 4.89384 22.4852 5.60616 22.0459 6.0455L18.034 10.0573C17.5947 10.4967 16.8824 10.4967 16.443 10.0574L14.5014 8.11574C14.062 7.6764 14.062 6.96409 14.5014 6.52475C14.9407 6.08541 15.653 6.0854 16.0924 6.52474L17.2385 7.67087L20.4549 4.4545Z" fill="#323544"/>
<path opacity="0.4" fill-rule="evenodd" clip-rule="evenodd" d="M9.77843 4.7931C9.59787 4.38683 9.19499 4.125 8.7504 4.125C8.30582 4.125 7.90293 4.38681 7.72236 4.79308L1.72225 18.2928C1.4699 18.8606 1.72559 19.5254 2.29336 19.7777C2.86113 20.0301 3.52596 19.7744 3.77831 19.2066L5.40708 15.542L12.0935 15.5422L13.7222 19.2069C13.9746 19.7747 14.6394 20.0304 15.2072 19.778C15.775 19.5257 16.0307 18.8609 15.7783 18.2931L9.77843 4.7931ZM6.40711 13.2921L11.0935 13.2922L8.75036 8.01997L6.40711 13.2921Z" fill="#323544"/>
</svg>
