<svg width="24" height="24" viewBox="0 0 24 24" fill="none" xmlns="http://www.w3.org/2000/svg">
<path opacity="0.4" d="M4.125 7.05037C4.125 4.05402 6.55402 1.625 9.55037 1.625H18C18.6213 1.625 19.125 2.12868 19.125 2.75C19.125 3.37132 18.6213 3.875 18 3.875H9.55037C7.79666 3.875 6.375 5.29666 6.375 7.05037C6.375 7.56563 6.49845 8.05541 6.71982 8.49001C7.00183 9.04364 6.78163 9.72107 6.22799 10.0031C5.67436 10.2851 4.99694 10.0649 4.71493 9.51124C4.33604 8.76741 4.125 7.92846 4.125 7.05037ZM17.7721 13.997C18.3257 13.715 19.0031 13.9352 19.2851 14.4888C19.664 15.2326 19.875 16.0716 19.875 16.9496C19.875 19.946 17.446 22.375 14.4496 22.375H6C5.37868 22.375 4.875 21.8713 4.875 21.25C4.875 20.6287 5.37868 20.125 6 20.125H14.4496C16.2033 20.125 17.625 18.7033 17.625 16.9496C17.625 16.4344 17.5016 15.9446 17.2802 15.51C16.9982 14.9564 17.2184 14.279 17.7721 13.997Z" fill="#323544"/>
<path d="M4.125 12C4.125 11.3787 4.62868 10.875 5.25 10.875H18.75C19.3713 10.875 19.875 11.3787 19.875 12C19.875 12.6213 19.3713 13.125 18.75 13.125H5.25C4.62868 13.125 4.125 12.6213 4.125 12Z" fill="#323544"/>
</svg>
