<svg width="24" height="24" viewBox="0 0 24 24" fill="none" xmlns="http://www.w3.org/2000/svg">
<path d="M20 5.125L4 5.125C3.37868 5.125 2.875 4.62132 2.875 4C2.875 3.37868 3.37868 2.875 4 2.875L20 2.875C20.6213 2.875 21.125 3.37868 21.125 4C21.125 4.62132 20.6213 5.125 20 5.125ZM20 15.7916L4 15.7916C3.37868 15.7916 2.875 15.288 2.875 14.6666C2.875 14.0453 3.37868 13.5416 4 13.5416L20 13.5416C20.6213 13.5416 21.125 14.0453 21.125 14.6666C21.125 15.288 20.6213 15.7916 20 15.7916Z" fill="#323544"/>
<g opacity="0.4">
<path d="M20 10.459L4 10.459C3.37868 10.459 2.875 9.95531 2.875 9.33399C2.875 8.71267 3.37868 8.20898 4 8.20898H20C20.6213 8.20898 21.125 8.71266 21.125 9.33398C21.125 9.9553 20.6213 10.459 20 10.459Z" fill="#323544"/>
<path d="M12 21.1256L4 21.1256C3.37868 21.1256 2.875 20.622 2.875 20.0006C2.875 19.3793 3.37868 18.8756 4 18.8756L12 18.8756C12.6213 18.8756 13.125 19.3793 13.125 20.0006C13.125 20.6219 12.6213 21.1256 12 21.1256Z" fill="#323544"/>
</g>
</svg>
