<svg width="24" height="24" viewBox="0 0 24 24" fill="none" xmlns="http://www.w3.org/2000/svg">
<path opacity="0.4" d="M10.5008 2.875C10.9454 2.875 11.3483 3.13683 11.5289 3.5431L17.3065 16.5431C17.5589 17.1109 17.3032 17.7757 16.7354 18.028C16.1676 18.2804 15.5028 18.0247 15.2505 17.4569L13.6931 13.9527L7.30842 13.9525L5.75097 17.4566C5.49862 18.0244 4.83378 18.2801 4.26602 18.0278C3.69825 17.7754 3.44256 17.1106 3.69491 16.5428L9.47279 3.54308C9.65336 3.13681 10.0562 2.875 10.5008 2.875ZM8.30844 11.7026L12.6931 11.7027L10.5008 6.76997L8.30844 11.7026Z" fill="#323544"/>
<path d="M19.9996 2.87524C20.6209 2.87522 21.1246 3.37888 21.1246 4.0002L21.1251 16.9997C21.1251 17.621 20.6214 18.1247 20.0001 18.1248C19.3788 18.1248 18.8751 17.6211 18.8751 16.9998L18.8746 4.00028C18.8746 3.37896 19.3783 2.87526 19.9996 2.87524Z" fill="#323544"/>
<path d="M2.875 19.9998C2.87502 19.3785 3.37872 18.8748 4.00004 18.8748L16.9997 18.8753C17.621 18.8753 18.1247 19.379 18.1246 20.0003C18.1246 20.6216 17.6209 21.1253 16.9996 21.1253L3.99996 21.1248C3.37864 21.1248 2.87498 20.6211 2.875 19.9998Z" fill="#323544"/>
</svg>
