<svg width="24" height="24" viewBox="0 0 24 24" fill="none" xmlns="http://www.w3.org/2000/svg">
<path opacity="0.4" d="M8.23403 4.125C8.67861 4.125 9.08149 4.38683 9.26205 4.7931L13.8139 15.0349C14.0662 15.6027 13.8105 16.2675 13.2427 16.5198C12.675 16.7722 12.0101 16.5165 11.7578 15.9487L10.8227 13.8446L5.64522 13.8445L4.70995 15.9487C4.4576 16.5165 3.79277 16.7722 3.225 16.5198C2.65723 16.2675 2.40154 15.6027 2.65389 15.0349L7.20598 4.79308C7.38655 4.38681 7.78944 4.125 8.23403 4.125ZM6.64525 11.5945L9.82266 11.5946L8.23398 8.01997L6.64525 11.5945Z" fill="#323544"/>
<path d="M16.4264 13.9272C16.8657 13.4878 17.5781 13.4878 18.0174 13.9272L19.2361 15.1458L20.4547 13.9272C20.894 13.4879 21.6063 13.4879 22.0457 13.9272C22.485 14.3666 22.485 15.0789 22.0457 15.5182L20.8271 16.7368L22.0457 17.9554C22.485 18.3948 22.485 19.1071 22.0457 19.5464C21.6063 19.9858 20.894 19.9858 20.4547 19.5464L19.2361 18.3278L18.0174 19.5465C17.5781 19.9858 16.8657 19.9858 16.4264 19.5465C15.9871 19.1071 15.9871 18.3948 16.4264 17.9555L17.6451 16.7368L16.4264 15.5182C15.9871 15.0788 15.9871 14.3665 16.4264 13.9272Z" fill="#323544"/>
<path d="M1.625 18.7508C1.62502 18.1295 2.12872 17.6258 2.75004 17.6258L13.7185 17.6262C14.3398 17.6262 14.8435 18.1299 14.8435 18.7513C14.8435 19.3726 14.3398 19.8762 13.7184 19.8762L2.74996 19.8758C2.12864 19.8758 1.62498 19.3721 1.625 18.7508Z" fill="#323544"/>
</svg>
