<svg width="24" height="24" viewBox="0 0 24 24" fill="none" xmlns="http://www.w3.org/2000/svg">
<path d="M2 11.2489C2 6.14126 6.14154 2.00098 11.25 2.00098C16.3585 2.00098 20.5 6.14126 20.5 11.2489C20.5 13.5337 19.6713 15.6248 18.2981 17.2385L21.7791 20.7194C22.072 21.0123 22.072 21.4872 21.7791 21.7801C21.4862 22.073 21.0113 22.073 20.7184 21.7801L17.2371 18.2987C15.6235 19.6697 13.5334 20.4969 11.25 20.4969C6.14154 20.4969 2 16.3566 2 11.2489ZM11.25 4.99894C10.8358 4.99894 10.5 5.33473 10.5 5.74894C10.5 6.16316 10.8358 6.49894 11.25 6.49894C13.8742 6.49894 16.0013 8.62576 16.0013 11.2489C16.0013 11.6632 16.3371 11.9989 16.7513 11.9989C17.1655 11.9989 17.5013 11.6632 17.5013 11.2489C17.5013 7.79699 14.7023 4.99894 11.25 4.99894Z" fill="#323544"/>
</svg>
