<svg width="24" height="25" viewBox="0 0 24 25" fill="none" xmlns="http://www.w3.org/2000/svg">
<path d="M11.25 2.5C6.14154 2.5 2 6.64029 2 11.748C2 16.8556 6.14154 20.9959 11.25 20.9959C13.5334 20.9959 15.6237 20.1687 17.2372 18.7976L20.7184 22.2791C21.0113 22.572 21.4862 22.572 21.7791 22.2792C22.072 21.9863 22.072 21.5114 21.7791 21.2185L18.2983 17.7373C19.6714 16.1237 20.5 14.0326 20.5 11.748C20.5 6.64029 16.3585 2.5 11.25 2.5ZM14.527 14.2493L7.96792 14.2493C7.5537 14.2493 7.21792 13.9135 7.21792 13.4993C7.21792 13.0851 7.5537 12.7493 7.96792 12.7493L14.527 12.7493C14.9412 12.7493 15.277 13.0851 15.277 13.4993C15.277 13.9135 14.9412 14.2493 14.527 14.2493ZM12.0968 10.7493H7.96719C7.55297 10.7493 7.21719 10.4135 7.21719 9.99927C7.21719 9.58506 7.55297 9.24927 7.96719 9.24927L12.0968 9.24927C12.511 9.24927 12.8468 9.58506 12.8468 9.99927C12.8468 10.4135 12.511 10.7493 12.0968 10.7493Z" fill="#323544"/>
</svg>
