<svg width="24" height="24" viewBox="0 0 24 24" fill="none" xmlns="http://www.w3.org/2000/svg">
<path d="M16.8408 3.25C17.5551 3.25014 18.219 3.58847 18.6396 4.14844L18.7431 4.2998C18.7756 4.35139 18.8064 4.40439 18.8349 4.45898L20.9462 8.50586L21.0107 8.64062C21.1307 8.91342 21.1941 9.20247 21.2011 9.49121L21.1992 9.63574C21.1819 10.0675 21.0408 10.4929 20.7812 10.8555L20.663 11.0068L12.5703 20.4873C12.4278 20.6541 12.2192 20.7499 11.9999 20.75C11.7807 20.75 11.5721 20.654 11.4296 20.4873L3.33685 11.0068C2.74111 10.309 2.62845 9.31943 3.05267 8.50586L5.164 4.45898L5.2558 4.2998C5.2885 4.24793 5.32278 4.1971 5.35931 4.14844L5.44134 4.04688C5.86349 3.54791 6.48902 3.25 7.15912 3.25H16.8408ZM7.15912 4.75C6.95068 4.75 6.75475 4.83653 6.61517 4.9834L6.55951 5.0498L6.49408 5.15332L4.38275 9.19922C4.24126 9.47043 4.27886 9.80054 4.47748 10.0332L11.999 18.8438L19.5214 10.0332L19.5956 9.92969C19.6601 9.82144 19.6961 9.69994 19.7011 9.57617L19.6982 9.47949C19.6925 9.41542 19.6787 9.35177 19.6562 9.29004L19.6161 9.19922L17.5048 5.15332L17.4404 5.0498C17.3003 4.8632 17.0786 4.75014 16.8408 4.75H7.15912Z" fill="#323544"/>
<path opacity="0.4" d="M13.2354 4.75L15.0157 8.17871L17.0547 4.78223C17.2077 4.82797 17.3437 4.92092 17.4405 5.0498L17.5049 5.15332L18.0059 6.11328L16.2949 8.96289H19.4932L19.6162 9.19922L19.6563 9.29004C19.6787 9.35177 19.6926 9.41542 19.6983 9.47949L19.7012 9.57617C19.6962 9.69994 19.6602 9.82145 19.5957 9.92969L19.5215 10.0332L19.1543 10.4629H15.5323L13.6826 16.8701L11.9991 18.8438L10.3174 16.873L8.4678 10.4629H4.84475L4.47757 10.0332C4.27895 9.80054 4.24135 9.47043 4.38284 9.19922L4.50589 8.96289H7.70608L5.99319 6.11133L6.49417 5.15332L6.5596 5.0498L6.61526 4.9834C6.70541 4.88854 6.81901 4.81871 6.94436 4.78125L8.9844 8.17871L10.7657 4.75H13.2354ZM12 17.2939L13.9717 10.4629H10.0283L12 17.2939ZM10.2686 8.96289H13.7324L12 5.62695L10.2686 8.96289Z" fill="#323544"/>
</svg>
