<svg width="24" height="24" viewBox="0 0 24 24" fill="none" xmlns="http://www.w3.org/2000/svg">
<path opacity="0.4" d="M19.5224 10.0332C19.7913 9.71857 20.2641 9.68148 20.579 9.95018C20.8743 10.2022 20.926 10.6337 20.7099 10.9463L20.663 11.0078L12.5702 20.4873C12.4278 20.6542 12.2193 20.7499 11.9999 20.75C11.7805 20.75 11.5721 20.6542 11.4296 20.4873L3.33683 11.0078L3.28996 10.9463C3.07384 10.6338 3.12478 10.2023 3.41984 9.95018C3.71513 9.6981 4.14996 9.71497 4.42472 9.97752L4.47746 10.0332L11.9999 18.8447L19.5224 10.0332Z" fill="#323544"/>
<path d="M16.8409 3.25C17.6789 3.25017 18.4473 3.71607 18.8351 4.45898L20.9464 8.50586L21.0196 8.66016C21.3548 9.44174 21.2216 10.3525 20.6632 11.0068L20.6105 11.0625C20.3358 11.3255 19.9011 11.3428 19.6056 11.0908C19.2906 10.8219 19.2529 10.3482 19.5216 10.0332L19.589 9.94141C19.7073 9.75061 19.7339 9.51616 19.6612 9.30371L19.6163 9.19922L17.505 5.15332C17.3758 4.90572 17.1202 4.75017 16.8409 4.75H7.15929C6.91477 4.75 6.68742 4.86873 6.54796 5.06445L6.49425 5.15332L4.38292 9.19922C4.25918 9.43641 4.27218 9.71872 4.41027 9.94141L4.47765 10.0332L4.52452 10.0938C4.74093 10.4063 4.68904 10.8387 4.39367 11.0908C4.09833 11.3426 3.66439 11.3251 3.38976 11.0625L3.33702 11.0068L3.23058 10.873C2.72888 10.1863 2.65512 9.26861 3.05284 8.50586L5.16417 4.45898L5.24132 4.32324C5.64835 3.65963 6.37338 3.25 7.15929 3.25H16.8409Z" fill="#323544"/>
</svg>
