<svg width="24" height="25" viewBox="0 0 24 25" fill="none" xmlns="http://www.w3.org/2000/svg">
<path d="M18.5 3.64062C18.799 3.64062 19.0844 3.69895 19.3454 3.80484L11.9299 11.2203L9.63761 8.92801C8.75893 8.04934 7.33431 8.04935 6.45563 8.92803C5.57696 9.80671 5.57696 11.2313 6.45565 12.11L10.3389 15.9932C11.2176 16.8719 12.6422 16.8719 13.5209 15.9932L20.75 8.76412V18.8906C20.75 20.1333 19.7426 21.1406 18.5 21.1406H5.5C4.25736 21.1406 3.25 20.1333 3.25 18.8906V5.89062C3.25 4.64798 4.25736 3.64062 5.5 3.64062H18.5Z" fill="#323544"/>
<path d="M20.4839 6.90924C20.7768 6.61634 20.7768 6.14147 20.4839 5.84858C20.191 5.55568 19.7162 5.55568 19.4233 5.84858L11.9299 13.342L8.57696 9.98905C8.28406 9.69616 7.80919 9.69616 7.5163 9.98906C7.22341 10.282 7.22341 10.7568 7.5163 11.0497L11.3996 14.9329C11.6925 15.2258 12.1673 15.2258 12.4602 14.9329L20.4839 6.90924Z" fill="#323544"/>
</svg>
