<svg width="24" height="25" viewBox="0 0 24 25" fill="none" xmlns="http://www.w3.org/2000/svg">
<path d="M7.65822 18.0746C7.15194 17.1977 7.45271 16.0766 8.32933 15.5705C8.55153 15.4422 8.55116 15.1218 8.3296 14.9939C7.45298 14.4877 7.15263 13.3668 7.65874 12.4902L8.76498 10.5741C9.27105 9.69759 10.3919 9.39741 11.2683 9.90341C11.49 10.0314 11.767 9.87134 11.767 9.61561C11.767 8.6036 12.5874 7.7832 13.5994 7.7832H15.8121C16.8244 7.7832 17.6448 8.60401 17.6448 9.61605C17.6448 9.87229 17.9222 10.0321 18.1435 9.90423C19.02 9.39821 20.1407 9.6985 20.6468 10.575L21.7533 12.4916C22.2593 13.3679 21.959 14.4885 21.0827 14.9944C20.8616 15.1221 20.8612 15.4419 21.083 15.5699C21.9593 16.0759 22.26 17.1966 21.7539 18.0732L20.6476 19.9893C20.1415 20.8659 19.0206 21.1663 18.144 20.6602C17.9223 20.5322 17.6448 20.6922 17.6448 20.9485C17.6448 21.9607 16.8243 22.7814 15.812 22.7814H13.5996C12.5875 22.7814 11.767 21.961 11.767 20.9489C11.767 20.6931 11.4899 20.5328 11.2679 20.661C10.3914 21.167 9.27035 20.8669 8.76417 19.9902L7.65822 18.0746ZM11.6406 15.2818C11.6406 16.9746 13.0129 18.3468 14.7056 18.3468C16.3984 18.3468 17.7706 16.9746 17.7706 15.2818C17.7706 13.589 16.3984 12.2168 14.7056 12.2168C13.0129 12.2168 11.6406 13.589 11.6406 15.2818Z" fill="#323544"/>
<path d="M7.99183 2.78125C8.81111 2.78125 9.47615 3.44166 9.48364 4.25917C10.1954 3.8569 11.0998 4.10264 11.5095 4.81216L12.2675 6.12514C12.3366 6.24481 12.3872 6.37008 12.4203 6.49764C11.6205 6.80029 10.9676 7.40186 10.5979 8.16602C9.92129 8.11647 9.24412 8.27548 8.66147 8.61763C8.70841 8.47228 8.73377 8.31722 8.73377 8.15625C8.73377 7.32782 8.0622 6.65625 7.23377 6.65625C6.40534 6.65625 5.73377 7.32782 5.73377 8.15625C5.73377 8.98468 6.40534 9.65625 7.23377 9.65625C7.35989 9.65625 7.48238 9.64068 7.59942 9.61137C7.55268 9.67999 7.50814 9.75086 7.46596 9.82393L6.35972 11.74C6.05356 12.2703 5.90969 12.8497 5.9127 13.4208C5.37194 13.2003 4.98962 12.6716 4.98394 12.0529C4.27222 12.4551 3.36782 12.2094 2.95819 11.4999L2.20013 10.1869C1.7905 9.47738 2.0299 8.57125 2.73413 8.15601C2.0299 7.74076 1.79048 6.83462 2.20012 6.1251L2.95817 4.81212C3.3678 4.10262 4.27222 3.85688 4.98393 4.25912C4.99145 3.44163 5.65647 2.78125 6.47573 2.78125H7.99183Z" fill="#323544"/>
</svg>
