<svg width="24" height="25" viewBox="0 0 24 25" fill="none" xmlns="http://www.w3.org/2000/svg">
<path opacity="0.4" d="M12 2.5C6.47715 2.5 2 6.97715 2 12.5C2 18.0228 6.47715 22.5 12 22.5C17.5228 22.5 22 18.0228 22 12.5C22 6.97715 17.5228 2.5 12 2.5ZM8.4186 8.48256C9.10896 8.48256 9.6686 9.0422 9.6686 9.73256C9.6686 10.4229 9.10896 10.9827 8.4186 10.9827C7.72825 10.9827 7.1686 10.4229 7.1686 9.73256C7.1686 9.0422 7.72825 8.48256 8.4186 8.48256ZM7.34302 15.4884C7.34302 15.0742 7.67881 14.7384 8.09302 14.7384H15.907C16.3212 14.7384 16.657 15.0742 16.657 15.4884C16.657 15.9026 16.3212 16.2384 15.907 16.2384H8.09302C7.67881 16.2384 7.34302 15.9026 7.34302 15.4884ZM16.8314 9.73256C16.8314 10.4229 16.2718 10.9827 15.5814 10.9827C14.891 10.9827 14.3314 10.423 14.3314 9.73266C14.3314 9.0423 14.891 8.48256 15.5814 8.48256C16.2718 8.48256 16.8314 9.0422 16.8314 9.73256Z" fill="#323544"/>
<path d="M9.66846 9.73242C9.66846 9.04207 9.10881 8.48242 8.41846 8.48242C7.7281 8.48242 7.16846 9.04207 7.16846 9.73242C7.16846 10.4228 7.7281 10.9825 8.41846 10.9825C9.10881 10.9825 9.66846 10.4228 9.66846 9.73242Z" fill="#323544"/>
<path d="M15.5812 8.48242C16.2716 8.48242 16.8312 9.04207 16.8312 9.73242C16.8312 10.4228 16.2716 10.9825 15.5812 10.9825C14.8909 10.9825 14.3312 10.4229 14.3312 9.73252C14.3312 9.04217 14.8909 8.48242 15.5812 8.48242Z" fill="#323544"/>
<path d="M8.09288 14.7383C7.67866 14.7383 7.34288 15.0741 7.34288 15.4883C7.34288 15.9025 7.67866 16.2383 8.09288 16.2383H15.9068C16.321 16.2383 16.6568 15.9025 16.6568 15.4883C16.6568 15.0741 16.321 14.7383 15.9068 14.7383H8.09288Z" fill="#323544"/>
</svg>
