<svg width="24" height="25" viewBox="0 0 24 25" fill="none" xmlns="http://www.w3.org/2000/svg">
<path opacity="0.4" d="M2 12.5C2 6.97715 6.47715 2.5 12 2.5C17.5228 2.5 22 6.97715 22 12.5C22 18.0228 17.5228 22.5 12 22.5C6.47715 22.5 2 18.0228 2 12.5ZM7.34302 15.4884C7.34302 15.9026 7.67881 16.2384 8.09302 16.2384H15.907C16.3212 16.2384 16.657 15.9026 16.657 15.4884C16.657 15.0742 16.3212 14.7384 15.907 14.7384H8.09302C7.67881 14.7384 7.34302 15.0742 7.34302 15.4884ZM7.44186 8.91744C7.02765 8.91744 6.69186 9.25323 6.69186 9.66744C6.69186 10.0817 7.02765 10.4174 7.44186 10.4174H9.72744C10.1417 10.4174 10.4774 10.0817 10.4774 9.66744C10.4774 9.25323 10.1417 8.91744 9.72744 8.91744H7.44186ZM13.5356 9.66744C13.5356 10.0817 13.8714 10.4174 14.2856 10.4174H16.5581C16.9724 10.4174 17.3081 10.0817 17.3081 9.66744C17.3081 9.25323 16.9724 8.91744 16.5581 8.91744H14.2856C13.8714 8.91744 13.5356 9.25323 13.5356 9.66744Z" fill="#323544"/>
<path d="M6.69189 9.66797C6.69189 9.25376 7.02768 8.91797 7.44189 8.91797H9.72748C10.1417 8.91797 10.4775 9.25376 10.4775 9.66797C10.4775 10.0822 10.1417 10.418 9.72748 10.418H7.44189C7.02768 10.418 6.69189 10.0822 6.69189 9.66797Z" fill="#323544"/>
<path d="M14.2856 8.91797C13.8714 8.91797 13.5356 9.25376 13.5356 9.66797C13.5356 10.0822 13.8714 10.418 14.2856 10.418H16.5582C16.9724 10.418 17.3082 10.0822 17.3082 9.66797C17.3082 9.25376 16.9724 8.91797 16.5582 8.91797H14.2856Z" fill="#323544"/>
<path d="M8.09306 14.7389C7.67884 14.7389 7.34306 15.0747 7.34306 15.4889C7.34306 15.9032 7.67884 16.2389 8.09306 16.2389H15.907C16.3212 16.2389 16.657 15.9032 16.657 15.4889C16.657 15.0747 16.3212 14.7389 15.907 14.7389H8.09306Z" fill="#323544"/>
</svg>
