<svg width="24" height="25" viewBox="0 0 24 25" fill="none" xmlns="http://www.w3.org/2000/svg">
<g opacity="0.4">
<path d="M14.16 17.1L13.91 16.67H13.92C14.39 16.48 14.82 16.22 15.21 15.9L15.47 16.35C15.67 16.7 15.55 17.16 15.19 17.37C15.01 17.48 14.81 17.5 14.62 17.45C14.42 17.4 14.26 17.27 14.16 17.1Z" fill="#323544"/>
<path d="M2 12.5C2 18.01 6.49 22.5 12 22.5C17.51 22.5 22 18.01 22 12.5C22 6.99 17.51 2.5 12 2.5C6.49 2.5 2 6.99 2 12.5ZM14.23 18.9C13.65 18.74 13.16 18.37 12.86 17.85L12.39 17.03C10.72 17.15 9.1 16.45 8.06 15.14C7.8 14.82 7.85 14.35 8.18 14.09C8.51 13.83 8.98 13.89 9.23 14.21C10.04 15.23 11.39 15.72 12.65 15.49C13.48 15.33 14.24 14.88 14.77 14.21C14.92 14.02 15.16 13.92 15.41 13.93C15.66 13.95 15.88 14.09 16 14.3L16.75 15.6C17.37 16.67 17 18.05 15.93 18.67C15.58 18.87 15.2 18.97 14.81 18.97V18.98C14.62 18.98 14.42 18.95 14.23 18.9ZM16.61 10.96C16.58 10.87 16.3 10.16 15.58 10.16C14.83 10.16 14.55 10.94 14.55 10.95C14.42 11.34 14 11.56 13.6 11.42C13.21 11.29 13 10.86 13.13 10.47C13.36 9.8 14.13 8.65 15.58 8.65C17.03 8.65 17.8 9.79 18.03 10.47C18.16 10.86 17.95 11.29 17.56 11.42C17.48 11.45 17.4 11.46 17.32 11.46V11.47C17.01 11.47 16.72 11.27 16.61 10.96ZM9.45 10.96C9.42 10.87 9.14 10.16 8.42 10.16C7.67 10.16 7.39 10.94 7.39 10.95C7.26 11.34 6.84 11.56 6.44 11.42C6.05 11.29 5.84 10.86 5.97 10.47C6.2 9.8 6.97 8.65 8.42 8.65C9.87 8.65 10.64 9.79 10.87 10.47C11 10.86 10.79 11.29 10.4 11.42C10.32 11.45 10.24 11.46 10.16 11.46V11.47C9.85 11.47 9.56 11.27 9.45 10.96Z" fill="#323544"/>
</g>
<path d="M17.3201 11.4704C17.0101 11.4704 16.7201 11.2704 16.6101 10.9604C16.5801 10.8704 16.3001 10.1604 15.5801 10.1604C14.8301 10.1604 14.5501 10.9404 14.5501 10.9504C14.4201 11.3404 14.0001 11.5604 13.6001 11.4204C13.2101 11.2904 13.0001 10.8604 13.1301 10.4704C13.3601 9.80039 14.1301 8.65039 15.5801 8.65039C17.0301 8.65039 17.8001 9.79039 18.0301 10.4704C18.1601 10.8604 17.9501 11.2904 17.5601 11.4204C17.4801 11.4504 17.4001 11.4604 17.3201 11.4604V11.4704Z" fill="#323544"/>
<path d="M10.1601 11.4704C9.85012 11.4704 9.56012 11.2704 9.45012 10.9604C9.42012 10.8704 9.14012 10.1604 8.42012 10.1604C7.67012 10.1604 7.39012 10.9404 7.39012 10.9504C7.26012 11.3404 6.84012 11.5604 6.44012 11.4204C6.05012 11.2904 5.84012 10.8604 5.97012 10.4704C6.20012 9.80039 6.97012 8.65039 8.42012 8.65039C9.87012 8.65039 10.6401 9.79039 10.8701 10.4704C11.0001 10.8604 10.7901 11.2904 10.4001 11.4204C10.3201 11.4504 10.2401 11.4604 10.1601 11.4604V11.4704Z" fill="#323544"/>
<path d="M14.8101 18.9804C14.6201 18.9804 14.4201 18.9504 14.2301 18.9004C13.6501 18.7404 13.1601 18.3704 12.8601 17.8504L12.3901 17.0304C10.7201 17.1504 9.10012 16.4504 8.06012 15.1404C7.80012 14.8204 7.85012 14.3504 8.18012 14.0904C8.51012 13.8304 8.98012 13.8904 9.23012 14.2104C10.0401 15.2304 11.3901 15.7204 12.6501 15.4904C13.4801 15.3304 14.2401 14.8804 14.7701 14.2104C14.9201 14.0204 15.1601 13.9204 15.4101 13.9304C15.6601 13.9504 15.8801 14.0904 16.0001 14.3004L16.7501 15.6004C17.3701 16.6704 17.0001 18.0504 15.9301 18.6704C15.5801 18.8704 15.2001 18.9704 14.8101 18.9704V18.9804ZM14.1601 17.1004C14.2601 17.2704 14.4201 17.4004 14.6201 17.4504C14.8101 17.5004 15.0101 17.4804 15.1901 17.3704C15.5501 17.1604 15.6701 16.7004 15.4701 16.3504L15.2101 15.9004C14.8201 16.2204 14.3901 16.4804 13.9201 16.6704H13.9101L14.1601 17.1004Z" fill="#323544"/>
</svg>
