<svg width="24" height="25" viewBox="0 0 24 25" fill="none" xmlns="http://www.w3.org/2000/svg">
<path opacity="0.4" d="M2 12.5C2 6.97715 6.47715 2.5 12 2.5C17.5228 2.5 22 6.97715 22 12.5C22 18.0228 17.5228 22.5 12 22.5C6.47715 22.5 2 18.0228 2 12.5ZM16.8226 14.6804C16.4817 14.445 16.0146 14.5304 15.7792 14.8713C14.7857 16.3099 13.1276 17.25 11.25 17.25C10.8358 17.25 10.5 17.5858 10.5 18C10.5 18.4142 10.8358 18.75 11.25 18.75C13.6411 18.75 15.7519 17.5504 17.0135 15.7237C17.2489 15.3829 17.1634 14.9157 16.8226 14.6804ZM9.99991 9.73256C9.99991 9.0422 9.44027 8.48256 8.74991 8.48256C8.05955 8.48256 7.49991 9.0423 7.49991 9.73266C7.49991 10.423 8.05955 10.9827 8.74991 10.9827C9.44027 10.9827 9.99991 10.4229 9.99991 9.73256ZM15.2501 8.48256C14.5597 8.48256 14.0001 9.0422 14.0001 9.73256C14.0001 10.4229 14.5597 10.9827 15.2501 10.9827C15.9404 10.9827 16.5001 10.4229 16.5001 9.73256C16.5001 9.0422 15.9404 8.48256 15.2501 8.48256Z" fill="#323544"/>
<path d="M8.75 8.48242C9.44036 8.48242 10 9.04207 10 9.73242C10 10.4228 9.44036 10.9825 8.75 10.9825C8.05964 10.9825 7.5 10.4229 7.5 9.73252C7.5 9.04217 8.05964 8.48242 8.75 8.48242Z" fill="#323544"/>
<path d="M16.5002 9.73242C16.5002 9.04207 15.9405 8.48242 15.2502 8.48242C14.5598 8.48242 14.0002 9.04207 14.0002 9.73242C14.0002 10.4228 14.5598 10.9825 15.2502 10.9825C15.9405 10.9825 16.5002 10.4228 16.5002 9.73242Z" fill="#323544"/>
<path d="M17.0136 15.7236C17.249 15.3827 17.1635 14.9156 16.8227 14.6802C16.4818 14.4448 16.0147 14.5303 15.7793 14.8711C14.7858 16.3098 13.1277 17.2499 11.2501 17.2499C10.8359 17.2499 10.5001 17.5857 10.5001 17.9999C10.5001 18.4141 10.8359 18.7499 11.2501 18.7499C13.6412 18.7499 15.752 17.5503 17.0136 15.7236Z" fill="#323544"/>
</svg>
