<svg width="24" height="25" viewBox="0 0 24 25" fill="none" xmlns="http://www.w3.org/2000/svg">
<path opacity="0.4" d="M12 2.5C6.47715 2.5 2 6.97715 2 12.5C2 18.0228 6.47715 22.5 12 22.5C17.5228 22.5 22 18.0228 22 12.5C22 6.97715 17.5228 2.5 12 2.5ZM9.23014 15.1884C9.87961 16.0041 10.8788 16.5248 12 16.5248C13.1213 16.5248 14.1205 16.0041 14.7699 15.1884C15.0279 14.8643 15.4998 14.8108 15.8238 15.0688C16.1479 15.3268 16.2014 15.7986 15.9434 16.1226C15.0216 17.2805 13.5975 18.0248 12 18.0248C10.4026 18.0248 8.97846 17.2805 8.05665 16.1226C7.79865 15.7986 7.8522 15.3268 8.17625 15.0688C8.5003 14.8108 8.97215 14.8643 9.23014 15.1884ZM6.20349 9.40698C6.20349 8.99276 6.53927 8.65698 6.95349 8.65698H17.0465C17.4607 8.65698 17.7965 8.99276 17.7965 9.40698V11.3605C17.7965 12.1343 17.1692 12.7616 16.3953 12.7616H14.6112C13.8373 12.7616 13.21 12.1343 13.21 11.3605V10.157H10.79V11.3605C10.79 12.1343 10.1627 12.7616 9.38884 12.7616H7.60465C6.83081 12.7616 6.20349 12.1343 6.20349 11.3605V9.40698Z" fill="#323544"/>
<path d="M6.95361 8.65625C6.5394 8.65625 6.20361 8.99204 6.20361 9.40625V11.3597C6.20361 12.1336 6.83094 12.7609 7.60478 12.7609H9.38896C10.1628 12.7609 10.7901 12.1336 10.7901 11.3597V10.1562H13.2101V11.3597C13.2101 12.1336 13.8374 12.7609 14.6113 12.7609H16.3955C17.1693 12.7609 17.7966 12.1336 17.7966 11.3597V9.40625C17.7966 8.99204 17.4609 8.65625 17.0466 8.65625H6.95361Z" fill="#323544"/>
<path d="M8.17637 15.068C8.50042 14.81 8.97227 14.8636 9.23027 15.1876C9.87974 16.0034 10.8789 16.5241 12.0002 16.5241C13.1214 16.5241 14.1206 16.0034 14.7701 15.1876C15.0281 14.8636 15.4999 14.81 15.824 15.068C16.148 15.326 16.2016 15.7979 15.9436 16.1219C15.0217 17.2797 13.5976 18.0241 12.0002 18.0241C10.4027 18.0241 8.97859 17.2797 8.05677 16.1219C7.79877 15.7979 7.85232 15.326 8.17637 15.068Z" fill="#323544"/>
</svg>
