<svg width="24" height="25" viewBox="0 0 24 25" fill="none" xmlns="http://www.w3.org/2000/svg">
<g opacity="0.4">
<path d="M12 17.7732C9.74177 17.7732 8.27458 16.4551 7.75717 15.061H16.2428C15.7254 16.4551 14.2583 17.7732 12 17.7732Z" fill="#323544"/>
<path d="M12 2.5C6.47715 2.5 2 6.97715 2 12.5C2 18.0228 6.47715 22.5 12 22.5C17.5228 22.5 22 18.0228 22 12.5C22 6.97715 17.5228 2.5 12 2.5ZM10.0001 9.73256C10.0001 10.4229 9.44042 10.9827 8.75007 10.9827C8.05971 10.9827 7.50007 10.4229 7.50007 9.73256C7.50007 9.0422 8.05971 8.48256 8.75007 8.48256C9.44042 8.48256 10.0001 9.0422 10.0001 9.73256ZM15.2499 8.48256C15.9403 8.48256 16.4999 9.0422 16.4999 9.73256C16.4999 10.4229 15.9403 10.9827 15.2499 10.9827C14.5596 10.9827 13.9999 10.423 13.9999 9.73266C13.9999 9.0423 14.5596 8.48256 15.2499 8.48256ZM6.81677 13.561H17.1833C17.3951 13.561 17.597 13.6506 17.7392 13.8076C17.8814 13.9646 17.9505 14.1744 17.9296 14.3852C17.6894 16.8031 15.4709 19.2732 12 19.2732C8.52909 19.2732 6.31055 16.8031 6.07044 14.3852C6.04951 14.1744 6.11868 13.9646 6.26085 13.8076C6.40303 13.6506 6.60496 13.561 6.81677 13.561Z" fill="#323544"/>
</g>
<path d="M8.7502 8.48242C9.44055 8.48242 10.0002 9.04207 10.0002 9.73242C10.0002 10.4228 9.44055 10.9825 8.7502 10.9825C8.05984 10.9825 7.5002 10.4228 7.5002 9.73242C7.5002 9.04207 8.05984 8.48242 8.7502 8.48242Z" fill="#323544"/>
<path d="M16.5001 9.73242C16.5001 9.04207 15.9404 8.48242 15.2501 8.48242C14.5597 8.48242 14.0001 9.04217 14.0001 9.73252C14.0001 10.4229 14.5597 10.9825 15.2501 10.9825C15.9404 10.9825 16.5001 10.4228 16.5001 9.73242Z" fill="#323544"/>
<path d="M6.26098 13.8075C6.40316 13.6505 6.60509 13.5609 6.8169 13.5609H17.1834C17.3952 13.5609 17.5971 13.6505 17.7393 13.8075C17.8815 13.9645 17.9507 14.1743 17.9297 14.385C17.6896 16.803 15.4711 19.2731 12.0001 19.2731C8.52922 19.2731 6.31068 16.803 6.07057 14.385C6.04964 14.1743 6.1188 13.9645 6.26098 13.8075ZM12.0001 17.7731C14.2584 17.7731 15.7256 16.455 16.243 15.0609H7.7573C8.2747 16.455 9.7419 17.7731 12.0001 17.7731Z" fill="#323544"/>
</svg>
