<svg width="24" height="25" viewBox="0 0 24 25" fill="none" xmlns="http://www.w3.org/2000/svg">
<path opacity="0.4" d="M2 12.5C2 6.97715 6.47715 2.5 12 2.5C17.5228 2.5 22 6.97715 22 12.5C22 18.0228 17.5228 22.5 12 22.5C6.47715 22.5 2 18.0228 2 12.5ZM8.75007 8.48256C8.05971 8.48256 7.50007 9.0422 7.50007 9.73256C7.50007 10.4229 8.05971 10.9827 8.75007 10.9827C9.44042 10.9827 10.0001 10.4229 10.0001 9.73256C10.0001 9.0422 9.44042 8.48256 8.75007 8.48256ZM16.4999 9.73256C16.4999 9.0422 15.9403 8.48256 15.2499 8.48256C14.5596 8.48256 13.9999 9.0423 13.9999 9.73266C13.9999 10.423 14.5596 10.9827 15.2499 10.9827C15.9403 10.9827 16.4999 10.4229 16.4999 9.73256ZM8.17625 14.092C7.8522 14.35 7.79865 14.8219 8.05665 15.1459C8.97846 16.3037 10.4026 17.0481 12 17.0481C13.5975 17.0481 15.0216 16.3037 15.9434 15.1459C16.2014 14.8219 16.1479 14.35 15.8238 14.092C15.4998 13.834 15.0279 13.8876 14.7699 14.2116C14.1205 15.0274 13.1213 15.5481 12 15.5481C10.8788 15.5481 9.87961 15.0274 9.23014 14.2116C8.97215 13.8876 8.5003 13.834 8.17625 14.092Z" fill="#323544"/>
<path d="M10 9.73242C10 9.04207 9.44036 8.48242 8.75 8.48242C8.05964 8.48242 7.5 9.04207 7.5 9.73242C7.5 10.4228 8.05964 10.9825 8.75 10.9825C9.44036 10.9825 10 10.4228 10 9.73242Z" fill="#323544"/>
<path d="M15.2499 8.48242C15.9402 8.48242 16.4999 9.04207 16.4999 9.73242C16.4999 10.4228 15.9402 10.9825 15.2499 10.9825C14.5595 10.9825 13.9999 10.4229 13.9999 9.73252C13.9999 9.04217 14.5595 8.48242 15.2499 8.48242Z" fill="#323544"/>
<path d="M9.23008 14.2115C8.97208 13.8874 8.50023 13.8339 8.17618 14.0919C7.85213 14.3499 7.79858 14.8217 8.05658 15.1458C8.9784 16.3036 10.4025 17.0479 12 17.0479C13.5974 17.0479 15.0216 16.3036 15.9434 15.1458C16.2014 14.8217 16.1478 14.3499 15.8238 14.0919C15.4997 13.8339 15.0279 13.8874 14.7699 14.2115C14.1204 15.0272 13.1212 15.5479 12 15.5479C10.8787 15.5479 9.87954 15.0272 9.23008 14.2115Z" fill="#323544"/>
</svg>
