<svg width="24" height="25" viewBox="0 0 24 25" fill="none" xmlns="http://www.w3.org/2000/svg">
<path opacity="0.4" d="M2 12.5C2 6.97715 6.47715 2.5 12 2.5C17.5228 2.5 22 6.97715 22 12.5C22 18.0228 17.5228 22.5 12 22.5C6.47715 22.5 2 18.0228 2 12.5ZM8.75007 8.48256C8.05971 8.48256 7.50007 9.0422 7.50007 9.73256C7.50007 10.4229 8.05971 10.9827 8.75007 10.9827C9.44042 10.9827 10.0001 10.4229 10.0001 9.73256C10.0001 9.0422 9.44042 8.48256 8.75007 8.48256ZM16.4999 9.73256C16.4999 9.0422 15.9403 8.48256 15.2499 8.48256C14.5596 8.48256 13.9999 9.0423 13.9999 9.73266C13.9999 10.423 14.5596 10.9827 15.2499 10.9827C15.9403 10.9827 16.4999 10.4229 16.4999 9.73256ZM8.17625 16.8848C8.5003 17.1428 8.97215 17.0893 9.23014 16.7652C9.87961 15.9495 10.8788 15.4288 12 15.4288C13.1213 15.4288 14.1205 15.9495 14.7699 16.7652C15.0279 17.0893 15.4998 17.1428 15.8238 16.8848C16.1479 16.6268 16.2014 16.155 15.9434 15.8309C15.0216 14.6731 13.5975 13.9288 12 13.9288C10.4026 13.9288 8.97846 14.6731 8.05665 15.8309C7.79865 16.155 7.8522 16.6268 8.17625 16.8848Z" fill="#323544"/>
<path d="M9.23008 16.7651C8.97208 17.0891 8.50023 17.1427 8.17618 16.8847C7.85213 16.6267 7.79858 16.1548 8.05658 15.8308C8.9784 14.673 10.4025 13.9286 12 13.9286C13.5974 13.9286 15.0216 14.673 15.9434 15.8308C16.2014 16.1548 16.1478 16.6267 15.8238 16.8847C15.4997 17.1427 15.0279 17.0891 14.7699 16.7651C14.1204 15.9493 13.1212 15.4286 12 15.4286C10.8787 15.4286 9.87954 15.9493 9.23008 16.7651Z" fill="#323544"/>
<path d="M15.2499 8.48242C15.9402 8.48242 16.4999 9.04207 16.4999 9.73242C16.4999 10.4228 15.9402 10.9825 15.2499 10.9825C14.5595 10.9825 13.9999 10.4229 13.9999 9.73252C13.9999 9.04217 14.5595 8.48242 15.2499 8.48242Z" fill="#323544"/>
<path d="M10 9.73242C10 9.04207 9.44036 8.48242 8.75 8.48242C8.05964 8.48242 7.5 9.04207 7.5 9.73242C7.5 10.4228 8.05964 10.9825 8.75 10.9825C9.44036 10.9825 10 10.4228 10 9.73242Z" fill="#323544"/>
</svg>
