<svg width="24" height="25" viewBox="0 0 24 25" fill="none" xmlns="http://www.w3.org/2000/svg">
<path d="M7.75 11.75V8C7.75 7.58579 7.41421 7.25 7 7.25H5.5C4.25736 7.25 3.25 8.25736 3.25 9.5V11.75V13.25V15.5C3.25 16.7426 4.25736 17.75 5.5 17.75H7C7.41421 17.75 7.75 17.4142 7.75 17V13.25V11.75ZM16.25 11.75V13.25V17C16.25 17.4142 16.5858 17.75 17 17.75H18.5C19.7426 17.75 20.75 16.7426 20.75 15.5V13.25V11.75V9.5C20.75 8.25736 19.7426 7.25 18.5 7.25H17C16.5858 7.25 16.25 7.58579 16.25 8V11.75Z" fill="#323544"/>
<g opacity="0.4">
<path d="M16.25 11.75L7.75 11.75V13.25L16.25 13.25V11.75Z" fill="#323544"/>
<path d="M2.75 13.25H3.25V11.75H2.75C2.33579 11.75 2 12.0858 2 12.5C2 12.9142 2.33579 13.25 2.75 13.25Z" fill="#323544"/>
<path d="M21.25 11.75H20.75V13.25H21.25C21.6642 13.25 22 12.9142 22 12.5C22 12.0858 21.6642 11.75 21.25 11.75Z" fill="#323544"/>
</g>
</svg>
