<svg width="24" height="25" viewBox="0 0 24 25" fill="none" xmlns="http://www.w3.org/2000/svg">
<path d="M8.22887 3.0749C8.1322 2.67212 7.72732 2.42397 7.32455 2.52064C6.92177 2.6173 6.67362 3.02218 6.77029 3.42496L7.08558 4.73869C7.31754 5.70519 7.15631 6.72424 6.63732 7.57192L6.03334 8.55842C5.11395 10.0601 4.66764 11.7759 4.71199 13.491C4.73958 14.5578 4.95698 15.6244 5.36835 16.6391L7.55452 22.0317C7.71014 22.4156 8.14749 22.6006 8.53136 22.445C8.91522 22.2894 9.10025 21.852 8.94463 21.4681L6.75846 16.0756C6.51931 15.4857 6.35885 14.8749 6.27586 14.2576C7.84417 14.3974 9.10378 14.8625 9.99614 15.3139C10.4979 15.5677 10.8817 15.8163 11.1362 15.9981C11.1775 16.0275 11.2153 16.0552 11.2496 16.0808V21.7499C11.2496 22.1641 11.5854 22.4999 11.9996 22.4999C12.4138 22.4999 12.7496 22.1641 12.7496 21.7499V16.0807C12.7839 16.0551 12.8217 16.0275 12.8629 15.998C13.1173 15.8162 13.501 15.5676 14.0026 15.3139C14.8949 14.8624 16.1546 14.3972 17.7233 14.2576C17.6403 14.8748 17.4799 15.4857 17.2407 16.0756L15.0545 21.4681C14.8989 21.852 15.0839 22.2894 15.4678 22.445C15.8517 22.6006 16.289 22.4156 16.4446 22.0317L18.6308 16.6391C19.0422 15.6244 19.2596 14.5578 19.2872 13.491C19.3315 11.7759 18.8852 10.0601 17.9658 8.55842L17.3618 7.57192C16.8428 6.72424 16.6816 5.70519 16.9136 4.73869L17.2289 3.42496C17.3255 3.02218 17.0774 2.6173 16.6746 2.52064C16.2718 2.42397 15.867 2.67212 15.7703 3.0749L15.455 4.38863C15.1302 5.74172 15.356 7.16839 16.0826 8.35515L16.1118 8.40293C15.8958 8.51531 15.621 8.6474 15.2986 8.77974C14.4415 9.13159 13.2763 9.47356 11.9996 9.47356C10.7228 9.47356 9.55764 9.13159 8.70052 8.77974C8.37811 8.6474 8.10332 8.51531 7.88735 8.40293L7.9166 8.35515C8.64318 7.16839 8.86891 5.74172 8.54416 4.38863L8.22887 3.0749Z" fill="#323544"/>
<g opacity="0.4">
<path d="M3.28033 3.69324C2.98744 3.40035 2.51256 3.40035 2.21967 3.69324C1.92678 3.98613 1.92678 4.46101 2.21967 4.7539L3.18934 5.72357L2.21967 6.69324C1.92678 6.98614 1.92678 7.46101 2.21967 7.7539C2.51256 8.04679 2.98744 8.04679 3.28033 7.7539L4.78033 6.2539C5.07322 5.96101 5.07322 5.48614 4.78033 5.19324L3.28033 3.69324Z" fill="#323544"/>
<path d="M21.7803 4.7539C22.0732 4.46101 22.0732 3.98613 21.7803 3.69324C21.4874 3.40035 21.0126 3.40035 20.7197 3.69324L19.2197 5.19324C18.9268 5.48614 18.9268 5.96101 19.2197 6.2539L20.7197 7.7539C21.0126 8.04679 21.4874 8.04679 21.7803 7.7539C22.0732 7.46101 22.0732 6.98614 21.7803 6.69324L20.8107 5.72357L21.7803 4.7539Z" fill="#323544"/>
</g>
</svg>
