<svg width="24" height="24" viewBox="0 0 24 24" fill="none" xmlns="http://www.w3.org/2000/svg">
<path d="M18.84 7.71484L18.9415 7.72168C19.174 7.75343 19.3807 7.89289 19.4962 8.10156C19.6118 8.31062 19.6197 8.56042 19.5226 8.77441L19.4747 8.86328L11.4464 21.6484C11.2622 21.9418 10.9008 22.0711 10.5724 21.9609C10.2442 21.8508 10.0338 21.5304 10.0636 21.1855L10.6847 14.0352H5.16028C4.74606 14.0352 4.41028 13.6994 4.41028 13.2852C4.4103 12.871 4.74608 12.5352 5.16028 12.5352H11.5021C11.7122 12.5352 11.9128 12.6235 12.0548 12.7783C12.1791 12.9138 12.2488 13.0895 12.2521 13.2715L12.2491 13.3496L11.8253 18.2236L17.4835 9.21484H12.007C11.5929 9.21469 11.257 8.87896 11.257 8.46484C11.257 8.05072 11.5929 7.715 12.007 7.71484H18.84Z" fill="#323544"/>
<path opacity="0.4" d="M14.7842 2.00586C15.0037 2.0339 15.2018 2.15814 15.3223 2.34766C15.4598 2.56417 15.477 2.83611 15.3682 3.06836L13.1875 7.71484H12.0068C11.702 7.71501 11.4395 7.89697 11.3223 8.1582C11.324 8.15423 11.3263 8.15044 11.3281 8.14648L13.5088 3.5H8.0166L6.08691 12.5352H5.16016C4.79861 12.5352 4.4976 12.7913 4.42676 13.1318V13.1289L6.67676 2.59375L6.71484 2.46875C6.82763 2.1895 7.10051 2.00005 7.41016 2H14.6895L14.7842 2.00586Z" fill="#323544"/>
</svg>
