<svg width="24" height="24" viewBox="0 0 24 24" fill="none" xmlns="http://www.w3.org/2000/svg">
<path d="M18.8046 11.248C19.1116 11.248 19.3882 11.4355 19.5019 11.7207C19.6152 12.0056 19.5436 12.3309 19.3212 12.542L9.56143 21.7939C9.32883 22.0142 8.98203 22.0626 8.69815 21.9141C8.41414 21.7654 8.25602 21.4526 8.30459 21.1357L9.72256 11.8877C9.78532 11.4783 10.1677 11.1971 10.5771 11.2598C10.9864 11.3225 11.2676 11.7049 11.205 12.1143L10.1181 19.1982L16.9237 12.748H13.4794C13.0652 12.748 12.7294 12.4123 12.7294 11.998C12.7294 11.5838 13.0652 11.248 13.4794 11.248H18.8046Z" fill="#323544"/>
<g opacity="0.4">
<path d="M14.473 2.13071C14.6992 1.97572 14.996 1.9558 15.2445 2.08579C15.4928 2.21585 15.6452 2.47102 15.6469 2.74497L15.6381 2.86314L14.3539 11.2479H13.4799C13.1031 11.2479 12.791 11.5256 12.7377 11.8876V11.8846L13.8236 4.80064L7.01991 11.2508H10.4633L10.4828 11.2518C10.1105 11.2418 9.78094 11.5098 9.72303 11.8876L9.59022 12.7508H5.13807C4.83129 12.7508 4.55561 12.564 4.44178 12.2792C4.3281 11.994 4.39965 11.6681 4.62245 11.4569L14.3812 2.20591L14.473 2.13071Z" fill="#323544"/>
<path d="M12.7299 11.9979C12.7299 12.015 12.7307 12.0319 12.7318 12.0487C12.7294 12.0123 12.7288 11.9756 12.7318 11.9383C12.7303 11.9579 12.7299 11.9779 12.7299 11.9979Z" fill="#323544"/>
<path d="M10.5404 11.2547C10.544 11.2551 10.5476 11.2563 10.5512 11.2567C10.54 11.2554 10.529 11.2536 10.518 11.2528L10.5404 11.2547Z" fill="#323544"/>
</g>
</svg>
