<svg width="25" height="25" viewBox="0 0 25 25" fill="none" xmlns="http://www.w3.org/2000/svg">
<path d="M22.0736 9.08365C22.1847 9.3501 22.2461 9.64249 22.2461 9.94922L22.2465 10.9434H4.74609V9.94922C4.74609 8.70658 5.75345 7.69922 6.99609 7.69922H19.9961C20.0106 7.69922 20.025 7.69936 20.0395 7.69963C20.9378 7.71656 21.7075 8.26076 22.0526 9.03495C22.0598 9.05108 22.0668 9.06732 22.0736 9.08365Z" fill="#323544"/>
<path d="M22.2465 13.7407H4.74609V18.0159L4.74645 18.6257C4.74645 18.9364 4.80941 19.2323 4.92327 19.5015C4.92845 19.5138 4.93375 19.526 4.93914 19.5382C5.28934 20.3257 6.07859 20.8749 6.99609 20.8749L19.9965 20.8757C21.2391 20.8757 22.2465 19.8684 22.2465 18.6257V13.7407Z" fill="#323544"/>
<path opacity="0.4" d="M19.7714 6.69922L19.2173 4.63111C18.8956 3.43081 17.6619 2.7185 16.4616 3.04012L3.90454 6.40476C2.70425 6.72638 1.99193 7.96014 2.31355 9.16044L3.74609 14.5068V9.94922C3.74609 8.15429 5.20117 6.69922 6.99609 6.69922H19.7714Z" fill="#323544"/>
</svg>
