<svg width="25" height="25" viewBox="0 0 25 25" fill="none" xmlns="http://www.w3.org/2000/svg">
<path opacity="0.4" d="M2.25 12.5C2.25 6.97715 6.72715 2.5 12.25 2.5C17.7728 2.5 22.25 6.97715 22.25 12.5C22.25 18.0228 17.7728 22.5 12.25 22.5C6.72715 22.5 2.25 18.0228 2.25 12.5ZM13 7.875C13 7.46079 12.6642 7.125 12.25 7.125C11.8358 7.125 11.5 7.46079 11.5 7.875V8.345C10.498 8.57236 9.75 9.46845 9.75 10.5392V10.8043C9.75 11.7422 10.3318 12.5817 11.2099 12.911L12.7634 13.4936C13.0561 13.6034 13.25 13.8832 13.25 14.1959V14.4609C13.25 14.8752 12.9142 15.2109 12.5 15.2109H11.8126C11.5019 15.2109 11.25 14.9591 11.25 14.6483C11.25 14.2341 10.9142 13.8983 10.5 13.8983C10.0858 13.8983 9.75 14.2341 9.75 14.6483C9.75 15.6812 10.5092 16.5368 11.5 16.6874V17.125C11.5 17.5392 11.8358 17.875 12.25 17.875C12.6642 17.875 13 17.5392 13 17.125V16.6552C14.002 16.4278 14.75 15.5317 14.75 14.4609V14.1959C14.75 13.258 14.1682 12.4185 13.2901 12.0891L11.7366 11.5066C11.4439 11.3968 11.25 11.1169 11.25 10.8043V10.5392C11.25 10.125 11.5858 9.78924 12 9.78924H12.6874C12.9981 9.78924 13.25 10.0411 13.25 10.3518C13.25 10.7661 13.5858 11.1018 14 11.1018C14.4142 11.1018 14.75 10.7661 14.75 10.3518C14.75 9.31897 13.9908 8.46341 13 8.31278V7.875Z" fill="#323544"/>
<path d="M12.25 7.125C12.6642 7.125 13 7.46079 13 7.875V8.31278C13.9908 8.46341 14.75 9.31897 14.75 10.3518C14.75 10.7661 14.4142 11.1018 14 11.1018C13.5858 11.1018 13.25 10.7661 13.25 10.3518C13.25 10.0411 12.9981 9.78924 12.6874 9.78924H12C11.5858 9.78924 11.25 10.125 11.25 10.5392V10.8043C11.25 11.1169 11.4439 11.3968 11.7366 11.5066L13.2901 12.0891C14.1682 12.4185 14.75 13.258 14.75 14.1959V14.4609C14.75 15.5317 14.002 16.4278 13 16.6552V17.125C13 17.5392 12.6642 17.875 12.25 17.875C11.8358 17.875 11.5 17.5392 11.5 17.125V16.6874C10.5092 16.5368 9.75 15.6812 9.75 14.6483C9.75 14.2341 10.0858 13.8983 10.5 13.8983C10.9142 13.8983 11.25 14.2341 11.25 14.6483C11.25 14.9591 11.5019 15.2109 11.8126 15.2109H12.5C12.9142 15.2109 13.25 14.8752 13.25 14.4609V14.1959C13.25 13.8832 13.0561 13.6034 12.7634 13.4936L11.2099 12.911C10.3318 12.5817 9.75 11.7422 9.75 10.8043V10.5392C9.75 9.46845 10.498 8.57236 11.5 8.345V7.875C11.5 7.46079 11.8358 7.125 12.25 7.125Z" fill="#323544"/>
</svg>
