<svg width="25" height="25" viewBox="0 0 25 25" fill="none" xmlns="http://www.w3.org/2000/svg">
<path fill-rule="evenodd" clip-rule="evenodd" d="M13.3745 4.44727H11.1245H9.70312C8.25338 4.44727 7.07812 5.62252 7.07812 7.07227V10.089C7.07812 11.2268 7.81117 12.2351 8.89353 12.586L14.913 14.5377C15.0677 14.5878 15.1724 14.7319 15.1724 14.8944V17.9112C15.1724 18.1183 15.0045 18.2862 14.7974 18.2862H9.70312C9.49602 18.2862 9.32812 18.1183 9.32812 17.9112V16.7868C9.32812 16.1655 8.82445 15.6618 8.20312 15.6618C7.5818 15.6618 7.07812 16.1655 7.07812 16.7868V17.9112C7.07812 19.3609 8.25338 20.5362 9.70312 20.5362H11.1245H13.3745H14.7974C16.2471 20.5362 17.4224 19.3609 17.4224 17.9112V14.8944C17.4224 13.7566 16.6893 12.7483 15.607 12.3974L9.58747 10.4457C9.43284 10.3956 9.32812 10.2515 9.32812 10.089V7.07227C9.32812 6.86516 9.49602 6.69727 9.70312 6.69727H14.7974C15.0045 6.69727 15.1724 6.86516 15.1724 7.07227V8.19661C15.1724 8.81793 15.6761 9.32161 16.2974 9.32161C16.9187 9.32161 17.4224 8.81793 17.4224 8.19661V7.07227C17.4224 5.62252 16.2471 4.44727 14.7974 4.44727H13.3745Z" fill="#323544"/>
<g opacity="0.4">
<path d="M13.375 21.749V20.5359H11.125V21.749C11.125 22.3703 11.6287 22.874 12.25 22.874C12.8713 22.874 13.375 22.3703 13.375 21.749Z" fill="#323544"/>
<path d="M13.375 3.25C13.375 2.62868 12.8713 2.125 12.25 2.125C11.6287 2.125 11.125 2.62868 11.125 3.25V4.44702H13.375V3.25Z" fill="#323544"/>
</g>
</svg>
