<svg width="25" height="25" viewBox="0 0 25 25" fill="none" xmlns="http://www.w3.org/2000/svg">
<path fill-rule="evenodd" clip-rule="evenodd" d="M9.22117 11.625C9.18478 11.9115 9.16602 12.2036 9.16602 12.5C9.16602 12.7964 9.18477 13.0885 9.22117 13.375H6.95743C6.93003 13.087 6.91602 12.7951 6.91602 12.5C6.91602 12.2049 6.93003 11.913 6.95743 11.625H9.22117ZM9.91565 9.375C11.0536 7.14895 13.3693 5.625 16.041 5.625C16.9159 5.625 17.7501 5.78788 18.5168 6.08396C19.0964 6.30779 19.7477 6.01937 19.9716 5.43977C20.1954 4.86017 19.907 4.20886 19.3274 3.98503C18.3062 3.59068 17.1975 3.375 16.041 3.375C12.0991 3.375 8.74105 5.87447 7.46516 9.375H9.91565ZM16.041 21.625C12.0991 21.625 8.74105 19.1255 7.46516 15.625H9.91565C11.0536 17.851 13.3693 19.375 16.041 19.375C16.9159 19.375 17.7501 19.2121 18.5168 18.916C19.0964 18.6922 19.7477 18.9806 19.9716 19.5602C20.1954 20.1398 19.907 20.7911 19.3274 21.015C18.3062 21.4093 17.1975 21.625 16.041 21.625Z" fill="#323544"/>
<g opacity="0.4">
<path d="M5.57716 11.625H6.9576H9.22135H14.0334C14.6547 11.625 15.1584 11.1213 15.1584 10.5C15.1584 9.87868 14.6547 9.375 14.0334 9.375H9.91583H7.46534H5.57716C4.95584 9.375 4.45216 9.87868 4.45216 10.5C4.45216 11.1213 4.95584 11.625 5.57716 11.625Z" fill="#323544"/>
<path d="M14.0334 13.375H9.22135H6.9576H5.57617C4.95485 13.375 4.45117 13.8787 4.45117 14.5C4.45117 15.1213 4.95485 15.625 5.57617 15.625H7.46534H9.91583H14.0334C14.6547 15.625 15.1584 15.1213 15.1584 14.5C15.1584 13.8787 14.6547 13.375 14.0334 13.375Z" fill="#323544"/>
</g>
</svg>
