<svg width="25" height="25" viewBox="0 0 25 25" fill="none" xmlns="http://www.w3.org/2000/svg">
<path opacity="0.4" d="M3.5 11.25C3.5 6.41751 7.41751 2.5 12.25 2.5C17.0825 2.5 21 6.41751 21 11.25C21 14.8979 18.8146 17.7112 16.7506 19.5611C15.7092 20.4943 14.6711 21.208 13.8945 21.6883C13.5053 21.9289 13.1798 22.1122 12.9496 22.2363C12.8344 22.2983 12.743 22.3457 12.6791 22.3781C12.6751 22.3801 12.6712 22.3821 12.6675 22.384C12.6411 22.3973 12.62 22.4078 12.6045 22.4154L12.5837 22.4256L12.5775 22.4286L12.5755 22.4296L12.5742 22.4302C12.3693 22.5285 12.1307 22.5285 11.9258 22.4302C11.9258 22.4302 11.9264 22.4305 11.9245 22.4296L11.9225 22.4286L11.9163 22.4256L11.8955 22.4154C11.8778 22.4067 11.8528 22.3943 11.8209 22.3781C11.757 22.3457 11.6656 22.2983 11.5504 22.2363C11.3202 22.1122 10.9947 21.9289 10.6055 21.6883C9.82886 21.208 8.79077 20.4943 7.74944 19.5611C5.68538 17.7112 3.5 14.8979 3.5 11.25ZM13 6.75C13 6.33579 12.6642 6 12.25 6C11.8358 6 11.5 6.33579 11.5 6.75V7.22C10.498 7.44736 9.75 8.34345 9.75 9.41424V9.67932C9.75 10.6172 10.3318 11.4567 11.2099 11.786L12.7634 12.3686C13.0561 12.4784 13.25 12.7582 13.25 13.0709V13.3359C13.25 13.7502 12.9142 14.0859 12.5 14.0859H11.8126C11.5019 14.0859 11.25 13.8341 11.25 13.5233C11.25 13.1091 10.9142 12.7733 10.5 12.7733C10.0858 12.7733 9.75 13.1091 9.75 13.5233C9.75 14.5562 10.5092 15.4118 11.5 15.5624V16C11.5 16.4142 11.8358 16.75 12.25 16.75C12.6642 16.75 13 16.4142 13 16V15.5302C14.002 15.3028 14.75 14.4067 14.75 13.3359V13.0709C14.75 12.133 14.1682 11.2935 13.2901 10.9641L11.7366 10.3816C11.4439 10.2718 11.25 9.99194 11.25 9.67932V9.41424C11.25 9.00003 11.5858 8.66424 12 8.66424H12.6874C12.9981 8.66424 13.25 8.91613 13.25 9.22684C13.25 9.64106 13.5858 9.97684 14 9.97684C14.4142 9.97684 14.75 9.64106 14.75 9.22684C14.75 8.19397 13.9908 7.33841 13 7.18778V6.75Z" fill="#323544"/>
<path d="M12.25 6C12.6642 6 13 6.33579 13 6.75V7.18778C13.9908 7.33841 14.75 8.19397 14.75 9.22684C14.75 9.64106 14.4142 9.97684 14 9.97684C13.5858 9.97684 13.25 9.64106 13.25 9.22684C13.25 8.91613 12.9981 8.66424 12.6874 8.66424H12C11.5858 8.66424 11.25 9.00003 11.25 9.41424V9.67932C11.25 9.99194 11.4439 10.2718 11.7366 10.3816L13.2901 10.9641C14.1682 11.2935 14.75 12.133 14.75 13.0709V13.3359C14.75 14.4067 14.002 15.3028 13 15.5302V16C13 16.4142 12.6642 16.75 12.25 16.75C11.8358 16.75 11.5 16.4142 11.5 16V15.5624C10.5092 15.4118 9.75 14.5562 9.75 13.5233C9.75 13.1091 10.0858 12.7733 10.5 12.7733C10.9142 12.7733 11.25 13.1091 11.25 13.5233C11.25 13.8341 11.5019 14.0859 11.8126 14.0859H12.5C12.9142 14.0859 13.25 13.7502 13.25 13.3359V13.0709C13.25 12.7582 13.0561 12.4784 12.7634 12.3686L11.2099 11.786C10.3318 11.4567 9.75 10.6172 9.75 9.67932V9.41424C9.75 8.34345 10.498 7.44736 11.5 7.22V6.75C11.5 6.33579 11.8358 6 12.25 6Z" fill="#323544"/>
</svg>
