<svg width="25" height="25" viewBox="0 0 25 25" fill="none" xmlns="http://www.w3.org/2000/svg">
<path fill-rule="evenodd" clip-rule="evenodd" d="M9.12516 8.47498C9.12516 5.65834 11.4085 3.375 14.2251 3.375C17.0418 3.375 19.3251 5.65834 19.3251 8.47498V8.62755C19.3251 9.24887 18.8214 9.75255 18.2001 9.75255C17.5788 9.75255 17.0751 9.24887 17.0751 8.62755V8.47498C17.0751 6.90098 15.7991 5.625 14.2251 5.625C12.6511 5.625 11.3752 6.90098 11.3752 8.47498V12.25H9.12516V8.47498ZM9.12516 14.5V15.5992C9.12516 17.2399 8.36645 18.1486 7.60764 18.6873C7.21273 18.9677 6.81132 19.1491 6.50615 19.2599C6.35517 19.3146 6.2323 19.3505 6.15189 19.3717C6.11182 19.3823 6.08271 19.3891 6.0664 19.3927L6.05211 19.3958C5.48501 19.5065 5.09351 20.0292 5.14756 20.6051C5.2018 21.1832 5.68703 21.625 6.26764 21.625H18.2322C18.8535 21.625 19.3572 21.1213 19.3572 20.5C19.3572 19.8787 18.8535 19.375 18.2322 19.375H10.1281C10.8428 18.4766 11.3752 17.2461 11.3752 15.5992V14.5H9.12516Z" fill="#323544"/>
<path opacity="0.4" d="M6.32812 12.25C5.7068 12.25 5.20312 12.7537 5.20312 13.375C5.20312 13.9963 5.7068 14.5 6.32812 14.5H9.12524H11.3752H14.1735C14.7948 14.5 15.2985 13.9963 15.2985 13.375C15.2985 12.7537 14.7948 12.25 14.1735 12.25H11.3752H9.12524H6.32812Z" fill="#323544"/>
</svg>
