<svg width="25" height="25" viewBox="0 0 25 25" fill="none" xmlns="http://www.w3.org/2000/svg">
<path fill-rule="evenodd" clip-rule="evenodd" d="M6.66608 3.375C6.04476 3.375 5.54108 3.87868 5.54108 4.5C5.54108 5.12132 6.04476 5.625 6.66608 5.625H10.6659C12.2178 5.625 13.5353 6.62822 14.0053 8.02148H16.3294C16.1535 7.13226 15.7733 6.31647 15.2399 5.625H17.8311C18.4524 5.625 18.9561 5.12132 18.9561 4.5C18.9561 3.87868 18.4524 3.375 17.8311 3.375H6.66608ZM14.0066 10.2715C13.5377 11.6668 12.2192 12.6718 10.6659 12.6718H6.66608C6.18512 12.6718 5.75735 12.9776 5.60166 13.4327C5.44596 13.8877 5.59678 14.3914 5.97694 14.6861L14.6252 21.3884C15.1163 21.769 15.823 21.6794 16.2036 21.1883C16.5842 20.6972 16.4946 19.9906 16.0035 19.61L9.95424 14.9218H10.6659C13.4702 14.9218 15.8076 12.9225 16.3302 10.2715H14.0066Z" fill="#323544"/>
<path opacity="0.4" d="M17.831 8.02148H16.3294H14.0053H6.66602C6.0447 8.02148 5.54102 8.52516 5.54102 9.14648C5.54102 9.7678 6.0447 10.2715 6.66602 10.2715H14.0066H16.3302H17.831C18.4523 10.2715 18.956 9.7678 18.956 9.14648C18.956 8.52516 18.4523 8.02148 17.831 8.02148Z" fill="#323544"/>
</svg>
