<svg width="25" height="25" viewBox="0 0 25 25" fill="none" xmlns="http://www.w3.org/2000/svg">
<path opacity="0.4" d="M11.3156 2.85225C11.9098 2.5805 12.5928 2.5805 13.1871 2.85225L18.9111 5.46991C19.7118 5.83608 20.2253 6.63562 20.2253 7.51607L20.2254 12.9811C20.2254 14.5375 19.7481 16.0838 18.7447 17.3253C17.9444 18.3155 16.8583 19.5727 15.7472 20.589C15.1923 21.0966 14.6131 21.5609 14.0452 21.9022C13.4919 22.2349 12.8712 22.499 12.2514 22.499C11.6317 22.499 11.011 22.2349 10.4576 21.9022C9.88978 21.5608 9.31059 21.0966 8.75563 20.5889C7.64456 19.5726 6.55842 18.3154 5.75814 17.3252C4.75474 16.0837 4.27744 14.5376 4.27742 12.9813L4.27734 7.51612C4.27733 6.63565 4.79089 5.83607 5.5916 5.4699L11.3156 2.85225ZM13.0019 6.74903C13.0019 6.33481 12.6662 5.99903 12.2519 5.99903C11.8377 5.99903 11.5019 6.33481 11.5019 6.74903V7.21902C10.4999 7.44639 9.75194 8.34248 9.75194 9.41327V9.67834C9.75194 10.6162 10.3337 11.4557 11.2119 11.7851L12.7653 12.3677C13.058 12.4774 13.2519 12.7573 13.2519 13.0699V13.335C13.2519 13.7492 12.9162 14.085 12.5019 14.085H11.8145C11.5038 14.085 11.2519 13.8331 11.2519 13.5224C11.2519 13.1082 10.9162 12.7724 10.5019 12.7724C10.0877 12.7724 9.75194 13.1082 9.75194 13.5224C9.75194 14.5552 10.5111 15.4108 11.5019 15.5614V15.999C11.5019 16.4132 11.8377 16.749 12.2519 16.749C12.6662 16.749 13.0019 16.4132 13.0019 15.999V15.5292C14.0039 15.3018 14.7519 14.4058 14.7519 13.335V13.0699C14.7519 12.132 14.1702 11.2925 13.292 10.9632L11.7386 10.3806C11.4459 10.2708 11.2519 9.99097 11.2519 9.67834V9.41327C11.2519 8.99906 11.5877 8.66327 12.0019 8.66327H12.6893C13.0001 8.66327 13.2519 8.91515 13.2519 9.22587C13.2519 9.64008 13.5877 9.97587 14.0019 9.97587C14.4162 9.97587 14.7519 9.64008 14.7519 9.22587C14.7519 8.193 13.9927 7.33744 13.0019 7.1868V6.74903Z" fill="#323544"/>
<path d="M12.252 6C12.6662 6 13.002 6.33579 13.002 6.75V7.18778C13.9928 7.33841 14.752 8.19397 14.752 9.22684C14.752 9.64106 14.4162 9.97684 14.002 9.97684C13.5877 9.97684 13.252 9.64106 13.252 9.22684C13.252 8.91613 13.0001 8.66424 12.6894 8.66424H12.002C11.5877 8.66424 11.252 9.00003 11.252 9.41424V9.67932C11.252 9.99194 11.4459 10.2718 11.7386 10.3816L13.292 10.9641C14.1702 11.2935 14.752 12.133 14.752 13.0709V13.3359C14.752 14.4067 14.0039 15.3028 13.002 15.5302V16C13.002 16.4142 12.6662 16.75 12.252 16.75C11.8377 16.75 11.502 16.4142 11.502 16V15.5624C10.5112 15.4118 9.75195 14.5562 9.75195 13.5233C9.75195 13.1091 10.0877 12.7733 10.502 12.7733C10.9162 12.7733 11.252 13.1091 11.252 13.5233C11.252 13.8341 11.5038 14.0859 11.8146 14.0859H12.502C12.9162 14.0859 13.252 13.7502 13.252 13.3359V13.0709C13.252 12.7582 13.058 12.4784 12.7653 12.3686L11.2119 11.786C10.3337 11.4567 9.75195 10.6172 9.75195 9.67932V9.41424C9.75195 8.34345 10.5 7.44736 11.502 7.22V6.75C11.502 6.33579 11.8377 6 12.252 6Z" fill="#323544"/>
</svg>
