<svg width="25" height="25" viewBox="0 0 25 25" fill="none" xmlns="http://www.w3.org/2000/svg">
<path fill-rule="evenodd" clip-rule="evenodd" d="M5.78263 3.70646C6.22197 3.26712 6.93428 3.26712 7.37362 3.70646L12.2502 8.58305L17.1268 3.70646C17.5661 3.26712 18.2785 3.26712 18.7178 3.70646C19.1571 4.1458 19.1571 4.85811 18.7178 5.29745L13.3752 10.64L13.3752 11.6074H11.1252L11.1252 10.64L5.78263 5.29745C5.34329 4.85811 5.34329 4.1458 5.78263 3.70646ZM11.1251 13.8574L11.1251 14.6074H13.3751L13.3751 13.8574H11.1251ZM11.125 20.5001L11.1251 16.8574H13.3751L13.375 20.5001C13.375 21.1214 12.8713 21.6251 12.25 21.6251C11.6287 21.6251 11.125 21.1214 11.125 20.5001Z" fill="#323544"/>
<g opacity="0.4">
<path d="M16.5741 14.6074H13.375H11.125H7.92773C7.30641 14.6074 6.80273 15.1111 6.80273 15.7324C6.80273 16.3537 7.30641 16.8574 7.92773 16.8574H11.125H13.375H16.5741C17.1955 16.8574 17.6991 16.3537 17.6991 15.7324C17.6991 15.1111 17.1955 14.6074 16.5741 14.6074Z" fill="#323544"/>
<path d="M16.5741 11.6074H13.3751H11.1251H7.92773C7.30641 11.6074 6.80273 12.1111 6.80273 12.7324C6.80273 13.3537 7.30641 13.8574 7.92773 13.8574H11.125H13.375H16.5741C17.1955 13.8574 17.6991 13.3537 17.6991 12.7324C17.6991 12.1111 17.1955 11.6074 16.5741 11.6074Z" fill="#323544"/>
</g>
</svg>
