<svg width="24" height="25" viewBox="0 0 24 25" fill="none" xmlns="http://www.w3.org/2000/svg">
<path d="M10.4063 2.375C9.16361 2.375 8.15625 3.38236 8.15625 4.625C8.15625 5.86764 9.16361 6.875 10.4062 6.875H13.5937C14.8364 6.875 15.8438 5.86764 15.8437 4.625C15.8437 3.38236 14.8364 2.375 13.5937 2.375H10.4063Z" fill="#323544"/>
<path d="M7.19447 4.125C7.16931 4.28798 7.15625 4.45497 7.15625 4.625C7.15625 6.41992 8.61132 7.875 10.4062 7.875H13.5937C15.3887 7.875 16.8438 6.41992 16.8437 4.62499C16.8437 4.45496 16.8307 4.28798 16.8055 4.125H17.25C18.4926 4.125 19.5 5.13236 19.5 6.375L19.5 20.125C19.5 21.3676 18.4926 22.375 17.25 22.375H6.75C5.50736 22.375 4.5 21.3676 4.5 20.125V6.375C4.5 5.13236 5.50736 4.125 6.75 4.125H7.19447Z" fill="#323544"/>
</svg>
