<svg width="24" height="25" viewBox="0 0 24 25" fill="none" xmlns="http://www.w3.org/2000/svg">
<path d="M9.125 12.375C9.125 10.7872 10.4122 9.5 12 9.5C13.5878 9.5 14.875 10.7872 14.875 12.375C14.875 13.9628 13.5878 15.25 12 15.25C10.4122 15.25 9.125 13.9628 9.125 12.375Z" fill="#323544"/>
<path d="M2.27757 11.1101C3.97429 7.43132 7.68801 4.875 11.9999 4.875C16.3119 4.875 20.0256 7.43133 21.7223 11.1101C22.0924 11.9125 22.0924 12.8377 21.7223 13.6402C20.0256 17.3189 16.3119 19.8752 11.9999 19.8752C7.68801 19.8752 3.97428 17.3189 2.27757 13.6402C1.90748 12.8377 1.90748 11.9125 2.27757 11.1101ZM7.625 12.375C7.625 14.7912 9.58375 16.75 12 16.75C14.4162 16.75 16.375 14.7912 16.375 12.375C16.375 9.95875 14.4162 8 12 8C9.58375 8 7.625 9.95875 7.625 12.375Z" fill="#323544"/>
</svg>
