<svg width="24" height="24" viewBox="0 0 24 24" fill="none" xmlns="http://www.w3.org/2000/svg">
<path d="M17.631 2.21967C17.3381 1.92678 16.8632 1.92678 16.5703 2.21967C16.2774 2.51256 16.2774 2.98744 16.5703 3.28033L17.2314 3.94141L15.5254 5.64738L14.8184 4.94037C14.5255 4.64748 14.0506 4.64748 13.7578 4.94037L5.48093 13.2172C4.71646 13.9817 4.6171 15.1594 5.18284 16.0313C5.17042 16.0422 5.15827 16.0535 5.14643 16.0654L4.10893 17.1029C3.96828 17.2435 3.88926 17.4343 3.88926 17.6332C3.88926 17.8321 3.96828 18.0229 4.10893 18.1635L4.44289 18.4975L2.21772 20.7227C1.92482 21.0156 1.92482 21.4904 2.21772 21.7833C2.51061 22.0762 2.98548 22.0762 3.27838 21.7833L5.50355 19.5582L5.83809 19.8927C6.13099 20.1856 6.60586 20.1856 6.89875 19.8927L7.93625 18.8552C7.94811 18.8433 7.95949 18.8312 7.97039 18.8187C8.84226 19.3843 10.0198 19.2849 10.7842 18.5205L19.0611 10.2437C19.354 9.95078 19.354 9.47591 19.0611 9.18301L18.3538 8.47581L20.0598 6.76983L20.7203 7.43032C21.0132 7.72322 21.4881 7.72322 21.781 7.43032C22.0739 7.13743 22.0739 6.66256 21.781 6.36966L18.8224 3.41108L18.8214 3.41009L17.631 2.21967ZM16.5861 6.70804L18.2921 5.00207L18.9992 5.70917L17.2932 7.41515L16.5861 6.70804Z" fill="#323544"/>
</svg>
