<svg width="24" height="24" viewBox="0 0 24 24" fill="none" xmlns="http://www.w3.org/2000/svg">
<path d="M15.4377 2.29987C14.3616 1.67855 12.9855 2.04726 12.3642 3.12342L9.55321 7.99212C8.93189 9.06828 9.30061 10.4444 10.3768 11.0657L11.2428 11.5657C12.319 12.187 13.695 11.8183 14.3163 10.7421L16.0589 7.7239C17.0395 8.73943 17.6415 10.1204 17.6415 11.6423C17.6415 14.7584 15.116 17.2843 12 17.2843C10.4971 17.2843 9.26278 16.5044 8.40189 15.2638H10.6387C11.0529 15.2638 11.3887 14.9281 11.3887 14.5138C11.3887 14.0996 11.0529 13.7638 10.6387 13.7638H3.63867C3.22446 13.7638 2.88867 14.0996 2.88867 14.5138C2.88867 14.9281 3.22446 15.2638 3.63867 15.2638H6.65424C7.58496 17.0421 9.14895 18.4611 11.25 18.736V20.5001H8C7.58579 20.5001 7.25 20.8359 7.25 21.2501C7.25 21.6643 7.58579 22.0001 8 22.0001H16C16.4142 22.0001 16.75 21.6643 16.75 21.2501C16.75 20.8359 16.4142 20.5001 16 20.5001H12.75V18.7454C16.3419 18.3706 19.1415 15.3334 19.1415 11.6423C19.1415 9.5615 18.251 7.68843 16.8325 6.38395L17.1273 5.87342C17.7486 4.79726 17.3799 3.42119 16.3037 2.79987L15.4377 2.29987Z" fill="#323544"/>
</svg>
