<svg width="24" height="24" viewBox="0 0 24 24" fill="none" xmlns="http://www.w3.org/2000/svg">
<path d="M6.75 3.5L7 3.5C7.41421 3.5 7.75 3.16421 7.75 2.75C7.75 2.33579 7.41421 2 7 2H6.75C5.50736 2 4.5 3.00736 4.5 4.25V6.75C4.5 9.67145 6.67873 12.084 9.5 12.4515L9.5 16.5C9.5 19.2614 11.7386 21.5 14.5 21.5C17.2614 21.5 19.5 19.2614 19.5 16.5V14.9852C20.5143 14.6666 21.25 13.719 21.25 12.5996C21.25 11.2189 20.1307 10.0996 18.75 10.0996C17.3693 10.0996 16.25 11.2189 16.25 12.5996C16.25 13.719 16.9857 14.6666 18 14.9852L18 16.5C18 18.433 16.433 20 14.5 20C12.567 20 11 18.433 11 16.5L11 12.4515C13.8213 12.084 16 9.67145 16 6.75L16 4.25C16 3.00736 14.9926 2 13.75 2H13.5C13.0858 2 12.75 2.33579 12.75 2.75C12.75 3.16421 13.0858 3.5 13.5 3.5H13.75C14.1642 3.5 14.5 3.83579 14.5 4.25L14.5 6.75C14.5 9.09721 12.5972 11 10.25 11C7.90279 11 6 9.09721 6 6.75L6 4.25C6 3.83579 6.33579 3.5 6.75 3.5Z" fill="#323544"/>
</svg>
