<svg width="24" height="25" viewBox="0 0 24 25" fill="none" xmlns="http://www.w3.org/2000/svg">
<path d="M6.66862 4.66466C6.3981 5.33295 6.25 6.06198 6.25 6.82129C6.25 9.99693 8.82436 12.5713 12 12.5713C15.1756 12.5713 17.75 9.99693 17.75 6.82129C17.75 6.06198 17.6019 5.33295 17.3314 4.66466C17.3187 4.6334 17.3058 4.60228 17.2926 4.57129H18.5C19.7426 4.57129 20.75 5.57865 20.75 6.82129V18.5713C20.75 19.8139 19.7426 20.8213 18.5 20.8213H5.5C4.25736 20.8213 3.25 19.8139 3.25 18.5713V6.82129C3.25 5.57865 4.25736 4.57129 5.5 4.57129H6.70738C6.69419 4.60228 6.68127 4.6334 6.66862 4.66466Z" fill="#323544"/>
<path d="M7.59556 5.03988C7.70661 4.76556 7.84266 4.50375 8.00077 4.25759C8.02336 4.22242 8.04639 4.18757 8.06987 4.15306C8.92409 2.89722 10.365 2.07129 12 2.07129C13.8103 2.07129 15.3826 3.0838 16.1841 4.57129C16.2658 4.72275 16.3394 4.87913 16.4044 5.03988C16.6275 5.59098 16.75 6.19276 16.75 6.82129C16.75 9.44464 14.6234 11.5713 12 11.5713C9.37665 11.5713 7.25 9.44464 7.25 6.82129C7.25 6.54397 7.27384 6.27186 7.31965 6.00702C7.37766 5.6716 7.4709 5.34783 7.59556 5.03988ZM13.5303 6.35162C13.8232 6.05873 13.8232 5.58385 13.5303 5.29096C13.2374 4.99807 12.7626 4.99807 12.4697 5.29096L11.4697 6.29096C11.1768 6.58385 11.1768 7.05873 11.4697 7.35162C11.7626 7.64451 12.2374 7.64451 12.5303 7.35162L13.5303 6.35162Z" fill="#323544"/>
</svg>
