<svg width="24" height="25" viewBox="0 0 24 25" fill="none" xmlns="http://www.w3.org/2000/svg">
<path d="M3.375 2.5C2.96079 2.5 2.625 2.83579 2.625 3.25C2.625 3.66421 2.96079 4 3.375 4H4.875C5.28921 4 5.625 4.33579 5.625 4.75V9.60151C5.68053 9.58033 5.73639 9.55982 5.79257 9.54C6.54295 9.27516 7.34865 9.13184 8.18405 9.13184C10.4296 9.13184 12.4353 10.1642 13.7498 11.7733C14.2036 12.3287 14.5761 12.9541 14.8488 13.6304H16.875V17.878C16.0011 18.1869 15.375 19.0203 15.375 20C15.375 21.2426 16.3824 22.25 17.625 22.25C18.7399 22.25 19.6654 21.4391 19.8439 20.375H21.25C21.6642 20.375 22 20.0392 22 19.625C22 19.2108 21.6642 18.875 21.25 18.875H19.574C19.3078 18.4148 18.8833 18.0577 18.375 17.878V9.125C18.375 7.88236 17.3676 6.875 16.125 6.875H7.125V4.75C7.125 3.50736 6.11764 2.5 4.875 2.5H3.375Z" fill="#323544"/>
<path d="M13.7559 13.6304C13.5437 13.1907 13.2809 12.78 12.9754 12.4059C11.8425 11.0192 10.1166 10.1318 8.18405 10.1318C7.46358 10.1318 6.77035 10.2554 6.12539 10.483C5.95505 10.5431 5.78813 10.6105 5.625 10.6847C3.48745 11.6577 2 13.8122 2 16.3159C2 19.7312 4.76869 22.4999 8.18405 22.4999C11.5994 22.4999 14.3681 19.7312 14.3681 16.3159C14.3681 15.3541 14.1481 14.4428 13.7559 13.6304Z" fill="#323544"/>
</svg>
