<svg width="25" height="24" viewBox="0 0 25 24" fill="none" xmlns="http://www.w3.org/2000/svg">
<path fill-rule="evenodd" clip-rule="evenodd" d="M9.0625 18.0453C9.01679 16.914 8.26885 15.8509 7.26013 14.8658C5.86655 13.5048 5 11.6029 5 9.49987C5 5.35781 8.35781 2 12.4999 2C16.6419 2 19.9997 5.35781 19.9997 9.49987C19.9997 11.6027 19.1333 13.5046 17.7399 14.8655C16.6988 15.8824 15.9355 16.9822 15.9355 18.1544V19.75C15.9355 20.9926 14.9282 22 13.6855 22H11.3125C10.0699 22 9.0625 20.9926 9.0625 19.75V18.0453ZM6.5 9.49987C6.5 6.18624 9.18624 3.5 12.4999 3.5C15.8135 3.5 18.4997 6.18624 18.4997 9.49987C18.4997 11.1824 17.8082 12.7021 16.6918 13.7925C15.9506 14.5164 15.1802 15.4257 14.7589 16.5H13.25V11.8412C13.5571 11.7329 13.8453 11.5559 14.0909 11.3103L14.9363 10.4649C15.2292 10.172 15.2292 9.69713 14.9363 9.40424C14.6434 9.11135 14.1686 9.11135 13.8757 9.40424L13.0303 10.2497C12.7374 10.5425 12.2625 10.5425 11.9696 10.2497L11.124 9.40421C10.8311 9.11133 10.3563 9.11136 10.0634 9.40427C9.77051 9.69719 9.77054 10.1721 10.0635 10.4649L10.909 11.3104C11.1547 11.556 11.4429 11.7329 11.75 11.8412L11.75 16.5H10.2412C9.81983 15.4258 9.04933 14.5165 8.30817 13.7927C7.19168 12.7023 6.5 11.1825 6.5 9.49987ZM10.5625 18.2129C10.564 18.1938 10.5647 18.1744 10.5647 18.1549C10.5647 18.1088 10.564 18.063 10.5625 18.0175V18H14.4355V19.75C14.4355 20.1642 14.0998 20.5 13.6855 20.5H11.3125C10.8983 20.5 10.5625 20.1642 10.5625 19.75V18.2129Z" fill="#323544"/>
</svg>
