<svg width="24" height="24" viewBox="0 0 24 24" fill="none" xmlns="http://www.w3.org/2000/svg">
<path opacity="0.4" d="M12 2.5957C12.1641 2.5957 12.3272 2.60018 12.4893 2.6084C17.5086 2.86304 21.5 7.01309 21.5 12.0957C21.5 17.1783 17.5086 21.3284 12.4893 21.583C12.3272 21.5912 12.1641 21.5957 12 21.5957C11.9027 21.5957 11.8056 21.5947 11.709 21.5918C10.2608 21.5482 8.89391 21.1803 7.67871 20.5586C4.60456 18.9855 2.5 15.7861 2.5 12.0957C2.5 7.01309 6.49142 2.86304 11.5107 2.6084C11.6728 2.60018 11.8359 2.5957 12 2.5957Z" fill="#323544"/>
<path d="M4.77303 18.2617L2.71969 20.3151C2.50519 20.5296 2.44103 20.8521 2.55711 21.1324C2.6732 21.4127 2.94668 21.5954 3.25002 21.5954H12C10.4437 21.5954 8.97486 21.2212 7.67846 20.5578C6.56469 19.9879 5.57824 19.2045 4.77303 18.2617Z" fill="#323544"/>
</svg>
