<svg width="24" height="24" viewBox="0 0 24 24" fill="none" xmlns="http://www.w3.org/2000/svg">
<path d="M3.73586 4.5C2.7772 4.5 2.00008 5.27724 2.00025 6.2359L2.00024 6.26829C2.01058 6.81904 2.28193 7.33272 2.73193 7.65165L2.7428 7.65929L10.713 13.2171C11.3896 13.689 12.2608 13.7479 12.9861 13.3941C13.0897 13.3435 13.1903 13.2845 13.287 13.2171L21.2569 7.65949C21.7224 7.33485 21.9998 6.8031 21.9998 6.23554C21.9996 5.27702 21.2229 4.5 20.2644 4.5H3.73586Z" fill="#323544"/>
<path opacity="0.4" d="M22.0001 8.96973L14.145 14.4473C12.8562 15.346 11.1438 15.346 9.85507 14.4473L2.00023 8.96991L2 17.2498C2 18.4924 3.00736 19.4998 4.25 19.4998H19.75C20.9926 19.4998 22 18.4924 22 17.2498L22.0001 8.96973Z" fill="#323544"/>
</svg>
