<svg width="24" height="24" viewBox="0 0 24 24" fill="none" xmlns="http://www.w3.org/2000/svg">
<path d="M4.2651 3.25746C5.54096 1.98162 7.69841 2.37284 8.44505 4.01545L10.0663 7.58226C10.3003 8.09692 10.3541 8.71028 10.2266 9.26608C10.0981 9.82666 9.76326 10.4057 9.14316 10.7236L6.34302 12.1591L5.00377 12.8457C4.87732 12.6403 4.75519 12.4329 4.63739 12.2237C3.60119 10.3839 2.90066 8.40653 2.53555 6.38117C2.39683 5.6117 2.67056 4.85191 3.1969 4.32559L4.2651 3.25746ZM11.1544 18.9963C11.3598 19.1228 11.5672 19.2449 11.7764 19.3627C13.6162 20.3989 15.5936 21.0994 17.6189 21.4645C18.3884 21.6032 19.1482 21.3295 19.6745 20.8032L20.7427 19.735C22.0185 18.4592 21.6273 16.3017 19.9847 15.555L16.4179 13.9338C15.9032 13.6998 15.2898 13.646 14.734 13.7735C14.1735 13.902 13.5945 14.2368 13.2766 14.8569L11.841 17.6571L11.1544 18.9963Z" fill="#323544"/>
<path opacity="0.4" d="M11.8409 17.6571C10.7542 16.9779 9.72626 16.1655 8.78036 15.2196C7.83449 14.2738 7.02214 13.2459 6.34291 12.1592L5.00366 12.8458C5.75603 14.0681 6.66153 15.2221 7.7197 16.2803C8.77789 17.3385 9.93198 18.244 11.1543 18.9964L11.8409 17.6571Z" fill="#323544"/>
</svg>
