<svg width="24" height="24" viewBox="0 0 24 24" fill="none" xmlns="http://www.w3.org/2000/svg">
<path d="M9.40431 5.02115L10.0481 7.01934C10.0989 7.17723 10.1502 7.40219 10.119 7.65893C10.0253 8.4276 9.51225 9.0909 8.77425 9.36766L6.08207 10.3772C4.71176 10.8911 3.25 9.87809 3.25 8.41459V7.306C3.25 6.69945 3.53022 6.09966 4.05922 5.73225C5.31766 4.85823 6.72754 4.18597 8.24183 3.76283C9.43829 3.42851 10.6989 3.25 12.0001 3.25C13.3012 3.25 14.5618 3.42851 15.7583 3.76282C17.2726 4.18595 18.6825 4.85822 19.9409 5.73224C20.4699 6.09966 20.7502 6.69948 20.7501 7.30605L20.7501 8.41461C20.7501 9.87809 19.2884 10.8911 17.918 10.3772L15.2259 9.36766C14.4879 9.0909 13.9748 8.4276 13.8812 7.65893C13.8499 7.40219 13.9012 7.17723 13.9521 7.01934L14.5958 5.02114C13.7591 4.84354 12.8909 4.75 12.0001 4.75C11.1093 4.75 10.241 4.84355 9.40431 5.02115Z" fill="#323544"/>
<path opacity="0.4" d="M9.99277 10.5307C11.2782 9.99887 12.7221 9.99887 14.0075 10.5307L18.823 12.5234C19.4949 12.8014 19.9911 13.3871 20.1549 14.0956L21.0559 17.9931C21.3819 19.4032 20.3111 20.7499 18.8638 20.7499H5.13647C3.68916 20.7499 2.61829 19.4032 2.9443 17.9931L3.84536 14.0956C4.00917 13.3871 4.5053 12.8014 5.17725 12.5234L9.99277 10.5307ZM9.25 15.5116C9.25 17.0304 10.4812 18.2616 12 18.2616C13.5188 18.2616 14.75 17.0304 14.75 15.5116C14.75 13.9928 13.5188 12.7616 12 12.7616C10.4812 12.7616 9.25 13.9928 9.25 15.5116Z" fill="#323544"/>
</svg>
