<svg width="25" height="25" viewBox="0 0 25 25" fill="none" xmlns="http://www.w3.org/2000/svg">
<path d="M4.05469 16.25C4.05469 15.8358 4.39047 15.5 4.80469 15.5C5.2189 15.5 5.55469 15.8358 5.55469 16.25V19.5H8.80469L8.88086 19.5039C9.25912 19.5422 9.55469 19.8616 9.55469 20.25C9.55469 20.6384 9.25912 20.9578 8.88086 20.9961L8.80469 21H4.80469C4.39047 21 4.05469 20.6642 4.05469 20.25V16.25ZM20.0537 16.25C20.0537 15.8358 20.3895 15.5 20.8037 15.5C21.2177 15.5003 21.5537 15.8359 21.5537 16.25V20.25C21.5537 20.4488 21.4745 20.6396 21.334 20.7803C21.1934 20.9208 21.0025 20.9999 20.8037 21H16.8037C16.3895 21 16.0537 20.6642 16.0537 20.25C16.0537 19.8358 16.3895 19.5 16.8037 19.5H20.0537V16.25ZM4.05469 8.25L4.05273 4.25C4.05273 4.05116 4.13188 3.86037 4.27246 3.71973C4.41311 3.57908 4.60382 3.5 4.80273 3.5H8.80469L8.88086 3.50391C9.25912 3.54225 9.55469 3.86163 9.55469 4.25C9.55469 4.63837 9.25912 4.95775 8.88086 4.99609L8.80469 5H5.55273L5.55469 8.25C5.55469 8.66405 5.21878 8.9998 4.80469 9C4.39064 9 4.05489 8.66409 4.05469 8.25ZM20.0537 8.25V5H16.8037C16.3895 5 16.0537 4.66421 16.0537 4.25C16.0537 3.83579 16.3895 3.5 16.8037 3.5H20.8037L20.8799 3.50391C21.2581 3.5423 21.5537 3.86167 21.5537 4.25V8.25C21.5537 8.66405 21.2177 8.99974 20.8037 9C20.3895 9 20.0537 8.66421 20.0537 8.25Z" fill="#323544"/>
<path opacity="0.4" d="M12.8027 11.1895L18.9922 5H20.0537V6.06055L13.8643 12.25L20.0537 18.4395V19.5H18.9922L12.8027 13.3105L6.61523 19.5H5.55469V18.4385L11.7422 12.25L5.55273 6.06055V5H6.61328L12.8027 11.1895Z" fill="#323544"/>
</svg>
