<svg width="25" height="25" viewBox="0 0 25 25" fill="none" xmlns="http://www.w3.org/2000/svg">
<path d="M9.3125 19.1406V14.2354C9.3125 13.8211 9.64829 13.4854 10.0625 13.4854C10.4767 13.4854 10.8125 13.8211 10.8125 14.2354V19.1406C10.8125 19.404 10.9509 19.6477 11.1768 19.7832L12.6836 20.6885L12.748 20.7158C12.9002 20.7571 13.0625 20.6436 13.0625 20.4736V14.2354C13.0625 13.8211 13.3983 13.4854 13.8125 13.4854C14.2267 13.4854 14.5625 13.8211 14.5625 14.2354V20.4736C14.5625 21.7914 13.17 22.6209 12.0225 22.0352L11.9121 21.9746L10.4053 21.0703C9.72758 20.6637 9.31253 19.9309 9.3125 19.1406Z" fill="#323544"/>
<path opacity="0.4" d="M17.5625 2.22852C18.8051 2.22852 19.8125 3.23588 19.8125 4.47852V5.83887C19.8125 6.5585 19.6058 7.26107 19.2197 7.86328L19.043 8.11523L14.7168 13.7803C14.617 13.9109 14.5626 14.071 14.5625 14.2354C14.5625 13.8211 14.2267 13.4854 13.8125 13.4854C13.3983 13.4854 13.0625 13.8211 13.0625 14.2354C13.0626 13.742 13.225 13.2622 13.5244 12.8701L17.8506 7.20508L17.957 7.05371C18.1887 6.69239 18.3125 6.27065 18.3125 5.83887V4.47852C18.3125 4.0643 17.9767 3.72852 17.5625 3.72852H6.3125C5.89829 3.72852 5.5625 4.0643 5.5625 4.47852V5.83887C5.5625 6.33238 5.7249 6.81285 6.02441 7.20508L10.3506 12.8701L10.457 13.0215C10.6885 13.3826 10.8124 13.8038 10.8125 14.2354C10.8125 13.8211 10.4767 13.4854 10.0625 13.4854C9.64829 13.4854 9.3125 13.8211 9.3125 14.2354C9.31243 14.1121 9.28188 13.9915 9.22461 13.8838L9.1582 13.7803L4.83203 8.11523C4.33284 7.46153 4.0625 6.66138 4.0625 5.83887V4.47852C4.0625 3.23588 5.06986 2.22852 6.3125 2.22852H17.5625Z" fill="#323544"/>
</svg>
