<svg width="24" height="24" viewBox="0 0 24 24" fill="none" xmlns="http://www.w3.org/2000/svg">
<path d="M4.00781 4.75C3.31746 4.75 2.75781 5.30964 2.75781 6C2.75781 6.69036 3.31746 7.25 4.00781 7.25H4.01781C4.70817 7.25 5.26781 6.69036 5.26781 6C5.26781 5.30964 4.70817 4.75 4.01781 4.75H4.00781Z" fill="#323544"/>
<path d="M2.75781 12C2.75781 11.3096 3.31746 10.75 4.00781 10.75H4.01781C4.70817 10.75 5.26781 11.3096 5.26781 12C5.26781 12.6904 4.70817 13.25 4.01781 13.25H4.00781C3.31746 13.25 2.75781 12.6904 2.75781 12Z" fill="#323544"/>
<path d="M4.00781 16.75C3.31746 16.75 2.75781 17.3096 2.75781 18C2.75781 18.6904 3.31746 19.25 4.00781 19.25H4.01781C4.70817 19.25 5.26781 18.6904 5.26781 18C5.26781 17.3096 4.70817 16.75 4.01781 16.75H4.00781Z" fill="#323544"/>
<g opacity="0.4">
<path d="M7.99805 5.25C7.58383 5.25 7.24805 5.58579 7.24805 6C7.24805 6.41421 7.58383 6.75 7.99805 6.75L19.998 6.75C20.4123 6.75 20.748 6.41421 20.748 6C20.748 5.58579 20.4123 5.25 19.998 5.25H7.99805Z" fill="#323544"/>
<path d="M7.99805 17.25C7.58383 17.25 7.24805 17.5858 7.24805 18C7.24805 18.4142 7.58383 18.75 7.99805 18.75L19.998 18.75C20.4123 18.75 20.748 18.4142 20.748 18C20.748 17.5858 20.4123 17.25 19.998 17.25L7.99805 17.25Z" fill="#323544"/>
<path d="M7.24805 12C7.24805 11.5858 7.58383 11.25 7.99805 11.25L19.998 11.25C20.4123 11.25 20.748 11.5858 20.748 12C20.748 12.4142 20.4123 12.75 19.998 12.75L7.99805 12.75C7.58383 12.75 7.24805 12.4142 7.24805 12Z" fill="#323544"/>
</g>
</svg>
