<svg width="24" height="24" viewBox="0 0 24 24" fill="none" xmlns="http://www.w3.org/2000/svg">
<path d="M6 13.7561C5.0335 13.7561 4.25 12.9726 4.25 12.0061V11.9961C4.25 11.0296 5.0335 10.2461 6 10.2461C6.9665 10.2461 7.75 11.0296 7.75 11.9961V12.0061C7.75 12.9726 6.9665 13.7561 6 13.7561Z" fill="#323544"/>
<path d="M18 13.7561C17.0335 13.7561 16.25 12.9726 16.25 12.0061V11.9961C16.25 11.0296 17.0335 10.2461 18 10.2461C18.9665 10.2461 19.75 11.0296 19.75 11.9961V12.0061C19.75 12.9726 18.9665 13.7561 18 13.7561Z" fill="#323544"/>
<path opacity="0.4" d="M10.25 12.0061C10.25 12.9726 11.0335 13.7561 12 13.7561C12.9665 13.7561 13.75 12.9726 13.75 12.0061V11.9961C13.75 11.0296 12.9665 10.2461 12 10.2461C11.0335 10.2461 10.25 11.0296 10.25 11.9961V12.0061Z" fill="#323544"/>
</svg>
