<svg width="24" height="24" viewBox="0 0 24 24" fill="none" xmlns="http://www.w3.org/2000/svg">
<path d="M6.00607 14.2485C4.76439 14.2485 3.75781 13.2419 3.75781 12.0002C3.75781 10.7585 4.76439 9.75195 6.00607 9.75195C7.24774 9.75195 8.25432 10.7585 8.25432 12.0002C8.25432 13.2419 7.24774 14.2485 6.00607 14.2485ZM5.25781 12.0002C5.25781 12.4135 5.59282 12.7485 6.00607 12.7485C6.41931 12.7485 6.75432 12.4135 6.75432 12.0002C6.75432 11.587 6.41931 11.252 6.00607 11.252C5.59282 11.252 5.25781 11.587 5.25781 12.0002Z" fill="#323544"/>
<path d="M15.751 12.0002C15.751 13.2419 16.7576 14.2485 17.9992 14.2485C19.2409 14.2485 20.2475 13.2419 20.2475 12.0002C20.2475 10.7585 19.2409 9.75195 17.9992 9.75195C16.7576 9.75195 15.751 10.7585 15.751 12.0002ZM17.9992 12.7485C17.586 12.7485 17.251 12.4135 17.251 12.0002C17.251 11.587 17.586 11.252 17.9992 11.252C18.4125 11.252 18.7475 11.587 18.7475 12.0002C18.7475 12.4135 18.4125 12.7485 17.9992 12.7485Z" fill="#323544"/>
<path opacity="0.4" d="M12.0022 14.2485C10.7605 14.2485 9.75391 13.2419 9.75391 12.0002C9.75391 10.7585 10.7605 9.75195 12.0022 9.75195C13.2438 9.75195 14.2504 10.7585 14.2504 12.0002C14.2504 13.2419 13.2438 14.2485 12.0022 14.2485ZM11.2539 12.0002C11.2539 12.4135 11.5889 12.7485 12.0022 12.7485C12.4154 12.7485 12.7504 12.4135 12.7504 12.0002C12.7504 11.587 12.4154 11.252 12.0022 11.252C11.5889 11.252 11.2539 11.587 11.2539 12.0002Z" fill="#323544"/>
</svg>
