<svg width="24" height="24" viewBox="0 0 24 24" fill="none" xmlns="http://www.w3.org/2000/svg">
<path opacity="0.4" d="M19.6248 12.8746C19.6248 9.44679 17.3628 6.54725 14.25 5.58726V4.02934C18.2014 5.03142 21.1248 8.61163 21.1248 12.8746C21.1248 17.9141 17.0394 21.9995 11.9999 21.9995C6.96043 21.9995 2.875 17.9141 2.875 12.8746C2.875 8.61157 5.79852 5.03132 9.75 4.0293V5.5872C6.63713 6.54714 4.375 9.44673 4.375 12.8746C4.375 17.0857 7.78883 20.4995 11.9999 20.4995C16.211 20.4995 19.6248 17.0857 19.6248 12.8746Z" fill="#323544"/>
<path d="M11.25 13.42C11.25 13.8342 11.5858 14.17 12 14.17C12.4142 14.17 12.75 13.8342 12.75 13.42V2.75C12.75 2.33579 12.4142 2 12 2C11.5858 2 11.25 2.33579 11.25 2.75V13.42Z" fill="#323544"/>
</svg>
