<svg width="25" height="25" viewBox="0 0 25 25" fill="none" xmlns="http://www.w3.org/2000/svg">
<path d="M16.397 15.3122C16.7088 15.2094 17.0421 15.1537 17.3883 15.1537C19.1345 15.1537 20.5501 16.5693 20.5501 18.3155C20.5501 20.0617 19.1345 21.4772 17.3883 21.4772C15.6421 21.4772 14.2266 20.0617 14.2266 18.3155C14.2266 17.4572 14.5686 16.6787 15.1238 16.109L12.9615 13.0212L10.8164 16.0847C11.3857 16.6565 11.7376 17.4449 11.7376 18.3155C11.7376 20.0617 10.322 21.4772 8.57582 21.4772C6.82963 21.4772 5.41406 20.0617 5.41406 18.3155C5.41406 16.5693 6.82963 15.1537 8.57582 15.1537C8.90975 15.1537 9.23159 15.2055 9.53375 15.3014L12.0459 11.7136L6.79196 4.21053C6.55437 3.87124 6.63682 3.40357 6.97612 3.16598C7.31542 2.92839 7.78308 3.01084 8.02067 3.35014L16.397 15.3122ZM8.57582 16.6537C7.65806 16.6537 6.91406 17.3977 6.91406 18.3155C6.91406 19.2332 7.65806 19.9772 8.57582 19.9772C9.49358 19.9772 10.2376 19.2332 10.2376 18.3155C10.2376 17.3977 9.49358 16.6537 8.57582 16.6537ZM15.7266 18.3155C15.7266 19.2332 16.4706 19.9772 17.3883 19.9772C18.3061 19.9772 19.0501 19.2332 19.0501 18.3155C19.0501 17.3977 18.3061 16.6537 17.3883 16.6537C16.4706 16.6537 15.7266 17.3977 15.7266 18.3155Z" fill="#323544"/>
<path opacity="0.4" d="M19.1676 4.15876L14.7193 10.5116L13.8037 9.20402L17.9389 3.2984C18.1765 2.95909 18.6441 2.87663 18.9834 3.11422C19.3227 3.3518 19.4052 3.81946 19.1676 4.15876Z" fill="#323544"/>
</svg>
