<svg width="24" height="25" viewBox="0 0 24 25" fill="none" xmlns="http://www.w3.org/2000/svg">
<path opacity="0.4" d="M14.25 6.80273C14.6642 6.80273 15 7.13852 15 7.55273C15 7.96695 14.6642 8.30273 14.25 8.30273C8.6959 8.30274 4.12606 12.5149 3.55957 17.9189C5.65706 14.181 9.65819 11.6553 14.25 11.6553C14.6642 11.6553 15 11.9911 15 12.4053C15 12.8195 14.6642 13.1553 14.25 13.1553C9.25314 13.1553 5.05095 16.5652 3.84668 21.1855L3.73926 21.6367C3.66494 21.9821 3.36007 22.2283 3.00684 22.2285C2.65341 22.2285 2.34778 21.9822 2.27344 21.6367C2.09441 20.8031 2 19.9384 2 19.0527C2.00001 12.2873 7.48452 6.80274 14.25 6.80273Z" fill="#323544"/>
<path d="M13.5 7.55305V2.97883L13.5088 2.86653C13.5477 2.60949 13.7177 2.38702 13.9629 2.28547C14.2431 2.16943 14.5658 2.23408 14.7803 2.44856L21.7803 9.44856C21.9209 9.58921 22 9.77992 22 9.97883C22 10.1777 21.9209 10.3685 21.7803 10.5091L14.7803 17.5091C14.5658 17.7236 14.2431 17.7882 13.9629 17.6722C13.6826 17.5561 13.5 17.2822 13.5 16.9788V12.4046C13.5002 11.9906 13.8359 11.6546 14.25 11.6546C14.6641 11.6546 14.9998 11.9906 15 12.4046V15.1683L20.1895 9.97883L15 4.78938V7.55305L14.9961 7.62922C14.9577 8.00743 14.6383 8.30305 14.25 8.30305C13.8617 8.30305 13.5423 8.00743 13.5039 7.62922L13.5 7.55305Z" fill="#323544"/>
</svg>
