<svg width="24" height="24" viewBox="0 0 24 24" fill="none" xmlns="http://www.w3.org/2000/svg">
<path d="M13.5 2H6.75C5.50736 2 4.5 3.00736 4.5 4.25V8.16687H13.5V2Z" fill="#323544"/>
<path d="M4.5 9.66687V14.3334H13.5V9.66687H4.5Z" fill="#323544"/>
<path d="M4.5 15.8334V19.75C4.5 20.9926 5.50736 22 6.75 22H7.5V22.75C7.5 23.1642 7.83579 23.5 8.25 23.5C8.66421 23.5 9 23.1642 9 22.75V22H13.5V15.8334H4.5Z" fill="#323544"/>
<g opacity="0.4">
<path d="M15 22H17.25C18.4926 22 19.5 20.9926 19.5 19.75V15.8334H15V22Z" fill="#323544"/>
<path d="M19.5 14.3334V9.66687H15V14.3334H19.5Z" fill="#323544"/>
<path d="M19.5 8.16687V4.25C19.5 3.00736 18.4926 2 17.25 2H15V8.16687H19.5Z" fill="#323544"/>
</g>
</svg>
