<svg width="24" height="25" viewBox="0 0 24 25" fill="none" xmlns="http://www.w3.org/2000/svg">
<g opacity="0.4">
<path d="M12 2.5C11.0335 2.5 10.25 3.2835 10.25 4.25C10.25 5.2165 11.0335 6 12 6H12.01C12.9765 6 13.76 5.2165 13.76 4.25C13.76 3.2835 12.9765 2.5 12.01 2.5H12Z" fill="#323544"/>
<path d="M7.5 15C6.5335 15 5.75 15.7835 5.75 16.75C5.75 17.7165 6.5335 18.5 7.5 18.5H7.51C8.4765 18.5 9.26 17.7165 9.26 16.75C9.26 15.7835 8.4765 15 7.51 15H7.5Z" fill="#323544"/>
<path d="M16.5 15C15.5335 15 14.75 15.7835 14.75 16.75C14.75 17.7165 15.5335 18.5 16.5 18.5H16.51C17.4765 18.5 18.26 17.7165 18.26 16.75C18.26 15.7835 17.4765 15 16.51 15H16.5Z" fill="#323544"/>
<path d="M9.60703 7.22029C10.2383 6.75443 11.0342 6.5 12 6.5C12.9658 6.5 13.7617 6.75443 14.393 7.22029C15.0175 7.68115 15.4262 8.30838 15.6946 8.96698C15.7888 9.19824 15.7617 9.46123 15.6224 9.66847C15.4831 9.87571 15.2497 10 15 10H9C8.75028 10 8.51694 9.87571 8.3776 9.66847C8.23827 9.46123 8.21122 9.19824 8.30545 8.96698C8.57383 8.30838 8.98254 7.68115 9.60703 7.22029Z" fill="#323544"/>
<path d="M5.10703 19.7205C5.73829 19.2547 6.53419 19.0002 7.5 19.0002C8.46581 19.0002 9.26172 19.2547 9.89298 19.7205C10.5175 20.1814 10.9262 20.8086 11.1946 21.4672C11.2888 21.6985 11.2617 21.9615 11.1224 22.1687C10.9831 22.3759 10.7497 22.5002 10.5 22.5002H4.5C4.25028 22.5002 4.01694 22.3759 3.8776 22.1687C3.73827 21.9615 3.71122 21.6985 3.80545 21.4672C4.07383 20.8086 4.48254 20.1814 5.10703 19.7205Z" fill="#323544"/>
<path d="M14.107 19.7205C14.7383 19.2547 15.5342 19.0002 16.5 19.0002C17.4658 19.0002 18.2617 19.2547 18.893 19.7205C19.5175 20.1814 19.9262 20.8086 20.1946 21.4672C20.2888 21.6985 20.2617 21.9615 20.1224 22.1687C19.9831 22.3759 19.7497 22.5002 19.5 22.5002H13.5C13.2503 22.5002 13.0169 22.3759 12.8776 22.1687C12.7383 21.9615 12.7112 21.6985 12.8055 21.4672C13.0738 20.8086 13.4825 20.1814 14.107 19.7205Z" fill="#323544"/>
</g>
<path d="M12.0003 10.9199C12.4145 10.92 12.7502 11.2558 12.7501 11.6701L12.7498 13.237L14.1068 14.0204C14.4655 14.2275 14.5884 14.6862 14.3813 15.0449C14.1742 15.4036 13.7155 15.5265 13.3568 15.3194L11.9997 14.5359L10.6427 15.3194C10.284 15.5265 9.82529 15.4036 9.61818 15.0449C9.41108 14.6862 9.53398 14.2275 9.8927 14.0204L11.2498 13.2369L11.2501 11.6698C11.2502 11.2556 11.5861 10.9198 12.0003 10.9199Z" fill="#323544"/>
</svg>
