<svg width="24" height="24" viewBox="0 0 24 24" fill="none" xmlns="http://www.w3.org/2000/svg">
<path d="M22 3.19922C22 2.78501 21.6642 2.44922 21.25 2.44922C20.8358 2.44922 20.5 2.78501 20.5 3.19922V3.45974L11.0811 6.60698L11.0811 14.7911L20.5 17.9387V18.1992C20.5 18.6134 20.8358 18.9492 21.25 18.9492C21.6642 18.9492 22 18.6134 22 18.1992V3.19922Z" fill="#323544"/>
<path d="M4.25 6.89833H9.58105L9.58106 14.4997H4.25C3.00736 14.4997 2 13.4923 2 12.2497V9.14833C2 7.90569 3.00736 6.89833 4.25 6.89833Z" fill="#323544"/>
<path opacity="0.4" d="M10.0464 15.4995H6.86279L7.15984 17.5949C7.31473 18.6875 8.25001 19.4995 9.35349 19.4995C10.7213 19.4995 11.7624 18.2724 11.5395 16.9229L11.3778 15.9445L10.0464 15.4995Z" fill="#323544"/>
</svg>
