<svg width="24" height="25" viewBox="0 0 24 25" fill="none" xmlns="http://www.w3.org/2000/svg">
<path d="M15.2027 7.02911C15.2027 4.32064 13.0071 2.125 10.2986 2.125V4.375C11.7644 4.375 12.9527 5.56329 12.9527 7.02911C12.9525 9.08246 12.9526 11.1358 12.9527 13.1892C12.9527 14.2158 12.9527 15.2425 12.9527 16.2692C12.9527 16.7949 12.5265 17.2211 12.0008 17.2211C11.475 17.2211 11.0488 16.7949 11.0488 16.2692V8.15388C11.0488 7.53256 10.5451 7.02888 9.92383 7.02888C9.30251 7.02888 8.79883 7.53256 8.79883 8.15388V16.2692C8.79883 18.0376 10.2324 19.4711 12.0008 19.4711C13.7692 19.4711 15.2027 18.0376 15.2027 16.2692V7.02911Z" fill="#323544"/>
<path opacity="0.4" d="M10.2987 2.125C7.59036 2.125 5.39476 4.3205 5.39462 7.02887C5.39457 10.109 5.39481 16.2692 5.39481 16.2692C5.39481 19.9175 8.35233 22.875 12.0006 22.875C15.6489 22.875 18.6064 19.9175 18.6064 16.2692V10.0578C18.6064 9.43643 18.1028 8.93275 17.4814 8.93275C16.8601 8.93275 16.3564 9.43643 16.3564 10.0578V16.2692C16.3564 18.6748 14.4063 20.625 12.0006 20.625C9.59498 20.625 7.64481 18.6748 7.64481 16.2692V10.0578L7.64453 10.0325L7.64462 7.02898C7.64469 5.56321 8.83296 4.375 10.2987 4.375V2.125Z" fill="#323544"/>
</svg>
