<svg width="24" height="24" viewBox="0 0 24 24" fill="none" xmlns="http://www.w3.org/2000/svg">
<g opacity="0.4">
<path d="M11.9987 2.50098C9.90753 2.50098 7.87482 3.19099 6.2158 4.464C4.55679 5.737 3.36418 7.52186 2.82295 9.54175C2.71575 9.94185 2.95318 10.3531 3.35328 10.4603C3.75338 10.5675 4.16464 10.3301 4.27184 9.92998C4.72761 8.22904 5.73189 6.72602 7.12894 5.65403C8.52599 4.58203 10.2377 4.00098 11.9987 4.00098C13.7596 4.00098 15.4714 4.58203 16.8684 5.65403C17.6572 6.25932 18.3209 7.00205 18.8312 7.84024L17.2785 8.27435C16.9864 8.35603 16.7722 8.60564 16.7359 8.90679C16.6996 9.20794 16.8482 9.50134 17.1125 9.65017L20.1932 11.3849C20.3665 11.4825 20.5716 11.5072 20.7631 11.4537C20.9547 11.4001 21.1172 11.2727 21.2147 11.0993L22.9494 8.01828C23.0982 7.75395 23.0731 7.426 22.8859 7.18735C22.6986 6.9487 22.386 6.84636 22.0939 6.92804L20.3227 7.42325C19.6933 6.27881 18.8307 5.26905 17.7815 4.464C16.1225 3.19099 14.0898 2.50098 11.9987 2.50098Z" fill="#323544"/>
<path d="M3.79708 12.6155C3.62374 12.5179 3.41874 12.4932 3.22716 12.5467C3.03559 12.6003 2.87314 12.7278 2.77555 12.9011L1.04092 15.9821C0.892101 16.2465 0.917165 16.5744 1.10443 16.8131C1.29169 17.0517 1.60427 17.1541 1.89641 17.0724L3.67631 16.5747C4.30571 17.72 5.16874 18.7305 6.21852 19.536C7.87753 20.809 9.91024 21.499 12.0014 21.499C14.0925 21.499 16.1252 20.809 17.7843 19.536C19.4433 18.263 20.6359 16.4781 21.1771 14.4582C21.2843 14.0581 21.0469 13.6469 20.6468 13.5397C20.2467 13.4325 19.8354 13.6699 19.7282 14.07C19.2724 15.7709 18.2682 17.274 16.8711 18.346C15.4741 19.418 13.7623 19.999 12.0014 19.999C10.2404 19.999 8.52871 19.418 7.13166 18.346C6.3422 17.7402 5.67816 16.9968 5.16764 16.1578L6.71174 15.7261C7.00388 15.6444 7.21805 15.3948 7.25439 15.0936C7.29074 14.7925 7.1421 14.4991 6.87778 14.3502L3.79708 12.6155Z" fill="#323544"/>
</g>
<path d="M12.7498 8.55859C12.7498 8.14438 12.414 7.80859 11.9998 7.80859C11.5856 7.80859 11.2498 8.14438 11.2498 8.55859V8.79485C10.4899 9.07249 9.94751 9.8018 9.94751 10.6578C9.94751 11.4843 10.4602 12.2241 11.2341 12.5143L12.2389 12.8912C12.4273 12.9619 12.5522 13.142 12.5522 13.3432C12.5522 13.6099 12.336 13.826 12.0694 13.826H11.6743C11.5491 13.826 11.4475 13.7245 11.4475 13.5992C11.4475 13.185 11.1117 12.8492 10.6975 12.8492C10.2833 12.8492 9.94751 13.185 9.94751 13.5992C9.94751 14.4064 10.5014 15.0843 11.2498 15.2735V15.4423C11.2498 15.8565 11.5856 16.1923 11.9998 16.1923C12.414 16.1923 12.7498 15.8565 12.7498 15.4423V15.2062C13.5097 14.9286 14.0522 14.1992 14.0522 13.3432C14.0522 12.5167 13.5395 11.7769 12.7656 11.4867L11.7608 11.1099C11.5723 11.0392 11.4475 10.8591 11.4475 10.6578C11.4475 10.3912 11.6637 10.175 11.9303 10.175H12.3253C12.4506 10.175 12.5522 10.2766 12.5522 10.4018C12.5522 10.816 12.8879 11.1518 13.3022 11.1518C13.7164 11.1518 14.0522 10.816 14.0522 10.4018C14.0522 9.5946 13.4983 8.91674 12.7498 8.72757V8.55859Z" fill="#323544"/>
</svg>
