<svg width="24" height="24" viewBox="0 0 24 24" fill="none" xmlns="http://www.w3.org/2000/svg">
<path d="M7.58561 2.75879L7.58516 2.76878M10.7912 4.26016L10.7838 4.2669M3.96844 10.4912L3.96106 10.4979M2.76585 7.16998L2.75586 7.16953M4.2641 3.97126L4.25735 3.96388M5.97488 9.22207C5.39099 8.77733 5.02772 8.06291 5.06348 7.27417C5.1214 5.99695 6.20375 5.0085 7.48098 5.06642C8.00271 5.09008 8.47625 5.28467 8.84997 5.59366M13.838 6.98482C16.8686 6.98482 19.339 9.43729 19.3477 12.4659C20.4716 12.9917 21.2501 14.1326 21.2501 15.4554C21.2501 17.2772 19.7732 18.7541 17.9514 18.7541H8.0488C6.22698 18.7541 4.75011 17.2772 4.75011 15.4554C4.75011 13.6336 6.22698 12.1567 8.0488 12.1567H8.33775C8.50693 9.27211 10.9112 6.98482 13.838 6.98482Z" stroke="#323544" stroke-width="1.5" stroke-linecap="round" stroke-linejoin="round"/>
</svg>
