<svg width="24" height="24" viewBox="0 0 24 24" fill="none" xmlns="http://www.w3.org/2000/svg">
<path d="M15.511 3.33216C14.347 2.22779 12.6579 1.72522 10.9857 2.15023C9.23355 2.59554 7.9514 3.94438 7.50793 5.57003C6.3866 6.11872 5.61328 7.2707 5.61328 8.60487C5.61328 10.1949 6.71175 11.5277 8.19159 11.8867C8.57553 12.6983 9.20177 13.4071 10.0343 13.8881C11.5672 14.7738 13.4181 14.6691 14.8124 13.7616C16.3935 14.5236 18.321 13.9564 19.2258 12.4162C19.3295 12.2396 19.4157 12.057 19.4846 11.8707C20.9325 11.4896 21.9999 10.1723 21.9999 8.60487C21.9999 7.37211 21.3394 6.29492 20.3553 5.70568C20.0649 4.62198 19.2696 3.6893 18.1343 3.27164C17.2484 2.94572 16.3163 2.99294 15.511 3.33216Z" fill="#323544"/>
<path d="M4.75 20.7502C4.75 20.0598 5.30964 19.5002 6 19.5002C6.69036 19.5002 7.2501 20.0598 7.2501 20.7502C7.2501 21.4405 6.69046 22.0002 6.0001 22.0002C5.30974 22.0002 4.75 21.4405 4.75 20.7502Z" fill="#323544"/>
<path d="M9.61719 15.423C8.37455 15.423 7.36719 16.4304 7.36719 17.673C7.36719 18.9157 8.37455 19.923 9.61719 19.923C10.8598 19.923 11.8672 18.9157 11.8672 17.673C11.8672 16.4304 10.8598 15.423 9.61719 15.423Z" fill="#323544"/>
</svg>
