<svg width="24" height="24" viewBox="0 0 24 24" fill="none" xmlns="http://www.w3.org/2000/svg">
<path d="M2.50002 12.0957C2.50002 6.849 6.75332 2.5957 12 2.5957C17.2467 2.5957 21.5 6.849 21.5 12.0957C21.5 17.3424 17.2467 21.5957 12 21.5957H3.25002C2.94668 21.5957 2.6732 21.413 2.55711 21.1327C2.44103 20.8525 2.50519 20.5299 2.71969 20.3154L4.77303 18.262C3.35633 16.603 2.50002 14.4488 2.50002 12.0957ZM7.75 9.84668C7.33579 9.84668 7 10.1825 7 10.5967C7 11.0109 7.33579 11.3467 7.75 11.3467H16.25C16.6642 11.3467 17 11.0109 17 10.5967C17 10.1825 16.6642 9.84668 16.25 9.84668H7.75ZM7 13.5967C7 14.0109 7.33579 14.3467 7.75 14.3467H12.75C13.1642 14.3467 13.5 14.0109 13.5 13.5967C13.5 13.1825 13.1642 12.8467 12.75 12.8467H7.75C7.33579 12.8467 7 13.1825 7 13.5967Z" fill="#323544"/>
</svg>
