<svg width="24" height="24" viewBox="0 0 24 24" fill="none" xmlns="http://www.w3.org/2000/svg">
<path fill-rule="evenodd" clip-rule="evenodd" d="M2.5 6C2.5 4.75736 3.50736 3.75 4.75 3.75H19.25C20.4926 3.75 21.5 4.75736 21.5 6V16.5484C21.5 17.791 20.4926 18.7984 19.25 18.7984H7.635L3.75032 22.277C3.52993 22.4743 3.21411 22.5237 2.94401 22.403C2.67391 22.2823 2.5 22.0141 2.5 21.7182V6ZM12.0001 8.63281C11.4037 8.63281 10.9202 9.11633 10.9202 9.71277C10.9202 10.127 10.5844 10.4628 10.1702 10.4628C9.75595 10.4628 9.42017 10.127 9.42017 9.71277C9.42017 8.2879 10.5753 7.13281 12.0001 7.13281C13.425 7.13281 14.5801 8.2879 14.5801 9.71277C14.5801 10.5885 14.1431 11.362 13.4787 11.8272C13.2443 11.9913 13.0472 12.1531 12.9126 12.3157C12.7808 12.4748 12.7501 12.584 12.7501 12.659C12.7501 13.0732 12.4143 13.409 12.0001 13.409C11.5859 13.409 11.2501 13.0732 11.2501 12.659C11.2501 12.1175 11.4911 11.6804 11.7573 11.359C12.0205 11.0411 12.3476 10.788 12.6183 10.5985C12.899 10.4019 13.0801 10.0784 13.0801 9.71277C13.0801 9.11633 12.5966 8.63281 12.0001 8.63281ZM11.2494 14.667C11.2494 14.2528 11.5852 13.917 11.9994 13.917C12.4136 13.917 12.7501 14.2528 12.7501 14.667C12.7501 15.0812 12.4136 15.417 11.9994 15.417C11.5852 15.417 11.2494 15.0812 11.2494 14.667Z" fill="#323544"/>
</svg>
