<svg width="24" height="24" viewBox="0 0 24 24" fill="none" xmlns="http://www.w3.org/2000/svg">
<path d="M8.44505 4.01545C7.69841 2.37284 5.54096 1.98162 4.2651 3.25746L3.1969 4.32559C2.67056 4.85191 2.39683 5.6117 2.53555 6.38117C2.90066 8.40653 3.60119 10.3839 4.63739 12.2237C5.45607 13.6773 6.48379 15.0442 7.71982 16.2802C8.95586 17.5163 10.3227 18.544 11.7764 19.3627C13.6162 20.3989 15.5936 21.0994 17.6189 21.4645C18.3884 21.6032 19.1482 21.3295 19.6745 20.8032L20.7427 19.735C22.0185 18.4592 21.6273 16.3017 19.9847 15.555L16.4179 13.9338C15.9032 13.6998 15.2898 13.646 14.734 13.7735C14.1735 13.902 13.5945 14.2368 13.2766 14.8569L11.841 17.6571C10.7543 16.9778 9.72637 16.1655 8.78048 15.2196C7.8346 14.2737 7.02225 13.2458 6.34302 12.1591L9.14316 10.7236C9.76326 10.4057 10.0981 9.82666 10.2266 9.26608C10.3541 8.71028 10.3003 8.09692 10.0663 7.58226L8.44505 4.01545Z" fill="#323544"/>
</svg>
