<svg width="24" height="24" viewBox="0 0 24 24" fill="none" xmlns="http://www.w3.org/2000/svg">
<path d="M9.40443 5.02115L10.0482 7.01934C10.099 7.17723 10.1503 7.40219 10.1191 7.65893C10.0254 8.4276 9.51237 9.0909 8.77436 9.36766L6.08219 10.3772C4.71187 10.8911 3.25012 9.87809 3.25012 8.41459V7.306C3.25012 6.69945 3.53034 6.09966 4.05934 5.73225C5.31778 4.85823 6.72765 4.18597 8.24195 3.76283C9.43841 3.42851 10.6991 3.25 12.0002 3.25C13.3013 3.25 14.562 3.42851 15.7584 3.76282C17.2727 4.18595 18.6826 4.85822 19.941 5.73224C20.4701 6.09966 20.7503 6.69948 20.7503 7.30605L20.7502 8.41461C20.7502 9.87809 19.2885 10.8911 17.9182 10.3772L15.226 9.36766C14.488 9.0909 13.9749 8.4276 13.8813 7.65893C13.85 7.40219 13.9013 7.17723 13.9522 7.01934L14.5959 5.02114C13.7593 4.84354 12.891 4.75 12.0002 4.75C11.1094 4.75 10.2411 4.84355 9.40443 5.02115Z" fill="#323544"/>
<path d="M9.99277 10.5309C11.2782 9.99897 12.7221 9.99897 14.0075 10.5309L18.823 12.5235C19.4949 12.8015 19.9911 13.3872 20.1549 14.0957L21.0559 17.9932C21.3819 19.4033 20.3111 20.75 18.8638 20.75H5.13647C3.68916 20.75 2.61829 19.4033 2.9443 17.9932L3.84536 14.0957C4.00917 13.3872 4.5053 12.8015 5.17725 12.5235L9.99277 10.5309ZM9.25 15.5117C9.25 17.0305 10.4812 18.2617 12 18.2617C13.5188 18.2617 14.75 17.0305 14.75 15.5117C14.75 13.9929 13.5188 12.7617 12 12.7617C10.4812 12.7617 9.25 13.9929 9.25 15.5117Z" fill="#323544"/>
</svg>
