<svg width="25" height="25" viewBox="0 0 25 25" fill="none" xmlns="http://www.w3.org/2000/svg">
<path d="M12.4999 2.93164C8.35781 2.93164 5 6.28945 5 10.4315C5 12.5345 5.86655 14.4365 7.26013 15.7975C7.79091 16.3158 8.25575 16.8618 8.58065 17.4316H16.4194C16.7442 16.8618 17.2091 16.3156 17.7399 15.7972C19.1333 14.4362 19.9998 12.5344 19.9998 10.4315C19.9998 6.28945 16.6419 2.93164 12.4999 2.93164Z" fill="#323544"/>
<path d="M15.9399 18.9316H9.06031C9.06323 18.9831 9.06471 19.0347 9.06472 19.0865L9.0625 20.6816C9.0625 21.9243 10.0699 22.9316 11.3125 22.9316H13.6855C14.9282 22.9316 15.9355 21.9243 15.9355 20.6816V19.086C15.9355 19.0344 15.937 18.9829 15.9399 18.9316Z" fill="#323544"/>
<path d="M4.21475 4.78212C3.85603 4.57501 3.39733 4.69792 3.19023 5.05664C2.98312 5.41536 3.10603 5.87405 3.46475 6.08116L4.33077 6.58116C4.68949 6.78827 5.14818 6.66536 5.35529 6.30664C5.5624 5.94792 5.43949 5.48923 5.08077 5.28212L4.21475 4.78212Z" fill="#323544"/>
<path d="M21.8105 5.05664C22.0176 5.41536 21.8947 5.87405 21.5359 6.08116L20.6699 6.58116C20.3112 6.78827 19.8525 6.66536 19.6454 6.30664C19.4383 5.94792 19.5612 5.48923 19.9199 5.28212L20.7859 4.78212C21.1447 4.57501 21.6034 4.69792 21.8105 5.05664Z" fill="#323544"/>
<path d="M2.5 9.68164C2.08579 9.68164 1.75 10.0174 1.75 10.4316C1.75 10.8459 2.08579 11.1816 2.5 11.1816H3.5C3.91421 11.1816 4.25 10.8459 4.25 10.4316C4.25 10.0174 3.91421 9.68164 3.5 9.68164H2.5Z" fill="#323544"/>
<path d="M20.75 10.4316C20.75 10.0174 21.0858 9.68164 21.5 9.68164H22.5C22.9142 9.68164 23.25 10.0174 23.25 10.4316C23.25 10.8459 22.9142 11.1816 22.5 11.1816H21.5C21.0858 11.1816 20.75 10.8459 20.75 10.4316Z" fill="#323544"/>
<path d="M5.08077 15.5812C5.43949 15.3741 5.5624 14.9154 5.35529 14.5566C5.14818 14.1979 4.68949 14.075 4.33077 14.2821L3.46475 14.7821C3.10603 14.9892 2.98312 15.4479 3.19023 15.8066C3.39733 16.1654 3.85603 16.2883 4.21475 16.0812L5.08077 15.5812Z" fill="#323544"/>
<path d="M19.6454 14.5566C19.8525 14.1979 20.3112 14.075 20.6699 14.2821L21.5359 14.7821C21.8947 14.9892 22.0176 15.4479 21.8105 15.8066C21.6034 16.1654 21.1447 16.2883 20.7859 16.0812L19.9199 15.5812C19.5612 15.3741 19.4383 14.9154 19.6454 14.5566Z" fill="#323544"/>
</svg>
