<svg width="25" height="25" viewBox="0 0 25 25" fill="none" xmlns="http://www.w3.org/2000/svg">
<path d="M5 10.4315C5 6.28945 8.35781 2.93164 12.4999 2.93164C16.6419 2.93164 19.9997 6.28945 19.9997 10.4315C19.9997 12.5344 19.1333 14.4362 17.7399 15.7972C17.2088 16.3159 16.7437 16.8623 16.4188 17.4325H13.25V12.7738C13.5571 12.6655 13.8454 12.4886 14.091 12.2429L14.9365 11.3975C15.2294 11.1046 15.2294 10.6298 14.9365 10.3369C14.6436 10.044 14.1687 10.044 13.8758 10.3369L13.0304 11.1823C12.8842 11.3284 12.6928 11.4016 12.5012 11.4019C12.3089 11.4022 12.1165 11.329 11.9698 11.1823L11.1242 10.3368C10.8313 10.0439 10.3564 10.044 10.0635 10.3369C9.77064 10.6298 9.77067 11.1047 10.0636 11.3976L10.9092 12.243C11.1548 12.4886 11.443 12.6655 11.75 12.7738V17.4325H8.58116C8.25623 16.8624 7.79119 16.3161 7.26013 15.7975C5.86655 14.4365 5 12.5345 5 10.4315Z" fill="#323544"/>
<path d="M9.06036 18.9325C9.06324 18.9837 9.06471 19.035 9.06472 19.0865L9.0625 20.6816C9.0625 21.9243 10.0699 22.9316 11.3125 22.9316H13.6855C14.9282 22.9316 15.9355 21.9243 15.9355 20.6816V19.086C15.9355 19.0347 15.937 18.9835 15.9399 18.9325H9.06036Z" fill="#323544"/>
</svg>
