<svg width="24" height="25" viewBox="0 0 24 25" fill="none" xmlns="http://www.w3.org/2000/svg">
<path d="M3 13.3213C3 9.68847 5.15194 6.55959 8.25 5.13766V6.87598C8.25 7.15212 8.47386 7.37598 8.75 7.37598C9.02614 7.37598 9.25 7.15212 9.25 6.87598V4.87598C9.25 4.83313 9.2512 4.79056 9.25356 4.74831C9.25548 4.71397 9.25817 4.67984 9.26162 4.64593C9.37684 3.51135 10.335 2.62598 11.5 2.62598H12.5C13.6998 2.62598 14.6803 3.56507 14.7464 4.74831C14.7488 4.79056 14.75 4.83313 14.75 4.87598V6.87598C14.75 7.15212 14.9739 7.37598 15.25 7.37598C15.5261 7.37598 15.75 7.15212 15.75 6.87598V5.13766C18.8481 6.55959 21 9.68847 21 13.3213V14.7354H21.25C21.6642 14.7354 22 15.0711 22 15.4854V16.9854C22 17.1843 21.921 17.375 21.7803 17.5157C21.6397 17.6563 21.4489 17.7354 21.25 17.7354L2.75 17.7354C2.33579 17.7354 2 17.3996 2 16.9854V15.4854C2 15.0711 2.33579 14.7354 2.75 14.7354H3V13.3213ZM9.75 12.9854C9.75 12.5711 9.41421 12.2354 9 12.2354C8.58579 12.2354 8.25 12.5711 8.25 12.9854V14.7354H9.75V12.9854ZM12.75 14.7354V12.9854C12.75 12.5711 12.4142 12.2354 12 12.2354C11.5858 12.2354 11.25 12.5711 11.25 12.9854V14.7354H12.75ZM15.75 12.9854C15.75 12.5711 15.4142 12.2354 15 12.2354C14.5858 12.2354 14.25 12.5711 14.25 12.9854V14.7354H15.75V12.9854Z" fill="#323544"/>
</svg>
