<svg width="25" height="25" viewBox="0 0 25 25" fill="none" xmlns="http://www.w3.org/2000/svg">
<path d="M16.1089 2.8125H7.10889C5.86625 2.8125 4.85889 3.81986 4.85889 5.0625V6.0625C4.85889 7.30514 5.86625 8.3125 7.10889 8.3125L16.1089 8.3125C17.267 8.3125 18.2208 7.43749 18.3452 6.3125H19.0007C19.4149 6.3125 19.7507 6.64829 19.7507 7.0625L19.7507 9.0625C19.7507 9.47671 19.4149 9.8125 19.0007 9.8125H14.728L14.7264 9.8125L13.1093 9.8125C11.8667 9.8125 10.8594 10.8199 10.8594 12.0625V13.4405C9.98544 13.7493 9.35889 14.5826 9.35889 15.5625V20.5625C9.35889 21.8051 10.3662 22.8125 11.6089 22.8125C12.8515 22.8125 13.8589 21.8051 13.8589 20.5625V15.5625C13.8589 14.5831 13.2332 13.7495 12.3594 13.4405V12.0625C12.3594 11.6483 12.6951 11.3125 13.1094 11.3125L19.0007 11.3125C20.2433 11.3125 21.2507 10.3051 21.2507 9.0625V7.0625C21.2507 5.81986 20.2433 4.8125 19.0007 4.8125H18.3452C18.2208 3.68751 17.267 2.8125 16.1089 2.8125Z" fill="#323544"/>
</svg>
