<svg width="25" height="25" viewBox="0 0 25 25" fill="none" xmlns="http://www.w3.org/2000/svg">
<path d="M10.5 3.68164C10.5 3.26743 10.1642 2.93164 9.75 2.93164C9.33579 2.93164 9 3.26743 9 3.68164L9 6.66455L5.5 6.66455C5.08579 6.66455 4.75 7.00034 4.75 7.41455C4.75 7.82876 5.08579 8.16455 5.5 8.16455H6L6 13.1645C6 16.5007 8.51342 19.2499 11.75 19.6217V22.1816C11.75 22.5959 12.0858 22.9316 12.5 22.9316C12.9142 22.9316 13.25 22.5959 13.25 22.1816V19.6217C16.4866 19.2499 19 16.5007 19 13.1646L19 8.16455H19.5C19.9142 8.16455 20.25 7.82876 20.25 7.41455C20.25 7.00034 19.9142 6.66455 19.5 6.66455L16 6.66455V3.68164C16 3.26743 15.6642 2.93164 15.25 2.93164C14.8358 2.93164 14.5 3.26743 14.5 3.68164V6.66455L10.5 6.66455L10.5 3.68164Z" fill="#323544"/>
</svg>
