<svg width="24" height="24" viewBox="0 0 24 24" fill="none" xmlns="http://www.w3.org/2000/svg">
<path d="M11.7267 4.39687L10.6906 5.43295L13.055 7.79726C13.3479 8.09016 13.3479 8.56503 13.055 8.85792C12.7621 9.15082 12.2873 9.15082 11.9944 8.85792L9.62993 6.49361L8.59375 7.5298L9.12308 8.05913C9.13859 8.07464 9.15328 8.09066 9.16715 8.10713L12.7926 11.7326C13.0855 12.0255 13.0855 12.5004 12.7926 12.7933C12.4997 13.0862 12.0249 13.0862 11.732 12.7933L8.06244 9.12374C8.04693 9.10823 8.03224 9.09221 8.01837 9.07573L7.53309 8.59046L6.49504 9.62851L8.86119 11.9945C9.15408 12.2874 9.15408 12.7623 8.86119 13.0552C8.56829 13.3481 8.09342 13.3481 7.80053 13.0552L5.43438 10.6892L4.39818 11.7254L8.59879 15.926C8.89168 16.2189 8.89168 16.6937 8.59879 16.9866C8.3059 17.2795 7.83102 17.2795 7.53813 16.9866L3.33752 12.786L2.65803 13.4655C1.77935 14.3442 1.77935 15.7688 2.65803 16.6475L7.35157 21.341C8.23025 22.2197 9.65487 22.2197 10.5335 21.341L21.343 10.5316C22.2217 9.65292 22.2217 8.2283 21.343 7.34962L16.6494 2.65608C15.7708 1.7774 14.3461 1.7774 13.4675 2.65608L12.7873 3.33621L16.9865 7.53535C17.2794 7.82824 17.2794 8.30312 16.9865 8.59601C16.6936 8.88891 16.2187 8.88891 15.9258 8.59601L12.2563 4.92648L11.7267 4.39687Z" fill="#323544"/>
</svg>
