<svg width="25" height="25" viewBox="0 0 25 25" fill="none" xmlns="http://www.w3.org/2000/svg">
<path d="M21.3856 6.7598C21.9497 5.0137 20.299 3.36292 18.5529 3.92705L10.9999 6.36724C9.39961 6.88425 8.91146 8.9101 10.1006 10.0993L12.1262 12.1249L10.5944 13.6568C9.73561 13.1678 8.62358 13.2897 7.89102 14.0222L4.1617 17.7515C3.28302 18.6302 3.28302 20.0548 4.1617 20.9335L4.38064 21.1525C5.25931 22.0311 6.68393 22.0311 7.56261 21.1525L11.2919 17.4231C12.0254 16.6897 12.1466 15.5759 11.6557 14.7168L13.1869 13.1855L15.2134 15.212C16.4026 16.4012 18.4284 15.913 18.9454 14.3128L21.3856 6.7598Z" fill="#323544"/>
</svg>
