<svg width="24" height="25" viewBox="0 0 24 25" fill="none" xmlns="http://www.w3.org/2000/svg">
<path d="M2.00073 5.33301C2.00073 4.91879 2.33652 4.58301 2.75073 4.58301H3.43506C4.6777 4.58301 5.68506 5.59037 5.68506 6.83301V7.23219H21.2499C21.5275 7.23219 21.7824 7.38552 21.9125 7.63077C22.0426 7.87601 22.0266 8.17304 21.8709 8.40286L19.1421 12.4305C18.7789 12.1945 18.3795 12.0097 17.9542 11.8863C17.5552 11.7705 17.1352 11.709 16.7038 11.709C14.317 11.709 12.3675 13.5742 12.231 15.9273C12.2259 16.0142 12.2234 16.1016 12.2234 16.1894C12.2234 16.2367 12.2241 16.2839 12.2256 16.3309L9.02568 15.4639L8.1162 18.2736C7.84717 19.1047 7.07315 19.6678 6.19958 19.6678C5.08699 19.6678 4.18506 18.7658 4.18506 17.6532V6.83301C4.18506 6.41879 3.84927 6.08301 3.43506 6.08301H2.75073C2.33652 6.08301 2.00073 5.74722 2.00073 5.33301ZM5.68506 14.5588V17.6532C5.68506 17.9374 5.91542 18.1678 6.19958 18.1678C6.4227 18.1678 6.62039 18.024 6.6891 17.8117L7.57618 15.0712L5.68506 14.5588Z" fill="#323544"/>
<path d="M13.2483 16.608C13.4551 18.3328 14.9233 19.6698 16.7038 19.6698C18.626 19.6698 20.1842 18.1116 20.1842 16.1894C20.1842 14.958 19.5451 13.8771 18.5812 13.2585C18.3037 13.0804 17.9992 12.9406 17.6754 12.8466C17.3661 12.7568 17.0399 12.709 16.7038 12.709C14.8501 12.709 13.3353 14.1578 13.2293 15.9853C13.2254 16.0529 13.2234 16.121 13.2234 16.1894C13.2234 16.3311 13.2319 16.4708 13.2483 16.608Z" fill="#323544"/>
</svg>
