<svg width="24" height="24" viewBox="0 0 24 24" fill="none" xmlns="http://www.w3.org/2000/svg">
<g opacity="0.4">
<path d="M11.2487 2.02749C9.06479 2.18974 7.07552 3.05377 5.507 4.39384C5.67664 4.57088 5.84456 4.74242 6.00833 4.9051C7.37947 6.26719 9.21062 7.16405 11.2487 7.34209V2.02749Z" fill="#323544"/>
<path d="M4.44228 5.45072C3.07443 7.028 2.19143 9.03905 2.02738 11.2495L11.2487 11.2496V8.84697C8.79799 8.66514 6.59231 7.59957 4.95118 5.96927C4.78425 5.80344 4.61385 5.62952 4.44228 5.45072Z" fill="#323544"/>
<path d="M2.02734 12.7495C2.19132 14.9601 3.07435 16.9713 4.44229 18.5487C4.61386 18.3699 4.78426 18.196 4.95118 18.0301C6.59232 16.3998 8.79799 15.3343 11.2487 15.1524V12.7496L2.02734 12.7495Z" fill="#323544"/>
<path d="M5.50702 19.6056C7.07554 20.9456 9.0648 21.8097 11.2487 21.9719V16.6573C9.21062 16.8354 7.37947 17.7322 6.00833 19.0943C5.84456 19.257 5.67665 19.4285 5.50702 19.6056Z" fill="#323544"/>
<path d="M12.7487 21.972C14.9328 21.8102 16.9224 20.9464 18.4912 19.6065C18.3212 19.4291 18.153 19.2573 17.989 19.0943C16.6178 17.7322 14.7867 16.8354 12.7487 16.6573V21.972Z" fill="#323544"/>
<path d="M19.556 18.5498C20.9245 16.9723 21.8079 14.9607 21.9719 12.7497L12.7487 12.7496V15.1524C15.1994 15.3343 17.405 16.3998 19.0461 18.0301C19.2134 18.1963 19.3841 18.3706 19.556 18.5498Z" fill="#323544"/>
<path d="M21.9719 11.2497C21.8079 9.03868 20.9245 7.02714 19.5561 5.44965C19.3841 5.62882 19.2134 5.80311 19.0461 5.96927C17.405 7.59956 15.1994 8.66514 12.7487 8.84697V11.2496L21.9719 11.2497Z" fill="#323544"/>
<path d="M18.4912 4.39292C16.9224 3.05298 14.9328 2.18919 12.7487 2.02734V7.34209C14.7867 7.16405 16.6178 6.2672 17.989 4.9051C18.153 4.74214 18.3212 4.57028 18.4912 4.39292Z" fill="#323544"/>
</g>
<path d="M22 12C22 12.2523 21.9907 12.5024 21.9723 12.75L12.7498 12.7499V15.1527C15.2005 15.3346 17.4061 16.4001 19.0472 18.0304C19.2144 18.1965 19.385 18.3706 19.5568 18.5497C19.2287 18.9279 18.8727 19.2812 18.492 19.6065C18.3221 19.4292 18.154 19.2575 17.9901 19.0946C16.6189 17.7325 14.7878 16.8357 12.7498 16.6576V21.9723C12.5022 21.9907 12.2522 22 12 22C6.47715 22 2 17.5228 2 12C2 6.47715 6.47715 2 12 2C12.2522 2 12.5022 2.00934 12.7498 2.02768V7.3424C14.7878 7.16436 16.6189 6.2675 17.9901 4.90541C18.154 4.74254 18.3221 4.5708 18.492 4.39355C18.8727 4.7188 19.2287 5.07213 19.5568 5.45034C19.385 5.62938 19.2144 5.80353 19.0472 5.96958C17.4061 7.59987 15.2005 8.66545 12.7498 8.84728V11.2499L21.9723 11.25C21.9907 11.4976 22 11.7477 22 12ZM11.2498 2.02779C9.06589 2.19004 7.07663 3.05408 5.5081 4.39415C5.67774 4.57119 5.84566 4.74273 6.00943 4.90541C7.38057 6.2675 9.21172 7.16436 11.2498 7.3424V2.02779ZM4.44338 5.45103C3.07553 7.02831 2.19253 9.03936 2.02848 11.2498L11.2498 11.2499V8.84728C8.79909 8.66545 6.59342 7.59987 4.95229 5.96958C4.78535 5.80375 4.61495 5.62983 4.44338 5.45103ZM2.02845 12.7498C2.19242 14.9604 3.07545 16.9716 4.44339 18.549C4.61496 18.3702 4.78536 18.1963 4.95229 18.0304C6.59342 16.4001 8.79909 15.3346 11.2498 15.1527V12.7499L2.02845 12.7498ZM5.50812 19.6059C7.07664 20.9459 9.0659 21.81 11.2498 21.9722V16.6576C9.21172 16.8357 7.38057 17.7325 6.00943 19.0946C5.84567 19.2573 5.67775 19.4288 5.50812 19.6059Z" fill="#323544"/>
</svg>
