<svg width="24" height="25" viewBox="0 0 24 25" fill="none" xmlns="http://www.w3.org/2000/svg">
<path opacity="0.4" d="M14.252 7.5C14.252 6.25768 13.2439 5.25 12.001 5.25C10.7587 5.25 9.75195 6.25704 9.75195 7.5C9.75195 8.74264 10.7593 9.75 12.002 9.75C13.2446 9.75 14.252 8.74264 14.252 7.5ZM15.752 7.5C15.752 9.57107 14.073 11.25 12.002 11.25C9.93089 11.25 8.25195 9.57107 8.25195 7.5C8.25195 7.15685 8.29847 6.82458 8.38477 6.50879C7.03819 7.57615 6.17383 9.22539 6.17383 11.0771V14C6.17383 14.4142 5.83802 14.75 5.42383 14.75C5.00979 14.7498 4.67387 14.4141 4.67383 14V11.0771C4.67383 7.09614 7.84879 3.85994 11.8047 3.75586C11.8697 3.75251 11.9351 3.75 12.001 3.75L12.1943 3.75488L12.1963 3.75586C16.1526 3.85944 19.3281 7.09581 19.3281 11.0771V14C19.3281 14.4142 18.9923 14.75 18.5781 14.75C18.1639 14.75 17.8281 14.4142 17.8281 14V11.0771C17.8281 9.22611 16.9639 7.57814 15.6182 6.51074C15.7043 6.82603 15.752 7.15741 15.752 7.5Z" fill="#323544"/>
<path d="M7.67383 19C7.67383 20.2426 6.66647 21.25 5.42383 21.25C4.18119 21.25 3.17383 20.2426 3.17383 19V15.5C3.17383 14.2574 4.18119 13.25 5.42383 13.25C6.66647 13.25 7.67383 14.2574 7.67383 15.5V19ZM20.8281 19C20.8281 20.2425 19.8206 21.2498 18.5781 21.25C17.3355 21.25 16.3281 20.2426 16.3281 19V15.5C16.3281 14.2574 17.3355 13.25 18.5781 13.25C19.8206 13.2502 20.8281 14.2575 20.8281 15.5V19Z" fill="#323544"/>
</svg>
