<svg width="24" height="25" viewBox="0 0 24 25" fill="none" xmlns="http://www.w3.org/2000/svg">
<path opacity="0.4" d="M2 11.498C2 6.39029 6.14154 2.25 11.25 2.25C16.3585 2.25 20.5 6.39029 20.5 11.498C20.5 13.7826 19.6714 15.8737 18.2983 17.4873L21.7791 20.9685C22.072 21.2614 22.072 21.7363 21.7791 22.0292C21.4862 22.322 21.0113 22.322 20.7184 22.0291L17.2372 18.5476C15.6237 19.9187 13.5334 20.7459 11.25 20.7459C6.14154 20.7459 2 16.6056 2 11.498ZM11.25 3.75C6.96962 3.75 3.5 7.21905 3.5 11.498C3.5 15.7769 6.96962 19.2459 11.25 19.2459C15.5304 19.2459 19 15.7769 19 11.498C19 7.21905 15.5304 3.75 11.25 3.75Z" fill="#323544"/>
<path d="M6.62109 10.749C6.20688 10.749 5.87109 11.0848 5.87109 11.499C5.87109 11.9132 6.20688 12.249 6.62109 12.249H15.8711C16.2853 12.249 16.6211 11.9132 16.6211 11.499C16.6211 11.0848 16.2853 10.749 15.8711 10.749H6.62109Z" fill="#323544"/>
</svg>
