<svg width="24" height="25" viewBox="0 0 24 25" fill="none" xmlns="http://www.w3.org/2000/svg">
<path opacity="0.4" d="M2 11.498C2 6.39029 6.14154 2.25 11.25 2.25C16.3585 2.25 20.5 6.39029 20.5 11.498C20.5 13.7826 19.6714 15.8737 18.2983 17.4873L21.7791 20.9685C22.072 21.2614 22.072 21.7363 21.7791 22.0292C21.4862 22.322 21.0113 22.322 20.7184 22.0291L17.2372 18.5476C15.6237 19.9187 13.5334 20.7459 11.25 20.7459C6.14154 20.7459 2 16.6056 2 11.498ZM11.25 3.75C6.96962 3.75 3.5 7.21905 3.5 11.498C3.5 15.7769 6.96962 19.2459 11.25 19.2459C15.5304 19.2459 19 15.7769 19 11.498C19 7.21905 15.5304 3.75 11.25 3.75Z" fill="#323544"/>
<path d="M11.2462 6.12598C10.832 6.12598 10.4962 6.46176 10.4962 6.87598V10.7491H6.62305C6.20883 10.7491 5.87305 11.0849 5.87305 11.4991C5.87305 11.9133 6.20883 12.2491 6.62305 12.2491H10.4962V16.1229C10.4962 16.5371 10.832 16.8729 11.2462 16.8729C11.6604 16.8729 11.9962 16.5371 11.9962 16.1229V12.2491H15.87C16.2842 12.2491 16.62 11.9133 16.62 11.4991C16.62 11.0849 16.2842 10.7491 15.87 10.7491H11.9962V6.87598C11.9962 6.46176 11.6604 6.12598 11.2462 6.12598Z" fill="#323544"/>
</svg>
