<svg width="24" height="25" viewBox="0 0 24 25" fill="none" xmlns="http://www.w3.org/2000/svg">
<path d="M15.2766 13.249C15.2766 13.6632 14.9408 13.999 14.5266 13.999L7.96753 13.999C7.55331 13.999 7.21753 13.6632 7.21753 13.249C7.21753 12.8348 7.55331 12.499 7.96753 12.499L14.5266 12.499C14.9408 12.499 15.2766 12.8348 15.2766 13.249Z" fill="#323544"/>
<path d="M12.8464 9.74902C12.8464 10.1632 12.5107 10.499 12.0964 10.499H7.9668C7.55258 10.499 7.2168 10.1632 7.2168 9.74902C7.2168 9.33481 7.55258 8.99902 7.9668 8.99902L12.0964 8.99902C12.5107 8.99902 12.8464 9.33481 12.8464 9.74902Z" fill="#323544"/>
<path opacity="0.4" d="M11.25 2.25C6.14154 2.25 2 6.39029 2 11.498C2 16.6056 6.14154 20.7459 11.25 20.7459C13.5334 20.7459 15.6237 19.9187 17.2372 18.5476L20.7184 22.0291C21.0113 22.322 21.4862 22.322 21.7791 22.0292C22.072 21.7363 22.072 21.2614 21.7791 20.9685L18.2983 17.4873C19.6714 15.8737 20.5 13.7826 20.5 11.498C20.5 6.39029 16.3585 2.25 11.25 2.25ZM3.5 11.498C3.5 7.21905 6.96962 3.75 11.25 3.75C15.5304 3.75 19 7.21905 19 11.498C19 15.7769 15.5304 19.2459 11.25 19.2459C6.96962 19.2459 3.5 15.7769 3.5 11.498Z" fill="#323544"/>
</svg>
