<svg width="24" height="24" viewBox="0 0 24 24" fill="none" xmlns="http://www.w3.org/2000/svg">
<path d="M19 11.249C19 6.97011 15.5304 3.50098 11.25 3.50098C6.96962 3.50098 3.5 6.97011 3.5 11.249C3.50004 15.5279 6.96965 18.9971 11.25 18.9971C15.5303 18.9971 19 15.5279 19 11.249ZM20.5 11.249C20.5 16.3567 16.3584 20.4971 11.25 20.4971C6.14156 20.4971 2.00004 16.3567 2 11.249C2 6.14134 6.14154 2.00098 11.25 2.00098C16.3585 2.00098 20.5 6.14134 20.5 11.249Z" fill="#323544"/>
<path opacity="0.4" d="M16.7277 16.7296C17.0023 16.455 17.437 16.4375 17.7316 16.6779L17.7882 16.7296L21.7784 20.7198L21.8302 20.7765C22.0704 21.0711 22.053 21.5058 21.7784 21.7804C21.5039 22.055 21.0691 22.0723 20.7745 21.8321L20.7179 21.7804L16.7277 17.7902L16.6759 17.7335C16.4356 17.4389 16.4531 17.0042 16.7277 16.7296Z" fill="#323544"/>
</svg>
