<svg width="25" height="25" viewBox="0 0 25 25" fill="none" xmlns="http://www.w3.org/2000/svg">
<path d="M4.21475 4.78225C3.85603 4.57514 3.39733 4.69805 3.19023 5.05677C2.98312 5.41549 3.10603 5.87418 3.46475 6.08128L4.33077 6.58128C4.68949 6.78839 5.14818 6.66549 5.35529 6.30677C5.5624 5.94805 5.43949 5.48935 5.08077 5.28225L4.21475 4.78225Z" fill="#323544"/>
<path d="M21.8105 5.05677C22.0176 5.41549 21.8947 5.87418 21.5359 6.08129L20.6699 6.58129C20.3112 6.78839 19.8525 6.66549 19.6454 6.30677C19.4383 5.94805 19.5612 5.48935 19.9199 5.28225L20.7859 4.78225C21.1447 4.57514 21.6034 4.69805 21.8105 5.05677Z" fill="#323544"/>
<path d="M2.5 9.68177C2.08579 9.68177 1.75 10.0176 1.75 10.4318C1.75 10.846 2.08579 11.1818 2.5 11.1818H3.5C3.91421 11.1818 4.25 10.846 4.25 10.4318C4.25 10.0176 3.91421 9.68177 3.5 9.68177H2.5Z" fill="#323544"/>
<path d="M20.75 10.4318C20.75 10.0176 21.0858 9.68177 21.5 9.68177H22.5C22.9142 9.68177 23.25 10.0176 23.25 10.4318C23.25 10.846 22.9142 11.1818 22.5 11.1818H21.5C21.0858 11.1818 20.75 10.846 20.75 10.4318Z" fill="#323544"/>
<path d="M5.08077 15.5813C5.43949 15.3742 5.5624 14.9155 5.35529 14.5568C5.14818 14.198 4.68949 14.0751 4.33077 14.2822L3.46475 14.7822C3.10603 14.9894 2.98312 15.448 3.19023 15.8068C3.39733 16.1655 3.85603 16.2884 4.21475 16.0813L5.08077 15.5813Z" fill="#323544"/>
<path d="M19.6454 14.5568C19.8525 14.198 20.3112 14.0751 20.6699 14.2822L21.5359 14.7822C21.8947 14.9894 22.0176 15.448 21.8105 15.8068C21.6034 16.1655 21.1447 16.2884 20.7859 16.0813L19.9199 15.5813C19.5612 15.3742 19.4383 14.9155 19.6454 14.5568Z" fill="#323544"/>
<g opacity="0.4">
<path d="M12.4999 2.93164C8.35781 2.93164 5 6.28945 5 10.4315C5 12.5345 5.86655 14.4365 7.26013 15.7975C7.79091 16.3158 8.25575 16.8618 8.58065 17.4316H16.4194C16.7442 16.8618 17.2091 16.3156 17.7399 15.7972C19.1333 14.4362 19.9997 12.5344 19.9997 10.4315C19.9997 6.28945 16.6419 2.93164 12.4999 2.93164Z" fill="#323544"/>
<path d="M15.9399 18.9316H9.06031C9.06323 18.9831 9.06471 19.0347 9.06472 19.0865L9.0625 20.6816C9.0625 21.9243 10.0699 22.9316 11.3125 22.9316H13.6855C14.9282 22.9316 15.9355 21.9243 15.9355 20.6816V19.086C15.9355 19.0344 15.937 18.9829 15.9399 18.9316Z" fill="#323544"/>
</g>
</svg>
