<svg width="24" height="25" viewBox="0 0 24 25" fill="none" xmlns="http://www.w3.org/2000/svg">
<path d="M4.25 5.68945C3.00736 5.68945 2 6.69681 2 7.93945C2 8.09478 2.01574 8.24644 2.04571 8.39291C2.25552 9.41819 3.16269 10.1895 4.25 10.1895L17.2499 10.1895L17.25 13.0635C17.25 13.5721 17.4756 13.9811 17.7232 14.2785C17.968 14.5724 18.2709 14.8026 18.5232 14.9727C18.775 15.1425 18.9379 15.428 18.9379 15.7514C18.9379 16.2693 18.518 16.6892 18 16.6892C17.482 16.6892 17.0621 16.2693 17.0621 15.7514C17.0621 15.3371 16.7263 15.0014 16.3121 15.0014C15.8979 15.0014 15.5621 15.3371 15.5621 15.7514C15.5621 17.0978 16.6536 18.1892 18 18.1892C19.3464 18.1892 20.4379 17.0978 20.4379 15.7514C20.4379 14.9084 20.0094 14.1658 19.3619 13.7291C19.1563 13.5904 18.9879 13.4531 18.8759 13.3186C18.7667 13.1875 18.75 13.1072 18.75 13.0635L18.7499 10.1757C19.8748 10.0514 20.75 9.09759 20.75 7.93945C20.75 6.69681 19.7426 5.68945 18.5 5.68945L4.25 5.68945Z" fill="#323544"/>
<g opacity="0.4">
<path d="M10.0161 4.68945C9.64794 3.94859 8.88343 3.43945 8 3.43945H7C6.11657 3.43945 5.35206 3.94859 4.98388 4.68945H10.0161Z" fill="#323544"/>
<path d="M10.25 11.1895L4.75 11.1895V18.9395C4.75 19.3537 5.08579 19.6895 5.5 19.6895H9.5C9.91421 19.6895 10.25 19.3537 10.25 18.9395V11.1895Z" fill="#323544"/>
</g>
</svg>
