<svg width="25" height="25" viewBox="0 0 25 25" fill="none" xmlns="http://www.w3.org/2000/svg">
<path d="M14.1362 4.81223L14.0173 4.0966C13.8941 3.35513 13.2527 2.81152 12.5011 2.81152C11.7501 2.81152 11.109 3.35433 10.9852 4.09511L10.8653 4.81223H6.66553C6.25131 4.81223 5.91553 5.14802 5.91553 5.56223V9.74583C5.91553 10.16 6.25131 10.4958 6.66553 10.4958H18.3364C18.7506 10.4958 19.0864 10.16 19.0864 9.74583V9.56223C19.0864 6.93888 16.9598 4.81223 14.3364 4.81223H14.1362Z" fill="#323544"/>
<path opacity="0.4" d="M14.6798 11.4961H10.3215L9.83734 20.4406C9.76759 21.7292 10.7936 22.8122 12.0841 22.8122H12.9173C14.2077 22.8122 15.2337 21.7292 15.164 20.4406L14.6798 11.4961Z" fill="#323544"/>
</svg>
