<svg width="25" height="24" viewBox="0 0 25 24" fill="none" xmlns="http://www.w3.org/2000/svg">
<path d="M16.3389 2.01172C17.4732 2.12714 18.3584 3.08517 18.3584 4.25V5.25L18.3467 5.48047C18.239 6.53906 17.3975 7.38057 16.3389 7.48828L16.1084 7.5H7.1084C5.94357 7.5 4.98554 6.61484 4.87012 5.48047L4.8584 5.25V4.25C4.8584 3.00736 5.86576 2 7.1084 2H16.1084L16.3389 2.01172Z" fill="#323544"/>
<path opacity="0.4" d="M19.2305 4.01172C20.3649 4.12706 21.25 5.08511 21.25 6.25V8.25L21.2383 8.48047C21.1306 9.53911 20.2891 10.3806 19.2305 10.4883L19 10.5H13.1084C12.6944 10.5003 12.3584 10.8359 12.3584 11.25V12.6299C13.2322 12.9389 13.8584 13.7706 13.8584 14.75V19.75C13.8584 20.9926 12.851 22 11.6084 22C10.4436 22 9.48554 21.1148 9.37012 19.9805L9.3584 19.75V14.75C9.3584 13.7706 9.98517 12.9401 10.8584 12.6309V11.25C10.8584 10.0075 11.866 9.00025 13.1084 9H19L19.0771 8.99609C19.4298 8.96014 19.71 8.6798 19.7461 8.32715L19.75 8.25V6.25C19.75 5.86177 19.4552 5.54245 19.0771 5.50391L19 5.5H18.3438C18.3445 5.49347 18.346 5.48702 18.3467 5.48047L18.3584 5.25V4.25C18.3584 4.16546 18.3528 4.08212 18.3438 4H19L19.2305 4.01172Z" fill="#323544"/>
</svg>
