<svg width="25" height="24" viewBox="0 0 25 24" fill="none" xmlns="http://www.w3.org/2000/svg">
<path opacity="0.4" d="M6.10719 3.19153C6.3143 2.83281 6.77299 2.70991 7.13171 2.91701L9.02418 4.00964C9.04614 4.02231 9.06721 4.03593 9.08738 4.05041L17.908 9.14299L17.4622 9.83006C17.4413 9.86213 17.4216 9.89488 17.4029 9.92825C17.0131 10.6251 16.4494 11.7715 16.2768 12.9805C16.1883 13.5998 16.1864 14.3412 16.4527 15.0798C16.5539 15.3607 16.6889 15.6265 16.8571 15.8729L14.4399 20.0596C13.8186 21.1358 12.4425 21.5045 11.3664 20.8832L3.62577 16.4141C3.08706 16.1031 2.72509 15.6015 2.57677 15.0454C2.42889 14.491 2.49212 13.8776 2.80221 13.3406L7.64811 4.94721L6.38171 4.21605C6.02299 4.00894 5.90008 3.55025 6.10719 3.19153ZM8.94529 5.70043L4.25771 13.8196L17.0661 10.389L8.94529 5.70043Z" fill="#323544"/>
<path d="M17.4405 14.8621C17.6504 15.3638 18.018 15.7956 18.562 16.1097C19.8124 16.8316 21.4113 16.4032 22.1333 15.1527C22.486 14.5418 22.5706 13.9153 22.4481 13.3189C22.3297 12.743 22.0283 12.2407 21.6842 11.8248C21.0031 11.0017 20.0275 10.3667 19.3833 9.9948L18.775 9.64355L18.3009 10.3742C18.2919 10.3879 18.2835 10.402 18.2755 10.4163C17.9023 11.0834 17.4126 12.0992 17.2665 13.1216C17.1926 13.6392 17.1999 14.204 17.3932 14.7405C17.408 14.7815 17.4237 14.822 17.4405 14.8621Z" fill="#323544"/>
</svg>
