<svg width="25" height="25" viewBox="0 0 25 25" fill="none" xmlns="http://www.w3.org/2000/svg">
<path d="M9 6.66406L10.5 6.66406L14.5 6.66406L16 6.66406L19.5 6.66406C19.9142 6.66406 20.25 6.99985 20.25 7.41406C20.25 7.82828 19.9142 8.16406 19.5 8.16406H19L19 13.1641C19 16.5003 16.4866 19.2494 13.25 19.6213V22.1812C13.25 22.5954 12.9142 22.9312 12.5 22.9312C12.0858 22.9312 11.75 22.5954 11.75 22.1812V19.6213C8.51342 19.2494 6 16.5003 6 13.1641L6 8.16406H5.5C5.08579 8.16406 4.75 7.82828 4.75 7.41406C4.75 6.99985 5.08579 6.66406 5.5 6.66406L9 6.66406Z" fill="#323544"/>
<g opacity="0.4">
<path d="M10.5 3.68164C10.5 3.26743 10.1642 2.93164 9.75 2.93164C9.33579 2.93164 9 3.26743 9 3.68164L9 6.66455L10.5 6.66455L10.5 3.68164Z" fill="#323544"/>
<path d="M16 6.66455V3.68164C16 3.26743 15.6642 2.93164 15.25 2.93164C14.8358 2.93164 14.5 3.26743 14.5 3.68164V6.66455L16 6.66455Z" fill="#323544"/>
</g>
</svg>
