<svg width="24" height="24" viewBox="0 0 24 24" fill="none" xmlns="http://www.w3.org/2000/svg">
<path d="M5.50098 3.25H10.0861C11.3287 3.25 12.3361 4.25736 12.3361 5.5V7.93369C12.336 7.93885 12.3359 7.94403 12.3359 7.94922C12.3359 7.95441 12.336 7.95958 12.3361 7.96475L12.3361 18.4978C12.3361 19.7404 11.3287 20.7478 10.0861 20.7478H5.50098C4.25834 20.7478 3.25098 19.7404 3.25098 18.4978V17.5469H7.7396C8.15382 17.5469 8.4896 17.2111 8.4896 16.7969C8.4896 16.3827 8.15382 16.0469 7.7396 16.0469H3.25098V14.3477H7.7396C8.15382 14.3477 8.4896 14.0119 8.4896 13.5977C8.4896 13.1834 8.15382 12.8477 7.7396 12.8477H3.25098V11.1484H7.7396C8.15382 11.1484 8.4896 10.8127 8.4896 10.3984C8.4896 9.98422 8.15382 9.64844 7.7396 9.64844H3.25098V7.94922H7.7396C8.15382 7.94922 8.4896 7.61343 8.4896 7.19922C8.4896 6.78501 8.15382 6.44922 7.7396 6.44922H3.25098V5.5C3.25098 4.25736 4.25834 3.25 5.50098 3.25Z" fill="#323544"/>
<g opacity="0.4">
<path d="M13.8359 8.69922V16.5814C13.8359 16.9901 13.9473 17.391 14.1579 17.7412L15.365 19.7478C16.2394 21.2013 18.3466 21.2013 19.2211 19.7478L20.4282 17.7412C20.6388 17.391 20.7502 16.9901 20.7502 16.5814V8.69922H13.8359Z" fill="#323544"/>
<path d="M20.7502 7.19922V5.5C20.7502 4.25736 19.7428 3.25 18.5002 3.25H16.0859C14.8433 3.25 13.8359 4.25736 13.8359 5.5V7.19922H20.7502Z" fill="#323544"/>
</g>
</svg>
