<svg width="24" height="24" viewBox="0 0 24 24" fill="none" xmlns="http://www.w3.org/2000/svg">
<path opacity="0.4" d="M13.467 2.65608C14.3457 1.7774 15.7709 1.7774 16.6496 2.65608L21.343 7.34944C22.2215 8.2281 22.2215 9.65243 21.343 10.5311L10.5334 21.3407C9.65475 22.2192 8.23042 22.2192 7.35176 21.3407L2.6584 16.6473C1.77972 15.7686 1.77972 14.3434 2.6584 13.4647L3.33711 12.786L7.53828 16.9862C7.83118 17.279 8.30595 17.279 8.59883 16.9862C8.89164 16.6933 8.89167 16.2185 8.59883 15.9256L4.39863 11.7254L5.43477 10.6893L7.80098 13.0545C8.09388 13.3473 8.56866 13.3474 8.86152 13.0545C9.15407 12.7616 9.15423 12.2868 8.86152 11.994L6.49531 9.62776L7.5334 8.58967L11.7316 12.7928C12.0245 13.0856 12.4993 13.0855 12.7922 12.7928C13.0851 12.4999 13.0851 12.0251 12.7922 11.7323L9.16719 8.10628C9.15339 8.08989 9.13867 8.07385 9.12324 8.05842L8.59395 7.52913L9.63008 6.49299L11.9943 8.85725C12.2872 9.15015 12.762 9.15014 13.0549 8.85725C13.3477 8.56435 13.3478 8.08957 13.0549 7.79671L10.6906 5.43245L11.7268 4.39631L12.2561 4.92659L15.926 8.59553C16.2189 8.88841 16.6936 8.88842 16.9865 8.59553C17.2793 8.30264 17.2794 7.82786 16.9865 7.53499L12.7873 3.33577L13.467 2.65608Z" fill="#323544"/>
<path d="M8.59867 16.9864C8.89156 16.6935 8.89156 16.2186 8.59867 15.9257L4.39806 11.7251L3.3374 12.7858L7.53801 16.9864C7.8309 17.2793 8.30578 17.2793 8.59867 16.9864Z" fill="#323544"/>
<path d="M8.86107 13.0549C9.15396 12.762 9.15396 12.2872 8.86107 11.9943L6.49492 9.62824L5.43426 10.6889L7.80041 13.0549C8.0933 13.3478 8.56818 13.3478 8.86107 13.0549Z" fill="#323544"/>
<path d="M9.12296 8.05886L8.59363 7.52953L7.53297 8.59019L8.01825 9.07546L8.06232 9.12348L11.7319 12.793C12.0247 13.0859 12.4996 13.0859 12.7925 12.793C13.0854 12.5001 13.0854 12.0252 12.7925 11.7323L9.16703 8.10686C9.15316 8.09039 9.13847 8.07437 9.12296 8.05886Z" fill="#323544"/>
<path d="M13.0549 8.85765C13.3478 8.56476 13.3478 8.08989 13.0549 7.79699L10.6905 5.43268L9.62981 6.49334L11.9943 8.85765C12.2871 9.15055 12.762 9.15055 13.0549 8.85765Z" fill="#323544"/>
<path d="M16.9864 8.59574C17.2793 8.30285 17.2793 7.82797 16.9864 7.53508L12.7872 3.33594L11.7266 4.3966L12.2562 4.92621L15.9257 8.59575C16.2186 8.88864 16.6935 8.88864 16.9864 8.59574Z" fill="#323544"/>
</svg>
