<svg width="25" height="24" viewBox="0 0 25 24" fill="none" xmlns="http://www.w3.org/2000/svg">
<path d="M12.8665 12.7314L11.8059 11.6708L9.58912 9.45404C9.29622 9.16115 8.82135 9.16115 8.52845 9.45404L3.85464 14.1279C2.09728 15.8852 2.09728 18.7345 3.85464 20.4918L4.04544 20.6826C5.8028 22.44 8.65204 22.44 10.4094 20.6826L15.0832 16.0088C15.2239 15.8682 15.3029 15.6774 15.3029 15.4785C15.3029 15.2796 15.2239 15.0888 15.0832 14.9481L12.8665 12.7314Z" fill="#323544"/>
<path opacity="0.4" d="M17.848 2.21967C17.5551 1.92678 17.0802 1.92678 16.7873 2.21967C15.449 3.55792 15.2995 5.63473 16.3386 7.13805L11.8059 11.6708L12.8666 12.7314L17.414 8.18404C18.9094 9.15709 20.9312 8.98761 22.2432 7.67561C22.5361 7.38272 22.5361 6.90784 22.2432 6.61495L17.848 2.21967Z" fill="#323544"/>
</svg>
