<svg width="25" height="25" viewBox="0 0 25 25" fill="none" xmlns="http://www.w3.org/2000/svg">
<path d="M18.5528 3.92705C20.2989 3.36292 21.9497 5.0137 21.3855 6.7598L18.9453 14.3128C18.4283 15.913 16.4025 16.4012 15.2133 15.212L13.1868 13.1855L12.1262 12.1249L10.1005 10.0993C8.91138 8.9101 9.39953 6.88425 10.9998 6.36724L18.5528 3.92705Z" fill="#323544"/>
<path opacity="0.4" d="M12.1262 12.125L10.5944 13.6569C9.73561 13.168 8.62358 13.2898 7.89102 14.0223L4.1617 17.7517C3.28302 18.6303 3.28302 20.055 4.1617 20.9336L4.38064 21.1526C5.25931 22.0313 6.68393 22.0313 7.56261 21.1526L11.2919 17.4233C12.0254 16.6898 12.1466 15.5761 11.6557 14.7169L13.1869 13.1857L12.1262 12.125Z" fill="#323544"/>
</svg>
