<svg width="24" height="24" viewBox="0 0 24 24" fill="none" xmlns="http://www.w3.org/2000/svg">
<path d="M5.25 12.0303H7.75M16.2812 12.0303H18.7812M10.75 12.0303H13.25M6.78027 19.7803L6.78027 16.5C6.78027 15.6716 7.45185 15 8.28027 15H15.7803C16.6087 15 17.2803 15.6716 17.2803 16.5V19.7803C17.2803 20.6087 16.6087 21.2803 15.7803 21.2803H8.28027C7.45185 21.2803 6.78027 20.6087 6.78027 19.7803ZM6.78027 7.5L6.78027 4.21973C6.78027 3.3913 7.45185 2.71973 8.28027 2.71973L15.7803 2.71973C16.6087 2.71973 17.2803 3.3913 17.2803 4.21973V7.5C17.2803 8.32843 16.6087 9 15.7803 9L8.28027 9C7.45185 9 6.78027 8.32843 6.78027 7.5Z" stroke="#323544" stroke-width="1.5" stroke-linecap="round" stroke-linejoin="round"/>
</svg>
