<svg width="25" height="25" viewBox="0 0 25 25" fill="none" xmlns="http://www.w3.org/2000/svg">
<path d="M8.91292 4.39408C8.79048 4.27164 8.59197 4.27164 8.46953 4.39408L4.84183 8.02177C4.71939 8.14421 4.71939 8.34273 4.84183 8.46517L8.43208 12.0554C8.55452 12.1779 8.75303 12.1779 8.87547 12.0554L9.89304 11.0378L8.9875 10.1323C8.54816 9.69296 8.54816 8.98065 8.9875 8.54131C9.42684 8.10197 10.1391 8.10197 10.5785 8.54131L11.484 9.44686L12.5032 8.42772C12.6256 8.30528 12.6256 8.10676 12.5032 7.98432L8.91292 4.39408ZM6.87854 2.80309C7.87966 1.80197 9.50279 1.80197 10.5039 2.80309L14.0942 6.39333C15.0953 7.39445 15.0953 9.01759 14.0942 10.0187L10.4665 13.6464C9.46534 14.6475 7.84221 14.6475 6.84109 13.6464L3.25084 10.0562C2.24972 9.05504 2.24972 7.4319 3.25084 6.43078L6.87854 2.80309ZM16.5723 12.0531C16.4498 11.9307 16.2513 11.9307 16.1289 12.0531L15.1096 13.0724L16.0035 13.9663C16.4429 14.4057 16.4429 15.118 16.0035 15.5573C15.5642 15.9967 14.8519 15.9967 14.4125 15.5573L13.5186 14.6634L12.5011 15.6808C12.3787 15.8033 12.3787 16.0018 12.5011 16.1242L16.0873 19.7104C16.2098 19.8329 16.4083 19.8329 16.5307 19.7104L20.1585 16.0827C20.2809 15.9603 20.2809 15.7617 20.1585 15.6393L16.5723 12.0531ZM14.5379 10.4621C15.539 9.46099 17.1621 9.46099 18.1633 10.4621L21.7495 14.0483C22.7506 15.0494 22.7506 16.6726 21.7495 17.6737L18.1217 21.3014C17.1206 22.3025 15.4975 22.3025 14.4964 21.3014L10.9102 17.7152C9.90904 16.7141 9.90904 15.091 10.9102 14.0898L14.5379 10.4621Z" fill="#323544"/>
<path d="M17.882 2.97009C18.2821 3.07729 18.5195 3.48855 18.4123 3.88865L17.9774 5.51155C17.8702 5.91165 17.459 6.14909 17.0589 6.04188C16.6588 5.93468 16.4214 5.52342 16.5286 5.12332L16.9634 3.50042C17.0706 3.10032 17.4819 2.86288 17.882 2.97009ZM21.6347 6.72286C21.7419 7.12295 21.5045 7.53421 21.1044 7.64141L19.4815 8.07627C19.0814 8.18348 18.6702 7.94604 18.5629 7.54594C18.4557 7.14584 18.6932 6.73459 19.0933 6.62738L20.7162 6.19252C21.1163 6.08532 21.5275 6.32276 21.6347 6.72286ZM6.5521 16.5487C6.65931 16.9488 6.42187 17.36 6.02177 17.4672L4.39887 17.9021C3.99877 18.0093 3.58751 17.7719 3.48031 17.3718C3.3731 16.9717 3.61054 16.5604 4.01064 16.4532L5.63354 16.0183C6.03364 15.9111 6.4449 16.1486 6.5521 16.5487ZM8.05616 18.0527C8.45626 18.1599 8.6937 18.5712 8.58649 18.9713L8.15163 20.5942C8.04443 20.9943 7.63317 21.2317 7.23307 21.1245C6.83297 21.0173 6.59554 20.6061 6.70274 20.206L7.1376 18.5831C7.24481 18.183 7.65606 17.9455 8.05616 18.0527Z" fill="#323544"/>
</svg>
