<svg width="24" height="24" viewBox="0 0 24 24" fill="none" xmlns="http://www.w3.org/2000/svg">
<path d="M4.25 4.5C3.00736 4.5 2 5.50736 2 6.75V17.25C2 18.4926 3.00736 19.5 4.25 19.5H19.7514C20.9941 19.5 22.0014 18.4926 22.0014 17.25L22.0014 6.75C22.0014 5.50736 20.9941 4.5 19.7514 4.5H4.25ZM5.51763 10.2544L5.85031 11.5851L6.37375 10.1892C6.46157 9.95505 6.68544 9.7999 6.93555 9.7999C7.18565 9.7999 7.40953 9.95505 7.49734 10.1892L8.02079 11.5851L8.35346 10.2544C8.43383 9.9329 8.75959 9.73745 9.08107 9.81782C9.25497 9.86129 9.392 9.97658 9.46844 10.1242C9.54487 9.97658 9.6819 9.86129 9.8558 9.81782C10.1773 9.73745 10.503 9.9329 10.5834 10.2544L10.9161 11.5851L11.4395 10.1892C11.5273 9.95505 11.7512 9.7999 12.0013 9.7999C12.2514 9.7999 12.4753 9.95505 12.5631 10.1892L13.0866 11.5851L13.4192 10.2544C13.4996 9.9329 13.8254 9.73745 14.1468 9.81782C14.3211 9.86138 14.4583 9.97703 14.5347 10.125C14.611 9.97703 14.7482 9.86138 14.9225 9.81782C15.2439 9.73745 15.5697 9.9329 15.6501 10.2544L15.9828 11.5851L16.5062 10.1892C16.594 9.95505 16.8179 9.7999 17.068 9.7999C17.3181 9.7999 17.542 9.95505 17.6298 10.1892L18.1532 11.5851L18.4859 10.2544C18.5663 9.9329 18.892 9.73745 19.2135 9.81782C19.535 9.89819 19.7304 10.2239 19.6501 10.5454L18.8501 13.7454C18.7864 14.0002 18.5643 14.184 18.3021 14.1989C18.0399 14.2139 17.7984 14.0565 17.7062 13.8106L17.068 12.1087L16.4298 13.8106C16.3376 14.0565 16.0961 14.2139 15.8339 14.1989C15.5716 14.184 15.3496 14.0002 15.2859 13.7454L14.5347 10.7404L13.7834 13.7454C13.7197 14.0002 13.4977 14.184 13.2354 14.1989C12.9732 14.2139 12.7318 14.0565 12.6395 13.8106L12.0013 12.1087L11.3631 13.8106C11.2709 14.0565 11.0294 14.2139 10.7672 14.1989C10.505 14.184 10.2829 14.0002 10.2192 13.7454L9.46844 10.7422L8.71763 13.7454C8.65393 14.0002 8.4319 14.184 8.16967 14.1989C7.90744 14.2139 7.66597 14.0565 7.57375 13.8106L6.93555 12.1087L6.29734 13.8106C6.20512 14.0565 5.96366 14.2139 5.70143 14.1989C5.4392 14.184 5.21716 14.0002 5.15346 13.7454L4.35346 10.5454C4.27309 10.2239 4.46855 9.89819 4.79003 9.81782C5.1115 9.73745 5.43726 9.9329 5.51763 10.2544Z" fill="#323544"/>
</svg>
