<svg width="24" height="24" viewBox="0 0 24 24" fill="none" xmlns="http://www.w3.org/2000/svg">
<g opacity="0.4">
<path d="M8.75 2.75C8.75 2.33579 8.41421 2 8 2C7.58579 2 7.25 2.33579 7.25 2.75V3.75H5.5C4.25736 3.75 3.25 4.75736 3.25 6V8.25H20.75V6C20.75 4.75736 19.7426 3.75 18.5 3.75H16.75V2.75C16.75 2.33579 16.4142 2 16 2C15.5858 2 15.25 2.33579 15.25 2.75V3.75H8.75V2.75Z" fill="#323544"/>
<path d="M3.25 19V9.75H20.75V19C20.75 20.2426 19.7426 21.25 18.5 21.25H5.5C4.25736 21.25 3.25 20.2426 3.25 19ZM7.98438 11.95C7.54255 11.95 7.18438 12.3082 7.18438 12.75C7.18438 13.1918 7.54255 13.55 7.98438 13.55H7.99438C8.4362 13.55 8.79437 13.1918 8.79437 12.75C8.79437 12.3082 8.4362 11.95 7.99438 11.95H7.98438ZM11.9941 11.95C11.5523 11.95 11.1941 12.3082 11.1941 12.75C11.1941 13.1918 11.5523 13.55 11.9941 13.55H12.0041C12.446 13.55 12.8041 13.1918 12.8041 12.75C12.8041 12.3082 12.446 11.95 12.0041 11.95H11.9941ZM16.0039 11.95C15.5621 11.95 15.2039 12.3082 15.2039 12.75C15.2039 13.1918 15.5621 13.55 16.0039 13.55H16.0139C16.4557 13.55 16.8139 13.1918 16.8139 12.75C16.8139 12.3082 16.4557 11.95 16.0139 11.95H16.0039ZM7.98438 15.95C7.54255 15.95 7.18438 16.3082 7.18438 16.75C7.18438 17.1918 7.54255 17.55 7.98438 17.55H7.99438C8.4362 17.55 8.79437 17.1918 8.79437 16.75C8.79437 16.3082 8.4362 15.95 7.99438 15.95H7.98438ZM11.9941 15.95C11.5523 15.95 11.1941 16.3082 11.1941 16.75C11.1941 17.1918 11.5523 17.55 11.9941 17.55H12.0041C12.446 17.55 12.8041 17.1918 12.8041 16.75C12.8041 16.3082 12.446 15.95 12.0041 15.95H11.9941ZM16.0039 15.95C15.5621 15.95 15.2039 16.3082 15.2039 16.75C15.2039 17.1918 15.5621 17.55 16.0039 17.55H16.0139C16.4557 17.55 16.8139 17.1918 16.8139 16.75C16.8139 16.3082 16.4557 15.95 16.0139 15.95H16.0039Z" fill="#323544"/>
</g>
<path d="M7.18457 12.7492C7.18457 12.3074 7.54274 11.9492 7.98457 11.9492H7.99457C8.4364 11.9492 8.79457 12.3074 8.79457 12.7492C8.79457 13.191 8.4364 13.5492 7.99457 13.5492H7.98457C7.54274 13.5492 7.18457 13.191 7.18457 12.7492Z" fill="#323544"/>
<path d="M11.1943 12.7492C11.1943 12.3074 11.5525 11.9492 11.9943 11.9492H12.0043C12.4462 11.9492 12.8043 12.3074 12.8043 12.7492C12.8043 13.191 12.4462 13.5492 12.0043 13.5492H11.9943C11.5525 13.5492 11.1943 13.191 11.1943 12.7492Z" fill="#323544"/>
<path d="M15.2041 12.7492C15.2041 12.3074 15.5623 11.9492 16.0041 11.9492H16.0141C16.4559 11.9492 16.8141 12.3074 16.8141 12.7492C16.8141 13.191 16.4559 13.5492 16.0141 13.5492H16.0041C15.5623 13.5492 15.2041 13.191 15.2041 12.7492Z" fill="#323544"/>
<path d="M15.2041 16.7492C15.2041 16.3074 15.5623 15.9492 16.0041 15.9492H16.0141C16.4559 15.9492 16.8141 16.3074 16.8141 16.7492C16.8141 17.191 16.4559 17.5492 16.0141 17.5492H16.0041C15.5623 17.5492 15.2041 17.191 15.2041 16.7492Z" fill="#323544"/>
<path d="M11.1943 16.7492C11.1943 16.3074 11.5525 15.9492 11.9943 15.9492H12.0043C12.4462 15.9492 12.8043 16.3074 12.8043 16.7492C12.8043 17.191 12.4462 17.5492 12.0043 17.5492H11.9943C11.5525 17.5492 11.1943 17.191 11.1943 16.7492Z" fill="#323544"/>
<path d="M7.18457 16.7492C7.18457 16.3074 7.54274 15.9492 7.98457 15.9492H7.99457C8.4364 15.9492 8.79457 16.3074 8.79457 16.7492C8.79457 17.191 8.4364 17.5492 7.99457 17.5492H7.98457C7.54274 17.5492 7.18457 17.191 7.18457 16.7492Z" fill="#323544"/>
</svg>
