<svg width="24" height="24" viewBox="0 0 24 24" fill="none" xmlns="http://www.w3.org/2000/svg">
<path d="M18.4359 14.99C18.3472 15.0666 18.2283 15.1049 18.0792 15.1049H17.5713C17.5511 15.1049 17.541 15.0949 17.541 15.0747V14.2645C17.541 14.2443 17.5511 14.2342 17.5713 14.2342H18.0792C18.2283 14.2342 18.3472 14.2745 18.4359 14.3552C18.5286 14.4358 18.575 14.5426 18.575 14.6756C18.575 14.8046 18.5286 14.9094 18.4359 14.99Z" fill="#323544"/>
<path fill-rule="evenodd" clip-rule="evenodd" d="M10.5 11.75C9.67157 11.75 9 12.4216 9 13.25V17.5058C9 18.3342 9.67157 19.0058 10.5 19.0058H20.5C21.3284 19.0058 22 18.3342 22 17.5058V13.25C22 12.4216 21.3284 11.75 20.5 11.75H10.5ZM19.0224 13.4361C18.8048 13.3192 18.5528 13.2607 18.2666 13.2607H16.495C16.4668 13.2607 16.4446 13.2688 16.4285 13.2849C16.4124 13.3011 16.4043 13.3232 16.4043 13.3514V17.4026C16.4043 17.4308 16.4124 17.453 16.4285 17.4691C16.4446 17.4852 16.4668 17.4933 16.495 17.4933H17.4503C17.4786 17.4933 17.5007 17.4852 17.5169 17.4691C17.533 17.453 17.541 17.4308 17.541 17.4026V16.0421C17.541 16.022 17.5511 16.0119 17.5713 16.0119H18.2122C18.5065 16.0119 18.7665 15.9555 18.9922 15.8426C19.2179 15.7297 19.3933 15.5705 19.5183 15.3649C19.6432 15.1593 19.7057 14.9215 19.7057 14.6514C19.7057 14.3773 19.6452 14.1355 19.5243 13.9259C19.4074 13.7122 19.2401 13.549 19.0224 13.4361ZM14.907 17.4933C14.8788 17.4933 14.8566 17.4852 14.8405 17.4691C14.8243 17.453 14.8163 17.4308 14.8163 17.4026V13.3514C14.8163 13.3232 14.8243 13.3011 14.8405 13.2849C14.8566 13.2688 14.8788 13.2607 14.907 13.2607H15.8623C15.8905 13.2607 15.9127 13.2688 15.9288 13.2849C15.945 13.3011 15.953 13.3232 15.953 13.3514V17.4026C15.953 17.4308 15.945 17.453 15.9288 17.4691C15.9127 17.4852 15.8905 17.4933 15.8623 17.4933H14.907ZM11.3543 17.4691C11.3704 17.4852 11.3926 17.4933 11.4208 17.4933H14.3291C14.3574 17.4933 14.3795 17.4852 14.3957 17.4691C14.4118 17.453 14.4198 17.4308 14.4198 17.4026V16.6105C14.4198 16.5823 14.4118 16.5601 14.3957 16.544C14.3795 16.5279 14.3574 16.5198 14.3291 16.5198H12.624C12.6119 16.5198 12.6039 16.5158 12.5998 16.5077C12.5958 16.4997 12.5978 16.4916 12.6059 16.4835L14.3775 14.337C14.4057 14.3088 14.4198 14.2705 14.4198 14.2221V13.3514C14.4198 13.3232 14.4118 13.3011 14.3957 13.2849C14.3795 13.2688 14.3574 13.2607 14.3291 13.2607H11.4208C11.3926 13.2607 11.3704 13.2688 11.3543 13.2849C11.3381 13.3011 11.3301 13.3232 11.3301 13.3514V14.1435C11.3301 14.1718 11.3381 14.1939 11.3543 14.21C11.3704 14.2262 11.3926 14.2342 11.4208 14.2342H13.1138C13.1259 14.2342 13.134 14.2383 13.138 14.2463C13.142 14.2544 13.14 14.2624 13.1319 14.2705L11.3724 16.417C11.3442 16.4493 11.3301 16.4855 11.3301 16.5259V17.4026C11.3301 17.4308 11.3381 17.453 11.3543 17.4691Z" fill="#323544"/>
<path d="M5.38427 9.00073C5.45795 8.8385 5.56064 8.68917 5.68901 8.56072L11.0567 3.18967C11.1854 3.06093 11.335 2.95799 11.4976 2.88417M5.38427 9.00073H10.0009C10.8297 9.00073 11.5015 8.32851 11.5009 7.49966L11.4976 2.88417M5.38427 9.00073C5.29661 9.19374 5.25 9.40499 5.25 9.62105V19.75C5.25 20.5784 5.92157 21.25 6.75 21.25H17.25C18.0784 21.25 18.75 20.5784 18.75 19.75V18.9854M11.4976 2.88417C11.6905 2.79658 11.9017 2.75 12.1177 2.75H17.25C18.0784 2.75 18.75 3.42157 18.75 4.25V11.7656" stroke="#323544" stroke-width="1.5" stroke-linecap="round" stroke-linejoin="round"/>
</svg>
