<svg width="24" height="24" viewBox="0 0 24 24" fill="none" xmlns="http://www.w3.org/2000/svg">
<path d="M7.79755 21.2498H15.1564C17.3655 21.2498 19.1564 19.4589 19.1564 17.2498V5.68281M4.97759 7.98144C5.05127 7.81926 5.15393 7.66997 5.28227 7.54154L9.63142 3.18967C9.76002 3.06099 9.90959 2.95808 10.0721 2.88428M4.97759 7.98144H8.57466C9.4035 7.98144 10.0752 7.30922 10.0747 6.48037L10.0721 2.88428M4.97759 7.98144C4.88989 8.17448 4.84326 8.38577 4.84326 8.60187V16.7332C4.84326 17.5617 5.51483 18.2332 6.34326 18.2332H14.6418C15.4703 18.2332 16.1418 17.5617 16.1418 16.7332V4.25C16.1418 3.42157 15.4703 2.75 14.6418 2.75H10.6924C10.4764 2.75 10.2651 2.79662 10.0721 2.88428" stroke="#323544" stroke-width="1.5" stroke-linecap="round" stroke-linejoin="round"/>
</svg>
