<svg width="24" height="24" viewBox="0 0 24 24" fill="none" xmlns="http://www.w3.org/2000/svg">
<path d="M15 16.6249H18.2502M16.6251 14.9999V18.2501M10.5625 21.25H6.75C5.92157 21.25 5.25 20.5784 5.25 19.75V9.62105C5.25 9.40499 5.29661 9.19374 5.38427 9.00073M18.75 9.30469V4.25C18.75 3.42157 18.0784 2.75 17.25 2.75H12.1177C11.9017 2.75 11.6905 2.79658 11.4976 2.88417M5.38427 9.00073C5.45795 8.8385 5.56064 8.68917 5.68901 8.56072L11.0567 3.18967C11.1854 3.06093 11.335 2.95799 11.4976 2.88417M5.38427 9.00073H10.0009C10.8297 9.00073 11.5015 8.32851 11.5009 7.49966L11.4976 2.88417M21.25 16.625C21.25 19.1793 19.1793 21.25 16.625 21.25C14.0707 21.25 12 19.1793 12 16.625C12 14.0707 14.0707 12 16.625 12C19.1793 12 21.25 14.0707 21.25 16.625Z" stroke="#323544" stroke-width="1.5" stroke-linecap="round" stroke-linejoin="round"/>
</svg>
