<svg width="24" height="24" viewBox="0 0 24 24" fill="none" xmlns="http://www.w3.org/2000/svg">
<path d="M3.94784 7.44679C3.25297 6.56379 3.31266 5.2807 4.12692 4.46644L4.46468 4.12869C5.27862 3.31474 6.56102 3.25478 7.44399 3.94879C10.2614 2.35195 13.7385 2.35171 16.5562 3.94805C17.4392 3.25426 18.7214 3.3143 19.5352 4.12816L19.873 4.46591C20.687 5.27988 20.7469 6.56235 20.0528 7.44532C21.6484 10.2628 21.6478 13.7393 20.0511 16.5563C20.7434 17.4392 20.683 18.7203 19.8696 19.5336L19.5319 19.8714C18.7182 20.685 17.4364 20.7453 16.5535 20.052C13.7373 21.6463 10.2629 21.6461 7.4468 20.0514C6.56382 20.7456 5.28126 20.6857 4.46724 19.8717L4.12949 19.5339C3.31558 18.72 3.25559 17.4377 3.9495 16.5547C2.35398 13.7385 2.35342 10.2635 3.94784 7.44679ZM5.05113 15.4303L7.98787 12.4935C7.96832 12.3324 7.95828 12.1686 7.95828 12.0027C7.95828 11.8361 7.96842 11.6715 7.98815 11.5096L5.0497 8.57119C3.98621 10.7271 3.98669 13.2748 5.05113 15.4303ZM8.57125 18.9496C10.7265 20.0133 13.2735 20.0136 15.4288 18.9503L12.491 16.0125C12.3292 16.0323 12.1646 16.0424 11.998 16.0424C11.8323 16.0424 11.6688 16.0324 11.508 16.0129L8.57125 18.9496ZM18.9497 15.4317C20.015 13.2754 20.0155 10.7264 18.9511 8.56978L16.0081 11.5128C16.0276 11.6736 16.0376 11.8371 16.0376 12.0027C16.0376 12.1676 16.0277 12.3303 16.0084 12.4904L18.9497 15.4317ZM15.4317 5.04967C13.2748 3.98452 10.7251 3.98475 8.56834 5.05037L11.5103 7.99228C11.6704 7.97298 11.8331 7.96307 11.998 7.96307C12.1638 7.96307 12.3277 7.97311 12.4888 7.99266L15.4317 5.04967ZM17.4139 5.18882L14.069 8.53374C14.6428 8.87695 15.1242 9.35838 15.4673 9.93227L18.8123 6.58723C19.1052 6.29434 19.1052 5.81946 18.8123 5.52657L18.4746 5.18882C18.1817 4.89593 17.7068 4.89593 17.4139 5.18882ZM14.0706 15.4708L17.4106 18.8107C17.7034 19.1036 18.1783 19.1036 18.4712 18.8107L18.809 18.473C19.1019 18.1801 19.1019 17.7052 18.809 17.4123L15.4682 14.0716C15.1254 14.6457 14.6443 15.1273 14.0706 15.4708ZM14.4725 12.5772C14.515 12.3933 14.5376 12.2011 14.5376 12.0027C14.5376 11.8038 14.5149 11.611 14.4722 11.4266C14.2546 10.4875 13.5137 9.74641 12.5746 9.52865C12.3901 9.48586 12.1971 9.46307 11.998 9.46307C11.7995 9.46307 11.6074 9.48568 11.4235 9.52815C10.4841 9.7451 9.74259 10.4856 9.52424 11.4245C9.4812 11.6095 9.45828 11.803 9.45828 12.0027C9.45828 12.2019 9.48107 12.3949 9.52387 12.5794C9.74163 13.5185 10.4827 14.2594 11.4219 14.477C11.6062 14.5197 11.799 14.5424 11.998 14.5424C12.1977 14.5424 12.3912 14.5195 12.5762 14.4764C13.5151 14.2581 14.2556 13.5166 14.4725 12.5772ZM8.52896 14.0738L5.19015 17.4126C4.89726 17.7055 4.89726 18.1804 5.19015 18.4733L5.5279 18.811C5.82079 19.1039 6.29567 19.1039 6.58856 18.811L9.92749 15.4721C9.35359 15.129 8.87216 14.6476 8.52896 14.0738ZM6.58599 5.18935C6.2931 4.89645 5.81823 4.89645 5.52534 5.18935L5.18758 5.5271C4.89469 5.81999 4.89469 6.29486 5.18758 6.58776L8.52992 9.93009C8.87338 9.35643 9.35502 8.87529 9.92909 8.53244L6.58599 5.18935Z" fill="#323544"/>
</svg>
