<svg width="25" height="25" viewBox="0 0 25 25" fill="none" xmlns="http://www.w3.org/2000/svg">
<path d="M5.52344 2.66016C5.93765 2.66016 6.27344 2.99594 6.27344 3.41016V4.41016H10.7734C12.0161 4.41016 13.0234 5.41752 13.0234 6.66016V8.16016V15.9102H11.5234H6.27344V21.9102C6.27344 22.3244 5.93765 22.6602 5.52344 22.6602C5.10922 22.6602 4.77344 22.3244 4.77344 21.9102V3.41016C4.77344 2.99594 5.10922 2.66016 5.52344 2.66016ZM10.7734 5.91016H6.27344V14.4102H11.5234V6.66016C11.5234 6.24594 11.1877 5.91016 10.7734 5.91016Z" fill="#323544"/>
<path opacity="0.4" d="M11.5234 15.9102C11.5234 17.1528 12.5308 18.1602 13.7734 18.1602H19.0234C19.2779 18.1602 19.5151 18.0311 19.6533 17.8174C19.7914 17.6037 19.8118 17.3345 19.7074 17.1024L17.7344 12.7179C17.6463 12.5222 17.6463 12.2981 17.7344 12.1024L19.7074 7.71793C19.8118 7.48585 19.7914 7.21664 19.6533 7.00293C19.5151 6.78921 19.2779 6.66016 19.0234 6.66016H13.0234V8.16016H17.8635L16.3665 11.4868C16.1023 12.074 16.1023 12.7463 16.3665 13.3335L17.8635 16.6602H13.7734C13.3592 16.6602 13.0234 16.3244 13.0234 15.9102H11.5234Z" fill="#323544"/>
</svg>
