<svg width="25" height="25" viewBox="0 0 25 25" fill="none" xmlns="http://www.w3.org/2000/svg">
<path d="M16.0664 7.53516C16.0664 5.39505 14.3315 3.66016 12.1914 3.66016C10.0513 3.66016 8.31641 5.39505 8.31641 7.53516C8.31641 9.67526 10.0513 11.4102 12.1914 11.4102C14.3315 11.4102 16.0664 9.67526 16.0664 7.53516ZM17.5664 7.53516C17.5664 10.5037 15.1599 12.9102 12.1914 12.9102C9.22288 12.9102 6.81641 10.5037 6.81641 7.53516C6.81641 4.56663 9.22288 2.16016 12.1914 2.16016C15.1599 2.16016 17.5664 4.56663 17.5664 7.53516Z" fill="#323544"/>
<path opacity="0.4" d="M11.4414 21.4102V12.1602C11.4414 11.7459 11.7772 11.4102 12.1914 11.4102C12.6056 11.4102 12.9414 11.7459 12.9414 12.1602V21.4102C12.9414 21.8244 12.6056 22.1602 12.1914 22.1602C11.7772 22.1602 11.4414 21.8244 11.4414 21.4102Z" fill="#323544"/>
</svg>
