<svg width="25" height="25" viewBox="0 0 25 25" fill="none" xmlns="http://www.w3.org/2000/svg">
<path opacity="0.4" d="M12.5033 2.83984C8.3766 2.83984 5.03125 6.1852 5.03125 10.3119C5.03125 13.1162 6.1028 15.6692 7.37569 17.7181C8.65084 19.7706 10.1581 21.3657 11.1026 22.2692C11.9045 23.0362 13.139 23.0348 13.9389 22.2653C14.8791 21.3609 16.3778 19.7657 17.6454 17.7137C18.9108 15.6653 19.9754 13.1139 19.9754 10.3119C19.9754 6.1852 16.63 2.83984 12.5033 2.83984ZM6.53125 10.3119C6.53125 7.01362 9.20503 4.33984 12.5033 4.33984C15.8016 4.33984 18.4754 7.01362 18.4754 10.3119C18.4754 12.7374 17.5503 15.0136 16.3692 16.9254C15.1904 18.8336 13.7859 20.3311 12.899 21.1843C12.6788 21.3961 12.3604 21.3966 12.1395 21.1852C11.2483 20.3328 9.83565 18.8352 8.64982 16.9265C7.46175 15.0142 6.53125 12.7375 6.53125 10.3119Z" fill="#323544"/>
<path d="M12.503 6.47461C10.385 6.47461 8.66797 8.1916 8.66797 10.3096C8.66797 12.4276 10.385 14.1446 12.503 14.1446C14.621 14.1446 16.338 12.4276 16.338 10.3096C16.338 8.1916 14.621 6.47461 12.503 6.47461ZM10.168 10.3096C10.168 9.02002 11.2134 7.97461 12.503 7.97461C13.7926 7.97461 14.838 9.02002 14.838 10.3096C14.838 11.5992 13.7926 12.6446 12.503 12.6446C11.2134 12.6446 10.168 11.5992 10.168 10.3096Z" fill="#323544"/>
</svg>
