<svg width="25" height="24" viewBox="0 0 25 24" fill="none" xmlns="http://www.w3.org/2000/svg">
<path opacity="0.4" d="M8.88726 11.6218C9.25651 12.1055 9.62365 12.5173 9.93896 12.8439V18.5479L14.6925 17.407V12.8504C15.0086 12.522 15.3779 12.1064 15.7493 11.6172C15.8938 11.427 16.0431 11.2195 16.1925 10.9961L16.1925 17.4124L19.8836 18.3163C20.3561 18.432 20.812 18.0743 20.812 17.5879V7.17652C20.812 6.83103 20.576 6.53023 20.2404 6.44805L17.8411 5.86044C17.824 5.29651 17.7225 4.75381 17.5488 4.24454L20.5972 4.9911C21.604 5.23766 22.312 6.14004 22.312 7.17652V17.5879C22.312 19.0472 20.9443 20.1204 19.5268 19.7733L15.612 18.8145C15.4959 18.7861 15.3747 18.7858 15.2585 18.8137L9.71606 20.144C9.36747 20.2276 9.00393 20.2268 8.65574 20.1415L4.02728 19.008C3.02055 18.7614 2.3125 17.8591 2.3125 16.8226V6.41123C2.3125 4.9519 3.68027 3.87868 5.09771 4.22581L6.94725 4.67877C6.83851 5.11154 6.78076 5.56456 6.78076 6.03107C6.78076 6.0818 6.78129 6.13235 6.78233 6.18271L4.7409 5.68276C4.26842 5.56704 3.8125 5.92479 3.8125 6.41123V16.8226C3.8125 17.1681 4.04852 17.4689 4.38409 17.551L8.43896 18.5441V10.9965C8.59011 11.2216 8.74122 11.4304 8.88726 11.6218Z" fill="#323544"/>
<path d="M12.3223 5.13184C12.8192 5.13184 13.2225 5.53431 13.2227 6.03125C13.2227 6.52831 12.8193 6.93164 12.3223 6.93164H12.3125L12.2207 6.92676C11.7668 6.88077 11.4121 6.49731 11.4121 6.03125C11.4122 5.53431 11.8155 5.13184 12.3125 5.13184H12.3223Z" fill="#323544"/>
<path d="M12.3125 2C14.5389 2 16.3436 3.80483 16.3438 6.03125C16.3438 7.92615 15.4142 9.57881 14.5547 10.7109C14.1186 11.2852 13.6837 11.7477 13.3574 12.0674C13.1941 12.2274 13.0571 12.3528 12.959 12.4395C12.9099 12.4828 12.8698 12.5174 12.8418 12.541L12.793 12.5801C12.5182 12.8028 12.1249 12.8032 11.8496 12.5811L11.8018 12.542C11.7737 12.5184 11.7339 12.4847 11.6846 12.4414C11.5861 12.3548 11.4484 12.2293 11.2842 12.0693C10.9562 11.7496 10.5186 11.2864 10.0801 10.7119C9.21622 9.58005 8.28125 7.92733 8.28125 6.03125C8.28136 3.8049 10.0862 2.00011 12.3125 2ZM12.3125 3.5C10.9146 3.50011 9.78136 4.63333 9.78125 6.03125C9.78125 7.44732 10.4913 8.77826 11.2725 9.80176C11.6518 10.2987 12.0327 10.7032 12.3203 10.9844C12.6062 10.7034 12.9838 10.2997 13.3604 9.80371C14.1372 8.78044 14.8438 7.44865 14.8438 6.03125C14.8436 4.63326 13.7105 3.5 12.3125 3.5Z" fill="#323544"/>
</svg>
