<svg width="25" height="25" viewBox="0 0 25 25" fill="none" xmlns="http://www.w3.org/2000/svg">
<path d="M19.1279 16.249C19.625 16.249 20.0283 16.6524 20.0283 17.1494C20.0281 17.6463 19.6249 18.0488 19.1279 18.0488H19.1201C18.6234 18.0486 18.2209 17.6462 18.2207 17.1494C18.2207 16.6525 18.6233 16.2493 19.1201 16.249H19.1279Z" fill="#323544"/>
<path d="M19.1211 13.957C20.8838 13.9572 22.3125 15.3866 22.3125 17.1494C22.3124 18.6204 21.5925 19.8907 20.9424 20.7471C20.6109 21.1837 20.2801 21.5355 20.0322 21.7783C19.9082 21.8998 19.8036 21.9951 19.7285 22.0615C19.6909 22.0947 19.6605 22.1212 19.6387 22.1396L19.5996 22.1719C19.3248 22.3948 18.9316 22.395 18.6562 22.1729L18.6172 22.1406C18.5953 22.1223 18.5649 22.0965 18.5273 22.0635C18.4518 21.9971 18.3457 21.9011 18.2207 21.7793C17.9717 21.5366 17.6397 21.1854 17.3066 20.749C16.6532 19.8929 15.9288 18.6217 15.9287 17.1494C15.9287 15.3865 17.3582 13.957 19.1211 13.957ZM19.1211 15.457C18.1866 15.457 17.4287 16.2149 17.4287 17.1494C17.4288 18.1418 17.9283 19.0911 18.499 19.8389C18.7187 20.1267 18.9396 20.3714 19.126 20.5625C19.311 20.3716 19.5302 20.1269 19.748 19.8398C20.3154 19.0924 20.8124 18.1428 20.8125 17.1494C20.8125 16.2151 20.0554 15.4572 19.1211 15.457Z" fill="#323544"/>
<path d="M5.51172 4.63184C6.00877 4.63184 6.41211 5.03517 6.41211 5.53223C6.41193 6.02913 6.00866 6.43164 5.51172 6.43164H5.50391C5.00717 6.4314 4.60468 6.02897 4.60449 5.53223C4.60449 5.03532 5.00706 4.63208 5.50391 4.63184H5.51172Z" fill="#323544"/>
<path d="M5.50488 2.33984C7.26761 2.34004 8.69629 3.76945 8.69629 5.53223C8.69617 7.00325 7.97631 8.27352 7.32617 9.12988C6.99465 9.56656 6.66387 9.91829 6.41602 10.1611C6.29198 10.2827 6.18743 10.378 6.1123 10.4443C6.07471 10.4775 6.0443 10.504 6.02246 10.5225L5.9834 10.5547C5.70859 10.7776 5.31541 10.7778 5.04004 10.5557L5.00098 10.5234C4.97912 10.5051 4.94871 10.4793 4.91113 10.4463C4.83555 10.3799 4.72946 10.2839 4.60449 10.1621C4.35545 9.91936 4.02352 9.56823 3.69043 9.13184C3.03702 8.27573 2.31262 7.00455 2.3125 5.53223C2.3125 3.76933 3.74198 2.33984 5.50488 2.33984ZM5.50488 3.83984C4.57041 3.83984 3.8125 4.59775 3.8125 5.53223C3.81262 6.52458 4.31211 7.47394 4.88281 8.22168C5.10248 8.50949 5.32344 8.75418 5.50977 8.94531C5.69475 8.75444 5.91394 8.50966 6.13184 8.22266C6.6992 7.47523 7.19617 6.52564 7.19629 5.53223C7.19629 4.59788 6.43919 3.84004 5.50488 3.83984Z" fill="#323544"/>
<path opacity="0.4" d="M7.95035 10.7266H10.7092C11.8984 10.7266 12.8625 11.6906 12.8625 12.8799C12.8625 14.0691 11.8984 15.0332 10.7092 15.0332H5.96973C3.95206 15.0332 2.31641 16.6688 2.31641 18.6865C2.31641 20.7042 3.95205 22.3398 5.96973 22.3398H16.6221C16.442 22.1401 16.2496 21.9121 16.0563 21.6588C15.8758 21.4222 15.6824 21.148 15.4934 20.8398H5.96973C4.78048 20.8398 3.81641 19.8758 3.81641 18.6865C3.81641 17.4973 4.78048 16.5332 5.96973 16.5332H10.7092C12.7269 16.5332 14.3625 14.8976 14.3625 12.8799C14.3625 10.8622 12.7269 9.22656 10.7092 9.22656H9.07555C8.88926 9.53108 8.69884 9.80251 8.5208 10.037C8.32577 10.2939 8.13168 10.5248 7.95035 10.7266Z" fill="#323544"/>
</svg>
