<svg width="24" height="25" viewBox="0 0 24 25" fill="none" xmlns="http://www.w3.org/2000/svg">
<path opacity="0.4" d="M11.3414 2.5C10.5958 2.5 9.99141 3.10442 9.99141 3.85V10.4397C9.99141 10.6341 9.83382 10.7917 9.63942 10.7917C9.44503 10.7917 9.28744 10.6341 9.28744 10.4397V5.16834C9.28744 4.42277 8.68303 3.81836 7.93746 3.81836C7.19185 3.81836 6.58743 4.42281 6.58747 5.16841L6.5879 13.4287L5.82515 12.651C5.04313 11.8536 3.76081 11.8474 2.97107 12.6371C2.21024 13.398 2.18415 14.6232 2.91192 15.4158L5.5472 18.2855C5.59877 18.3417 5.64937 18.4023 5.70737 18.4747C5.98515 18.8213 6.81948 19.8087 8.00703 20.7156C9.18308 21.6137 10.7931 22.5 12.607 22.5L12.61 22.5C14.2654 22.4935 15.5646 22.0996 16.5695 21.4459C17.5727 20.7935 18.2345 19.9137 18.6675 19.0107C19.5168 17.2394 19.5132 15.3191 19.4952 14.6098L19.4997 7.87413C19.5002 7.12831 18.8957 6.52344 18.1499 6.52344C17.4044 6.52344 16.8001 7.12776 16.8001 7.87324V10.6279C16.8001 10.8224 16.6424 10.9801 16.4479 10.9801C16.2534 10.9801 16.0957 10.8224 16.0957 10.6279V5.16836C16.0957 4.42278 15.4913 3.81836 14.7457 3.81836C14.0001 3.81836 13.3957 4.42278 13.3957 5.16836V10.6279C13.3957 10.8224 13.238 10.9801 13.0435 10.9801C12.849 10.98 12.6914 10.8224 12.6914 10.6279V3.85C12.6914 3.10441 12.087 2.5 11.3414 2.5Z" fill="#323544"/>
<path d="M11.835 17.918V16.418C11.835 16.0038 11.4992 15.668 11.085 15.668H9.58496C9.17075 15.668 8.83496 15.3322 8.83496 14.918C8.83496 14.5038 9.17075 14.168 9.58496 14.168H11.085C12.3276 14.168 13.335 15.1753 13.335 16.418V17.918C13.335 18.3322 12.9992 18.668 12.585 18.668C12.1707 18.668 11.835 18.3322 11.835 17.918Z" fill="#323544"/>
</svg>
