<svg width="24" height="25" viewBox="0 0 24 25" fill="none" xmlns="http://www.w3.org/2000/svg">
<path d="M13.6387 17.6293C14.0626 17.7422 14.5675 17.8576 15.1118 17.9431C15.8728 18.0625 16.7358 18.1274 17.5749 18.0323C18.4122 17.9374 19.2743 17.6775 19.9779 17.104C21.7704 15.643 22.2678 13.4032 21.8717 11.3053C21.4767 9.21322 20.1839 7.16221 18.2456 5.93209C17.3131 5.34027 16.0867 5.07891 14.8561 4.98251C13.6097 4.88486 12.2736 4.95073 11.0594 5.07703C9.84188 5.20368 8.72718 5.39326 7.91794 5.55077C7.55037 5.62231 7.24465 5.68747 7.01953 5.7375L7.01953 17.7171L10.1671 21.6551C10.5941 22.1893 11.2408 22.5003 11.9247 22.5003C13.3676 22.5003 14.4376 21.1613 14.1192 19.7539L13.6387 17.6293Z" fill="#323544"/>
<path opacity="0.4" d="M5.51953 17.2728H4.25C3.00736 17.2728 2 16.2654 2 15.0228V8.06543C2 6.82279 3.00736 5.81543 4.25 5.81543H5.51953L5.51953 17.2728Z" fill="#323544"/>
</svg>
