<svg width="24" height="25" viewBox="0 0 24 25" fill="none" xmlns="http://www.w3.org/2000/svg">
<path d="M13.6387 7.37094C14.0626 7.25806 14.5675 7.14265 15.1118 7.05723C15.8728 6.93782 16.7358 6.87293 17.5749 6.96799C18.4122 7.06286 19.2743 7.32281 19.9779 7.89626C21.7704 9.35732 22.2678 11.5971 21.8717 13.6949C21.4767 15.7871 20.1839 17.8381 18.2456 19.0682C17.3131 19.66 16.0867 19.9214 14.8561 20.0178C13.6097 20.1154 12.2736 20.0496 11.0594 19.9233C9.84188 19.7966 8.72718 19.607 7.91794 19.4495C7.55037 19.378 7.24465 19.3128 7.01953 19.2628L7.01953 7.28322L10.1671 3.34521C10.5941 2.81102 11.2408 2.5 11.9247 2.5C13.3676 2.5 14.4376 3.83902 14.1192 5.24639L13.6387 7.37094Z" fill="#323544"/>
<path opacity="0.4" d="M5.51953 7.72754H4.25C3.00736 7.72754 2 8.7349 2 9.97754V16.9349C2 18.1775 3.00736 19.1849 4.25 19.1849H5.51953L5.51953 7.72754Z" fill="#323544"/>
</svg>
